<svg viewBox="0 0 357 106" fill="none" xmlns="http://www.w3.org/2000/svg">
<g id="hashmap-add-no-collision">
<g id="array">
<rect id="Rectangle 1" x="4.5" y="50.5" width="51.5745" height="55" stroke="black"/>
<rect id="Rectangle 7" x="307.071" y="50.5" width="49.4286" height="55" stroke="black"/>
<rect id="Rectangle 6" x="257.716" y="50.5" width="48.3556" height="55" stroke="black"/>
<rect id="Rectangle 5" x="207.287" y="50.5" width="49.4286" height="55" stroke="black"/>
<rect id="Rectangle 4" x="156.859" y="50.5" width="49.4286" height="55" stroke="black"/>
<rect id="Rectangle 3" x="106.43" y="50.5" width="49.4286" height="55" stroke="black"/>
<rect id="Rectangle 2" x="57.0745" y="50.5" width="48.3556" height="55" stroke="black"/>
<g id="pair">
<circle id="node-template" cx="30" cy="78" r="22.5" stroke="black"/>
<g id="params">
<path id="key=&#226;&#128;&#156;john&#226;&#128;&#157;" d="M11.6617 70.3715V74.273H11.8687C11.9287 74.273 11.9782 74.2655 12.0172 74.2505C12.0592 74.2325 12.1027 74.198 12.1477 74.147L13.5877 72.6035C13.6297 72.5525 13.6732 72.5135 13.7182 72.4865C13.7662 72.4565 13.8292 72.4415 13.9072 72.4415H14.6317L12.9532 74.228C12.8722 74.33 12.7852 74.4095 12.6922 74.4665C12.7462 74.5025 12.7942 74.5445 12.8362 74.5925C12.8812 74.6375 12.9232 74.69 12.9622 74.75L14.7442 77H14.0287C13.9597 77 13.8997 76.9895 13.8487 76.9685C13.8007 76.9445 13.7587 76.9025 13.7227 76.8425L12.2242 74.975C12.1792 74.912 12.1342 74.8715 12.0892 74.8535C12.0472 74.8325 11.9812 74.822 11.8912 74.822H11.6617V77H10.8562V70.3715H11.6617ZM18.2226 74.2235C18.2226 74.0375 18.1956 73.868 18.1416 73.715C18.0906 73.559 18.0141 73.4255 17.9121 73.3145C17.8131 73.2005 17.6916 73.1135 17.5476 73.0535C17.4036 72.9905 17.2401 72.959 17.0571 72.959C16.6731 72.959 16.3686 73.0715 16.1436 73.2965C15.9216 73.5185 15.7836 73.8275 15.7296 74.2235H18.2226ZM18.8706 76.361C18.7716 76.481 18.6531 76.586 18.5151 76.676C18.3771 76.763 18.2286 76.835 18.0696 76.892C17.9136 76.949 17.7516 76.991 17.5836 77.018C17.4156 77.048 17.2491 77.063 17.0841 77.063C16.7691 77.063 16.4781 77.0105 16.2111 76.9055C15.9471 76.7975 15.7176 76.6415 15.5226 76.4375C15.3306 76.2305 15.1806 75.9755 15.0726 75.6725C14.9646 75.3695 14.9106 75.0215 14.9106 74.6285C14.9106 74.3105 14.9586 74.0135 15.0546 73.7375C15.1536 73.4615 15.2946 73.223 15.4776 73.022C15.6606 72.818 15.8841 72.659 16.1481 72.545C16.4121 72.428 16.7091 72.3695 17.0391 72.3695C17.3121 72.3695 17.5641 72.416 17.7951 72.509C18.0291 72.599 18.2301 72.731 18.3981 72.905C18.5691 73.076 18.7026 73.289 18.7986 73.544C18.8946 73.796 18.9426 74.084 18.9426 74.408C18.9426 74.534 18.9291 74.618 18.9021 74.66C18.8751 74.702 18.8241 74.723 18.7491 74.723H15.7026C15.7116 75.011 15.7506 75.2615 15.8196 75.4745C15.8916 75.6875 15.9906 75.866 16.1166 76.01C16.2426 76.151 16.3926 76.2575 16.5666 76.3295C16.7406 76.3985 16.9356 76.433 17.1516 76.433C17.3526 76.433 17.5251 76.4105 17.6691 76.3655C17.8161 76.3175 17.9421 76.2665 18.0471 76.2125C18.1521 76.1585 18.2391 76.109 18.3081 76.064C18.3801 76.016 18.4416 75.992 18.4926 75.992C18.5586 75.992 18.6096 76.0175 18.6456 76.0685L18.8706 76.361ZM23.7452 72.4415L21.2027 78.3455C21.1757 78.4055 21.1412 78.4535 21.0992 78.4895C21.0602 78.5255 20.9987 78.5435 20.9147 78.5435H20.3207L21.1532 76.7345L19.2722 72.4415H19.9652C20.0342 72.4415 20.0882 72.4595 20.1272 72.4955C20.1692 72.5285 20.1977 72.566 20.2127 72.608L21.4322 75.479C21.4802 75.605 21.5207 75.737 21.5537 75.875C21.5957 75.734 21.6407 75.6005 21.6887 75.4745L22.8722 72.608C22.8902 72.56 22.9202 72.521 22.9622 72.491C23.0072 72.458 23.0567 72.4415 23.1107 72.4415H23.7452ZM24.4934 74.417H28.3634V75.0245H24.4934V74.417ZM24.4934 72.9095H28.3634V73.517H24.4934V72.9095ZM29.8041 72.725C29.6781 72.512 29.5926 72.2885 29.5476 72.0545C29.5026 71.8175 29.4981 71.5835 29.5341 71.3525C29.5701 71.1215 29.6451 70.901 29.7591 70.691C29.8731 70.478 30.0246 70.2875 30.2136 70.1195L30.4566 70.2725C30.5016 70.3025 30.5211 70.34 30.5151 70.385C30.5121 70.427 30.4986 70.46 30.4746 70.484C30.3966 70.58 30.3291 70.697 30.2721 70.835C30.2181 70.973 30.1836 71.1215 30.1686 71.2805C30.1536 71.4365 30.1611 71.5985 30.1911 71.7665C30.2211 71.9345 30.2826 72.0965 30.3756 72.2525C30.4146 72.3155 30.4251 72.3725 30.4071 72.4235C30.3921 72.4715 30.3561 72.5075 30.2991 72.5315L29.8041 72.725ZM31.1721 72.725C31.0461 72.512 30.9606 72.2885 30.9156 72.0545C30.8706 71.8175 30.8661 71.5835 30.9021 71.3525C30.9381 71.1215 31.0131 70.901 31.1271 70.691C31.2411 70.478 31.3926 70.2875 31.5816 70.1195L31.8246 70.2725C31.8696 70.3025 31.8891 70.34 31.8831 70.385C31.8801 70.427 31.8666 70.46 31.8426 70.484C31.7646 70.58 31.6971 70.697 31.6401 70.835C31.5861 70.973 31.5516 71.1215 31.5366 71.2805C31.5216 71.4365 31.5291 71.5985 31.5591 71.7665C31.5891 71.9345 31.6506 72.0965 31.7436 72.2525C31.7826 72.3155 31.7931 72.3725 31.7751 72.4235C31.7601 72.4715 31.7241 72.5075 31.6671 72.5315L31.1721 72.725ZM33.8067 72.4415V77.3375C33.8067 77.5205 33.7827 77.69 33.7347 77.846C33.6867 78.005 33.6102 78.143 33.5052 78.26C33.4002 78.377 33.2652 78.4685 33.1002 78.5345C32.9382 78.6035 32.7432 78.638 32.5152 78.638C32.4192 78.638 32.3307 78.6305 32.2497 78.6155C32.1687 78.6005 32.0877 78.578 32.0067 78.548L32.0382 78.116C32.0442 78.089 32.0547 78.068 32.0697 78.053C32.0817 78.041 32.0997 78.0335 32.1237 78.0305C32.1477 78.0275 32.1792 78.026 32.2182 78.026C32.2542 78.029 32.3007 78.0305 32.3577 78.0305C32.5917 78.0305 32.7582 77.975 32.8572 77.864C32.9562 77.756 33.0057 77.5805 33.0057 77.3375V72.4415H33.8067ZM33.9732 71.0105C33.9732 71.0885 33.9567 71.162 33.9237 71.231C33.8937 71.297 33.8517 71.357 33.7977 71.411C33.7467 71.462 33.6867 71.5025 33.6177 71.5325C33.5487 71.5625 33.4752 71.5775 33.3972 71.5775C33.3192 71.5775 33.2457 71.5625 33.1767 71.5325C33.1107 71.5025 33.0522 71.462 33.0012 71.411C32.9502 71.357 32.9097 71.297 32.8797 71.231C32.8497 71.162 32.8347 71.0885 32.8347 71.0105C32.8347 70.9325 32.8497 70.859 32.8797 70.79C32.9097 70.718 32.9502 70.6565 33.0012 70.6055C33.0522 70.5515 33.1107 70.5095 33.1767 70.4795C33.2457 70.4495 33.3192 70.4345 33.3972 70.4345C33.4752 70.4345 33.5487 70.4495 33.6177 70.4795C33.6867 70.5095 33.7467 70.5515 33.7977 70.6055C33.8517 70.6565 33.8937 70.718 33.9237 70.79C33.9567 70.859 33.9732 70.9325 33.9732 71.0105ZM37.0443 72.3695C37.3773 72.3695 37.6773 72.425 37.9443 72.536C38.2113 72.647 38.4393 72.8045 38.6283 73.0085C38.8173 73.2125 38.9613 73.46 39.0603 73.751C39.1623 74.039 39.2133 74.3615 39.2133 74.7185C39.2133 75.0785 39.1623 75.4025 39.0603 75.6905C38.9613 75.9785 38.8173 76.2245 38.6283 76.4285C38.4393 76.6325 38.2113 76.79 37.9443 76.901C37.6773 77.009 37.3773 77.063 37.0443 77.063C36.7083 77.063 36.4053 77.009 36.1353 76.901C35.8683 76.79 35.6403 76.6325 35.4513 76.4285C35.2623 76.2245 35.1168 75.9785 35.0148 75.6905C34.9158 75.4025 34.8663 75.0785 34.8663 74.7185C34.8663 74.3615 34.9158 74.039 35.0148 73.751C35.1168 73.46 35.2623 73.2125 35.4513 73.0085C35.6403 72.8045 35.8683 72.647 36.1353 72.536C36.4053 72.425 36.7083 72.3695 37.0443 72.3695ZM37.0443 76.4375C37.4943 76.4375 37.8303 76.2875 38.0523 75.9875C38.2743 75.6845 38.3853 75.263 38.3853 74.723C38.3853 74.18 38.2743 73.757 38.0523 73.454C37.8303 73.151 37.4943 72.9995 37.0443 72.9995C36.8163 72.9995 36.6168 73.0385 36.4458 73.1165C36.2778 73.1945 36.1368 73.307 36.0228 73.454C35.9118 73.601 35.8278 73.7825 35.7708 73.9985C35.7168 74.2115 35.6898 74.453 35.6898 74.723C35.6898 75.263 35.8008 75.6845 36.0228 75.9875C36.2478 76.2875 36.5883 76.4375 37.0443 76.4375ZM41.0347 73.049C41.2297 72.842 41.4457 72.677 41.6827 72.554C41.9197 72.431 42.1927 72.3695 42.5017 72.3695C42.7507 72.3695 42.9697 72.4115 43.1587 72.4955C43.3507 72.5765 43.5097 72.6935 43.6357 72.8465C43.7647 72.9965 43.8622 73.178 43.9282 73.391C43.9942 73.604 44.0272 73.8395 44.0272 74.0975V77H43.2217V74.0975C43.2217 73.7525 43.1422 73.4855 42.9832 73.2965C42.8272 73.1045 42.5887 73.0085 42.2677 73.0085C42.0307 73.0085 41.8087 73.0655 41.6017 73.1795C41.3977 73.2935 41.2087 73.448 41.0347 73.643V77H40.2292V70.3715H41.0347V73.049ZM46.0038 73.103C46.1028 72.992 46.2078 72.8915 46.3188 72.8015C46.4298 72.7115 46.5468 72.635 46.6698 72.572C46.7958 72.506 46.9278 72.4565 47.0658 72.4235C47.2068 72.3875 47.3583 72.3695 47.5203 72.3695C47.7693 72.3695 47.9883 72.4115 48.1773 72.4955C48.3693 72.5765 48.5283 72.6935 48.6543 72.8465C48.7833 72.9965 48.8808 73.178 48.9468 73.391C49.0128 73.604 49.0458 73.8395 49.0458 74.0975V77H48.2403V74.0975C48.2403 73.7525 48.1608 73.4855 48.0018 73.2965C47.8458 73.1045 47.6073 73.0085 47.2863 73.0085C47.0493 73.0085 46.8273 73.0655 46.6203 73.1795C46.4163 73.2935 46.2273 73.448 46.0533 73.643V77H45.2478V72.4415H45.7293C45.8433 72.4415 45.9138 72.497 45.9408 72.608L46.0038 73.103ZM50.6792 70.1195C50.8052 70.3325 50.8907 70.5575 50.9357 70.7945C50.9807 71.0315 50.9852 71.2655 50.9492 71.4965C50.9132 71.7275 50.8382 71.9495 50.7242 72.1625C50.6102 72.3755 50.4587 72.5645 50.2697 72.7295L50.0267 72.572C49.9817 72.545 49.9607 72.5105 49.9637 72.4685C49.9697 72.4235 49.9847 72.3875 50.0087 72.3605C50.0867 72.2645 50.1527 72.149 50.2067 72.014C50.2637 71.876 50.2997 71.729 50.3147 71.573C50.3327 71.414 50.3252 71.2505 50.2922 71.0825C50.2622 70.9145 50.2007 70.7525 50.1077 70.5965C50.0687 70.5335 50.0567 70.478 50.0717 70.43C50.0897 70.379 50.1272 70.3415 50.1842 70.3175L50.6792 70.1195ZM52.0472 70.1195C52.1732 70.3325 52.2587 70.5575 52.3037 70.7945C52.3487 71.0315 52.3532 71.2655 52.3172 71.4965C52.2812 71.7275 52.2062 71.9495 52.0922 72.1625C51.9782 72.3755 51.8267 72.5645 51.6377 72.7295L51.3947 72.572C51.3497 72.545 51.3287 72.5105 51.3317 72.4685C51.3377 72.4235 51.3527 72.3875 51.3767 72.3605C51.4547 72.2645 51.5207 72.149 51.5747 72.014C51.6317 71.876 51.6677 71.729 51.6827 71.573C51.7007 71.414 51.6932 71.2505 51.6602 71.0825C51.6302 70.9145 51.5687 70.7525 51.4757 70.5965C51.4367 70.5335 51.4247 70.478 51.4397 70.43C51.4577 70.379 51.4952 70.3415 51.5522 70.3175L52.0472 70.1195Z" fill="black"/>
<path id="val=&#226;&#128;&#156;blue&#226;&#128;&#157;" d="M14.1816 83.4415L12.3231 88H11.6031L9.74461 83.4415H10.3971C10.4631 83.4415 10.5171 83.458 10.5591 83.491C10.6011 83.524 10.6296 83.563 10.6446 83.608L11.8011 86.542C11.8371 86.653 11.8686 86.761 11.8956 86.866C11.9226 86.971 11.9481 87.076 11.9721 87.181C11.9961 87.076 12.0216 86.971 12.0486 86.866C12.0756 86.761 12.1086 86.653 12.1476 86.542L13.3176 83.608C13.3356 83.56 13.3656 83.521 13.4076 83.491C13.4496 83.458 13.4991 83.4415 13.5561 83.4415H14.1816ZM17.2901 85.948C16.9211 85.96 16.6061 85.99 16.3451 86.038C16.0871 86.083 15.8756 86.143 15.7106 86.218C15.5486 86.293 15.4301 86.3815 15.3551 86.4835C15.2831 86.5855 15.2471 86.6995 15.2471 86.8255C15.2471 86.9455 15.2666 87.049 15.3056 87.136C15.3446 87.223 15.3971 87.295 15.4631 87.352C15.5321 87.406 15.6116 87.4465 15.7016 87.4735C15.7946 87.4975 15.8936 87.5095 15.9986 87.5095C16.1396 87.5095 16.2686 87.496 16.3856 87.469C16.5026 87.439 16.6121 87.397 16.7141 87.343C16.8191 87.289 16.9181 87.2245 17.0111 87.1495C17.1071 87.0745 17.2001 86.989 17.2901 86.893V85.948ZM14.7026 84.085C14.9546 83.842 15.2261 83.6605 15.5171 83.5405C15.8081 83.4205 16.1306 83.3605 16.4846 83.3605C16.7396 83.3605 16.9661 83.4025 17.1641 83.4865C17.3621 83.5705 17.5286 83.6875 17.6636 83.8375C17.7986 83.9875 17.9006 84.169 17.9696 84.382C18.0386 84.595 18.0731 84.829 18.0731 85.084V88H17.7176C17.6396 88 17.5796 87.988 17.5376 87.964C17.4956 87.937 17.4626 87.886 17.4386 87.811L17.3486 87.379C17.2286 87.49 17.1116 87.589 16.9976 87.676C16.8836 87.76 16.7636 87.832 16.6376 87.892C16.5116 87.949 16.3766 87.9925 16.2326 88.0225C16.0916 88.0555 15.9341 88.072 15.7601 88.072C15.5831 88.072 15.4166 88.048 15.2606 88C15.1046 87.949 14.9681 87.874 14.8511 87.775C14.7371 87.676 14.6456 87.5515 14.5766 87.4015C14.5106 87.2485 14.4776 87.0685 14.4776 86.8615C14.4776 86.6815 14.5271 86.509 14.6261 86.344C14.7251 86.176 14.8856 86.0275 15.1076 85.8985C15.3296 85.7695 15.6191 85.6645 15.9761 85.5835C16.3331 85.4995 16.7711 85.4515 17.2901 85.4395V85.084C17.2901 84.73 17.2136 84.463 17.0606 84.283C16.9076 84.1 16.6841 84.0085 16.3901 84.0085C16.1921 84.0085 16.0256 84.034 15.8906 84.085C15.7586 84.133 15.6431 84.1885 15.5441 84.2515C15.4481 84.3115 15.3641 84.367 15.2921 84.418C15.2231 84.466 15.1541 84.49 15.0851 84.49C15.0311 84.49 14.9846 84.4765 14.9456 84.4495C14.9066 84.4195 14.8736 84.3835 14.8466 84.3415L14.7026 84.085ZM20.1212 81.3715V88H19.3202V81.3715H20.1212ZM21.4606 85.417H25.3306V86.0245H21.4606V85.417ZM21.4606 83.9095H25.3306V84.517H21.4606V83.9095ZM26.7713 83.725C26.6453 83.512 26.5598 83.2885 26.5148 83.0545C26.4698 82.8175 26.4653 82.5835 26.5013 82.3525C26.5373 82.1215 26.6123 81.901 26.7263 81.691C26.8403 81.478 26.9918 81.2875 27.1808 81.1195L27.4238 81.2725C27.4688 81.3025 27.4883 81.34 27.4823 81.385C27.4793 81.427 27.4658 81.46 27.4418 81.484C27.3638 81.58 27.2963 81.697 27.2393 81.835C27.1853 81.973 27.1508 82.1215 27.1358 82.2805C27.1208 82.4365 27.1283 82.5985 27.1583 82.7665C27.1883 82.9345 27.2498 83.0965 27.3428 83.2525C27.3818 83.3155 27.3923 83.3725 27.3743 83.4235C27.3593 83.4715 27.3233 83.5075 27.2663 83.5315L26.7713 83.725ZM28.1393 83.725C28.0133 83.512 27.9278 83.2885 27.8828 83.0545C27.8378 82.8175 27.8333 82.5835 27.8693 82.3525C27.9053 82.1215 27.9803 81.901 28.0943 81.691C28.2083 81.478 28.3598 81.2875 28.5488 81.1195L28.7918 81.2725C28.8368 81.3025 28.8563 81.34 28.8503 81.385C28.8473 81.427 28.8338 81.46 28.8098 81.484C28.7318 81.58 28.6643 81.697 28.6073 81.835C28.5533 81.973 28.5188 82.1215 28.5038 82.2805C28.4888 82.4365 28.4963 82.5985 28.5263 82.7665C28.5563 82.9345 28.6178 83.0965 28.7108 83.2525C28.7498 83.3155 28.7603 83.3725 28.7423 83.4235C28.7273 83.4715 28.6913 83.5075 28.6343 83.5315L28.1393 83.725ZM30.7335 86.902C30.8805 87.1 31.041 87.2395 31.215 87.3205C31.392 87.4015 31.5855 87.442 31.7955 87.442C32.2245 87.442 32.553 87.2905 32.781 86.9875C33.009 86.6845 33.123 86.233 33.123 85.633C33.123 85.075 33.021 84.6655 32.817 84.4045C32.616 84.1405 32.328 84.0085 31.953 84.0085C31.692 84.0085 31.464 84.0685 31.269 84.1885C31.077 84.3085 30.8985 84.478 30.7335 84.697V86.902ZM30.7335 84.0985C30.9255 83.8765 31.1415 83.6995 31.3815 83.5675C31.6245 83.4355 31.9035 83.3695 32.2185 83.3695C32.4855 83.3695 32.7255 83.4205 32.9385 83.5225C33.1545 83.6245 33.3375 83.773 33.4875 83.968C33.6375 84.16 33.7515 84.394 33.8295 84.67C33.9105 84.946 33.951 85.2565 33.951 85.6015C33.951 85.9705 33.906 86.3065 33.816 86.6095C33.726 86.9125 33.5955 87.172 33.4245 87.388C33.2565 87.601 33.051 87.7675 32.808 87.8875C32.565 88.0045 32.292 88.063 31.989 88.063C31.689 88.063 31.4355 88.0075 31.2285 87.8965C31.0245 87.7825 30.846 87.622 30.693 87.415L30.6525 87.829C30.6285 87.943 30.5595 88 30.4455 88H29.928V81.3715H30.7335V84.0985ZM35.7921 81.3715V88H34.9911V81.3715H35.7921ZM40.8395 83.4415V88H40.3625C40.2485 88 40.1765 87.9445 40.1465 87.8335L40.0835 87.343C39.8855 87.562 39.6635 87.739 39.4175 87.874C39.1715 88.006 38.8895 88.072 38.5715 88.072C38.3225 88.072 38.102 88.0315 37.91 87.9505C37.721 87.8665 37.562 87.7495 37.433 87.5995C37.304 87.4495 37.2065 87.268 37.1405 87.055C37.0775 86.842 37.046 86.6065 37.046 86.3485V83.4415H37.847V86.3485C37.847 86.6935 37.925 86.9605 38.081 87.1495C38.24 87.3385 38.4815 87.433 38.8055 87.433C39.0425 87.433 39.263 87.3775 39.467 87.2665C39.674 87.1525 39.8645 86.9965 40.0385 86.7985V83.4415H40.8395ZM45.1606 85.2235C45.1606 85.0375 45.1336 84.868 45.0796 84.715C45.0286 84.559 44.9521 84.4255 44.8501 84.3145C44.7511 84.2005 44.6296 84.1135 44.4856 84.0535C44.3416 83.9905 44.1781 83.959 43.9951 83.959C43.6111 83.959 43.3066 84.0715 43.0816 84.2965C42.8596 84.5185 42.7216 84.8275 42.6676 85.2235H45.1606ZM45.8086 87.361C45.7096 87.481 45.5911 87.586 45.4531 87.676C45.3151 87.763 45.1666 87.835 45.0076 87.892C44.8516 87.949 44.6896 87.991 44.5216 88.018C44.3536 88.048 44.1871 88.063 44.0221 88.063C43.7071 88.063 43.4161 88.0105 43.1491 87.9055C42.8851 87.7975 42.6556 87.6415 42.4606 87.4375C42.2686 87.2305 42.1186 86.9755 42.0106 86.6725C41.9026 86.3695 41.8486 86.0215 41.8486 85.6285C41.8486 85.3105 41.8966 85.0135 41.9926 84.7375C42.0916 84.4615 42.2326 84.223 42.4156 84.022C42.5986 83.818 42.8221 83.659 43.0861 83.545C43.3501 83.428 43.6471 83.3695 43.9771 83.3695C44.2501 83.3695 44.5021 83.416 44.7331 83.509C44.9671 83.599 45.1681 83.731 45.3361 83.905C45.5071 84.076 45.6406 84.289 45.7366 84.544C45.8326 84.796 45.8806 85.084 45.8806 85.408C45.8806 85.534 45.8671 85.618 45.8401 85.66C45.8131 85.702 45.7621 85.723 45.6871 85.723H42.6406C42.6496 86.011 42.6886 86.2615 42.7576 86.4745C42.8296 86.6875 42.9286 86.866 43.0546 87.01C43.1806 87.151 43.3306 87.2575 43.5046 87.3295C43.6786 87.3985 43.8736 87.433 44.0896 87.433C44.2906 87.433 44.4631 87.4105 44.6071 87.3655C44.7541 87.3175 44.8801 87.2665 44.9851 87.2125C45.0901 87.1585 45.1771 87.109 45.2461 87.064C45.3181 87.016 45.3796 86.992 45.4306 86.992C45.4966 86.992 45.5476 87.0175 45.5836 87.0685L45.8086 87.361ZM47.2598 81.1195C47.3858 81.3325 47.4713 81.5575 47.5163 81.7945C47.5613 82.0315 47.5658 82.2655 47.5298 82.4965C47.4938 82.7275 47.4188 82.9495 47.3048 83.1625C47.1908 83.3755 47.0393 83.5645 46.8503 83.7295L46.6073 83.572C46.5623 83.545 46.5413 83.5105 46.5443 83.4685C46.5503 83.4235 46.5653 83.3875 46.5893 83.3605C46.6673 83.2645 46.7333 83.149 46.7873 83.014C46.8443 82.876 46.8803 82.729 46.8953 82.573C46.9133 82.414 46.9058 82.2505 46.8728 82.0825C46.8428 81.9145 46.7813 81.7525 46.6883 81.5965C46.6493 81.5335 46.6373 81.478 46.6523 81.43C46.6703 81.379 46.7078 81.3415 46.7648 81.3175L47.2598 81.1195ZM48.6278 81.1195C48.7538 81.3325 48.8393 81.5575 48.8843 81.7945C48.9293 82.0315 48.9338 82.2655 48.8978 82.4965C48.8618 82.7275 48.7868 82.9495 48.6728 83.1625C48.5588 83.3755 48.4073 83.5645 48.2183 83.7295L47.9753 83.572C47.9303 83.545 47.9093 83.5105 47.9123 83.4685C47.9183 83.4235 47.9333 83.3875 47.9573 83.3605C48.0353 83.2645 48.1013 83.149 48.1553 83.014C48.2123 82.876 48.2483 82.729 48.2633 82.573C48.2813 82.414 48.2738 82.2505 48.2408 82.0825C48.2108 81.9145 48.1493 81.7525 48.0563 81.5965C48.0173 81.5335 48.0053 81.478 48.0203 81.43C48.0383 81.379 48.0758 81.3415 48.1328 81.3175L48.6278 81.1195Z" fill="black"/>
</g>
</g>
<g id="pair_2">
<circle id="node-template_2" cx="131" cy="77" r="22.5" stroke="black"/>
<g id="params_2">
<path id="key=&#226;&#128;&#156;sue&#226;&#128;&#157;" d="M114.569 69.3715V73.273H114.776C114.836 73.273 114.885 73.2655 114.924 73.2505C114.966 73.2325 115.01 73.198 115.055 73.147L116.495 71.6035C116.537 71.5525 116.58 71.5135 116.625 71.4865C116.673 71.4565 116.736 71.4415 116.814 71.4415H117.539L115.86 73.228C115.779 73.33 115.692 73.4095 115.599 73.4665C115.653 73.5025 115.701 73.5445 115.743 73.5925C115.788 73.6375 115.83 73.69 115.869 73.75L117.651 76H116.936C116.867 76 116.807 75.9895 116.756 75.9685C116.708 75.9445 116.666 75.9025 116.63 75.8425L115.131 73.975C115.086 73.912 115.041 73.8715 114.996 73.8535C114.954 73.8325 114.888 73.822 114.798 73.822H114.569V76H113.763V69.3715H114.569ZM121.13 73.2235C121.13 73.0375 121.103 72.868 121.049 72.715C120.998 72.559 120.921 72.4255 120.819 72.3145C120.72 72.2005 120.599 72.1135 120.455 72.0535C120.311 71.9905 120.147 71.959 119.964 71.959C119.58 71.959 119.276 72.0715 119.051 72.2965C118.829 72.5185 118.691 72.8275 118.637 73.2235H121.13ZM121.778 75.361C121.679 75.481 121.56 75.586 121.422 75.676C121.284 75.763 121.136 75.835 120.977 75.892C120.821 75.949 120.659 75.991 120.491 76.018C120.323 76.048 120.156 76.063 119.991 76.063C119.676 76.063 119.385 76.0105 119.118 75.9055C118.854 75.7975 118.625 75.6415 118.43 75.4375C118.238 75.2305 118.088 74.9755 117.98 74.6725C117.872 74.3695 117.818 74.0215 117.818 73.6285C117.818 73.3105 117.866 73.0135 117.962 72.7375C118.061 72.4615 118.202 72.223 118.385 72.022C118.568 71.818 118.791 71.659 119.055 71.545C119.319 71.428 119.616 71.3695 119.946 71.3695C120.219 71.3695 120.471 71.416 120.702 71.509C120.936 71.599 121.137 71.731 121.305 71.905C121.476 72.076 121.61 72.289 121.706 72.544C121.802 72.796 121.85 73.084 121.85 73.408C121.85 73.534 121.836 73.618 121.809 73.66C121.782 73.702 121.731 73.723 121.656 73.723H118.61C118.619 74.011 118.658 74.2615 118.727 74.4745C118.799 74.6875 118.898 74.866 119.024 75.01C119.15 75.151 119.3 75.2575 119.474 75.3295C119.648 75.3985 119.843 75.433 120.059 75.433C120.26 75.433 120.432 75.4105 120.576 75.3655C120.723 75.3175 120.849 75.2665 120.954 75.2125C121.059 75.1585 121.146 75.109 121.215 75.064C121.287 75.016 121.349 74.992 121.4 74.992C121.466 74.992 121.517 75.0175 121.553 75.0685L121.778 75.361ZM126.652 71.4415L124.11 77.3455C124.083 77.4055 124.048 77.4535 124.006 77.4895C123.967 77.5255 123.906 77.5435 123.822 77.5435H123.228L124.06 75.7345L122.179 71.4415H122.872C122.941 71.4415 122.995 71.4595 123.034 71.4955C123.076 71.5285 123.105 71.566 123.12 71.608L124.339 74.479C124.387 74.605 124.428 74.737 124.461 74.875C124.503 74.734 124.548 74.6005 124.596 74.4745L125.779 71.608C125.797 71.56 125.827 71.521 125.869 71.491C125.914 71.458 125.964 71.4415 126.018 71.4415H126.652ZM127.401 73.417H131.271V74.0245H127.401V73.417ZM127.401 71.9095H131.271V72.517H127.401V71.9095ZM132.711 71.725C132.585 71.512 132.5 71.2885 132.455 71.0545C132.41 70.8175 132.405 70.5835 132.441 70.3525C132.477 70.1215 132.552 69.901 132.666 69.691C132.78 69.478 132.932 69.2875 133.121 69.1195L133.364 69.2725C133.409 69.3025 133.428 69.34 133.422 69.385C133.419 69.427 133.406 69.46 133.382 69.484C133.304 69.58 133.236 69.697 133.179 69.835C133.125 69.973 133.091 70.1215 133.076 70.2805C133.061 70.4365 133.068 70.5985 133.098 70.7665C133.128 70.9345 133.19 71.0965 133.283 71.2525C133.322 71.3155 133.332 71.3725 133.314 71.4235C133.299 71.4715 133.263 71.5075 133.206 71.5315L132.711 71.725ZM134.079 71.725C133.953 71.512 133.868 71.2885 133.823 71.0545C133.778 70.8175 133.773 70.5835 133.809 70.3525C133.845 70.1215 133.92 69.901 134.034 69.691C134.148 69.478 134.3 69.2875 134.489 69.1195L134.732 69.2725C134.777 69.3025 134.796 69.34 134.79 69.385C134.787 69.427 134.774 69.46 134.75 69.484C134.672 69.58 134.604 69.697 134.547 69.835C134.493 69.973 134.459 70.1215 134.444 70.2805C134.429 70.4365 134.436 70.5985 134.466 70.7665C134.496 70.9345 134.558 71.0965 134.651 71.2525C134.69 71.3155 134.7 71.3725 134.682 71.4235C134.667 71.4715 134.631 71.5075 134.574 71.5315L134.079 71.725ZM138.365 72.193C138.329 72.259 138.273 72.292 138.198 72.292C138.153 72.292 138.102 72.2755 138.045 72.2425C137.988 72.2095 137.918 72.1735 137.834 72.1345C137.753 72.0925 137.655 72.055 137.541 72.022C137.427 71.986 137.292 71.968 137.136 71.968C137.001 71.968 136.88 71.986 136.772 72.022C136.664 72.055 136.571 72.1015 136.493 72.1615C136.418 72.2215 136.359 72.292 136.317 72.373C136.278 72.451 136.259 72.5365 136.259 72.6295C136.259 72.7465 136.292 72.844 136.358 72.922C136.427 73 136.517 73.0675 136.628 73.1245C136.739 73.1815 136.865 73.2325 137.006 73.2775C137.147 73.3195 137.291 73.366 137.438 73.417C137.588 73.465 137.733 73.519 137.874 73.579C138.015 73.639 138.141 73.714 138.252 73.804C138.363 73.894 138.452 74.005 138.518 74.137C138.587 74.266 138.621 74.422 138.621 74.605C138.621 74.815 138.584 75.01 138.509 75.19C138.434 75.367 138.323 75.5215 138.176 75.6535C138.029 75.7825 137.849 75.8845 137.636 75.9595C137.423 76.0345 137.177 76.072 136.898 76.072C136.58 76.072 136.292 76.021 136.034 75.919C135.776 75.814 135.557 75.6805 135.377 75.5185L135.566 75.2125C135.59 75.1735 135.618 75.1435 135.651 75.1225C135.684 75.1015 135.726 75.091 135.777 75.091C135.831 75.091 135.888 75.112 135.948 75.154C136.008 75.196 136.08 75.2425 136.164 75.2935C136.251 75.3445 136.356 75.391 136.479 75.433C136.602 75.475 136.755 75.496 136.938 75.496C137.094 75.496 137.231 75.4765 137.348 75.4375C137.465 75.3955 137.562 75.34 137.64 75.271C137.718 75.202 137.775 75.1225 137.811 75.0325C137.85 74.9425 137.87 74.8465 137.87 74.7445C137.87 74.6185 137.835 74.515 137.766 74.434C137.7 74.35 137.612 74.2795 137.501 74.2225C137.39 74.1625 137.262 74.1115 137.118 74.0695C136.977 74.0245 136.832 73.978 136.682 73.93C136.535 73.882 136.389 73.828 136.245 73.768C136.104 73.705 135.978 73.627 135.867 73.534C135.756 73.441 135.666 73.327 135.597 73.192C135.531 73.054 135.498 72.8875 135.498 72.6925C135.498 72.5185 135.534 72.352 135.606 72.193C135.678 72.031 135.783 71.89 135.921 71.77C136.059 71.647 136.229 71.5495 136.43 71.4775C136.631 71.4055 136.86 71.3695 137.118 71.3695C137.418 71.3695 137.687 71.4175 137.924 71.5135C138.164 71.6065 138.371 71.7355 138.545 71.9005L138.365 72.193ZM143.352 71.4415V76H142.875C142.761 76 142.689 75.9445 142.659 75.8335L142.596 75.343C142.398 75.562 142.176 75.739 141.93 75.874C141.684 76.006 141.402 76.072 141.084 76.072C140.835 76.072 140.614 76.0315 140.422 75.9505C140.233 75.8665 140.074 75.7495 139.945 75.5995C139.816 75.4495 139.719 75.268 139.653 75.055C139.59 74.842 139.558 74.6065 139.558 74.3485V71.4415H140.359V74.3485C140.359 74.6935 140.437 74.9605 140.593 75.1495C140.752 75.3385 140.994 75.433 141.318 75.433C141.555 75.433 141.775 75.3775 141.979 75.2665C142.186 75.1525 142.377 74.9965 142.551 74.7985V71.4415H143.352ZM147.673 73.2235C147.673 73.0375 147.646 72.868 147.592 72.715C147.541 72.559 147.464 72.4255 147.362 72.3145C147.263 72.2005 147.142 72.1135 146.998 72.0535C146.854 71.9905 146.69 71.959 146.507 71.959C146.123 71.959 145.819 72.0715 145.594 72.2965C145.372 72.5185 145.234 72.8275 145.18 73.2235H147.673ZM148.321 75.361C148.222 75.481 148.103 75.586 147.965 75.676C147.827 75.763 147.679 75.835 147.52 75.892C147.364 75.949 147.202 75.991 147.034 76.018C146.866 76.048 146.699 76.063 146.534 76.063C146.219 76.063 145.928 76.0105 145.661 75.9055C145.397 75.7975 145.168 75.6415 144.973 75.4375C144.781 75.2305 144.631 74.9755 144.523 74.6725C144.415 74.3695 144.361 74.0215 144.361 73.6285C144.361 73.3105 144.409 73.0135 144.505 72.7375C144.604 72.4615 144.745 72.223 144.928 72.022C145.111 71.818 145.334 71.659 145.598 71.545C145.862 71.428 146.159 71.3695 146.489 71.3695C146.762 71.3695 147.014 71.416 147.245 71.509C147.479 71.599 147.68 71.731 147.848 71.905C148.019 72.076 148.153 72.289 148.249 72.544C148.345 72.796 148.393 73.084 148.393 73.408C148.393 73.534 148.379 73.618 148.352 73.66C148.325 73.702 148.274 73.723 148.199 73.723H145.153C145.162 74.011 145.201 74.2615 145.27 74.4745C145.342 74.6875 145.441 74.866 145.567 75.01C145.693 75.151 145.843 75.2575 146.017 75.3295C146.191 75.3985 146.386 75.433 146.602 75.433C146.803 75.433 146.975 75.4105 147.119 75.3655C147.266 75.3175 147.392 75.2665 147.497 75.2125C147.602 75.1585 147.689 75.109 147.758 75.064C147.83 75.016 147.892 74.992 147.943 74.992C148.009 74.992 148.06 75.0175 148.096 75.0685L148.321 75.361ZM149.772 69.1195C149.898 69.3325 149.983 69.5575 150.028 69.7945C150.073 70.0315 150.078 70.2655 150.042 70.4965C150.006 70.7275 149.931 70.9495 149.817 71.1625C149.703 71.3755 149.551 71.5645 149.362 71.7295L149.119 71.572C149.074 71.545 149.053 71.5105 149.056 71.4685C149.062 71.4235 149.077 71.3875 149.101 71.3605C149.179 71.2645 149.245 71.149 149.299 71.014C149.356 70.876 149.392 70.729 149.407 70.573C149.425 70.414 149.418 70.2505 149.385 70.0825C149.355 69.9145 149.293 69.7525 149.2 69.5965C149.161 69.5335 149.149 69.478 149.164 69.43C149.182 69.379 149.22 69.3415 149.277 69.3175L149.772 69.1195ZM151.14 69.1195C151.266 69.3325 151.351 69.5575 151.396 69.7945C151.441 70.0315 151.446 70.2655 151.41 70.4965C151.374 70.7275 151.299 70.9495 151.185 71.1625C151.071 71.3755 150.919 71.5645 150.73 71.7295L150.487 71.572C150.442 71.545 150.421 71.5105 150.424 71.4685C150.43 71.4235 150.445 71.3875 150.469 71.3605C150.547 71.2645 150.613 71.149 150.667 71.014C150.724 70.876 150.76 70.729 150.775 70.573C150.793 70.414 150.786 70.2505 150.753 70.0825C150.723 69.9145 150.661 69.7525 150.568 69.5965C150.529 69.5335 150.517 69.478 150.532 69.43C150.55 69.379 150.588 69.3415 150.645 69.3175L151.14 69.1195Z" fill="black"/>
<path id="val=&#226;&#128;&#156;red&#226;&#128;&#157;" d="M117.128 82.4415L115.27 87H114.55L112.691 82.4415H113.344C113.41 82.4415 113.464 82.458 113.506 82.491C113.548 82.524 113.576 82.563 113.591 82.608L114.748 85.542C114.784 85.653 114.815 85.761 114.842 85.866C114.869 85.971 114.895 86.076 114.919 86.181C114.943 86.076 114.968 85.971 114.995 85.866C115.022 85.761 115.055 85.653 115.094 85.542L116.264 82.608C116.282 82.56 116.312 82.521 116.354 82.491C116.396 82.458 116.446 82.4415 116.503 82.4415H117.128ZM120.237 84.948C119.868 84.96 119.553 84.99 119.292 85.038C119.034 85.083 118.822 85.143 118.657 85.218C118.495 85.293 118.377 85.3815 118.302 85.4835C118.23 85.5855 118.194 85.6995 118.194 85.8255C118.194 85.9455 118.213 86.049 118.252 86.136C118.291 86.223 118.344 86.295 118.41 86.352C118.479 86.406 118.558 86.4465 118.648 86.4735C118.741 86.4975 118.84 86.5095 118.945 86.5095C119.086 86.5095 119.215 86.496 119.332 86.469C119.449 86.439 119.559 86.397 119.661 86.343C119.766 86.289 119.865 86.2245 119.958 86.1495C120.054 86.0745 120.147 85.989 120.237 85.893V84.948ZM117.649 83.085C117.901 82.842 118.173 82.6605 118.464 82.5405C118.755 82.4205 119.077 82.3605 119.431 82.3605C119.686 82.3605 119.913 82.4025 120.111 82.4865C120.309 82.5705 120.475 82.6875 120.61 82.8375C120.745 82.9875 120.847 83.169 120.916 83.382C120.985 83.595 121.02 83.829 121.02 84.084V87H120.664C120.586 87 120.526 86.988 120.484 86.964C120.442 86.937 120.409 86.886 120.385 86.811L120.295 86.379C120.175 86.49 120.058 86.589 119.944 86.676C119.83 86.76 119.71 86.832 119.584 86.892C119.458 86.949 119.323 86.9925 119.179 87.0225C119.038 87.0555 118.881 87.072 118.707 87.072C118.53 87.072 118.363 87.048 118.207 87C118.051 86.949 117.915 86.874 117.798 86.775C117.684 86.676 117.592 86.5515 117.523 86.4015C117.457 86.2485 117.424 86.0685 117.424 85.8615C117.424 85.6815 117.474 85.509 117.573 85.344C117.672 85.176 117.832 85.0275 118.054 84.8985C118.276 84.7695 118.566 84.6645 118.923 84.5835C119.28 84.4995 119.718 84.4515 120.237 84.4395V84.084C120.237 83.73 120.16 83.463 120.007 83.283C119.854 83.1 119.631 83.0085 119.337 83.0085C119.139 83.0085 118.972 83.034 118.837 83.085C118.705 83.133 118.59 83.1885 118.491 83.2515C118.395 83.3115 118.311 83.367 118.239 83.418C118.17 83.466 118.101 83.49 118.032 83.49C117.978 83.49 117.931 83.4765 117.892 83.4495C117.853 83.4195 117.82 83.3835 117.793 83.3415L117.649 83.085ZM123.068 80.3715V87H122.267V80.3715H123.068ZM124.407 84.417H128.277V85.0245H124.407V84.417ZM124.407 82.9095H128.277V83.517H124.407V82.9095ZM129.718 82.725C129.592 82.512 129.507 82.2885 129.462 82.0545C129.417 81.8175 129.412 81.5835 129.448 81.3525C129.484 81.1215 129.559 80.901 129.673 80.691C129.787 80.478 129.939 80.2875 130.128 80.1195L130.371 80.2725C130.416 80.3025 130.435 80.34 130.429 80.385C130.426 80.427 130.413 80.46 130.389 80.484C130.311 80.58 130.243 80.697 130.186 80.835C130.132 80.973 130.098 81.1215 130.083 81.2805C130.068 81.4365 130.075 81.5985 130.105 81.7665C130.135 81.9345 130.197 82.0965 130.29 82.2525C130.329 82.3155 130.339 82.3725 130.321 82.4235C130.306 82.4715 130.27 82.5075 130.213 82.5315L129.718 82.725ZM131.086 82.725C130.96 82.512 130.875 82.2885 130.83 82.0545C130.785 81.8175 130.78 81.5835 130.816 81.3525C130.852 81.1215 130.927 80.901 131.041 80.691C131.155 80.478 131.307 80.2875 131.496 80.1195L131.739 80.2725C131.784 80.3025 131.803 80.34 131.797 80.385C131.794 80.427 131.781 80.46 131.757 80.484C131.679 80.58 131.611 80.697 131.554 80.835C131.5 80.973 131.466 81.1215 131.451 81.2805C131.436 81.4365 131.443 81.5985 131.473 81.7665C131.503 81.9345 131.565 82.0965 131.658 82.2525C131.697 82.3155 131.707 82.3725 131.689 82.4235C131.674 82.4715 131.638 82.5075 131.581 82.5315L131.086 82.725ZM133.635 83.355C133.779 83.043 133.956 82.8 134.166 82.626C134.376 82.449 134.633 82.3605 134.936 82.3605C135.032 82.3605 135.123 82.371 135.21 82.392C135.3 82.413 135.38 82.446 135.449 82.491L135.39 83.0895C135.372 83.1645 135.327 83.202 135.255 83.202C135.213 83.202 135.152 83.193 135.071 83.175C134.99 83.157 134.898 83.148 134.796 83.148C134.652 83.148 134.523 83.169 134.409 83.211C134.298 83.253 134.198 83.316 134.108 83.4C134.021 83.481 133.941 83.583 133.869 83.706C133.8 83.826 133.737 83.964 133.68 84.12V87H132.875V82.4415H133.334C133.421 82.4415 133.481 82.458 133.514 82.491C133.547 82.524 133.569 82.581 133.581 82.662L133.635 83.355ZM139.019 84.2235C139.019 84.0375 138.992 83.868 138.938 83.715C138.887 83.559 138.811 83.4255 138.709 83.3145C138.61 83.2005 138.488 83.1135 138.344 83.0535C138.2 82.9905 138.037 82.959 137.854 82.959C137.47 82.959 137.165 83.0715 136.94 83.2965C136.718 83.5185 136.58 83.8275 136.526 84.2235H139.019ZM139.667 86.361C139.568 86.481 139.45 86.586 139.312 86.676C139.174 86.763 139.025 86.835 138.866 86.892C138.71 86.949 138.548 86.991 138.38 87.018C138.212 87.048 138.046 87.063 137.881 87.063C137.566 87.063 137.275 87.0105 137.008 86.9055C136.744 86.7975 136.514 86.6415 136.319 86.4375C136.127 86.2305 135.977 85.9755 135.869 85.6725C135.761 85.3695 135.707 85.0215 135.707 84.6285C135.707 84.3105 135.755 84.0135 135.851 83.7375C135.95 83.4615 136.091 83.223 136.274 83.022C136.457 82.818 136.681 82.659 136.945 82.545C137.209 82.428 137.506 82.3695 137.836 82.3695C138.109 82.3695 138.361 82.416 138.592 82.509C138.826 82.599 139.027 82.731 139.195 82.905C139.366 83.076 139.499 83.289 139.595 83.544C139.691 83.796 139.739 84.084 139.739 84.408C139.739 84.534 139.726 84.618 139.699 84.66C139.672 84.702 139.621 84.723 139.546 84.723H136.499C136.508 85.011 136.547 85.2615 136.616 85.4745C136.688 85.6875 136.787 85.866 136.913 86.01C137.039 86.151 137.189 86.2575 137.363 86.3295C137.537 86.3985 137.732 86.433 137.948 86.433C138.149 86.433 138.322 86.4105 138.466 86.3655C138.613 86.3175 138.739 86.2665 138.844 86.2125C138.949 86.1585 139.036 86.109 139.105 86.064C139.177 86.016 139.238 85.992 139.289 85.992C139.355 85.992 139.406 86.0175 139.442 86.0685L139.667 86.361ZM143.693 83.526C143.543 83.325 143.381 83.1855 143.207 83.1075C143.033 83.0265 142.838 82.986 142.622 82.986C142.199 82.986 141.874 83.1375 141.646 83.4405C141.418 83.7435 141.304 84.1755 141.304 84.7365C141.304 85.0335 141.329 85.2885 141.38 85.5015C141.431 85.7115 141.506 85.8855 141.605 86.0235C141.704 86.1585 141.826 86.2575 141.97 86.3205C142.114 86.3835 142.277 86.415 142.46 86.415C142.724 86.415 142.954 86.355 143.149 86.235C143.347 86.115 143.528 85.9455 143.693 85.7265V83.526ZM144.494 80.3715V87H144.017C143.903 87 143.831 86.9445 143.801 86.8335L143.729 86.28C143.534 86.514 143.312 86.703 143.063 86.847C142.814 86.991 142.526 87.063 142.199 87.063C141.938 87.063 141.701 87.0135 141.488 86.9145C141.275 86.8125 141.094 86.664 140.944 86.469C140.794 86.274 140.678 86.031 140.597 85.74C140.516 85.449 140.476 85.1145 140.476 84.7365C140.476 84.4005 140.521 84.0885 140.611 83.8005C140.701 83.5095 140.83 83.2575 140.998 83.0445C141.166 82.8315 141.371 82.665 141.614 82.545C141.86 82.422 142.136 82.3605 142.442 82.3605C142.721 82.3605 142.96 82.4085 143.158 82.5045C143.359 82.5975 143.537 82.728 143.693 82.896V80.3715H144.494ZM146.313 80.1195C146.439 80.3325 146.525 80.5575 146.57 80.7945C146.615 81.0315 146.619 81.2655 146.583 81.4965C146.547 81.7275 146.472 81.9495 146.358 82.1625C146.244 82.3755 146.093 82.5645 145.904 82.7295L145.661 82.572C145.616 82.545 145.595 82.5105 145.598 82.4685C145.604 82.4235 145.619 82.3875 145.643 82.3605C145.721 82.2645 145.787 82.149 145.841 82.014C145.898 81.876 145.934 81.729 145.949 81.573C145.967 81.414 145.959 81.2505 145.926 81.0825C145.896 80.9145 145.835 80.7525 145.742 80.5965C145.703 80.5335 145.691 80.478 145.706 80.43C145.724 80.379 145.761 80.3415 145.818 80.3175L146.313 80.1195ZM147.681 80.1195C147.807 80.3325 147.893 80.5575 147.938 80.7945C147.983 81.0315 147.987 81.2655 147.951 81.4965C147.915 81.7275 147.84 81.9495 147.726 82.1625C147.612 82.3755 147.461 82.5645 147.272 82.7295L147.029 82.572C146.984 82.545 146.963 82.5105 146.966 82.4685C146.972 82.4235 146.987 82.3875 147.011 82.3605C147.089 82.2645 147.155 82.149 147.209 82.014C147.266 81.876 147.302 81.729 147.317 81.573C147.335 81.414 147.327 81.2505 147.294 81.0825C147.264 80.9145 147.203 80.7525 147.11 80.5965C147.071 80.5335 147.059 80.478 147.074 80.43C147.092 80.379 147.129 80.3415 147.186 80.3175L147.681 80.1195Z" fill="black"/>
</g>
</g>
<g id="pair_3">
<circle id="node-template_3" cx="182" cy="77" r="22.5" stroke="black"/>
<g id="params_3">
<path id="key=&#226;&#128;&#156;al&#226;&#128;&#157;" d="M169.032 69.3715V73.273H169.239C169.299 73.273 169.348 73.2655 169.387 73.2505C169.429 73.2325 169.473 73.198 169.518 73.147L170.958 71.6035C171 71.5525 171.043 71.5135 171.088 71.4865C171.136 71.4565 171.199 71.4415 171.277 71.4415H172.002L170.323 73.228C170.242 73.33 170.155 73.4095 170.062 73.4665C170.116 73.5025 170.164 73.5445 170.206 73.5925C170.251 73.6375 170.293 73.69 170.332 73.75L172.114 76H171.399C171.33 76 171.27 75.9895 171.219 75.9685C171.171 75.9445 171.129 75.9025 171.093 75.8425L169.594 73.975C169.549 73.912 169.504 73.8715 169.459 73.8535C169.417 73.8325 169.351 73.822 169.261 73.822H169.032V76H168.226V69.3715H169.032ZM175.593 73.2235C175.593 73.0375 175.566 72.868 175.512 72.715C175.461 72.559 175.384 72.4255 175.282 72.3145C175.183 72.2005 175.062 72.1135 174.918 72.0535C174.774 71.9905 174.61 71.959 174.427 71.959C174.043 71.959 173.739 72.0715 173.514 72.2965C173.292 72.5185 173.154 72.8275 173.1 73.2235H175.593ZM176.241 75.361C176.142 75.481 176.023 75.586 175.885 75.676C175.747 75.763 175.599 75.835 175.44 75.892C175.284 75.949 175.122 75.991 174.954 76.018C174.786 76.048 174.619 76.063 174.454 76.063C174.139 76.063 173.848 76.0105 173.581 75.9055C173.317 75.7975 173.088 75.6415 172.893 75.4375C172.701 75.2305 172.551 74.9755 172.443 74.6725C172.335 74.3695 172.281 74.0215 172.281 73.6285C172.281 73.3105 172.329 73.0135 172.425 72.7375C172.524 72.4615 172.665 72.223 172.848 72.022C173.031 71.818 173.254 71.659 173.518 71.545C173.782 71.428 174.079 71.3695 174.409 71.3695C174.682 71.3695 174.934 71.416 175.165 71.509C175.399 71.599 175.6 71.731 175.768 71.905C175.939 72.076 176.073 72.289 176.169 72.544C176.265 72.796 176.313 73.084 176.313 73.408C176.313 73.534 176.299 73.618 176.272 73.66C176.245 73.702 176.194 73.723 176.119 73.723H173.073C173.082 74.011 173.121 74.2615 173.19 74.4745C173.262 74.6875 173.361 74.866 173.487 75.01C173.613 75.151 173.763 75.2575 173.937 75.3295C174.111 75.3985 174.306 75.433 174.522 75.433C174.723 75.433 174.895 75.4105 175.039 75.3655C175.186 75.3175 175.312 75.2665 175.417 75.2125C175.522 75.1585 175.609 75.109 175.678 75.064C175.75 75.016 175.812 74.992 175.863 74.992C175.929 74.992 175.98 75.0175 176.016 75.0685L176.241 75.361ZM181.115 71.4415L178.573 77.3455C178.546 77.4055 178.511 77.4535 178.469 77.4895C178.43 77.5255 178.369 77.5435 178.285 77.5435H177.691L178.523 75.7345L176.642 71.4415H177.335C177.404 71.4415 177.458 71.4595 177.497 71.4955C177.539 71.5285 177.568 71.566 177.583 71.608L178.802 74.479C178.85 74.605 178.891 74.737 178.924 74.875C178.966 74.734 179.011 74.6005 179.059 74.4745L180.242 71.608C180.26 71.56 180.29 71.521 180.332 71.491C180.377 71.458 180.427 71.4415 180.481 71.4415H181.115ZM181.863 73.417H185.733V74.0245H181.863V73.417ZM181.863 71.9095H185.733V72.517H181.863V71.9095ZM187.174 71.725C187.048 71.512 186.963 71.2885 186.918 71.0545C186.873 70.8175 186.868 70.5835 186.904 70.3525C186.94 70.1215 187.015 69.901 187.129 69.691C187.243 69.478 187.395 69.2875 187.584 69.1195L187.827 69.2725C187.872 69.3025 187.891 69.34 187.885 69.385C187.882 69.427 187.869 69.46 187.845 69.484C187.767 69.58 187.699 69.697 187.642 69.835C187.588 69.973 187.554 70.1215 187.539 70.2805C187.524 70.4365 187.531 70.5985 187.561 70.7665C187.591 70.9345 187.653 71.0965 187.746 71.2525C187.785 71.3155 187.795 71.3725 187.777 71.4235C187.762 71.4715 187.726 71.5075 187.669 71.5315L187.174 71.725ZM188.542 71.725C188.416 71.512 188.331 71.2885 188.286 71.0545C188.241 70.8175 188.236 70.5835 188.272 70.3525C188.308 70.1215 188.383 69.901 188.497 69.691C188.611 69.478 188.763 69.2875 188.952 69.1195L189.195 69.2725C189.24 69.3025 189.259 69.34 189.253 69.385C189.25 69.427 189.237 69.46 189.213 69.484C189.135 69.58 189.067 69.697 189.01 69.835C188.956 69.973 188.922 70.1215 188.907 70.2805C188.892 70.4365 188.899 70.5985 188.929 70.7665C188.959 70.9345 189.021 71.0965 189.114 71.2525C189.153 71.3155 189.163 71.3725 189.145 71.4235C189.13 71.4715 189.094 71.5075 189.037 71.5315L188.542 71.725ZM192.626 73.948C192.257 73.96 191.942 73.99 191.681 74.038C191.423 74.083 191.211 74.143 191.046 74.218C190.884 74.293 190.766 74.3815 190.691 74.4835C190.619 74.5855 190.583 74.6995 190.583 74.8255C190.583 74.9455 190.602 75.049 190.641 75.136C190.68 75.223 190.733 75.295 190.799 75.352C190.868 75.406 190.947 75.4465 191.037 75.4735C191.13 75.4975 191.229 75.5095 191.334 75.5095C191.475 75.5095 191.604 75.496 191.721 75.469C191.838 75.439 191.948 75.397 192.05 75.343C192.155 75.289 192.254 75.2245 192.347 75.1495C192.443 75.0745 192.536 74.989 192.626 74.893V73.948ZM190.038 72.085C190.29 71.842 190.562 71.6605 190.853 71.5405C191.144 71.4205 191.466 71.3605 191.82 71.3605C192.075 71.3605 192.302 71.4025 192.5 71.4865C192.698 71.5705 192.864 71.6875 192.999 71.8375C193.134 71.9875 193.236 72.169 193.305 72.382C193.374 72.595 193.409 72.829 193.409 73.084V76H193.053C192.975 76 192.915 75.988 192.873 75.964C192.831 75.937 192.798 75.886 192.774 75.811L192.684 75.379C192.564 75.49 192.447 75.589 192.333 75.676C192.219 75.76 192.099 75.832 191.973 75.892C191.847 75.949 191.712 75.9925 191.568 76.0225C191.427 76.0555 191.27 76.072 191.096 76.072C190.919 76.072 190.752 76.048 190.596 76C190.44 75.949 190.304 75.874 190.187 75.775C190.073 75.676 189.981 75.5515 189.912 75.4015C189.846 75.2485 189.813 75.0685 189.813 74.8615C189.813 74.6815 189.863 74.509 189.962 74.344C190.061 74.176 190.221 74.0275 190.443 73.8985C190.665 73.7695 190.955 73.6645 191.312 73.5835C191.669 73.4995 192.107 73.4515 192.626 73.4395V73.084C192.626 72.73 192.549 72.463 192.396 72.283C192.243 72.1 192.02 72.0085 191.726 72.0085C191.528 72.0085 191.361 72.034 191.226 72.085C191.094 72.133 190.979 72.1885 190.88 72.2515C190.784 72.3115 190.7 72.367 190.628 72.418C190.559 72.466 190.49 72.49 190.421 72.49C190.367 72.49 190.32 72.4765 190.281 72.4495C190.242 72.4195 190.209 72.3835 190.182 72.3415L190.038 72.085ZM195.457 69.3715V76H194.656V69.3715H195.457ZM197.309 69.1195C197.435 69.3325 197.521 69.5575 197.566 69.7945C197.611 70.0315 197.615 70.2655 197.579 70.4965C197.543 70.7275 197.468 70.9495 197.354 71.1625C197.24 71.3755 197.089 71.5645 196.9 71.7295L196.657 71.572C196.612 71.545 196.591 71.5105 196.594 71.4685C196.6 71.4235 196.615 71.3875 196.639 71.3605C196.717 71.2645 196.783 71.149 196.837 71.014C196.894 70.876 196.93 70.729 196.945 70.573C196.963 70.414 196.955 70.2505 196.922 70.0825C196.892 69.9145 196.831 69.7525 196.738 69.5965C196.699 69.5335 196.687 69.478 196.702 69.43C196.72 69.379 196.757 69.3415 196.814 69.3175L197.309 69.1195ZM198.677 69.1195C198.803 69.3325 198.889 69.5575 198.934 69.7945C198.979 70.0315 198.983 70.2655 198.947 70.4965C198.911 70.7275 198.836 70.9495 198.722 71.1625C198.608 71.3755 198.457 71.5645 198.268 71.7295L198.025 71.572C197.98 71.545 197.959 71.5105 197.962 71.4685C197.968 71.4235 197.983 71.3875 198.007 71.3605C198.085 71.2645 198.151 71.149 198.205 71.014C198.262 70.876 198.298 70.729 198.313 70.573C198.331 70.414 198.323 70.2505 198.29 70.0825C198.26 69.9145 198.199 69.7525 198.106 69.5965C198.067 69.5335 198.055 69.478 198.07 69.43C198.088 69.379 198.125 69.3415 198.182 69.3175L198.677 69.1195Z" fill="black"/>
<path id="val=&#226;&#128;&#156;gold&#226;&#128;&#157;" d="M166.221 82.4415L164.363 87H163.643L161.784 82.4415H162.437C162.503 82.4415 162.557 82.458 162.599 82.491C162.641 82.524 162.669 82.563 162.684 82.608L163.841 85.542C163.877 85.653 163.908 85.761 163.935 85.866C163.962 85.971 163.988 86.076 164.012 86.181C164.036 86.076 164.061 85.971 164.088 85.866C164.115 85.761 164.148 85.653 164.187 85.542L165.357 82.608C165.375 82.56 165.405 82.521 165.447 82.491C165.489 82.458 165.539 82.4415 165.596 82.4415H166.221ZM169.33 84.948C168.961 84.96 168.646 84.99 168.385 85.038C168.127 85.083 167.915 85.143 167.75 85.218C167.588 85.293 167.47 85.3815 167.395 85.4835C167.323 85.5855 167.287 85.6995 167.287 85.8255C167.287 85.9455 167.306 86.049 167.345 86.136C167.384 86.223 167.437 86.295 167.503 86.352C167.572 86.406 167.651 86.4465 167.741 86.4735C167.834 86.4975 167.933 86.5095 168.038 86.5095C168.179 86.5095 168.308 86.496 168.425 86.469C168.542 86.439 168.652 86.397 168.754 86.343C168.859 86.289 168.958 86.2245 169.051 86.1495C169.147 86.0745 169.24 85.989 169.33 85.893V84.948ZM166.742 83.085C166.994 82.842 167.266 82.6605 167.557 82.5405C167.848 82.4205 168.17 82.3605 168.524 82.3605C168.779 82.3605 169.006 82.4025 169.204 82.4865C169.402 82.5705 169.568 82.6875 169.703 82.8375C169.838 82.9875 169.94 83.169 170.009 83.382C170.078 83.595 170.113 83.829 170.113 84.084V87H169.757C169.679 87 169.619 86.988 169.577 86.964C169.535 86.937 169.502 86.886 169.478 86.811L169.388 86.379C169.268 86.49 169.151 86.589 169.037 86.676C168.923 86.76 168.803 86.832 168.677 86.892C168.551 86.949 168.416 86.9925 168.272 87.0225C168.131 87.0555 167.974 87.072 167.8 87.072C167.623 87.072 167.456 87.048 167.3 87C167.144 86.949 167.008 86.874 166.891 86.775C166.777 86.676 166.685 86.5515 166.616 86.4015C166.55 86.2485 166.517 86.0685 166.517 85.8615C166.517 85.6815 166.567 85.509 166.666 85.344C166.765 85.176 166.925 85.0275 167.147 84.8985C167.369 84.7695 167.659 84.6645 168.016 84.5835C168.373 84.4995 168.811 84.4515 169.33 84.4395V84.084C169.33 83.73 169.253 83.463 169.1 83.283C168.947 83.1 168.724 83.0085 168.43 83.0085C168.232 83.0085 168.065 83.034 167.93 83.085C167.798 83.133 167.683 83.1885 167.584 83.2515C167.488 83.3115 167.404 83.367 167.332 83.418C167.263 83.466 167.194 83.49 167.125 83.49C167.071 83.49 167.024 83.4765 166.985 83.4495C166.946 83.4195 166.913 83.3835 166.886 83.3415L166.742 83.085ZM172.161 80.3715V87H171.36V80.3715H172.161ZM173.5 84.417H177.37V85.0245H173.5V84.417ZM173.5 82.9095H177.37V83.517H173.5V82.9095ZM178.811 82.725C178.685 82.512 178.599 82.2885 178.554 82.0545C178.509 81.8175 178.505 81.5835 178.541 81.3525C178.577 81.1215 178.652 80.901 178.766 80.691C178.88 80.478 179.031 80.2875 179.22 80.1195L179.463 80.2725C179.508 80.3025 179.528 80.34 179.522 80.385C179.519 80.427 179.505 80.46 179.481 80.484C179.403 80.58 179.336 80.697 179.279 80.835C179.225 80.973 179.19 81.1215 179.175 81.2805C179.16 81.4365 179.168 81.5985 179.198 81.7665C179.228 81.9345 179.289 82.0965 179.382 82.2525C179.421 82.3155 179.432 82.3725 179.414 82.4235C179.399 82.4715 179.363 82.5075 179.306 82.5315L178.811 82.725ZM180.179 82.725C180.053 82.512 179.967 82.2885 179.922 82.0545C179.877 81.8175 179.873 81.5835 179.909 81.3525C179.945 81.1215 180.02 80.901 180.134 80.691C180.248 80.478 180.399 80.2875 180.588 80.1195L180.831 80.2725C180.876 80.3025 180.896 80.34 180.89 80.385C180.887 80.427 180.873 80.46 180.849 80.484C180.771 80.58 180.704 80.697 180.647 80.835C180.593 80.973 180.558 81.1215 180.543 81.2805C180.528 81.4365 180.536 81.5985 180.566 81.7665C180.596 81.9345 180.657 82.0965 180.75 82.2525C180.789 82.3155 180.8 82.3725 180.782 82.4235C180.767 82.4715 180.731 82.5075 180.674 82.5315L180.179 82.725ZM183.38 84.7725C183.542 84.7725 183.685 84.75 183.808 84.705C183.931 84.66 184.034 84.597 184.118 84.516C184.202 84.435 184.265 84.339 184.307 84.228C184.349 84.114 184.37 83.9895 184.37 83.8545C184.37 83.5755 184.285 83.3535 184.114 83.1885C183.946 83.0235 183.701 82.941 183.38 82.941C183.056 82.941 182.809 83.0235 182.638 83.1885C182.47 83.3535 182.386 83.5755 182.386 83.8545C182.386 83.9895 182.407 84.114 182.449 84.228C182.494 84.339 182.558 84.435 182.642 84.516C182.726 84.597 182.83 84.66 182.953 84.705C183.076 84.75 183.218 84.7725 183.38 84.7725ZM184.825 87.2475C184.825 87.1365 184.793 87.0465 184.73 86.9775C184.667 86.9085 184.582 86.8545 184.474 86.8155C184.369 86.7765 184.246 86.7495 184.105 86.7345C183.964 86.7165 183.814 86.703 183.655 86.694C183.499 86.685 183.34 86.676 183.178 86.667C183.016 86.658 182.86 86.643 182.71 86.622C182.542 86.7 182.404 86.799 182.296 86.919C182.191 87.036 182.138 87.174 182.138 87.333C182.138 87.435 182.164 87.5295 182.215 87.6165C182.269 87.7065 182.35 87.783 182.458 87.846C182.566 87.912 182.701 87.963 182.863 87.999C183.028 88.038 183.221 88.0575 183.443 88.0575C183.659 88.0575 183.853 88.038 184.024 87.999C184.195 87.96 184.339 87.9045 184.456 87.8325C184.576 87.7605 184.667 87.675 184.73 87.576C184.793 87.477 184.825 87.3675 184.825 87.2475ZM185.639 82.6215V82.9185C185.639 83.0175 185.576 83.0805 185.45 83.1075L184.933 83.175C185.035 83.373 185.086 83.592 185.086 83.832C185.086 84.054 185.042 84.2565 184.955 84.4395C184.871 84.6195 184.754 84.774 184.604 84.903C184.454 85.032 184.274 85.131 184.064 85.2C183.854 85.269 183.626 85.3035 183.38 85.3035C183.167 85.3035 182.966 85.278 182.777 85.227C182.681 85.287 182.608 85.3515 182.557 85.4205C182.506 85.4865 182.48 85.554 182.48 85.623C182.48 85.731 182.524 85.8135 182.611 85.8705C182.701 85.9245 182.818 85.9635 182.962 85.9875C183.106 86.0115 183.269 86.0265 183.452 86.0325C183.638 86.0385 183.827 86.049 184.019 86.064C184.214 86.076 184.403 86.0985 184.586 86.1315C184.772 86.1645 184.937 86.2185 185.081 86.2935C185.225 86.3685 185.341 86.472 185.428 86.604C185.518 86.736 185.563 86.907 185.563 87.117C185.563 87.312 185.513 87.501 185.414 87.684C185.318 87.867 185.179 88.029 184.996 88.17C184.813 88.314 184.588 88.428 184.321 88.512C184.057 88.599 183.758 88.6425 183.425 88.6425C183.092 88.6425 182.801 88.6095 182.552 88.5435C182.303 88.4775 182.096 88.389 181.931 88.278C181.766 88.167 181.642 88.038 181.558 87.891C181.477 87.747 181.436 87.5955 181.436 87.4365C181.436 87.2115 181.507 87.021 181.648 86.865C181.789 86.709 181.982 86.5845 182.228 86.4915C182.093 86.4315 181.985 86.352 181.904 86.253C181.826 86.151 181.787 86.0145 181.787 85.8435C181.787 85.7775 181.799 85.71 181.823 85.641C181.847 85.569 181.883 85.4985 181.931 85.4295C181.982 85.3575 182.044 85.29 182.116 85.227C182.188 85.164 182.272 85.1085 182.368 85.0605C182.143 84.9345 181.967 84.768 181.841 84.561C181.715 84.351 181.652 84.108 181.652 83.832C181.652 83.61 181.694 83.409 181.778 83.229C181.865 83.046 181.985 82.8915 182.138 82.7655C182.291 82.6365 182.473 82.5375 182.683 82.4685C182.896 82.3995 183.128 82.365 183.38 82.365C183.578 82.365 183.763 82.3875 183.934 82.4325C184.105 82.4745 184.261 82.5375 184.402 82.6215H185.639ZM188.319 82.3695C188.652 82.3695 188.952 82.425 189.219 82.536C189.486 82.647 189.714 82.8045 189.903 83.0085C190.092 83.2125 190.236 83.46 190.335 83.751C190.437 84.039 190.488 84.3615 190.488 84.7185C190.488 85.0785 190.437 85.4025 190.335 85.6905C190.236 85.9785 190.092 86.2245 189.903 86.4285C189.714 86.6325 189.486 86.79 189.219 86.901C188.952 87.009 188.652 87.063 188.319 87.063C187.983 87.063 187.68 87.009 187.41 86.901C187.143 86.79 186.915 86.6325 186.726 86.4285C186.537 86.2245 186.391 85.9785 186.289 85.6905C186.19 85.4025 186.141 85.0785 186.141 84.7185C186.141 84.3615 186.19 84.039 186.289 83.751C186.391 83.46 186.537 83.2125 186.726 83.0085C186.915 82.8045 187.143 82.647 187.41 82.536C187.68 82.425 187.983 82.3695 188.319 82.3695ZM188.319 86.4375C188.769 86.4375 189.105 86.2875 189.327 85.9875C189.549 85.6845 189.66 85.263 189.66 84.723C189.66 84.18 189.549 83.757 189.327 83.454C189.105 83.151 188.769 82.9995 188.319 82.9995C188.091 82.9995 187.891 83.0385 187.72 83.1165C187.552 83.1945 187.411 83.307 187.297 83.454C187.186 83.601 187.102 83.7825 187.045 83.9985C186.991 84.2115 186.964 84.453 186.964 84.723C186.964 85.263 187.075 85.6845 187.297 85.9875C187.522 86.2875 187.863 86.4375 188.319 86.4375ZM192.332 80.3715V87H191.531V80.3715H192.332ZM196.601 83.526C196.451 83.325 196.289 83.1855 196.115 83.1075C195.941 83.0265 195.746 82.986 195.53 82.986C195.107 82.986 194.781 83.1375 194.553 83.4405C194.325 83.7435 194.211 84.1755 194.211 84.7365C194.211 85.0335 194.237 85.2885 194.288 85.5015C194.339 85.7115 194.414 85.8855 194.513 86.0235C194.612 86.1585 194.733 86.2575 194.877 86.3205C195.021 86.3835 195.185 86.415 195.368 86.415C195.632 86.415 195.861 86.355 196.056 86.235C196.254 86.115 196.436 85.9455 196.601 85.7265V83.526ZM197.402 80.3715V87H196.925C196.811 87 196.739 86.9445 196.709 86.8335L196.637 86.28C196.442 86.514 196.22 86.703 195.971 86.847C195.722 86.991 195.434 87.063 195.107 87.063C194.846 87.063 194.609 87.0135 194.396 86.9145C194.183 86.8125 194.001 86.664 193.851 86.469C193.701 86.274 193.586 86.031 193.505 85.74C193.424 85.449 193.383 85.1145 193.383 84.7365C193.383 84.4005 193.428 84.0885 193.518 83.8005C193.608 83.5095 193.737 83.2575 193.905 83.0445C194.073 82.8315 194.279 82.665 194.522 82.545C194.768 82.422 195.044 82.3605 195.35 82.3605C195.629 82.3605 195.867 82.4085 196.065 82.5045C196.266 82.5975 196.445 82.728 196.601 82.896V80.3715H197.402ZM199.22 80.1195C199.346 80.3325 199.432 80.5575 199.477 80.7945C199.522 81.0315 199.526 81.2655 199.49 81.4965C199.454 81.7275 199.379 81.9495 199.265 82.1625C199.151 82.3755 199 82.5645 198.811 82.7295L198.568 82.572C198.523 82.545 198.502 82.5105 198.505 82.4685C198.511 82.4235 198.526 82.3875 198.55 82.3605C198.628 82.2645 198.694 82.149 198.748 82.014C198.805 81.876 198.841 81.729 198.856 81.573C198.874 81.414 198.866 81.2505 198.833 81.0825C198.803 80.9145 198.742 80.7525 198.649 80.5965C198.61 80.5335 198.598 80.478 198.613 80.43C198.631 80.379 198.668 80.3415 198.725 80.3175L199.22 80.1195ZM200.588 80.1195C200.714 80.3325 200.8 80.5575 200.845 80.7945C200.89 81.0315 200.894 81.2655 200.858 81.4965C200.822 81.7275 200.747 81.9495 200.633 82.1625C200.519 82.3755 200.368 82.5645 200.179 82.7295L199.936 82.572C199.891 82.545 199.87 82.5105 199.873 82.4685C199.879 82.4235 199.894 82.3875 199.918 82.3605C199.996 82.2645 200.062 82.149 200.116 82.014C200.173 81.876 200.209 81.729 200.224 81.573C200.242 81.414 200.234 81.2505 200.201 81.0825C200.171 80.9145 200.11 80.7525 200.017 80.5965C199.978 80.5335 199.966 80.478 199.981 80.43C199.999 80.379 200.036 80.3415 200.093 80.3175L200.588 80.1195Z" fill="black"/>
</g>
</g>
<g id="pair-to-add-no-collision" style="opacity: 0">
<circle id="node-template_4" cx="181" cy="23" r="22.5" stroke="black"/>
<g id="params_4">
<path id="key=&#226;&#128;&#156;sam&#226;&#128;&#157;" d="M163.51 15.3715V19.273H163.717C163.777 19.273 163.826 19.2655 163.865 19.2505C163.907 19.2325 163.951 19.198 163.996 19.147L165.436 17.6035C165.478 17.5525 165.521 17.5135 165.566 17.4865C165.614 17.4565 165.677 17.4415 165.755 17.4415H166.48L164.801 19.228C164.72 19.33 164.633 19.4095 164.54 19.4665C164.594 19.5025 164.642 19.5445 164.684 19.5925C164.729 19.6375 164.771 19.69 164.81 19.75L166.592 22H165.877C165.808 22 165.748 21.9895 165.697 21.9685C165.649 21.9445 165.607 21.9025 165.571 21.8425L164.072 19.975C164.027 19.912 163.982 19.8715 163.937 19.8535C163.895 19.8325 163.829 19.822 163.739 19.822H163.51V22H162.704V15.3715H163.51ZM170.071 19.2235C170.071 19.0375 170.044 18.868 169.99 18.715C169.939 18.559 169.862 18.4255 169.76 18.3145C169.661 18.2005 169.54 18.1135 169.396 18.0535C169.252 17.9905 169.088 17.959 168.905 17.959C168.521 17.959 168.217 18.0715 167.992 18.2965C167.77 18.5185 167.632 18.8275 167.578 19.2235H170.071ZM170.719 21.361C170.62 21.481 170.501 21.586 170.363 21.676C170.225 21.763 170.077 21.835 169.918 21.892C169.762 21.949 169.6 21.991 169.432 22.018C169.264 22.048 169.097 22.063 168.932 22.063C168.617 22.063 168.326 22.0105 168.059 21.9055C167.795 21.7975 167.566 21.6415 167.371 21.4375C167.179 21.2305 167.029 20.9755 166.921 20.6725C166.813 20.3695 166.759 20.0215 166.759 19.6285C166.759 19.3105 166.807 19.0135 166.903 18.7375C167.002 18.4615 167.143 18.223 167.326 18.022C167.509 17.818 167.732 17.659 167.996 17.545C168.26 17.428 168.557 17.3695 168.887 17.3695C169.16 17.3695 169.412 17.416 169.643 17.509C169.877 17.599 170.078 17.731 170.246 17.905C170.417 18.076 170.551 18.289 170.647 18.544C170.743 18.796 170.791 19.084 170.791 19.408C170.791 19.534 170.777 19.618 170.75 19.66C170.723 19.702 170.672 19.723 170.597 19.723H167.551C167.56 20.011 167.599 20.2615 167.668 20.4745C167.74 20.6875 167.839 20.866 167.965 21.01C168.091 21.151 168.241 21.2575 168.415 21.3295C168.589 21.3985 168.784 21.433 169 21.433C169.201 21.433 169.373 21.4105 169.517 21.3655C169.664 21.3175 169.79 21.2665 169.895 21.2125C170 21.1585 170.087 21.109 170.156 21.064C170.228 21.016 170.29 20.992 170.341 20.992C170.407 20.992 170.458 21.0175 170.494 21.0685L170.719 21.361ZM175.593 17.4415L173.051 23.3455C173.024 23.4055 172.989 23.4535 172.947 23.4895C172.908 23.5255 172.847 23.5435 172.763 23.5435H172.169L173.001 21.7345L171.12 17.4415H171.813C171.882 17.4415 171.936 17.4595 171.975 17.4955C172.017 17.5285 172.046 17.566 172.061 17.608L173.28 20.479C173.328 20.605 173.369 20.737 173.402 20.875C173.444 20.734 173.489 20.6005 173.537 20.4745L174.72 17.608C174.738 17.56 174.768 17.521 174.81 17.491C174.855 17.458 174.905 17.4415 174.959 17.4415H175.593ZM176.342 19.417H180.212V20.0245H176.342V19.417ZM176.342 17.9095H180.212V18.517H176.342V17.9095ZM181.652 17.725C181.526 17.512 181.441 17.2885 181.396 17.0545C181.351 16.8175 181.346 16.5835 181.382 16.3525C181.418 16.1215 181.493 15.901 181.607 15.691C181.721 15.478 181.873 15.2875 182.062 15.1195L182.305 15.2725C182.35 15.3025 182.369 15.34 182.363 15.385C182.36 15.427 182.347 15.46 182.323 15.484C182.245 15.58 182.177 15.697 182.12 15.835C182.066 15.973 182.032 16.1215 182.017 16.2805C182.002 16.4365 182.009 16.5985 182.039 16.7665C182.069 16.9345 182.131 17.0965 182.224 17.2525C182.263 17.3155 182.273 17.3725 182.255 17.4235C182.24 17.4715 182.204 17.5075 182.147 17.5315L181.652 17.725ZM183.02 17.725C182.894 17.512 182.809 17.2885 182.764 17.0545C182.719 16.8175 182.714 16.5835 182.75 16.3525C182.786 16.1215 182.861 15.901 182.975 15.691C183.089 15.478 183.241 15.2875 183.43 15.1195L183.673 15.2725C183.718 15.3025 183.737 15.34 183.731 15.385C183.728 15.427 183.715 15.46 183.691 15.484C183.613 15.58 183.545 15.697 183.488 15.835C183.434 15.973 183.4 16.1215 183.385 16.2805C183.37 16.4365 183.377 16.5985 183.407 16.7665C183.437 16.9345 183.499 17.0965 183.592 17.2525C183.631 17.3155 183.641 17.3725 183.623 17.4235C183.608 17.4715 183.572 17.5075 183.515 17.5315L183.02 17.725ZM187.306 18.193C187.27 18.259 187.214 18.292 187.139 18.292C187.094 18.292 187.043 18.2755 186.986 18.2425C186.929 18.2095 186.859 18.1735 186.775 18.1345C186.694 18.0925 186.596 18.055 186.482 18.022C186.368 17.986 186.233 17.968 186.077 17.968C185.942 17.968 185.821 17.986 185.713 18.022C185.605 18.055 185.512 18.1015 185.434 18.1615C185.359 18.2215 185.3 18.292 185.258 18.373C185.219 18.451 185.2 18.5365 185.2 18.6295C185.2 18.7465 185.233 18.844 185.299 18.922C185.368 19 185.458 19.0675 185.569 19.1245C185.68 19.1815 185.806 19.2325 185.947 19.2775C186.088 19.3195 186.232 19.366 186.379 19.417C186.529 19.465 186.674 19.519 186.815 19.579C186.956 19.639 187.082 19.714 187.193 19.804C187.304 19.894 187.393 20.005 187.459 20.137C187.528 20.266 187.562 20.422 187.562 20.605C187.562 20.815 187.525 21.01 187.45 21.19C187.375 21.367 187.264 21.5215 187.117 21.6535C186.97 21.7825 186.79 21.8845 186.577 21.9595C186.364 22.0345 186.118 22.072 185.839 22.072C185.521 22.072 185.233 22.021 184.975 21.919C184.717 21.814 184.498 21.6805 184.318 21.5185L184.507 21.2125C184.531 21.1735 184.559 21.1435 184.592 21.1225C184.625 21.1015 184.667 21.091 184.718 21.091C184.772 21.091 184.829 21.112 184.889 21.154C184.949 21.196 185.021 21.2425 185.105 21.2935C185.192 21.3445 185.297 21.391 185.42 21.433C185.543 21.475 185.696 21.496 185.879 21.496C186.035 21.496 186.172 21.4765 186.289 21.4375C186.406 21.3955 186.503 21.34 186.581 21.271C186.659 21.202 186.716 21.1225 186.752 21.0325C186.791 20.9425 186.811 20.8465 186.811 20.7445C186.811 20.6185 186.776 20.515 186.707 20.434C186.641 20.35 186.553 20.2795 186.442 20.2225C186.331 20.1625 186.203 20.1115 186.059 20.0695C185.918 20.0245 185.773 19.978 185.623 19.93C185.476 19.882 185.33 19.828 185.186 19.768C185.045 19.705 184.919 19.627 184.808 19.534C184.697 19.441 184.607 19.327 184.538 19.192C184.472 19.054 184.439 18.8875 184.439 18.6925C184.439 18.5185 184.475 18.352 184.547 18.193C184.619 18.031 184.724 17.89 184.862 17.77C185 17.647 185.17 17.5495 185.371 17.4775C185.572 17.4055 185.801 17.3695 186.059 17.3695C186.359 17.3695 186.628 17.4175 186.865 17.5135C187.105 17.6065 187.312 17.7355 187.486 17.9005L187.306 18.193ZM191.015 19.948C190.646 19.96 190.331 19.99 190.07 20.038C189.812 20.083 189.6 20.143 189.435 20.218C189.273 20.293 189.155 20.3815 189.08 20.4835C189.008 20.5855 188.972 20.6995 188.972 20.8255C188.972 20.9455 188.991 21.049 189.03 21.136C189.069 21.223 189.122 21.295 189.188 21.352C189.257 21.406 189.336 21.4465 189.426 21.4735C189.519 21.4975 189.618 21.5095 189.723 21.5095C189.864 21.5095 189.993 21.496 190.11 21.469C190.227 21.439 190.337 21.397 190.439 21.343C190.544 21.289 190.643 21.2245 190.736 21.1495C190.832 21.0745 190.925 20.989 191.015 20.893V19.948ZM188.427 18.085C188.679 17.842 188.951 17.6605 189.242 17.5405C189.533 17.4205 189.855 17.3605 190.209 17.3605C190.464 17.3605 190.691 17.4025 190.889 17.4865C191.087 17.5705 191.253 17.6875 191.388 17.8375C191.523 17.9875 191.625 18.169 191.694 18.382C191.763 18.595 191.798 18.829 191.798 19.084V22H191.442C191.364 22 191.304 21.988 191.262 21.964C191.22 21.937 191.187 21.886 191.163 21.811L191.073 21.379C190.953 21.49 190.836 21.589 190.722 21.676C190.608 21.76 190.488 21.832 190.362 21.892C190.236 21.949 190.101 21.9925 189.957 22.0225C189.816 22.0555 189.659 22.072 189.485 22.072C189.308 22.072 189.141 22.048 188.985 22C188.829 21.949 188.693 21.874 188.576 21.775C188.462 21.676 188.37 21.5515 188.301 21.4015C188.235 21.2485 188.202 21.0685 188.202 20.8615C188.202 20.6815 188.252 20.509 188.351 20.344C188.45 20.176 188.61 20.0275 188.832 19.8985C189.054 19.7695 189.344 19.6645 189.701 19.5835C190.058 19.4995 190.496 19.4515 191.015 19.4395V19.084C191.015 18.73 190.938 18.463 190.785 18.283C190.632 18.1 190.409 18.0085 190.115 18.0085C189.917 18.0085 189.75 18.034 189.615 18.085C189.483 18.133 189.368 18.1885 189.269 18.2515C189.173 18.3115 189.089 18.367 189.017 18.418C188.948 18.466 188.879 18.49 188.81 18.49C188.756 18.49 188.709 18.4765 188.67 18.4495C188.631 18.4195 188.598 18.3835 188.571 18.3415L188.427 18.085ZM193.018 22V17.4415H193.499C193.613 17.4415 193.684 17.497 193.711 17.608L193.769 18.076C193.937 17.869 194.126 17.6995 194.336 17.5675C194.546 17.4355 194.789 17.3695 195.065 17.3695C195.371 17.3695 195.619 17.455 195.808 17.626C196 17.797 196.138 18.028 196.222 18.319C196.288 18.154 196.372 18.0115 196.474 17.8915C196.579 17.7715 196.696 17.6725 196.825 17.5945C196.954 17.5165 197.09 17.4595 197.234 17.4235C197.381 17.3875 197.53 17.3695 197.68 17.3695C197.92 17.3695 198.133 17.4085 198.319 17.4865C198.508 17.5615 198.667 17.6725 198.796 17.8195C198.928 17.9665 199.028 18.148 199.097 18.364C199.166 18.577 199.201 18.8215 199.201 19.0975V22H198.395V19.0975C198.395 18.7405 198.317 18.4705 198.161 18.2875C198.005 18.1015 197.78 18.0085 197.486 18.0085C197.354 18.0085 197.228 18.0325 197.108 18.0805C196.991 18.1255 196.888 18.193 196.798 18.283C196.708 18.373 196.636 18.487 196.582 18.625C196.531 18.76 196.505 18.9175 196.505 19.0975V22H195.7V19.0975C195.7 18.7315 195.626 18.4585 195.479 18.2785C195.332 18.0985 195.118 18.0085 194.836 18.0085C194.638 18.0085 194.455 18.0625 194.287 18.1705C194.119 18.2755 193.964 18.4195 193.823 18.6025V22H193.018ZM200.831 15.1195C200.957 15.3325 201.043 15.5575 201.088 15.7945C201.133 16.0315 201.137 16.2655 201.101 16.4965C201.065 16.7275 200.99 16.9495 200.876 17.1625C200.762 17.3755 200.611 17.5645 200.422 17.7295L200.179 17.572C200.134 17.545 200.113 17.5105 200.116 17.4685C200.122 17.4235 200.137 17.3875 200.161 17.3605C200.239 17.2645 200.305 17.149 200.359 17.014C200.416 16.876 200.452 16.729 200.467 16.573C200.485 16.414 200.477 16.2505 200.444 16.0825C200.414 15.9145 200.353 15.7525 200.26 15.5965C200.221 15.5335 200.209 15.478 200.224 15.43C200.242 15.379 200.279 15.3415 200.336 15.3175L200.831 15.1195ZM202.199 15.1195C202.325 15.3325 202.411 15.5575 202.456 15.7945C202.501 16.0315 202.505 16.2655 202.469 16.4965C202.433 16.7275 202.358 16.9495 202.244 17.1625C202.13 17.3755 201.979 17.5645 201.79 17.7295L201.547 17.572C201.502 17.545 201.481 17.5105 201.484 17.4685C201.49 17.4235 201.505 17.3875 201.529 17.3605C201.607 17.2645 201.673 17.149 201.727 17.014C201.784 16.876 201.82 16.729 201.835 16.573C201.853 16.414 201.845 16.2505 201.812 16.0825C201.782 15.9145 201.721 15.7525 201.628 15.5965C201.589 15.5335 201.577 15.478 201.592 15.43C201.61 15.379 201.647 15.3415 201.704 15.3175L202.199 15.1195Z" fill="black"/>
<path id="val=&#226;&#128;&#156;blue&#226;&#128;&#157;_2" d="M165.182 28.4415L163.323 33H162.603L160.745 28.4415H161.397C161.463 28.4415 161.517 28.458 161.559 28.491C161.601 28.524 161.63 28.563 161.645 28.608L162.801 31.542C162.837 31.653 162.869 31.761 162.896 31.866C162.923 31.971 162.948 32.076 162.972 32.181C162.996 32.076 163.022 31.971 163.049 31.866C163.076 31.761 163.109 31.653 163.148 31.542L164.318 28.608C164.336 28.56 164.366 28.521 164.408 28.491C164.45 28.458 164.499 28.4415 164.556 28.4415H165.182ZM168.29 30.948C167.921 30.96 167.606 30.99 167.345 31.038C167.087 31.083 166.876 31.143 166.711 31.218C166.549 31.293 166.43 31.3815 166.355 31.4835C166.283 31.5855 166.247 31.6995 166.247 31.8255C166.247 31.9455 166.267 32.049 166.306 32.136C166.345 32.223 166.397 32.295 166.463 32.352C166.532 32.406 166.612 32.4465 166.702 32.4735C166.795 32.4975 166.894 32.5095 166.999 32.5095C167.14 32.5095 167.269 32.496 167.386 32.469C167.503 32.439 167.612 32.397 167.714 32.343C167.819 32.289 167.918 32.2245 168.011 32.1495C168.107 32.0745 168.2 31.989 168.29 31.893V30.948ZM165.703 29.085C165.955 28.842 166.226 28.6605 166.517 28.5405C166.808 28.4205 167.131 28.3605 167.485 28.3605C167.74 28.3605 167.966 28.4025 168.164 28.4865C168.362 28.5705 168.529 28.6875 168.664 28.8375C168.799 28.9875 168.901 29.169 168.97 29.382C169.039 29.595 169.073 29.829 169.073 30.084V33H168.718C168.64 33 168.58 32.988 168.538 32.964C168.496 32.937 168.463 32.886 168.439 32.811L168.349 32.379C168.229 32.49 168.112 32.589 167.998 32.676C167.884 32.76 167.764 32.832 167.638 32.892C167.512 32.949 167.377 32.9925 167.233 33.0225C167.092 33.0555 166.934 33.072 166.76 33.072C166.583 33.072 166.417 33.048 166.261 33C166.105 32.949 165.968 32.874 165.851 32.775C165.737 32.676 165.646 32.5515 165.577 32.4015C165.511 32.2485 165.478 32.0685 165.478 31.8615C165.478 31.6815 165.527 31.509 165.626 31.344C165.725 31.176 165.886 31.0275 166.108 30.8985C166.33 30.7695 166.619 30.6645 166.976 30.5835C167.333 30.4995 167.771 30.4515 168.29 30.4395V30.084C168.29 29.73 168.214 29.463 168.061 29.283C167.908 29.1 167.684 29.0085 167.39 29.0085C167.192 29.0085 167.026 29.034 166.891 29.085C166.759 29.133 166.643 29.1885 166.544 29.2515C166.448 29.3115 166.364 29.367 166.292 29.418C166.223 29.466 166.154 29.49 166.085 29.49C166.031 29.49 165.985 29.4765 165.946 29.4495C165.907 29.4195 165.874 29.3835 165.847 29.3415L165.703 29.085ZM171.121 26.3715V33H170.32V26.3715H171.121ZM172.461 30.417H176.331V31.0245H172.461V30.417ZM172.461 28.9095H176.331V29.517H172.461V28.9095ZM177.771 28.725C177.645 28.512 177.56 28.2885 177.515 28.0545C177.47 27.8175 177.465 27.5835 177.501 27.3525C177.537 27.1215 177.612 26.901 177.726 26.691C177.84 26.478 177.992 26.2875 178.181 26.1195L178.424 26.2725C178.469 26.3025 178.488 26.34 178.482 26.385C178.479 26.427 178.466 26.46 178.442 26.484C178.364 26.58 178.296 26.697 178.239 26.835C178.185 26.973 178.151 27.1215 178.136 27.2805C178.121 27.4365 178.128 27.5985 178.158 27.7665C178.188 27.9345 178.25 28.0965 178.343 28.2525C178.382 28.3155 178.392 28.3725 178.374 28.4235C178.359 28.4715 178.323 28.5075 178.266 28.5315L177.771 28.725ZM179.139 28.725C179.013 28.512 178.928 28.2885 178.883 28.0545C178.838 27.8175 178.833 27.5835 178.869 27.3525C178.905 27.1215 178.98 26.901 179.094 26.691C179.208 26.478 179.36 26.2875 179.549 26.1195L179.792 26.2725C179.837 26.3025 179.856 26.34 179.85 26.385C179.847 26.427 179.834 26.46 179.81 26.484C179.732 26.58 179.664 26.697 179.607 26.835C179.553 26.973 179.519 27.1215 179.504 27.2805C179.489 27.4365 179.496 27.5985 179.526 27.7665C179.556 27.9345 179.618 28.0965 179.711 28.2525C179.75 28.3155 179.76 28.3725 179.742 28.4235C179.727 28.4715 179.691 28.5075 179.634 28.5315L179.139 28.725ZM181.733 31.902C181.88 32.1 182.041 32.2395 182.215 32.3205C182.392 32.4015 182.585 32.442 182.795 32.442C183.224 32.442 183.553 32.2905 183.781 31.9875C184.009 31.6845 184.123 31.233 184.123 30.633C184.123 30.075 184.021 29.6655 183.817 29.4045C183.616 29.1405 183.328 29.0085 182.953 29.0085C182.692 29.0085 182.464 29.0685 182.269 29.1885C182.077 29.3085 181.898 29.478 181.733 29.697V31.902ZM181.733 29.0985C181.925 28.8765 182.141 28.6995 182.381 28.5675C182.624 28.4355 182.903 28.3695 183.218 28.3695C183.485 28.3695 183.725 28.4205 183.938 28.5225C184.154 28.6245 184.337 28.773 184.487 28.968C184.637 29.16 184.751 29.394 184.829 29.67C184.91 29.946 184.951 30.2565 184.951 30.6015C184.951 30.9705 184.906 31.3065 184.816 31.6095C184.726 31.9125 184.595 32.172 184.424 32.388C184.256 32.601 184.051 32.7675 183.808 32.8875C183.565 33.0045 183.292 33.063 182.989 33.063C182.689 33.063 182.435 33.0075 182.228 32.8965C182.024 32.7825 181.846 32.622 181.693 32.415L181.652 32.829C181.628 32.943 181.559 33 181.445 33H180.928V26.3715H181.733V29.0985ZM186.792 26.3715V33H185.991V26.3715H186.792ZM191.84 28.4415V33H191.363C191.249 33 191.177 32.9445 191.147 32.8335L191.084 32.343C190.886 32.562 190.664 32.739 190.418 32.874C190.172 33.006 189.89 33.072 189.572 33.072C189.323 33.072 189.102 33.0315 188.91 32.9505C188.721 32.8665 188.562 32.7495 188.433 32.5995C188.304 32.4495 188.207 32.268 188.141 32.055C188.078 31.842 188.046 31.6065 188.046 31.3485V28.4415H188.847V31.3485C188.847 31.6935 188.925 31.9605 189.081 32.1495C189.24 32.3385 189.482 32.433 189.806 32.433C190.043 32.433 190.263 32.3775 190.467 32.2665C190.674 32.1525 190.865 31.9965 191.039 31.7985V28.4415H191.84ZM196.161 30.2235C196.161 30.0375 196.134 29.868 196.08 29.715C196.029 29.559 195.952 29.4255 195.85 29.3145C195.751 29.2005 195.63 29.1135 195.486 29.0535C195.342 28.9905 195.178 28.959 194.995 28.959C194.611 28.959 194.307 29.0715 194.082 29.2965C193.86 29.5185 193.722 29.8275 193.668 30.2235H196.161ZM196.809 32.361C196.71 32.481 196.591 32.586 196.453 32.676C196.315 32.763 196.167 32.835 196.008 32.892C195.852 32.949 195.69 32.991 195.522 33.018C195.354 33.048 195.187 33.063 195.022 33.063C194.707 33.063 194.416 33.0105 194.149 32.9055C193.885 32.7975 193.656 32.6415 193.461 32.4375C193.269 32.2305 193.119 31.9755 193.011 31.6725C192.903 31.3695 192.849 31.0215 192.849 30.6285C192.849 30.3105 192.897 30.0135 192.993 29.7375C193.092 29.4615 193.233 29.223 193.416 29.022C193.599 28.818 193.822 28.659 194.086 28.545C194.35 28.428 194.647 28.3695 194.977 28.3695C195.25 28.3695 195.502 28.416 195.733 28.509C195.967 28.599 196.168 28.731 196.336 28.905C196.507 29.076 196.641 29.289 196.737 29.544C196.833 29.796 196.881 30.084 196.881 30.408C196.881 30.534 196.867 30.618 196.84 30.66C196.813 30.702 196.762 30.723 196.687 30.723H193.641C193.65 31.011 193.689 31.2615 193.758 31.4745C193.83 31.6875 193.929 31.866 194.055 32.01C194.181 32.151 194.331 32.2575 194.505 32.3295C194.679 32.3985 194.874 32.433 195.09 32.433C195.291 32.433 195.463 32.4105 195.607 32.3655C195.754 32.3175 195.88 32.2665 195.985 32.2125C196.09 32.1585 196.177 32.109 196.246 32.064C196.318 32.016 196.38 31.992 196.431 31.992C196.497 31.992 196.548 32.0175 196.584 32.0685L196.809 32.361ZM198.26 26.1195C198.386 26.3325 198.471 26.5575 198.516 26.7945C198.561 27.0315 198.566 27.2655 198.53 27.4965C198.494 27.7275 198.419 27.9495 198.305 28.1625C198.191 28.3755 198.039 28.5645 197.85 28.7295L197.607 28.572C197.562 28.545 197.541 28.5105 197.544 28.4685C197.55 28.4235 197.565 28.3875 197.589 28.3605C197.667 28.2645 197.733 28.149 197.787 28.014C197.844 27.876 197.88 27.729 197.895 27.573C197.913 27.414 197.906 27.2505 197.873 27.0825C197.843 26.9145 197.781 26.7525 197.688 26.5965C197.649 26.5335 197.637 26.478 197.652 26.43C197.67 26.379 197.708 26.3415 197.765 26.3175L198.26 26.1195ZM199.628 26.1195C199.754 26.3325 199.839 26.5575 199.884 26.7945C199.929 27.0315 199.934 27.2655 199.898 27.4965C199.862 27.7275 199.787 27.9495 199.673 28.1625C199.559 28.3755 199.407 28.5645 199.218 28.7295L198.975 28.572C198.93 28.545 198.909 28.5105 198.912 28.4685C198.918 28.4235 198.933 28.3875 198.957 28.3605C199.035 28.2645 199.101 28.149 199.155 28.014C199.212 27.876 199.248 27.729 199.263 27.573C199.281 27.414 199.274 27.2505 199.241 27.0825C199.211 26.9145 199.149 26.7525 199.056 26.5965C199.017 26.5335 199.005 26.478 199.02 26.43C199.038 26.379 199.076 26.3415 199.133 26.3175L199.628 26.1195Z" fill="black"/>
</g>
</g>
</g>
<g id="pointer" style="opacity: 0">
<path id="arrow-pointer" d="M231.646 48.3536C231.842 48.5488 232.158 48.5488 232.354 48.3536L235.536 45.1716C235.731 44.9763 235.731 44.6597 235.536 44.4645C235.34 44.2692 235.024 44.2692 234.828 44.4645L232 47.2929L229.172 44.4645C228.976 44.2692 228.66 44.2692 228.464 44.4645C228.269 44.6597 228.269 44.9763 228.464 45.1716L231.646 48.3536ZM231.5 28V48H232.5V28H231.5Z" fill="black"/>
<path id="index=4" d="M217.564 20.4415V25H216.763V20.4415H217.564ZM217.735 19.0105C217.735 19.0885 217.718 19.162 217.685 19.231C217.655 19.297 217.613 19.357 217.559 19.411C217.508 19.462 217.447 19.5025 217.375 19.5325C217.306 19.5625 217.232 19.5775 217.154 19.5775C217.076 19.5775 217.003 19.5625 216.934 19.5325C216.868 19.5025 216.809 19.462 216.758 19.411C216.707 19.357 216.667 19.297 216.637 19.231C216.607 19.162 216.592 19.0885 216.592 19.0105C216.592 18.9325 216.607 18.859 216.637 18.79C216.667 18.718 216.707 18.6565 216.758 18.6055C216.809 18.5515 216.868 18.5095 216.934 18.4795C217.003 18.4495 217.076 18.4345 217.154 18.4345C217.232 18.4345 217.306 18.4495 217.375 18.4795C217.447 18.5095 217.508 18.5515 217.559 18.6055C217.613 18.6565 217.655 18.718 217.685 18.79C217.718 18.859 217.735 18.9325 217.735 19.0105ZM219.636 21.103C219.735 20.992 219.84 20.8915 219.951 20.8015C220.062 20.7115 220.179 20.635 220.302 20.572C220.428 20.506 220.56 20.4565 220.698 20.4235C220.839 20.3875 220.99 20.3695 221.152 20.3695C221.401 20.3695 221.62 20.4115 221.809 20.4955C222.001 20.5765 222.16 20.6935 222.286 20.8465C222.415 20.9965 222.513 21.178 222.579 21.391C222.645 21.604 222.678 21.8395 222.678 22.0975V25H221.872V22.0975C221.872 21.7525 221.793 21.4855 221.634 21.2965C221.478 21.1045 221.239 21.0085 220.918 21.0085C220.681 21.0085 220.459 21.0655 220.252 21.1795C220.048 21.2935 219.859 21.448 219.685 21.643V25H218.88V20.4415H219.361C219.475 20.4415 219.546 20.497 219.573 20.608L219.636 21.103ZM226.868 21.526C226.718 21.325 226.556 21.1855 226.382 21.1075C226.208 21.0265 226.013 20.986 225.797 20.986C225.374 20.986 225.049 21.1375 224.821 21.4405C224.593 21.7435 224.479 22.1755 224.479 22.7365C224.479 23.0335 224.504 23.2885 224.555 23.5015C224.606 23.7115 224.681 23.8855 224.78 24.0235C224.879 24.1585 225.001 24.2575 225.145 24.3205C225.289 24.3835 225.452 24.415 225.635 24.415C225.899 24.415 226.129 24.355 226.324 24.235C226.522 24.115 226.703 23.9455 226.868 23.7265V21.526ZM227.669 18.3715V25H227.192C227.078 25 227.006 24.9445 226.976 24.8335L226.904 24.28C226.709 24.514 226.487 24.703 226.238 24.847C225.989 24.991 225.701 25.063 225.374 25.063C225.113 25.063 224.876 25.0135 224.663 24.9145C224.45 24.8125 224.269 24.664 224.119 24.469C223.969 24.274 223.853 24.031 223.772 23.74C223.691 23.449 223.651 23.1145 223.651 22.7365C223.651 22.4005 223.696 22.0885 223.786 21.8005C223.876 21.5095 224.005 21.2575 224.173 21.0445C224.341 20.8315 224.546 20.665 224.789 20.545C225.035 20.422 225.311 20.3605 225.617 20.3605C225.896 20.3605 226.135 20.4085 226.333 20.5045C226.534 20.5975 226.712 20.728 226.868 20.896V18.3715H227.669ZM231.985 22.2235C231.985 22.0375 231.958 21.868 231.904 21.715C231.853 21.559 231.777 21.4255 231.675 21.3145C231.576 21.2005 231.454 21.1135 231.31 21.0535C231.166 20.9905 231.003 20.959 230.82 20.959C230.436 20.959 230.131 21.0715 229.906 21.2965C229.684 21.5185 229.546 21.8275 229.492 22.2235H231.985ZM232.633 24.361C232.534 24.481 232.416 24.586 232.278 24.676C232.14 24.763 231.991 24.835 231.832 24.892C231.676 24.949 231.514 24.991 231.346 25.018C231.178 25.048 231.012 25.063 230.847 25.063C230.532 25.063 230.241 25.0105 229.974 24.9055C229.71 24.7975 229.48 24.6415 229.285 24.4375C229.093 24.2305 228.943 23.9755 228.835 23.6725C228.727 23.3695 228.673 23.0215 228.673 22.6285C228.673 22.3105 228.721 22.0135 228.817 21.7375C228.916 21.4615 229.057 21.223 229.24 21.022C229.423 20.818 229.647 20.659 229.911 20.545C230.175 20.428 230.472 20.3695 230.802 20.3695C231.075 20.3695 231.327 20.416 231.558 20.509C231.792 20.599 231.993 20.731 232.161 20.905C232.332 21.076 232.465 21.289 232.561 21.544C232.657 21.796 232.705 22.084 232.705 22.408C232.705 22.534 232.692 22.618 232.665 22.66C232.638 22.702 232.587 22.723 232.512 22.723H229.465C229.474 23.011 229.513 23.2615 229.582 23.4745C229.654 23.6875 229.753 23.866 229.879 24.01C230.005 24.151 230.155 24.2575 230.329 24.3295C230.503 24.3985 230.698 24.433 230.914 24.433C231.115 24.433 231.288 24.4105 231.432 24.3655C231.579 24.3175 231.705 24.2665 231.81 24.2125C231.915 24.1585 232.002 24.109 232.071 24.064C232.143 24.016 232.204 23.992 232.255 23.992C232.321 23.992 232.372 24.0175 232.408 24.0685L232.633 24.361ZM237.372 25H236.602C236.536 25 236.484 24.9835 236.445 24.9505C236.409 24.9145 236.379 24.8755 236.355 24.8335L235.207 23.047C235.195 23.089 235.182 23.131 235.167 23.173C235.155 23.212 235.137 23.248 235.113 23.281L234.051 24.8335C234.021 24.8755 233.988 24.9145 233.952 24.9505C233.919 24.9835 233.872 25 233.812 25H233.097L234.694 22.66L233.16 20.4415H233.929C233.995 20.4415 234.043 20.452 234.073 20.473C234.103 20.494 234.13 20.524 234.154 20.563L235.275 22.273C235.299 22.186 235.336 22.102 235.387 22.021L236.368 20.581C236.395 20.539 236.424 20.506 236.454 20.482C236.487 20.455 236.526 20.4415 236.571 20.4415H237.309L235.774 22.6195L237.372 25ZM238.151 22.417H242.021V23.0245H238.151V22.417ZM238.151 20.9095H242.021V21.517H238.151V20.9095ZM245.981 22.6735V20.014C245.981 19.936 245.984 19.8505 245.99 19.7575C245.996 19.6645 246.005 19.57 246.017 19.474L243.668 22.6735H245.981ZM247.66 22.6735V23.1325C247.66 23.1805 247.645 23.221 247.615 23.254C247.588 23.287 247.544 23.3035 247.484 23.3035H246.683V25H245.981V23.3035H243.119C243.059 23.3035 243.007 23.287 242.962 23.254C242.92 23.218 242.893 23.1745 242.881 23.1235L242.8 22.714L245.936 18.5515H246.683V22.6735H247.66Z" fill="black"/>
</g>
</g>
</svg>
