<svg  viewBox="0 0 357 104" fill="none" xmlns="http://www.w3.org/2000/svg">
<g id="hashmap-get-linear-probing">
<g id="array">
<rect id="Rectangle 1" x="4.5" y="25.5" width="51.5745" height="55" stroke="black"/>
<rect id="Rectangle 7" x="307.071" y="25.5" width="49.4286" height="55" stroke="black"/>
<rect id="Rectangle 6" x="257.716" y="25.5" width="48.3556" height="55" stroke="black"/>
<rect id="Rectangle 5" x="207.287" y="25.5" width="49.4286" height="55" stroke="black"/>
<rect id="Rectangle 4" x="156.859" y="25.5" width="49.4286" height="55" stroke="black"/>
<rect id="Rectangle 3" x="106.43" y="25.5" width="49.4286" height="55" stroke="black"/>
<rect id="Rectangle 2" x="57.0745" y="25.5" width="48.3556" height="55" stroke="black"/>
<g id="pair">
<circle id="node-template" cx="30" cy="53" r="22.5" stroke="black"/>
<g id="params">
<path id="key=&#226;&#128;&#156;john&#226;&#128;&#157;" d="M11.6617 45.3715V49.273H11.8687C11.9287 49.273 11.9782 49.2655 12.0172 49.2505C12.0592 49.2325 12.1027 49.198 12.1477 49.147L13.5877 47.6035C13.6297 47.5525 13.6732 47.5135 13.7182 47.4865C13.7662 47.4565 13.8292 47.4415 13.9072 47.4415H14.6317L12.9532 49.228C12.8722 49.33 12.7852 49.4095 12.6922 49.4665C12.7462 49.5025 12.7942 49.5445 12.8362 49.5925C12.8812 49.6375 12.9232 49.69 12.9622 49.75L14.7442 52H14.0287C13.9597 52 13.8997 51.9895 13.8487 51.9685C13.8007 51.9445 13.7587 51.9025 13.7227 51.8425L12.2242 49.975C12.1792 49.912 12.1342 49.8715 12.0892 49.8535C12.0472 49.8325 11.9812 49.822 11.8912 49.822H11.6617V52H10.8562V45.3715H11.6617ZM18.2226 49.2235C18.2226 49.0375 18.1956 48.868 18.1416 48.715C18.0906 48.559 18.0141 48.4255 17.9121 48.3145C17.8131 48.2005 17.6916 48.1135 17.5476 48.0535C17.4036 47.9905 17.2401 47.959 17.0571 47.959C16.6731 47.959 16.3686 48.0715 16.1436 48.2965C15.9216 48.5185 15.7836 48.8275 15.7296 49.2235H18.2226ZM18.8706 51.361C18.7716 51.481 18.6531 51.586 18.5151 51.676C18.3771 51.763 18.2286 51.835 18.0696 51.892C17.9136 51.949 17.7516 51.991 17.5836 52.018C17.4156 52.048 17.2491 52.063 17.0841 52.063C16.7691 52.063 16.4781 52.0105 16.2111 51.9055C15.9471 51.7975 15.7176 51.6415 15.5226 51.4375C15.3306 51.2305 15.1806 50.9755 15.0726 50.6725C14.9646 50.3695 14.9106 50.0215 14.9106 49.6285C14.9106 49.3105 14.9586 49.0135 15.0546 48.7375C15.1536 48.4615 15.2946 48.223 15.4776 48.022C15.6606 47.818 15.8841 47.659 16.1481 47.545C16.4121 47.428 16.7091 47.3695 17.0391 47.3695C17.3121 47.3695 17.5641 47.416 17.7951 47.509C18.0291 47.599 18.2301 47.731 18.3981 47.905C18.5691 48.076 18.7026 48.289 18.7986 48.544C18.8946 48.796 18.9426 49.084 18.9426 49.408C18.9426 49.534 18.9291 49.618 18.9021 49.66C18.8751 49.702 18.8241 49.723 18.7491 49.723H15.7026C15.7116 50.011 15.7506 50.2615 15.8196 50.4745C15.8916 50.6875 15.9906 50.866 16.1166 51.01C16.2426 51.151 16.3926 51.2575 16.5666 51.3295C16.7406 51.3985 16.9356 51.433 17.1516 51.433C17.3526 51.433 17.5251 51.4105 17.6691 51.3655C17.8161 51.3175 17.9421 51.2665 18.0471 51.2125C18.1521 51.1585 18.2391 51.109 18.3081 51.064C18.3801 51.016 18.4416 50.992 18.4926 50.992C18.5586 50.992 18.6096 51.0175 18.6456 51.0685L18.8706 51.361ZM23.7452 47.4415L21.2027 53.3455C21.1757 53.4055 21.1412 53.4535 21.0992 53.4895C21.0602 53.5255 20.9987 53.5435 20.9147 53.5435H20.3207L21.1532 51.7345L19.2722 47.4415H19.9652C20.0342 47.4415 20.0882 47.4595 20.1272 47.4955C20.1692 47.5285 20.1977 47.566 20.2127 47.608L21.4322 50.479C21.4802 50.605 21.5207 50.737 21.5537 50.875C21.5957 50.734 21.6407 50.6005 21.6887 50.4745L22.8722 47.608C22.8902 47.56 22.9202 47.521 22.9622 47.491C23.0072 47.458 23.0567 47.4415 23.1107 47.4415H23.7452ZM24.4934 49.417H28.3634V50.0245H24.4934V49.417ZM24.4934 47.9095H28.3634V48.517H24.4934V47.9095ZM29.8041 47.725C29.6781 47.512 29.5926 47.2885 29.5476 47.0545C29.5026 46.8175 29.4981 46.5835 29.5341 46.3525C29.5701 46.1215 29.6451 45.901 29.7591 45.691C29.8731 45.478 30.0246 45.2875 30.2136 45.1195L30.4566 45.2725C30.5016 45.3025 30.5211 45.34 30.5151 45.385C30.5121 45.427 30.4986 45.46 30.4746 45.484C30.3966 45.58 30.3291 45.697 30.2721 45.835C30.2181 45.973 30.1836 46.1215 30.1686 46.2805C30.1536 46.4365 30.1611 46.5985 30.1911 46.7665C30.2211 46.9345 30.2826 47.0965 30.3756 47.2525C30.4146 47.3155 30.4251 47.3725 30.4071 47.4235C30.3921 47.4715 30.3561 47.5075 30.2991 47.5315L29.8041 47.725ZM31.1721 47.725C31.0461 47.512 30.9606 47.2885 30.9156 47.0545C30.8706 46.8175 30.8661 46.5835 30.9021 46.3525C30.9381 46.1215 31.0131 45.901 31.1271 45.691C31.2411 45.478 31.3926 45.2875 31.5816 45.1195L31.8246 45.2725C31.8696 45.3025 31.8891 45.34 31.8831 45.385C31.8801 45.427 31.8666 45.46 31.8426 45.484C31.7646 45.58 31.6971 45.697 31.6401 45.835C31.5861 45.973 31.5516 46.1215 31.5366 46.2805C31.5216 46.4365 31.5291 46.5985 31.5591 46.7665C31.5891 46.9345 31.6506 47.0965 31.7436 47.2525C31.7826 47.3155 31.7931 47.3725 31.7751 47.4235C31.7601 47.4715 31.7241 47.5075 31.6671 47.5315L31.1721 47.725ZM33.8067 47.4415V52.3375C33.8067 52.5205 33.7827 52.69 33.7347 52.846C33.6867 53.005 33.6102 53.143 33.5052 53.26C33.4002 53.377 33.2652 53.4685 33.1002 53.5345C32.9382 53.6035 32.7432 53.638 32.5152 53.638C32.4192 53.638 32.3307 53.6305 32.2497 53.6155C32.1687 53.6005 32.0877 53.578 32.0067 53.548L32.0382 53.116C32.0442 53.089 32.0547 53.068 32.0697 53.053C32.0817 53.041 32.0997 53.0335 32.1237 53.0305C32.1477 53.0275 32.1792 53.026 32.2182 53.026C32.2542 53.029 32.3007 53.0305 32.3577 53.0305C32.5917 53.0305 32.7582 52.975 32.8572 52.864C32.9562 52.756 33.0057 52.5805 33.0057 52.3375V47.4415H33.8067ZM33.9732 46.0105C33.9732 46.0885 33.9567 46.162 33.9237 46.231C33.8937 46.297 33.8517 46.357 33.7977 46.411C33.7467 46.462 33.6867 46.5025 33.6177 46.5325C33.5487 46.5625 33.4752 46.5775 33.3972 46.5775C33.3192 46.5775 33.2457 46.5625 33.1767 46.5325C33.1107 46.5025 33.0522 46.462 33.0012 46.411C32.9502 46.357 32.9097 46.297 32.8797 46.231C32.8497 46.162 32.8347 46.0885 32.8347 46.0105C32.8347 45.9325 32.8497 45.859 32.8797 45.79C32.9097 45.718 32.9502 45.6565 33.0012 45.6055C33.0522 45.5515 33.1107 45.5095 33.1767 45.4795C33.2457 45.4495 33.3192 45.4345 33.3972 45.4345C33.4752 45.4345 33.5487 45.4495 33.6177 45.4795C33.6867 45.5095 33.7467 45.5515 33.7977 45.6055C33.8517 45.6565 33.8937 45.718 33.9237 45.79C33.9567 45.859 33.9732 45.9325 33.9732 46.0105ZM37.0443 47.3695C37.3773 47.3695 37.6773 47.425 37.9443 47.536C38.2113 47.647 38.4393 47.8045 38.6283 48.0085C38.8173 48.2125 38.9613 48.46 39.0603 48.751C39.1623 49.039 39.2133 49.3615 39.2133 49.7185C39.2133 50.0785 39.1623 50.4025 39.0603 50.6905C38.9613 50.9785 38.8173 51.2245 38.6283 51.4285C38.4393 51.6325 38.2113 51.79 37.9443 51.901C37.6773 52.009 37.3773 52.063 37.0443 52.063C36.7083 52.063 36.4053 52.009 36.1353 51.901C35.8683 51.79 35.6403 51.6325 35.4513 51.4285C35.2623 51.2245 35.1168 50.9785 35.0148 50.6905C34.9158 50.4025 34.8663 50.0785 34.8663 49.7185C34.8663 49.3615 34.9158 49.039 35.0148 48.751C35.1168 48.46 35.2623 48.2125 35.4513 48.0085C35.6403 47.8045 35.8683 47.647 36.1353 47.536C36.4053 47.425 36.7083 47.3695 37.0443 47.3695ZM37.0443 51.4375C37.4943 51.4375 37.8303 51.2875 38.0523 50.9875C38.2743 50.6845 38.3853 50.263 38.3853 49.723C38.3853 49.18 38.2743 48.757 38.0523 48.454C37.8303 48.151 37.4943 47.9995 37.0443 47.9995C36.8163 47.9995 36.6168 48.0385 36.4458 48.1165C36.2778 48.1945 36.1368 48.307 36.0228 48.454C35.9118 48.601 35.8278 48.7825 35.7708 48.9985C35.7168 49.2115 35.6898 49.453 35.6898 49.723C35.6898 50.263 35.8008 50.6845 36.0228 50.9875C36.2478 51.2875 36.5883 51.4375 37.0443 51.4375ZM41.0347 48.049C41.2297 47.842 41.4457 47.677 41.6827 47.554C41.9197 47.431 42.1927 47.3695 42.5017 47.3695C42.7507 47.3695 42.9697 47.4115 43.1587 47.4955C43.3507 47.5765 43.5097 47.6935 43.6357 47.8465C43.7647 47.9965 43.8622 48.178 43.9282 48.391C43.9942 48.604 44.0272 48.8395 44.0272 49.0975V52H43.2217V49.0975C43.2217 48.7525 43.1422 48.4855 42.9832 48.2965C42.8272 48.1045 42.5887 48.0085 42.2677 48.0085C42.0307 48.0085 41.8087 48.0655 41.6017 48.1795C41.3977 48.2935 41.2087 48.448 41.0347 48.643V52H40.2292V45.3715H41.0347V48.049ZM46.0038 48.103C46.1028 47.992 46.2078 47.8915 46.3188 47.8015C46.4298 47.7115 46.5468 47.635 46.6698 47.572C46.7958 47.506 46.9278 47.4565 47.0658 47.4235C47.2068 47.3875 47.3583 47.3695 47.5203 47.3695C47.7693 47.3695 47.9883 47.4115 48.1773 47.4955C48.3693 47.5765 48.5283 47.6935 48.6543 47.8465C48.7833 47.9965 48.8808 48.178 48.9468 48.391C49.0128 48.604 49.0458 48.8395 49.0458 49.0975V52H48.2403V49.0975C48.2403 48.7525 48.1608 48.4855 48.0018 48.2965C47.8458 48.1045 47.6073 48.0085 47.2863 48.0085C47.0493 48.0085 46.8273 48.0655 46.6203 48.1795C46.4163 48.2935 46.2273 48.448 46.0533 48.643V52H45.2478V47.4415H45.7293C45.8433 47.4415 45.9138 47.497 45.9408 47.608L46.0038 48.103ZM50.6792 45.1195C50.8052 45.3325 50.8907 45.5575 50.9357 45.7945C50.9807 46.0315 50.9852 46.2655 50.9492 46.4965C50.9132 46.7275 50.8382 46.9495 50.7242 47.1625C50.6102 47.3755 50.4587 47.5645 50.2697 47.7295L50.0267 47.572C49.9817 47.545 49.9607 47.5105 49.9637 47.4685C49.9697 47.4235 49.9847 47.3875 50.0087 47.3605C50.0867 47.2645 50.1527 47.149 50.2067 47.014C50.2637 46.876 50.2997 46.729 50.3147 46.573C50.3327 46.414 50.3252 46.2505 50.2922 46.0825C50.2622 45.9145 50.2007 45.7525 50.1077 45.5965C50.0687 45.5335 50.0567 45.478 50.0717 45.43C50.0897 45.379 50.1272 45.3415 50.1842 45.3175L50.6792 45.1195ZM52.0472 45.1195C52.1732 45.3325 52.2587 45.5575 52.3037 45.7945C52.3487 46.0315 52.3532 46.2655 52.3172 46.4965C52.2812 46.7275 52.2062 46.9495 52.0922 47.1625C51.9782 47.3755 51.8267 47.5645 51.6377 47.7295L51.3947 47.572C51.3497 47.545 51.3287 47.5105 51.3317 47.4685C51.3377 47.4235 51.3527 47.3875 51.3767 47.3605C51.4547 47.2645 51.5207 47.149 51.5747 47.014C51.6317 46.876 51.6677 46.729 51.6827 46.573C51.7007 46.414 51.6932 46.2505 51.6602 46.0825C51.6302 45.9145 51.5687 45.7525 51.4757 45.5965C51.4367 45.5335 51.4247 45.478 51.4397 45.43C51.4577 45.379 51.4952 45.3415 51.5522 45.3175L52.0472 45.1195Z" fill="black"/>
<path id="val=&#226;&#128;&#156;blue&#226;&#128;&#157;" d="M14.1816 58.4415L12.3231 63H11.6031L9.74461 58.4415H10.3971C10.4631 58.4415 10.5171 58.458 10.5591 58.491C10.6011 58.524 10.6296 58.563 10.6446 58.608L11.8011 61.542C11.8371 61.653 11.8686 61.761 11.8956 61.866C11.9226 61.971 11.9481 62.076 11.9721 62.181C11.9961 62.076 12.0216 61.971 12.0486 61.866C12.0756 61.761 12.1086 61.653 12.1476 61.542L13.3176 58.608C13.3356 58.56 13.3656 58.521 13.4076 58.491C13.4496 58.458 13.4991 58.4415 13.5561 58.4415H14.1816ZM17.2901 60.948C16.9211 60.96 16.6061 60.99 16.3451 61.038C16.0871 61.083 15.8756 61.143 15.7106 61.218C15.5486 61.293 15.4301 61.3815 15.3551 61.4835C15.2831 61.5855 15.2471 61.6995 15.2471 61.8255C15.2471 61.9455 15.2666 62.049 15.3056 62.136C15.3446 62.223 15.3971 62.295 15.4631 62.352C15.5321 62.406 15.6116 62.4465 15.7016 62.4735C15.7946 62.4975 15.8936 62.5095 15.9986 62.5095C16.1396 62.5095 16.2686 62.496 16.3856 62.469C16.5026 62.439 16.6121 62.397 16.7141 62.343C16.8191 62.289 16.9181 62.2245 17.0111 62.1495C17.1071 62.0745 17.2001 61.989 17.2901 61.893V60.948ZM14.7026 59.085C14.9546 58.842 15.2261 58.6605 15.5171 58.5405C15.8081 58.4205 16.1306 58.3605 16.4846 58.3605C16.7396 58.3605 16.9661 58.4025 17.1641 58.4865C17.3621 58.5705 17.5286 58.6875 17.6636 58.8375C17.7986 58.9875 17.9006 59.169 17.9696 59.382C18.0386 59.595 18.0731 59.829 18.0731 60.084V63H17.7176C17.6396 63 17.5796 62.988 17.5376 62.964C17.4956 62.937 17.4626 62.886 17.4386 62.811L17.3486 62.379C17.2286 62.49 17.1116 62.589 16.9976 62.676C16.8836 62.76 16.7636 62.832 16.6376 62.892C16.5116 62.949 16.3766 62.9925 16.2326 63.0225C16.0916 63.0555 15.9341 63.072 15.7601 63.072C15.5831 63.072 15.4166 63.048 15.2606 63C15.1046 62.949 14.9681 62.874 14.8511 62.775C14.7371 62.676 14.6456 62.5515 14.5766 62.4015C14.5106 62.2485 14.4776 62.0685 14.4776 61.8615C14.4776 61.6815 14.5271 61.509 14.6261 61.344C14.7251 61.176 14.8856 61.0275 15.1076 60.8985C15.3296 60.7695 15.6191 60.6645 15.9761 60.5835C16.3331 60.4995 16.7711 60.4515 17.2901 60.4395V60.084C17.2901 59.73 17.2136 59.463 17.0606 59.283C16.9076 59.1 16.6841 59.0085 16.3901 59.0085C16.1921 59.0085 16.0256 59.034 15.8906 59.085C15.7586 59.133 15.6431 59.1885 15.5441 59.2515C15.4481 59.3115 15.3641 59.367 15.2921 59.418C15.2231 59.466 15.1541 59.49 15.0851 59.49C15.0311 59.49 14.9846 59.4765 14.9456 59.4495C14.9066 59.4195 14.8736 59.3835 14.8466 59.3415L14.7026 59.085ZM20.1212 56.3715V63H19.3202V56.3715H20.1212ZM21.4606 60.417H25.3306V61.0245H21.4606V60.417ZM21.4606 58.9095H25.3306V59.517H21.4606V58.9095ZM26.7713 58.725C26.6453 58.512 26.5598 58.2885 26.5148 58.0545C26.4698 57.8175 26.4653 57.5835 26.5013 57.3525C26.5373 57.1215 26.6123 56.901 26.7263 56.691C26.8403 56.478 26.9918 56.2875 27.1808 56.1195L27.4238 56.2725C27.4688 56.3025 27.4883 56.34 27.4823 56.385C27.4793 56.427 27.4658 56.46 27.4418 56.484C27.3638 56.58 27.2963 56.697 27.2393 56.835C27.1853 56.973 27.1508 57.1215 27.1358 57.2805C27.1208 57.4365 27.1283 57.5985 27.1583 57.7665C27.1883 57.9345 27.2498 58.0965 27.3428 58.2525C27.3818 58.3155 27.3923 58.3725 27.3743 58.4235C27.3593 58.4715 27.3233 58.5075 27.2663 58.5315L26.7713 58.725ZM28.1393 58.725C28.0133 58.512 27.9278 58.2885 27.8828 58.0545C27.8378 57.8175 27.8333 57.5835 27.8693 57.3525C27.9053 57.1215 27.9803 56.901 28.0943 56.691C28.2083 56.478 28.3598 56.2875 28.5488 56.1195L28.7918 56.2725C28.8368 56.3025 28.8563 56.34 28.8503 56.385C28.8473 56.427 28.8338 56.46 28.8098 56.484C28.7318 56.58 28.6643 56.697 28.6073 56.835C28.5533 56.973 28.5188 57.1215 28.5038 57.2805C28.4888 57.4365 28.4963 57.5985 28.5263 57.7665C28.5563 57.9345 28.6178 58.0965 28.7108 58.2525C28.7498 58.3155 28.7603 58.3725 28.7423 58.4235C28.7273 58.4715 28.6913 58.5075 28.6343 58.5315L28.1393 58.725ZM30.7335 61.902C30.8805 62.1 31.041 62.2395 31.215 62.3205C31.392 62.4015 31.5855 62.442 31.7955 62.442C32.2245 62.442 32.553 62.2905 32.781 61.9875C33.009 61.6845 33.123 61.233 33.123 60.633C33.123 60.075 33.021 59.6655 32.817 59.4045C32.616 59.1405 32.328 59.0085 31.953 59.0085C31.692 59.0085 31.464 59.0685 31.269 59.1885C31.077 59.3085 30.8985 59.478 30.7335 59.697V61.902ZM30.7335 59.0985C30.9255 58.8765 31.1415 58.6995 31.3815 58.5675C31.6245 58.4355 31.9035 58.3695 32.2185 58.3695C32.4855 58.3695 32.7255 58.4205 32.9385 58.5225C33.1545 58.6245 33.3375 58.773 33.4875 58.968C33.6375 59.16 33.7515 59.394 33.8295 59.67C33.9105 59.946 33.951 60.2565 33.951 60.6015C33.951 60.9705 33.906 61.3065 33.816 61.6095C33.726 61.9125 33.5955 62.172 33.4245 62.388C33.2565 62.601 33.051 62.7675 32.808 62.8875C32.565 63.0045 32.292 63.063 31.989 63.063C31.689 63.063 31.4355 63.0075 31.2285 62.8965C31.0245 62.7825 30.846 62.622 30.693 62.415L30.6525 62.829C30.6285 62.943 30.5595 63 30.4455 63H29.928V56.3715H30.7335V59.0985ZM35.7921 56.3715V63H34.9911V56.3715H35.7921ZM40.8395 58.4415V63H40.3625C40.2485 63 40.1765 62.9445 40.1465 62.8335L40.0835 62.343C39.8855 62.562 39.6635 62.739 39.4175 62.874C39.1715 63.006 38.8895 63.072 38.5715 63.072C38.3225 63.072 38.102 63.0315 37.91 62.9505C37.721 62.8665 37.562 62.7495 37.433 62.5995C37.304 62.4495 37.2065 62.268 37.1405 62.055C37.0775 61.842 37.046 61.6065 37.046 61.3485V58.4415H37.847V61.3485C37.847 61.6935 37.925 61.9605 38.081 62.1495C38.24 62.3385 38.4815 62.433 38.8055 62.433C39.0425 62.433 39.263 62.3775 39.467 62.2665C39.674 62.1525 39.8645 61.9965 40.0385 61.7985V58.4415H40.8395ZM45.1606 60.2235C45.1606 60.0375 45.1336 59.868 45.0796 59.715C45.0286 59.559 44.9521 59.4255 44.8501 59.3145C44.7511 59.2005 44.6296 59.1135 44.4856 59.0535C44.3416 58.9905 44.1781 58.959 43.9951 58.959C43.6111 58.959 43.3066 59.0715 43.0816 59.2965C42.8596 59.5185 42.7216 59.8275 42.6676 60.2235H45.1606ZM45.8086 62.361C45.7096 62.481 45.5911 62.586 45.4531 62.676C45.3151 62.763 45.1666 62.835 45.0076 62.892C44.8516 62.949 44.6896 62.991 44.5216 63.018C44.3536 63.048 44.1871 63.063 44.0221 63.063C43.7071 63.063 43.4161 63.0105 43.1491 62.9055C42.8851 62.7975 42.6556 62.6415 42.4606 62.4375C42.2686 62.2305 42.1186 61.9755 42.0106 61.6725C41.9026 61.3695 41.8486 61.0215 41.8486 60.6285C41.8486 60.3105 41.8966 60.0135 41.9926 59.7375C42.0916 59.4615 42.2326 59.223 42.4156 59.022C42.5986 58.818 42.8221 58.659 43.0861 58.545C43.3501 58.428 43.6471 58.3695 43.9771 58.3695C44.2501 58.3695 44.5021 58.416 44.7331 58.509C44.9671 58.599 45.1681 58.731 45.3361 58.905C45.5071 59.076 45.6406 59.289 45.7366 59.544C45.8326 59.796 45.8806 60.084 45.8806 60.408C45.8806 60.534 45.8671 60.618 45.8401 60.66C45.8131 60.702 45.7621 60.723 45.6871 60.723H42.6406C42.6496 61.011 42.6886 61.2615 42.7576 61.4745C42.8296 61.6875 42.9286 61.866 43.0546 62.01C43.1806 62.151 43.3306 62.2575 43.5046 62.3295C43.6786 62.3985 43.8736 62.433 44.0896 62.433C44.2906 62.433 44.4631 62.4105 44.6071 62.3655C44.7541 62.3175 44.8801 62.2665 44.9851 62.2125C45.0901 62.1585 45.1771 62.109 45.2461 62.064C45.3181 62.016 45.3796 61.992 45.4306 61.992C45.4966 61.992 45.5476 62.0175 45.5836 62.0685L45.8086 62.361ZM47.2598 56.1195C47.3858 56.3325 47.4713 56.5575 47.5163 56.7945C47.5613 57.0315 47.5658 57.2655 47.5298 57.4965C47.4938 57.7275 47.4188 57.9495 47.3048 58.1625C47.1908 58.3755 47.0393 58.5645 46.8503 58.7295L46.6073 58.572C46.5623 58.545 46.5413 58.5105 46.5443 58.4685C46.5503 58.4235 46.5653 58.3875 46.5893 58.3605C46.6673 58.2645 46.7333 58.149 46.7873 58.014C46.8443 57.876 46.8803 57.729 46.8953 57.573C46.9133 57.414 46.9058 57.2505 46.8728 57.0825C46.8428 56.9145 46.7813 56.7525 46.6883 56.5965C46.6493 56.5335 46.6373 56.478 46.6523 56.43C46.6703 56.379 46.7078 56.3415 46.7648 56.3175L47.2598 56.1195ZM48.6278 56.1195C48.7538 56.3325 48.8393 56.5575 48.8843 56.7945C48.9293 57.0315 48.9338 57.2655 48.8978 57.4965C48.8618 57.7275 48.7868 57.9495 48.6728 58.1625C48.5588 58.3755 48.4073 58.5645 48.2183 58.7295L47.9753 58.572C47.9303 58.545 47.9093 58.5105 47.9123 58.4685C47.9183 58.4235 47.9333 58.3875 47.9573 58.3605C48.0353 58.2645 48.1013 58.149 48.1553 58.014C48.2123 57.876 48.2483 57.729 48.2633 57.573C48.2813 57.414 48.2738 57.2505 48.2408 57.0825C48.2108 56.9145 48.1493 56.7525 48.0563 56.5965C48.0173 56.5335 48.0053 56.478 48.0203 56.43C48.0383 56.379 48.0758 56.3415 48.1328 56.3175L48.6278 56.1195Z" fill="black"/>
</g>
</g>
<g id="pair_2">
<circle id="node-template_2" cx="131" cy="52" r="22.5" stroke="black"/>
</g>
<g id="pair_3">
<circle id="node-template_3" cx="182" cy="52" r="22.5" stroke="black"/>
<g id="params_2">
<path id="get-key-al-linear-probing" d="M169.032 44.3715V48.273H169.239C169.299 48.273 169.348 48.2655 169.387 48.2505C169.429 48.2325 169.473 48.198 169.518 48.147L170.958 46.6035C171 46.5525 171.043 46.5135 171.088 46.4865C171.136 46.4565 171.199 46.4415 171.277 46.4415H172.002L170.323 48.228C170.242 48.33 170.155 48.4095 170.062 48.4665C170.116 48.5025 170.164 48.5445 170.206 48.5925C170.251 48.6375 170.293 48.69 170.332 48.75L172.114 51H171.399C171.33 51 171.27 50.9895 171.219 50.9685C171.171 50.9445 171.129 50.9025 171.093 50.8425L169.594 48.975C169.549 48.912 169.504 48.8715 169.459 48.8535C169.417 48.8325 169.351 48.822 169.261 48.822H169.032V51H168.226V44.3715H169.032ZM175.593 48.2235C175.593 48.0375 175.566 47.868 175.512 47.715C175.461 47.559 175.384 47.4255 175.282 47.3145C175.183 47.2005 175.062 47.1135 174.918 47.0535C174.774 46.9905 174.61 46.959 174.427 46.959C174.043 46.959 173.739 47.0715 173.514 47.2965C173.292 47.5185 173.154 47.8275 173.1 48.2235H175.593ZM176.241 50.361C176.142 50.481 176.023 50.586 175.885 50.676C175.747 50.763 175.599 50.835 175.44 50.892C175.284 50.949 175.122 50.991 174.954 51.018C174.786 51.048 174.619 51.063 174.454 51.063C174.139 51.063 173.848 51.0105 173.581 50.9055C173.317 50.7975 173.088 50.6415 172.893 50.4375C172.701 50.2305 172.551 49.9755 172.443 49.6725C172.335 49.3695 172.281 49.0215 172.281 48.6285C172.281 48.3105 172.329 48.0135 172.425 47.7375C172.524 47.4615 172.665 47.223 172.848 47.022C173.031 46.818 173.254 46.659 173.518 46.545C173.782 46.428 174.079 46.3695 174.409 46.3695C174.682 46.3695 174.934 46.416 175.165 46.509C175.399 46.599 175.6 46.731 175.768 46.905C175.939 47.076 176.073 47.289 176.169 47.544C176.265 47.796 176.313 48.084 176.313 48.408C176.313 48.534 176.299 48.618 176.272 48.66C176.245 48.702 176.194 48.723 176.119 48.723H173.073C173.082 49.011 173.121 49.2615 173.19 49.4745C173.262 49.6875 173.361 49.866 173.487 50.01C173.613 50.151 173.763 50.2575 173.937 50.3295C174.111 50.3985 174.306 50.433 174.522 50.433C174.723 50.433 174.895 50.4105 175.039 50.3655C175.186 50.3175 175.312 50.2665 175.417 50.2125C175.522 50.1585 175.609 50.109 175.678 50.064C175.75 50.016 175.812 49.992 175.863 49.992C175.929 49.992 175.98 50.0175 176.016 50.0685L176.241 50.361ZM181.115 46.4415L178.573 52.3455C178.546 52.4055 178.511 52.4535 178.469 52.4895C178.43 52.5255 178.369 52.5435 178.285 52.5435H177.691L178.523 50.7345L176.642 46.4415H177.335C177.404 46.4415 177.458 46.4595 177.497 46.4955C177.539 46.5285 177.568 46.566 177.583 46.608L178.802 49.479C178.85 49.605 178.891 49.737 178.924 49.875C178.966 49.734 179.011 49.6005 179.059 49.4745L180.242 46.608C180.26 46.56 180.29 46.521 180.332 46.491C180.377 46.458 180.427 46.4415 180.481 46.4415H181.115ZM181.863 48.417H185.733V49.0245H181.863V48.417ZM181.863 46.9095H185.733V47.517H181.863V46.9095ZM187.174 46.725C187.048 46.512 186.963 46.2885 186.918 46.0545C186.873 45.8175 186.868 45.5835 186.904 45.3525C186.94 45.1215 187.015 44.901 187.129 44.691C187.243 44.478 187.395 44.2875 187.584 44.1195L187.827 44.2725C187.872 44.3025 187.891 44.34 187.885 44.385C187.882 44.427 187.869 44.46 187.845 44.484C187.767 44.58 187.699 44.697 187.642 44.835C187.588 44.973 187.554 45.1215 187.539 45.2805C187.524 45.4365 187.531 45.5985 187.561 45.7665C187.591 45.9345 187.653 46.0965 187.746 46.2525C187.785 46.3155 187.795 46.3725 187.777 46.4235C187.762 46.4715 187.726 46.5075 187.669 46.5315L187.174 46.725ZM188.542 46.725C188.416 46.512 188.331 46.2885 188.286 46.0545C188.241 45.8175 188.236 45.5835 188.272 45.3525C188.308 45.1215 188.383 44.901 188.497 44.691C188.611 44.478 188.763 44.2875 188.952 44.1195L189.195 44.2725C189.24 44.3025 189.259 44.34 189.253 44.385C189.25 44.427 189.237 44.46 189.213 44.484C189.135 44.58 189.067 44.697 189.01 44.835C188.956 44.973 188.922 45.1215 188.907 45.2805C188.892 45.4365 188.899 45.5985 188.929 45.7665C188.959 45.9345 189.021 46.0965 189.114 46.2525C189.153 46.3155 189.163 46.3725 189.145 46.4235C189.13 46.4715 189.094 46.5075 189.037 46.5315L188.542 46.725ZM192.626 48.948C192.257 48.96 191.942 48.99 191.681 49.038C191.423 49.083 191.211 49.143 191.046 49.218C190.884 49.293 190.766 49.3815 190.691 49.4835C190.619 49.5855 190.583 49.6995 190.583 49.8255C190.583 49.9455 190.602 50.049 190.641 50.136C190.68 50.223 190.733 50.295 190.799 50.352C190.868 50.406 190.947 50.4465 191.037 50.4735C191.13 50.4975 191.229 50.5095 191.334 50.5095C191.475 50.5095 191.604 50.496 191.721 50.469C191.838 50.439 191.948 50.397 192.05 50.343C192.155 50.289 192.254 50.2245 192.347 50.1495C192.443 50.0745 192.536 49.989 192.626 49.893V48.948ZM190.038 47.085C190.29 46.842 190.562 46.6605 190.853 46.5405C191.144 46.4205 191.466 46.3605 191.82 46.3605C192.075 46.3605 192.302 46.4025 192.5 46.4865C192.698 46.5705 192.864 46.6875 192.999 46.8375C193.134 46.9875 193.236 47.169 193.305 47.382C193.374 47.595 193.409 47.829 193.409 48.084V51H193.053C192.975 51 192.915 50.988 192.873 50.964C192.831 50.937 192.798 50.886 192.774 50.811L192.684 50.379C192.564 50.49 192.447 50.589 192.333 50.676C192.219 50.76 192.099 50.832 191.973 50.892C191.847 50.949 191.712 50.9925 191.568 51.0225C191.427 51.0555 191.27 51.072 191.096 51.072C190.919 51.072 190.752 51.048 190.596 51C190.44 50.949 190.304 50.874 190.187 50.775C190.073 50.676 189.981 50.5515 189.912 50.4015C189.846 50.2485 189.813 50.0685 189.813 49.8615C189.813 49.6815 189.863 49.509 189.962 49.344C190.061 49.176 190.221 49.0275 190.443 48.8985C190.665 48.7695 190.955 48.6645 191.312 48.5835C191.669 48.4995 192.107 48.4515 192.626 48.4395V48.084C192.626 47.73 192.549 47.463 192.396 47.283C192.243 47.1 192.02 47.0085 191.726 47.0085C191.528 47.0085 191.361 47.034 191.226 47.085C191.094 47.133 190.979 47.1885 190.88 47.2515C190.784 47.3115 190.7 47.367 190.628 47.418C190.559 47.466 190.49 47.49 190.421 47.49C190.367 47.49 190.32 47.4765 190.281 47.4495C190.242 47.4195 190.209 47.3835 190.182 47.3415L190.038 47.085ZM195.457 44.3715V51H194.656V44.3715H195.457ZM197.309 44.1195C197.435 44.3325 197.521 44.5575 197.566 44.7945C197.611 45.0315 197.615 45.2655 197.579 45.4965C197.543 45.7275 197.468 45.9495 197.354 46.1625C197.24 46.3755 197.089 46.5645 196.9 46.7295L196.657 46.572C196.612 46.545 196.591 46.5105 196.594 46.4685C196.6 46.4235 196.615 46.3875 196.639 46.3605C196.717 46.2645 196.783 46.149 196.837 46.014C196.894 45.876 196.93 45.729 196.945 45.573C196.963 45.414 196.955 45.2505 196.922 45.0825C196.892 44.9145 196.831 44.7525 196.738 44.5965C196.699 44.5335 196.687 44.478 196.702 44.43C196.72 44.379 196.757 44.3415 196.814 44.3175L197.309 44.1195ZM198.677 44.1195C198.803 44.3325 198.889 44.5575 198.934 44.7945C198.979 45.0315 198.983 45.2655 198.947 45.4965C198.911 45.7275 198.836 45.9495 198.722 46.1625C198.608 46.3755 198.457 46.5645 198.268 46.7295L198.025 46.572C197.98 46.545 197.959 46.5105 197.962 46.4685C197.968 46.4235 197.983 46.3875 198.007 46.3605C198.085 46.2645 198.151 46.149 198.205 46.014C198.262 45.876 198.298 45.729 198.313 45.573C198.331 45.414 198.323 45.2505 198.29 45.0825C198.26 44.9145 198.199 44.7525 198.106 44.5965C198.067 44.5335 198.055 44.478 198.07 44.43C198.088 44.379 198.125 44.3415 198.182 44.3175L198.677 44.1195Z" fill="black"/>
<path id="val=&#226;&#128;&#156;gold&#226;&#128;&#157;" d="M166.221 57.4415L164.363 62H163.643L161.784 57.4415H162.437C162.503 57.4415 162.557 57.458 162.599 57.491C162.641 57.524 162.669 57.563 162.684 57.608L163.841 60.542C163.877 60.653 163.908 60.761 163.935 60.866C163.962 60.971 163.988 61.076 164.012 61.181C164.036 61.076 164.061 60.971 164.088 60.866C164.115 60.761 164.148 60.653 164.187 60.542L165.357 57.608C165.375 57.56 165.405 57.521 165.447 57.491C165.489 57.458 165.539 57.4415 165.596 57.4415H166.221ZM169.33 59.948C168.961 59.96 168.646 59.99 168.385 60.038C168.127 60.083 167.915 60.143 167.75 60.218C167.588 60.293 167.47 60.3815 167.395 60.4835C167.323 60.5855 167.287 60.6995 167.287 60.8255C167.287 60.9455 167.306 61.049 167.345 61.136C167.384 61.223 167.437 61.295 167.503 61.352C167.572 61.406 167.651 61.4465 167.741 61.4735C167.834 61.4975 167.933 61.5095 168.038 61.5095C168.179 61.5095 168.308 61.496 168.425 61.469C168.542 61.439 168.652 61.397 168.754 61.343C168.859 61.289 168.958 61.2245 169.051 61.1495C169.147 61.0745 169.24 60.989 169.33 60.893V59.948ZM166.742 58.085C166.994 57.842 167.266 57.6605 167.557 57.5405C167.848 57.4205 168.17 57.3605 168.524 57.3605C168.779 57.3605 169.006 57.4025 169.204 57.4865C169.402 57.5705 169.568 57.6875 169.703 57.8375C169.838 57.9875 169.94 58.169 170.009 58.382C170.078 58.595 170.113 58.829 170.113 59.084V62H169.757C169.679 62 169.619 61.988 169.577 61.964C169.535 61.937 169.502 61.886 169.478 61.811L169.388 61.379C169.268 61.49 169.151 61.589 169.037 61.676C168.923 61.76 168.803 61.832 168.677 61.892C168.551 61.949 168.416 61.9925 168.272 62.0225C168.131 62.0555 167.974 62.072 167.8 62.072C167.623 62.072 167.456 62.048 167.3 62C167.144 61.949 167.008 61.874 166.891 61.775C166.777 61.676 166.685 61.5515 166.616 61.4015C166.55 61.2485 166.517 61.0685 166.517 60.8615C166.517 60.6815 166.567 60.509 166.666 60.344C166.765 60.176 166.925 60.0275 167.147 59.8985C167.369 59.7695 167.659 59.6645 168.016 59.5835C168.373 59.4995 168.811 59.4515 169.33 59.4395V59.084C169.33 58.73 169.253 58.463 169.1 58.283C168.947 58.1 168.724 58.0085 168.43 58.0085C168.232 58.0085 168.065 58.034 167.93 58.085C167.798 58.133 167.683 58.1885 167.584 58.2515C167.488 58.3115 167.404 58.367 167.332 58.418C167.263 58.466 167.194 58.49 167.125 58.49C167.071 58.49 167.024 58.4765 166.985 58.4495C166.946 58.4195 166.913 58.3835 166.886 58.3415L166.742 58.085ZM172.161 55.3715V62H171.36V55.3715H172.161ZM173.5 59.417H177.37V60.0245H173.5V59.417ZM173.5 57.9095H177.37V58.517H173.5V57.9095ZM178.811 57.725C178.685 57.512 178.599 57.2885 178.554 57.0545C178.509 56.8175 178.505 56.5835 178.541 56.3525C178.577 56.1215 178.652 55.901 178.766 55.691C178.88 55.478 179.031 55.2875 179.22 55.1195L179.463 55.2725C179.508 55.3025 179.528 55.34 179.522 55.385C179.519 55.427 179.505 55.46 179.481 55.484C179.403 55.58 179.336 55.697 179.279 55.835C179.225 55.973 179.19 56.1215 179.175 56.2805C179.16 56.4365 179.168 56.5985 179.198 56.7665C179.228 56.9345 179.289 57.0965 179.382 57.2525C179.421 57.3155 179.432 57.3725 179.414 57.4235C179.399 57.4715 179.363 57.5075 179.306 57.5315L178.811 57.725ZM180.179 57.725C180.053 57.512 179.967 57.2885 179.922 57.0545C179.877 56.8175 179.873 56.5835 179.909 56.3525C179.945 56.1215 180.02 55.901 180.134 55.691C180.248 55.478 180.399 55.2875 180.588 55.1195L180.831 55.2725C180.876 55.3025 180.896 55.34 180.89 55.385C180.887 55.427 180.873 55.46 180.849 55.484C180.771 55.58 180.704 55.697 180.647 55.835C180.593 55.973 180.558 56.1215 180.543 56.2805C180.528 56.4365 180.536 56.5985 180.566 56.7665C180.596 56.9345 180.657 57.0965 180.75 57.2525C180.789 57.3155 180.8 57.3725 180.782 57.4235C180.767 57.4715 180.731 57.5075 180.674 57.5315L180.179 57.725ZM183.38 59.7725C183.542 59.7725 183.685 59.75 183.808 59.705C183.931 59.66 184.034 59.597 184.118 59.516C184.202 59.435 184.265 59.339 184.307 59.228C184.349 59.114 184.37 58.9895 184.37 58.8545C184.37 58.5755 184.285 58.3535 184.114 58.1885C183.946 58.0235 183.701 57.941 183.38 57.941C183.056 57.941 182.809 58.0235 182.638 58.1885C182.47 58.3535 182.386 58.5755 182.386 58.8545C182.386 58.9895 182.407 59.114 182.449 59.228C182.494 59.339 182.558 59.435 182.642 59.516C182.726 59.597 182.83 59.66 182.953 59.705C183.076 59.75 183.218 59.7725 183.38 59.7725ZM184.825 62.2475C184.825 62.1365 184.793 62.0465 184.73 61.9775C184.667 61.9085 184.582 61.8545 184.474 61.8155C184.369 61.7765 184.246 61.7495 184.105 61.7345C183.964 61.7165 183.814 61.703 183.655 61.694C183.499 61.685 183.34 61.676 183.178 61.667C183.016 61.658 182.86 61.643 182.71 61.622C182.542 61.7 182.404 61.799 182.296 61.919C182.191 62.036 182.138 62.174 182.138 62.333C182.138 62.435 182.164 62.5295 182.215 62.6165C182.269 62.7065 182.35 62.783 182.458 62.846C182.566 62.912 182.701 62.963 182.863 62.999C183.028 63.038 183.221 63.0575 183.443 63.0575C183.659 63.0575 183.853 63.038 184.024 62.999C184.195 62.96 184.339 62.9045 184.456 62.8325C184.576 62.7605 184.667 62.675 184.73 62.576C184.793 62.477 184.825 62.3675 184.825 62.2475ZM185.639 57.6215V57.9185C185.639 58.0175 185.576 58.0805 185.45 58.1075L184.933 58.175C185.035 58.373 185.086 58.592 185.086 58.832C185.086 59.054 185.042 59.2565 184.955 59.4395C184.871 59.6195 184.754 59.774 184.604 59.903C184.454 60.032 184.274 60.131 184.064 60.2C183.854 60.269 183.626 60.3035 183.38 60.3035C183.167 60.3035 182.966 60.278 182.777 60.227C182.681 60.287 182.608 60.3515 182.557 60.4205C182.506 60.4865 182.48 60.554 182.48 60.623C182.48 60.731 182.524 60.8135 182.611 60.8705C182.701 60.9245 182.818 60.9635 182.962 60.9875C183.106 61.0115 183.269 61.0265 183.452 61.0325C183.638 61.0385 183.827 61.049 184.019 61.064C184.214 61.076 184.403 61.0985 184.586 61.1315C184.772 61.1645 184.937 61.2185 185.081 61.2935C185.225 61.3685 185.341 61.472 185.428 61.604C185.518 61.736 185.563 61.907 185.563 62.117C185.563 62.312 185.513 62.501 185.414 62.684C185.318 62.867 185.179 63.029 184.996 63.17C184.813 63.314 184.588 63.428 184.321 63.512C184.057 63.599 183.758 63.6425 183.425 63.6425C183.092 63.6425 182.801 63.6095 182.552 63.5435C182.303 63.4775 182.096 63.389 181.931 63.278C181.766 63.167 181.642 63.038 181.558 62.891C181.477 62.747 181.436 62.5955 181.436 62.4365C181.436 62.2115 181.507 62.021 181.648 61.865C181.789 61.709 181.982 61.5845 182.228 61.4915C182.093 61.4315 181.985 61.352 181.904 61.253C181.826 61.151 181.787 61.0145 181.787 60.8435C181.787 60.7775 181.799 60.71 181.823 60.641C181.847 60.569 181.883 60.4985 181.931 60.4295C181.982 60.3575 182.044 60.29 182.116 60.227C182.188 60.164 182.272 60.1085 182.368 60.0605C182.143 59.9345 181.967 59.768 181.841 59.561C181.715 59.351 181.652 59.108 181.652 58.832C181.652 58.61 181.694 58.409 181.778 58.229C181.865 58.046 181.985 57.8915 182.138 57.7655C182.291 57.6365 182.473 57.5375 182.683 57.4685C182.896 57.3995 183.128 57.365 183.38 57.365C183.578 57.365 183.763 57.3875 183.934 57.4325C184.105 57.4745 184.261 57.5375 184.402 57.6215H185.639ZM188.319 57.3695C188.652 57.3695 188.952 57.425 189.219 57.536C189.486 57.647 189.714 57.8045 189.903 58.0085C190.092 58.2125 190.236 58.46 190.335 58.751C190.437 59.039 190.488 59.3615 190.488 59.7185C190.488 60.0785 190.437 60.4025 190.335 60.6905C190.236 60.9785 190.092 61.2245 189.903 61.4285C189.714 61.6325 189.486 61.79 189.219 61.901C188.952 62.009 188.652 62.063 188.319 62.063C187.983 62.063 187.68 62.009 187.41 61.901C187.143 61.79 186.915 61.6325 186.726 61.4285C186.537 61.2245 186.391 60.9785 186.289 60.6905C186.19 60.4025 186.141 60.0785 186.141 59.7185C186.141 59.3615 186.19 59.039 186.289 58.751C186.391 58.46 186.537 58.2125 186.726 58.0085C186.915 57.8045 187.143 57.647 187.41 57.536C187.68 57.425 187.983 57.3695 188.319 57.3695ZM188.319 61.4375C188.769 61.4375 189.105 61.2875 189.327 60.9875C189.549 60.6845 189.66 60.263 189.66 59.723C189.66 59.18 189.549 58.757 189.327 58.454C189.105 58.151 188.769 57.9995 188.319 57.9995C188.091 57.9995 187.891 58.0385 187.72 58.1165C187.552 58.1945 187.411 58.307 187.297 58.454C187.186 58.601 187.102 58.7825 187.045 58.9985C186.991 59.2115 186.964 59.453 186.964 59.723C186.964 60.263 187.075 60.6845 187.297 60.9875C187.522 61.2875 187.863 61.4375 188.319 61.4375ZM192.332 55.3715V62H191.531V55.3715H192.332ZM196.601 58.526C196.451 58.325 196.289 58.1855 196.115 58.1075C195.941 58.0265 195.746 57.986 195.53 57.986C195.107 57.986 194.781 58.1375 194.553 58.4405C194.325 58.7435 194.211 59.1755 194.211 59.7365C194.211 60.0335 194.237 60.2885 194.288 60.5015C194.339 60.7115 194.414 60.8855 194.513 61.0235C194.612 61.1585 194.733 61.2575 194.877 61.3205C195.021 61.3835 195.185 61.415 195.368 61.415C195.632 61.415 195.861 61.355 196.056 61.235C196.254 61.115 196.436 60.9455 196.601 60.7265V58.526ZM197.402 55.3715V62H196.925C196.811 62 196.739 61.9445 196.709 61.8335L196.637 61.28C196.442 61.514 196.22 61.703 195.971 61.847C195.722 61.991 195.434 62.063 195.107 62.063C194.846 62.063 194.609 62.0135 194.396 61.9145C194.183 61.8125 194.001 61.664 193.851 61.469C193.701 61.274 193.586 61.031 193.505 60.74C193.424 60.449 193.383 60.1145 193.383 59.7365C193.383 59.4005 193.428 59.0885 193.518 58.8005C193.608 58.5095 193.737 58.2575 193.905 58.0445C194.073 57.8315 194.279 57.665 194.522 57.545C194.768 57.422 195.044 57.3605 195.35 57.3605C195.629 57.3605 195.867 57.4085 196.065 57.5045C196.266 57.5975 196.445 57.728 196.601 57.896V55.3715H197.402ZM199.22 55.1195C199.346 55.3325 199.432 55.5575 199.477 55.7945C199.522 56.0315 199.526 56.2655 199.49 56.4965C199.454 56.7275 199.379 56.9495 199.265 57.1625C199.151 57.3755 199 57.5645 198.811 57.7295L198.568 57.572C198.523 57.545 198.502 57.5105 198.505 57.4685C198.511 57.4235 198.526 57.3875 198.55 57.3605C198.628 57.2645 198.694 57.149 198.748 57.014C198.805 56.876 198.841 56.729 198.856 56.573C198.874 56.414 198.866 56.2505 198.833 56.0825C198.803 55.9145 198.742 55.7525 198.649 55.5965C198.61 55.5335 198.598 55.478 198.613 55.43C198.631 55.379 198.668 55.3415 198.725 55.3175L199.22 55.1195ZM200.588 55.1195C200.714 55.3325 200.8 55.5575 200.845 55.7945C200.89 56.0315 200.894 56.2655 200.858 56.4965C200.822 56.7275 200.747 56.9495 200.633 57.1625C200.519 57.3755 200.368 57.5645 200.179 57.7295L199.936 57.572C199.891 57.545 199.87 57.5105 199.873 57.4685C199.879 57.4235 199.894 57.3875 199.918 57.3605C199.996 57.2645 200.062 57.149 200.116 57.014C200.173 56.876 200.209 56.729 200.224 56.573C200.242 56.414 200.234 56.2505 200.201 56.0825C200.171 55.9145 200.11 55.7525 200.017 55.5965C199.978 55.5335 199.966 55.478 199.981 55.43C199.999 55.379 200.036 55.3415 200.093 55.3175L200.588 55.1195Z" fill="black"/>
</g>
</g>
<path id="get-current-key-linear-probing" d="M71.0318 7.3715V11.273H71.2388C71.2988 11.273 71.3483 11.2655 71.3873 11.2505C71.4293 11.2325 71.4728 11.198 71.5178 11.147L72.9578 9.6035C72.9998 9.5525 73.0433 9.5135 73.0883 9.4865C73.1363 9.4565 73.1993 9.4415 73.2773 9.4415H74.0018L72.3233 11.228C72.2423 11.33 72.1553 11.4095 72.0623 11.4665C72.1163 11.5025 72.1643 11.5445 72.2063 11.5925C72.2513 11.6375 72.2933 11.69 72.3323 11.75L74.1143 14H73.3988C73.3298 14 73.2698 13.9895 73.2188 13.9685C73.1708 13.9445 73.1288 13.9025 73.0928 13.8425L71.5943 11.975C71.5493 11.912 71.5043 11.8715 71.4593 11.8535C71.4173 11.8325 71.3513 11.822 71.2613 11.822H71.0318V14H70.2263V7.3715H71.0318ZM77.5927 11.2235C77.5927 11.0375 77.5657 10.868 77.5117 10.715C77.4607 10.559 77.3842 10.4255 77.2822 10.3145C77.1832 10.2005 77.0617 10.1135 76.9177 10.0535C76.7737 9.9905 76.6102 9.959 76.4272 9.959C76.0432 9.959 75.7387 10.0715 75.5137 10.2965C75.2917 10.5185 75.1537 10.8275 75.0997 11.2235H77.5927ZM78.2407 13.361C78.1417 13.481 78.0232 13.586 77.8852 13.676C77.7472 13.763 77.5987 13.835 77.4397 13.892C77.2837 13.949 77.1217 13.991 76.9537 14.018C76.7857 14.048 76.6192 14.063 76.4542 14.063C76.1392 14.063 75.8482 14.0105 75.5812 13.9055C75.3172 13.7975 75.0877 13.6415 74.8927 13.4375C74.7007 13.2305 74.5507 12.9755 74.4427 12.6725C74.3347 12.3695 74.2807 12.0215 74.2807 11.6285C74.2807 11.3105 74.3287 11.0135 74.4247 10.7375C74.5237 10.4615 74.6647 10.223 74.8477 10.022C75.0307 9.818 75.2542 9.659 75.5182 9.545C75.7822 9.428 76.0792 9.3695 76.4092 9.3695C76.6822 9.3695 76.9342 9.416 77.1652 9.509C77.3992 9.599 77.6002 9.731 77.7682 9.905C77.9392 10.076 78.0727 10.289 78.1687 10.544C78.2647 10.796 78.3127 11.084 78.3127 11.408C78.3127 11.534 78.2992 11.618 78.2722 11.66C78.2452 11.702 78.1942 11.723 78.1192 11.723H75.0727C75.0817 12.011 75.1207 12.2615 75.1897 12.4745C75.2617 12.6875 75.3607 12.866 75.4867 13.01C75.6127 13.151 75.7627 13.2575 75.9367 13.3295C76.1107 13.3985 76.3057 13.433 76.5217 13.433C76.7227 13.433 76.8952 13.4105 77.0392 13.3655C77.1862 13.3175 77.3122 13.2665 77.4172 13.2125C77.5222 13.1585 77.6092 13.109 77.6782 13.064C77.7502 13.016 77.8117 12.992 77.8627 12.992C77.9287 12.992 77.9797 13.0175 78.0157 13.0685L78.2407 13.361ZM83.1154 9.4415L80.5729 15.3455C80.5459 15.4055 80.5114 15.4535 80.4694 15.4895C80.4304 15.5255 80.3689 15.5435 80.2849 15.5435H79.6909L80.5234 13.7345L78.6424 9.4415H79.3354C79.4044 9.4415 79.4584 9.4595 79.4974 9.4955C79.5394 9.5285 79.5679 9.566 79.5829 9.608L80.8024 12.479C80.8504 12.605 80.8909 12.737 80.9239 12.875C80.9659 12.734 81.0109 12.6005 81.0589 12.4745L82.2424 9.608C82.2604 9.56 82.2904 9.521 82.3324 9.491C82.3774 9.458 82.4269 9.4415 82.4809 9.4415H83.1154ZM83.8635 11.417H87.7335V12.0245H83.8635V11.417ZM83.8635 9.9095H87.7335V10.517H83.8635V9.9095ZM89.1742 9.725C89.0482 9.512 88.9627 9.2885 88.9177 9.0545C88.8727 8.8175 88.8682 8.5835 88.9042 8.3525C88.9402 8.1215 89.0152 7.901 89.1292 7.691C89.2432 7.478 89.3947 7.2875 89.5837 7.1195L89.8267 7.2725C89.8717 7.3025 89.8912 7.34 89.8852 7.385C89.8822 7.427 89.8687 7.46 89.8447 7.484C89.7667 7.58 89.6992 7.697 89.6422 7.835C89.5882 7.973 89.5537 8.1215 89.5387 8.2805C89.5237 8.4365 89.5312 8.5985 89.5612 8.7665C89.5912 8.9345 89.6527 9.0965 89.7457 9.2525C89.7847 9.3155 89.7952 9.3725 89.7772 9.4235C89.7622 9.4715 89.7262 9.5075 89.6692 9.5315L89.1742 9.725ZM90.5422 9.725C90.4162 9.512 90.3307 9.2885 90.2857 9.0545C90.2407 8.8175 90.2362 8.5835 90.2722 8.3525C90.3082 8.1215 90.3832 7.901 90.4972 7.691C90.6112 7.478 90.7627 7.2875 90.9517 7.1195L91.1947 7.2725C91.2397 7.3025 91.2592 7.34 91.2532 7.385C91.2502 7.427 91.2367 7.46 91.2127 7.484C91.1347 7.58 91.0672 7.697 91.0102 7.835C90.9562 7.973 90.9217 8.1215 90.9067 8.2805C90.8917 8.4365 90.8992 8.5985 90.9292 8.7665C90.9592 8.9345 91.0207 9.0965 91.1137 9.2525C91.1527 9.3155 91.1632 9.3725 91.1452 9.4235C91.1302 9.4715 91.0942 9.5075 91.0372 9.5315L90.5422 9.725ZM94.6255 11.948C94.2565 11.96 93.9415 11.99 93.6805 12.038C93.4225 12.083 93.211 12.143 93.046 12.218C92.884 12.293 92.7655 12.3815 92.6905 12.4835C92.6185 12.5855 92.5825 12.6995 92.5825 12.8255C92.5825 12.9455 92.602 13.049 92.641 13.136C92.68 13.223 92.7325 13.295 92.7985 13.352C92.8675 13.406 92.947 13.4465 93.037 13.4735C93.13 13.4975 93.229 13.5095 93.334 13.5095C93.475 13.5095 93.604 13.496 93.721 13.469C93.838 13.439 93.9475 13.397 94.0495 13.343C94.1545 13.289 94.2535 13.2245 94.3465 13.1495C94.4425 13.0745 94.5355 12.989 94.6255 12.893V11.948ZM92.038 10.085C92.29 9.842 92.5615 9.6605 92.8525 9.5405C93.1435 9.4205 93.466 9.3605 93.82 9.3605C94.075 9.3605 94.3015 9.4025 94.4995 9.4865C94.6975 9.5705 94.864 9.6875 94.999 9.8375C95.134 9.9875 95.236 10.169 95.305 10.382C95.374 10.595 95.4085 10.829 95.4085 11.084V14H95.053C94.975 14 94.915 13.988 94.873 13.964C94.831 13.937 94.798 13.886 94.774 13.811L94.684 13.379C94.564 13.49 94.447 13.589 94.333 13.676C94.219 13.76 94.099 13.832 93.973 13.892C93.847 13.949 93.712 13.9925 93.568 14.0225C93.427 14.0555 93.2695 14.072 93.0955 14.072C92.9185 14.072 92.752 14.048 92.596 14C92.44 13.949 92.3035 13.874 92.1865 13.775C92.0725 13.676 91.981 13.5515 91.912 13.4015C91.846 13.2485 91.813 13.0685 91.813 12.8615C91.813 12.6815 91.8625 12.509 91.9615 12.344C92.0605 12.176 92.221 12.0275 92.443 11.8985C92.665 11.7695 92.9545 11.6645 93.3115 11.5835C93.6685 11.4995 94.1065 11.4515 94.6255 11.4395V11.084C94.6255 10.73 94.549 10.463 94.396 10.283C94.243 10.1 94.0195 10.0085 93.7255 10.0085C93.5275 10.0085 93.361 10.034 93.226 10.085C93.094 10.133 92.9785 10.1885 92.8795 10.2515C92.7835 10.3115 92.6995 10.367 92.6275 10.418C92.5585 10.466 92.4895 10.49 92.4205 10.49C92.3665 10.49 92.32 10.4765 92.281 10.4495C92.242 10.4195 92.209 10.3835 92.182 10.3415L92.038 10.085ZM97.4566 7.3715V14H96.6556V7.3715H97.4566ZM99.3091 7.1195C99.4351 7.3325 99.5206 7.5575 99.5656 7.7945C99.6106 8.0315 99.6151 8.2655 99.5791 8.4965C99.5431 8.7275 99.4681 8.9495 99.3541 9.1625C99.2401 9.3755 99.0886 9.5645 98.8996 9.7295L98.6566 9.572C98.6116 9.545 98.5906 9.5105 98.5936 9.4685C98.5996 9.4235 98.6146 9.3875 98.6386 9.3605C98.7166 9.2645 98.7826 9.149 98.8366 9.014C98.8936 8.876 98.9296 8.729 98.9446 8.573C98.9626 8.414 98.9551 8.2505 98.9221 8.0825C98.8921 7.9145 98.8306 7.7525 98.7376 7.5965C98.6986 7.5335 98.6866 7.478 98.7016 7.43C98.7196 7.379 98.7571 7.3415 98.8141 7.3175L99.3091 7.1195ZM100.677 7.1195C100.803 7.3325 100.889 7.5575 100.934 7.7945C100.979 8.0315 100.983 8.2655 100.947 8.4965C100.911 8.7275 100.836 8.9495 100.722 9.1625C100.608 9.3755 100.457 9.5645 100.268 9.7295L100.025 9.572C99.9796 9.545 99.9586 9.5105 99.9616 9.4685C99.9676 9.4235 99.9826 9.3875 100.007 9.3605C100.085 9.2645 100.151 9.149 100.205 9.014C100.262 8.876 100.298 8.729 100.313 8.573C100.331 8.414 100.323 8.2505 100.29 8.0825C100.26 7.9145 100.199 7.7525 100.106 7.5965C100.067 7.5335 100.055 7.478 100.07 7.43C100.088 7.379 100.125 7.3415 100.182 7.3175L100.677 7.1195Z" fill="black"/>
</g>
<g id="pointer-get-linear-probing-0" style="opacity: 0">
<path id="arrow-pointer" d="M128.646 25.3536C128.842 25.5488 129.158 25.5488 129.354 25.3536L132.536 22.1716C132.731 21.9763 132.731 21.6597 132.536 21.4645C132.34 21.2692 132.024 21.2692 131.828 21.4645L129 24.2929L126.172 21.4645C125.976 21.2692 125.66 21.2692 125.464 21.4645C125.269 21.6597 125.269 21.9763 125.464 22.1716L128.646 25.3536ZM128.5 13L128.5 25L129.5 25L129.5 13L128.5 13Z" fill="black"/>
<path id="index=2" d="M114.564 4.4415V9H113.763V4.4415H114.564ZM114.735 3.0105C114.735 3.0885 114.718 3.162 114.685 3.231C114.655 3.297 114.613 3.357 114.559 3.411C114.508 3.462 114.447 3.5025 114.375 3.5325C114.306 3.5625 114.232 3.5775 114.154 3.5775C114.076 3.5775 114.003 3.5625 113.934 3.5325C113.868 3.5025 113.809 3.462 113.758 3.411C113.707 3.357 113.667 3.297 113.637 3.231C113.607 3.162 113.592 3.0885 113.592 3.0105C113.592 2.9325 113.607 2.859 113.637 2.79C113.667 2.718 113.707 2.6565 113.758 2.6055C113.809 2.5515 113.868 2.5095 113.934 2.4795C114.003 2.4495 114.076 2.4345 114.154 2.4345C114.232 2.4345 114.306 2.4495 114.375 2.4795C114.447 2.5095 114.508 2.5515 114.559 2.6055C114.613 2.6565 114.655 2.718 114.685 2.79C114.718 2.859 114.735 2.9325 114.735 3.0105ZM116.636 5.103C116.735 4.992 116.84 4.8915 116.951 4.8015C117.062 4.7115 117.179 4.635 117.302 4.572C117.428 4.506 117.56 4.4565 117.698 4.4235C117.839 4.3875 117.99 4.3695 118.152 4.3695C118.401 4.3695 118.62 4.4115 118.809 4.4955C119.001 4.5765 119.16 4.6935 119.286 4.8465C119.415 4.9965 119.513 5.178 119.579 5.391C119.645 5.604 119.678 5.8395 119.678 6.0975V9H118.872V6.0975C118.872 5.7525 118.793 5.4855 118.634 5.2965C118.478 5.1045 118.239 5.0085 117.918 5.0085C117.681 5.0085 117.459 5.0655 117.252 5.1795C117.048 5.2935 116.859 5.448 116.685 5.643V9H115.88V4.4415H116.361C116.475 4.4415 116.546 4.497 116.573 4.608L116.636 5.103ZM123.868 5.526C123.718 5.325 123.556 5.1855 123.382 5.1075C123.208 5.0265 123.013 4.986 122.797 4.986C122.374 4.986 122.049 5.1375 121.821 5.4405C121.593 5.7435 121.479 6.1755 121.479 6.7365C121.479 7.0335 121.504 7.2885 121.555 7.5015C121.606 7.7115 121.681 7.8855 121.78 8.0235C121.879 8.1585 122.001 8.2575 122.145 8.3205C122.289 8.3835 122.452 8.415 122.635 8.415C122.899 8.415 123.129 8.355 123.324 8.235C123.522 8.115 123.703 7.9455 123.868 7.7265V5.526ZM124.669 2.3715V9H124.192C124.078 9 124.006 8.9445 123.976 8.8335L123.904 8.28C123.709 8.514 123.487 8.703 123.238 8.847C122.989 8.991 122.701 9.063 122.374 9.063C122.113 9.063 121.876 9.0135 121.663 8.9145C121.45 8.8125 121.269 8.664 121.119 8.469C120.969 8.274 120.853 8.031 120.772 7.74C120.691 7.449 120.651 7.1145 120.651 6.7365C120.651 6.4005 120.696 6.0885 120.786 5.8005C120.876 5.5095 121.005 5.2575 121.173 5.0445C121.341 4.8315 121.546 4.665 121.789 4.545C122.035 4.422 122.311 4.3605 122.617 4.3605C122.896 4.3605 123.135 4.4085 123.333 4.5045C123.534 4.5975 123.712 4.728 123.868 4.896V2.3715H124.669ZM128.985 6.2235C128.985 6.0375 128.958 5.868 128.904 5.715C128.853 5.559 128.777 5.4255 128.675 5.3145C128.576 5.2005 128.454 5.1135 128.31 5.0535C128.166 4.9905 128.003 4.959 127.82 4.959C127.436 4.959 127.131 5.0715 126.906 5.2965C126.684 5.5185 126.546 5.8275 126.492 6.2235H128.985ZM129.633 8.361C129.534 8.481 129.416 8.586 129.278 8.676C129.14 8.763 128.991 8.835 128.832 8.892C128.676 8.949 128.514 8.991 128.346 9.018C128.178 9.048 128.012 9.063 127.847 9.063C127.532 9.063 127.241 9.0105 126.974 8.9055C126.71 8.7975 126.48 8.6415 126.285 8.4375C126.093 8.2305 125.943 7.9755 125.835 7.6725C125.727 7.3695 125.673 7.0215 125.673 6.6285C125.673 6.3105 125.721 6.0135 125.817 5.7375C125.916 5.4615 126.057 5.223 126.24 5.022C126.423 4.818 126.647 4.659 126.911 4.545C127.175 4.428 127.472 4.3695 127.802 4.3695C128.075 4.3695 128.327 4.416 128.558 4.509C128.792 4.599 128.993 4.731 129.161 4.905C129.332 5.076 129.465 5.289 129.561 5.544C129.657 5.796 129.705 6.084 129.705 6.408C129.705 6.534 129.692 6.618 129.665 6.66C129.638 6.702 129.587 6.723 129.512 6.723H126.465C126.474 7.011 126.513 7.2615 126.582 7.4745C126.654 7.6875 126.753 7.866 126.879 8.01C127.005 8.151 127.155 8.2575 127.329 8.3295C127.503 8.3985 127.698 8.433 127.914 8.433C128.115 8.433 128.288 8.4105 128.432 8.3655C128.579 8.3175 128.705 8.2665 128.81 8.2125C128.915 8.1585 129.002 8.109 129.071 8.064C129.143 8.016 129.204 7.992 129.255 7.992C129.321 7.992 129.372 8.0175 129.408 8.0685L129.633 8.361ZM134.372 9H133.602C133.536 9 133.484 8.9835 133.445 8.9505C133.409 8.9145 133.379 8.8755 133.355 8.8335L132.207 7.047C132.195 7.089 132.182 7.131 132.167 7.173C132.155 7.212 132.137 7.248 132.113 7.281L131.051 8.8335C131.021 8.8755 130.988 8.9145 130.952 8.9505C130.919 8.9835 130.872 9 130.812 9H130.097L131.694 6.66L130.16 4.4415H130.929C130.995 4.4415 131.043 4.452 131.073 4.473C131.103 4.494 131.13 4.524 131.154 4.563L132.275 6.273C132.299 6.186 132.336 6.102 132.387 6.021L133.368 4.581C133.395 4.539 133.424 4.506 133.454 4.482C133.487 4.455 133.526 4.4415 133.571 4.4415H134.309L132.774 6.6195L134.372 9ZM135.151 6.417H139.021V7.0245H135.151V6.417ZM135.151 4.9095H139.021V5.517H135.151V4.9095ZM144.138 8.2395C144.225 8.2395 144.294 8.265 144.345 8.316C144.396 8.367 144.421 8.433 144.421 8.514V9H140.119V8.7255C140.119 8.6685 140.131 8.61 140.155 8.55C140.179 8.49 140.217 8.4345 140.268 8.3835L142.333 6.309C142.504 6.135 142.66 5.9685 142.801 5.8095C142.942 5.6475 143.062 5.4855 143.161 5.3235C143.26 5.1615 143.337 4.998 143.391 4.833C143.445 4.665 143.472 4.4865 143.472 4.2975C143.472 4.1085 143.442 3.9435 143.382 3.8025C143.322 3.6585 143.239 3.54 143.134 3.447C143.032 3.354 142.911 3.285 142.77 3.24C142.629 3.192 142.477 3.168 142.315 3.168C142.15 3.168 141.999 3.192 141.861 3.24C141.723 3.288 141.6 3.3555 141.492 3.4425C141.387 3.5265 141.298 3.627 141.226 3.744C141.154 3.861 141.103 3.99 141.073 4.131C141.037 4.236 140.988 4.3065 140.925 4.3425C140.865 4.3755 140.779 4.3845 140.668 4.3695L140.25 4.2975C140.292 4.0035 140.373 3.744 140.493 3.519C140.616 3.291 140.769 3.1005 140.952 2.9475C141.138 2.7945 141.349 2.679 141.586 2.601C141.823 2.52 142.08 2.4795 142.356 2.4795C142.629 2.4795 142.884 2.52 143.121 2.601C143.358 2.682 143.563 2.8005 143.737 2.9565C143.911 3.1095 144.048 3.297 144.147 3.519C144.246 3.741 144.295 3.993 144.295 4.275C144.295 4.515 144.259 4.7385 144.187 4.9455C144.115 5.1495 144.018 5.3445 143.895 5.5305C143.772 5.7165 143.629 5.898 143.467 6.075C143.308 6.252 143.139 6.4305 142.959 6.6105L141.258 8.3475C141.378 8.3145 141.499 8.289 141.622 8.271C141.745 8.25 141.864 8.2395 141.978 8.2395H144.138Z" fill="black"/>
</g>
<path id="get-removed-flag-linear-probing" d="M115.521 52.355C115.665 52.043 115.842 51.8 116.052 51.626C116.262 51.449 116.519 51.3605 116.822 51.3605C116.918 51.3605 117.009 51.371 117.096 51.392C117.186 51.413 117.266 51.446 117.335 51.491L117.276 52.0895C117.258 52.1645 117.213 52.202 117.141 52.202C117.099 52.202 117.038 52.193 116.957 52.175C116.876 52.157 116.784 52.148 116.682 52.148C116.538 52.148 116.409 52.169 116.295 52.211C116.184 52.253 116.084 52.316 115.994 52.4C115.907 52.481 115.827 52.583 115.755 52.706C115.686 52.826 115.623 52.964 115.566 53.12V56H114.761V51.4415H115.22C115.307 51.4415 115.367 51.458 115.4 51.491C115.433 51.524 115.455 51.581 115.467 51.662L115.521 52.355ZM120.906 53.2235C120.906 53.0375 120.879 52.868 120.825 52.715C120.774 52.559 120.697 52.4255 120.595 52.3145C120.496 52.2005 120.375 52.1135 120.231 52.0535C120.087 51.9905 119.923 51.959 119.74 51.959C119.356 51.959 119.052 52.0715 118.827 52.2965C118.605 52.5185 118.467 52.8275 118.413 53.2235H120.906ZM121.554 55.361C121.455 55.481 121.336 55.586 121.198 55.676C121.06 55.763 120.912 55.835 120.753 55.892C120.597 55.949 120.435 55.991 120.267 56.018C120.099 56.048 119.932 56.063 119.767 56.063C119.452 56.063 119.161 56.0105 118.894 55.9055C118.63 55.7975 118.401 55.6415 118.206 55.4375C118.014 55.2305 117.864 54.9755 117.756 54.6725C117.648 54.3695 117.594 54.0215 117.594 53.6285C117.594 53.3105 117.642 53.0135 117.738 52.7375C117.837 52.4615 117.978 52.223 118.161 52.022C118.344 51.818 118.567 51.659 118.831 51.545C119.095 51.428 119.392 51.3695 119.722 51.3695C119.995 51.3695 120.247 51.416 120.478 51.509C120.712 51.599 120.913 51.731 121.081 51.905C121.252 52.076 121.386 52.289 121.482 52.544C121.578 52.796 121.626 53.084 121.626 53.408C121.626 53.534 121.612 53.618 121.585 53.66C121.558 53.702 121.507 53.723 121.432 53.723H118.386C118.395 54.011 118.434 54.2615 118.503 54.4745C118.575 54.6875 118.674 54.866 118.8 55.01C118.926 55.151 119.076 55.2575 119.25 55.3295C119.424 55.3985 119.619 55.433 119.835 55.433C120.036 55.433 120.208 55.4105 120.352 55.3655C120.499 55.3175 120.625 55.2665 120.73 55.2125C120.835 55.1585 120.922 55.109 120.991 55.064C121.063 55.016 121.125 54.992 121.176 54.992C121.242 54.992 121.293 55.0175 121.329 55.0685L121.554 55.361ZM122.61 56V51.4415H123.091C123.205 51.4415 123.276 51.497 123.303 51.608L123.361 52.076C123.529 51.869 123.718 51.6995 123.928 51.5675C124.138 51.4355 124.381 51.3695 124.657 51.3695C124.963 51.3695 125.211 51.455 125.4 51.626C125.592 51.797 125.73 52.028 125.814 52.319C125.88 52.154 125.964 52.0115 126.066 51.8915C126.171 51.7715 126.288 51.6725 126.417 51.5945C126.546 51.5165 126.682 51.4595 126.826 51.4235C126.973 51.3875 127.122 51.3695 127.272 51.3695C127.512 51.3695 127.725 51.4085 127.911 51.4865C128.1 51.5615 128.259 51.6725 128.388 51.8195C128.52 51.9665 128.62 52.148 128.689 52.364C128.758 52.577 128.793 52.8215 128.793 53.0975V56H127.987V53.0975C127.987 52.7405 127.909 52.4705 127.753 52.2875C127.597 52.1015 127.372 52.0085 127.078 52.0085C126.946 52.0085 126.82 52.0325 126.7 52.0805C126.583 52.1255 126.48 52.193 126.39 52.283C126.3 52.373 126.228 52.487 126.174 52.625C126.123 52.76 126.097 52.9175 126.097 53.0975V56H125.292V53.0975C125.292 52.7315 125.218 52.4585 125.071 52.2785C124.924 52.0985 124.71 52.0085 124.428 52.0085C124.23 52.0085 124.047 52.0625 123.879 52.1705C123.711 52.2755 123.556 52.4195 123.415 52.6025V56H122.61ZM130.05 53.417H133.92V54.0245H130.05V53.417ZM130.05 51.9095H133.92V52.517H130.05V51.9095ZM136.63 56.072C136.27 56.072 135.993 55.9715 135.798 55.7705C135.606 55.5695 135.51 55.28 135.51 54.902V52.112H134.961C134.913 52.112 134.872 52.0985 134.839 52.0715C134.806 52.0415 134.79 51.9965 134.79 51.9365V51.617L135.537 51.5225L135.721 50.114C135.73 50.069 135.75 50.033 135.78 50.006C135.813 49.976 135.855 49.961 135.906 49.961H136.311V51.5315H137.629V52.112H136.311V54.848C136.311 55.04 136.357 55.1825 136.45 55.2755C136.543 55.3685 136.663 55.415 136.81 55.415C136.894 55.415 136.966 55.4045 137.026 55.3835C137.089 55.3595 137.143 55.334 137.188 55.307C137.233 55.28 137.271 55.256 137.301 55.235C137.334 55.211 137.362 55.199 137.386 55.199C137.428 55.199 137.466 55.2245 137.499 55.2755L137.733 55.658C137.595 55.787 137.428 55.889 137.233 55.964C137.038 56.036 136.837 56.072 136.63 56.072ZM139.217 52.355C139.361 52.043 139.538 51.8 139.748 51.626C139.958 51.449 140.214 51.3605 140.517 51.3605C140.613 51.3605 140.705 51.371 140.792 51.392C140.882 51.413 140.961 51.446 141.03 51.491L140.972 52.0895C140.954 52.1645 140.909 52.202 140.837 52.202C140.795 52.202 140.733 52.193 140.652 52.175C140.571 52.157 140.48 52.148 140.378 52.148C140.234 52.148 140.105 52.169 139.991 52.211C139.88 52.253 139.779 52.316 139.689 52.4C139.602 52.481 139.523 52.583 139.451 52.706C139.382 52.826 139.319 52.964 139.262 53.12V56H138.456V51.4415H138.915C139.002 51.4415 139.062 51.458 139.095 51.491C139.128 51.524 139.151 51.581 139.163 51.662L139.217 52.355ZM145.483 51.4415V56H145.006C144.892 56 144.82 55.9445 144.79 55.8335L144.727 55.343C144.529 55.562 144.307 55.739 144.061 55.874C143.815 56.006 143.533 56.072 143.215 56.072C142.966 56.072 142.746 56.0315 142.554 55.9505C142.365 55.8665 142.206 55.7495 142.077 55.5995C141.948 55.4495 141.85 55.268 141.784 55.055C141.721 54.842 141.69 54.6065 141.69 54.3485V51.4415H142.491V54.3485C142.491 54.6935 142.569 54.9605 142.725 55.1495C142.884 55.3385 143.125 55.433 143.449 55.433C143.686 55.433 143.907 55.3775 144.111 55.2665C144.318 55.1525 144.508 54.9965 144.682 54.7985V51.4415H145.483ZM149.804 53.2235C149.804 53.0375 149.777 52.868 149.723 52.715C149.672 52.559 149.596 52.4255 149.494 52.3145C149.395 52.2005 149.273 52.1135 149.129 52.0535C148.985 51.9905 148.822 51.959 148.639 51.959C148.255 51.959 147.95 52.0715 147.725 52.2965C147.503 52.5185 147.365 52.8275 147.311 53.2235H149.804ZM150.452 55.361C150.353 55.481 150.235 55.586 150.097 55.676C149.959 55.763 149.81 55.835 149.651 55.892C149.495 55.949 149.333 55.991 149.165 56.018C148.997 56.048 148.831 56.063 148.666 56.063C148.351 56.063 148.06 56.0105 147.793 55.9055C147.529 55.7975 147.299 55.6415 147.104 55.4375C146.912 55.2305 146.762 54.9755 146.654 54.6725C146.546 54.3695 146.492 54.0215 146.492 53.6285C146.492 53.3105 146.54 53.0135 146.636 52.7375C146.735 52.4615 146.876 52.223 147.059 52.022C147.242 51.818 147.466 51.659 147.73 51.545C147.994 51.428 148.291 51.3695 148.621 51.3695C148.894 51.3695 149.146 51.416 149.377 51.509C149.611 51.599 149.812 51.731 149.98 51.905C150.151 52.076 150.284 52.289 150.38 52.544C150.476 52.796 150.524 53.084 150.524 53.408C150.524 53.534 150.511 53.618 150.484 53.66C150.457 53.702 150.406 53.723 150.331 53.723H147.284C147.293 54.011 147.332 54.2615 147.401 54.4745C147.473 54.6875 147.572 54.866 147.698 55.01C147.824 55.151 147.974 55.2575 148.148 55.3295C148.322 55.3985 148.517 55.433 148.733 55.433C148.934 55.433 149.107 55.4105 149.251 55.3655C149.398 55.3175 149.524 55.2665 149.629 55.2125C149.734 55.1585 149.821 55.109 149.89 55.064C149.962 55.016 150.023 54.992 150.074 54.992C150.14 54.992 150.191 55.0175 150.227 55.0685L150.452 55.361Z" fill="black"/>
<g id="pointer-get-linear-probing-1" style="opacity: 0">
<path id="arrow-pointer_2" d="M180.646 25.3536C180.842 25.5488 181.158 25.5488 181.354 25.3536L184.536 22.1716C184.731 21.9763 184.731 21.6597 184.536 21.4645C184.34 21.2692 184.024 21.2692 183.828 21.4645L181 24.2929L178.172 21.4645C177.976 21.2692 177.66 21.2692 177.464 21.4645C177.269 21.6597 177.269 21.9763 177.464 22.1716L180.646 25.3536ZM180.5 13L180.5 25L181.5 25L181.5 13L180.5 13Z" fill="black"/>
<path id="index=3" d="M166.564 4.4415V9H165.763V4.4415H166.564ZM166.735 3.0105C166.735 3.0885 166.718 3.162 166.685 3.231C166.655 3.297 166.613 3.357 166.559 3.411C166.508 3.462 166.447 3.5025 166.375 3.5325C166.306 3.5625 166.232 3.5775 166.154 3.5775C166.076 3.5775 166.003 3.5625 165.934 3.5325C165.868 3.5025 165.809 3.462 165.758 3.411C165.707 3.357 165.667 3.297 165.637 3.231C165.607 3.162 165.592 3.0885 165.592 3.0105C165.592 2.9325 165.607 2.859 165.637 2.79C165.667 2.718 165.707 2.6565 165.758 2.6055C165.809 2.5515 165.868 2.5095 165.934 2.4795C166.003 2.4495 166.076 2.4345 166.154 2.4345C166.232 2.4345 166.306 2.4495 166.375 2.4795C166.447 2.5095 166.508 2.5515 166.559 2.6055C166.613 2.6565 166.655 2.718 166.685 2.79C166.718 2.859 166.735 2.9325 166.735 3.0105ZM168.636 5.103C168.735 4.992 168.84 4.8915 168.951 4.8015C169.062 4.7115 169.179 4.635 169.302 4.572C169.428 4.506 169.56 4.4565 169.698 4.4235C169.839 4.3875 169.99 4.3695 170.152 4.3695C170.401 4.3695 170.62 4.4115 170.809 4.4955C171.001 4.5765 171.16 4.6935 171.286 4.8465C171.415 4.9965 171.513 5.178 171.579 5.391C171.645 5.604 171.678 5.8395 171.678 6.0975V9H170.872V6.0975C170.872 5.7525 170.793 5.4855 170.634 5.2965C170.478 5.1045 170.239 5.0085 169.918 5.0085C169.681 5.0085 169.459 5.0655 169.252 5.1795C169.048 5.2935 168.859 5.448 168.685 5.643V9H167.88V4.4415H168.361C168.475 4.4415 168.546 4.497 168.573 4.608L168.636 5.103ZM175.868 5.526C175.718 5.325 175.556 5.1855 175.382 5.1075C175.208 5.0265 175.013 4.986 174.797 4.986C174.374 4.986 174.049 5.1375 173.821 5.4405C173.593 5.7435 173.479 6.1755 173.479 6.7365C173.479 7.0335 173.504 7.2885 173.555 7.5015C173.606 7.7115 173.681 7.8855 173.78 8.0235C173.879 8.1585 174.001 8.2575 174.145 8.3205C174.289 8.3835 174.452 8.415 174.635 8.415C174.899 8.415 175.129 8.355 175.324 8.235C175.522 8.115 175.703 7.9455 175.868 7.7265V5.526ZM176.669 2.3715V9H176.192C176.078 9 176.006 8.9445 175.976 8.8335L175.904 8.28C175.709 8.514 175.487 8.703 175.238 8.847C174.989 8.991 174.701 9.063 174.374 9.063C174.113 9.063 173.876 9.0135 173.663 8.9145C173.45 8.8125 173.269 8.664 173.119 8.469C172.969 8.274 172.853 8.031 172.772 7.74C172.691 7.449 172.651 7.1145 172.651 6.7365C172.651 6.4005 172.696 6.0885 172.786 5.8005C172.876 5.5095 173.005 5.2575 173.173 5.0445C173.341 4.8315 173.546 4.665 173.789 4.545C174.035 4.422 174.311 4.3605 174.617 4.3605C174.896 4.3605 175.135 4.4085 175.333 4.5045C175.534 4.5975 175.712 4.728 175.868 4.896V2.3715H176.669ZM180.985 6.2235C180.985 6.0375 180.958 5.868 180.904 5.715C180.853 5.559 180.777 5.4255 180.675 5.3145C180.576 5.2005 180.454 5.1135 180.31 5.0535C180.166 4.9905 180.003 4.959 179.82 4.959C179.436 4.959 179.131 5.0715 178.906 5.2965C178.684 5.5185 178.546 5.8275 178.492 6.2235H180.985ZM181.633 8.361C181.534 8.481 181.416 8.586 181.278 8.676C181.14 8.763 180.991 8.835 180.832 8.892C180.676 8.949 180.514 8.991 180.346 9.018C180.178 9.048 180.012 9.063 179.847 9.063C179.532 9.063 179.241 9.0105 178.974 8.9055C178.71 8.7975 178.48 8.6415 178.285 8.4375C178.093 8.2305 177.943 7.9755 177.835 7.6725C177.727 7.3695 177.673 7.0215 177.673 6.6285C177.673 6.3105 177.721 6.0135 177.817 5.7375C177.916 5.4615 178.057 5.223 178.24 5.022C178.423 4.818 178.647 4.659 178.911 4.545C179.175 4.428 179.472 4.3695 179.802 4.3695C180.075 4.3695 180.327 4.416 180.558 4.509C180.792 4.599 180.993 4.731 181.161 4.905C181.332 5.076 181.465 5.289 181.561 5.544C181.657 5.796 181.705 6.084 181.705 6.408C181.705 6.534 181.692 6.618 181.665 6.66C181.638 6.702 181.587 6.723 181.512 6.723H178.465C178.474 7.011 178.513 7.2615 178.582 7.4745C178.654 7.6875 178.753 7.866 178.879 8.01C179.005 8.151 179.155 8.2575 179.329 8.3295C179.503 8.3985 179.698 8.433 179.914 8.433C180.115 8.433 180.288 8.4105 180.432 8.3655C180.579 8.3175 180.705 8.2665 180.81 8.2125C180.915 8.1585 181.002 8.109 181.071 8.064C181.143 8.016 181.204 7.992 181.255 7.992C181.321 7.992 181.372 8.0175 181.408 8.0685L181.633 8.361ZM186.372 9H185.602C185.536 9 185.484 8.9835 185.445 8.9505C185.409 8.9145 185.379 8.8755 185.355 8.8335L184.207 7.047C184.195 7.089 184.182 7.131 184.167 7.173C184.155 7.212 184.137 7.248 184.113 7.281L183.051 8.8335C183.021 8.8755 182.988 8.9145 182.952 8.9505C182.919 8.9835 182.872 9 182.812 9H182.097L183.694 6.66L182.16 4.4415H182.929C182.995 4.4415 183.043 4.452 183.073 4.473C183.103 4.494 183.13 4.524 183.154 4.563L184.275 6.273C184.299 6.186 184.336 6.102 184.387 6.021L185.368 4.581C185.395 4.539 185.424 4.506 185.454 4.482C185.487 4.455 185.526 4.4415 185.571 4.4415H186.309L184.774 6.6195L186.372 9ZM187.151 6.417H191.021V7.0245H187.151V6.417ZM187.151 4.9095H191.021V5.517H187.151V4.9095ZM192.281 4.2975C192.323 4.0035 192.404 3.744 192.524 3.519C192.644 3.291 192.796 3.1005 192.979 2.9475C193.165 2.7945 193.376 2.679 193.613 2.601C193.853 2.52 194.111 2.4795 194.387 2.4795C194.66 2.4795 194.912 2.5185 195.143 2.5965C195.374 2.6745 195.572 2.7855 195.737 2.9295C195.905 3.0735 196.036 3.2475 196.129 3.4515C196.222 3.6555 196.268 3.882 196.268 4.131C196.268 4.335 196.241 4.518 196.187 4.68C196.136 4.839 196.061 4.9785 195.962 5.0985C195.866 5.2185 195.749 5.3205 195.611 5.4045C195.473 5.4885 195.319 5.5575 195.148 5.6115C195.568 5.7195 195.883 5.9055 196.093 6.1695C196.306 6.4305 196.412 6.7575 196.412 7.1505C196.412 7.4475 196.355 7.7145 196.241 7.9515C196.13 8.1885 195.977 8.391 195.782 8.559C195.587 8.724 195.359 8.8515 195.098 8.9415C194.84 9.0285 194.563 9.072 194.266 9.072C193.924 9.072 193.631 9.03 193.388 8.946C193.145 8.859 192.94 8.7405 192.772 8.5905C192.604 8.4405 192.466 8.2635 192.358 8.0595C192.25 7.8525 192.158 7.629 192.083 7.389L192.43 7.245C192.52 7.206 192.607 7.1955 192.691 7.2135C192.778 7.2315 192.841 7.281 192.88 7.362C192.919 7.446 192.967 7.5465 193.024 7.6635C193.084 7.7805 193.165 7.893 193.267 8.001C193.369 8.109 193.498 8.2005 193.654 8.2755C193.813 8.3505 194.014 8.388 194.257 8.388C194.482 8.388 194.678 8.352 194.846 8.28C195.017 8.205 195.158 8.109 195.269 7.992C195.383 7.875 195.469 7.7445 195.526 7.6005C195.583 7.4565 195.611 7.314 195.611 7.173C195.611 6.999 195.589 6.84 195.544 6.696C195.499 6.552 195.415 6.4275 195.292 6.3225C195.169 6.2175 194.999 6.135 194.783 6.075C194.57 6.015 194.296 5.985 193.96 5.985V5.4045C194.236 5.4015 194.47 5.3715 194.662 5.3145C194.857 5.2575 195.014 5.1795 195.134 5.0805C195.257 4.9815 195.346 4.863 195.4 4.725C195.457 4.587 195.485 4.434 195.485 4.266C195.485 4.08 195.455 3.918 195.395 3.78C195.338 3.642 195.259 3.528 195.157 3.438C195.055 3.348 194.933 3.2805 194.792 3.2355C194.654 3.1905 194.504 3.168 194.342 3.168C194.18 3.168 194.029 3.192 193.888 3.24C193.75 3.288 193.627 3.3555 193.519 3.4425C193.414 3.5265 193.325 3.627 193.253 3.744C193.181 3.861 193.13 3.99 193.1 4.131C193.061 4.236 193.012 4.3065 192.952 4.3425C192.895 4.3755 192.811 4.3845 192.7 4.3695L192.281 4.2975Z" fill="black"/>
</g>
<g id="hashmap-return-get-linear-probing" style="opacity: 0">
<path id="arrow-pointer_3" d="M181.646 93.3536C181.842 93.5488 182.158 93.5488 182.354 93.3536L185.536 90.1716C185.731 89.9763 185.731 89.6597 185.536 89.4645C185.34 89.2692 185.024 89.2692 184.828 89.4645L182 92.2929L179.172 89.4645C178.976 89.2692 178.66 89.2692 178.464 89.4645C178.269 89.6597 178.269 89.9763 178.464 90.1716L181.646 93.3536ZM181.5 81L181.5 93L182.5 93L182.5 81L181.5 81Z" fill="black"/>
<path id="val=&#226;&#128;&#156;gold&#226;&#128;&#157;_2" d="M168.221 97.4415L166.363 102H165.643L163.784 97.4415H164.437C164.503 97.4415 164.557 97.458 164.599 97.491C164.641 97.524 164.669 97.563 164.684 97.608L165.841 100.542C165.877 100.653 165.908 100.761 165.935 100.866C165.962 100.971 165.988 101.076 166.012 101.181C166.036 101.076 166.061 100.971 166.088 100.866C166.115 100.761 166.148 100.653 166.187 100.542L167.357 97.608C167.375 97.56 167.405 97.521 167.447 97.491C167.489 97.458 167.539 97.4415 167.596 97.4415H168.221ZM171.33 99.948C170.961 99.96 170.646 99.99 170.385 100.038C170.127 100.083 169.915 100.143 169.75 100.218C169.588 100.293 169.47 100.381 169.395 100.483C169.323 100.585 169.287 100.699 169.287 100.825C169.287 100.945 169.306 101.049 169.345 101.136C169.384 101.223 169.437 101.295 169.503 101.352C169.572 101.406 169.651 101.446 169.741 101.473C169.834 101.497 169.933 101.509 170.038 101.509C170.179 101.509 170.308 101.496 170.425 101.469C170.542 101.439 170.652 101.397 170.754 101.343C170.859 101.289 170.958 101.224 171.051 101.149C171.147 101.074 171.24 100.989 171.33 100.893V99.948ZM168.742 98.085C168.994 97.842 169.266 97.6605 169.557 97.5405C169.848 97.4205 170.17 97.3605 170.524 97.3605C170.779 97.3605 171.006 97.4025 171.204 97.4865C171.402 97.5705 171.568 97.6875 171.703 97.8375C171.838 97.9875 171.94 98.169 172.009 98.382C172.078 98.595 172.113 98.829 172.113 99.084V102H171.757C171.679 102 171.619 101.988 171.577 101.964C171.535 101.937 171.502 101.886 171.478 101.811L171.388 101.379C171.268 101.49 171.151 101.589 171.037 101.676C170.923 101.76 170.803 101.832 170.677 101.892C170.551 101.949 170.416 101.992 170.272 102.023C170.131 102.056 169.974 102.072 169.8 102.072C169.623 102.072 169.456 102.048 169.3 102C169.144 101.949 169.008 101.874 168.891 101.775C168.777 101.676 168.685 101.551 168.616 101.401C168.55 101.248 168.517 101.068 168.517 100.861C168.517 100.681 168.567 100.509 168.666 100.344C168.765 100.176 168.925 100.027 169.147 99.8985C169.369 99.7695 169.659 99.6645 170.016 99.5835C170.373 99.4995 170.811 99.4515 171.33 99.4395V99.084C171.33 98.73 171.253 98.463 171.1 98.283C170.947 98.1 170.724 98.0085 170.43 98.0085C170.232 98.0085 170.065 98.034 169.93 98.085C169.798 98.133 169.683 98.1885 169.584 98.2515C169.488 98.3115 169.404 98.367 169.332 98.418C169.263 98.466 169.194 98.49 169.125 98.49C169.071 98.49 169.024 98.4765 168.985 98.4495C168.946 98.4195 168.913 98.3835 168.886 98.3415L168.742 98.085ZM174.161 95.3715V102H173.36V95.3715H174.161ZM175.5 99.417H179.37V100.024H175.5V99.417ZM175.5 97.9095H179.37V98.517H175.5V97.9095ZM180.811 97.725C180.685 97.512 180.599 97.2885 180.554 97.0545C180.509 96.8175 180.505 96.5835 180.541 96.3525C180.577 96.1215 180.652 95.901 180.766 95.691C180.88 95.478 181.031 95.2875 181.22 95.1195L181.463 95.2725C181.508 95.3025 181.528 95.34 181.522 95.385C181.519 95.427 181.505 95.46 181.481 95.484C181.403 95.58 181.336 95.697 181.279 95.835C181.225 95.973 181.19 96.1215 181.175 96.2805C181.16 96.4365 181.168 96.5985 181.198 96.7665C181.228 96.9345 181.289 97.0965 181.382 97.2525C181.421 97.3155 181.432 97.3725 181.414 97.4235C181.399 97.4715 181.363 97.5075 181.306 97.5315L180.811 97.725ZM182.179 97.725C182.053 97.512 181.967 97.2885 181.922 97.0545C181.877 96.8175 181.873 96.5835 181.909 96.3525C181.945 96.1215 182.02 95.901 182.134 95.691C182.248 95.478 182.399 95.2875 182.588 95.1195L182.831 95.2725C182.876 95.3025 182.896 95.34 182.89 95.385C182.887 95.427 182.873 95.46 182.849 95.484C182.771 95.58 182.704 95.697 182.647 95.835C182.593 95.973 182.558 96.1215 182.543 96.2805C182.528 96.4365 182.536 96.5985 182.566 96.7665C182.596 96.9345 182.657 97.0965 182.75 97.2525C182.789 97.3155 182.8 97.3725 182.782 97.4235C182.767 97.4715 182.731 97.5075 182.674 97.5315L182.179 97.725ZM185.38 99.7725C185.542 99.7725 185.685 99.75 185.808 99.705C185.931 99.66 186.034 99.597 186.118 99.516C186.202 99.435 186.265 99.339 186.307 99.228C186.349 99.114 186.37 98.9895 186.37 98.8545C186.37 98.5755 186.285 98.3535 186.114 98.1885C185.946 98.0235 185.701 97.941 185.38 97.941C185.056 97.941 184.809 98.0235 184.638 98.1885C184.47 98.3535 184.386 98.5755 184.386 98.8545C184.386 98.9895 184.407 99.114 184.449 99.228C184.494 99.339 184.558 99.435 184.642 99.516C184.726 99.597 184.83 99.66 184.953 99.705C185.076 99.75 185.218 99.7725 185.38 99.7725ZM186.825 102.248C186.825 102.137 186.793 102.047 186.73 101.977C186.667 101.908 186.582 101.854 186.474 101.815C186.369 101.776 186.246 101.749 186.105 101.734C185.964 101.716 185.814 101.703 185.655 101.694C185.499 101.685 185.34 101.676 185.178 101.667C185.016 101.658 184.86 101.643 184.71 101.622C184.542 101.7 184.404 101.799 184.296 101.919C184.191 102.036 184.138 102.174 184.138 102.333C184.138 102.435 184.164 102.53 184.215 102.617C184.269 102.707 184.35 102.783 184.458 102.846C184.566 102.912 184.701 102.963 184.863 102.999C185.028 103.038 185.221 103.058 185.443 103.058C185.659 103.058 185.853 103.038 186.024 102.999C186.195 102.96 186.339 102.905 186.456 102.833C186.576 102.761 186.667 102.675 186.73 102.576C186.793 102.477 186.825 102.368 186.825 102.248ZM187.639 97.6215V97.9185C187.639 98.0175 187.576 98.0805 187.45 98.1075L186.933 98.175C187.035 98.373 187.086 98.592 187.086 98.832C187.086 99.054 187.042 99.2565 186.955 99.4395C186.871 99.6195 186.754 99.774 186.604 99.903C186.454 100.032 186.274 100.131 186.064 100.2C185.854 100.269 185.626 100.303 185.38 100.303C185.167 100.303 184.966 100.278 184.777 100.227C184.681 100.287 184.608 100.351 184.557 100.42C184.506 100.486 184.48 100.554 184.48 100.623C184.48 100.731 184.524 100.813 184.611 100.87C184.701 100.924 184.818 100.963 184.962 100.987C185.106 101.011 185.269 101.026 185.452 101.032C185.638 101.038 185.827 101.049 186.019 101.064C186.214 101.076 186.403 101.098 186.586 101.131C186.772 101.164 186.937 101.218 187.081 101.293C187.225 101.368 187.341 101.472 187.428 101.604C187.518 101.736 187.563 101.907 187.563 102.117C187.563 102.312 187.513 102.501 187.414 102.684C187.318 102.867 187.179 103.029 186.996 103.17C186.813 103.314 186.588 103.428 186.321 103.512C186.057 103.599 185.758 103.643 185.425 103.643C185.092 103.643 184.801 103.61 184.552 103.544C184.303 103.478 184.096 103.389 183.931 103.278C183.766 103.167 183.642 103.038 183.558 102.891C183.477 102.747 183.436 102.596 183.436 102.437C183.436 102.212 183.507 102.021 183.648 101.865C183.789 101.709 183.982 101.584 184.228 101.491C184.093 101.431 183.985 101.352 183.904 101.253C183.826 101.151 183.787 101.014 183.787 100.844C183.787 100.777 183.799 100.71 183.823 100.641C183.847 100.569 183.883 100.498 183.931 100.429C183.982 100.357 184.044 100.29 184.116 100.227C184.188 100.164 184.272 100.108 184.368 100.06C184.143 99.9345 183.967 99.768 183.841 99.561C183.715 99.351 183.652 99.108 183.652 98.832C183.652 98.61 183.694 98.409 183.778 98.229C183.865 98.046 183.985 97.8915 184.138 97.7655C184.291 97.6365 184.473 97.5375 184.683 97.4685C184.896 97.3995 185.128 97.365 185.38 97.365C185.578 97.365 185.763 97.3875 185.934 97.4325C186.105 97.4745 186.261 97.5375 186.402 97.6215H187.639ZM190.319 97.3695C190.652 97.3695 190.952 97.425 191.219 97.536C191.486 97.647 191.714 97.8045 191.903 98.0085C192.092 98.2125 192.236 98.46 192.335 98.751C192.437 99.039 192.488 99.3615 192.488 99.7185C192.488 100.078 192.437 100.402 192.335 100.69C192.236 100.978 192.092 101.224 191.903 101.428C191.714 101.632 191.486 101.79 191.219 101.901C190.952 102.009 190.652 102.063 190.319 102.063C189.983 102.063 189.68 102.009 189.41 101.901C189.143 101.79 188.915 101.632 188.726 101.428C188.537 101.224 188.391 100.978 188.289 100.69C188.19 100.402 188.141 100.078 188.141 99.7185C188.141 99.3615 188.19 99.039 188.289 98.751C188.391 98.46 188.537 98.2125 188.726 98.0085C188.915 97.8045 189.143 97.647 189.41 97.536C189.68 97.425 189.983 97.3695 190.319 97.3695ZM190.319 101.438C190.769 101.438 191.105 101.287 191.327 100.987C191.549 100.684 191.66 100.263 191.66 99.723C191.66 99.18 191.549 98.757 191.327 98.454C191.105 98.151 190.769 97.9995 190.319 97.9995C190.091 97.9995 189.891 98.0385 189.72 98.1165C189.552 98.1945 189.411 98.307 189.297 98.454C189.186 98.601 189.102 98.7825 189.045 98.9985C188.991 99.2115 188.964 99.453 188.964 99.723C188.964 100.263 189.075 100.684 189.297 100.987C189.522 101.287 189.863 101.438 190.319 101.438ZM194.332 95.3715V102H193.531V95.3715H194.332ZM198.601 98.526C198.451 98.325 198.289 98.1855 198.115 98.1075C197.941 98.0265 197.746 97.986 197.53 97.986C197.107 97.986 196.781 98.1375 196.553 98.4405C196.325 98.7435 196.211 99.1755 196.211 99.7365C196.211 100.033 196.237 100.288 196.288 100.501C196.339 100.711 196.414 100.885 196.513 101.023C196.612 101.158 196.733 101.257 196.877 101.32C197.021 101.383 197.185 101.415 197.368 101.415C197.632 101.415 197.861 101.355 198.056 101.235C198.254 101.115 198.436 100.945 198.601 100.726V98.526ZM199.402 95.3715V102H198.925C198.811 102 198.739 101.944 198.709 101.833L198.637 101.28C198.442 101.514 198.22 101.703 197.971 101.847C197.722 101.991 197.434 102.063 197.107 102.063C196.846 102.063 196.609 102.013 196.396 101.914C196.183 101.812 196.001 101.664 195.851 101.469C195.701 101.274 195.586 101.031 195.505 100.74C195.424 100.449 195.383 100.114 195.383 99.7365C195.383 99.4005 195.428 99.0885 195.518 98.8005C195.608 98.5095 195.737 98.2575 195.905 98.0445C196.073 97.8315 196.279 97.665 196.522 97.545C196.768 97.422 197.044 97.3605 197.35 97.3605C197.629 97.3605 197.867 97.4085 198.065 97.5045C198.266 97.5975 198.445 97.728 198.601 97.896V95.3715H199.402ZM201.22 95.1195C201.346 95.3325 201.432 95.5575 201.477 95.7945C201.522 96.0315 201.526 96.2655 201.49 96.4965C201.454 96.7275 201.379 96.9495 201.265 97.1625C201.151 97.3755 201 97.5645 200.811 97.7295L200.568 97.572C200.523 97.545 200.502 97.5105 200.505 97.4685C200.511 97.4235 200.526 97.3875 200.55 97.3605C200.628 97.2645 200.694 97.149 200.748 97.014C200.805 96.876 200.841 96.729 200.856 96.573C200.874 96.414 200.866 96.2505 200.833 96.0825C200.803 95.9145 200.742 95.7525 200.649 95.5965C200.61 95.5335 200.598 95.478 200.613 95.43C200.631 95.379 200.668 95.3415 200.725 95.3175L201.22 95.1195ZM202.588 95.1195C202.714 95.3325 202.8 95.5575 202.845 95.7945C202.89 96.0315 202.894 96.2655 202.858 96.4965C202.822 96.7275 202.747 96.9495 202.633 97.1625C202.519 97.3755 202.368 97.5645 202.179 97.7295L201.936 97.572C201.891 97.545 201.87 97.5105 201.873 97.4685C201.879 97.4235 201.894 97.3875 201.918 97.3605C201.996 97.2645 202.062 97.149 202.116 97.014C202.173 96.876 202.209 96.729 202.224 96.573C202.242 96.414 202.234 96.2505 202.201 96.0825C202.171 95.9145 202.11 95.7525 202.017 95.5965C201.978 95.5335 201.966 95.478 201.981 95.43C201.999 95.379 202.036 95.3415 202.093 95.3175L202.588 95.1195Z" fill="black"/>
</g>
</g>
</svg>
