<svg viewBox="0 0 360 106" fill="none" xmlns="http://www.w3.org/2000/svg">
<g id="hashmap-put-quadratic-probing">
<g id="array">
<rect id="Rectangle 1" x="0.5" y="50.5" width="51.5745" height="55" stroke="black"/>
<rect id="Rectangle 7" x="303.071" y="50.5" width="49.4286" height="55" stroke="black"/>
<rect id="Rectangle 6" x="253.716" y="50.5" width="48.3556" height="55" stroke="black"/>
<rect id="Rectangle 5" x="203.287" y="50.5" width="49.4286" height="55" stroke="black"/>
<rect id="Rectangle 4" x="152.859" y="50.5" width="49.4286" height="55" stroke="black"/>
<rect id="Rectangle 3" x="102.43" y="50.5" width="49.4286" height="55" stroke="black"/>
<rect id="Rectangle 2" x="53.0745" y="50.5" width="48.3556" height="55" stroke="black"/>
<g id="pair">
<circle id="node-template" cx="329" cy="79" r="22.5" stroke="black"/>
<g id="params">
<path id="key=&#226;&#128;&#156;john&#226;&#128;&#157;" d="M310.662 71.3715V75.273H310.869C310.929 75.273 310.978 75.2655 311.017 75.2505C311.059 75.2325 311.103 75.198 311.148 75.147L312.588 73.6035C312.63 73.5525 312.673 73.5135 312.718 73.4865C312.766 73.4565 312.829 73.4415 312.907 73.4415H313.632L311.953 75.228C311.872 75.33 311.785 75.4095 311.692 75.4665C311.746 75.5025 311.794 75.5445 311.836 75.5925C311.881 75.6375 311.923 75.69 311.962 75.75L313.744 78H313.029C312.96 78 312.9 77.9895 312.849 77.9685C312.801 77.9445 312.759 77.9025 312.723 77.8425L311.224 75.975C311.179 75.912 311.134 75.8715 311.089 75.8535C311.047 75.8325 310.981 75.822 310.891 75.822H310.662V78H309.856V71.3715H310.662ZM317.223 75.2235C317.223 75.0375 317.196 74.868 317.142 74.715C317.091 74.559 317.014 74.4255 316.912 74.3145C316.813 74.2005 316.692 74.1135 316.548 74.0535C316.404 73.9905 316.24 73.959 316.057 73.959C315.673 73.959 315.369 74.0715 315.144 74.2965C314.922 74.5185 314.784 74.8275 314.73 75.2235H317.223ZM317.871 77.361C317.772 77.481 317.653 77.586 317.515 77.676C317.377 77.763 317.229 77.835 317.07 77.892C316.914 77.949 316.752 77.991 316.584 78.018C316.416 78.048 316.249 78.063 316.084 78.063C315.769 78.063 315.478 78.0105 315.211 77.9055C314.947 77.7975 314.718 77.6415 314.523 77.4375C314.331 77.2305 314.181 76.9755 314.073 76.6725C313.965 76.3695 313.911 76.0215 313.911 75.6285C313.911 75.3105 313.959 75.0135 314.055 74.7375C314.154 74.4615 314.295 74.223 314.478 74.022C314.661 73.818 314.884 73.659 315.148 73.545C315.412 73.428 315.709 73.3695 316.039 73.3695C316.312 73.3695 316.564 73.416 316.795 73.509C317.029 73.599 317.23 73.731 317.398 73.905C317.569 74.076 317.703 74.289 317.799 74.544C317.895 74.796 317.943 75.084 317.943 75.408C317.943 75.534 317.929 75.618 317.902 75.66C317.875 75.702 317.824 75.723 317.749 75.723H314.703C314.712 76.011 314.751 76.2615 314.82 76.4745C314.892 76.6875 314.991 76.866 315.117 77.01C315.243 77.151 315.393 77.2575 315.567 77.3295C315.741 77.3985 315.936 77.433 316.152 77.433C316.353 77.433 316.525 77.4105 316.669 77.3655C316.816 77.3175 316.942 77.2665 317.047 77.2125C317.152 77.1585 317.239 77.109 317.308 77.064C317.38 77.016 317.442 76.992 317.493 76.992C317.559 76.992 317.61 77.0175 317.646 77.0685L317.871 77.361ZM322.745 73.4415L320.203 79.3455C320.176 79.4055 320.141 79.4535 320.099 79.4895C320.06 79.5255 319.999 79.5435 319.915 79.5435H319.321L320.153 77.7345L318.272 73.4415H318.965C319.034 73.4415 319.088 73.4595 319.127 73.4955C319.169 73.5285 319.198 73.566 319.213 73.608L320.432 76.479C320.48 76.605 320.521 76.737 320.554 76.875C320.596 76.734 320.641 76.6005 320.689 76.4745L321.872 73.608C321.89 73.56 321.92 73.521 321.962 73.491C322.007 73.458 322.057 73.4415 322.111 73.4415H322.745ZM323.493 75.417H327.363V76.0245H323.493V75.417ZM323.493 73.9095H327.363V74.517H323.493V73.9095ZM328.804 73.725C328.678 73.512 328.593 73.2885 328.548 73.0545C328.503 72.8175 328.498 72.5835 328.534 72.3525C328.57 72.1215 328.645 71.901 328.759 71.691C328.873 71.478 329.025 71.2875 329.214 71.1195L329.457 71.2725C329.502 71.3025 329.521 71.34 329.515 71.385C329.512 71.427 329.499 71.46 329.475 71.484C329.397 71.58 329.329 71.697 329.272 71.835C329.218 71.973 329.184 72.1215 329.169 72.2805C329.154 72.4365 329.161 72.5985 329.191 72.7665C329.221 72.9345 329.283 73.0965 329.376 73.2525C329.415 73.3155 329.425 73.3725 329.407 73.4235C329.392 73.4715 329.356 73.5075 329.299 73.5315L328.804 73.725ZM330.172 73.725C330.046 73.512 329.961 73.2885 329.916 73.0545C329.871 72.8175 329.866 72.5835 329.902 72.3525C329.938 72.1215 330.013 71.901 330.127 71.691C330.241 71.478 330.393 71.2875 330.582 71.1195L330.825 71.2725C330.87 71.3025 330.889 71.34 330.883 71.385C330.88 71.427 330.867 71.46 330.843 71.484C330.765 71.58 330.697 71.697 330.64 71.835C330.586 71.973 330.552 72.1215 330.537 72.2805C330.522 72.4365 330.529 72.5985 330.559 72.7665C330.589 72.9345 330.651 73.0965 330.744 73.2525C330.783 73.3155 330.793 73.3725 330.775 73.4235C330.76 73.4715 330.724 73.5075 330.667 73.5315L330.172 73.725ZM332.807 73.4415V78.3375C332.807 78.5205 332.783 78.69 332.735 78.846C332.687 79.005 332.61 79.143 332.505 79.26C332.4 79.377 332.265 79.4685 332.1 79.5345C331.938 79.6035 331.743 79.638 331.515 79.638C331.419 79.638 331.331 79.6305 331.25 79.6155C331.169 79.6005 331.088 79.578 331.007 79.548L331.038 79.116C331.044 79.089 331.055 79.068 331.07 79.053C331.082 79.041 331.1 79.0335 331.124 79.0305C331.148 79.0275 331.179 79.026 331.218 79.026C331.254 79.029 331.301 79.0305 331.358 79.0305C331.592 79.0305 331.758 78.975 331.857 78.864C331.956 78.756 332.006 78.5805 332.006 78.3375V73.4415H332.807ZM332.973 72.0105C332.973 72.0885 332.957 72.162 332.924 72.231C332.894 72.297 332.852 72.357 332.798 72.411C332.747 72.462 332.687 72.5025 332.618 72.5325C332.549 72.5625 332.475 72.5775 332.397 72.5775C332.319 72.5775 332.246 72.5625 332.177 72.5325C332.111 72.5025 332.052 72.462 332.001 72.411C331.95 72.357 331.91 72.297 331.88 72.231C331.85 72.162 331.835 72.0885 331.835 72.0105C331.835 71.9325 331.85 71.859 331.88 71.79C331.91 71.718 331.95 71.6565 332.001 71.6055C332.052 71.5515 332.111 71.5095 332.177 71.4795C332.246 71.4495 332.319 71.4345 332.397 71.4345C332.475 71.4345 332.549 71.4495 332.618 71.4795C332.687 71.5095 332.747 71.5515 332.798 71.6055C332.852 71.6565 332.894 71.718 332.924 71.79C332.957 71.859 332.973 71.9325 332.973 72.0105ZM336.044 73.3695C336.377 73.3695 336.677 73.425 336.944 73.536C337.211 73.647 337.439 73.8045 337.628 74.0085C337.817 74.2125 337.961 74.46 338.06 74.751C338.162 75.039 338.213 75.3615 338.213 75.7185C338.213 76.0785 338.162 76.4025 338.06 76.6905C337.961 76.9785 337.817 77.2245 337.628 77.4285C337.439 77.6325 337.211 77.79 336.944 77.901C336.677 78.009 336.377 78.063 336.044 78.063C335.708 78.063 335.405 78.009 335.135 77.901C334.868 77.79 334.64 77.6325 334.451 77.4285C334.262 77.2245 334.117 76.9785 334.015 76.6905C333.916 76.4025 333.866 76.0785 333.866 75.7185C333.866 75.3615 333.916 75.039 334.015 74.751C334.117 74.46 334.262 74.2125 334.451 74.0085C334.64 73.8045 334.868 73.647 335.135 73.536C335.405 73.425 335.708 73.3695 336.044 73.3695ZM336.044 77.4375C336.494 77.4375 336.83 77.2875 337.052 76.9875C337.274 76.6845 337.385 76.263 337.385 75.723C337.385 75.18 337.274 74.757 337.052 74.454C336.83 74.151 336.494 73.9995 336.044 73.9995C335.816 73.9995 335.617 74.0385 335.446 74.1165C335.278 74.1945 335.137 74.307 335.023 74.454C334.912 74.601 334.828 74.7825 334.771 74.9985C334.717 75.2115 334.69 75.453 334.69 75.723C334.69 76.263 334.801 76.6845 335.023 76.9875C335.248 77.2875 335.588 77.4375 336.044 77.4375ZM340.035 74.049C340.23 73.842 340.446 73.677 340.683 73.554C340.92 73.431 341.193 73.3695 341.502 73.3695C341.751 73.3695 341.97 73.4115 342.159 73.4955C342.351 73.5765 342.51 73.6935 342.636 73.8465C342.765 73.9965 342.862 74.178 342.928 74.391C342.994 74.604 343.027 74.8395 343.027 75.0975V78H342.222V75.0975C342.222 74.7525 342.142 74.4855 341.983 74.2965C341.827 74.1045 341.589 74.0085 341.268 74.0085C341.031 74.0085 340.809 74.0655 340.602 74.1795C340.398 74.2935 340.209 74.448 340.035 74.643V78H339.229V71.3715H340.035V74.049ZM345.004 74.103C345.103 73.992 345.208 73.8915 345.319 73.8015C345.43 73.7115 345.547 73.635 345.67 73.572C345.796 73.506 345.928 73.4565 346.066 73.4235C346.207 73.3875 346.358 73.3695 346.52 73.3695C346.769 73.3695 346.988 73.4115 347.177 73.4955C347.369 73.5765 347.528 73.6935 347.654 73.8465C347.783 73.9965 347.881 74.178 347.947 74.391C348.013 74.604 348.046 74.8395 348.046 75.0975V78H347.24V75.0975C347.24 74.7525 347.161 74.4855 347.002 74.2965C346.846 74.1045 346.607 74.0085 346.286 74.0085C346.049 74.0085 345.827 74.0655 345.62 74.1795C345.416 74.2935 345.227 74.448 345.053 74.643V78H344.248V73.4415H344.729C344.843 73.4415 344.914 73.497 344.941 73.608L345.004 74.103ZM349.679 71.1195C349.805 71.3325 349.891 71.5575 349.936 71.7945C349.981 72.0315 349.985 72.2655 349.949 72.4965C349.913 72.7275 349.838 72.9495 349.724 73.1625C349.61 73.3755 349.459 73.5645 349.27 73.7295L349.027 73.572C348.982 73.545 348.961 73.5105 348.964 73.4685C348.97 73.4235 348.985 73.3875 349.009 73.3605C349.087 73.2645 349.153 73.149 349.207 73.014C349.264 72.876 349.3 72.729 349.315 72.573C349.333 72.414 349.325 72.2505 349.292 72.0825C349.262 71.9145 349.201 71.7525 349.108 71.5965C349.069 71.5335 349.057 71.478 349.072 71.43C349.09 71.379 349.127 71.3415 349.184 71.3175L349.679 71.1195ZM351.047 71.1195C351.173 71.3325 351.259 71.5575 351.304 71.7945C351.349 72.0315 351.353 72.2655 351.317 72.4965C351.281 72.7275 351.206 72.9495 351.092 73.1625C350.978 73.3755 350.827 73.5645 350.638 73.7295L350.395 73.572C350.35 73.545 350.329 73.5105 350.332 73.4685C350.338 73.4235 350.353 73.3875 350.377 73.3605C350.455 73.2645 350.521 73.149 350.575 73.014C350.632 72.876 350.668 72.729 350.683 72.573C350.701 72.414 350.693 72.2505 350.66 72.0825C350.63 71.9145 350.569 71.7525 350.476 71.5965C350.437 71.5335 350.425 71.478 350.44 71.43C350.458 71.379 350.495 71.3415 350.552 71.3175L351.047 71.1195Z" fill="black"/>
<path id="val=&#226;&#128;&#156;blue&#226;&#128;&#157;" d="M313.182 84.4415L311.323 89H310.603L308.745 84.4415H309.397C309.463 84.4415 309.517 84.458 309.559 84.491C309.601 84.524 309.63 84.563 309.645 84.608L310.801 87.542C310.837 87.653 310.869 87.761 310.896 87.866C310.923 87.971 310.948 88.076 310.972 88.181C310.996 88.076 311.022 87.971 311.049 87.866C311.076 87.761 311.109 87.653 311.148 87.542L312.318 84.608C312.336 84.56 312.366 84.521 312.408 84.491C312.45 84.458 312.499 84.4415 312.556 84.4415H313.182ZM316.29 86.948C315.921 86.96 315.606 86.99 315.345 87.038C315.087 87.083 314.876 87.143 314.711 87.218C314.549 87.293 314.43 87.3815 314.355 87.4835C314.283 87.5855 314.247 87.6995 314.247 87.8255C314.247 87.9455 314.267 88.049 314.306 88.136C314.345 88.223 314.397 88.295 314.463 88.352C314.532 88.406 314.612 88.4465 314.702 88.4735C314.795 88.4975 314.894 88.5095 314.999 88.5095C315.14 88.5095 315.269 88.496 315.386 88.469C315.503 88.439 315.612 88.397 315.714 88.343C315.819 88.289 315.918 88.2245 316.011 88.1495C316.107 88.0745 316.2 87.989 316.29 87.893V86.948ZM313.703 85.085C313.955 84.842 314.226 84.6605 314.517 84.5405C314.808 84.4205 315.131 84.3605 315.485 84.3605C315.74 84.3605 315.966 84.4025 316.164 84.4865C316.362 84.5705 316.529 84.6875 316.664 84.8375C316.799 84.9875 316.901 85.169 316.97 85.382C317.039 85.595 317.073 85.829 317.073 86.084V89H316.718C316.64 89 316.58 88.988 316.538 88.964C316.496 88.937 316.463 88.886 316.439 88.811L316.349 88.379C316.229 88.49 316.112 88.589 315.998 88.676C315.884 88.76 315.764 88.832 315.638 88.892C315.512 88.949 315.377 88.9925 315.233 89.0225C315.092 89.0555 314.934 89.072 314.76 89.072C314.583 89.072 314.417 89.048 314.261 89C314.105 88.949 313.968 88.874 313.851 88.775C313.737 88.676 313.646 88.5515 313.577 88.4015C313.511 88.2485 313.478 88.0685 313.478 87.8615C313.478 87.6815 313.527 87.509 313.626 87.344C313.725 87.176 313.886 87.0275 314.108 86.8985C314.33 86.7695 314.619 86.6645 314.976 86.5835C315.333 86.4995 315.771 86.4515 316.29 86.4395V86.084C316.29 85.73 316.214 85.463 316.061 85.283C315.908 85.1 315.684 85.0085 315.39 85.0085C315.192 85.0085 315.026 85.034 314.891 85.085C314.759 85.133 314.643 85.1885 314.544 85.2515C314.448 85.3115 314.364 85.367 314.292 85.418C314.223 85.466 314.154 85.49 314.085 85.49C314.031 85.49 313.985 85.4765 313.946 85.4495C313.907 85.4195 313.874 85.3835 313.847 85.3415L313.703 85.085ZM319.121 82.3715V89H318.32V82.3715H319.121ZM320.461 86.417H324.331V87.0245H320.461V86.417ZM320.461 84.9095H324.331V85.517H320.461V84.9095ZM325.771 84.725C325.645 84.512 325.56 84.2885 325.515 84.0545C325.47 83.8175 325.465 83.5835 325.501 83.3525C325.537 83.1215 325.612 82.901 325.726 82.691C325.84 82.478 325.992 82.2875 326.181 82.1195L326.424 82.2725C326.469 82.3025 326.488 82.34 326.482 82.385C326.479 82.427 326.466 82.46 326.442 82.484C326.364 82.58 326.296 82.697 326.239 82.835C326.185 82.973 326.151 83.1215 326.136 83.2805C326.121 83.4365 326.128 83.5985 326.158 83.7665C326.188 83.9345 326.25 84.0965 326.343 84.2525C326.382 84.3155 326.392 84.3725 326.374 84.4235C326.359 84.4715 326.323 84.5075 326.266 84.5315L325.771 84.725ZM327.139 84.725C327.013 84.512 326.928 84.2885 326.883 84.0545C326.838 83.8175 326.833 83.5835 326.869 83.3525C326.905 83.1215 326.98 82.901 327.094 82.691C327.208 82.478 327.36 82.2875 327.549 82.1195L327.792 82.2725C327.837 82.3025 327.856 82.34 327.85 82.385C327.847 82.427 327.834 82.46 327.81 82.484C327.732 82.58 327.664 82.697 327.607 82.835C327.553 82.973 327.519 83.1215 327.504 83.2805C327.489 83.4365 327.496 83.5985 327.526 83.7665C327.556 83.9345 327.618 84.0965 327.711 84.2525C327.75 84.3155 327.76 84.3725 327.742 84.4235C327.727 84.4715 327.691 84.5075 327.634 84.5315L327.139 84.725ZM329.733 87.902C329.88 88.1 330.041 88.2395 330.215 88.3205C330.392 88.4015 330.585 88.442 330.795 88.442C331.224 88.442 331.553 88.2905 331.781 87.9875C332.009 87.6845 332.123 87.233 332.123 86.633C332.123 86.075 332.021 85.6655 331.817 85.4045C331.616 85.1405 331.328 85.0085 330.953 85.0085C330.692 85.0085 330.464 85.0685 330.269 85.1885C330.077 85.3085 329.898 85.478 329.733 85.697V87.902ZM329.733 85.0985C329.925 84.8765 330.141 84.6995 330.381 84.5675C330.624 84.4355 330.903 84.3695 331.218 84.3695C331.485 84.3695 331.725 84.4205 331.938 84.5225C332.154 84.6245 332.337 84.773 332.487 84.968C332.637 85.16 332.751 85.394 332.829 85.67C332.91 85.946 332.951 86.2565 332.951 86.6015C332.951 86.9705 332.906 87.3065 332.816 87.6095C332.726 87.9125 332.595 88.172 332.424 88.388C332.256 88.601 332.051 88.7675 331.808 88.8875C331.565 89.0045 331.292 89.063 330.989 89.063C330.689 89.063 330.435 89.0075 330.228 88.8965C330.024 88.7825 329.846 88.622 329.693 88.415L329.652 88.829C329.628 88.943 329.559 89 329.445 89H328.928V82.3715H329.733V85.0985ZM334.792 82.3715V89H333.991V82.3715H334.792ZM339.84 84.4415V89H339.363C339.249 89 339.177 88.9445 339.147 88.8335L339.084 88.343C338.886 88.562 338.664 88.739 338.418 88.874C338.172 89.006 337.89 89.072 337.572 89.072C337.323 89.072 337.102 89.0315 336.91 88.9505C336.721 88.8665 336.562 88.7495 336.433 88.5995C336.304 88.4495 336.207 88.268 336.141 88.055C336.078 87.842 336.046 87.6065 336.046 87.3485V84.4415H336.847V87.3485C336.847 87.6935 336.925 87.9605 337.081 88.1495C337.24 88.3385 337.482 88.433 337.806 88.433C338.043 88.433 338.263 88.3775 338.467 88.2665C338.674 88.1525 338.865 87.9965 339.039 87.7985V84.4415H339.84ZM344.161 86.2235C344.161 86.0375 344.134 85.868 344.08 85.715C344.029 85.559 343.952 85.4255 343.85 85.3145C343.751 85.2005 343.63 85.1135 343.486 85.0535C343.342 84.9905 343.178 84.959 342.995 84.959C342.611 84.959 342.307 85.0715 342.082 85.2965C341.86 85.5185 341.722 85.8275 341.668 86.2235H344.161ZM344.809 88.361C344.71 88.481 344.591 88.586 344.453 88.676C344.315 88.763 344.167 88.835 344.008 88.892C343.852 88.949 343.69 88.991 343.522 89.018C343.354 89.048 343.187 89.063 343.022 89.063C342.707 89.063 342.416 89.0105 342.149 88.9055C341.885 88.7975 341.656 88.6415 341.461 88.4375C341.269 88.2305 341.119 87.9755 341.011 87.6725C340.903 87.3695 340.849 87.0215 340.849 86.6285C340.849 86.3105 340.897 86.0135 340.993 85.7375C341.092 85.4615 341.233 85.223 341.416 85.022C341.599 84.818 341.822 84.659 342.086 84.545C342.35 84.428 342.647 84.3695 342.977 84.3695C343.25 84.3695 343.502 84.416 343.733 84.509C343.967 84.599 344.168 84.731 344.336 84.905C344.507 85.076 344.641 85.289 344.737 85.544C344.833 85.796 344.881 86.084 344.881 86.408C344.881 86.534 344.867 86.618 344.84 86.66C344.813 86.702 344.762 86.723 344.687 86.723H341.641C341.65 87.011 341.689 87.2615 341.758 87.4745C341.83 87.6875 341.929 87.866 342.055 88.01C342.181 88.151 342.331 88.2575 342.505 88.3295C342.679 88.3985 342.874 88.433 343.09 88.433C343.291 88.433 343.463 88.4105 343.607 88.3655C343.754 88.3175 343.88 88.2665 343.985 88.2125C344.09 88.1585 344.177 88.109 344.246 88.064C344.318 88.016 344.38 87.992 344.431 87.992C344.497 87.992 344.548 88.0175 344.584 88.0685L344.809 88.361ZM346.26 82.1195C346.386 82.3325 346.471 82.5575 346.516 82.7945C346.561 83.0315 346.566 83.2655 346.53 83.4965C346.494 83.7275 346.419 83.9495 346.305 84.1625C346.191 84.3755 346.039 84.5645 345.85 84.7295L345.607 84.572C345.562 84.545 345.541 84.5105 345.544 84.4685C345.55 84.4235 345.565 84.3875 345.589 84.3605C345.667 84.2645 345.733 84.149 345.787 84.014C345.844 83.876 345.88 83.729 345.895 83.573C345.913 83.414 345.906 83.2505 345.873 83.0825C345.843 82.9145 345.781 82.7525 345.688 82.5965C345.649 82.5335 345.637 82.478 345.652 82.43C345.67 82.379 345.708 82.3415 345.765 82.3175L346.26 82.1195ZM347.628 82.1195C347.754 82.3325 347.839 82.5575 347.884 82.7945C347.929 83.0315 347.934 83.2655 347.898 83.4965C347.862 83.7275 347.787 83.9495 347.673 84.1625C347.559 84.3755 347.407 84.5645 347.218 84.7295L346.975 84.572C346.93 84.545 346.909 84.5105 346.912 84.4685C346.918 84.4235 346.933 84.3875 346.957 84.3605C347.035 84.2645 347.101 84.149 347.155 84.014C347.212 83.876 347.248 83.729 347.263 83.573C347.281 83.414 347.274 83.2505 347.241 83.0825C347.211 82.9145 347.149 82.7525 347.056 82.5965C347.017 82.5335 347.005 82.478 347.02 82.43C347.038 82.379 347.076 82.3415 347.133 82.3175L347.628 82.1195Z" fill="black"/>
</g>
</g>
<g id="pair_2">
<circle id="node-template_2" cx="228" cy="77" r="22.5" stroke="black"/>
<g id="params_2">
<path id="key=&#226;&#128;&#156;sue&#226;&#128;&#157;" d="M211.569 69.3715V73.273H211.776C211.836 73.273 211.885 73.2655 211.924 73.2505C211.966 73.2325 212.01 73.198 212.055 73.147L213.495 71.6035C213.537 71.5525 213.58 71.5135 213.625 71.4865C213.673 71.4565 213.736 71.4415 213.814 71.4415H214.539L212.86 73.228C212.779 73.33 212.692 73.4095 212.599 73.4665C212.653 73.5025 212.701 73.5445 212.743 73.5925C212.788 73.6375 212.83 73.69 212.869 73.75L214.651 76H213.936C213.867 76 213.807 75.9895 213.756 75.9685C213.708 75.9445 213.666 75.9025 213.63 75.8425L212.131 73.975C212.086 73.912 212.041 73.8715 211.996 73.8535C211.954 73.8325 211.888 73.822 211.798 73.822H211.569V76H210.763V69.3715H211.569ZM218.13 73.2235C218.13 73.0375 218.103 72.868 218.049 72.715C217.998 72.559 217.921 72.4255 217.819 72.3145C217.72 72.2005 217.599 72.1135 217.455 72.0535C217.311 71.9905 217.147 71.959 216.964 71.959C216.58 71.959 216.276 72.0715 216.051 72.2965C215.829 72.5185 215.691 72.8275 215.637 73.2235H218.13ZM218.778 75.361C218.679 75.481 218.56 75.586 218.422 75.676C218.284 75.763 218.136 75.835 217.977 75.892C217.821 75.949 217.659 75.991 217.491 76.018C217.323 76.048 217.156 76.063 216.991 76.063C216.676 76.063 216.385 76.0105 216.118 75.9055C215.854 75.7975 215.625 75.6415 215.43 75.4375C215.238 75.2305 215.088 74.9755 214.98 74.6725C214.872 74.3695 214.818 74.0215 214.818 73.6285C214.818 73.3105 214.866 73.0135 214.962 72.7375C215.061 72.4615 215.202 72.223 215.385 72.022C215.568 71.818 215.791 71.659 216.055 71.545C216.319 71.428 216.616 71.3695 216.946 71.3695C217.219 71.3695 217.471 71.416 217.702 71.509C217.936 71.599 218.137 71.731 218.305 71.905C218.476 72.076 218.61 72.289 218.706 72.544C218.802 72.796 218.85 73.084 218.85 73.408C218.85 73.534 218.836 73.618 218.809 73.66C218.782 73.702 218.731 73.723 218.656 73.723H215.61C215.619 74.011 215.658 74.2615 215.727 74.4745C215.799 74.6875 215.898 74.866 216.024 75.01C216.15 75.151 216.3 75.2575 216.474 75.3295C216.648 75.3985 216.843 75.433 217.059 75.433C217.26 75.433 217.432 75.4105 217.576 75.3655C217.723 75.3175 217.849 75.2665 217.954 75.2125C218.059 75.1585 218.146 75.109 218.215 75.064C218.287 75.016 218.349 74.992 218.4 74.992C218.466 74.992 218.517 75.0175 218.553 75.0685L218.778 75.361ZM223.652 71.4415L221.11 77.3455C221.083 77.4055 221.048 77.4535 221.006 77.4895C220.967 77.5255 220.906 77.5435 220.822 77.5435H220.228L221.06 75.7345L219.179 71.4415H219.872C219.941 71.4415 219.995 71.4595 220.034 71.4955C220.076 71.5285 220.105 71.566 220.12 71.608L221.339 74.479C221.387 74.605 221.428 74.737 221.461 74.875C221.503 74.734 221.548 74.6005 221.596 74.4745L222.779 71.608C222.797 71.56 222.827 71.521 222.869 71.491C222.914 71.458 222.964 71.4415 223.018 71.4415H223.652ZM224.401 73.417H228.271V74.0245H224.401V73.417ZM224.401 71.9095H228.271V72.517H224.401V71.9095ZM229.711 71.725C229.585 71.512 229.5 71.2885 229.455 71.0545C229.41 70.8175 229.405 70.5835 229.441 70.3525C229.477 70.1215 229.552 69.901 229.666 69.691C229.78 69.478 229.932 69.2875 230.121 69.1195L230.364 69.2725C230.409 69.3025 230.428 69.34 230.422 69.385C230.419 69.427 230.406 69.46 230.382 69.484C230.304 69.58 230.236 69.697 230.179 69.835C230.125 69.973 230.091 70.1215 230.076 70.2805C230.061 70.4365 230.068 70.5985 230.098 70.7665C230.128 70.9345 230.19 71.0965 230.283 71.2525C230.322 71.3155 230.332 71.3725 230.314 71.4235C230.299 71.4715 230.263 71.5075 230.206 71.5315L229.711 71.725ZM231.079 71.725C230.953 71.512 230.868 71.2885 230.823 71.0545C230.778 70.8175 230.773 70.5835 230.809 70.3525C230.845 70.1215 230.92 69.901 231.034 69.691C231.148 69.478 231.3 69.2875 231.489 69.1195L231.732 69.2725C231.777 69.3025 231.796 69.34 231.79 69.385C231.787 69.427 231.774 69.46 231.75 69.484C231.672 69.58 231.604 69.697 231.547 69.835C231.493 69.973 231.459 70.1215 231.444 70.2805C231.429 70.4365 231.436 70.5985 231.466 70.7665C231.496 70.9345 231.558 71.0965 231.651 71.2525C231.69 71.3155 231.7 71.3725 231.682 71.4235C231.667 71.4715 231.631 71.5075 231.574 71.5315L231.079 71.725ZM235.365 72.193C235.329 72.259 235.273 72.292 235.198 72.292C235.153 72.292 235.102 72.2755 235.045 72.2425C234.988 72.2095 234.918 72.1735 234.834 72.1345C234.753 72.0925 234.655 72.055 234.541 72.022C234.427 71.986 234.292 71.968 234.136 71.968C234.001 71.968 233.88 71.986 233.772 72.022C233.664 72.055 233.571 72.1015 233.493 72.1615C233.418 72.2215 233.359 72.292 233.317 72.373C233.278 72.451 233.259 72.5365 233.259 72.6295C233.259 72.7465 233.292 72.844 233.358 72.922C233.427 73 233.517 73.0675 233.628 73.1245C233.739 73.1815 233.865 73.2325 234.006 73.2775C234.147 73.3195 234.291 73.366 234.438 73.417C234.588 73.465 234.733 73.519 234.874 73.579C235.015 73.639 235.141 73.714 235.252 73.804C235.363 73.894 235.452 74.005 235.518 74.137C235.587 74.266 235.621 74.422 235.621 74.605C235.621 74.815 235.584 75.01 235.509 75.19C235.434 75.367 235.323 75.5215 235.176 75.6535C235.029 75.7825 234.849 75.8845 234.636 75.9595C234.423 76.0345 234.177 76.072 233.898 76.072C233.58 76.072 233.292 76.021 233.034 75.919C232.776 75.814 232.557 75.6805 232.377 75.5185L232.566 75.2125C232.59 75.1735 232.618 75.1435 232.651 75.1225C232.684 75.1015 232.726 75.091 232.777 75.091C232.831 75.091 232.888 75.112 232.948 75.154C233.008 75.196 233.08 75.2425 233.164 75.2935C233.251 75.3445 233.356 75.391 233.479 75.433C233.602 75.475 233.755 75.496 233.938 75.496C234.094 75.496 234.231 75.4765 234.348 75.4375C234.465 75.3955 234.562 75.34 234.64 75.271C234.718 75.202 234.775 75.1225 234.811 75.0325C234.85 74.9425 234.87 74.8465 234.87 74.7445C234.87 74.6185 234.835 74.515 234.766 74.434C234.7 74.35 234.612 74.2795 234.501 74.2225C234.39 74.1625 234.262 74.1115 234.118 74.0695C233.977 74.0245 233.832 73.978 233.682 73.93C233.535 73.882 233.389 73.828 233.245 73.768C233.104 73.705 232.978 73.627 232.867 73.534C232.756 73.441 232.666 73.327 232.597 73.192C232.531 73.054 232.498 72.8875 232.498 72.6925C232.498 72.5185 232.534 72.352 232.606 72.193C232.678 72.031 232.783 71.89 232.921 71.77C233.059 71.647 233.229 71.5495 233.43 71.4775C233.631 71.4055 233.86 71.3695 234.118 71.3695C234.418 71.3695 234.687 71.4175 234.924 71.5135C235.164 71.6065 235.371 71.7355 235.545 71.9005L235.365 72.193ZM240.352 71.4415V76H239.875C239.761 76 239.689 75.9445 239.659 75.8335L239.596 75.343C239.398 75.562 239.176 75.739 238.93 75.874C238.684 76.006 238.402 76.072 238.084 76.072C237.835 76.072 237.614 76.0315 237.422 75.9505C237.233 75.8665 237.074 75.7495 236.945 75.5995C236.816 75.4495 236.719 75.268 236.653 75.055C236.59 74.842 236.558 74.6065 236.558 74.3485V71.4415H237.359V74.3485C237.359 74.6935 237.437 74.9605 237.593 75.1495C237.752 75.3385 237.994 75.433 238.318 75.433C238.555 75.433 238.775 75.3775 238.979 75.2665C239.186 75.1525 239.377 74.9965 239.551 74.7985V71.4415H240.352ZM244.673 73.2235C244.673 73.0375 244.646 72.868 244.592 72.715C244.541 72.559 244.464 72.4255 244.362 72.3145C244.263 72.2005 244.142 72.1135 243.998 72.0535C243.854 71.9905 243.69 71.959 243.507 71.959C243.123 71.959 242.819 72.0715 242.594 72.2965C242.372 72.5185 242.234 72.8275 242.18 73.2235H244.673ZM245.321 75.361C245.222 75.481 245.103 75.586 244.965 75.676C244.827 75.763 244.679 75.835 244.52 75.892C244.364 75.949 244.202 75.991 244.034 76.018C243.866 76.048 243.699 76.063 243.534 76.063C243.219 76.063 242.928 76.0105 242.661 75.9055C242.397 75.7975 242.168 75.6415 241.973 75.4375C241.781 75.2305 241.631 74.9755 241.523 74.6725C241.415 74.3695 241.361 74.0215 241.361 73.6285C241.361 73.3105 241.409 73.0135 241.505 72.7375C241.604 72.4615 241.745 72.223 241.928 72.022C242.111 71.818 242.334 71.659 242.598 71.545C242.862 71.428 243.159 71.3695 243.489 71.3695C243.762 71.3695 244.014 71.416 244.245 71.509C244.479 71.599 244.68 71.731 244.848 71.905C245.019 72.076 245.153 72.289 245.249 72.544C245.345 72.796 245.393 73.084 245.393 73.408C245.393 73.534 245.379 73.618 245.352 73.66C245.325 73.702 245.274 73.723 245.199 73.723H242.153C242.162 74.011 242.201 74.2615 242.27 74.4745C242.342 74.6875 242.441 74.866 242.567 75.01C242.693 75.151 242.843 75.2575 243.017 75.3295C243.191 75.3985 243.386 75.433 243.602 75.433C243.803 75.433 243.975 75.4105 244.119 75.3655C244.266 75.3175 244.392 75.2665 244.497 75.2125C244.602 75.1585 244.689 75.109 244.758 75.064C244.83 75.016 244.892 74.992 244.943 74.992C245.009 74.992 245.06 75.0175 245.096 75.0685L245.321 75.361ZM246.772 69.1195C246.898 69.3325 246.983 69.5575 247.028 69.7945C247.073 70.0315 247.078 70.2655 247.042 70.4965C247.006 70.7275 246.931 70.9495 246.817 71.1625C246.703 71.3755 246.551 71.5645 246.362 71.7295L246.119 71.572C246.074 71.545 246.053 71.5105 246.056 71.4685C246.062 71.4235 246.077 71.3875 246.101 71.3605C246.179 71.2645 246.245 71.149 246.299 71.014C246.356 70.876 246.392 70.729 246.407 70.573C246.425 70.414 246.418 70.2505 246.385 70.0825C246.355 69.9145 246.293 69.7525 246.2 69.5965C246.161 69.5335 246.149 69.478 246.164 69.43C246.182 69.379 246.22 69.3415 246.277 69.3175L246.772 69.1195ZM248.14 69.1195C248.266 69.3325 248.351 69.5575 248.396 69.7945C248.441 70.0315 248.446 70.2655 248.41 70.4965C248.374 70.7275 248.299 70.9495 248.185 71.1625C248.071 71.3755 247.919 71.5645 247.73 71.7295L247.487 71.572C247.442 71.545 247.421 71.5105 247.424 71.4685C247.43 71.4235 247.445 71.3875 247.469 71.3605C247.547 71.2645 247.613 71.149 247.667 71.014C247.724 70.876 247.76 70.729 247.775 70.573C247.793 70.414 247.786 70.2505 247.753 70.0825C247.723 69.9145 247.661 69.7525 247.568 69.5965C247.529 69.5335 247.517 69.478 247.532 69.43C247.55 69.379 247.588 69.3415 247.645 69.3175L248.14 69.1195Z" fill="black"/>
<path id="val=&#226;&#128;&#156;red&#226;&#128;&#157;" d="M214.128 82.4415L212.27 87H211.55L209.691 82.4415H210.344C210.41 82.4415 210.464 82.458 210.506 82.491C210.548 82.524 210.576 82.563 210.591 82.608L211.748 85.542C211.784 85.653 211.815 85.761 211.842 85.866C211.869 85.971 211.895 86.076 211.919 86.181C211.943 86.076 211.968 85.971 211.995 85.866C212.022 85.761 212.055 85.653 212.094 85.542L213.264 82.608C213.282 82.56 213.312 82.521 213.354 82.491C213.396 82.458 213.446 82.4415 213.503 82.4415H214.128ZM217.237 84.948C216.868 84.96 216.553 84.99 216.292 85.038C216.034 85.083 215.822 85.143 215.657 85.218C215.495 85.293 215.377 85.3815 215.302 85.4835C215.23 85.5855 215.194 85.6995 215.194 85.8255C215.194 85.9455 215.213 86.049 215.252 86.136C215.291 86.223 215.344 86.295 215.41 86.352C215.479 86.406 215.558 86.4465 215.648 86.4735C215.741 86.4975 215.84 86.5095 215.945 86.5095C216.086 86.5095 216.215 86.496 216.332 86.469C216.449 86.439 216.559 86.397 216.661 86.343C216.766 86.289 216.865 86.2245 216.958 86.1495C217.054 86.0745 217.147 85.989 217.237 85.893V84.948ZM214.649 83.085C214.901 82.842 215.173 82.6605 215.464 82.5405C215.755 82.4205 216.077 82.3605 216.431 82.3605C216.686 82.3605 216.913 82.4025 217.111 82.4865C217.309 82.5705 217.475 82.6875 217.61 82.8375C217.745 82.9875 217.847 83.169 217.916 83.382C217.985 83.595 218.02 83.829 218.02 84.084V87H217.664C217.586 87 217.526 86.988 217.484 86.964C217.442 86.937 217.409 86.886 217.385 86.811L217.295 86.379C217.175 86.49 217.058 86.589 216.944 86.676C216.83 86.76 216.71 86.832 216.584 86.892C216.458 86.949 216.323 86.9925 216.179 87.0225C216.038 87.0555 215.881 87.072 215.707 87.072C215.53 87.072 215.363 87.048 215.207 87C215.051 86.949 214.915 86.874 214.798 86.775C214.684 86.676 214.592 86.5515 214.523 86.4015C214.457 86.2485 214.424 86.0685 214.424 85.8615C214.424 85.6815 214.474 85.509 214.573 85.344C214.672 85.176 214.832 85.0275 215.054 84.8985C215.276 84.7695 215.566 84.6645 215.923 84.5835C216.28 84.4995 216.718 84.4515 217.237 84.4395V84.084C217.237 83.73 217.16 83.463 217.007 83.283C216.854 83.1 216.631 83.0085 216.337 83.0085C216.139 83.0085 215.972 83.034 215.837 83.085C215.705 83.133 215.59 83.1885 215.491 83.2515C215.395 83.3115 215.311 83.367 215.239 83.418C215.17 83.466 215.101 83.49 215.032 83.49C214.978 83.49 214.931 83.4765 214.892 83.4495C214.853 83.4195 214.82 83.3835 214.793 83.3415L214.649 83.085ZM220.068 80.3715V87H219.267V80.3715H220.068ZM221.407 84.417H225.277V85.0245H221.407V84.417ZM221.407 82.9095H225.277V83.517H221.407V82.9095ZM226.718 82.725C226.592 82.512 226.507 82.2885 226.462 82.0545C226.417 81.8175 226.412 81.5835 226.448 81.3525C226.484 81.1215 226.559 80.901 226.673 80.691C226.787 80.478 226.939 80.2875 227.128 80.1195L227.371 80.2725C227.416 80.3025 227.435 80.34 227.429 80.385C227.426 80.427 227.413 80.46 227.389 80.484C227.311 80.58 227.243 80.697 227.186 80.835C227.132 80.973 227.098 81.1215 227.083 81.2805C227.068 81.4365 227.075 81.5985 227.105 81.7665C227.135 81.9345 227.197 82.0965 227.29 82.2525C227.329 82.3155 227.339 82.3725 227.321 82.4235C227.306 82.4715 227.27 82.5075 227.213 82.5315L226.718 82.725ZM228.086 82.725C227.96 82.512 227.875 82.2885 227.83 82.0545C227.785 81.8175 227.78 81.5835 227.816 81.3525C227.852 81.1215 227.927 80.901 228.041 80.691C228.155 80.478 228.307 80.2875 228.496 80.1195L228.739 80.2725C228.784 80.3025 228.803 80.34 228.797 80.385C228.794 80.427 228.781 80.46 228.757 80.484C228.679 80.58 228.611 80.697 228.554 80.835C228.5 80.973 228.466 81.1215 228.451 81.2805C228.436 81.4365 228.443 81.5985 228.473 81.7665C228.503 81.9345 228.565 82.0965 228.658 82.2525C228.697 82.3155 228.707 82.3725 228.689 82.4235C228.674 82.4715 228.638 82.5075 228.581 82.5315L228.086 82.725ZM230.635 83.355C230.779 83.043 230.956 82.8 231.166 82.626C231.376 82.449 231.633 82.3605 231.936 82.3605C232.032 82.3605 232.123 82.371 232.21 82.392C232.3 82.413 232.38 82.446 232.449 82.491L232.39 83.0895C232.372 83.1645 232.327 83.202 232.255 83.202C232.213 83.202 232.152 83.193 232.071 83.175C231.99 83.157 231.898 83.148 231.796 83.148C231.652 83.148 231.523 83.169 231.409 83.211C231.298 83.253 231.198 83.316 231.108 83.4C231.021 83.481 230.941 83.583 230.869 83.706C230.8 83.826 230.737 83.964 230.68 84.12V87H229.875V82.4415H230.334C230.421 82.4415 230.481 82.458 230.514 82.491C230.547 82.524 230.569 82.581 230.581 82.662L230.635 83.355ZM236.019 84.2235C236.019 84.0375 235.992 83.868 235.938 83.715C235.887 83.559 235.811 83.4255 235.709 83.3145C235.61 83.2005 235.488 83.1135 235.344 83.0535C235.2 82.9905 235.037 82.959 234.854 82.959C234.47 82.959 234.165 83.0715 233.94 83.2965C233.718 83.5185 233.58 83.8275 233.526 84.2235H236.019ZM236.667 86.361C236.568 86.481 236.45 86.586 236.312 86.676C236.174 86.763 236.025 86.835 235.866 86.892C235.71 86.949 235.548 86.991 235.38 87.018C235.212 87.048 235.046 87.063 234.881 87.063C234.566 87.063 234.275 87.0105 234.008 86.9055C233.744 86.7975 233.514 86.6415 233.319 86.4375C233.127 86.2305 232.977 85.9755 232.869 85.6725C232.761 85.3695 232.707 85.0215 232.707 84.6285C232.707 84.3105 232.755 84.0135 232.851 83.7375C232.95 83.4615 233.091 83.223 233.274 83.022C233.457 82.818 233.681 82.659 233.945 82.545C234.209 82.428 234.506 82.3695 234.836 82.3695C235.109 82.3695 235.361 82.416 235.592 82.509C235.826 82.599 236.027 82.731 236.195 82.905C236.366 83.076 236.499 83.289 236.595 83.544C236.691 83.796 236.739 84.084 236.739 84.408C236.739 84.534 236.726 84.618 236.699 84.66C236.672 84.702 236.621 84.723 236.546 84.723H233.499C233.508 85.011 233.547 85.2615 233.616 85.4745C233.688 85.6875 233.787 85.866 233.913 86.01C234.039 86.151 234.189 86.2575 234.363 86.3295C234.537 86.3985 234.732 86.433 234.948 86.433C235.149 86.433 235.322 86.4105 235.466 86.3655C235.613 86.3175 235.739 86.2665 235.844 86.2125C235.949 86.1585 236.036 86.109 236.105 86.064C236.177 86.016 236.238 85.992 236.289 85.992C236.355 85.992 236.406 86.0175 236.442 86.0685L236.667 86.361ZM240.693 83.526C240.543 83.325 240.381 83.1855 240.207 83.1075C240.033 83.0265 239.838 82.986 239.622 82.986C239.199 82.986 238.874 83.1375 238.646 83.4405C238.418 83.7435 238.304 84.1755 238.304 84.7365C238.304 85.0335 238.329 85.2885 238.38 85.5015C238.431 85.7115 238.506 85.8855 238.605 86.0235C238.704 86.1585 238.826 86.2575 238.97 86.3205C239.114 86.3835 239.277 86.415 239.46 86.415C239.724 86.415 239.954 86.355 240.149 86.235C240.347 86.115 240.528 85.9455 240.693 85.7265V83.526ZM241.494 80.3715V87H241.017C240.903 87 240.831 86.9445 240.801 86.8335L240.729 86.28C240.534 86.514 240.312 86.703 240.063 86.847C239.814 86.991 239.526 87.063 239.199 87.063C238.938 87.063 238.701 87.0135 238.488 86.9145C238.275 86.8125 238.094 86.664 237.944 86.469C237.794 86.274 237.678 86.031 237.597 85.74C237.516 85.449 237.476 85.1145 237.476 84.7365C237.476 84.4005 237.521 84.0885 237.611 83.8005C237.701 83.5095 237.83 83.2575 237.998 83.0445C238.166 82.8315 238.371 82.665 238.614 82.545C238.86 82.422 239.136 82.3605 239.442 82.3605C239.721 82.3605 239.96 82.4085 240.158 82.5045C240.359 82.5975 240.537 82.728 240.693 82.896V80.3715H241.494ZM243.313 80.1195C243.439 80.3325 243.525 80.5575 243.57 80.7945C243.615 81.0315 243.619 81.2655 243.583 81.4965C243.547 81.7275 243.472 81.9495 243.358 82.1625C243.244 82.3755 243.093 82.5645 242.904 82.7295L242.661 82.572C242.616 82.545 242.595 82.5105 242.598 82.4685C242.604 82.4235 242.619 82.3875 242.643 82.3605C242.721 82.2645 242.787 82.149 242.841 82.014C242.898 81.876 242.934 81.729 242.949 81.573C242.967 81.414 242.959 81.2505 242.926 81.0825C242.896 80.9145 242.835 80.7525 242.742 80.5965C242.703 80.5335 242.691 80.478 242.706 80.43C242.724 80.379 242.761 80.3415 242.818 80.3175L243.313 80.1195ZM244.681 80.1195C244.807 80.3325 244.893 80.5575 244.938 80.7945C244.983 81.0315 244.987 81.2655 244.951 81.4965C244.915 81.7275 244.84 81.9495 244.726 82.1625C244.612 82.3755 244.461 82.5645 244.272 82.7295L244.029 82.572C243.984 82.545 243.963 82.5105 243.966 82.4685C243.972 82.4235 243.987 82.3875 244.011 82.3605C244.089 82.2645 244.155 82.149 244.209 82.014C244.266 81.876 244.302 81.729 244.317 81.573C244.335 81.414 244.327 81.2505 244.294 81.0825C244.264 80.9145 244.203 80.7525 244.11 80.5965C244.071 80.5335 244.059 80.478 244.074 80.43C244.092 80.379 244.129 80.3415 244.186 80.3175L244.681 80.1195Z" fill="black"/>
</g>
</g>
<g id="pair_3">
<circle id="node-template_3" cx="178" cy="77" r="22.5" stroke="black"/>
<g id="params_3">
<path id="key=&#226;&#128;&#156;al&#226;&#128;&#157;" d="M165.032 69.3715V73.273H165.239C165.299 73.273 165.348 73.2655 165.387 73.2505C165.429 73.2325 165.473 73.198 165.518 73.147L166.958 71.6035C167 71.5525 167.043 71.5135 167.088 71.4865C167.136 71.4565 167.199 71.4415 167.277 71.4415H168.002L166.323 73.228C166.242 73.33 166.155 73.4095 166.062 73.4665C166.116 73.5025 166.164 73.5445 166.206 73.5925C166.251 73.6375 166.293 73.69 166.332 73.75L168.114 76H167.399C167.33 76 167.27 75.9895 167.219 75.9685C167.171 75.9445 167.129 75.9025 167.093 75.8425L165.594 73.975C165.549 73.912 165.504 73.8715 165.459 73.8535C165.417 73.8325 165.351 73.822 165.261 73.822H165.032V76H164.226V69.3715H165.032ZM171.593 73.2235C171.593 73.0375 171.566 72.868 171.512 72.715C171.461 72.559 171.384 72.4255 171.282 72.3145C171.183 72.2005 171.062 72.1135 170.918 72.0535C170.774 71.9905 170.61 71.959 170.427 71.959C170.043 71.959 169.739 72.0715 169.514 72.2965C169.292 72.5185 169.154 72.8275 169.1 73.2235H171.593ZM172.241 75.361C172.142 75.481 172.023 75.586 171.885 75.676C171.747 75.763 171.599 75.835 171.44 75.892C171.284 75.949 171.122 75.991 170.954 76.018C170.786 76.048 170.619 76.063 170.454 76.063C170.139 76.063 169.848 76.0105 169.581 75.9055C169.317 75.7975 169.088 75.6415 168.893 75.4375C168.701 75.2305 168.551 74.9755 168.443 74.6725C168.335 74.3695 168.281 74.0215 168.281 73.6285C168.281 73.3105 168.329 73.0135 168.425 72.7375C168.524 72.4615 168.665 72.223 168.848 72.022C169.031 71.818 169.254 71.659 169.518 71.545C169.782 71.428 170.079 71.3695 170.409 71.3695C170.682 71.3695 170.934 71.416 171.165 71.509C171.399 71.599 171.6 71.731 171.768 71.905C171.939 72.076 172.073 72.289 172.169 72.544C172.265 72.796 172.313 73.084 172.313 73.408C172.313 73.534 172.299 73.618 172.272 73.66C172.245 73.702 172.194 73.723 172.119 73.723H169.073C169.082 74.011 169.121 74.2615 169.19 74.4745C169.262 74.6875 169.361 74.866 169.487 75.01C169.613 75.151 169.763 75.2575 169.937 75.3295C170.111 75.3985 170.306 75.433 170.522 75.433C170.723 75.433 170.895 75.4105 171.039 75.3655C171.186 75.3175 171.312 75.2665 171.417 75.2125C171.522 75.1585 171.609 75.109 171.678 75.064C171.75 75.016 171.812 74.992 171.863 74.992C171.929 74.992 171.98 75.0175 172.016 75.0685L172.241 75.361ZM177.115 71.4415L174.573 77.3455C174.546 77.4055 174.511 77.4535 174.469 77.4895C174.43 77.5255 174.369 77.5435 174.285 77.5435H173.691L174.523 75.7345L172.642 71.4415H173.335C173.404 71.4415 173.458 71.4595 173.497 71.4955C173.539 71.5285 173.568 71.566 173.583 71.608L174.802 74.479C174.85 74.605 174.891 74.737 174.924 74.875C174.966 74.734 175.011 74.6005 175.059 74.4745L176.242 71.608C176.26 71.56 176.29 71.521 176.332 71.491C176.377 71.458 176.427 71.4415 176.481 71.4415H177.115ZM177.863 73.417H181.733V74.0245H177.863V73.417ZM177.863 71.9095H181.733V72.517H177.863V71.9095ZM183.174 71.725C183.048 71.512 182.963 71.2885 182.918 71.0545C182.873 70.8175 182.868 70.5835 182.904 70.3525C182.94 70.1215 183.015 69.901 183.129 69.691C183.243 69.478 183.395 69.2875 183.584 69.1195L183.827 69.2725C183.872 69.3025 183.891 69.34 183.885 69.385C183.882 69.427 183.869 69.46 183.845 69.484C183.767 69.58 183.699 69.697 183.642 69.835C183.588 69.973 183.554 70.1215 183.539 70.2805C183.524 70.4365 183.531 70.5985 183.561 70.7665C183.591 70.9345 183.653 71.0965 183.746 71.2525C183.785 71.3155 183.795 71.3725 183.777 71.4235C183.762 71.4715 183.726 71.5075 183.669 71.5315L183.174 71.725ZM184.542 71.725C184.416 71.512 184.331 71.2885 184.286 71.0545C184.241 70.8175 184.236 70.5835 184.272 70.3525C184.308 70.1215 184.383 69.901 184.497 69.691C184.611 69.478 184.763 69.2875 184.952 69.1195L185.195 69.2725C185.24 69.3025 185.259 69.34 185.253 69.385C185.25 69.427 185.237 69.46 185.213 69.484C185.135 69.58 185.067 69.697 185.01 69.835C184.956 69.973 184.922 70.1215 184.907 70.2805C184.892 70.4365 184.899 70.5985 184.929 70.7665C184.959 70.9345 185.021 71.0965 185.114 71.2525C185.153 71.3155 185.163 71.3725 185.145 71.4235C185.13 71.4715 185.094 71.5075 185.037 71.5315L184.542 71.725ZM188.626 73.948C188.257 73.96 187.942 73.99 187.681 74.038C187.423 74.083 187.211 74.143 187.046 74.218C186.884 74.293 186.766 74.3815 186.691 74.4835C186.619 74.5855 186.583 74.6995 186.583 74.8255C186.583 74.9455 186.602 75.049 186.641 75.136C186.68 75.223 186.733 75.295 186.799 75.352C186.868 75.406 186.947 75.4465 187.037 75.4735C187.13 75.4975 187.229 75.5095 187.334 75.5095C187.475 75.5095 187.604 75.496 187.721 75.469C187.838 75.439 187.948 75.397 188.05 75.343C188.155 75.289 188.254 75.2245 188.347 75.1495C188.443 75.0745 188.536 74.989 188.626 74.893V73.948ZM186.038 72.085C186.29 71.842 186.562 71.6605 186.853 71.5405C187.144 71.4205 187.466 71.3605 187.82 71.3605C188.075 71.3605 188.302 71.4025 188.5 71.4865C188.698 71.5705 188.864 71.6875 188.999 71.8375C189.134 71.9875 189.236 72.169 189.305 72.382C189.374 72.595 189.409 72.829 189.409 73.084V76H189.053C188.975 76 188.915 75.988 188.873 75.964C188.831 75.937 188.798 75.886 188.774 75.811L188.684 75.379C188.564 75.49 188.447 75.589 188.333 75.676C188.219 75.76 188.099 75.832 187.973 75.892C187.847 75.949 187.712 75.9925 187.568 76.0225C187.427 76.0555 187.27 76.072 187.096 76.072C186.919 76.072 186.752 76.048 186.596 76C186.44 75.949 186.304 75.874 186.187 75.775C186.073 75.676 185.981 75.5515 185.912 75.4015C185.846 75.2485 185.813 75.0685 185.813 74.8615C185.813 74.6815 185.863 74.509 185.962 74.344C186.061 74.176 186.221 74.0275 186.443 73.8985C186.665 73.7695 186.955 73.6645 187.312 73.5835C187.669 73.4995 188.107 73.4515 188.626 73.4395V73.084C188.626 72.73 188.549 72.463 188.396 72.283C188.243 72.1 188.02 72.0085 187.726 72.0085C187.528 72.0085 187.361 72.034 187.226 72.085C187.094 72.133 186.979 72.1885 186.88 72.2515C186.784 72.3115 186.7 72.367 186.628 72.418C186.559 72.466 186.49 72.49 186.421 72.49C186.367 72.49 186.32 72.4765 186.281 72.4495C186.242 72.4195 186.209 72.3835 186.182 72.3415L186.038 72.085ZM191.457 69.3715V76H190.656V69.3715H191.457ZM193.309 69.1195C193.435 69.3325 193.521 69.5575 193.566 69.7945C193.611 70.0315 193.615 70.2655 193.579 70.4965C193.543 70.7275 193.468 70.9495 193.354 71.1625C193.24 71.3755 193.089 71.5645 192.9 71.7295L192.657 71.572C192.612 71.545 192.591 71.5105 192.594 71.4685C192.6 71.4235 192.615 71.3875 192.639 71.3605C192.717 71.2645 192.783 71.149 192.837 71.014C192.894 70.876 192.93 70.729 192.945 70.573C192.963 70.414 192.955 70.2505 192.922 70.0825C192.892 69.9145 192.831 69.7525 192.738 69.5965C192.699 69.5335 192.687 69.478 192.702 69.43C192.72 69.379 192.757 69.3415 192.814 69.3175L193.309 69.1195ZM194.677 69.1195C194.803 69.3325 194.889 69.5575 194.934 69.7945C194.979 70.0315 194.983 70.2655 194.947 70.4965C194.911 70.7275 194.836 70.9495 194.722 71.1625C194.608 71.3755 194.457 71.5645 194.268 71.7295L194.025 71.572C193.98 71.545 193.959 71.5105 193.962 71.4685C193.968 71.4235 193.983 71.3875 194.007 71.3605C194.085 71.2645 194.151 71.149 194.205 71.014C194.262 70.876 194.298 70.729 194.313 70.573C194.331 70.414 194.323 70.2505 194.29 70.0825C194.26 69.9145 194.199 69.7525 194.106 69.5965C194.067 69.5335 194.055 69.478 194.07 69.43C194.088 69.379 194.125 69.3415 194.182 69.3175L194.677 69.1195Z" fill="black"/>
<path id="val=&#226;&#128;&#156;gold&#226;&#128;&#157;" d="M162.221 82.4415L160.363 87H159.643L157.784 82.4415H158.437C158.503 82.4415 158.557 82.458 158.599 82.491C158.641 82.524 158.669 82.563 158.684 82.608L159.841 85.542C159.877 85.653 159.908 85.761 159.935 85.866C159.962 85.971 159.988 86.076 160.012 86.181C160.036 86.076 160.061 85.971 160.088 85.866C160.115 85.761 160.148 85.653 160.187 85.542L161.357 82.608C161.375 82.56 161.405 82.521 161.447 82.491C161.489 82.458 161.539 82.4415 161.596 82.4415H162.221ZM165.33 84.948C164.961 84.96 164.646 84.99 164.385 85.038C164.127 85.083 163.915 85.143 163.75 85.218C163.588 85.293 163.47 85.3815 163.395 85.4835C163.323 85.5855 163.287 85.6995 163.287 85.8255C163.287 85.9455 163.306 86.049 163.345 86.136C163.384 86.223 163.437 86.295 163.503 86.352C163.572 86.406 163.651 86.4465 163.741 86.4735C163.834 86.4975 163.933 86.5095 164.038 86.5095C164.179 86.5095 164.308 86.496 164.425 86.469C164.542 86.439 164.652 86.397 164.754 86.343C164.859 86.289 164.958 86.2245 165.051 86.1495C165.147 86.0745 165.24 85.989 165.33 85.893V84.948ZM162.742 83.085C162.994 82.842 163.266 82.6605 163.557 82.5405C163.848 82.4205 164.17 82.3605 164.524 82.3605C164.779 82.3605 165.006 82.4025 165.204 82.4865C165.402 82.5705 165.568 82.6875 165.703 82.8375C165.838 82.9875 165.94 83.169 166.009 83.382C166.078 83.595 166.113 83.829 166.113 84.084V87H165.757C165.679 87 165.619 86.988 165.577 86.964C165.535 86.937 165.502 86.886 165.478 86.811L165.388 86.379C165.268 86.49 165.151 86.589 165.037 86.676C164.923 86.76 164.803 86.832 164.677 86.892C164.551 86.949 164.416 86.9925 164.272 87.0225C164.131 87.0555 163.974 87.072 163.8 87.072C163.623 87.072 163.456 87.048 163.3 87C163.144 86.949 163.008 86.874 162.891 86.775C162.777 86.676 162.685 86.5515 162.616 86.4015C162.55 86.2485 162.517 86.0685 162.517 85.8615C162.517 85.6815 162.567 85.509 162.666 85.344C162.765 85.176 162.925 85.0275 163.147 84.8985C163.369 84.7695 163.659 84.6645 164.016 84.5835C164.373 84.4995 164.811 84.4515 165.33 84.4395V84.084C165.33 83.73 165.253 83.463 165.1 83.283C164.947 83.1 164.724 83.0085 164.43 83.0085C164.232 83.0085 164.065 83.034 163.93 83.085C163.798 83.133 163.683 83.1885 163.584 83.2515C163.488 83.3115 163.404 83.367 163.332 83.418C163.263 83.466 163.194 83.49 163.125 83.49C163.071 83.49 163.024 83.4765 162.985 83.4495C162.946 83.4195 162.913 83.3835 162.886 83.3415L162.742 83.085ZM168.161 80.3715V87H167.36V80.3715H168.161ZM169.5 84.417H173.37V85.0245H169.5V84.417ZM169.5 82.9095H173.37V83.517H169.5V82.9095ZM174.811 82.725C174.685 82.512 174.599 82.2885 174.554 82.0545C174.509 81.8175 174.505 81.5835 174.541 81.3525C174.577 81.1215 174.652 80.901 174.766 80.691C174.88 80.478 175.031 80.2875 175.22 80.1195L175.463 80.2725C175.508 80.3025 175.528 80.34 175.522 80.385C175.519 80.427 175.505 80.46 175.481 80.484C175.403 80.58 175.336 80.697 175.279 80.835C175.225 80.973 175.19 81.1215 175.175 81.2805C175.16 81.4365 175.168 81.5985 175.198 81.7665C175.228 81.9345 175.289 82.0965 175.382 82.2525C175.421 82.3155 175.432 82.3725 175.414 82.4235C175.399 82.4715 175.363 82.5075 175.306 82.5315L174.811 82.725ZM176.179 82.725C176.053 82.512 175.967 82.2885 175.922 82.0545C175.877 81.8175 175.873 81.5835 175.909 81.3525C175.945 81.1215 176.02 80.901 176.134 80.691C176.248 80.478 176.399 80.2875 176.588 80.1195L176.831 80.2725C176.876 80.3025 176.896 80.34 176.89 80.385C176.887 80.427 176.873 80.46 176.849 80.484C176.771 80.58 176.704 80.697 176.647 80.835C176.593 80.973 176.558 81.1215 176.543 81.2805C176.528 81.4365 176.536 81.5985 176.566 81.7665C176.596 81.9345 176.657 82.0965 176.75 82.2525C176.789 82.3155 176.8 82.3725 176.782 82.4235C176.767 82.4715 176.731 82.5075 176.674 82.5315L176.179 82.725ZM179.38 84.7725C179.542 84.7725 179.685 84.75 179.808 84.705C179.931 84.66 180.034 84.597 180.118 84.516C180.202 84.435 180.265 84.339 180.307 84.228C180.349 84.114 180.37 83.9895 180.37 83.8545C180.37 83.5755 180.285 83.3535 180.114 83.1885C179.946 83.0235 179.701 82.941 179.38 82.941C179.056 82.941 178.809 83.0235 178.638 83.1885C178.47 83.3535 178.386 83.5755 178.386 83.8545C178.386 83.9895 178.407 84.114 178.449 84.228C178.494 84.339 178.558 84.435 178.642 84.516C178.726 84.597 178.83 84.66 178.953 84.705C179.076 84.75 179.218 84.7725 179.38 84.7725ZM180.825 87.2475C180.825 87.1365 180.793 87.0465 180.73 86.9775C180.667 86.9085 180.582 86.8545 180.474 86.8155C180.369 86.7765 180.246 86.7495 180.105 86.7345C179.964 86.7165 179.814 86.703 179.655 86.694C179.499 86.685 179.34 86.676 179.178 86.667C179.016 86.658 178.86 86.643 178.71 86.622C178.542 86.7 178.404 86.799 178.296 86.919C178.191 87.036 178.138 87.174 178.138 87.333C178.138 87.435 178.164 87.5295 178.215 87.6165C178.269 87.7065 178.35 87.783 178.458 87.846C178.566 87.912 178.701 87.963 178.863 87.999C179.028 88.038 179.221 88.0575 179.443 88.0575C179.659 88.0575 179.853 88.038 180.024 87.999C180.195 87.96 180.339 87.9045 180.456 87.8325C180.576 87.7605 180.667 87.675 180.73 87.576C180.793 87.477 180.825 87.3675 180.825 87.2475ZM181.639 82.6215V82.9185C181.639 83.0175 181.576 83.0805 181.45 83.1075L180.933 83.175C181.035 83.373 181.086 83.592 181.086 83.832C181.086 84.054 181.042 84.2565 180.955 84.4395C180.871 84.6195 180.754 84.774 180.604 84.903C180.454 85.032 180.274 85.131 180.064 85.2C179.854 85.269 179.626 85.3035 179.38 85.3035C179.167 85.3035 178.966 85.278 178.777 85.227C178.681 85.287 178.608 85.3515 178.557 85.4205C178.506 85.4865 178.48 85.554 178.48 85.623C178.48 85.731 178.524 85.8135 178.611 85.8705C178.701 85.9245 178.818 85.9635 178.962 85.9875C179.106 86.0115 179.269 86.0265 179.452 86.0325C179.638 86.0385 179.827 86.049 180.019 86.064C180.214 86.076 180.403 86.0985 180.586 86.1315C180.772 86.1645 180.937 86.2185 181.081 86.2935C181.225 86.3685 181.341 86.472 181.428 86.604C181.518 86.736 181.563 86.907 181.563 87.117C181.563 87.312 181.513 87.501 181.414 87.684C181.318 87.867 181.179 88.029 180.996 88.17C180.813 88.314 180.588 88.428 180.321 88.512C180.057 88.599 179.758 88.6425 179.425 88.6425C179.092 88.6425 178.801 88.6095 178.552 88.5435C178.303 88.4775 178.096 88.389 177.931 88.278C177.766 88.167 177.642 88.038 177.558 87.891C177.477 87.747 177.436 87.5955 177.436 87.4365C177.436 87.2115 177.507 87.021 177.648 86.865C177.789 86.709 177.982 86.5845 178.228 86.4915C178.093 86.4315 177.985 86.352 177.904 86.253C177.826 86.151 177.787 86.0145 177.787 85.8435C177.787 85.7775 177.799 85.71 177.823 85.641C177.847 85.569 177.883 85.4985 177.931 85.4295C177.982 85.3575 178.044 85.29 178.116 85.227C178.188 85.164 178.272 85.1085 178.368 85.0605C178.143 84.9345 177.967 84.768 177.841 84.561C177.715 84.351 177.652 84.108 177.652 83.832C177.652 83.61 177.694 83.409 177.778 83.229C177.865 83.046 177.985 82.8915 178.138 82.7655C178.291 82.6365 178.473 82.5375 178.683 82.4685C178.896 82.3995 179.128 82.365 179.38 82.365C179.578 82.365 179.763 82.3875 179.934 82.4325C180.105 82.4745 180.261 82.5375 180.402 82.6215H181.639ZM184.319 82.3695C184.652 82.3695 184.952 82.425 185.219 82.536C185.486 82.647 185.714 82.8045 185.903 83.0085C186.092 83.2125 186.236 83.46 186.335 83.751C186.437 84.039 186.488 84.3615 186.488 84.7185C186.488 85.0785 186.437 85.4025 186.335 85.6905C186.236 85.9785 186.092 86.2245 185.903 86.4285C185.714 86.6325 185.486 86.79 185.219 86.901C184.952 87.009 184.652 87.063 184.319 87.063C183.983 87.063 183.68 87.009 183.41 86.901C183.143 86.79 182.915 86.6325 182.726 86.4285C182.537 86.2245 182.391 85.9785 182.289 85.6905C182.19 85.4025 182.141 85.0785 182.141 84.7185C182.141 84.3615 182.19 84.039 182.289 83.751C182.391 83.46 182.537 83.2125 182.726 83.0085C182.915 82.8045 183.143 82.647 183.41 82.536C183.68 82.425 183.983 82.3695 184.319 82.3695ZM184.319 86.4375C184.769 86.4375 185.105 86.2875 185.327 85.9875C185.549 85.6845 185.66 85.263 185.66 84.723C185.66 84.18 185.549 83.757 185.327 83.454C185.105 83.151 184.769 82.9995 184.319 82.9995C184.091 82.9995 183.891 83.0385 183.72 83.1165C183.552 83.1945 183.411 83.307 183.297 83.454C183.186 83.601 183.102 83.7825 183.045 83.9985C182.991 84.2115 182.964 84.453 182.964 84.723C182.964 85.263 183.075 85.6845 183.297 85.9875C183.522 86.2875 183.863 86.4375 184.319 86.4375ZM188.332 80.3715V87H187.531V80.3715H188.332ZM192.601 83.526C192.451 83.325 192.289 83.1855 192.115 83.1075C191.941 83.0265 191.746 82.986 191.53 82.986C191.107 82.986 190.781 83.1375 190.553 83.4405C190.325 83.7435 190.211 84.1755 190.211 84.7365C190.211 85.0335 190.237 85.2885 190.288 85.5015C190.339 85.7115 190.414 85.8855 190.513 86.0235C190.612 86.1585 190.733 86.2575 190.877 86.3205C191.021 86.3835 191.185 86.415 191.368 86.415C191.632 86.415 191.861 86.355 192.056 86.235C192.254 86.115 192.436 85.9455 192.601 85.7265V83.526ZM193.402 80.3715V87H192.925C192.811 87 192.739 86.9445 192.709 86.8335L192.637 86.28C192.442 86.514 192.22 86.703 191.971 86.847C191.722 86.991 191.434 87.063 191.107 87.063C190.846 87.063 190.609 87.0135 190.396 86.9145C190.183 86.8125 190.001 86.664 189.851 86.469C189.701 86.274 189.586 86.031 189.505 85.74C189.424 85.449 189.383 85.1145 189.383 84.7365C189.383 84.4005 189.428 84.0885 189.518 83.8005C189.608 83.5095 189.737 83.2575 189.905 83.0445C190.073 82.8315 190.279 82.665 190.522 82.545C190.768 82.422 191.044 82.3605 191.35 82.3605C191.629 82.3605 191.867 82.4085 192.065 82.5045C192.266 82.5975 192.445 82.728 192.601 82.896V80.3715H193.402ZM195.22 80.1195C195.346 80.3325 195.432 80.5575 195.477 80.7945C195.522 81.0315 195.526 81.2655 195.49 81.4965C195.454 81.7275 195.379 81.9495 195.265 82.1625C195.151 82.3755 195 82.5645 194.811 82.7295L194.568 82.572C194.523 82.545 194.502 82.5105 194.505 82.4685C194.511 82.4235 194.526 82.3875 194.55 82.3605C194.628 82.2645 194.694 82.149 194.748 82.014C194.805 81.876 194.841 81.729 194.856 81.573C194.874 81.414 194.866 81.2505 194.833 81.0825C194.803 80.9145 194.742 80.7525 194.649 80.5965C194.61 80.5335 194.598 80.478 194.613 80.43C194.631 80.379 194.668 80.3415 194.725 80.3175L195.22 80.1195ZM196.588 80.1195C196.714 80.3325 196.8 80.5575 196.845 80.7945C196.89 81.0315 196.894 81.2655 196.858 81.4965C196.822 81.7275 196.747 81.9495 196.633 82.1625C196.519 82.3755 196.368 82.5645 196.179 82.7295L195.936 82.572C195.891 82.545 195.87 82.5105 195.873 82.4685C195.879 82.4235 195.894 82.3875 195.918 82.3605C195.996 82.2645 196.062 82.149 196.116 82.014C196.173 81.876 196.209 81.729 196.224 81.573C196.242 81.414 196.234 81.2505 196.201 81.0825C196.171 80.9145 196.11 80.7525 196.017 80.5965C195.978 80.5335 195.966 80.478 195.981 80.43C195.999 80.379 196.036 80.3415 196.093 80.3175L196.588 80.1195Z" fill="black"/>
</g>
</g>
<g id="pair-to-add-quad-probing" style="opacity: 0">
<circle id="node-template_4" cx="79" cy="23" r="22.5" stroke="black"/>
<g id="params_4">
<path id="key=&#226;&#128;&#156;sam&#226;&#128;&#157;" d="M61.5098 15.3715V19.273H61.7168C61.7768 19.273 61.8263 19.2655 61.8653 19.2505C61.9073 19.2325 61.9508 19.198 61.9958 19.147L63.4358 17.6035C63.4778 17.5525 63.5213 17.5135 63.5663 17.4865C63.6143 17.4565 63.6773 17.4415 63.7553 17.4415H64.4798L62.8013 19.228C62.7203 19.33 62.6333 19.4095 62.5403 19.4665C62.5943 19.5025 62.6423 19.5445 62.6843 19.5925C62.7293 19.6375 62.7713 19.69 62.8103 19.75L64.5923 22H63.8768C63.8078 22 63.7478 21.9895 63.6968 21.9685C63.6488 21.9445 63.6068 21.9025 63.5708 21.8425L62.0723 19.975C62.0273 19.912 61.9823 19.8715 61.9373 19.8535C61.8953 19.8325 61.8293 19.822 61.7393 19.822H61.5098V22H60.7043V15.3715H61.5098ZM68.0708 19.2235C68.0708 19.0375 68.0438 18.868 67.9898 18.715C67.9388 18.559 67.8623 18.4255 67.7603 18.3145C67.6613 18.2005 67.5398 18.1135 67.3958 18.0535C67.2518 17.9905 67.0883 17.959 66.9053 17.959C66.5213 17.959 66.2168 18.0715 65.9918 18.2965C65.7698 18.5185 65.6318 18.8275 65.5778 19.2235H68.0708ZM68.7188 21.361C68.6198 21.481 68.5013 21.586 68.3633 21.676C68.2253 21.763 68.0768 21.835 67.9178 21.892C67.7618 21.949 67.5998 21.991 67.4318 22.018C67.2638 22.048 67.0973 22.063 66.9323 22.063C66.6173 22.063 66.3263 22.0105 66.0593 21.9055C65.7953 21.7975 65.5658 21.6415 65.3708 21.4375C65.1788 21.2305 65.0288 20.9755 64.9208 20.6725C64.8128 20.3695 64.7588 20.0215 64.7588 19.6285C64.7588 19.3105 64.8068 19.0135 64.9028 18.7375C65.0018 18.4615 65.1428 18.223 65.3258 18.022C65.5088 17.818 65.7323 17.659 65.9963 17.545C66.2603 17.428 66.5573 17.3695 66.8873 17.3695C67.1603 17.3695 67.4123 17.416 67.6433 17.509C67.8773 17.599 68.0783 17.731 68.2463 17.905C68.4173 18.076 68.5508 18.289 68.6468 18.544C68.7428 18.796 68.7908 19.084 68.7908 19.408C68.7908 19.534 68.7773 19.618 68.7503 19.66C68.7233 19.702 68.6723 19.723 68.5973 19.723H65.5508C65.5598 20.011 65.5988 20.2615 65.6678 20.4745C65.7398 20.6875 65.8388 20.866 65.9648 21.01C66.0908 21.151 66.2408 21.2575 66.4148 21.3295C66.5888 21.3985 66.7838 21.433 66.9998 21.433C67.2008 21.433 67.3733 21.4105 67.5173 21.3655C67.6643 21.3175 67.7903 21.2665 67.8953 21.2125C68.0003 21.1585 68.0873 21.109 68.1563 21.064C68.2283 21.016 68.2898 20.992 68.3408 20.992C68.4068 20.992 68.4578 21.0175 68.4938 21.0685L68.7188 21.361ZM73.5934 17.4415L71.0509 23.3455C71.0239 23.4055 70.9894 23.4535 70.9474 23.4895C70.9084 23.5255 70.8469 23.5435 70.7629 23.5435H70.1689L71.0014 21.7345L69.1204 17.4415H69.8134C69.8824 17.4415 69.9364 17.4595 69.9754 17.4955C70.0174 17.5285 70.0459 17.566 70.0609 17.608L71.2804 20.479C71.3284 20.605 71.3689 20.737 71.4019 20.875C71.4439 20.734 71.4889 20.6005 71.5369 20.4745L72.7204 17.608C72.7384 17.56 72.7684 17.521 72.8104 17.491C72.8554 17.458 72.9049 17.4415 72.9589 17.4415H73.5934ZM74.3415 19.417H78.2115V20.0245H74.3415V19.417ZM74.3415 17.9095H78.2115V18.517H74.3415V17.9095ZM79.6522 17.725C79.5262 17.512 79.4407 17.2885 79.3957 17.0545C79.3507 16.8175 79.3462 16.5835 79.3822 16.3525C79.4182 16.1215 79.4932 15.901 79.6072 15.691C79.7212 15.478 79.8727 15.2875 80.0617 15.1195L80.3047 15.2725C80.3497 15.3025 80.3692 15.34 80.3632 15.385C80.3602 15.427 80.3467 15.46 80.3227 15.484C80.2447 15.58 80.1772 15.697 80.1202 15.835C80.0662 15.973 80.0317 16.1215 80.0167 16.2805C80.0017 16.4365 80.0092 16.5985 80.0392 16.7665C80.0692 16.9345 80.1307 17.0965 80.2237 17.2525C80.2627 17.3155 80.2732 17.3725 80.2552 17.4235C80.2402 17.4715 80.2042 17.5075 80.1472 17.5315L79.6522 17.725ZM81.0202 17.725C80.8942 17.512 80.8087 17.2885 80.7637 17.0545C80.7187 16.8175 80.7142 16.5835 80.7502 16.3525C80.7862 16.1215 80.8612 15.901 80.9752 15.691C81.0892 15.478 81.2407 15.2875 81.4297 15.1195L81.6727 15.2725C81.7177 15.3025 81.7372 15.34 81.7312 15.385C81.7282 15.427 81.7147 15.46 81.6907 15.484C81.6127 15.58 81.5452 15.697 81.4882 15.835C81.4342 15.973 81.3997 16.1215 81.3847 16.2805C81.3697 16.4365 81.3772 16.5985 81.4072 16.7665C81.4372 16.9345 81.4987 17.0965 81.5917 17.2525C81.6307 17.3155 81.6412 17.3725 81.6232 17.4235C81.6082 17.4715 81.5722 17.5075 81.5152 17.5315L81.0202 17.725ZM85.3056 18.193C85.2696 18.259 85.2141 18.292 85.1391 18.292C85.0941 18.292 85.0431 18.2755 84.9861 18.2425C84.9291 18.2095 84.8586 18.1735 84.7746 18.1345C84.6936 18.0925 84.5961 18.055 84.4821 18.022C84.3681 17.986 84.2331 17.968 84.0771 17.968C83.9421 17.968 83.8206 17.986 83.7126 18.022C83.6046 18.055 83.5116 18.1015 83.4336 18.1615C83.3586 18.2215 83.3001 18.292 83.2581 18.373C83.2191 18.451 83.1996 18.5365 83.1996 18.6295C83.1996 18.7465 83.2326 18.844 83.2986 18.922C83.3676 19 83.4576 19.0675 83.5686 19.1245C83.6796 19.1815 83.8056 19.2325 83.9466 19.2775C84.0876 19.3195 84.2316 19.366 84.3786 19.417C84.5286 19.465 84.6741 19.519 84.8151 19.579C84.9561 19.639 85.0821 19.714 85.1931 19.804C85.3041 19.894 85.3926 20.005 85.4586 20.137C85.5276 20.266 85.5621 20.422 85.5621 20.605C85.5621 20.815 85.5246 21.01 85.4496 21.19C85.3746 21.367 85.2636 21.5215 85.1166 21.6535C84.9696 21.7825 84.7896 21.8845 84.5766 21.9595C84.3636 22.0345 84.1176 22.072 83.8386 22.072C83.5206 22.072 83.2326 22.021 82.9746 21.919C82.7166 21.814 82.4976 21.6805 82.3176 21.5185L82.5066 21.2125C82.5306 21.1735 82.5591 21.1435 82.5921 21.1225C82.6251 21.1015 82.6671 21.091 82.7181 21.091C82.7721 21.091 82.8291 21.112 82.8891 21.154C82.9491 21.196 83.0211 21.2425 83.1051 21.2935C83.1921 21.3445 83.2971 21.391 83.4201 21.433C83.5431 21.475 83.6961 21.496 83.8791 21.496C84.0351 21.496 84.1716 21.4765 84.2886 21.4375C84.4056 21.3955 84.5031 21.34 84.5811 21.271C84.6591 21.202 84.7161 21.1225 84.7521 21.0325C84.7911 20.9425 84.8106 20.8465 84.8106 20.7445C84.8106 20.6185 84.7761 20.515 84.7071 20.434C84.6411 20.35 84.5526 20.2795 84.4416 20.2225C84.3306 20.1625 84.2031 20.1115 84.0591 20.0695C83.9181 20.0245 83.7726 19.978 83.6226 19.93C83.4756 19.882 83.3301 19.828 83.1861 19.768C83.0451 19.705 82.9191 19.627 82.8081 19.534C82.6971 19.441 82.6071 19.327 82.5381 19.192C82.4721 19.054 82.4391 18.8875 82.4391 18.6925C82.4391 18.5185 82.4751 18.352 82.5471 18.193C82.6191 18.031 82.7241 17.89 82.8621 17.77C83.0001 17.647 83.1696 17.5495 83.3706 17.4775C83.5716 17.4055 83.8011 17.3695 84.0591 17.3695C84.3591 17.3695 84.6276 17.4175 84.8646 17.5135C85.1046 17.6065 85.3116 17.7355 85.4856 17.9005L85.3056 18.193ZM89.0147 19.948C88.6457 19.96 88.3307 19.99 88.0697 20.038C87.8117 20.083 87.6002 20.143 87.4352 20.218C87.2732 20.293 87.1547 20.3815 87.0797 20.4835C87.0077 20.5855 86.9717 20.6995 86.9717 20.8255C86.9717 20.9455 86.9912 21.049 87.0302 21.136C87.0692 21.223 87.1217 21.295 87.1877 21.352C87.2567 21.406 87.3362 21.4465 87.4262 21.4735C87.5192 21.4975 87.6182 21.5095 87.7232 21.5095C87.8642 21.5095 87.9932 21.496 88.1102 21.469C88.2272 21.439 88.3367 21.397 88.4387 21.343C88.5437 21.289 88.6427 21.2245 88.7357 21.1495C88.8317 21.0745 88.9247 20.989 89.0147 20.893V19.948ZM86.4272 18.085C86.6792 17.842 86.9507 17.6605 87.2417 17.5405C87.5327 17.4205 87.8552 17.3605 88.2092 17.3605C88.4642 17.3605 88.6907 17.4025 88.8887 17.4865C89.0867 17.5705 89.2532 17.6875 89.3882 17.8375C89.5232 17.9875 89.6252 18.169 89.6942 18.382C89.7632 18.595 89.7977 18.829 89.7977 19.084V22H89.4422C89.3642 22 89.3042 21.988 89.2622 21.964C89.2202 21.937 89.1872 21.886 89.1632 21.811L89.0732 21.379C88.9532 21.49 88.8362 21.589 88.7222 21.676C88.6082 21.76 88.4882 21.832 88.3622 21.892C88.2362 21.949 88.1012 21.9925 87.9572 22.0225C87.8162 22.0555 87.6587 22.072 87.4847 22.072C87.3077 22.072 87.1412 22.048 86.9852 22C86.8292 21.949 86.6927 21.874 86.5757 21.775C86.4617 21.676 86.3702 21.5515 86.3012 21.4015C86.2352 21.2485 86.2022 21.0685 86.2022 20.8615C86.2022 20.6815 86.2517 20.509 86.3507 20.344C86.4497 20.176 86.6102 20.0275 86.8322 19.8985C87.0542 19.7695 87.3437 19.6645 87.7007 19.5835C88.0577 19.4995 88.4957 19.4515 89.0147 19.4395V19.084C89.0147 18.73 88.9382 18.463 88.7852 18.283C88.6322 18.1 88.4087 18.0085 88.1147 18.0085C87.9167 18.0085 87.7502 18.034 87.6152 18.085C87.4832 18.133 87.3677 18.1885 87.2687 18.2515C87.1727 18.3115 87.0887 18.367 87.0167 18.418C86.9477 18.466 86.8787 18.49 86.8097 18.49C86.7557 18.49 86.7092 18.4765 86.6702 18.4495C86.6312 18.4195 86.5982 18.3835 86.5712 18.3415L86.4272 18.085ZM91.0178 22V17.4415H91.4993C91.6133 17.4415 91.6838 17.497 91.7108 17.608L91.7693 18.076C91.9373 17.869 92.1263 17.6995 92.3363 17.5675C92.5463 17.4355 92.7893 17.3695 93.0653 17.3695C93.3713 17.3695 93.6188 17.455 93.8078 17.626C93.9998 17.797 94.1378 18.028 94.2218 18.319C94.2878 18.154 94.3718 18.0115 94.4738 17.8915C94.5788 17.7715 94.6958 17.6725 94.8248 17.5945C94.9538 17.5165 95.0903 17.4595 95.2343 17.4235C95.3813 17.3875 95.5298 17.3695 95.6798 17.3695C95.9198 17.3695 96.1328 17.4085 96.3188 17.4865C96.5078 17.5615 96.6668 17.6725 96.7958 17.8195C96.9278 17.9665 97.0283 18.148 97.0973 18.364C97.1663 18.577 97.2008 18.8215 97.2008 19.0975V22H96.3953V19.0975C96.3953 18.7405 96.3173 18.4705 96.1613 18.2875C96.0053 18.1015 95.7803 18.0085 95.4863 18.0085C95.3543 18.0085 95.2283 18.0325 95.1083 18.0805C94.9913 18.1255 94.8878 18.193 94.7978 18.283C94.7078 18.373 94.6358 18.487 94.5818 18.625C94.5308 18.76 94.5053 18.9175 94.5053 19.0975V22H93.6998V19.0975C93.6998 18.7315 93.6263 18.4585 93.4793 18.2785C93.3323 18.0985 93.1178 18.0085 92.8358 18.0085C92.6378 18.0085 92.4548 18.0625 92.2868 18.1705C92.1188 18.2755 91.9643 18.4195 91.8233 18.6025V22H91.0178ZM98.8311 15.1195C98.9571 15.3325 99.0426 15.5575 99.0876 15.7945C99.1326 16.0315 99.1371 16.2655 99.1011 16.4965C99.0651 16.7275 98.9901 16.9495 98.8761 17.1625C98.7621 17.3755 98.6106 17.5645 98.4216 17.7295L98.1786 17.572C98.1336 17.545 98.1126 17.5105 98.1156 17.4685C98.1216 17.4235 98.1366 17.3875 98.1606 17.3605C98.2386 17.2645 98.3046 17.149 98.3586 17.014C98.4156 16.876 98.4516 16.729 98.4666 16.573C98.4846 16.414 98.4771 16.2505 98.4441 16.0825C98.4141 15.9145 98.3526 15.7525 98.2596 15.5965C98.2206 15.5335 98.2086 15.478 98.2236 15.43C98.2416 15.379 98.2791 15.3415 98.3361 15.3175L98.8311 15.1195ZM100.199 15.1195C100.325 15.3325 100.411 15.5575 100.456 15.7945C100.501 16.0315 100.505 16.2655 100.469 16.4965C100.433 16.7275 100.358 16.9495 100.244 17.1625C100.13 17.3755 99.9786 17.5645 99.7896 17.7295L99.5466 17.572C99.5016 17.545 99.4806 17.5105 99.4836 17.4685C99.4896 17.4235 99.5046 17.3875 99.5286 17.3605C99.6066 17.2645 99.6726 17.149 99.7266 17.014C99.7836 16.876 99.8196 16.729 99.8346 16.573C99.8526 16.414 99.8451 16.2505 99.8121 16.0825C99.7821 15.9145 99.7206 15.7525 99.6276 15.5965C99.5886 15.5335 99.5766 15.478 99.5916 15.43C99.6096 15.379 99.6471 15.3415 99.7041 15.3175L100.199 15.1195Z" fill="black"/>
<path id="val=&#226;&#128;&#156;blue&#226;&#128;&#157;_2" d="M63.1816 28.4415L61.3231 33H60.6031L58.7446 28.4415H59.3971C59.4631 28.4415 59.5171 28.458 59.5591 28.491C59.6011 28.524 59.6296 28.563 59.6446 28.608L60.8011 31.542C60.8371 31.653 60.8686 31.761 60.8956 31.866C60.9226 31.971 60.9481 32.076 60.9721 32.181C60.9961 32.076 61.0216 31.971 61.0486 31.866C61.0756 31.761 61.1086 31.653 61.1476 31.542L62.3176 28.608C62.3356 28.56 62.3656 28.521 62.4076 28.491C62.4496 28.458 62.4991 28.4415 62.5561 28.4415H63.1816ZM66.2901 30.948C65.9211 30.96 65.6061 30.99 65.3451 31.038C65.0871 31.083 64.8756 31.143 64.7106 31.218C64.5486 31.293 64.4301 31.3815 64.3551 31.4835C64.2831 31.5855 64.2471 31.6995 64.2471 31.8255C64.2471 31.9455 64.2666 32.049 64.3056 32.136C64.3446 32.223 64.3971 32.295 64.4631 32.352C64.5321 32.406 64.6116 32.4465 64.7016 32.4735C64.7946 32.4975 64.8936 32.5095 64.9986 32.5095C65.1396 32.5095 65.2686 32.496 65.3856 32.469C65.5026 32.439 65.6121 32.397 65.7141 32.343C65.8191 32.289 65.9181 32.2245 66.0111 32.1495C66.1071 32.0745 66.2001 31.989 66.2901 31.893V30.948ZM63.7026 29.085C63.9546 28.842 64.2261 28.6605 64.5171 28.5405C64.8081 28.4205 65.1306 28.3605 65.4846 28.3605C65.7396 28.3605 65.9661 28.4025 66.1641 28.4865C66.3621 28.5705 66.5286 28.6875 66.6636 28.8375C66.7986 28.9875 66.9006 29.169 66.9696 29.382C67.0386 29.595 67.0731 29.829 67.0731 30.084V33H66.7176C66.6396 33 66.5796 32.988 66.5376 32.964C66.4956 32.937 66.4626 32.886 66.4386 32.811L66.3486 32.379C66.2286 32.49 66.1116 32.589 65.9976 32.676C65.8836 32.76 65.7636 32.832 65.6376 32.892C65.5116 32.949 65.3766 32.9925 65.2326 33.0225C65.0916 33.0555 64.9341 33.072 64.7601 33.072C64.5831 33.072 64.4166 33.048 64.2606 33C64.1046 32.949 63.9681 32.874 63.8511 32.775C63.7371 32.676 63.6456 32.5515 63.5766 32.4015C63.5106 32.2485 63.4776 32.0685 63.4776 31.8615C63.4776 31.6815 63.5271 31.509 63.6261 31.344C63.7251 31.176 63.8856 31.0275 64.1076 30.8985C64.3296 30.7695 64.6191 30.6645 64.9761 30.5835C65.3331 30.4995 65.7711 30.4515 66.2901 30.4395V30.084C66.2901 29.73 66.2136 29.463 66.0606 29.283C65.9076 29.1 65.6841 29.0085 65.3901 29.0085C65.1921 29.0085 65.0256 29.034 64.8906 29.085C64.7586 29.133 64.6431 29.1885 64.5441 29.2515C64.4481 29.3115 64.3641 29.367 64.2921 29.418C64.2231 29.466 64.1541 29.49 64.0851 29.49C64.0311 29.49 63.9846 29.4765 63.9456 29.4495C63.9066 29.4195 63.8736 29.3835 63.8466 29.3415L63.7026 29.085ZM69.1212 26.3715V33H68.3202V26.3715H69.1212ZM70.4606 30.417H74.3306V31.0245H70.4606V30.417ZM70.4606 28.9095H74.3306V29.517H70.4606V28.9095ZM75.7713 28.725C75.6453 28.512 75.5598 28.2885 75.5148 28.0545C75.4698 27.8175 75.4653 27.5835 75.5013 27.3525C75.5373 27.1215 75.6123 26.901 75.7263 26.691C75.8403 26.478 75.9918 26.2875 76.1808 26.1195L76.4238 26.2725C76.4688 26.3025 76.4883 26.34 76.4823 26.385C76.4793 26.427 76.4658 26.46 76.4418 26.484C76.3638 26.58 76.2963 26.697 76.2393 26.835C76.1853 26.973 76.1508 27.1215 76.1358 27.2805C76.1208 27.4365 76.1283 27.5985 76.1583 27.7665C76.1883 27.9345 76.2498 28.0965 76.3428 28.2525C76.3818 28.3155 76.3923 28.3725 76.3743 28.4235C76.3593 28.4715 76.3233 28.5075 76.2663 28.5315L75.7713 28.725ZM77.1393 28.725C77.0133 28.512 76.9278 28.2885 76.8828 28.0545C76.8378 27.8175 76.8333 27.5835 76.8693 27.3525C76.9053 27.1215 76.9803 26.901 77.0943 26.691C77.2083 26.478 77.3598 26.2875 77.5488 26.1195L77.7918 26.2725C77.8368 26.3025 77.8563 26.34 77.8503 26.385C77.8473 26.427 77.8338 26.46 77.8098 26.484C77.7318 26.58 77.6643 26.697 77.6073 26.835C77.5533 26.973 77.5188 27.1215 77.5038 27.2805C77.4888 27.4365 77.4963 27.5985 77.5263 27.7665C77.5563 27.9345 77.6178 28.0965 77.7108 28.2525C77.7498 28.3155 77.7603 28.3725 77.7423 28.4235C77.7273 28.4715 77.6913 28.5075 77.6343 28.5315L77.1393 28.725ZM79.7335 31.902C79.8805 32.1 80.041 32.2395 80.215 32.3205C80.392 32.4015 80.5855 32.442 80.7955 32.442C81.2245 32.442 81.553 32.2905 81.781 31.9875C82.009 31.6845 82.123 31.233 82.123 30.633C82.123 30.075 82.021 29.6655 81.817 29.4045C81.616 29.1405 81.328 29.0085 80.953 29.0085C80.692 29.0085 80.464 29.0685 80.269 29.1885C80.077 29.3085 79.8985 29.478 79.7335 29.697V31.902ZM79.7335 29.0985C79.9255 28.8765 80.1415 28.6995 80.3815 28.5675C80.6245 28.4355 80.9035 28.3695 81.2185 28.3695C81.4855 28.3695 81.7255 28.4205 81.9385 28.5225C82.1545 28.6245 82.3375 28.773 82.4875 28.968C82.6375 29.16 82.7515 29.394 82.8295 29.67C82.9105 29.946 82.951 30.2565 82.951 30.6015C82.951 30.9705 82.906 31.3065 82.816 31.6095C82.726 31.9125 82.5955 32.172 82.4245 32.388C82.2565 32.601 82.051 32.7675 81.808 32.8875C81.565 33.0045 81.292 33.063 80.989 33.063C80.689 33.063 80.4355 33.0075 80.2285 32.8965C80.0245 32.7825 79.846 32.622 79.693 32.415L79.6525 32.829C79.6285 32.943 79.5595 33 79.4455 33H78.928V26.3715H79.7335V29.0985ZM84.7921 26.3715V33H83.9911V26.3715H84.7921ZM89.8395 28.4415V33H89.3625C89.2485 33 89.1765 32.9445 89.1465 32.8335L89.0835 32.343C88.8855 32.562 88.6635 32.739 88.4175 32.874C88.1715 33.006 87.8895 33.072 87.5715 33.072C87.3225 33.072 87.102 33.0315 86.91 32.9505C86.721 32.8665 86.562 32.7495 86.433 32.5995C86.304 32.4495 86.2065 32.268 86.1405 32.055C86.0775 31.842 86.046 31.6065 86.046 31.3485V28.4415H86.847V31.3485C86.847 31.6935 86.925 31.9605 87.081 32.1495C87.24 32.3385 87.4815 32.433 87.8055 32.433C88.0425 32.433 88.263 32.3775 88.467 32.2665C88.674 32.1525 88.8645 31.9965 89.0385 31.7985V28.4415H89.8395ZM94.1606 30.2235C94.1606 30.0375 94.1336 29.868 94.0796 29.715C94.0286 29.559 93.9521 29.4255 93.8501 29.3145C93.7511 29.2005 93.6296 29.1135 93.4856 29.0535C93.3416 28.9905 93.1781 28.959 92.9951 28.959C92.6111 28.959 92.3066 29.0715 92.0816 29.2965C91.8596 29.5185 91.7216 29.8275 91.6676 30.2235H94.1606ZM94.8086 32.361C94.7096 32.481 94.5911 32.586 94.4531 32.676C94.3151 32.763 94.1666 32.835 94.0076 32.892C93.8516 32.949 93.6896 32.991 93.5216 33.018C93.3536 33.048 93.1871 33.063 93.0221 33.063C92.7071 33.063 92.4161 33.0105 92.1491 32.9055C91.8851 32.7975 91.6556 32.6415 91.4606 32.4375C91.2686 32.2305 91.1186 31.9755 91.0106 31.6725C90.9026 31.3695 90.8486 31.0215 90.8486 30.6285C90.8486 30.3105 90.8966 30.0135 90.9926 29.7375C91.0916 29.4615 91.2326 29.223 91.4156 29.022C91.5986 28.818 91.8221 28.659 92.0861 28.545C92.3501 28.428 92.6471 28.3695 92.9771 28.3695C93.2501 28.3695 93.5021 28.416 93.7331 28.509C93.9671 28.599 94.1681 28.731 94.3361 28.905C94.5071 29.076 94.6406 29.289 94.7366 29.544C94.8326 29.796 94.8806 30.084 94.8806 30.408C94.8806 30.534 94.8671 30.618 94.8401 30.66C94.8131 30.702 94.7621 30.723 94.6871 30.723H91.6406C91.6496 31.011 91.6886 31.2615 91.7576 31.4745C91.8296 31.6875 91.9286 31.866 92.0546 32.01C92.1806 32.151 92.3306 32.2575 92.5046 32.3295C92.6786 32.3985 92.8736 32.433 93.0896 32.433C93.2906 32.433 93.4631 32.4105 93.6071 32.3655C93.7541 32.3175 93.8801 32.2665 93.9851 32.2125C94.0901 32.1585 94.1771 32.109 94.2461 32.064C94.3181 32.016 94.3796 31.992 94.4306 31.992C94.4966 31.992 94.5476 32.0175 94.5836 32.0685L94.8086 32.361ZM96.2598 26.1195C96.3858 26.3325 96.4713 26.5575 96.5163 26.7945C96.5613 27.0315 96.5658 27.2655 96.5298 27.4965C96.4938 27.7275 96.4188 27.9495 96.3048 28.1625C96.1908 28.3755 96.0393 28.5645 95.8503 28.7295L95.6073 28.572C95.5623 28.545 95.5413 28.5105 95.5443 28.4685C95.5503 28.4235 95.5653 28.3875 95.5893 28.3605C95.6673 28.2645 95.7333 28.149 95.7873 28.014C95.8443 27.876 95.8803 27.729 95.8953 27.573C95.9133 27.414 95.9058 27.2505 95.8728 27.0825C95.8428 26.9145 95.7813 26.7525 95.6883 26.5965C95.6493 26.5335 95.6373 26.478 95.6523 26.43C95.6703 26.379 95.7078 26.3415 95.7648 26.3175L96.2598 26.1195ZM97.6278 26.1195C97.7538 26.3325 97.8393 26.5575 97.8843 26.7945C97.9293 27.0315 97.9338 27.2655 97.8978 27.4965C97.8618 27.7275 97.7868 27.9495 97.6728 28.1625C97.5588 28.3755 97.4073 28.5645 97.2183 28.7295L96.9753 28.572C96.9303 28.545 96.9093 28.5105 96.9123 28.4685C96.9183 28.4235 96.9333 28.3875 96.9573 28.3605C97.0353 28.2645 97.1013 28.149 97.1553 28.014C97.2123 27.876 97.2483 27.729 97.2633 27.573C97.2813 27.414 97.2738 27.2505 97.2408 27.0825C97.2108 26.9145 97.1493 26.7525 97.0563 26.5965C97.0173 26.5335 97.0053 26.478 97.0203 26.43C97.0383 26.379 97.0758 26.3415 97.1328 26.3175L97.6278 26.1195Z" fill="black"/>
</g>
</g>
</g>
<g id="pointer-quad-0">
<path id="arrow-pointer" d="M176.646 49.3536C176.842 49.5488 177.158 49.5488 177.354 49.3536L180.536 46.1716C180.731 45.9763 180.731 45.6597 180.536 45.4645C180.34 45.2692 180.024 45.2692 179.828 45.4645L177 48.2929L174.172 45.4645C173.976 45.2692 173.66 45.2692 173.464 45.4645C173.269 45.6597 173.269 45.9763 173.464 46.1716L176.646 49.3536ZM176.5 29V49H177.5V29H176.5Z" fill="black"/>
<path id="index=3" d="M162.564 21.4415V26H161.763V21.4415H162.564ZM162.735 20.0105C162.735 20.0885 162.718 20.162 162.685 20.231C162.655 20.297 162.613 20.357 162.559 20.411C162.508 20.462 162.447 20.5025 162.375 20.5325C162.306 20.5625 162.232 20.5775 162.154 20.5775C162.076 20.5775 162.003 20.5625 161.934 20.5325C161.868 20.5025 161.809 20.462 161.758 20.411C161.707 20.357 161.667 20.297 161.637 20.231C161.607 20.162 161.592 20.0885 161.592 20.0105C161.592 19.9325 161.607 19.859 161.637 19.79C161.667 19.718 161.707 19.6565 161.758 19.6055C161.809 19.5515 161.868 19.5095 161.934 19.4795C162.003 19.4495 162.076 19.4345 162.154 19.4345C162.232 19.4345 162.306 19.4495 162.375 19.4795C162.447 19.5095 162.508 19.5515 162.559 19.6055C162.613 19.6565 162.655 19.718 162.685 19.79C162.718 19.859 162.735 19.9325 162.735 20.0105ZM164.636 22.103C164.735 21.992 164.84 21.8915 164.951 21.8015C165.062 21.7115 165.179 21.635 165.302 21.572C165.428 21.506 165.56 21.4565 165.698 21.4235C165.839 21.3875 165.99 21.3695 166.152 21.3695C166.401 21.3695 166.62 21.4115 166.809 21.4955C167.001 21.5765 167.16 21.6935 167.286 21.8465C167.415 21.9965 167.513 22.178 167.579 22.391C167.645 22.604 167.678 22.8395 167.678 23.0975V26H166.872V23.0975C166.872 22.7525 166.793 22.4855 166.634 22.2965C166.478 22.1045 166.239 22.0085 165.918 22.0085C165.681 22.0085 165.459 22.0655 165.252 22.1795C165.048 22.2935 164.859 22.448 164.685 22.643V26H163.88V21.4415H164.361C164.475 21.4415 164.546 21.497 164.573 21.608L164.636 22.103ZM171.868 22.526C171.718 22.325 171.556 22.1855 171.382 22.1075C171.208 22.0265 171.013 21.986 170.797 21.986C170.374 21.986 170.049 22.1375 169.821 22.4405C169.593 22.7435 169.479 23.1755 169.479 23.7365C169.479 24.0335 169.504 24.2885 169.555 24.5015C169.606 24.7115 169.681 24.8855 169.78 25.0235C169.879 25.1585 170.001 25.2575 170.145 25.3205C170.289 25.3835 170.452 25.415 170.635 25.415C170.899 25.415 171.129 25.355 171.324 25.235C171.522 25.115 171.703 24.9455 171.868 24.7265V22.526ZM172.669 19.3715V26H172.192C172.078 26 172.006 25.9445 171.976 25.8335L171.904 25.28C171.709 25.514 171.487 25.703 171.238 25.847C170.989 25.991 170.701 26.063 170.374 26.063C170.113 26.063 169.876 26.0135 169.663 25.9145C169.45 25.8125 169.269 25.664 169.119 25.469C168.969 25.274 168.853 25.031 168.772 24.74C168.691 24.449 168.651 24.1145 168.651 23.7365C168.651 23.4005 168.696 23.0885 168.786 22.8005C168.876 22.5095 169.005 22.2575 169.173 22.0445C169.341 21.8315 169.546 21.665 169.789 21.545C170.035 21.422 170.311 21.3605 170.617 21.3605C170.896 21.3605 171.135 21.4085 171.333 21.5045C171.534 21.5975 171.712 21.728 171.868 21.896V19.3715H172.669ZM176.985 23.2235C176.985 23.0375 176.958 22.868 176.904 22.715C176.853 22.559 176.777 22.4255 176.675 22.3145C176.576 22.2005 176.454 22.1135 176.31 22.0535C176.166 21.9905 176.003 21.959 175.82 21.959C175.436 21.959 175.131 22.0715 174.906 22.2965C174.684 22.5185 174.546 22.8275 174.492 23.2235H176.985ZM177.633 25.361C177.534 25.481 177.416 25.586 177.278 25.676C177.14 25.763 176.991 25.835 176.832 25.892C176.676 25.949 176.514 25.991 176.346 26.018C176.178 26.048 176.012 26.063 175.847 26.063C175.532 26.063 175.241 26.0105 174.974 25.9055C174.71 25.7975 174.48 25.6415 174.285 25.4375C174.093 25.2305 173.943 24.9755 173.835 24.6725C173.727 24.3695 173.673 24.0215 173.673 23.6285C173.673 23.3105 173.721 23.0135 173.817 22.7375C173.916 22.4615 174.057 22.223 174.24 22.022C174.423 21.818 174.647 21.659 174.911 21.545C175.175 21.428 175.472 21.3695 175.802 21.3695C176.075 21.3695 176.327 21.416 176.558 21.509C176.792 21.599 176.993 21.731 177.161 21.905C177.332 22.076 177.465 22.289 177.561 22.544C177.657 22.796 177.705 23.084 177.705 23.408C177.705 23.534 177.692 23.618 177.665 23.66C177.638 23.702 177.587 23.723 177.512 23.723H174.465C174.474 24.011 174.513 24.2615 174.582 24.4745C174.654 24.6875 174.753 24.866 174.879 25.01C175.005 25.151 175.155 25.2575 175.329 25.3295C175.503 25.3985 175.698 25.433 175.914 25.433C176.115 25.433 176.288 25.4105 176.432 25.3655C176.579 25.3175 176.705 25.2665 176.81 25.2125C176.915 25.1585 177.002 25.109 177.071 25.064C177.143 25.016 177.204 24.992 177.255 24.992C177.321 24.992 177.372 25.0175 177.408 25.0685L177.633 25.361ZM182.372 26H181.602C181.536 26 181.484 25.9835 181.445 25.9505C181.409 25.9145 181.379 25.8755 181.355 25.8335L180.207 24.047C180.195 24.089 180.182 24.131 180.167 24.173C180.155 24.212 180.137 24.248 180.113 24.281L179.051 25.8335C179.021 25.8755 178.988 25.9145 178.952 25.9505C178.919 25.9835 178.872 26 178.812 26H178.097L179.694 23.66L178.16 21.4415H178.929C178.995 21.4415 179.043 21.452 179.073 21.473C179.103 21.494 179.13 21.524 179.154 21.563L180.275 23.273C180.299 23.186 180.336 23.102 180.387 23.021L181.368 21.581C181.395 21.539 181.424 21.506 181.454 21.482C181.487 21.455 181.526 21.4415 181.571 21.4415H182.309L180.774 23.6195L182.372 26ZM183.151 23.417H187.021V24.0245H183.151V23.417ZM183.151 21.9095H187.021V22.517H183.151V21.9095ZM188.281 21.2975C188.323 21.0035 188.404 20.744 188.524 20.519C188.644 20.291 188.796 20.1005 188.979 19.9475C189.165 19.7945 189.376 19.679 189.613 19.601C189.853 19.52 190.111 19.4795 190.387 19.4795C190.66 19.4795 190.912 19.5185 191.143 19.5965C191.374 19.6745 191.572 19.7855 191.737 19.9295C191.905 20.0735 192.036 20.2475 192.129 20.4515C192.222 20.6555 192.268 20.882 192.268 21.131C192.268 21.335 192.241 21.518 192.187 21.68C192.136 21.839 192.061 21.9785 191.962 22.0985C191.866 22.2185 191.749 22.3205 191.611 22.4045C191.473 22.4885 191.319 22.5575 191.148 22.6115C191.568 22.7195 191.883 22.9055 192.093 23.1695C192.306 23.4305 192.412 23.7575 192.412 24.1505C192.412 24.4475 192.355 24.7145 192.241 24.9515C192.13 25.1885 191.977 25.391 191.782 25.559C191.587 25.724 191.359 25.8515 191.098 25.9415C190.84 26.0285 190.563 26.072 190.266 26.072C189.924 26.072 189.631 26.03 189.388 25.946C189.145 25.859 188.94 25.7405 188.772 25.5905C188.604 25.4405 188.466 25.2635 188.358 25.0595C188.25 24.8525 188.158 24.629 188.083 24.389L188.43 24.245C188.52 24.206 188.607 24.1955 188.691 24.2135C188.778 24.2315 188.841 24.281 188.88 24.362C188.919 24.446 188.967 24.5465 189.024 24.6635C189.084 24.7805 189.165 24.893 189.267 25.001C189.369 25.109 189.498 25.2005 189.654 25.2755C189.813 25.3505 190.014 25.388 190.257 25.388C190.482 25.388 190.678 25.352 190.846 25.28C191.017 25.205 191.158 25.109 191.269 24.992C191.383 24.875 191.469 24.7445 191.526 24.6005C191.583 24.4565 191.611 24.314 191.611 24.173C191.611 23.999 191.589 23.84 191.544 23.696C191.499 23.552 191.415 23.4275 191.292 23.3225C191.169 23.2175 190.999 23.135 190.783 23.075C190.57 23.015 190.296 22.985 189.96 22.985V22.4045C190.236 22.4015 190.47 22.3715 190.662 22.3145C190.857 22.2575 191.014 22.1795 191.134 22.0805C191.257 21.9815 191.346 21.863 191.4 21.725C191.457 21.587 191.485 21.434 191.485 21.266C191.485 21.08 191.455 20.918 191.395 20.78C191.338 20.642 191.259 20.528 191.157 20.438C191.055 20.348 190.933 20.2805 190.792 20.2355C190.654 20.1905 190.504 20.168 190.342 20.168C190.18 20.168 190.029 20.192 189.888 20.24C189.75 20.288 189.627 20.3555 189.519 20.4425C189.414 20.5265 189.325 20.627 189.253 20.744C189.181 20.861 189.13 20.99 189.1 21.131C189.061 21.236 189.012 21.3065 188.952 21.3425C188.895 21.3755 188.811 21.3845 188.7 21.3695L188.281 21.2975Z" fill="black"/>
</g>
<g id="pointer-quad-2" style="opacity: 0">
<path id="arrow-pointer_2" d="M29.6464 38.3536C29.8417 38.5488 30.1583 38.5488 30.3536 38.3536L33.5355 35.1716C33.7308 34.9763 33.7308 34.6597 33.5355 34.4645C33.3403 34.2692 33.0237 34.2692 32.8284 34.4645L30 37.2929L27.1716 34.4645C26.9763 34.2692 26.6597 34.2692 26.4645 34.4645C26.2692 34.6597 26.2692 34.9763 26.4645 35.1716L29.6464 38.3536ZM29.5 18V38H30.5V18H29.5Z" fill="black"/>
<path id="index=0" d="M15.5635 10.4415V15H14.7625V10.4415H15.5635ZM15.7345 9.0105C15.7345 9.0885 15.718 9.162 15.685 9.231C15.655 9.297 15.613 9.357 15.559 9.411C15.508 9.462 15.4465 9.5025 15.3745 9.5325C15.3055 9.5625 15.232 9.5775 15.154 9.5775C15.076 9.5775 15.0025 9.5625 14.9335 9.5325C14.8675 9.5025 14.809 9.462 14.758 9.411C14.707 9.357 14.6665 9.297 14.6365 9.231C14.6065 9.162 14.5915 9.0885 14.5915 9.0105C14.5915 8.9325 14.6065 8.859 14.6365 8.79C14.6665 8.718 14.707 8.6565 14.758 8.6055C14.809 8.5515 14.8675 8.5095 14.9335 8.4795C15.0025 8.4495 15.076 8.4345 15.154 8.4345C15.232 8.4345 15.3055 8.4495 15.3745 8.4795C15.4465 8.5095 15.508 8.5515 15.559 8.6055C15.613 8.6565 15.655 8.718 15.685 8.79C15.718 8.859 15.7345 8.9325 15.7345 9.0105ZM17.6356 11.103C17.7346 10.992 17.8396 10.8915 17.9506 10.8015C18.0616 10.7115 18.1786 10.635 18.3016 10.572C18.4276 10.506 18.5596 10.4565 18.6976 10.4235C18.8386 10.3875 18.9901 10.3695 19.1521 10.3695C19.4011 10.3695 19.6201 10.4115 19.8091 10.4955C20.0011 10.5765 20.1601 10.6935 20.2861 10.8465C20.4151 10.9965 20.5126 11.178 20.5786 11.391C20.6446 11.604 20.6776 11.8395 20.6776 12.0975V15H19.8721V12.0975C19.8721 11.7525 19.7926 11.4855 19.6336 11.2965C19.4776 11.1045 19.2391 11.0085 18.9181 11.0085C18.6811 11.0085 18.4591 11.0655 18.2521 11.1795C18.0481 11.2935 17.8591 11.448 17.6851 11.643V15H16.8796V10.4415H17.3611C17.4751 10.4415 17.5456 10.497 17.5726 10.608L17.6356 11.103ZM24.8682 11.526C24.7182 11.325 24.5562 11.1855 24.3822 11.1075C24.2082 11.0265 24.0132 10.986 23.7972 10.986C23.3742 10.986 23.0487 11.1375 22.8207 11.4405C22.5927 11.7435 22.4787 12.1755 22.4787 12.7365C22.4787 13.0335 22.5042 13.2885 22.5552 13.5015C22.6062 13.7115 22.6812 13.8855 22.7802 14.0235C22.8792 14.1585 23.0007 14.2575 23.1447 14.3205C23.2887 14.3835 23.4522 14.415 23.6352 14.415C23.8992 14.415 24.1287 14.355 24.3237 14.235C24.5217 14.115 24.7032 13.9455 24.8682 13.7265V11.526ZM25.6692 8.3715V15H25.1922C25.0782 15 25.0062 14.9445 24.9762 14.8335L24.9042 14.28C24.7092 14.514 24.4872 14.703 24.2382 14.847C23.9892 14.991 23.7012 15.063 23.3742 15.063C23.1132 15.063 22.8762 15.0135 22.6632 14.9145C22.4502 14.8125 22.2687 14.664 22.1187 14.469C21.9687 14.274 21.8532 14.031 21.7722 13.74C21.6912 13.449 21.6507 13.1145 21.6507 12.7365C21.6507 12.4005 21.6957 12.0885 21.7857 11.8005C21.8757 11.5095 22.0047 11.2575 22.1727 11.0445C22.3407 10.8315 22.5462 10.665 22.7892 10.545C23.0352 10.422 23.3112 10.3605 23.6172 10.3605C23.8962 10.3605 24.1347 10.4085 24.3327 10.5045C24.5337 10.5975 24.7122 10.728 24.8682 10.896V8.3715H25.6692ZM29.9853 12.2235C29.9853 12.0375 29.9583 11.868 29.9043 11.715C29.8533 11.559 29.7768 11.4255 29.6748 11.3145C29.5758 11.2005 29.4543 11.1135 29.3103 11.0535C29.1663 10.9905 29.0028 10.959 28.8198 10.959C28.4358 10.959 28.1313 11.0715 27.9063 11.2965C27.6843 11.5185 27.5463 11.8275 27.4923 12.2235H29.9853ZM30.6333 14.361C30.5343 14.481 30.4158 14.586 30.2778 14.676C30.1398 14.763 29.9913 14.835 29.8323 14.892C29.6763 14.949 29.5143 14.991 29.3463 15.018C29.1783 15.048 29.0118 15.063 28.8468 15.063C28.5318 15.063 28.2408 15.0105 27.9738 14.9055C27.7098 14.7975 27.4803 14.6415 27.2853 14.4375C27.0933 14.2305 26.9433 13.9755 26.8353 13.6725C26.7273 13.3695 26.6733 13.0215 26.6733 12.6285C26.6733 12.3105 26.7213 12.0135 26.8173 11.7375C26.9163 11.4615 27.0573 11.223 27.2403 11.022C27.4233 10.818 27.6468 10.659 27.9108 10.545C28.1748 10.428 28.4718 10.3695 28.8018 10.3695C29.0748 10.3695 29.3268 10.416 29.5578 10.509C29.7918 10.599 29.9928 10.731 30.1608 10.905C30.3318 11.076 30.4653 11.289 30.5613 11.544C30.6573 11.796 30.7053 12.084 30.7053 12.408C30.7053 12.534 30.6918 12.618 30.6648 12.66C30.6378 12.702 30.5868 12.723 30.5118 12.723H27.4653C27.4743 13.011 27.5133 13.2615 27.5823 13.4745C27.6543 13.6875 27.7533 13.866 27.8793 14.01C28.0053 14.151 28.1553 14.2575 28.3293 14.3295C28.5033 14.3985 28.6983 14.433 28.9143 14.433C29.1153 14.433 29.2878 14.4105 29.4318 14.3655C29.5788 14.3175 29.7048 14.2665 29.8098 14.2125C29.9148 14.1585 30.0018 14.109 30.0708 14.064C30.1428 14.016 30.2043 13.992 30.2553 13.992C30.3213 13.992 30.3723 14.0175 30.4083 14.0685L30.6333 14.361ZM35.3717 15H34.6022C34.5362 15 34.4837 14.9835 34.4447 14.9505C34.4087 14.9145 34.3787 14.8755 34.3547 14.8335L33.2072 13.047C33.1952 13.089 33.1817 13.131 33.1667 13.173C33.1547 13.212 33.1367 13.248 33.1127 13.281L32.0507 14.8335C32.0207 14.8755 31.9877 14.9145 31.9517 14.9505C31.9187 14.9835 31.8722 15 31.8122 15H31.0967L32.6942 12.66L31.1597 10.4415H31.9292C31.9952 10.4415 32.0432 10.452 32.0732 10.473C32.1032 10.494 32.1302 10.524 32.1542 10.563L33.2747 12.273C33.2987 12.186 33.3362 12.102 33.3872 12.021L34.3682 10.581C34.3952 10.539 34.4237 10.506 34.4537 10.482C34.4867 10.455 34.5257 10.4415 34.5707 10.4415H35.3087L33.7742 12.6195L35.3717 15ZM36.1506 12.417H40.0206V13.0245H36.1506V12.417ZM36.1506 10.9095H40.0206V11.517H36.1506V10.9095ZM45.6463 11.778C45.6463 12.342 45.5848 12.831 45.4618 13.245C45.3418 13.656 45.1768 13.9965 44.9668 14.2665C44.7568 14.5365 44.5078 14.7375 44.2198 14.8695C43.9348 15.0015 43.6288 15.0675 43.3018 15.0675C42.9718 15.0675 42.6643 15.0015 42.3793 14.8695C42.0973 14.7375 41.8513 14.5365 41.6413 14.2665C41.4313 13.9965 41.2663 13.656 41.1463 13.245C41.0263 12.831 40.9663 12.342 40.9663 11.778C40.9663 11.214 41.0263 10.725 41.1463 10.311C41.2663 9.897 41.4313 9.555 41.6413 9.285C41.8513 9.012 42.0973 8.8095 42.3793 8.6775C42.6643 8.5455 42.9718 8.4795 43.3018 8.4795C43.6288 8.4795 43.9348 8.5455 44.2198 8.6775C44.5078 8.8095 44.7568 9.012 44.9668 9.285C45.1768 9.555 45.3418 9.897 45.4618 10.311C45.5848 10.725 45.6463 11.214 45.6463 11.778ZM44.8138 11.778C44.8138 11.286 44.7718 10.8735 44.6878 10.5405C44.6068 10.2045 44.4958 9.9345 44.3548 9.7305C44.2168 9.5265 44.0563 9.381 43.8733 9.294C43.6903 9.204 43.4998 9.159 43.3018 9.159C43.1038 9.159 42.9133 9.204 42.7303 9.294C42.5473 9.381 42.3868 9.5265 42.2488 9.7305C42.1108 9.9345 41.9998 10.2045 41.9158 10.5405C41.8348 10.8735 41.7943 11.286 41.7943 11.778C41.7943 12.27 41.8348 12.6825 41.9158 13.0155C41.9998 13.3485 42.1108 13.617 42.2488 13.821C42.3868 14.025 42.5473 14.172 42.7303 14.262C42.9133 14.349 43.1038 14.3925 43.3018 14.3925C43.4998 14.3925 43.6903 14.349 43.8733 14.262C44.0563 14.172 44.2168 14.025 44.3548 13.821C44.4958 13.617 44.6068 13.3485 44.6878 13.0155C44.7718 12.6825 44.8138 12.27 44.8138 11.778Z" fill="black"/>
</g>
<g id="pointer-quad-1" style="opacity: 0">
<path id="arrow-pointer_3" d="M226.646 49.3536C226.842 49.5488 227.158 49.5488 227.354 49.3536L230.536 46.1716C230.731 45.9763 230.731 45.6597 230.536 45.4645C230.34 45.2692 230.024 45.2692 229.828 45.4645L227 48.2929L224.172 45.4645C223.976 45.2692 223.66 45.2692 223.464 45.4645C223.269 45.6597 223.269 45.9763 223.464 46.1716L226.646 49.3536ZM226.5 29V49H227.5V29H226.5Z" fill="black"/>
<path id="index=4" d="M212.564 21.4415V26H211.763V21.4415H212.564ZM212.735 20.0105C212.735 20.0885 212.718 20.162 212.685 20.231C212.655 20.297 212.613 20.357 212.559 20.411C212.508 20.462 212.447 20.5025 212.375 20.5325C212.306 20.5625 212.232 20.5775 212.154 20.5775C212.076 20.5775 212.003 20.5625 211.934 20.5325C211.868 20.5025 211.809 20.462 211.758 20.411C211.707 20.357 211.667 20.297 211.637 20.231C211.607 20.162 211.592 20.0885 211.592 20.0105C211.592 19.9325 211.607 19.859 211.637 19.79C211.667 19.718 211.707 19.6565 211.758 19.6055C211.809 19.5515 211.868 19.5095 211.934 19.4795C212.003 19.4495 212.076 19.4345 212.154 19.4345C212.232 19.4345 212.306 19.4495 212.375 19.4795C212.447 19.5095 212.508 19.5515 212.559 19.6055C212.613 19.6565 212.655 19.718 212.685 19.79C212.718 19.859 212.735 19.9325 212.735 20.0105ZM214.636 22.103C214.735 21.992 214.84 21.8915 214.951 21.8015C215.062 21.7115 215.179 21.635 215.302 21.572C215.428 21.506 215.56 21.4565 215.698 21.4235C215.839 21.3875 215.99 21.3695 216.152 21.3695C216.401 21.3695 216.62 21.4115 216.809 21.4955C217.001 21.5765 217.16 21.6935 217.286 21.8465C217.415 21.9965 217.513 22.178 217.579 22.391C217.645 22.604 217.678 22.8395 217.678 23.0975V26H216.872V23.0975C216.872 22.7525 216.793 22.4855 216.634 22.2965C216.478 22.1045 216.239 22.0085 215.918 22.0085C215.681 22.0085 215.459 22.0655 215.252 22.1795C215.048 22.2935 214.859 22.448 214.685 22.643V26H213.88V21.4415H214.361C214.475 21.4415 214.546 21.497 214.573 21.608L214.636 22.103ZM221.868 22.526C221.718 22.325 221.556 22.1855 221.382 22.1075C221.208 22.0265 221.013 21.986 220.797 21.986C220.374 21.986 220.049 22.1375 219.821 22.4405C219.593 22.7435 219.479 23.1755 219.479 23.7365C219.479 24.0335 219.504 24.2885 219.555 24.5015C219.606 24.7115 219.681 24.8855 219.78 25.0235C219.879 25.1585 220.001 25.2575 220.145 25.3205C220.289 25.3835 220.452 25.415 220.635 25.415C220.899 25.415 221.129 25.355 221.324 25.235C221.522 25.115 221.703 24.9455 221.868 24.7265V22.526ZM222.669 19.3715V26H222.192C222.078 26 222.006 25.9445 221.976 25.8335L221.904 25.28C221.709 25.514 221.487 25.703 221.238 25.847C220.989 25.991 220.701 26.063 220.374 26.063C220.113 26.063 219.876 26.0135 219.663 25.9145C219.45 25.8125 219.269 25.664 219.119 25.469C218.969 25.274 218.853 25.031 218.772 24.74C218.691 24.449 218.651 24.1145 218.651 23.7365C218.651 23.4005 218.696 23.0885 218.786 22.8005C218.876 22.5095 219.005 22.2575 219.173 22.0445C219.341 21.8315 219.546 21.665 219.789 21.545C220.035 21.422 220.311 21.3605 220.617 21.3605C220.896 21.3605 221.135 21.4085 221.333 21.5045C221.534 21.5975 221.712 21.728 221.868 21.896V19.3715H222.669ZM226.985 23.2235C226.985 23.0375 226.958 22.868 226.904 22.715C226.853 22.559 226.777 22.4255 226.675 22.3145C226.576 22.2005 226.454 22.1135 226.31 22.0535C226.166 21.9905 226.003 21.959 225.82 21.959C225.436 21.959 225.131 22.0715 224.906 22.2965C224.684 22.5185 224.546 22.8275 224.492 23.2235H226.985ZM227.633 25.361C227.534 25.481 227.416 25.586 227.278 25.676C227.14 25.763 226.991 25.835 226.832 25.892C226.676 25.949 226.514 25.991 226.346 26.018C226.178 26.048 226.012 26.063 225.847 26.063C225.532 26.063 225.241 26.0105 224.974 25.9055C224.71 25.7975 224.48 25.6415 224.285 25.4375C224.093 25.2305 223.943 24.9755 223.835 24.6725C223.727 24.3695 223.673 24.0215 223.673 23.6285C223.673 23.3105 223.721 23.0135 223.817 22.7375C223.916 22.4615 224.057 22.223 224.24 22.022C224.423 21.818 224.647 21.659 224.911 21.545C225.175 21.428 225.472 21.3695 225.802 21.3695C226.075 21.3695 226.327 21.416 226.558 21.509C226.792 21.599 226.993 21.731 227.161 21.905C227.332 22.076 227.465 22.289 227.561 22.544C227.657 22.796 227.705 23.084 227.705 23.408C227.705 23.534 227.692 23.618 227.665 23.66C227.638 23.702 227.587 23.723 227.512 23.723H224.465C224.474 24.011 224.513 24.2615 224.582 24.4745C224.654 24.6875 224.753 24.866 224.879 25.01C225.005 25.151 225.155 25.2575 225.329 25.3295C225.503 25.3985 225.698 25.433 225.914 25.433C226.115 25.433 226.288 25.4105 226.432 25.3655C226.579 25.3175 226.705 25.2665 226.81 25.2125C226.915 25.1585 227.002 25.109 227.071 25.064C227.143 25.016 227.204 24.992 227.255 24.992C227.321 24.992 227.372 25.0175 227.408 25.0685L227.633 25.361ZM232.372 26H231.602C231.536 26 231.484 25.9835 231.445 25.9505C231.409 25.9145 231.379 25.8755 231.355 25.8335L230.207 24.047C230.195 24.089 230.182 24.131 230.167 24.173C230.155 24.212 230.137 24.248 230.113 24.281L229.051 25.8335C229.021 25.8755 228.988 25.9145 228.952 25.9505C228.919 25.9835 228.872 26 228.812 26H228.097L229.694 23.66L228.16 21.4415H228.929C228.995 21.4415 229.043 21.452 229.073 21.473C229.103 21.494 229.13 21.524 229.154 21.563L230.275 23.273C230.299 23.186 230.336 23.102 230.387 23.021L231.368 21.581C231.395 21.539 231.424 21.506 231.454 21.482C231.487 21.455 231.526 21.4415 231.571 21.4415H232.309L230.774 23.6195L232.372 26ZM233.151 23.417H237.021V24.0245H233.151V23.417ZM233.151 21.9095H237.021V22.517H233.151V21.9095ZM240.981 23.6735V21.014C240.981 20.936 240.984 20.8505 240.99 20.7575C240.996 20.6645 241.005 20.57 241.017 20.474L238.668 23.6735H240.981ZM242.66 23.6735V24.1325C242.66 24.1805 242.645 24.221 242.615 24.254C242.588 24.287 242.544 24.3035 242.484 24.3035H241.683V26H240.981V24.3035H238.119C238.059 24.3035 238.007 24.287 237.962 24.254C237.92 24.218 237.893 24.1745 237.881 24.1235L237.8 23.714L240.936 19.5515H241.683V23.6735H242.66Z" fill="black"/>
</g>
</g>
</svg>
