<svg viewBox="0 0 311 99" fill="none" xmlns="http://www.w3.org/2000/svg">
<g id="queue-add">
<g id="node-a">
<circle id="Ellipse 2" cx="62.5" cy="41.5" r="18" stroke="black"/>
<path id="a" d="M62.9646 42.72C62.5546 42.7333 62.2046 42.7667 61.9146 42.82C61.628 42.87 61.393 42.9367 61.2096 43.02C61.0296 43.1033 60.898 43.2017 60.8146 43.315C60.7346 43.4283 60.6946 43.555 60.6946 43.695C60.6946 43.8283 60.7163 43.9433 60.7596 44.04C60.803 44.1367 60.8613 44.2167 60.9346 44.28C61.0113 44.34 61.0996 44.385 61.1996 44.415C61.303 44.4417 61.413 44.455 61.5296 44.455C61.6863 44.455 61.8296 44.44 61.9596 44.41C62.0896 44.3767 62.2113 44.33 62.3246 44.27C62.4413 44.21 62.5513 44.1383 62.6546 44.055C62.7613 43.9717 62.8646 43.8767 62.9646 43.77V42.72ZM60.0896 40.65C60.3696 40.38 60.6713 40.1783 60.9946 40.045C61.318 39.9117 61.6763 39.845 62.0696 39.845C62.353 39.845 62.6046 39.8917 62.8246 39.985C63.0446 40.0783 63.2296 40.2083 63.3796 40.375C63.5296 40.5417 63.643 40.7433 63.7196 40.98C63.7963 41.2167 63.8346 41.4767 63.8346 41.76V45H63.4396C63.353 45 63.2863 44.9867 63.2396 44.96C63.193 44.93 63.1563 44.8733 63.1296 44.79L63.0296 44.31C62.8963 44.4333 62.7663 44.5433 62.6396 44.64C62.513 44.7333 62.3796 44.8133 62.2396 44.88C62.0996 44.9433 61.9496 44.9917 61.7896 45.025C61.633 45.0617 61.458 45.08 61.2646 45.08C61.068 45.08 60.883 45.0533 60.7096 45C60.5363 44.9433 60.3846 44.86 60.2546 44.75C60.128 44.64 60.0263 44.5017 59.9496 44.335C59.8763 44.165 59.8396 43.965 59.8396 43.735C59.8396 43.535 59.8946 43.3433 60.0046 43.16C60.1146 42.9733 60.293 42.8083 60.5396 42.665C60.7863 42.5217 61.108 42.405 61.5046 42.315C61.9013 42.2217 62.388 42.1683 62.9646 42.155V41.76C62.9646 41.3667 62.8796 41.07 62.7096 40.87C62.5396 40.6667 62.2913 40.565 61.9646 40.565C61.7446 40.565 61.5596 40.5933 61.4096 40.65C61.263 40.7033 61.1346 40.765 61.0246 40.835C60.918 40.9017 60.8246 40.9633 60.7446 41.02C60.668 41.0733 60.5913 41.1 60.5146 41.1C60.4546 41.1 60.403 41.085 60.3596 41.055C60.3163 41.0217 60.2796 40.9817 60.2496 40.935L60.0896 40.65Z" fill="black"/>
</g>
<g id="node-c">
<circle id="Ellipse 2_2" cx="183.5" cy="41.5" r="18" stroke="black"/>
<path id="c" d="M184.842 40.835C184.816 40.8717 184.789 40.9 184.762 40.92C184.736 40.94 184.699 40.95 184.652 40.95C184.602 40.95 184.547 40.93 184.487 40.89C184.427 40.8467 184.352 40.8 184.262 40.75C184.176 40.7 184.067 40.655 183.937 40.615C183.811 40.5717 183.654 40.55 183.467 40.55C183.217 40.55 182.997 40.595 182.807 40.685C182.617 40.7717 182.457 40.8983 182.327 41.065C182.201 41.2317 182.104 41.4333 182.037 41.67C181.974 41.9067 181.942 42.1717 181.942 42.465C181.942 42.7717 181.977 43.045 182.047 43.285C182.117 43.5217 182.216 43.7217 182.342 43.885C182.472 44.045 182.627 44.1683 182.807 44.255C182.991 44.3383 183.196 44.38 183.422 44.38C183.639 44.38 183.817 44.355 183.957 44.305C184.097 44.2517 184.212 44.1933 184.302 44.13C184.396 44.0667 184.472 44.01 184.532 43.96C184.596 43.9067 184.657 43.88 184.717 43.88C184.791 43.88 184.847 43.9083 184.887 43.965L185.137 44.29C185.027 44.4267 184.902 44.5433 184.762 44.64C184.622 44.7367 184.471 44.8183 184.307 44.885C184.147 44.9483 183.979 44.995 183.802 45.025C183.626 45.055 183.446 45.07 183.262 45.07C182.946 45.07 182.651 45.0117 182.377 44.895C182.107 44.7783 181.872 44.61 181.672 44.39C181.472 44.1667 181.316 43.8933 181.202 43.57C181.089 43.2467 181.032 42.8783 181.032 42.465C181.032 42.0883 181.084 41.74 181.187 41.42C181.294 41.1 181.447 40.825 181.647 40.595C181.851 40.3617 182.099 40.18 182.392 40.05C182.689 39.92 183.029 39.855 183.412 39.855C183.769 39.855 184.082 39.9133 184.352 40.03C184.626 40.1433 184.867 40.305 185.077 40.515L184.842 40.835Z" fill="black"/>
</g>
<g id="node-b">
<circle id="Ellipse 2_3" cx="123.5" cy="41.5" r="18" stroke="black"/>
<path id="b" d="M121.802 43.78C121.965 44 122.144 44.155 122.337 44.245C122.534 44.335 122.749 44.38 122.982 44.38C123.459 44.38 123.824 44.2117 124.077 43.875C124.33 43.5383 124.457 43.0367 124.457 42.37C124.457 41.75 124.344 41.295 124.117 41.005C123.894 40.7117 123.574 40.565 123.157 40.565C122.867 40.565 122.614 40.6317 122.397 40.765C122.184 40.8983 121.985 41.0867 121.802 41.33V43.78ZM121.802 40.665C122.015 40.4183 122.255 40.2217 122.522 40.075C122.792 39.9283 123.102 39.855 123.452 39.855C123.749 39.855 124.015 39.9117 124.252 40.025C124.492 40.1383 124.695 40.3033 124.862 40.52C125.029 40.7333 125.155 40.9933 125.242 41.3C125.332 41.6067 125.377 41.9517 125.377 42.335C125.377 42.745 125.327 43.1183 125.227 43.455C125.127 43.7917 124.982 44.08 124.792 44.32C124.605 44.5567 124.377 44.7417 124.107 44.875C123.837 45.005 123.534 45.07 123.197 45.07C122.864 45.07 122.582 45.0083 122.352 44.885C122.125 44.7583 121.927 44.58 121.757 44.35L121.712 44.81C121.685 44.9367 121.609 45 121.482 45H120.907V37.635H121.802V40.665Z" fill="black"/>
</g>
<path id="Arrow 4" d="M105.354 42.3536C105.549 42.1583 105.549 41.8417 105.354 41.6464L102.172 38.4645C101.976 38.2692 101.66 38.2692 101.464 38.4645C101.269 38.6597 101.269 38.9763 101.464 39.1716L104.293 42L101.464 44.8284C101.269 45.0237 101.269 45.3403 101.464 45.5355C101.66 45.7308 101.976 45.7308 102.172 45.5355L105.354 42.3536ZM81 42.5H105V41.5H81V42.5Z" fill="black"/>
<path id="Arrow 5" d="M165.354 42.3536C165.549 42.1583 165.549 41.8417 165.354 41.6464L162.172 38.4645C161.976 38.2692 161.66 38.2692 161.464 38.4645C161.269 38.6597 161.269 38.9763 161.464 39.1716L164.293 42L161.464 44.8284C161.269 45.0237 161.269 45.3403 161.464 45.5355C161.66 45.7308 161.976 45.7308 162.172 45.5355L165.354 42.3536ZM142 42.5H165V41.5H142V42.5Z" fill="black"/>
<path id="Arrow 5_2" d="M225.354 42.3536C225.549 42.1583 225.549 41.8417 225.354 41.6464L222.172 38.4645C221.976 38.2692 221.66 38.2692 221.464 38.4645C221.269 38.6597 221.269 38.9763 221.464 39.1716L224.293 42L221.464 44.8284C221.269 45.0237 221.269 45.3403 221.464 45.5355C221.66 45.7308 221.976 45.7308 222.172 45.5355L225.354 42.3536ZM202 42.5H225V41.5H202V42.5Z" fill="black"/>
<path id="Arrow 6" d="M48.0161 28.4997C48.2921 28.4908 48.5086 28.2599 48.4997 27.9839L48.3547 23.4862C48.3458 23.2102 48.1148 22.9937 47.8388 23.0026C47.5628 23.0115 47.3463 23.2425 47.3552 23.5185L47.4841 27.5164L43.4862 27.6453C43.2102 27.6542 42.9937 27.8852 43.0026 28.1612C43.0115 28.4372 43.2425 28.6537 43.5185 28.6448L48.0161 28.4997ZM31.658 13.3648L47.658 28.3648L48.342 27.6352L32.342 12.6352L31.658 13.3648Z" fill="#0B3AB5"/>
<path id="head (start of queue)" d="M2.93887 5.61C3.15553 5.38 3.39553 5.19667 3.65887 5.06C3.9222 4.92333 4.22553 4.855 4.56887 4.855C4.84553 4.855 5.08887 4.90167 5.29887 4.995C5.5122 5.085 5.68887 5.215 5.82887 5.385C5.9722 5.55167 6.08053 5.75333 6.15387 5.99C6.2272 6.22667 6.26387 6.48833 6.26387 6.775V10H5.36887V6.775C5.36887 6.39167 5.28053 6.095 5.10387 5.885C4.93053 5.67167 4.66553 5.565 4.30887 5.565C4.04553 5.565 3.79887 5.62833 3.56887 5.755C3.3422 5.88167 3.1322 6.05333 2.93887 6.27V10H2.04387V2.635H2.93887V5.61ZM11.01 6.915C11.01 6.70833 10.98 6.52 10.92 6.35C10.8634 6.17667 10.7784 6.02833 10.665 5.905C10.555 5.77833 10.42 5.68167 10.26 5.615C10.1 5.545 9.91837 5.51 9.71504 5.51C9.28837 5.51 8.95004 5.635 8.70004 5.885C8.45337 6.13167 8.30004 6.475 8.24004 6.915H11.01ZM11.73 9.29C11.62 9.42333 11.4884 9.54 11.335 9.64C11.1817 9.73667 11.0167 9.81667 10.84 9.88C10.6667 9.94333 10.4867 9.99 10.3 10.02C10.1134 10.0533 9.92837 10.07 9.74504 10.07C9.39504 10.07 9.07171 10.0117 8.77504 9.895C8.48171 9.775 8.22671 9.60167 8.01004 9.375C7.79671 9.145 7.63004 8.86167 7.51004 8.525C7.39004 8.18833 7.33004 7.80167 7.33004 7.365C7.33004 7.01167 7.38337 6.68167 7.49004 6.375C7.60004 6.06833 7.75671 5.80333 7.96004 5.58C8.16337 5.35333 8.41171 5.17667 8.70504 5.05C8.99837 4.92 9.32837 4.855 9.69504 4.855C9.99837 4.855 10.2784 4.90667 10.535 5.01C10.795 5.11 11.0184 5.25667 11.205 5.45C11.395 5.64 11.5434 5.87667 11.65 6.16C11.7567 6.44 11.81 6.76 11.81 7.12C11.81 7.26 11.795 7.35333 11.765 7.4C11.735 7.44667 11.6784 7.47 11.595 7.47H8.21004C8.22004 7.79 8.26337 8.06833 8.34004 8.305C8.42004 8.54167 8.53004 8.74 8.67004 8.9C8.81004 9.05667 8.97671 9.175 9.17004 9.255C9.36337 9.33167 9.58004 9.37 9.82004 9.37C10.0434 9.37 10.235 9.345 10.395 9.295C10.5584 9.24167 10.6984 9.185 10.815 9.125C10.9317 9.065 11.0284 9.01 11.105 8.96C11.185 8.90667 11.2534 8.88 11.31 8.88C11.3834 8.88 11.44 8.90833 11.48 8.965L11.73 9.29ZM15.6482 7.72C15.2382 7.73333 14.8882 7.76667 14.5982 7.82C14.3116 7.87 14.0766 7.93667 13.8932 8.02C13.7132 8.10333 13.5816 8.20167 13.4982 8.315C13.4182 8.42833 13.3782 8.555 13.3782 8.695C13.3782 8.82833 13.3999 8.94333 13.4432 9.04C13.4866 9.13667 13.5449 9.21667 13.6182 9.28C13.6949 9.34 13.7832 9.385 13.8832 9.415C13.9866 9.44167 14.0966 9.455 14.2132 9.455C14.3699 9.455 14.5132 9.44 14.6432 9.41C14.7732 9.37667 14.8949 9.33 15.0082 9.27C15.1249 9.21 15.2349 9.13833 15.3382 9.055C15.4449 8.97167 15.5482 8.87667 15.6482 8.77V7.72ZM12.7732 5.65C13.0532 5.38 13.3549 5.17833 13.6782 5.045C14.0016 4.91167 14.3599 4.845 14.7532 4.845C15.0366 4.845 15.2882 4.89167 15.5082 4.985C15.7282 5.07833 15.9132 5.20833 16.0632 5.375C16.2132 5.54167 16.3266 5.74333 16.4032 5.98C16.4799 6.21667 16.5182 6.47667 16.5182 6.76V10H16.1232C16.0366 10 15.9699 9.98667 15.9232 9.96C15.8766 9.93 15.8399 9.87333 15.8132 9.79L15.7132 9.31C15.5799 9.43333 15.4499 9.54333 15.3232 9.64C15.1966 9.73333 15.0632 9.81333 14.9232 9.88C14.7832 9.94333 14.6332 9.99167 14.4732 10.025C14.3166 10.0617 14.1416 10.08 13.9482 10.08C13.7516 10.08 13.5666 10.0533 13.3932 10C13.2199 9.94333 13.0682 9.86 12.9382 9.75C12.8116 9.64 12.7099 9.50167 12.6332 9.335C12.5599 9.165 12.5232 8.965 12.5232 8.735C12.5232 8.535 12.5782 8.34333 12.6882 8.16C12.7982 7.97333 12.9766 7.80833 13.2232 7.665C13.4699 7.52167 13.7916 7.405 14.1882 7.315C14.5849 7.22167 15.0716 7.16833 15.6482 7.155V6.76C15.6482 6.36667 15.5632 6.07 15.3932 5.87C15.2232 5.66667 14.9749 5.565 14.6482 5.565C14.4282 5.565 14.2432 5.59333 14.0932 5.65C13.9466 5.70333 13.8182 5.765 13.7082 5.835C13.6016 5.90167 13.5082 5.96333 13.4282 6.02C13.3516 6.07333 13.2749 6.1 13.1982 6.1C13.1382 6.1 13.0866 6.085 13.0432 6.055C12.9999 6.02167 12.9632 5.98167 12.9332 5.935L12.7732 5.65ZM21.1739 6.14C21.0073 5.91667 20.8273 5.76167 20.6339 5.675C20.4406 5.585 20.2239 5.54 19.9839 5.54C19.5139 5.54 19.1523 5.70833 18.8989 6.045C18.6456 6.38167 18.5189 6.86167 18.5189 7.485C18.5189 7.815 18.5473 8.09833 18.6039 8.335C18.6606 8.56833 18.7439 8.76167 18.8539 8.915C18.9639 9.065 19.0989 9.175 19.2589 9.245C19.4189 9.315 19.6006 9.35 19.8039 9.35C20.0973 9.35 20.3523 9.28333 20.5689 9.15C20.7889 9.01667 20.9906 8.82833 21.1739 8.585V6.14ZM22.0639 2.635V10H21.5339C21.4073 10 21.3273 9.93833 21.2939 9.815L21.2139 9.2C20.9973 9.46 20.7506 9.67 20.4739 9.83C20.1973 9.99 19.8773 10.07 19.5139 10.07C19.2239 10.07 18.9606 10.015 18.7239 9.905C18.4873 9.79167 18.2856 9.62667 18.1189 9.41C17.9523 9.19333 17.8239 8.92333 17.7339 8.6C17.6439 8.27667 17.5989 7.905 17.5989 7.485C17.5989 7.11167 17.6489 6.765 17.7489 6.445C17.8489 6.12167 17.9923 5.84167 18.1789 5.605C18.3656 5.36833 18.5939 5.18333 18.8639 5.05C19.1373 4.91333 19.4439 4.845 19.7839 4.845C20.0939 4.845 20.3589 4.89833 20.5789 5.005C20.8023 5.10833 21.0006 5.25333 21.1739 5.44V2.635H22.0639ZM26.5482 6.855C26.5482 7.56833 26.6382 8.26167 26.8182 8.935C27.0016 9.60833 27.2682 10.2483 27.6182 10.855C27.6716 10.9583 27.6849 11.0367 27.6582 11.09C27.6316 11.1467 27.5932 11.1917 27.5432 11.225L27.1482 11.465C26.8982 11.0817 26.6849 10.7017 26.5082 10.325C26.3349 9.94833 26.1932 9.57 26.0832 9.19C25.9766 8.81 25.8982 8.42833 25.8482 8.045C25.7982 7.65833 25.7732 7.26167 25.7732 6.855C25.7732 6.45167 25.7982 6.05667 25.8482 5.67C25.8982 5.28333 25.9766 4.90167 26.0832 4.525C26.1932 4.145 26.3349 3.76667 26.5082 3.39C26.6849 3.01333 26.8982 2.63167 27.1482 2.245L27.5432 2.49C27.5932 2.52333 27.6316 2.56833 27.6582 2.625C27.6849 2.67833 27.6716 2.755 27.6182 2.855C27.2682 3.46167 27.0016 4.10167 26.8182 4.775C26.6382 5.44833 26.5482 6.14167 26.5482 6.855ZM31.4587 5.77C31.4187 5.84333 31.357 5.88 31.2737 5.88C31.2237 5.88 31.167 5.86167 31.1037 5.825C31.0404 5.78833 30.962 5.74833 30.8687 5.705C30.7787 5.65833 30.6704 5.61667 30.5437 5.58C30.417 5.54 30.267 5.52 30.0937 5.52C29.9437 5.52 29.8087 5.54 29.6887 5.58C29.5687 5.61667 29.4654 5.66833 29.3787 5.735C29.2954 5.80167 29.2304 5.88 29.1837 5.97C29.1404 6.05667 29.1187 6.15167 29.1187 6.255C29.1187 6.385 29.1554 6.49333 29.2287 6.58C29.3054 6.66667 29.4054 6.74167 29.5287 6.805C29.652 6.86833 29.792 6.925 29.9487 6.975C30.1054 7.02167 30.2654 7.07333 30.4287 7.13C30.5954 7.18333 30.757 7.24333 30.9137 7.31C31.0704 7.37667 31.2104 7.46 31.3337 7.56C31.457 7.66 31.5554 7.78333 31.6287 7.93C31.7054 8.07333 31.7437 8.24667 31.7437 8.45C31.7437 8.68333 31.702 8.9 31.6187 9.1C31.5354 9.29667 31.412 9.46833 31.2487 9.615C31.0854 9.75833 30.8854 9.87167 30.6487 9.955C30.412 10.0383 30.1387 10.08 29.8287 10.08C29.4754 10.08 29.1554 10.0233 28.8687 9.91C28.582 9.79333 28.3387 9.645 28.1387 9.465L28.3487 9.125C28.3754 9.08167 28.407 9.04833 28.4437 9.025C28.4804 9.00167 28.527 8.99 28.5837 8.99C28.6437 8.99 28.707 9.01333 28.7737 9.06C28.8404 9.10667 28.9204 9.15833 29.0137 9.215C29.1104 9.27167 29.227 9.32333 29.3637 9.37C29.5004 9.41667 29.6704 9.44 29.8737 9.44C30.047 9.44 30.1987 9.41833 30.3287 9.375C30.4587 9.32833 30.567 9.26667 30.6537 9.19C30.7404 9.11333 30.8037 9.025 30.8437 8.925C30.887 8.825 30.9087 8.71833 30.9087 8.605C30.9087 8.465 30.8704 8.35 30.7937 8.26C30.7204 8.16667 30.622 8.08833 30.4987 8.025C30.3754 7.95833 30.2337 7.90167 30.0737 7.855C29.917 7.805 29.7554 7.75333 29.5887 7.7C29.4254 7.64667 29.2637 7.58667 29.1037 7.52C28.947 7.45 28.807 7.36333 28.6837 7.26C28.5604 7.15667 28.4604 7.03 28.3837 6.88C28.3104 6.72667 28.2737 6.54167 28.2737 6.325C28.2737 6.13167 28.3137 5.94667 28.3937 5.77C28.4737 5.59 28.5904 5.43333 28.7437 5.3C28.897 5.16333 29.0854 5.055 29.3087 4.975C29.532 4.895 29.787 4.855 30.0737 4.855C30.407 4.855 30.7054 4.90833 30.9687 5.015C31.2354 5.11833 31.4654 5.26167 31.6587 5.445L31.4587 5.77ZM34.3899 10.08C33.9899 10.08 33.6815 9.96833 33.4649 9.745C33.2515 9.52167 33.1449 9.2 33.1449 8.78V5.68H32.5349C32.4815 5.68 32.4365 5.665 32.3999 5.635C32.3632 5.60167 32.3449 5.55167 32.3449 5.485V5.13L33.1749 5.025L33.3799 3.46C33.3899 3.41 33.4115 3.37 33.4449 3.34C33.4815 3.30667 33.5282 3.29 33.5849 3.29H34.0349V5.035H35.4999V5.68H34.0349V8.72C34.0349 8.93333 34.0865 9.09167 34.1899 9.195C34.2932 9.29833 34.4265 9.35 34.5899 9.35C34.6832 9.35 34.7632 9.33833 34.8299 9.315C34.8999 9.28833 34.9599 9.26 35.0099 9.23C35.0599 9.2 35.1015 9.17333 35.1349 9.15C35.1715 9.12333 35.2032 9.11 35.2299 9.11C35.2765 9.11 35.3182 9.13833 35.3549 9.195L35.6149 9.62C35.4615 9.76333 35.2765 9.87667 35.0599 9.96C34.8432 10.04 34.6199 10.08 34.3899 10.08ZM39.1639 7.72C38.7539 7.73333 38.4039 7.76667 38.1139 7.82C37.8272 7.87 37.5922 7.93667 37.4089 8.02C37.2289 8.10333 37.0972 8.20167 37.0139 8.315C36.9339 8.42833 36.8939 8.555 36.8939 8.695C36.8939 8.82833 36.9155 8.94333 36.9589 9.04C37.0022 9.13667 37.0605 9.21667 37.1339 9.28C37.2105 9.34 37.2989 9.385 37.3989 9.415C37.5022 9.44167 37.6122 9.455 37.7289 9.455C37.8855 9.455 38.0289 9.44 38.1589 9.41C38.2889 9.37667 38.4105 9.33 38.5239 9.27C38.6405 9.21 38.7505 9.13833 38.8539 9.055C38.9605 8.97167 39.0639 8.87667 39.1639 8.77V7.72ZM36.2889 5.65C36.5689 5.38 36.8705 5.17833 37.1939 5.045C37.5172 4.91167 37.8755 4.845 38.2689 4.845C38.5522 4.845 38.8039 4.89167 39.0239 4.985C39.2439 5.07833 39.4289 5.20833 39.5789 5.375C39.7289 5.54167 39.8422 5.74333 39.9189 5.98C39.9955 6.21667 40.0339 6.47667 40.0339 6.76V10H39.6389C39.5522 10 39.4855 9.98667 39.4389 9.96C39.3922 9.93 39.3555 9.87333 39.3289 9.79L39.2289 9.31C39.0955 9.43333 38.9655 9.54333 38.8389 9.64C38.7122 9.73333 38.5789 9.81333 38.4389 9.88C38.2989 9.94333 38.1489 9.99167 37.9889 10.025C37.8322 10.0617 37.6572 10.08 37.4639 10.08C37.2672 10.08 37.0822 10.0533 36.9089 10C36.7355 9.94333 36.5839 9.86 36.4539 9.75C36.3272 9.64 36.2255 9.50167 36.1489 9.335C36.0755 9.165 36.0389 8.965 36.0389 8.735C36.0389 8.535 36.0939 8.34333 36.2039 8.16C36.3139 7.97333 36.4922 7.80833 36.7389 7.665C36.9855 7.52167 37.3072 7.405 37.7039 7.315C38.1005 7.22167 38.5872 7.16833 39.1639 7.155V6.76C39.1639 6.36667 39.0789 6.07 38.9089 5.87C38.7389 5.66667 38.4905 5.565 38.1639 5.565C37.9439 5.565 37.7589 5.59333 37.6089 5.65C37.4622 5.70333 37.3339 5.765 37.2239 5.835C37.1172 5.90167 37.0239 5.96333 36.9439 6.02C36.8672 6.07333 36.7905 6.1 36.7139 6.1C36.6539 6.1 36.6022 6.085 36.5589 6.055C36.5155 6.02167 36.4789 5.98167 36.4489 5.935L36.2889 5.65ZM42.2346 5.95C42.3946 5.60333 42.5912 5.33333 42.8246 5.14C43.0579 4.94333 43.3429 4.845 43.6796 4.845C43.7862 4.845 43.8879 4.85667 43.9846 4.88C44.0846 4.90333 44.1729 4.94 44.2496 4.99L44.1846 5.655C44.1646 5.73833 44.1146 5.78 44.0346 5.78C43.9879 5.78 43.9196 5.77 43.8296 5.75C43.7396 5.73 43.6379 5.72 43.5246 5.72C43.3646 5.72 43.2212 5.74333 43.0946 5.79C42.9712 5.83667 42.8596 5.90667 42.7596 6C42.6629 6.09 42.5746 6.20333 42.4946 6.34C42.4179 6.47333 42.3479 6.62667 42.2846 6.8V10H41.3896V4.935H41.8996C41.9962 4.935 42.0629 4.95333 42.0996 4.99C42.1362 5.02667 42.1612 5.09 42.1746 5.18L42.2346 5.95ZM46.5871 10.08C46.1871 10.08 45.8788 9.96833 45.6621 9.745C45.4488 9.52167 45.3421 9.2 45.3421 8.78V5.68H44.7321C44.6788 5.68 44.6338 5.665 44.5971 5.635C44.5605 5.60167 44.5421 5.55167 44.5421 5.485V5.13L45.3721 5.025L45.5771 3.46C45.5871 3.41 45.6088 3.37 45.6421 3.34C45.6788 3.30667 45.7255 3.29 45.7821 3.29H46.2321V5.035H47.6971V5.68H46.2321V8.72C46.2321 8.93333 46.2838 9.09167 46.3871 9.195C46.4905 9.29833 46.6238 9.35 46.7871 9.35C46.8805 9.35 46.9605 9.33833 47.0271 9.315C47.0971 9.28833 47.1571 9.26 47.2071 9.23C47.2571 9.2 47.2988 9.17333 47.3321 9.15C47.3688 9.12333 47.4005 9.11 47.4271 9.11C47.4738 9.11 47.5155 9.13833 47.5521 9.195L47.8121 9.62C47.6588 9.76333 47.4738 9.87667 47.2571 9.96C47.0405 10.04 46.8171 10.08 46.5871 10.08ZM53.3097 4.855C53.6797 4.855 54.0131 4.91667 54.3097 5.04C54.6064 5.16333 54.8597 5.33833 55.0697 5.565C55.2797 5.79167 55.4397 6.06667 55.5497 6.39C55.6631 6.71 55.7197 7.06833 55.7197 7.465C55.7197 7.865 55.6631 8.225 55.5497 8.545C55.4397 8.865 55.2797 9.13833 55.0697 9.365C54.8597 9.59167 54.6064 9.76667 54.3097 9.89C54.0131 10.01 53.6797 10.07 53.3097 10.07C52.9364 10.07 52.5997 10.01 52.2997 9.89C52.0031 9.76667 51.7497 9.59167 51.5397 9.365C51.3297 9.13833 51.1681 8.865 51.0547 8.545C50.9447 8.225 50.8897 7.865 50.8897 7.465C50.8897 7.06833 50.9447 6.71 51.0547 6.39C51.1681 6.06667 51.3297 5.79167 51.5397 5.565C51.7497 5.33833 52.0031 5.16333 52.2997 5.04C52.5997 4.91667 52.9364 4.855 53.3097 4.855ZM53.3097 9.375C53.8097 9.375 54.1831 9.20833 54.4297 8.875C54.6764 8.53833 54.7997 8.07 54.7997 7.47C54.7997 6.86667 54.6764 6.39667 54.4297 6.06C54.1831 5.72333 53.8097 5.555 53.3097 5.555C53.0564 5.555 52.8347 5.59833 52.6447 5.685C52.4581 5.77167 52.3014 5.89667 52.1747 6.06C52.0514 6.22333 51.9581 6.425 51.8947 6.665C51.8347 6.90167 51.8047 7.17 51.8047 7.47C51.8047 8.07 51.9281 8.53833 52.1747 8.875C52.4247 9.20833 52.8031 9.375 53.3097 9.375ZM57.0711 10V5.695L56.5111 5.63C56.4411 5.61333 56.3828 5.58833 56.3361 5.555C56.2928 5.51833 56.2711 5.46667 56.2711 5.4V5.035H57.0711V4.545C57.0711 4.255 57.1111 3.99833 57.1911 3.775C57.2745 3.54833 57.3911 3.35833 57.5411 3.205C57.6945 3.04833 57.8778 2.93 58.0911 2.85C58.3045 2.77 58.5445 2.73 58.8111 2.73C59.0378 2.73 59.2461 2.76333 59.4361 2.83L59.4161 3.275C59.4095 3.355 59.3645 3.39833 59.2811 3.405C59.2011 3.41167 59.0928 3.415 58.9561 3.415C58.8028 3.415 58.6628 3.435 58.5361 3.475C58.4128 3.515 58.3061 3.58 58.2161 3.67C58.1261 3.76 58.0561 3.87833 58.0061 4.025C57.9595 4.17167 57.9361 4.35333 57.9361 4.57V5.035H59.3961V5.68H57.9661V10H57.0711ZM65.92 6.135C65.76 5.92167 65.5817 5.77 65.385 5.68C65.1884 5.58667 64.97 5.54 64.73 5.54C64.26 5.54 63.8984 5.70833 63.645 6.045C63.3917 6.38167 63.265 6.86167 63.265 7.485C63.265 7.815 63.2934 8.09833 63.35 8.335C63.4067 8.56833 63.49 8.76167 63.6 8.915C63.71 9.065 63.845 9.175 64.005 9.245C64.165 9.315 64.3467 9.35 64.55 9.35C64.8434 9.35 65.0984 9.28333 65.315 9.15C65.535 9.01667 65.7367 8.82833 65.92 8.585V6.135ZM66.81 4.935V11.715H65.92V9.245C65.71 9.49167 65.4684 9.69167 65.195 9.845C64.9217 9.995 64.61 10.07 64.26 10.07C63.97 10.07 63.7067 10.015 63.47 9.905C63.2334 9.79167 63.0317 9.62667 62.865 9.41C62.6984 9.19333 62.57 8.92333 62.48 8.6C62.39 8.27667 62.345 7.905 62.345 7.485C62.345 7.11167 62.395 6.765 62.495 6.445C62.595 6.12167 62.7384 5.84167 62.925 5.605C63.1117 5.36833 63.34 5.18333 63.61 5.05C63.8834 4.91333 64.19 4.845 64.53 4.845C64.86 4.845 65.14 4.90333 65.37 5.02C65.6 5.13667 65.8034 5.3 65.98 5.51L66.04 5.12C66.0734 4.99667 66.1534 4.935 66.28 4.935H66.81ZM72.3807 4.935V10H71.8507C71.7241 10 71.6441 9.93833 71.6107 9.815L71.5407 9.27C71.3207 9.51333 71.0741 9.71 70.8007 9.86C70.5274 10.0067 70.2141 10.08 69.8607 10.08C69.5841 10.08 69.3391 10.035 69.1257 9.945C68.9157 9.85167 68.7391 9.72167 68.5957 9.555C68.4524 9.38833 68.3441 9.18667 68.2707 8.95C68.2007 8.71333 68.1657 8.45167 68.1657 8.165V4.935H69.0557V8.165C69.0557 8.54833 69.1424 8.845 69.3157 9.055C69.4924 9.265 69.7607 9.37 70.1207 9.37C70.3841 9.37 70.6291 9.30833 70.8557 9.185C71.0857 9.05833 71.2974 8.885 71.4907 8.665V4.935H72.3807ZM77.1819 6.915C77.1819 6.70833 77.1519 6.52 77.0919 6.35C77.0352 6.17667 76.9502 6.02833 76.8369 5.905C76.7269 5.77833 76.5919 5.68167 76.4319 5.615C76.2719 5.545 76.0902 5.51 75.8869 5.51C75.4602 5.51 75.1219 5.635 74.8719 5.885C74.6252 6.13167 74.4719 6.475 74.4119 6.915H77.1819ZM77.9019 9.29C77.7919 9.42333 77.6602 9.54 77.5069 9.64C77.3536 9.73667 77.1886 9.81667 77.0119 9.88C76.8386 9.94333 76.6586 9.99 76.4719 10.02C76.2852 10.0533 76.1002 10.07 75.9169 10.07C75.5669 10.07 75.2436 10.0117 74.9469 9.895C74.6536 9.775 74.3986 9.60167 74.1819 9.375C73.9686 9.145 73.8019 8.86167 73.6819 8.525C73.5619 8.18833 73.5019 7.80167 73.5019 7.365C73.5019 7.01167 73.5552 6.68167 73.6619 6.375C73.7719 6.06833 73.9286 5.80333 74.1319 5.58C74.3352 5.35333 74.5836 5.17667 74.8769 5.05C75.1702 4.92 75.5002 4.855 75.8669 4.855C76.1702 4.855 76.4502 4.90667 76.7069 5.01C76.9669 5.11 77.1902 5.25667 77.3769 5.45C77.5669 5.64 77.7152 5.87667 77.8219 6.16C77.9286 6.44 77.9819 6.76 77.9819 7.12C77.9819 7.26 77.9669 7.35333 77.9369 7.4C77.9069 7.44667 77.8502 7.47 77.7669 7.47H74.3819C74.3919 7.79 74.4352 8.06833 74.5119 8.305C74.5919 8.54167 74.7019 8.74 74.8419 8.9C74.9819 9.05667 75.1486 9.175 75.3419 9.255C75.5352 9.33167 75.7519 9.37 75.9919 9.37C76.2152 9.37 76.4069 9.345 76.5669 9.295C76.7302 9.24167 76.8702 9.185 76.9869 9.125C77.1036 9.065 77.2002 9.01 77.2769 8.96C77.3569 8.90667 77.4252 8.88 77.4819 8.88C77.5552 8.88 77.6119 8.90833 77.6519 8.965L77.9019 9.29ZM83.2401 4.935V10H82.7101C82.5835 10 82.5035 9.93833 82.4701 9.815L82.4001 9.27C82.1801 9.51333 81.9335 9.71 81.6601 9.86C81.3868 10.0067 81.0735 10.08 80.7201 10.08C80.4435 10.08 80.1985 10.035 79.9851 9.945C79.7751 9.85167 79.5985 9.72167 79.4551 9.555C79.3118 9.38833 79.2035 9.18667 79.1301 8.95C79.0601 8.71333 79.0251 8.45167 79.0251 8.165V4.935H79.9151V8.165C79.9151 8.54833 80.0018 8.845 80.1751 9.055C80.3518 9.265 80.6201 9.37 80.9801 9.37C81.2435 9.37 81.4885 9.30833 81.7151 9.185C81.9451 9.05833 82.1568 8.885 82.3501 8.665V4.935H83.2401ZM88.0413 6.915C88.0413 6.70833 88.0113 6.52 87.9513 6.35C87.8946 6.17667 87.8096 6.02833 87.6963 5.905C87.5863 5.77833 87.4513 5.68167 87.2913 5.615C87.1313 5.545 86.9496 5.51 86.7463 5.51C86.3196 5.51 85.9813 5.635 85.7313 5.885C85.4846 6.13167 85.3313 6.475 85.2713 6.915H88.0413ZM88.7613 9.29C88.6513 9.42333 88.5196 9.54 88.3663 9.64C88.213 9.73667 88.048 9.81667 87.8713 9.88C87.698 9.94333 87.518 9.99 87.3313 10.02C87.1446 10.0533 86.9596 10.07 86.7763 10.07C86.4263 10.07 86.103 10.0117 85.8063 9.895C85.513 9.775 85.258 9.60167 85.0413 9.375C84.828 9.145 84.6613 8.86167 84.5413 8.525C84.4213 8.18833 84.3613 7.80167 84.3613 7.365C84.3613 7.01167 84.4146 6.68167 84.5213 6.375C84.6313 6.06833 84.788 5.80333 84.9913 5.58C85.1946 5.35333 85.443 5.17667 85.7363 5.05C86.0296 4.92 86.3596 4.855 86.7263 4.855C87.0296 4.855 87.3096 4.90667 87.5663 5.01C87.8263 5.11 88.0496 5.25667 88.2363 5.45C88.4263 5.64 88.5746 5.87667 88.6813 6.16C88.788 6.44 88.8413 6.76 88.8413 7.12C88.8413 7.26 88.8263 7.35333 88.7963 7.4C88.7663 7.44667 88.7096 7.47 88.6263 7.47H85.2413C85.2513 7.79 85.2946 8.06833 85.3713 8.305C85.4513 8.54167 85.5613 8.74 85.7013 8.9C85.8413 9.05667 86.008 9.175 86.2013 9.255C86.3946 9.33167 86.6113 9.37 86.8513 9.37C87.0746 9.37 87.2663 9.345 87.4263 9.295C87.5896 9.24167 87.7296 9.185 87.8463 9.125C87.963 9.065 88.0596 9.01 88.1363 8.96C88.2163 8.90667 88.2846 8.88 88.3413 8.88C88.4146 8.88 88.4713 8.90833 88.5113 8.965L88.7613 9.29ZM90.4401 6.855C90.4401 6.14167 90.3485 5.44833 90.1651 4.775C89.9851 4.10167 89.7201 3.46167 89.3701 2.855C89.3435 2.805 89.3268 2.76167 89.3201 2.725C89.3135 2.685 89.3151 2.65167 89.3251 2.625C89.3351 2.595 89.3501 2.57 89.3701 2.55C89.3935 2.52667 89.4185 2.50667 89.4451 2.49L89.8401 2.245C90.0901 2.63167 90.3018 3.01333 90.4751 3.39C90.6518 3.76667 90.7935 4.145 90.9001 4.525C91.0101 4.90167 91.0901 5.28333 91.1401 5.67C91.1901 6.05667 91.2151 6.45167 91.2151 6.855C91.2151 7.26167 91.1901 7.65833 91.1401 8.045C91.0901 8.42833 91.0101 8.81 90.9001 9.19C90.7935 9.57 90.6518 9.94833 90.4751 10.325C90.3018 10.7017 90.0901 11.0817 89.8401 11.465L89.4451 11.225C89.4185 11.2083 89.3935 11.1883 89.3701 11.165C89.3501 11.145 89.3351 11.12 89.3251 11.09C89.3151 11.0633 89.3135 11.03 89.3201 10.99C89.3268 10.95 89.3435 10.905 89.3701 10.855C89.7201 10.2483 89.9851 9.60833 90.1651 8.935C90.3485 8.26167 90.4401 7.56833 90.4401 6.855Z" fill="#0B3AB5"/>
<path id="next pointer" d="M82.8673 73.67C82.9773 73.5467 83.0939 73.435 83.2173 73.335C83.3406 73.235 83.4706 73.15 83.6073 73.08C83.7473 73.0067 83.8939 72.9517 84.0473 72.915C84.2039 72.875 84.3723 72.855 84.5523 72.855C84.8289 72.855 85.0723 72.9017 85.2823 72.995C85.4956 73.085 85.6723 73.215 85.8123 73.385C85.9556 73.5517 86.0639 73.7533 86.1373 73.99C86.2106 74.2267 86.2473 74.4883 86.2473 74.775V78H85.3523V74.775C85.3523 74.3917 85.2639 74.095 85.0873 73.885C84.9139 73.6717 84.6489 73.565 84.2923 73.565C84.0289 73.565 83.7823 73.6283 83.5523 73.755C83.3256 73.8817 83.1156 74.0533 82.9223 74.27V78H82.0273V72.935H82.5623C82.6889 72.935 82.7673 72.9967 82.7973 73.12L82.8673 73.67ZM90.9934 74.915C90.9934 74.7083 90.9634 74.52 90.9034 74.35C90.8468 74.1767 90.7618 74.0283 90.6484 73.905C90.5384 73.7783 90.4034 73.6817 90.2434 73.615C90.0834 73.545 89.9018 73.51 89.6984 73.51C89.2718 73.51 88.9334 73.635 88.6834 73.885C88.4368 74.1317 88.2834 74.475 88.2234 74.915H90.9934ZM91.7134 77.29C91.6034 77.4233 91.4718 77.54 91.3184 77.64C91.1651 77.7367 91.0001 77.8167 90.8234 77.88C90.6501 77.9433 90.4701 77.99 90.2834 78.02C90.0968 78.0533 89.9118 78.07 89.7284 78.07C89.3784 78.07 89.0551 78.0117 88.7584 77.895C88.4651 77.775 88.2101 77.6017 87.9934 77.375C87.7801 77.145 87.6134 76.8617 87.4934 76.525C87.3734 76.1883 87.3134 75.8017 87.3134 75.365C87.3134 75.0117 87.3668 74.6817 87.4734 74.375C87.5834 74.0683 87.7401 73.8033 87.9434 73.58C88.1468 73.3533 88.3951 73.1767 88.6884 73.05C88.9818 72.92 89.3118 72.855 89.6784 72.855C89.9818 72.855 90.2618 72.9067 90.5184 73.01C90.7784 73.11 91.0018 73.2567 91.1884 73.45C91.3784 73.64 91.5268 73.8767 91.6334 74.16C91.7401 74.44 91.7934 74.76 91.7934 75.12C91.7934 75.26 91.7784 75.3533 91.7484 75.4C91.7184 75.4467 91.6618 75.47 91.5784 75.47H88.1934C88.2034 75.79 88.2468 76.0683 88.3234 76.305C88.4034 76.5417 88.5134 76.74 88.6534 76.9C88.7934 77.0567 88.9601 77.175 89.1534 77.255C89.3468 77.3317 89.5634 77.37 89.8034 77.37C90.0268 77.37 90.2184 77.345 90.3784 77.295C90.5418 77.2417 90.6818 77.185 90.7984 77.125C90.9151 77.065 91.0118 77.01 91.0884 76.96C91.1684 76.9067 91.2368 76.88 91.2934 76.88C91.3668 76.88 91.4234 76.9083 91.4634 76.965L91.7134 77.29ZM96.9783 78H96.1233C96.0499 78 95.9916 77.9817 95.9483 77.945C95.9083 77.905 95.8749 77.8617 95.8483 77.815L94.5733 75.83C94.5599 75.8767 94.5449 75.9233 94.5283 75.97C94.5149 76.0133 94.4949 76.0533 94.4683 76.09L93.2883 77.815C93.2549 77.8617 93.2183 77.905 93.1783 77.945C93.1416 77.9817 93.0899 78 93.0233 78H92.2283L94.0033 75.4L92.2983 72.935H93.1533C93.2266 72.935 93.2799 72.9467 93.3133 72.97C93.3466 72.9933 93.3766 73.0267 93.4033 73.07L94.6483 74.97C94.6749 74.8733 94.7166 74.78 94.7733 74.69L95.8633 73.09C95.8933 73.0433 95.9249 73.0067 95.9583 72.98C95.9949 72.95 96.0383 72.935 96.0883 72.935H96.9083L95.2033 75.355L96.9783 78ZM99.3538 78.08C98.9538 78.08 98.6454 77.9683 98.4288 77.745C98.2154 77.5217 98.1088 77.2 98.1088 76.78V73.68H97.4988C97.4454 73.68 97.4004 73.665 97.3638 73.635C97.3271 73.6017 97.3088 73.5517 97.3088 73.485V73.13L98.1388 73.025L98.3438 71.46C98.3538 71.41 98.3754 71.37 98.4088 71.34C98.4454 71.3067 98.4921 71.29 98.5488 71.29H98.9988V73.035H100.464V73.68H98.9988V76.72C98.9988 76.9333 99.0504 77.0917 99.1538 77.195C99.2571 77.2983 99.3904 77.35 99.5538 77.35C99.6471 77.35 99.7271 77.3383 99.7938 77.315C99.8638 77.2883 99.9238 77.26 99.9738 77.23C100.024 77.2 100.065 77.1733 100.099 77.15C100.135 77.1233 100.167 77.11 100.194 77.11C100.24 77.11 100.282 77.1383 100.319 77.195L100.579 77.62C100.425 77.7633 100.24 77.8767 100.024 77.96C99.8071 78.04 99.5838 78.08 99.3538 78.08ZM76.765 88.78C76.9284 89 77.1067 89.155 77.3 89.245C77.4934 89.335 77.71 89.38 77.95 89.38C78.4234 89.38 78.7867 89.2117 79.04 88.875C79.2934 88.5383 79.42 88.0583 79.42 87.435C79.42 87.105 79.39 86.8217 79.33 86.585C79.2734 86.3483 79.19 86.155 79.08 86.005C78.97 85.8517 78.835 85.74 78.675 85.67C78.515 85.6 78.3334 85.565 78.13 85.565C77.84 85.565 77.585 85.6317 77.365 85.765C77.1484 85.8983 76.9484 86.0867 76.765 86.33V88.78ZM76.72 85.72C76.9334 85.4567 77.18 85.245 77.46 85.085C77.74 84.925 78.06 84.845 78.42 84.845C78.7134 84.845 78.9784 84.9017 79.215 85.015C79.4517 85.125 79.6534 85.29 79.82 85.51C79.9867 85.7267 80.115 85.9967 80.205 86.32C80.295 86.6433 80.34 87.015 80.34 87.435C80.34 87.8083 80.29 88.1567 80.19 88.48C80.09 88.8 79.945 89.0783 79.755 89.315C79.5684 89.5483 79.3384 89.7333 79.065 89.87C78.795 90.0033 78.49 90.07 78.15 90.07C77.84 90.07 77.5734 90.0183 77.35 89.915C77.13 89.8083 76.935 89.6617 76.765 89.475V91.715H75.87V84.935H76.405C76.5317 84.935 76.61 84.9967 76.64 85.12L76.72 85.72ZM83.6105 84.855C83.9805 84.855 84.3138 84.9167 84.6105 85.04C84.9072 85.1633 85.1605 85.3383 85.3705 85.565C85.5805 85.7917 85.7405 86.0667 85.8505 86.39C85.9638 86.71 86.0205 87.0683 86.0205 87.465C86.0205 87.865 85.9638 88.225 85.8505 88.545C85.7405 88.865 85.5805 89.1383 85.3705 89.365C85.1605 89.5917 84.9072 89.7667 84.6105 89.89C84.3138 90.01 83.9805 90.07 83.6105 90.07C83.2372 90.07 82.9005 90.01 82.6005 89.89C82.3038 89.7667 82.0505 89.5917 81.8405 89.365C81.6305 89.1383 81.4688 88.865 81.3555 88.545C81.2455 88.225 81.1905 87.865 81.1905 87.465C81.1905 87.0683 81.2455 86.71 81.3555 86.39C81.4688 86.0667 81.6305 85.7917 81.8405 85.565C82.0505 85.3383 82.3038 85.1633 82.6005 85.04C82.9005 84.9167 83.2372 84.855 83.6105 84.855ZM83.6105 89.375C84.1105 89.375 84.4838 89.2083 84.7305 88.875C84.9772 88.5383 85.1005 88.07 85.1005 87.47C85.1005 86.8667 84.9772 86.3967 84.7305 86.06C84.4838 85.7233 84.1105 85.555 83.6105 85.555C83.3572 85.555 83.1355 85.5983 82.9455 85.685C82.7588 85.7717 82.6022 85.8967 82.4755 86.06C82.3522 86.2233 82.2588 86.425 82.1955 86.665C82.1355 86.9017 82.1055 87.17 82.1055 87.47C82.1055 88.07 82.2288 88.5383 82.4755 88.875C82.7255 89.2083 83.1038 89.375 83.6105 89.375ZM88.0893 84.935V90H87.1993V84.935H88.0893ZM88.2793 83.345C88.2793 83.4317 88.261 83.5133 88.2243 83.59C88.191 83.6633 88.1443 83.73 88.0843 83.79C88.0277 83.8467 87.9593 83.8917 87.8793 83.925C87.8027 83.9583 87.721 83.975 87.6343 83.975C87.5477 83.975 87.466 83.9583 87.3893 83.925C87.316 83.8917 87.251 83.8467 87.1943 83.79C87.1377 83.73 87.0927 83.6633 87.0593 83.59C87.026 83.5133 87.0093 83.4317 87.0093 83.345C87.0093 83.2583 87.026 83.1767 87.0593 83.1C87.0927 83.02 87.1377 82.9517 87.1943 82.895C87.251 82.835 87.316 82.7883 87.3893 82.755C87.466 82.7217 87.5477 82.705 87.6343 82.705C87.721 82.705 87.8027 82.7217 87.8793 82.755C87.9593 82.7883 88.0277 82.835 88.0843 82.895C88.1443 82.9517 88.191 83.02 88.2243 83.1C88.261 83.1767 88.2793 83.2583 88.2793 83.345ZM90.3917 85.67C90.5017 85.5467 90.6183 85.435 90.7417 85.335C90.865 85.235 90.995 85.15 91.1317 85.08C91.2717 85.0067 91.4183 84.9517 91.5717 84.915C91.7283 84.875 91.8967 84.855 92.0767 84.855C92.3533 84.855 92.5967 84.9017 92.8067 84.995C93.02 85.085 93.1967 85.215 93.3367 85.385C93.48 85.5517 93.5883 85.7533 93.6617 85.99C93.735 86.2267 93.7717 86.4883 93.7717 86.775V90H92.8767V86.775C92.8767 86.3917 92.7883 86.095 92.6117 85.885C92.4383 85.6717 92.1733 85.565 91.8167 85.565C91.5533 85.565 91.3067 85.6283 91.0767 85.755C90.85 85.8817 90.64 86.0533 90.4467 86.27V90H89.5517V84.935H90.0867C90.2133 84.935 90.2917 84.9967 90.3217 85.12L90.3917 85.67ZM96.6145 90.08C96.2145 90.08 95.9062 89.9683 95.6895 89.745C95.4762 89.5217 95.3695 89.2 95.3695 88.78V85.68H94.7595C94.7062 85.68 94.6612 85.665 94.6245 85.635C94.5878 85.6017 94.5695 85.5517 94.5695 85.485V85.13L95.3995 85.025L95.6045 83.46C95.6145 83.41 95.6362 83.37 95.6695 83.34C95.7062 83.3067 95.7528 83.29 95.8095 83.29H96.2595V85.035H97.7245V85.68H96.2595V88.72C96.2595 88.9333 96.3112 89.0917 96.4145 89.195C96.5178 89.2983 96.6512 89.35 96.8145 89.35C96.9078 89.35 96.9878 89.3383 97.0545 89.315C97.1245 89.2883 97.1845 89.26 97.2345 89.23C97.2845 89.2 97.3262 89.1733 97.3595 89.15C97.3962 89.1233 97.4278 89.11 97.4545 89.11C97.5012 89.11 97.5428 89.1383 97.5795 89.195L97.8395 89.62C97.6862 89.7633 97.5012 89.8767 97.2845 89.96C97.0678 90.04 96.8445 90.08 96.6145 90.08ZM102.004 86.915C102.004 86.7083 101.974 86.52 101.914 86.35C101.858 86.1767 101.773 86.0283 101.659 85.905C101.549 85.7783 101.414 85.6817 101.254 85.615C101.094 85.545 100.913 85.51 100.709 85.51C100.283 85.51 99.9442 85.635 99.6942 85.885C99.4475 86.1317 99.2942 86.475 99.2342 86.915H102.004ZM102.724 89.29C102.614 89.4233 102.483 89.54 102.329 89.64C102.176 89.7367 102.011 89.8167 101.834 89.88C101.661 89.9433 101.481 89.99 101.294 90.02C101.108 90.0533 100.923 90.07 100.739 90.07C100.389 90.07 100.066 90.0117 99.7692 89.895C99.4758 89.775 99.2208 89.6017 99.0042 89.375C98.7908 89.145 98.6242 88.8617 98.5042 88.525C98.3842 88.1883 98.3242 87.8017 98.3242 87.365C98.3242 87.0117 98.3775 86.6817 98.4842 86.375C98.5942 86.0683 98.7508 85.8033 98.9542 85.58C99.1575 85.3533 99.4058 85.1767 99.6992 85.05C99.9925 84.92 100.323 84.855 100.689 84.855C100.993 84.855 101.273 84.9067 101.529 85.01C101.789 85.11 102.013 85.2567 102.199 85.45C102.389 85.64 102.538 85.8767 102.644 86.16C102.751 86.44 102.804 86.76 102.804 87.12C102.804 87.26 102.789 87.3533 102.759 87.4C102.729 87.4467 102.673 87.47 102.589 87.47H99.2042C99.2142 87.79 99.2575 88.0683 99.3342 88.305C99.4142 88.5417 99.5242 88.74 99.6642 88.9C99.8042 89.0567 99.9708 89.175 100.164 89.255C100.358 89.3317 100.574 89.37 100.814 89.37C101.038 89.37 101.229 89.345 101.389 89.295C101.553 89.2417 101.693 89.185 101.809 89.125C101.926 89.065 102.023 89.01 102.099 88.96C102.179 88.9067 102.248 88.88 102.304 88.88C102.378 88.88 102.434 88.9083 102.474 88.965L102.724 89.29ZM104.742 85.95C104.902 85.6033 105.099 85.3333 105.332 85.14C105.566 84.9433 105.851 84.845 106.187 84.845C106.294 84.845 106.396 84.8567 106.492 84.88C106.592 84.9033 106.681 84.94 106.757 84.99L106.692 85.655C106.672 85.7383 106.622 85.78 106.542 85.78C106.496 85.78 106.427 85.77 106.337 85.75C106.247 85.73 106.146 85.72 106.032 85.72C105.872 85.72 105.729 85.7433 105.602 85.79C105.479 85.8367 105.367 85.9067 105.267 86C105.171 86.09 105.082 86.2033 105.002 86.34C104.926 86.4733 104.856 86.6267 104.792 86.8V90H103.897V84.935H104.407C104.504 84.935 104.571 84.9533 104.607 84.99C104.644 85.0267 104.669 85.09 104.682 85.18L104.742 85.95Z" fill="#D90D0D"/>
<path id="Arrow 7" d="M93.3536 44.6464C93.1583 44.4512 92.8417 44.4512 92.6464 44.6464L89.4645 47.8284C89.2692 48.0237 89.2692 48.3403 89.4645 48.5355C89.6597 48.7308 89.9763 48.7308 90.1716 48.5355L93 45.7071L95.8284 48.5355C96.0237 48.7308 96.3403 48.7308 96.5355 48.5355C96.7308 48.3403 96.7308 48.0237 96.5355 47.8284L93.3536 44.6464ZM93.5 68L93.5 45L92.5 45L92.5 68L93.5 68Z" fill="#D90D0D"/>
<path id="next pointer_2" d="M146.367 72.67C146.477 72.5467 146.594 72.435 146.717 72.335C146.841 72.235 146.971 72.15 147.107 72.08C147.247 72.0067 147.394 71.9517 147.547 71.915C147.704 71.875 147.872 71.855 148.052 71.855C148.329 71.855 148.572 71.9017 148.782 71.995C148.996 72.085 149.172 72.215 149.312 72.385C149.456 72.5517 149.564 72.7533 149.637 72.99C149.711 73.2267 149.747 73.4883 149.747 73.775V77H148.852V73.775C148.852 73.3917 148.764 73.095 148.587 72.885C148.414 72.6717 148.149 72.565 147.792 72.565C147.529 72.565 147.282 72.6283 147.052 72.755C146.826 72.8817 146.616 73.0533 146.422 73.27V77H145.527V71.935H146.062C146.189 71.935 146.267 71.9967 146.297 72.12L146.367 72.67ZM154.493 73.915C154.493 73.7083 154.463 73.52 154.403 73.35C154.347 73.1767 154.262 73.0283 154.148 72.905C154.038 72.7783 153.903 72.6817 153.743 72.615C153.583 72.545 153.402 72.51 153.198 72.51C152.772 72.51 152.433 72.635 152.183 72.885C151.937 73.1317 151.783 73.475 151.723 73.915H154.493ZM155.213 76.29C155.103 76.4233 154.972 76.54 154.818 76.64C154.665 76.7367 154.5 76.8167 154.323 76.88C154.15 76.9433 153.97 76.99 153.783 77.02C153.597 77.0533 153.412 77.07 153.228 77.07C152.878 77.07 152.555 77.0117 152.258 76.895C151.965 76.775 151.71 76.6017 151.493 76.375C151.28 76.145 151.113 75.8617 150.993 75.525C150.873 75.1883 150.813 74.8017 150.813 74.365C150.813 74.0117 150.867 73.6817 150.973 73.375C151.083 73.0683 151.24 72.8033 151.443 72.58C151.647 72.3533 151.895 72.1767 152.188 72.05C152.482 71.92 152.812 71.855 153.178 71.855C153.482 71.855 153.762 71.9067 154.018 72.01C154.278 72.11 154.502 72.2567 154.688 72.45C154.878 72.64 155.027 72.8767 155.133 73.16C155.24 73.44 155.293 73.76 155.293 74.12C155.293 74.26 155.278 74.3533 155.248 74.4C155.218 74.4467 155.162 74.47 155.078 74.47H151.693C151.703 74.79 151.747 75.0683 151.823 75.305C151.903 75.5417 152.013 75.74 152.153 75.9C152.293 76.0567 152.46 76.175 152.653 76.255C152.847 76.3317 153.063 76.37 153.303 76.37C153.527 76.37 153.718 76.345 153.878 76.295C154.042 76.2417 154.182 76.185 154.298 76.125C154.415 76.065 154.512 76.01 154.588 75.96C154.668 75.9067 154.737 75.88 154.793 75.88C154.867 75.88 154.923 75.9083 154.963 75.965L155.213 76.29ZM160.478 77H159.623C159.55 77 159.492 76.9817 159.448 76.945C159.408 76.905 159.375 76.8617 159.348 76.815L158.073 74.83C158.06 74.8767 158.045 74.9233 158.028 74.97C158.015 75.0133 157.995 75.0533 157.968 75.09L156.788 76.815C156.755 76.8617 156.718 76.905 156.678 76.945C156.642 76.9817 156.59 77 156.523 77H155.728L157.503 74.4L155.798 71.935H156.653C156.727 71.935 156.78 71.9467 156.813 71.97C156.847 71.9933 156.877 72.0267 156.903 72.07L158.148 73.97C158.175 73.8733 158.217 73.78 158.273 73.69L159.363 72.09C159.393 72.0433 159.425 72.0067 159.458 71.98C159.495 71.95 159.538 71.935 159.588 71.935H160.408L158.703 74.355L160.478 77ZM162.854 77.08C162.454 77.08 162.145 76.9683 161.929 76.745C161.715 76.5217 161.609 76.2 161.609 75.78V72.68H160.999C160.945 72.68 160.9 72.665 160.864 72.635C160.827 72.6017 160.809 72.5517 160.809 72.485V72.13L161.639 72.025L161.844 70.46C161.854 70.41 161.875 70.37 161.909 70.34C161.945 70.3067 161.992 70.29 162.049 70.29H162.499V72.035H163.964V72.68H162.499V75.72C162.499 75.9333 162.55 76.0917 162.654 76.195C162.757 76.2983 162.89 76.35 163.054 76.35C163.147 76.35 163.227 76.3383 163.294 76.315C163.364 76.2883 163.424 76.26 163.474 76.23C163.524 76.2 163.565 76.1733 163.599 76.15C163.635 76.1233 163.667 76.11 163.694 76.11C163.74 76.11 163.782 76.1383 163.819 76.195L164.079 76.62C163.925 76.7633 163.74 76.8767 163.524 76.96C163.307 77.04 163.084 77.08 162.854 77.08ZM140.265 87.78C140.428 88 140.607 88.155 140.8 88.245C140.993 88.335 141.21 88.38 141.45 88.38C141.923 88.38 142.287 88.2117 142.54 87.875C142.793 87.5383 142.92 87.0583 142.92 86.435C142.92 86.105 142.89 85.8217 142.83 85.585C142.773 85.3483 142.69 85.155 142.58 85.005C142.47 84.8517 142.335 84.74 142.175 84.67C142.015 84.6 141.833 84.565 141.63 84.565C141.34 84.565 141.085 84.6317 140.865 84.765C140.648 84.8983 140.448 85.0867 140.265 85.33V87.78ZM140.22 84.72C140.433 84.4567 140.68 84.245 140.96 84.085C141.24 83.925 141.56 83.845 141.92 83.845C142.213 83.845 142.478 83.9017 142.715 84.015C142.952 84.125 143.153 84.29 143.32 84.51C143.487 84.7267 143.615 84.9967 143.705 85.32C143.795 85.6433 143.84 86.015 143.84 86.435C143.84 86.8083 143.79 87.1567 143.69 87.48C143.59 87.8 143.445 88.0783 143.255 88.315C143.068 88.5483 142.838 88.7333 142.565 88.87C142.295 89.0033 141.99 89.07 141.65 89.07C141.34 89.07 141.073 89.0183 140.85 88.915C140.63 88.8083 140.435 88.6617 140.265 88.475V90.715H139.37V83.935H139.905C140.032 83.935 140.11 83.9967 140.14 84.12L140.22 84.72ZM147.111 83.855C147.481 83.855 147.814 83.9167 148.111 84.04C148.407 84.1633 148.661 84.3383 148.871 84.565C149.081 84.7917 149.241 85.0667 149.351 85.39C149.464 85.71 149.521 86.0683 149.521 86.465C149.521 86.865 149.464 87.225 149.351 87.545C149.241 87.865 149.081 88.1383 148.871 88.365C148.661 88.5917 148.407 88.7667 148.111 88.89C147.814 89.01 147.481 89.07 147.111 89.07C146.737 89.07 146.401 89.01 146.101 88.89C145.804 88.7667 145.551 88.5917 145.341 88.365C145.131 88.1383 144.969 87.865 144.856 87.545C144.746 87.225 144.691 86.865 144.691 86.465C144.691 86.0683 144.746 85.71 144.856 85.39C144.969 85.0667 145.131 84.7917 145.341 84.565C145.551 84.3383 145.804 84.1633 146.101 84.04C146.401 83.9167 146.737 83.855 147.111 83.855ZM147.111 88.375C147.611 88.375 147.984 88.2083 148.231 87.875C148.477 87.5383 148.601 87.07 148.601 86.47C148.601 85.8667 148.477 85.3967 148.231 85.06C147.984 84.7233 147.611 84.555 147.111 84.555C146.857 84.555 146.636 84.5983 146.446 84.685C146.259 84.7717 146.102 84.8967 145.976 85.06C145.852 85.2233 145.759 85.425 145.696 85.665C145.636 85.9017 145.606 86.17 145.606 86.47C145.606 87.07 145.729 87.5383 145.976 87.875C146.226 88.2083 146.604 88.375 147.111 88.375ZM151.589 83.935V89H150.699V83.935H151.589ZM151.779 82.345C151.779 82.4317 151.761 82.5133 151.724 82.59C151.691 82.6633 151.644 82.73 151.584 82.79C151.528 82.8467 151.459 82.8917 151.379 82.925C151.303 82.9583 151.221 82.975 151.134 82.975C151.048 82.975 150.966 82.9583 150.889 82.925C150.816 82.8917 150.751 82.8467 150.694 82.79C150.638 82.73 150.593 82.6633 150.559 82.59C150.526 82.5133 150.509 82.4317 150.509 82.345C150.509 82.2583 150.526 82.1767 150.559 82.1C150.593 82.02 150.638 81.9517 150.694 81.895C150.751 81.835 150.816 81.7883 150.889 81.755C150.966 81.7217 151.048 81.705 151.134 81.705C151.221 81.705 151.303 81.7217 151.379 81.755C151.459 81.7883 151.528 81.835 151.584 81.895C151.644 81.9517 151.691 82.02 151.724 82.1C151.761 82.1767 151.779 82.2583 151.779 82.345ZM153.892 84.67C154.002 84.5467 154.118 84.435 154.242 84.335C154.365 84.235 154.495 84.15 154.632 84.08C154.772 84.0067 154.918 83.9517 155.072 83.915C155.228 83.875 155.397 83.855 155.577 83.855C155.853 83.855 156.097 83.9017 156.307 83.995C156.52 84.085 156.697 84.215 156.837 84.385C156.98 84.5517 157.088 84.7533 157.162 84.99C157.235 85.2267 157.272 85.4883 157.272 85.775V89H156.377V85.775C156.377 85.3917 156.288 85.095 156.112 84.885C155.938 84.6717 155.673 84.565 155.317 84.565C155.053 84.565 154.807 84.6283 154.577 84.755C154.35 84.8817 154.14 85.0533 153.947 85.27V89H153.052V83.935H153.587C153.713 83.935 153.792 83.9967 153.822 84.12L153.892 84.67ZM160.114 89.08C159.714 89.08 159.406 88.9683 159.189 88.745C158.976 88.5217 158.869 88.2 158.869 87.78V84.68H158.259C158.206 84.68 158.161 84.665 158.124 84.635C158.088 84.6017 158.069 84.5517 158.069 84.485V84.13L158.899 84.025L159.104 82.46C159.114 82.41 159.136 82.37 159.169 82.34C159.206 82.3067 159.253 82.29 159.309 82.29H159.759V84.035H161.224V84.68H159.759V87.72C159.759 87.9333 159.811 88.0917 159.914 88.195C160.018 88.2983 160.151 88.35 160.314 88.35C160.408 88.35 160.488 88.3383 160.554 88.315C160.624 88.2883 160.684 88.26 160.734 88.23C160.784 88.2 160.826 88.1733 160.859 88.15C160.896 88.1233 160.928 88.11 160.954 88.11C161.001 88.11 161.043 88.1383 161.079 88.195L161.339 88.62C161.186 88.7633 161.001 88.8767 160.784 88.96C160.568 89.04 160.344 89.08 160.114 89.08ZM165.504 85.915C165.504 85.7083 165.474 85.52 165.414 85.35C165.358 85.1767 165.273 85.0283 165.159 84.905C165.049 84.7783 164.914 84.6817 164.754 84.615C164.594 84.545 164.413 84.51 164.209 84.51C163.783 84.51 163.444 84.635 163.194 84.885C162.948 85.1317 162.794 85.475 162.734 85.915H165.504ZM166.224 88.29C166.114 88.4233 165.983 88.54 165.829 88.64C165.676 88.7367 165.511 88.8167 165.334 88.88C165.161 88.9433 164.981 88.99 164.794 89.02C164.608 89.0533 164.423 89.07 164.239 89.07C163.889 89.07 163.566 89.0117 163.269 88.895C162.976 88.775 162.721 88.6017 162.504 88.375C162.291 88.145 162.124 87.8617 162.004 87.525C161.884 87.1883 161.824 86.8017 161.824 86.365C161.824 86.0117 161.878 85.6817 161.984 85.375C162.094 85.0683 162.251 84.8033 162.454 84.58C162.658 84.3533 162.906 84.1767 163.199 84.05C163.493 83.92 163.823 83.855 164.189 83.855C164.493 83.855 164.773 83.9067 165.029 84.01C165.289 84.11 165.513 84.2567 165.699 84.45C165.889 84.64 166.038 84.8767 166.144 85.16C166.251 85.44 166.304 85.76 166.304 86.12C166.304 86.26 166.289 86.3533 166.259 86.4C166.229 86.4467 166.173 86.47 166.089 86.47H162.704C162.714 86.79 162.758 87.0683 162.834 87.305C162.914 87.5417 163.024 87.74 163.164 87.9C163.304 88.0567 163.471 88.175 163.664 88.255C163.858 88.3317 164.074 88.37 164.314 88.37C164.538 88.37 164.729 88.345 164.889 88.295C165.053 88.2417 165.193 88.185 165.309 88.125C165.426 88.065 165.523 88.01 165.599 87.96C165.679 87.9067 165.748 87.88 165.804 87.88C165.878 87.88 165.934 87.9083 165.974 87.965L166.224 88.29ZM168.242 84.95C168.402 84.6033 168.599 84.3333 168.832 84.14C169.066 83.9433 169.351 83.845 169.687 83.845C169.794 83.845 169.896 83.8567 169.992 83.88C170.092 83.9033 170.181 83.94 170.257 83.99L170.192 84.655C170.172 84.7383 170.122 84.78 170.042 84.78C169.996 84.78 169.927 84.77 169.837 84.75C169.747 84.73 169.646 84.72 169.532 84.72C169.372 84.72 169.229 84.7433 169.102 84.79C168.979 84.8367 168.867 84.9067 168.767 85C168.671 85.09 168.582 85.2033 168.502 85.34C168.426 85.4733 168.356 85.6267 168.292 85.8V89H167.397V83.935H167.907C168.004 83.935 168.071 83.9533 168.107 83.99C168.144 84.0267 168.169 84.09 168.182 84.18L168.242 84.95Z" fill="#D90D0D"/>
<path id="Arrow 8" d="M154.354 43.6464C154.158 43.4512 153.842 43.4512 153.646 43.6464L150.464 46.8284C150.269 47.0237 150.269 47.3403 150.464 47.5355C150.66 47.7308 150.976 47.7308 151.172 47.5355L154 44.7071L156.828 47.5355C157.024 47.7308 157.34 47.7308 157.536 47.5355C157.731 47.3403 157.731 47.0237 157.536 46.8284L154.354 43.6464ZM154.5 67L154.5 44L153.5 44L153.5 67L154.5 67Z" fill="#D90D0D"/>
<path id="queue-add-old-null" d="M232.606 40.67C232.716 40.5467 232.832 40.435 232.956 40.335C233.079 40.235 233.209 40.15 233.346 40.08C233.486 40.0067 233.632 39.9517 233.786 39.915C233.942 39.875 234.111 39.855 234.291 39.855C234.567 39.855 234.811 39.9017 235.021 39.995C235.234 40.085 235.411 40.215 235.551 40.385C235.694 40.5517 235.802 40.7533 235.876 40.99C235.949 41.2267 235.986 41.4883 235.986 41.775V45H235.091V41.775C235.091 41.3917 235.002 41.095 234.826 40.885C234.652 40.6717 234.387 40.565 234.031 40.565C233.767 40.565 233.521 40.6283 233.291 40.755C233.064 40.8817 232.854 41.0533 232.661 41.27V45H231.766V39.935H232.301C232.427 39.935 232.506 39.9967 232.536 40.12L232.606 40.67ZM241.507 39.935V45H240.977C240.85 45 240.77 44.9383 240.737 44.815L240.667 44.27C240.447 44.5133 240.2 44.71 239.927 44.86C239.653 45.0067 239.34 45.08 238.987 45.08C238.71 45.08 238.465 45.035 238.252 44.945C238.042 44.8517 237.865 44.7217 237.722 44.555C237.578 44.3883 237.47 44.1867 237.397 43.95C237.327 43.7133 237.292 43.4517 237.292 43.165V39.935H238.182V43.165C238.182 43.5483 238.268 43.845 238.442 44.055C238.618 44.265 238.887 44.37 239.247 44.37C239.51 44.37 239.755 44.3083 239.982 44.185C240.212 44.0583 240.423 43.885 240.617 43.665V39.935H241.507ZM243.838 37.635V45H242.948V37.635H243.838ZM246.201 37.635V45H245.311V37.635H246.201Z" fill="black"/>
<path id="queue-add-tail-pointer" style="transform-box: fill-box; transform-origin: top right; transition-duration: 500ms" d="M193.5 25C193.5 25.2761 193.724 25.5 194 25.5L198.5 25.5C198.776 25.5 199 25.2761 199 25C199 24.7239 198.776 24.5 198.5 24.5L194.5 24.5L194.5 20.5C194.5 20.2239 194.276 20 194 20C193.724 20 193.5 20.2239 193.5 20.5L193.5 25ZM205.646 12.6465L193.646 24.6465L194.354 25.3536L206.354 13.3536L205.646 12.6465Z" fill="#0B3AB5"/>
<path id="tail (end of queue)" d="M174.036 10.08C173.636 10.08 173.328 9.96833 173.111 9.745C172.898 9.52167 172.791 9.2 172.791 8.78V5.68H172.181C172.128 5.68 172.083 5.665 172.046 5.635C172.01 5.60167 171.991 5.55167 171.991 5.485V5.13L172.821 5.025L173.026 3.46C173.036 3.41 173.058 3.37 173.091 3.34C173.128 3.30667 173.175 3.29 173.231 3.29H173.681V5.035H175.146V5.68H173.681V8.72C173.681 8.93333 173.733 9.09167 173.836 9.195C173.94 9.29833 174.073 9.35 174.236 9.35C174.33 9.35 174.41 9.33833 174.476 9.315C174.546 9.28833 174.606 9.26 174.656 9.23C174.706 9.2 174.748 9.17333 174.781 9.15C174.818 9.12333 174.85 9.11 174.876 9.11C174.923 9.11 174.965 9.13833 175.001 9.195L175.261 9.62C175.108 9.76333 174.923 9.87667 174.706 9.96C174.49 10.04 174.266 10.08 174.036 10.08ZM178.81 7.72C178.4 7.73333 178.05 7.76667 177.76 7.82C177.474 7.87 177.239 7.93667 177.055 8.02C176.875 8.10333 176.744 8.20167 176.66 8.315C176.58 8.42833 176.54 8.555 176.54 8.695C176.54 8.82833 176.562 8.94333 176.605 9.04C176.649 9.13667 176.707 9.21667 176.78 9.28C176.857 9.34 176.945 9.385 177.045 9.415C177.149 9.44167 177.259 9.455 177.375 9.455C177.532 9.455 177.675 9.44 177.805 9.41C177.935 9.37667 178.057 9.33 178.17 9.27C178.287 9.21 178.397 9.13833 178.5 9.055C178.607 8.97167 178.71 8.87667 178.81 8.77V7.72ZM175.935 5.65C176.215 5.38 176.517 5.17833 176.84 5.045C177.164 4.91167 177.522 4.845 177.915 4.845C178.199 4.845 178.45 4.89167 178.67 4.985C178.89 5.07833 179.075 5.20833 179.225 5.375C179.375 5.54167 179.489 5.74333 179.565 5.98C179.642 6.21667 179.68 6.47667 179.68 6.76V10H179.285C179.199 10 179.132 9.98667 179.085 9.96C179.039 9.93 179.002 9.87333 178.975 9.79L178.875 9.31C178.742 9.43333 178.612 9.54333 178.485 9.64C178.359 9.73333 178.225 9.81333 178.085 9.88C177.945 9.94333 177.795 9.99167 177.635 10.025C177.479 10.0617 177.304 10.08 177.11 10.08C176.914 10.08 176.729 10.0533 176.555 10C176.382 9.94333 176.23 9.86 176.1 9.75C175.974 9.64 175.872 9.50167 175.795 9.335C175.722 9.165 175.685 8.965 175.685 8.735C175.685 8.535 175.74 8.34333 175.85 8.16C175.96 7.97333 176.139 7.80833 176.385 7.665C176.632 7.52167 176.954 7.405 177.35 7.315C177.747 7.22167 178.234 7.16833 178.81 7.155V6.76C178.81 6.36667 178.725 6.07 178.555 5.87C178.385 5.66667 178.137 5.565 177.81 5.565C177.59 5.565 177.405 5.59333 177.255 5.65C177.109 5.70333 176.98 5.765 176.87 5.835C176.764 5.90167 176.67 5.96333 176.59 6.02C176.514 6.07333 176.437 6.1 176.36 6.1C176.3 6.1 176.249 6.085 176.205 6.055C176.162 6.02167 176.125 5.98167 176.095 5.935L175.935 5.65ZM181.976 4.935V10H181.086V4.935H181.976ZM182.166 3.345C182.166 3.43167 182.148 3.51333 182.111 3.59C182.078 3.66333 182.031 3.73 181.971 3.79C181.914 3.84667 181.846 3.89167 181.766 3.925C181.689 3.95833 181.608 3.975 181.521 3.975C181.434 3.975 181.353 3.95833 181.276 3.925C181.203 3.89167 181.138 3.84667 181.081 3.79C181.024 3.73 180.979 3.66333 180.946 3.59C180.913 3.51333 180.896 3.43167 180.896 3.345C180.896 3.25833 180.913 3.17667 180.946 3.1C180.979 3.02 181.024 2.95167 181.081 2.895C181.138 2.835 181.203 2.78833 181.276 2.755C181.353 2.72167 181.434 2.705 181.521 2.705C181.608 2.705 181.689 2.72167 181.766 2.755C181.846 2.78833 181.914 2.835 181.971 2.895C182.031 2.95167 182.078 3.02 182.111 3.1C182.148 3.17667 182.166 3.25833 182.166 3.345ZM184.358 2.635V10H183.468V2.635H184.358ZM188.88 6.855C188.88 7.56833 188.97 8.26167 189.15 8.935C189.334 9.60833 189.6 10.2483 189.95 10.855C190.004 10.9583 190.017 11.0367 189.99 11.09C189.964 11.1467 189.925 11.1917 189.875 11.225L189.48 11.465C189.23 11.0817 189.017 10.7017 188.84 10.325C188.667 9.94833 188.525 9.57 188.415 9.19C188.309 8.81 188.23 8.42833 188.18 8.045C188.13 7.65833 188.105 7.26167 188.105 6.855C188.105 6.45167 188.13 6.05667 188.18 5.67C188.23 5.28333 188.309 4.90167 188.415 4.525C188.525 4.145 188.667 3.76667 188.84 3.39C189.017 3.01333 189.23 2.63167 189.48 2.245L189.875 2.49C189.925 2.52333 189.964 2.56833 189.99 2.625C190.017 2.67833 190.004 2.755 189.95 2.855C189.6 3.46167 189.334 4.10167 189.15 4.775C188.97 5.44833 188.88 6.14167 188.88 6.855ZM194.114 6.915C194.114 6.70833 194.084 6.52 194.024 6.35C193.967 6.17667 193.882 6.02833 193.769 5.905C193.659 5.77833 193.524 5.68167 193.364 5.615C193.204 5.545 193.022 5.51 192.819 5.51C192.392 5.51 192.054 5.635 191.804 5.885C191.557 6.13167 191.404 6.475 191.344 6.915H194.114ZM194.834 9.29C194.724 9.42333 194.592 9.54 194.439 9.64C194.285 9.73667 194.12 9.81667 193.944 9.88C193.77 9.94333 193.59 9.99 193.404 10.02C193.217 10.0533 193.032 10.07 192.849 10.07C192.499 10.07 192.175 10.0117 191.879 9.895C191.585 9.775 191.33 9.60167 191.114 9.375C190.9 9.145 190.734 8.86167 190.614 8.525C190.494 8.18833 190.434 7.80167 190.434 7.365C190.434 7.01167 190.487 6.68167 190.594 6.375C190.704 6.06833 190.86 5.80333 191.064 5.58C191.267 5.35333 191.515 5.17667 191.809 5.05C192.102 4.92 192.432 4.855 192.799 4.855C193.102 4.855 193.382 4.90667 193.639 5.01C193.899 5.11 194.122 5.25667 194.309 5.45C194.499 5.64 194.647 5.87667 194.754 6.16C194.86 6.44 194.914 6.76 194.914 7.12C194.914 7.26 194.899 7.35333 194.869 7.4C194.839 7.44667 194.782 7.47 194.699 7.47H191.314C191.324 7.79 191.367 8.06833 191.444 8.305C191.524 8.54167 191.634 8.74 191.774 8.9C191.914 9.05667 192.08 9.175 192.274 9.255C192.467 9.33167 192.684 9.37 192.924 9.37C193.147 9.37 193.339 9.345 193.499 9.295C193.662 9.24167 193.802 9.185 193.919 9.125C194.035 9.065 194.132 9.01 194.209 8.96C194.289 8.90667 194.357 8.88 194.414 8.88C194.487 8.88 194.544 8.90833 194.584 8.965L194.834 9.29ZM196.847 5.67C196.957 5.54667 197.073 5.435 197.197 5.335C197.32 5.235 197.45 5.15 197.587 5.08C197.727 5.00667 197.873 4.95167 198.027 4.915C198.183 4.875 198.352 4.855 198.532 4.855C198.808 4.855 199.052 4.90167 199.262 4.995C199.475 5.085 199.652 5.215 199.792 5.385C199.935 5.55167 200.043 5.75333 200.117 5.99C200.19 6.22667 200.227 6.48833 200.227 6.775V10H199.332V6.775C199.332 6.39167 199.243 6.095 199.067 5.885C198.893 5.67167 198.628 5.565 198.272 5.565C198.008 5.565 197.762 5.62833 197.532 5.755C197.305 5.88167 197.095 6.05333 196.902 6.27V10H196.007V4.935H196.542C196.668 4.935 196.747 4.99667 196.777 5.12L196.847 5.67ZM204.883 6.14C204.716 5.91667 204.536 5.76167 204.343 5.675C204.15 5.585 203.933 5.54 203.693 5.54C203.223 5.54 202.861 5.70833 202.608 6.045C202.355 6.38167 202.228 6.86167 202.228 7.485C202.228 7.815 202.256 8.09833 202.313 8.335C202.37 8.56833 202.453 8.76167 202.563 8.915C202.673 9.065 202.808 9.175 202.968 9.245C203.128 9.315 203.31 9.35 203.513 9.35C203.806 9.35 204.061 9.28333 204.278 9.15C204.498 9.01667 204.7 8.82833 204.883 8.585V6.14ZM205.773 2.635V10H205.243C205.116 10 205.036 9.93833 205.003 9.815L204.923 9.2C204.706 9.46 204.46 9.67 204.183 9.83C203.906 9.99 203.586 10.07 203.223 10.07C202.933 10.07 202.67 10.015 202.433 9.905C202.196 9.79167 201.995 9.62667 201.828 9.41C201.661 9.19333 201.533 8.92333 201.443 8.6C201.353 8.27667 201.308 7.905 201.308 7.485C201.308 7.11167 201.358 6.765 201.458 6.445C201.558 6.12167 201.701 5.84167 201.888 5.605C202.075 5.36833 202.303 5.18333 202.573 5.05C202.846 4.91333 203.153 4.845 203.493 4.845C203.803 4.845 204.068 4.89833 204.288 5.005C204.511 5.10833 204.71 5.25333 204.883 5.44V2.635H205.773ZM211.872 4.855C212.242 4.855 212.576 4.91667 212.872 5.04C213.169 5.16333 213.422 5.33833 213.632 5.565C213.842 5.79167 214.002 6.06667 214.112 6.39C214.226 6.71 214.282 7.06833 214.282 7.465C214.282 7.865 214.226 8.225 214.112 8.545C214.002 8.865 213.842 9.13833 213.632 9.365C213.422 9.59167 213.169 9.76667 212.872 9.89C212.576 10.01 212.242 10.07 211.872 10.07C211.499 10.07 211.162 10.01 210.862 9.89C210.566 9.76667 210.312 9.59167 210.102 9.365C209.892 9.13833 209.731 8.865 209.617 8.545C209.507 8.225 209.452 7.865 209.452 7.465C209.452 7.06833 209.507 6.71 209.617 6.39C209.731 6.06667 209.892 5.79167 210.102 5.565C210.312 5.33833 210.566 5.16333 210.862 5.04C211.162 4.91667 211.499 4.855 211.872 4.855ZM211.872 9.375C212.372 9.375 212.746 9.20833 212.992 8.875C213.239 8.53833 213.362 8.07 213.362 7.47C213.362 6.86667 213.239 6.39667 212.992 6.06C212.746 5.72333 212.372 5.555 211.872 5.555C211.619 5.555 211.397 5.59833 211.207 5.685C211.021 5.77167 210.864 5.89667 210.737 6.06C210.614 6.22333 210.521 6.425 210.457 6.665C210.397 6.90167 210.367 7.17 210.367 7.47C210.367 8.07 210.491 8.53833 210.737 8.875C210.987 9.20833 211.366 9.375 211.872 9.375ZM215.634 10V5.695L215.074 5.63C215.004 5.61333 214.945 5.58833 214.899 5.555C214.855 5.51833 214.834 5.46667 214.834 5.4V5.035H215.634V4.545C215.634 4.255 215.674 3.99833 215.754 3.775C215.837 3.54833 215.954 3.35833 216.104 3.205C216.257 3.04833 216.44 2.93 216.654 2.85C216.867 2.77 217.107 2.73 217.374 2.73C217.6 2.73 217.809 2.76333 217.999 2.83L217.979 3.275C217.972 3.355 217.927 3.39833 217.844 3.405C217.764 3.41167 217.655 3.415 217.519 3.415C217.365 3.415 217.225 3.435 217.099 3.475C216.975 3.515 216.869 3.58 216.779 3.67C216.689 3.76 216.619 3.87833 216.569 4.025C216.522 4.17167 216.499 4.35333 216.499 4.57V5.035H217.959V5.68H216.529V10H215.634ZM224.483 6.135C224.323 5.92167 224.144 5.77 223.948 5.68C223.751 5.58667 223.533 5.54 223.293 5.54C222.823 5.54 222.461 5.70833 222.208 6.045C221.954 6.38167 221.828 6.86167 221.828 7.485C221.828 7.815 221.856 8.09833 221.913 8.335C221.969 8.56833 222.053 8.76167 222.163 8.915C222.273 9.065 222.408 9.175 222.568 9.245C222.728 9.315 222.909 9.35 223.113 9.35C223.406 9.35 223.661 9.28333 223.878 9.15C224.098 9.01667 224.299 8.82833 224.483 8.585V6.135ZM225.373 4.935V11.715H224.483V9.245C224.273 9.49167 224.031 9.69167 223.758 9.845C223.484 9.995 223.173 10.07 222.823 10.07C222.533 10.07 222.269 10.015 222.033 9.905C221.796 9.79167 221.594 9.62667 221.428 9.41C221.261 9.19333 221.133 8.92333 221.043 8.6C220.953 8.27667 220.908 7.905 220.908 7.485C220.908 7.11167 220.958 6.765 221.058 6.445C221.158 6.12167 221.301 5.84167 221.488 5.605C221.674 5.36833 221.903 5.18333 222.173 5.05C222.446 4.91333 222.753 4.845 223.093 4.845C223.423 4.845 223.703 4.90333 223.933 5.02C224.163 5.13667 224.366 5.3 224.543 5.51L224.603 5.12C224.636 4.99667 224.716 4.935 224.843 4.935H225.373ZM230.943 4.935V10H230.413C230.287 10 230.207 9.93833 230.173 9.815L230.103 9.27C229.883 9.51333 229.637 9.71 229.363 9.86C229.09 10.0067 228.777 10.08 228.423 10.08C228.147 10.08 227.902 10.035 227.688 9.945C227.478 9.85167 227.302 9.72167 227.158 9.555C227.015 9.38833 226.907 9.18667 226.833 8.95C226.763 8.71333 226.728 8.45167 226.728 8.165V4.935H227.618V8.165C227.618 8.54833 227.705 8.845 227.878 9.055C228.055 9.265 228.323 9.37 228.683 9.37C228.947 9.37 229.192 9.30833 229.418 9.185C229.648 9.05833 229.86 8.885 230.053 8.665V4.935H230.943ZM235.744 6.915C235.744 6.70833 235.714 6.52 235.654 6.35C235.598 6.17667 235.513 6.02833 235.399 5.905C235.289 5.77833 235.154 5.68167 234.994 5.615C234.834 5.545 234.653 5.51 234.449 5.51C234.023 5.51 233.684 5.635 233.434 5.885C233.188 6.13167 233.034 6.475 232.974 6.915H235.744ZM236.464 9.29C236.354 9.42333 236.223 9.54 236.069 9.64C235.916 9.73667 235.751 9.81667 235.574 9.88C235.401 9.94333 235.221 9.99 235.034 10.02C234.848 10.0533 234.663 10.07 234.479 10.07C234.129 10.07 233.806 10.0117 233.509 9.895C233.216 9.775 232.961 9.60167 232.744 9.375C232.531 9.145 232.364 8.86167 232.244 8.525C232.124 8.18833 232.064 7.80167 232.064 7.365C232.064 7.01167 232.118 6.68167 232.224 6.375C232.334 6.06833 232.491 5.80333 232.694 5.58C232.898 5.35333 233.146 5.17667 233.439 5.05C233.733 4.92 234.063 4.855 234.429 4.855C234.733 4.855 235.013 4.90667 235.269 5.01C235.529 5.11 235.753 5.25667 235.939 5.45C236.129 5.64 236.278 5.87667 236.384 6.16C236.491 6.44 236.544 6.76 236.544 7.12C236.544 7.26 236.529 7.35333 236.499 7.4C236.469 7.44667 236.413 7.47 236.329 7.47H232.944C232.954 7.79 232.998 8.06833 233.074 8.305C233.154 8.54167 233.264 8.74 233.404 8.9C233.544 9.05667 233.711 9.175 233.904 9.255C234.098 9.33167 234.314 9.37 234.554 9.37C234.778 9.37 234.969 9.345 235.129 9.295C235.293 9.24167 235.433 9.185 235.549 9.125C235.666 9.065 235.763 9.01 235.839 8.96C235.919 8.90667 235.988 8.88 236.044 8.88C236.118 8.88 236.174 8.90833 236.214 8.965L236.464 9.29ZM241.803 4.935V10H241.273C241.146 10 241.066 9.93833 241.033 9.815L240.963 9.27C240.743 9.51333 240.496 9.71 240.223 9.86C239.949 10.0067 239.636 10.08 239.283 10.08C239.006 10.08 238.761 10.035 238.548 9.945C238.338 9.85167 238.161 9.72167 238.018 9.555C237.874 9.38833 237.766 9.18667 237.693 8.95C237.623 8.71333 237.588 8.45167 237.588 8.165V4.935H238.478V8.165C238.478 8.54833 238.564 8.845 238.738 9.055C238.914 9.265 239.183 9.37 239.543 9.37C239.806 9.37 240.051 9.30833 240.278 9.185C240.508 9.05833 240.719 8.885 240.913 8.665V4.935H241.803ZM246.604 6.915C246.604 6.70833 246.574 6.52 246.514 6.35C246.457 6.17667 246.372 6.02833 246.259 5.905C246.149 5.77833 246.014 5.68167 245.854 5.615C245.694 5.545 245.512 5.51 245.309 5.51C244.882 5.51 244.544 5.635 244.294 5.885C244.047 6.13167 243.894 6.475 243.834 6.915H246.604ZM247.324 9.29C247.214 9.42333 247.082 9.54 246.929 9.64C246.775 9.73667 246.61 9.81667 246.434 9.88C246.26 9.94333 246.08 9.99 245.894 10.02C245.707 10.0533 245.522 10.07 245.339 10.07C244.989 10.07 244.665 10.0117 244.369 9.895C244.075 9.775 243.82 9.60167 243.604 9.375C243.39 9.145 243.224 8.86167 243.104 8.525C242.984 8.18833 242.924 7.80167 242.924 7.365C242.924 7.01167 242.977 6.68167 243.084 6.375C243.194 6.06833 243.35 5.80333 243.554 5.58C243.757 5.35333 244.005 5.17667 244.299 5.05C244.592 4.92 244.922 4.855 245.289 4.855C245.592 4.855 245.872 4.90667 246.129 5.01C246.389 5.11 246.612 5.25667 246.799 5.45C246.989 5.64 247.137 5.87667 247.244 6.16C247.35 6.44 247.404 6.76 247.404 7.12C247.404 7.26 247.389 7.35333 247.359 7.4C247.329 7.44667 247.272 7.47 247.189 7.47H243.804C243.814 7.79 243.857 8.06833 243.934 8.305C244.014 8.54167 244.124 8.74 244.264 8.9C244.404 9.05667 244.57 9.175 244.764 9.255C244.957 9.33167 245.174 9.37 245.414 9.37C245.637 9.37 245.829 9.345 245.989 9.295C246.152 9.24167 246.292 9.185 246.409 9.125C246.525 9.065 246.622 9.01 246.699 8.96C246.779 8.90667 246.847 8.88 246.904 8.88C246.977 8.88 247.034 8.90833 247.074 8.965L247.324 9.29ZM249.003 6.855C249.003 6.14167 248.911 5.44833 248.728 4.775C248.548 4.10167 248.283 3.46167 247.933 2.855C247.906 2.805 247.889 2.76167 247.883 2.725C247.876 2.685 247.878 2.65167 247.888 2.625C247.898 2.595 247.913 2.57 247.933 2.55C247.956 2.52667 247.981 2.50667 248.008 2.49L248.403 2.245C248.653 2.63167 248.864 3.01333 249.038 3.39C249.214 3.76667 249.356 4.145 249.463 4.525C249.573 4.90167 249.653 5.28333 249.703 5.67C249.753 6.05667 249.778 6.45167 249.778 6.855C249.778 7.26167 249.753 7.65833 249.703 8.045C249.653 8.42833 249.573 8.81 249.463 9.19C249.356 9.57 249.214 9.94833 249.038 10.325C248.864 10.7017 248.653 11.0817 248.403 11.465L248.008 11.225C247.981 11.2083 247.956 11.1883 247.933 11.165C247.913 11.145 247.898 11.12 247.888 11.09C247.878 11.0633 247.876 11.03 247.883 10.99C247.889 10.95 247.906 10.905 247.933 10.855C248.283 10.2483 248.548 9.60833 248.728 8.935C248.911 8.26167 249.003 7.56833 249.003 6.855Z" fill="#0B3AB5"/>
<g id="queue-add-d" style="opacity:0; transform: translate(0px, 35px)">
<g id="queue-add-node-d">
<circle id="Ellipse 2_4" cx="243.5" cy="40.5" r="18" stroke="black"/>
<path id="d" d="M244.207 40.14C244.04 39.9167 243.86 39.7617 243.667 39.675C243.474 39.585 243.257 39.54 243.017 39.54C242.547 39.54 242.185 39.7083 241.932 40.045C241.679 40.3817 241.552 40.8617 241.552 41.485C241.552 41.815 241.58 42.0983 241.637 42.335C241.694 42.5683 241.777 42.7617 241.887 42.915C241.997 43.065 242.132 43.175 242.292 43.245C242.452 43.315 242.634 43.35 242.837 43.35C243.13 43.35 243.385 43.2833 243.602 43.15C243.822 43.0167 244.024 42.8283 244.207 42.585V40.14ZM245.097 36.635V44H244.567C244.44 44 244.36 43.9383 244.327 43.815L244.247 43.2C244.03 43.46 243.784 43.67 243.507 43.83C243.23 43.99 242.91 44.07 242.547 44.07C242.257 44.07 241.994 44.015 241.757 43.905C241.52 43.7917 241.319 43.6267 241.152 43.41C240.985 43.1933 240.857 42.9233 240.767 42.6C240.677 42.2767 240.632 41.905 240.632 41.485C240.632 41.1117 240.682 40.765 240.782 40.445C240.882 40.1217 241.025 39.8417 241.212 39.605C241.399 39.3683 241.627 39.1833 241.897 39.05C242.17 38.9133 242.477 38.845 242.817 38.845C243.127 38.845 243.392 38.8983 243.612 39.005C243.835 39.1083 244.034 39.2533 244.207 39.44V36.635H245.097Z" fill="black"/>
</g>
<path id="Arrow 9" d="M286.354 41.3536C286.549 41.1583 286.549 40.8417 286.354 40.6464L283.172 37.4645C282.976 37.2692 282.66 37.2692 282.464 37.4645C282.269 37.6597 282.269 37.9763 282.464 38.1716L285.293 41L282.464 43.8284C282.269 44.0237 282.269 44.3403 282.464 44.5355C282.66 44.7308 282.976 44.7308 283.172 44.5355L286.354 41.3536ZM262 41.5H286V40.5H262V41.5Z" fill="black"/>
<path id="queue-new-null" d="M291.606 40.67C291.716 40.5467 291.832 40.435 291.956 40.335C292.079 40.235 292.209 40.15 292.346 40.08C292.486 40.0067 292.632 39.9517 292.786 39.915C292.942 39.875 293.111 39.855 293.291 39.855C293.567 39.855 293.811 39.9017 294.021 39.995C294.234 40.085 294.411 40.215 294.551 40.385C294.694 40.5517 294.802 40.7533 294.876 40.99C294.949 41.2267 294.986 41.4883 294.986 41.775V45H294.091V41.775C294.091 41.3917 294.002 41.095 293.826 40.885C293.652 40.6717 293.387 40.565 293.031 40.565C292.767 40.565 292.521 40.6283 292.291 40.755C292.064 40.8817 291.854 41.0533 291.661 41.27V45H290.766V39.935H291.301C291.427 39.935 291.506 39.9967 291.536 40.12L291.606 40.67ZM300.507 39.935V45H299.977C299.85 45 299.77 44.9383 299.737 44.815L299.667 44.27C299.447 44.5133 299.2 44.71 298.927 44.86C298.653 45.0067 298.34 45.08 297.987 45.08C297.71 45.08 297.465 45.035 297.252 44.945C297.042 44.8517 296.865 44.7217 296.722 44.555C296.578 44.3883 296.47 44.1867 296.397 43.95C296.327 43.7133 296.292 43.4517 296.292 43.165V39.935H297.182V43.165C297.182 43.5483 297.268 43.845 297.442 44.055C297.618 44.265 297.887 44.37 298.247 44.37C298.51 44.37 298.755 44.3083 298.982 44.185C299.212 44.0583 299.423 43.885 299.617 43.665V39.935H300.507ZM302.838 37.635V45H301.948V37.635H302.838ZM305.201 37.635V45H304.311V37.635H305.201Z" fill="black"/>
</g>
<g id="pointer">
<path id="next pointer_3" d="M202.867 80.67C202.977 80.5467 203.094 80.435 203.217 80.335C203.341 80.235 203.471 80.15 203.607 80.08C203.747 80.0067 203.894 79.9517 204.047 79.915C204.204 79.875 204.372 79.855 204.552 79.855C204.829 79.855 205.072 79.9017 205.282 79.995C205.496 80.085 205.672 80.215 205.812 80.385C205.956 80.5517 206.064 80.7533 206.137 80.99C206.211 81.2267 206.247 81.4883 206.247 81.775V85H205.352V81.775C205.352 81.3917 205.264 81.095 205.087 80.885C204.914 80.6717 204.649 80.565 204.292 80.565C204.029 80.565 203.782 80.6283 203.552 80.755C203.326 80.8817 203.116 81.0533 202.922 81.27V85H202.027V79.935H202.562C202.689 79.935 202.767 79.9967 202.797 80.12L202.867 80.67ZM210.993 81.915C210.993 81.7083 210.963 81.52 210.903 81.35C210.847 81.1767 210.762 81.0283 210.648 80.905C210.538 80.7783 210.403 80.6817 210.243 80.615C210.083 80.545 209.902 80.51 209.698 80.51C209.272 80.51 208.933 80.635 208.683 80.885C208.437 81.1317 208.283 81.475 208.223 81.915H210.993ZM211.713 84.29C211.603 84.4233 211.472 84.54 211.318 84.64C211.165 84.7367 211 84.8167 210.823 84.88C210.65 84.9433 210.47 84.99 210.283 85.02C210.097 85.0533 209.912 85.07 209.728 85.07C209.378 85.07 209.055 85.0117 208.758 84.895C208.465 84.775 208.21 84.6017 207.993 84.375C207.78 84.145 207.613 83.8617 207.493 83.525C207.373 83.1883 207.313 82.8017 207.313 82.365C207.313 82.0117 207.367 81.6817 207.473 81.375C207.583 81.0683 207.74 80.8033 207.943 80.58C208.147 80.3533 208.395 80.1767 208.688 80.05C208.982 79.92 209.312 79.855 209.678 79.855C209.982 79.855 210.262 79.9067 210.518 80.01C210.778 80.11 211.002 80.2567 211.188 80.45C211.378 80.64 211.527 80.8767 211.633 81.16C211.74 81.44 211.793 81.76 211.793 82.12C211.793 82.26 211.778 82.3533 211.748 82.4C211.718 82.4467 211.662 82.47 211.578 82.47H208.193C208.203 82.79 208.247 83.0683 208.323 83.305C208.403 83.5417 208.513 83.74 208.653 83.9C208.793 84.0567 208.96 84.175 209.153 84.255C209.347 84.3317 209.563 84.37 209.803 84.37C210.027 84.37 210.218 84.345 210.378 84.295C210.542 84.2417 210.682 84.185 210.798 84.125C210.915 84.065 211.012 84.01 211.088 83.96C211.168 83.9067 211.237 83.88 211.293 83.88C211.367 83.88 211.423 83.9083 211.463 83.965L211.713 84.29ZM216.978 85H216.123C216.05 85 215.992 84.9817 215.948 84.945C215.908 84.905 215.875 84.8617 215.848 84.815L214.573 82.83C214.56 82.8767 214.545 82.9233 214.528 82.97C214.515 83.0133 214.495 83.0533 214.468 83.09L213.288 84.815C213.255 84.8617 213.218 84.905 213.178 84.945C213.142 84.9817 213.09 85 213.023 85H212.228L214.003 82.4L212.298 79.935H213.153C213.227 79.935 213.28 79.9467 213.313 79.97C213.347 79.9933 213.377 80.0267 213.403 80.07L214.648 81.97C214.675 81.8733 214.717 81.78 214.773 81.69L215.863 80.09C215.893 80.0433 215.925 80.0067 215.958 79.98C215.995 79.95 216.038 79.935 216.088 79.935H216.908L215.203 82.355L216.978 85ZM219.354 85.08C218.954 85.08 218.645 84.9683 218.429 84.745C218.215 84.5217 218.109 84.2 218.109 83.78V80.68H217.499C217.445 80.68 217.4 80.665 217.364 80.635C217.327 80.6017 217.309 80.5517 217.309 80.485V80.13L218.139 80.025L218.344 78.46C218.354 78.41 218.375 78.37 218.409 78.34C218.445 78.3067 218.492 78.29 218.549 78.29H218.999V80.035H220.464V80.68H218.999V83.72C218.999 83.9333 219.05 84.0917 219.154 84.195C219.257 84.2983 219.39 84.35 219.554 84.35C219.647 84.35 219.727 84.3383 219.794 84.315C219.864 84.2883 219.924 84.26 219.974 84.23C220.024 84.2 220.065 84.1733 220.099 84.15C220.135 84.1233 220.167 84.11 220.194 84.11C220.24 84.11 220.282 84.1383 220.319 84.195L220.579 84.62C220.425 84.7633 220.24 84.8767 220.024 84.96C219.807 85.04 219.584 85.08 219.354 85.08ZM196.765 95.78C196.928 96 197.107 96.155 197.3 96.245C197.493 96.335 197.71 96.38 197.95 96.38C198.423 96.38 198.787 96.2117 199.04 95.875C199.293 95.5383 199.42 95.0583 199.42 94.435C199.42 94.105 199.39 93.8217 199.33 93.585C199.273 93.3483 199.19 93.155 199.08 93.005C198.97 92.8517 198.835 92.74 198.675 92.67C198.515 92.6 198.333 92.565 198.13 92.565C197.84 92.565 197.585 92.6317 197.365 92.765C197.148 92.8983 196.948 93.0867 196.765 93.33V95.78ZM196.72 92.72C196.933 92.4567 197.18 92.245 197.46 92.085C197.74 91.925 198.06 91.845 198.42 91.845C198.713 91.845 198.978 91.9017 199.215 92.015C199.452 92.125 199.653 92.29 199.82 92.51C199.987 92.7267 200.115 92.9967 200.205 93.32C200.295 93.6433 200.34 94.015 200.34 94.435C200.34 94.8083 200.29 95.1567 200.19 95.48C200.09 95.8 199.945 96.0783 199.755 96.315C199.568 96.5483 199.338 96.7333 199.065 96.87C198.795 97.0033 198.49 97.07 198.15 97.07C197.84 97.07 197.573 97.0183 197.35 96.915C197.13 96.8083 196.935 96.6617 196.765 96.475V98.715H195.87V91.935H196.405C196.532 91.935 196.61 91.9967 196.64 92.12L196.72 92.72ZM203.611 91.855C203.981 91.855 204.314 91.9167 204.611 92.04C204.907 92.1633 205.161 92.3383 205.371 92.565C205.581 92.7917 205.741 93.0667 205.851 93.39C205.964 93.71 206.021 94.0683 206.021 94.465C206.021 94.865 205.964 95.225 205.851 95.545C205.741 95.865 205.581 96.1383 205.371 96.365C205.161 96.5917 204.907 96.7667 204.611 96.89C204.314 97.01 203.981 97.07 203.611 97.07C203.237 97.07 202.901 97.01 202.601 96.89C202.304 96.7667 202.051 96.5917 201.841 96.365C201.631 96.1383 201.469 95.865 201.356 95.545C201.246 95.225 201.191 94.865 201.191 94.465C201.191 94.0683 201.246 93.71 201.356 93.39C201.469 93.0667 201.631 92.7917 201.841 92.565C202.051 92.3383 202.304 92.1633 202.601 92.04C202.901 91.9167 203.237 91.855 203.611 91.855ZM203.611 96.375C204.111 96.375 204.484 96.2083 204.731 95.875C204.977 95.5383 205.101 95.07 205.101 94.47C205.101 93.8667 204.977 93.3967 204.731 93.06C204.484 92.7233 204.111 92.555 203.611 92.555C203.357 92.555 203.136 92.5983 202.946 92.685C202.759 92.7717 202.602 92.8967 202.476 93.06C202.352 93.2233 202.259 93.425 202.196 93.665C202.136 93.9017 202.106 94.17 202.106 94.47C202.106 95.07 202.229 95.5383 202.476 95.875C202.726 96.2083 203.104 96.375 203.611 96.375ZM208.089 91.935V97H207.199V91.935H208.089ZM208.279 90.345C208.279 90.4317 208.261 90.5133 208.224 90.59C208.191 90.6633 208.144 90.73 208.084 90.79C208.028 90.8467 207.959 90.8917 207.879 90.925C207.803 90.9583 207.721 90.975 207.634 90.975C207.548 90.975 207.466 90.9583 207.389 90.925C207.316 90.8917 207.251 90.8467 207.194 90.79C207.138 90.73 207.093 90.6633 207.059 90.59C207.026 90.5133 207.009 90.4317 207.009 90.345C207.009 90.2583 207.026 90.1767 207.059 90.1C207.093 90.02 207.138 89.9517 207.194 89.895C207.251 89.835 207.316 89.7883 207.389 89.755C207.466 89.7217 207.548 89.705 207.634 89.705C207.721 89.705 207.803 89.7217 207.879 89.755C207.959 89.7883 208.028 89.835 208.084 89.895C208.144 89.9517 208.191 90.02 208.224 90.1C208.261 90.1767 208.279 90.2583 208.279 90.345ZM210.392 92.67C210.502 92.5467 210.618 92.435 210.742 92.335C210.865 92.235 210.995 92.15 211.132 92.08C211.272 92.0067 211.418 91.9517 211.572 91.915C211.728 91.875 211.897 91.855 212.077 91.855C212.353 91.855 212.597 91.9017 212.807 91.995C213.02 92.085 213.197 92.215 213.337 92.385C213.48 92.5517 213.588 92.7533 213.662 92.99C213.735 93.2267 213.772 93.4883 213.772 93.775V97H212.877V93.775C212.877 93.3917 212.788 93.095 212.612 92.885C212.438 92.6717 212.173 92.565 211.817 92.565C211.553 92.565 211.307 92.6283 211.077 92.755C210.85 92.8817 210.64 93.0533 210.447 93.27V97H209.552V91.935H210.087C210.213 91.935 210.292 91.9967 210.322 92.12L210.392 92.67ZM216.614 97.08C216.214 97.08 215.906 96.9683 215.689 96.745C215.476 96.5217 215.369 96.2 215.369 95.78V92.68H214.759C214.706 92.68 214.661 92.665 214.624 92.635C214.588 92.6017 214.569 92.5517 214.569 92.485V92.13L215.399 92.025L215.604 90.46C215.614 90.41 215.636 90.37 215.669 90.34C215.706 90.3067 215.753 90.29 215.809 90.29H216.259V92.035H217.724V92.68H216.259V95.72C216.259 95.9333 216.311 96.0917 216.414 96.195C216.518 96.2983 216.651 96.35 216.814 96.35C216.908 96.35 216.988 96.3383 217.054 96.315C217.124 96.2883 217.184 96.26 217.234 96.23C217.284 96.2 217.326 96.1733 217.359 96.15C217.396 96.1233 217.428 96.11 217.454 96.11C217.501 96.11 217.543 96.1383 217.579 96.195L217.839 96.62C217.686 96.7633 217.501 96.8767 217.284 96.96C217.068 97.04 216.844 97.08 216.614 97.08ZM222.004 93.915C222.004 93.7083 221.974 93.52 221.914 93.35C221.858 93.1767 221.773 93.0283 221.659 92.905C221.549 92.7783 221.414 92.6817 221.254 92.615C221.094 92.545 220.913 92.51 220.709 92.51C220.283 92.51 219.944 92.635 219.694 92.885C219.448 93.1317 219.294 93.475 219.234 93.915H222.004ZM222.724 96.29C222.614 96.4233 222.483 96.54 222.329 96.64C222.176 96.7367 222.011 96.8167 221.834 96.88C221.661 96.9433 221.481 96.99 221.294 97.02C221.108 97.0533 220.923 97.07 220.739 97.07C220.389 97.07 220.066 97.0117 219.769 96.895C219.476 96.775 219.221 96.6017 219.004 96.375C218.791 96.145 218.624 95.8617 218.504 95.525C218.384 95.1883 218.324 94.8017 218.324 94.365C218.324 94.0117 218.378 93.6817 218.484 93.375C218.594 93.0683 218.751 92.8033 218.954 92.58C219.158 92.3533 219.406 92.1767 219.699 92.05C219.993 91.92 220.323 91.855 220.689 91.855C220.993 91.855 221.273 91.9067 221.529 92.01C221.789 92.11 222.013 92.2567 222.199 92.45C222.389 92.64 222.538 92.8767 222.644 93.16C222.751 93.44 222.804 93.76 222.804 94.12C222.804 94.26 222.789 94.3533 222.759 94.4C222.729 94.4467 222.673 94.47 222.589 94.47H219.204C219.214 94.79 219.258 95.0683 219.334 95.305C219.414 95.5417 219.524 95.74 219.664 95.9C219.804 96.0567 219.971 96.175 220.164 96.255C220.358 96.3317 220.574 96.37 220.814 96.37C221.038 96.37 221.229 96.345 221.389 96.295C221.553 96.2417 221.693 96.185 221.809 96.125C221.926 96.065 222.023 96.01 222.099 95.96C222.179 95.9067 222.248 95.88 222.304 95.88C222.378 95.88 222.434 95.9083 222.474 95.965L222.724 96.29ZM224.742 92.95C224.902 92.6033 225.099 92.3333 225.332 92.14C225.566 91.9433 225.851 91.845 226.187 91.845C226.294 91.845 226.396 91.8567 226.492 91.88C226.592 91.9033 226.681 91.94 226.757 91.99L226.692 92.655C226.672 92.7383 226.622 92.78 226.542 92.78C226.496 92.78 226.427 92.77 226.337 92.75C226.247 92.73 226.146 92.72 226.032 92.72C225.872 92.72 225.729 92.7433 225.602 92.79C225.479 92.8367 225.367 92.9067 225.267 93C225.171 93.09 225.082 93.2033 225.002 93.34C224.926 93.4733 224.856 93.6267 224.792 93.8V97H223.897V91.935H224.407C224.504 91.935 224.571 91.9533 224.607 91.99C224.644 92.0267 224.669 92.09 224.682 92.18L224.742 92.95Z" fill="#D90D0D"/>
<path id="Arrow 7_2" d="M213.354 51.6464C213.158 51.4512 212.842 51.4512 212.646 51.6464L209.464 54.8284C209.269 55.0237 209.269 55.3403 209.464 55.5355C209.66 55.7308 209.976 55.7308 210.172 55.5355L213 52.7071L215.828 55.5355C216.024 55.7308 216.34 55.7308 216.536 55.5355C216.731 55.3403 216.731 55.0237 216.536 54.8284L213.354 51.6464ZM213.5 75L213.5 52L212.5 52L212.5 75L213.5 75Z" fill="#D90D0D"/>
</g>
</g>
</svg>
