<svg  viewBox="0 0 252 92" fill="none" xmlns="http://www.w3.org/2000/svg">
<g id="linkedlist">
<g id="node-a">
<circle id="Ellipse 2" cx="62.5" cy="41.5" r="18" stroke="black"/>
<path id="a" d="M62.9646 42.72C62.5546 42.7333 62.2046 42.7667 61.9146 42.82C61.628 42.87 61.393 42.9367 61.2096 43.02C61.0296 43.1033 60.898 43.2017 60.8146 43.315C60.7346 43.4283 60.6946 43.555 60.6946 43.695C60.6946 43.8283 60.7163 43.9433 60.7596 44.04C60.803 44.1367 60.8613 44.2167 60.9346 44.28C61.0113 44.34 61.0996 44.385 61.1996 44.415C61.303 44.4417 61.413 44.455 61.5296 44.455C61.6863 44.455 61.8296 44.44 61.9596 44.41C62.0896 44.3767 62.2113 44.33 62.3246 44.27C62.4413 44.21 62.5513 44.1383 62.6546 44.055C62.7613 43.9717 62.8646 43.8767 62.9646 43.77V42.72ZM60.0896 40.65C60.3696 40.38 60.6713 40.1783 60.9946 40.045C61.318 39.9117 61.6763 39.845 62.0696 39.845C62.353 39.845 62.6046 39.8917 62.8246 39.985C63.0446 40.0783 63.2296 40.2083 63.3796 40.375C63.5296 40.5417 63.643 40.7433 63.7196 40.98C63.7963 41.2167 63.8346 41.4767 63.8346 41.76V45H63.4396C63.353 45 63.2863 44.9867 63.2396 44.96C63.193 44.93 63.1563 44.8733 63.1296 44.79L63.0296 44.31C62.8963 44.4333 62.7663 44.5433 62.6396 44.64C62.513 44.7333 62.3796 44.8133 62.2396 44.88C62.0996 44.9433 61.9496 44.9917 61.7896 45.025C61.633 45.0617 61.458 45.08 61.2646 45.08C61.068 45.08 60.883 45.0533 60.7096 45C60.5363 44.9433 60.3846 44.86 60.2546 44.75C60.128 44.64 60.0263 44.5017 59.9496 44.335C59.8763 44.165 59.8396 43.965 59.8396 43.735C59.8396 43.535 59.8946 43.3433 60.0046 43.16C60.1146 42.9733 60.293 42.8083 60.5396 42.665C60.7863 42.5217 61.108 42.405 61.5046 42.315C61.9013 42.2217 62.388 42.1683 62.9646 42.155V41.76C62.9646 41.3667 62.8796 41.07 62.7096 40.87C62.5396 40.6667 62.2913 40.565 61.9646 40.565C61.7446 40.565 61.5596 40.5933 61.4096 40.65C61.263 40.7033 61.1346 40.765 61.0246 40.835C60.918 40.9017 60.8246 40.9633 60.7446 41.02C60.668 41.0733 60.5913 41.1 60.5146 41.1C60.4546 41.1 60.403 41.085 60.3596 41.055C60.3163 41.0217 60.2796 40.9817 60.2496 40.935L60.0896 40.65Z" fill="black"/>
</g>
<g id="node-c">
<circle id="Ellipse 2_2" cx="183.5" cy="41.5" r="18" stroke="black"/>
<path id="c" d="M184.842 40.835C184.816 40.8717 184.789 40.9 184.762 40.92C184.736 40.94 184.699 40.95 184.652 40.95C184.602 40.95 184.547 40.93 184.487 40.89C184.427 40.8467 184.352 40.8 184.262 40.75C184.176 40.7 184.067 40.655 183.937 40.615C183.811 40.5717 183.654 40.55 183.467 40.55C183.217 40.55 182.997 40.595 182.807 40.685C182.617 40.7717 182.457 40.8983 182.327 41.065C182.201 41.2317 182.104 41.4333 182.037 41.67C181.974 41.9067 181.942 42.1717 181.942 42.465C181.942 42.7717 181.977 43.045 182.047 43.285C182.117 43.5217 182.216 43.7217 182.342 43.885C182.472 44.045 182.627 44.1683 182.807 44.255C182.991 44.3383 183.196 44.38 183.422 44.38C183.639 44.38 183.817 44.355 183.957 44.305C184.097 44.2517 184.212 44.1933 184.302 44.13C184.396 44.0667 184.472 44.01 184.532 43.96C184.596 43.9067 184.657 43.88 184.717 43.88C184.791 43.88 184.847 43.9083 184.887 43.965L185.137 44.29C185.027 44.4267 184.902 44.5433 184.762 44.64C184.622 44.7367 184.471 44.8183 184.307 44.885C184.147 44.9483 183.979 44.995 183.802 45.025C183.626 45.055 183.446 45.07 183.262 45.07C182.946 45.07 182.651 45.0117 182.377 44.895C182.107 44.7783 181.872 44.61 181.672 44.39C181.472 44.1667 181.316 43.8933 181.202 43.57C181.089 43.2467 181.032 42.8783 181.032 42.465C181.032 42.0883 181.084 41.74 181.187 41.42C181.294 41.1 181.447 40.825 181.647 40.595C181.851 40.3617 182.099 40.18 182.392 40.05C182.689 39.92 183.029 39.855 183.412 39.855C183.769 39.855 184.082 39.9133 184.352 40.03C184.626 40.1433 184.867 40.305 185.077 40.515L184.842 40.835Z" fill="black"/>
</g>
<g id="node-b">
<circle id="Ellipse 2_3" cx="123.5" cy="41.5" r="18" stroke="black"/>
<path id="b" d="M121.802 43.78C121.965 44 122.144 44.155 122.337 44.245C122.534 44.335 122.749 44.38 122.982 44.38C123.459 44.38 123.824 44.2117 124.077 43.875C124.33 43.5383 124.457 43.0367 124.457 42.37C124.457 41.75 124.344 41.295 124.117 41.005C123.894 40.7117 123.574 40.565 123.157 40.565C122.867 40.565 122.614 40.6317 122.397 40.765C122.184 40.8983 121.985 41.0867 121.802 41.33V43.78ZM121.802 40.665C122.015 40.4183 122.255 40.2217 122.522 40.075C122.792 39.9283 123.102 39.855 123.452 39.855C123.749 39.855 124.015 39.9117 124.252 40.025C124.492 40.1383 124.695 40.3033 124.862 40.52C125.029 40.7333 125.155 40.9933 125.242 41.3C125.332 41.6067 125.377 41.9517 125.377 42.335C125.377 42.745 125.327 43.1183 125.227 43.455C125.127 43.7917 124.982 44.08 124.792 44.32C124.605 44.5567 124.377 44.7417 124.107 44.875C123.837 45.005 123.534 45.07 123.197 45.07C122.864 45.07 122.582 45.0083 122.352 44.885C122.125 44.7583 121.927 44.58 121.757 44.35L121.712 44.81C121.685 44.9367 121.609 45 121.482 45H120.907V37.635H121.802V40.665Z" fill="black"/>
</g>
<path id="Arrow 4" d="M105.354 42.3536C105.549 42.1583 105.549 41.8417 105.354 41.6464L102.172 38.4645C101.976 38.2692 101.66 38.2692 101.464 38.4645C101.269 38.6597 101.269 38.9763 101.464 39.1716L104.293 42L101.464 44.8284C101.269 45.0237 101.269 45.3403 101.464 45.5355C101.66 45.7308 101.976 45.7308 102.172 45.5355L105.354 42.3536ZM81 42.5H105V41.5H81V42.5Z" fill="black"/>
<path id="Arrow 5" d="M165.354 42.3536C165.549 42.1583 165.549 41.8417 165.354 41.6464L162.172 38.4645C161.976 38.2692 161.66 38.2692 161.464 38.4645C161.269 38.6597 161.269 38.9763 161.464 39.1716L164.293 42L161.464 44.8284C161.269 45.0237 161.269 45.3403 161.464 45.5355C161.66 45.7308 161.976 45.7308 162.172 45.5355L165.354 42.3536ZM142 42.5H165V41.5H142V42.5Z" fill="black"/>
<path id="Arrow 5_2" d="M225.354 42.3536C225.549 42.1583 225.549 41.8417 225.354 41.6464L222.172 38.4645C221.976 38.2692 221.66 38.2692 221.464 38.4645C221.269 38.6597 221.269 38.9763 221.464 39.1716L224.293 42L221.464 44.8284C221.269 45.0237 221.269 45.3403 221.464 45.5355C221.66 45.7308 221.976 45.7308 222.172 45.5355L225.354 42.3536ZM202 42.5H225V41.5H202V42.5Z" fill="black"/>
<path id="Arrow 6" d="M48.0161 28.4997C48.2921 28.4908 48.5086 28.2599 48.4997 27.9839L48.3547 23.4862C48.3458 23.2102 48.1148 22.9937 47.8388 23.0026C47.5628 23.0115 47.3463 23.2425 47.3552 23.5185L47.4841 27.5164L43.4862 27.6453C43.2102 27.6542 42.9937 27.8852 43.0026 28.1612C43.0115 28.4372 43.2425 28.6537 43.5185 28.6448L48.0161 28.4997ZM31.658 13.3648L47.658 28.3648L48.342 27.6352L32.342 12.6352L31.658 13.3648Z" fill="#0B3AB5"/>
<path id="head (start of list)" d="M3.64102 5.61C3.85768 5.38 4.09768 5.19667 4.36102 5.06C4.62435 4.92333 4.92768 4.855 5.27102 4.855C5.54768 4.855 5.79102 4.90167 6.00102 4.995C6.21435 5.085 6.39102 5.215 6.53102 5.385C6.67435 5.55167 6.78268 5.75333 6.85602 5.99C6.92935 6.22667 6.96602 6.48833 6.96602 6.775V10H6.07102V6.775C6.07102 6.39167 5.98268 6.095 5.80602 5.885C5.63268 5.67167 5.36768 5.565 5.01102 5.565C4.74768 5.565 4.50102 5.62833 4.27102 5.755C4.04435 5.88167 3.83435 6.05333 3.64102 6.27V10H2.74602V2.635H3.64102V5.61ZM11.7122 6.915C11.7122 6.70833 11.6822 6.52 11.6222 6.35C11.5655 6.17667 11.4805 6.02833 11.3672 5.905C11.2572 5.77833 11.1222 5.68167 10.9622 5.615C10.8022 5.545 10.6205 5.51 10.4172 5.51C9.99052 5.51 9.65219 5.635 9.40219 5.885C9.15552 6.13167 9.00219 6.475 8.94219 6.915H11.7122ZM12.4322 9.29C12.3222 9.42333 12.1905 9.54 12.0372 9.64C11.8839 9.73667 11.7189 9.81667 11.5422 9.88C11.3689 9.94333 11.1889 9.99 11.0022 10.02C10.8155 10.0533 10.6305 10.07 10.4472 10.07C10.0972 10.07 9.77385 10.0117 9.47719 9.895C9.18385 9.775 8.92885 9.60167 8.71219 9.375C8.49885 9.145 8.33219 8.86167 8.21219 8.525C8.09219 8.18833 8.03219 7.80167 8.03219 7.365C8.03219 7.01167 8.08552 6.68167 8.19219 6.375C8.30219 6.06833 8.45885 5.80333 8.66219 5.58C8.86552 5.35333 9.11385 5.17667 9.40719 5.05C9.70052 4.92 10.0305 4.855 10.3972 4.855C10.7005 4.855 10.9805 4.90667 11.2372 5.01C11.4972 5.11 11.7205 5.25667 11.9072 5.45C12.0972 5.64 12.2455 5.87667 12.3522 6.16C12.4589 6.44 12.5122 6.76 12.5122 7.12C12.5122 7.26 12.4972 7.35333 12.4672 7.4C12.4372 7.44667 12.3805 7.47 12.2972 7.47H8.91219C8.92219 7.79 8.96552 8.06833 9.04219 8.305C9.12219 8.54167 9.23219 8.74 9.37219 8.9C9.51219 9.05667 9.67885 9.175 9.87219 9.255C10.0655 9.33167 10.2822 9.37 10.5222 9.37C10.7455 9.37 10.9372 9.345 11.0972 9.295C11.2605 9.24167 11.4005 9.185 11.5172 9.125C11.6339 9.065 11.7305 9.01 11.8072 8.96C11.8872 8.90667 11.9555 8.88 12.0122 8.88C12.0855 8.88 12.1422 8.90833 12.1822 8.965L12.4322 9.29ZM16.3504 7.72C15.9404 7.73333 15.5904 7.76667 15.3004 7.82C15.0137 7.87 14.7787 7.93667 14.5954 8.02C14.4154 8.10333 14.2837 8.20167 14.2004 8.315C14.1204 8.42833 14.0804 8.555 14.0804 8.695C14.0804 8.82833 14.1021 8.94333 14.1454 9.04C14.1887 9.13667 14.2471 9.21667 14.3204 9.28C14.3971 9.34 14.4854 9.385 14.5854 9.415C14.6887 9.44167 14.7987 9.455 14.9154 9.455C15.0721 9.455 15.2154 9.44 15.3454 9.41C15.4754 9.37667 15.5971 9.33 15.7104 9.27C15.8271 9.21 15.9371 9.13833 16.0404 9.055C16.1471 8.97167 16.2504 8.87667 16.3504 8.77V7.72ZM13.4754 5.65C13.7554 5.38 14.0571 5.17833 14.3804 5.045C14.7037 4.91167 15.0621 4.845 15.4554 4.845C15.7387 4.845 15.9904 4.89167 16.2104 4.985C16.4304 5.07833 16.6154 5.20833 16.7654 5.375C16.9154 5.54167 17.0287 5.74333 17.1054 5.98C17.1821 6.21667 17.2204 6.47667 17.2204 6.76V10H16.8254C16.7387 10 16.6721 9.98667 16.6254 9.96C16.5787 9.93 16.5421 9.87333 16.5154 9.79L16.4154 9.31C16.2821 9.43333 16.1521 9.54333 16.0254 9.64C15.8987 9.73333 15.7654 9.81333 15.6254 9.88C15.4854 9.94333 15.3354 9.99167 15.1754 10.025C15.0187 10.0617 14.8437 10.08 14.6504 10.08C14.4537 10.08 14.2687 10.0533 14.0954 10C13.9221 9.94333 13.7704 9.86 13.6404 9.75C13.5137 9.64 13.4121 9.50167 13.3354 9.335C13.2621 9.165 13.2254 8.965 13.2254 8.735C13.2254 8.535 13.2804 8.34333 13.3904 8.16C13.5004 7.97333 13.6787 7.80833 13.9254 7.665C14.1721 7.52167 14.4937 7.405 14.8904 7.315C15.2871 7.22167 15.7737 7.16833 16.3504 7.155V6.76C16.3504 6.36667 16.2654 6.07 16.0954 5.87C15.9254 5.66667 15.6771 5.565 15.3504 5.565C15.1304 5.565 14.9454 5.59333 14.7954 5.65C14.6487 5.70333 14.5204 5.765 14.4104 5.835C14.3037 5.90167 14.2104 5.96333 14.1304 6.02C14.0537 6.07333 13.9771 6.1 13.9004 6.1C13.8404 6.1 13.7887 6.085 13.7454 6.055C13.7021 6.02167 13.6654 5.98167 13.6354 5.935L13.4754 5.65ZM21.8761 6.14C21.7094 5.91667 21.5294 5.76167 21.3361 5.675C21.1428 5.585 20.9261 5.54 20.6861 5.54C20.2161 5.54 19.8544 5.70833 19.6011 6.045C19.3478 6.38167 19.2211 6.86167 19.2211 7.485C19.2211 7.815 19.2494 8.09833 19.3061 8.335C19.3628 8.56833 19.4461 8.76167 19.5561 8.915C19.6661 9.065 19.8011 9.175 19.9611 9.245C20.1211 9.315 20.3028 9.35 20.5061 9.35C20.7994 9.35 21.0544 9.28333 21.2711 9.15C21.4911 9.01667 21.6928 8.82833 21.8761 8.585V6.14ZM22.7661 2.635V10H22.2361C22.1094 10 22.0294 9.93833 21.9961 9.815L21.9161 9.2C21.6994 9.46 21.4528 9.67 21.1761 9.83C20.8994 9.99 20.5794 10.07 20.2161 10.07C19.9261 10.07 19.6628 10.015 19.4261 9.905C19.1894 9.79167 18.9878 9.62667 18.8211 9.41C18.6544 9.19333 18.5261 8.92333 18.4361 8.6C18.3461 8.27667 18.3011 7.905 18.3011 7.485C18.3011 7.11167 18.3511 6.765 18.4511 6.445C18.5511 6.12167 18.6944 5.84167 18.8811 5.605C19.0678 5.36833 19.2961 5.18333 19.5661 5.05C19.8394 4.91333 20.1461 4.845 20.4861 4.845C20.7961 4.845 21.0611 4.89833 21.2811 5.005C21.5044 5.10833 21.7028 5.25333 21.8761 5.44V2.635H22.7661ZM27.2504 6.855C27.2504 7.56833 27.3404 8.26167 27.5204 8.935C27.7037 9.60833 27.9704 10.2483 28.3204 10.855C28.3737 10.9583 28.3871 11.0367 28.3604 11.09C28.3337 11.1467 28.2954 11.1917 28.2454 11.225L27.8504 11.465C27.6004 11.0817 27.3871 10.7017 27.2104 10.325C27.0371 9.94833 26.8954 9.57 26.7854 9.19C26.6787 8.81 26.6004 8.42833 26.5504 8.045C26.5004 7.65833 26.4754 7.26167 26.4754 6.855C26.4754 6.45167 26.5004 6.05667 26.5504 5.67C26.6004 5.28333 26.6787 4.90167 26.7854 4.525C26.8954 4.145 27.0371 3.76667 27.2104 3.39C27.3871 3.01333 27.6004 2.63167 27.8504 2.245L28.2454 2.49C28.2954 2.52333 28.3337 2.56833 28.3604 2.625C28.3871 2.67833 28.3737 2.755 28.3204 2.855C27.9704 3.46167 27.7037 4.10167 27.5204 4.775C27.3404 5.44833 27.2504 6.14167 27.2504 6.855ZM32.1609 5.77C32.1209 5.84333 32.0592 5.88 31.9759 5.88C31.9259 5.88 31.8692 5.86167 31.8059 5.825C31.7425 5.78833 31.6642 5.74833 31.5709 5.705C31.4809 5.65833 31.3725 5.61667 31.2459 5.58C31.1192 5.54 30.9692 5.52 30.7959 5.52C30.6459 5.52 30.5109 5.54 30.3909 5.58C30.2709 5.61667 30.1675 5.66833 30.0809 5.735C29.9975 5.80167 29.9325 5.88 29.8859 5.97C29.8425 6.05667 29.8209 6.15167 29.8209 6.255C29.8209 6.385 29.8575 6.49333 29.9309 6.58C30.0075 6.66667 30.1075 6.74167 30.2309 6.805C30.3542 6.86833 30.4942 6.925 30.6509 6.975C30.8075 7.02167 30.9675 7.07333 31.1309 7.13C31.2975 7.18333 31.4592 7.24333 31.6159 7.31C31.7725 7.37667 31.9125 7.46 32.0359 7.56C32.1592 7.66 32.2575 7.78333 32.3309 7.93C32.4075 8.07333 32.4459 8.24667 32.4459 8.45C32.4459 8.68333 32.4042 8.9 32.3209 9.1C32.2375 9.29667 32.1142 9.46833 31.9509 9.615C31.7875 9.75833 31.5875 9.87167 31.3509 9.955C31.1142 10.0383 30.8409 10.08 30.5309 10.08C30.1775 10.08 29.8575 10.0233 29.5709 9.91C29.2842 9.79333 29.0409 9.645 28.8409 9.465L29.0509 9.125C29.0775 9.08167 29.1092 9.04833 29.1459 9.025C29.1825 9.00167 29.2292 8.99 29.2859 8.99C29.3459 8.99 29.4092 9.01333 29.4759 9.06C29.5425 9.10667 29.6225 9.15833 29.7159 9.215C29.8125 9.27167 29.9292 9.32333 30.0659 9.37C30.2025 9.41667 30.3725 9.44 30.5759 9.44C30.7492 9.44 30.9009 9.41833 31.0309 9.375C31.1609 9.32833 31.2692 9.26667 31.3559 9.19C31.4425 9.11333 31.5059 9.025 31.5459 8.925C31.5892 8.825 31.6109 8.71833 31.6109 8.605C31.6109 8.465 31.5725 8.35 31.4959 8.26C31.4225 8.16667 31.3242 8.08833 31.2009 8.025C31.0775 7.95833 30.9359 7.90167 30.7759 7.855C30.6192 7.805 30.4575 7.75333 30.2909 7.7C30.1275 7.64667 29.9659 7.58667 29.8059 7.52C29.6492 7.45 29.5092 7.36333 29.3859 7.26C29.2625 7.15667 29.1625 7.03 29.0859 6.88C29.0125 6.72667 28.9759 6.54167 28.9759 6.325C28.9759 6.13167 29.0159 5.94667 29.0959 5.77C29.1759 5.59 29.2925 5.43333 29.4459 5.3C29.5992 5.16333 29.7875 5.055 30.0109 4.975C30.2342 4.895 30.4892 4.855 30.7759 4.855C31.1092 4.855 31.4075 4.90833 31.6709 5.015C31.9375 5.11833 32.1675 5.26167 32.3609 5.445L32.1609 5.77ZM35.092 10.08C34.692 10.08 34.3837 9.96833 34.167 9.745C33.9537 9.52167 33.847 9.2 33.847 8.78V5.68H33.237C33.1837 5.68 33.1387 5.665 33.102 5.635C33.0654 5.60167 33.047 5.55167 33.047 5.485V5.13L33.877 5.025L34.082 3.46C34.092 3.41 34.1137 3.37 34.147 3.34C34.1837 3.30667 34.2304 3.29 34.287 3.29H34.737V5.035H36.202V5.68H34.737V8.72C34.737 8.93333 34.7887 9.09167 34.892 9.195C34.9954 9.29833 35.1287 9.35 35.292 9.35C35.3854 9.35 35.4654 9.33833 35.532 9.315C35.602 9.28833 35.662 9.26 35.712 9.23C35.762 9.2 35.8037 9.17333 35.837 9.15C35.8737 9.12333 35.9054 9.11 35.932 9.11C35.9787 9.11 36.0204 9.13833 36.057 9.195L36.317 9.62C36.1637 9.76333 35.9787 9.87667 35.762 9.96C35.5454 10.04 35.322 10.08 35.092 10.08ZM39.866 7.72C39.456 7.73333 39.106 7.76667 38.816 7.82C38.5293 7.87 38.2943 7.93667 38.111 8.02C37.931 8.10333 37.7993 8.20167 37.716 8.315C37.636 8.42833 37.596 8.555 37.596 8.695C37.596 8.82833 37.6177 8.94333 37.661 9.04C37.7043 9.13667 37.7627 9.21667 37.836 9.28C37.9127 9.34 38.001 9.385 38.101 9.415C38.2043 9.44167 38.3143 9.455 38.431 9.455C38.5877 9.455 38.731 9.44 38.861 9.41C38.991 9.37667 39.1127 9.33 39.226 9.27C39.3427 9.21 39.4527 9.13833 39.556 9.055C39.6627 8.97167 39.766 8.87667 39.866 8.77V7.72ZM36.991 5.65C37.271 5.38 37.5727 5.17833 37.896 5.045C38.2193 4.91167 38.5777 4.845 38.971 4.845C39.2543 4.845 39.506 4.89167 39.726 4.985C39.946 5.07833 40.131 5.20833 40.281 5.375C40.431 5.54167 40.5443 5.74333 40.621 5.98C40.6977 6.21667 40.736 6.47667 40.736 6.76V10H40.341C40.2543 10 40.1877 9.98667 40.141 9.96C40.0943 9.93 40.0577 9.87333 40.031 9.79L39.931 9.31C39.7977 9.43333 39.6677 9.54333 39.541 9.64C39.4143 9.73333 39.281 9.81333 39.141 9.88C39.001 9.94333 38.851 9.99167 38.691 10.025C38.5343 10.0617 38.3593 10.08 38.166 10.08C37.9693 10.08 37.7843 10.0533 37.611 10C37.4377 9.94333 37.286 9.86 37.156 9.75C37.0293 9.64 36.9277 9.50167 36.851 9.335C36.7777 9.165 36.741 8.965 36.741 8.735C36.741 8.535 36.796 8.34333 36.906 8.16C37.016 7.97333 37.1943 7.80833 37.441 7.665C37.6877 7.52167 38.0093 7.405 38.406 7.315C38.8027 7.22167 39.2893 7.16833 39.866 7.155V6.76C39.866 6.36667 39.781 6.07 39.611 5.87C39.441 5.66667 39.1927 5.565 38.866 5.565C38.646 5.565 38.461 5.59333 38.311 5.65C38.1643 5.70333 38.036 5.765 37.926 5.835C37.8193 5.90167 37.726 5.96333 37.646 6.02C37.5693 6.07333 37.4927 6.1 37.416 6.1C37.356 6.1 37.3043 6.085 37.261 6.055C37.2177 6.02167 37.181 5.98167 37.151 5.935L36.991 5.65ZM42.9367 5.95C43.0967 5.60333 43.2934 5.33333 43.5267 5.14C43.7601 4.94333 44.0451 4.845 44.3817 4.845C44.4884 4.845 44.5901 4.85667 44.6867 4.88C44.7867 4.90333 44.8751 4.94 44.9517 4.99L44.8867 5.655C44.8667 5.73833 44.8167 5.78 44.7367 5.78C44.6901 5.78 44.6217 5.77 44.5317 5.75C44.4417 5.73 44.3401 5.72 44.2267 5.72C44.0667 5.72 43.9234 5.74333 43.7967 5.79C43.6734 5.83667 43.5617 5.90667 43.4617 6C43.3651 6.09 43.2767 6.20333 43.1967 6.34C43.1201 6.47333 43.0501 6.62667 42.9867 6.8V10H42.0917V4.935H42.6017C42.6984 4.935 42.7651 4.95333 42.8017 4.99C42.8384 5.02667 42.8634 5.09 42.8767 5.18L42.9367 5.95ZM47.2893 10.08C46.8893 10.08 46.581 9.96833 46.3643 9.745C46.151 9.52167 46.0443 9.2 46.0443 8.78V5.68H45.4343C45.381 5.68 45.336 5.665 45.2993 5.635C45.2626 5.60167 45.2443 5.55167 45.2443 5.485V5.13L46.0743 5.025L46.2793 3.46C46.2893 3.41 46.311 3.37 46.3443 3.34C46.381 3.30667 46.4276 3.29 46.4843 3.29H46.9343V5.035H48.3993V5.68H46.9343V8.72C46.9343 8.93333 46.986 9.09167 47.0893 9.195C47.1926 9.29833 47.326 9.35 47.4893 9.35C47.5826 9.35 47.6626 9.33833 47.7293 9.315C47.7993 9.28833 47.8593 9.26 47.9093 9.23C47.9593 9.2 48.001 9.17333 48.0343 9.15C48.071 9.12333 48.1026 9.11 48.1293 9.11C48.176 9.11 48.2176 9.13833 48.2543 9.195L48.5143 9.62C48.361 9.76333 48.176 9.87667 47.9593 9.96C47.7426 10.04 47.5193 10.08 47.2893 10.08ZM54.0119 4.855C54.3819 4.855 54.7152 4.91667 55.0119 5.04C55.3085 5.16333 55.5619 5.33833 55.7719 5.565C55.9819 5.79167 56.1419 6.06667 56.2519 6.39C56.3652 6.71 56.4219 7.06833 56.4219 7.465C56.4219 7.865 56.3652 8.225 56.2519 8.545C56.1419 8.865 55.9819 9.13833 55.7719 9.365C55.5619 9.59167 55.3085 9.76667 55.0119 9.89C54.7152 10.01 54.3819 10.07 54.0119 10.07C53.6385 10.07 53.3019 10.01 53.0019 9.89C52.7052 9.76667 52.4519 9.59167 52.2419 9.365C52.0319 9.13833 51.8702 8.865 51.7569 8.545C51.6469 8.225 51.5919 7.865 51.5919 7.465C51.5919 7.06833 51.6469 6.71 51.7569 6.39C51.8702 6.06667 52.0319 5.79167 52.2419 5.565C52.4519 5.33833 52.7052 5.16333 53.0019 5.04C53.3019 4.91667 53.6385 4.855 54.0119 4.855ZM54.0119 9.375C54.5119 9.375 54.8852 9.20833 55.1319 8.875C55.3785 8.53833 55.5019 8.07 55.5019 7.47C55.5019 6.86667 55.3785 6.39667 55.1319 6.06C54.8852 5.72333 54.5119 5.555 54.0119 5.555C53.7585 5.555 53.5369 5.59833 53.3469 5.685C53.1602 5.77167 53.0035 5.89667 52.8769 6.06C52.7535 6.22333 52.6602 6.425 52.5969 6.665C52.5369 6.90167 52.5069 7.17 52.5069 7.47C52.5069 8.07 52.6302 8.53833 52.8769 8.875C53.1269 9.20833 53.5052 9.375 54.0119 9.375ZM57.7733 10V5.695L57.2133 5.63C57.1433 5.61333 57.0849 5.58833 57.0383 5.555C56.9949 5.51833 56.9733 5.46667 56.9733 5.4V5.035H57.7733V4.545C57.7733 4.255 57.8133 3.99833 57.8933 3.775C57.9766 3.54833 58.0933 3.35833 58.2433 3.205C58.3966 3.04833 58.5799 2.93 58.7933 2.85C59.0066 2.77 59.2466 2.73 59.5133 2.73C59.7399 2.73 59.9483 2.76333 60.1383 2.83L60.1183 3.275C60.1116 3.355 60.0666 3.39833 59.9833 3.405C59.9033 3.41167 59.7949 3.415 59.6583 3.415C59.5049 3.415 59.3649 3.435 59.2383 3.475C59.1149 3.515 59.0083 3.58 58.9183 3.67C58.8283 3.76 58.7583 3.87833 58.7083 4.025C58.6616 4.17167 58.6383 4.35333 58.6383 4.57V5.035H60.0983V5.68H58.6683V10H57.7733ZM64.2422 2.635V10H63.3522V2.635H64.2422ZM66.6255 4.935V10H65.7355V4.935H66.6255ZM66.8155 3.345C66.8155 3.43167 66.7971 3.51333 66.7605 3.59C66.7271 3.66333 66.6805 3.73 66.6205 3.79C66.5638 3.84667 66.4955 3.89167 66.4155 3.925C66.3388 3.95833 66.2571 3.975 66.1705 3.975C66.0838 3.975 66.0021 3.95833 65.9255 3.925C65.8521 3.89167 65.7871 3.84667 65.7305 3.79C65.6738 3.73 65.6288 3.66333 65.5955 3.59C65.5621 3.51333 65.5455 3.43167 65.5455 3.345C65.5455 3.25833 65.5621 3.17667 65.5955 3.1C65.6288 3.02 65.6738 2.95167 65.7305 2.895C65.7871 2.835 65.8521 2.78833 65.9255 2.755C66.0021 2.72167 66.0838 2.705 66.1705 2.705C66.2571 2.705 66.3388 2.72167 66.4155 2.755C66.4955 2.78833 66.5638 2.835 66.6205 2.895C66.6805 2.95167 66.7271 3.02 66.7605 3.1C66.7971 3.17667 66.8155 3.25833 66.8155 3.345ZM71.0378 5.77C70.9978 5.84333 70.9361 5.88 70.8528 5.88C70.8028 5.88 70.7461 5.86167 70.6828 5.825C70.6195 5.78833 70.5411 5.74833 70.4478 5.705C70.3578 5.65833 70.2495 5.61667 70.1228 5.58C69.9961 5.54 69.8461 5.52 69.6728 5.52C69.5228 5.52 69.3878 5.54 69.2678 5.58C69.1478 5.61667 69.0445 5.66833 68.9578 5.735C68.8745 5.80167 68.8095 5.88 68.7628 5.97C68.7195 6.05667 68.6978 6.15167 68.6978 6.255C68.6978 6.385 68.7345 6.49333 68.8078 6.58C68.8845 6.66667 68.9845 6.74167 69.1078 6.805C69.2311 6.86833 69.3711 6.925 69.5278 6.975C69.6845 7.02167 69.8445 7.07333 70.0078 7.13C70.1745 7.18333 70.3361 7.24333 70.4928 7.31C70.6495 7.37667 70.7895 7.46 70.9128 7.56C71.0361 7.66 71.1345 7.78333 71.2078 7.93C71.2845 8.07333 71.3228 8.24667 71.3228 8.45C71.3228 8.68333 71.2811 8.9 71.1978 9.1C71.1145 9.29667 70.9911 9.46833 70.8278 9.615C70.6645 9.75833 70.4645 9.87167 70.2278 9.955C69.9911 10.0383 69.7178 10.08 69.4078 10.08C69.0545 10.08 68.7345 10.0233 68.4478 9.91C68.1611 9.79333 67.9178 9.645 67.7178 9.465L67.9278 9.125C67.9545 9.08167 67.9861 9.04833 68.0228 9.025C68.0595 9.00167 68.1061 8.99 68.1628 8.99C68.2228 8.99 68.2861 9.01333 68.3528 9.06C68.4195 9.10667 68.4995 9.15833 68.5928 9.215C68.6895 9.27167 68.8061 9.32333 68.9428 9.37C69.0795 9.41667 69.2495 9.44 69.4528 9.44C69.6261 9.44 69.7778 9.41833 69.9078 9.375C70.0378 9.32833 70.1461 9.26667 70.2328 9.19C70.3195 9.11333 70.3828 9.025 70.4228 8.925C70.4661 8.825 70.4878 8.71833 70.4878 8.605C70.4878 8.465 70.4495 8.35 70.3728 8.26C70.2995 8.16667 70.2011 8.08833 70.0778 8.025C69.9545 7.95833 69.8128 7.90167 69.6528 7.855C69.4961 7.805 69.3345 7.75333 69.1678 7.7C69.0045 7.64667 68.8428 7.58667 68.6828 7.52C68.5261 7.45 68.3861 7.36333 68.2628 7.26C68.1395 7.15667 68.0395 7.03 67.9628 6.88C67.8895 6.72667 67.8528 6.54167 67.8528 6.325C67.8528 6.13167 67.8928 5.94667 67.9728 5.77C68.0528 5.59 68.1695 5.43333 68.3228 5.3C68.4761 5.16333 68.6645 5.055 68.8878 4.975C69.1111 4.895 69.3661 4.855 69.6528 4.855C69.9861 4.855 70.2845 4.90833 70.5478 5.015C70.8145 5.11833 71.0445 5.26167 71.2378 5.445L71.0378 5.77ZM73.969 10.08C73.569 10.08 73.2607 9.96833 73.044 9.745C72.8307 9.52167 72.724 9.2 72.724 8.78V5.68H72.114C72.0607 5.68 72.0157 5.665 71.979 5.635C71.9423 5.60167 71.924 5.55167 71.924 5.485V5.13L72.754 5.025L72.959 3.46C72.969 3.41 72.9907 3.37 73.024 3.34C73.0607 3.30667 73.1073 3.29 73.164 3.29H73.614V5.035H75.079V5.68H73.614V8.72C73.614 8.93333 73.6657 9.09167 73.769 9.195C73.8723 9.29833 74.0057 9.35 74.169 9.35C74.2623 9.35 74.3423 9.33833 74.409 9.315C74.479 9.28833 74.539 9.26 74.589 9.23C74.639 9.2 74.6807 9.17333 74.714 9.15C74.7507 9.12333 74.7823 9.11 74.809 9.11C74.8557 9.11 74.8973 9.13833 74.934 9.195L75.194 9.62C75.0407 9.76333 74.8557 9.87667 74.639 9.96C74.4223 10.04 74.199 10.08 73.969 10.08ZM76.738 6.855C76.738 6.14167 76.6463 5.44833 76.463 4.775C76.283 4.10167 76.018 3.46167 75.668 2.855C75.6413 2.805 75.6246 2.76167 75.618 2.725C75.6113 2.685 75.613 2.65167 75.623 2.625C75.633 2.595 75.648 2.57 75.668 2.55C75.6913 2.52667 75.7163 2.50667 75.743 2.49L76.138 2.245C76.388 2.63167 76.5996 3.01333 76.773 3.39C76.9496 3.76667 77.0913 4.145 77.198 4.525C77.308 4.90167 77.388 5.28333 77.438 5.67C77.488 6.05667 77.513 6.45167 77.513 6.855C77.513 7.26167 77.488 7.65833 77.438 8.045C77.388 8.42833 77.308 8.81 77.198 9.19C77.0913 9.57 76.9496 9.94833 76.773 10.325C76.5996 10.7017 76.388 11.0817 76.138 11.465L75.743 11.225C75.7163 11.2083 75.6913 11.1883 75.668 11.165C75.648 11.145 75.633 11.12 75.623 11.09C75.613 11.0633 75.6113 11.03 75.618 10.99C75.6246 10.95 75.6413 10.905 75.668 10.855C76.018 10.2483 76.283 9.60833 76.463 8.935C76.6463 8.26167 76.738 7.56833 76.738 6.855Z" fill="#0B3AB5"/>
<path id="next pointer" d="M82.8673 73.67C82.9773 73.5467 83.0939 73.435 83.2173 73.335C83.3406 73.235 83.4706 73.15 83.6073 73.08C83.7473 73.0067 83.8939 72.9517 84.0473 72.915C84.2039 72.875 84.3723 72.855 84.5523 72.855C84.8289 72.855 85.0723 72.9017 85.2823 72.995C85.4956 73.085 85.6723 73.215 85.8123 73.385C85.9556 73.5517 86.0639 73.7533 86.1373 73.99C86.2106 74.2267 86.2473 74.4883 86.2473 74.775V78H85.3523V74.775C85.3523 74.3917 85.2639 74.095 85.0873 73.885C84.9139 73.6717 84.6489 73.565 84.2923 73.565C84.0289 73.565 83.7823 73.6283 83.5523 73.755C83.3256 73.8817 83.1156 74.0533 82.9223 74.27V78H82.0273V72.935H82.5623C82.6889 72.935 82.7673 72.9967 82.7973 73.12L82.8673 73.67ZM90.9934 74.915C90.9934 74.7083 90.9634 74.52 90.9034 74.35C90.8468 74.1767 90.7618 74.0283 90.6484 73.905C90.5384 73.7783 90.4034 73.6817 90.2434 73.615C90.0834 73.545 89.9018 73.51 89.6984 73.51C89.2718 73.51 88.9334 73.635 88.6834 73.885C88.4368 74.1317 88.2834 74.475 88.2234 74.915H90.9934ZM91.7134 77.29C91.6034 77.4233 91.4718 77.54 91.3184 77.64C91.1651 77.7367 91.0001 77.8167 90.8234 77.88C90.6501 77.9433 90.4701 77.99 90.2834 78.02C90.0968 78.0533 89.9118 78.07 89.7284 78.07C89.3784 78.07 89.0551 78.0117 88.7584 77.895C88.4651 77.775 88.2101 77.6017 87.9934 77.375C87.7801 77.145 87.6134 76.8617 87.4934 76.525C87.3734 76.1883 87.3134 75.8017 87.3134 75.365C87.3134 75.0117 87.3668 74.6817 87.4734 74.375C87.5834 74.0683 87.7401 73.8033 87.9434 73.58C88.1468 73.3533 88.3951 73.1767 88.6884 73.05C88.9818 72.92 89.3118 72.855 89.6784 72.855C89.9818 72.855 90.2618 72.9067 90.5184 73.01C90.7784 73.11 91.0018 73.2567 91.1884 73.45C91.3784 73.64 91.5268 73.8767 91.6334 74.16C91.7401 74.44 91.7934 74.76 91.7934 75.12C91.7934 75.26 91.7784 75.3533 91.7484 75.4C91.7184 75.4467 91.6618 75.47 91.5784 75.47H88.1934C88.2034 75.79 88.2468 76.0683 88.3234 76.305C88.4034 76.5417 88.5134 76.74 88.6534 76.9C88.7934 77.0567 88.9601 77.175 89.1534 77.255C89.3468 77.3317 89.5634 77.37 89.8034 77.37C90.0268 77.37 90.2184 77.345 90.3784 77.295C90.5418 77.2417 90.6818 77.185 90.7984 77.125C90.9151 77.065 91.0118 77.01 91.0884 76.96C91.1684 76.9067 91.2368 76.88 91.2934 76.88C91.3668 76.88 91.4234 76.9083 91.4634 76.965L91.7134 77.29ZM96.9783 78H96.1233C96.0499 78 95.9916 77.9817 95.9483 77.945C95.9083 77.905 95.8749 77.8617 95.8483 77.815L94.5733 75.83C94.5599 75.8767 94.5449 75.9233 94.5283 75.97C94.5149 76.0133 94.4949 76.0533 94.4683 76.09L93.2883 77.815C93.2549 77.8617 93.2183 77.905 93.1783 77.945C93.1416 77.9817 93.0899 78 93.0233 78H92.2283L94.0033 75.4L92.2983 72.935H93.1533C93.2266 72.935 93.2799 72.9467 93.3133 72.97C93.3466 72.9933 93.3766 73.0267 93.4033 73.07L94.6483 74.97C94.6749 74.8733 94.7166 74.78 94.7733 74.69L95.8633 73.09C95.8933 73.0433 95.9249 73.0067 95.9583 72.98C95.9949 72.95 96.0383 72.935 96.0883 72.935H96.9083L95.2033 75.355L96.9783 78ZM99.3538 78.08C98.9538 78.08 98.6454 77.9683 98.4288 77.745C98.2154 77.5217 98.1088 77.2 98.1088 76.78V73.68H97.4988C97.4454 73.68 97.4004 73.665 97.3638 73.635C97.3271 73.6017 97.3088 73.5517 97.3088 73.485V73.13L98.1388 73.025L98.3438 71.46C98.3538 71.41 98.3754 71.37 98.4088 71.34C98.4454 71.3067 98.4921 71.29 98.5488 71.29H98.9988V73.035H100.464V73.68H98.9988V76.72C98.9988 76.9333 99.0504 77.0917 99.1538 77.195C99.2571 77.2983 99.3904 77.35 99.5538 77.35C99.6471 77.35 99.7271 77.3383 99.7938 77.315C99.8638 77.2883 99.9238 77.26 99.9738 77.23C100.024 77.2 100.065 77.1733 100.099 77.15C100.135 77.1233 100.167 77.11 100.194 77.11C100.24 77.11 100.282 77.1383 100.319 77.195L100.579 77.62C100.425 77.7633 100.24 77.8767 100.024 77.96C99.8071 78.04 99.5838 78.08 99.3538 78.08ZM76.765 88.78C76.9284 89 77.1067 89.155 77.3 89.245C77.4934 89.335 77.71 89.38 77.95 89.38C78.4234 89.38 78.7867 89.2117 79.04 88.875C79.2934 88.5383 79.42 88.0583 79.42 87.435C79.42 87.105 79.39 86.8217 79.33 86.585C79.2734 86.3483 79.19 86.155 79.08 86.005C78.97 85.8517 78.835 85.74 78.675 85.67C78.515 85.6 78.3334 85.565 78.13 85.565C77.84 85.565 77.585 85.6317 77.365 85.765C77.1484 85.8983 76.9484 86.0867 76.765 86.33V88.78ZM76.72 85.72C76.9334 85.4567 77.18 85.245 77.46 85.085C77.74 84.925 78.06 84.845 78.42 84.845C78.7134 84.845 78.9784 84.9017 79.215 85.015C79.4517 85.125 79.6534 85.29 79.82 85.51C79.9867 85.7267 80.115 85.9967 80.205 86.32C80.295 86.6433 80.34 87.015 80.34 87.435C80.34 87.8083 80.29 88.1567 80.19 88.48C80.09 88.8 79.945 89.0783 79.755 89.315C79.5684 89.5483 79.3384 89.7333 79.065 89.87C78.795 90.0033 78.49 90.07 78.15 90.07C77.84 90.07 77.5734 90.0183 77.35 89.915C77.13 89.8083 76.935 89.6617 76.765 89.475V91.715H75.87V84.935H76.405C76.5317 84.935 76.61 84.9967 76.64 85.12L76.72 85.72ZM83.6105 84.855C83.9805 84.855 84.3138 84.9167 84.6105 85.04C84.9072 85.1633 85.1605 85.3383 85.3705 85.565C85.5805 85.7917 85.7405 86.0667 85.8505 86.39C85.9638 86.71 86.0205 87.0683 86.0205 87.465C86.0205 87.865 85.9638 88.225 85.8505 88.545C85.7405 88.865 85.5805 89.1383 85.3705 89.365C85.1605 89.5917 84.9072 89.7667 84.6105 89.89C84.3138 90.01 83.9805 90.07 83.6105 90.07C83.2372 90.07 82.9005 90.01 82.6005 89.89C82.3038 89.7667 82.0505 89.5917 81.8405 89.365C81.6305 89.1383 81.4688 88.865 81.3555 88.545C81.2455 88.225 81.1905 87.865 81.1905 87.465C81.1905 87.0683 81.2455 86.71 81.3555 86.39C81.4688 86.0667 81.6305 85.7917 81.8405 85.565C82.0505 85.3383 82.3038 85.1633 82.6005 85.04C82.9005 84.9167 83.2372 84.855 83.6105 84.855ZM83.6105 89.375C84.1105 89.375 84.4838 89.2083 84.7305 88.875C84.9772 88.5383 85.1005 88.07 85.1005 87.47C85.1005 86.8667 84.9772 86.3967 84.7305 86.06C84.4838 85.7233 84.1105 85.555 83.6105 85.555C83.3572 85.555 83.1355 85.5983 82.9455 85.685C82.7588 85.7717 82.6022 85.8967 82.4755 86.06C82.3522 86.2233 82.2588 86.425 82.1955 86.665C82.1355 86.9017 82.1055 87.17 82.1055 87.47C82.1055 88.07 82.2288 88.5383 82.4755 88.875C82.7255 89.2083 83.1038 89.375 83.6105 89.375ZM88.0893 84.935V90H87.1993V84.935H88.0893ZM88.2793 83.345C88.2793 83.4317 88.261 83.5133 88.2243 83.59C88.191 83.6633 88.1443 83.73 88.0843 83.79C88.0277 83.8467 87.9593 83.8917 87.8793 83.925C87.8027 83.9583 87.721 83.975 87.6343 83.975C87.5477 83.975 87.466 83.9583 87.3893 83.925C87.316 83.8917 87.251 83.8467 87.1943 83.79C87.1377 83.73 87.0927 83.6633 87.0593 83.59C87.026 83.5133 87.0093 83.4317 87.0093 83.345C87.0093 83.2583 87.026 83.1767 87.0593 83.1C87.0927 83.02 87.1377 82.9517 87.1943 82.895C87.251 82.835 87.316 82.7883 87.3893 82.755C87.466 82.7217 87.5477 82.705 87.6343 82.705C87.721 82.705 87.8027 82.7217 87.8793 82.755C87.9593 82.7883 88.0277 82.835 88.0843 82.895C88.1443 82.9517 88.191 83.02 88.2243 83.1C88.261 83.1767 88.2793 83.2583 88.2793 83.345ZM90.3917 85.67C90.5017 85.5467 90.6183 85.435 90.7417 85.335C90.865 85.235 90.995 85.15 91.1317 85.08C91.2717 85.0067 91.4183 84.9517 91.5717 84.915C91.7283 84.875 91.8967 84.855 92.0767 84.855C92.3533 84.855 92.5967 84.9017 92.8067 84.995C93.02 85.085 93.1967 85.215 93.3367 85.385C93.48 85.5517 93.5883 85.7533 93.6617 85.99C93.735 86.2267 93.7717 86.4883 93.7717 86.775V90H92.8767V86.775C92.8767 86.3917 92.7883 86.095 92.6117 85.885C92.4383 85.6717 92.1733 85.565 91.8167 85.565C91.5533 85.565 91.3067 85.6283 91.0767 85.755C90.85 85.8817 90.64 86.0533 90.4467 86.27V90H89.5517V84.935H90.0867C90.2133 84.935 90.2917 84.9967 90.3217 85.12L90.3917 85.67ZM96.6145 90.08C96.2145 90.08 95.9062 89.9683 95.6895 89.745C95.4762 89.5217 95.3695 89.2 95.3695 88.78V85.68H94.7595C94.7062 85.68 94.6612 85.665 94.6245 85.635C94.5878 85.6017 94.5695 85.5517 94.5695 85.485V85.13L95.3995 85.025L95.6045 83.46C95.6145 83.41 95.6362 83.37 95.6695 83.34C95.7062 83.3067 95.7528 83.29 95.8095 83.29H96.2595V85.035H97.7245V85.68H96.2595V88.72C96.2595 88.9333 96.3112 89.0917 96.4145 89.195C96.5178 89.2983 96.6512 89.35 96.8145 89.35C96.9078 89.35 96.9878 89.3383 97.0545 89.315C97.1245 89.2883 97.1845 89.26 97.2345 89.23C97.2845 89.2 97.3262 89.1733 97.3595 89.15C97.3962 89.1233 97.4278 89.11 97.4545 89.11C97.5012 89.11 97.5428 89.1383 97.5795 89.195L97.8395 89.62C97.6862 89.7633 97.5012 89.8767 97.2845 89.96C97.0678 90.04 96.8445 90.08 96.6145 90.08ZM102.004 86.915C102.004 86.7083 101.974 86.52 101.914 86.35C101.858 86.1767 101.773 86.0283 101.659 85.905C101.549 85.7783 101.414 85.6817 101.254 85.615C101.094 85.545 100.913 85.51 100.709 85.51C100.283 85.51 99.9442 85.635 99.6942 85.885C99.4475 86.1317 99.2942 86.475 99.2342 86.915H102.004ZM102.724 89.29C102.614 89.4233 102.483 89.54 102.329 89.64C102.176 89.7367 102.011 89.8167 101.834 89.88C101.661 89.9433 101.481 89.99 101.294 90.02C101.108 90.0533 100.923 90.07 100.739 90.07C100.389 90.07 100.066 90.0117 99.7692 89.895C99.4758 89.775 99.2208 89.6017 99.0042 89.375C98.7908 89.145 98.6242 88.8617 98.5042 88.525C98.3842 88.1883 98.3242 87.8017 98.3242 87.365C98.3242 87.0117 98.3775 86.6817 98.4842 86.375C98.5942 86.0683 98.7508 85.8033 98.9542 85.58C99.1575 85.3533 99.4058 85.1767 99.6992 85.05C99.9925 84.92 100.323 84.855 100.689 84.855C100.993 84.855 101.273 84.9067 101.529 85.01C101.789 85.11 102.013 85.2567 102.199 85.45C102.389 85.64 102.538 85.8767 102.644 86.16C102.751 86.44 102.804 86.76 102.804 87.12C102.804 87.26 102.789 87.3533 102.759 87.4C102.729 87.4467 102.673 87.47 102.589 87.47H99.2042C99.2142 87.79 99.2575 88.0683 99.3342 88.305C99.4142 88.5417 99.5242 88.74 99.6642 88.9C99.8042 89.0567 99.9708 89.175 100.164 89.255C100.358 89.3317 100.574 89.37 100.814 89.37C101.038 89.37 101.229 89.345 101.389 89.295C101.553 89.2417 101.693 89.185 101.809 89.125C101.926 89.065 102.023 89.01 102.099 88.96C102.179 88.9067 102.248 88.88 102.304 88.88C102.378 88.88 102.434 88.9083 102.474 88.965L102.724 89.29ZM104.742 85.95C104.902 85.6033 105.099 85.3333 105.332 85.14C105.566 84.9433 105.851 84.845 106.187 84.845C106.294 84.845 106.396 84.8567 106.492 84.88C106.592 84.9033 106.681 84.94 106.757 84.99L106.692 85.655C106.672 85.7383 106.622 85.78 106.542 85.78C106.496 85.78 106.427 85.77 106.337 85.75C106.247 85.73 106.146 85.72 106.032 85.72C105.872 85.72 105.729 85.7433 105.602 85.79C105.479 85.8367 105.367 85.9067 105.267 86C105.171 86.09 105.082 86.2033 105.002 86.34C104.926 86.4733 104.856 86.6267 104.792 86.8V90H103.897V84.935H104.407C104.504 84.935 104.571 84.9533 104.607 84.99C104.644 85.0267 104.669 85.09 104.682 85.18L104.742 85.95Z" fill="#D90D0D"/>
<path id="Arrow 7" d="M93.3536 44.6464C93.1583 44.4512 92.8417 44.4512 92.6464 44.6464L89.4645 47.8284C89.2692 48.0237 89.2692 48.3403 89.4645 48.5355C89.6597 48.7308 89.9763 48.7308 90.1716 48.5355L93 45.7071L95.8284 48.5355C96.0237 48.7308 96.3403 48.7308 96.5355 48.5355C96.7308 48.3403 96.7308 48.0237 96.5355 47.8284L93.3536 44.6464ZM93.5 68L93.5 45L92.5 45L92.5 68L93.5 68Z" fill="#D90D0D"/>
<path id="next pointer_2" d="M146.367 72.67C146.477 72.5467 146.594 72.435 146.717 72.335C146.841 72.235 146.971 72.15 147.107 72.08C147.247 72.0067 147.394 71.9517 147.547 71.915C147.704 71.875 147.872 71.855 148.052 71.855C148.329 71.855 148.572 71.9017 148.782 71.995C148.996 72.085 149.172 72.215 149.312 72.385C149.456 72.5517 149.564 72.7533 149.637 72.99C149.711 73.2267 149.747 73.4883 149.747 73.775V77H148.852V73.775C148.852 73.3917 148.764 73.095 148.587 72.885C148.414 72.6717 148.149 72.565 147.792 72.565C147.529 72.565 147.282 72.6283 147.052 72.755C146.826 72.8817 146.616 73.0533 146.422 73.27V77H145.527V71.935H146.062C146.189 71.935 146.267 71.9967 146.297 72.12L146.367 72.67ZM154.493 73.915C154.493 73.7083 154.463 73.52 154.403 73.35C154.347 73.1767 154.262 73.0283 154.148 72.905C154.038 72.7783 153.903 72.6817 153.743 72.615C153.583 72.545 153.402 72.51 153.198 72.51C152.772 72.51 152.433 72.635 152.183 72.885C151.937 73.1317 151.783 73.475 151.723 73.915H154.493ZM155.213 76.29C155.103 76.4233 154.972 76.54 154.818 76.64C154.665 76.7367 154.5 76.8167 154.323 76.88C154.15 76.9433 153.97 76.99 153.783 77.02C153.597 77.0533 153.412 77.07 153.228 77.07C152.878 77.07 152.555 77.0117 152.258 76.895C151.965 76.775 151.71 76.6017 151.493 76.375C151.28 76.145 151.113 75.8617 150.993 75.525C150.873 75.1883 150.813 74.8017 150.813 74.365C150.813 74.0117 150.867 73.6817 150.973 73.375C151.083 73.0683 151.24 72.8033 151.443 72.58C151.647 72.3533 151.895 72.1767 152.188 72.05C152.482 71.92 152.812 71.855 153.178 71.855C153.482 71.855 153.762 71.9067 154.018 72.01C154.278 72.11 154.502 72.2567 154.688 72.45C154.878 72.64 155.027 72.8767 155.133 73.16C155.24 73.44 155.293 73.76 155.293 74.12C155.293 74.26 155.278 74.3533 155.248 74.4C155.218 74.4467 155.162 74.47 155.078 74.47H151.693C151.703 74.79 151.747 75.0683 151.823 75.305C151.903 75.5417 152.013 75.74 152.153 75.9C152.293 76.0567 152.46 76.175 152.653 76.255C152.847 76.3317 153.063 76.37 153.303 76.37C153.527 76.37 153.718 76.345 153.878 76.295C154.042 76.2417 154.182 76.185 154.298 76.125C154.415 76.065 154.512 76.01 154.588 75.96C154.668 75.9067 154.737 75.88 154.793 75.88C154.867 75.88 154.923 75.9083 154.963 75.965L155.213 76.29ZM160.478 77H159.623C159.55 77 159.492 76.9817 159.448 76.945C159.408 76.905 159.375 76.8617 159.348 76.815L158.073 74.83C158.06 74.8767 158.045 74.9233 158.028 74.97C158.015 75.0133 157.995 75.0533 157.968 75.09L156.788 76.815C156.755 76.8617 156.718 76.905 156.678 76.945C156.642 76.9817 156.59 77 156.523 77H155.728L157.503 74.4L155.798 71.935H156.653C156.727 71.935 156.78 71.9467 156.813 71.97C156.847 71.9933 156.877 72.0267 156.903 72.07L158.148 73.97C158.175 73.8733 158.217 73.78 158.273 73.69L159.363 72.09C159.393 72.0433 159.425 72.0067 159.458 71.98C159.495 71.95 159.538 71.935 159.588 71.935H160.408L158.703 74.355L160.478 77ZM162.854 77.08C162.454 77.08 162.145 76.9683 161.929 76.745C161.715 76.5217 161.609 76.2 161.609 75.78V72.68H160.999C160.945 72.68 160.9 72.665 160.864 72.635C160.827 72.6017 160.809 72.5517 160.809 72.485V72.13L161.639 72.025L161.844 70.46C161.854 70.41 161.875 70.37 161.909 70.34C161.945 70.3067 161.992 70.29 162.049 70.29H162.499V72.035H163.964V72.68H162.499V75.72C162.499 75.9333 162.55 76.0917 162.654 76.195C162.757 76.2983 162.89 76.35 163.054 76.35C163.147 76.35 163.227 76.3383 163.294 76.315C163.364 76.2883 163.424 76.26 163.474 76.23C163.524 76.2 163.565 76.1733 163.599 76.15C163.635 76.1233 163.667 76.11 163.694 76.11C163.74 76.11 163.782 76.1383 163.819 76.195L164.079 76.62C163.925 76.7633 163.74 76.8767 163.524 76.96C163.307 77.04 163.084 77.08 162.854 77.08ZM140.265 87.78C140.428 88 140.607 88.155 140.8 88.245C140.993 88.335 141.21 88.38 141.45 88.38C141.923 88.38 142.287 88.2117 142.54 87.875C142.793 87.5383 142.92 87.0583 142.92 86.435C142.92 86.105 142.89 85.8217 142.83 85.585C142.773 85.3483 142.69 85.155 142.58 85.005C142.47 84.8517 142.335 84.74 142.175 84.67C142.015 84.6 141.833 84.565 141.63 84.565C141.34 84.565 141.085 84.6317 140.865 84.765C140.648 84.8983 140.448 85.0867 140.265 85.33V87.78ZM140.22 84.72C140.433 84.4567 140.68 84.245 140.96 84.085C141.24 83.925 141.56 83.845 141.92 83.845C142.213 83.845 142.478 83.9017 142.715 84.015C142.952 84.125 143.153 84.29 143.32 84.51C143.487 84.7267 143.615 84.9967 143.705 85.32C143.795 85.6433 143.84 86.015 143.84 86.435C143.84 86.8083 143.79 87.1567 143.69 87.48C143.59 87.8 143.445 88.0783 143.255 88.315C143.068 88.5483 142.838 88.7333 142.565 88.87C142.295 89.0033 141.99 89.07 141.65 89.07C141.34 89.07 141.073 89.0183 140.85 88.915C140.63 88.8083 140.435 88.6617 140.265 88.475V90.715H139.37V83.935H139.905C140.032 83.935 140.11 83.9967 140.14 84.12L140.22 84.72ZM147.111 83.855C147.481 83.855 147.814 83.9167 148.111 84.04C148.407 84.1633 148.661 84.3383 148.871 84.565C149.081 84.7917 149.241 85.0667 149.351 85.39C149.464 85.71 149.521 86.0683 149.521 86.465C149.521 86.865 149.464 87.225 149.351 87.545C149.241 87.865 149.081 88.1383 148.871 88.365C148.661 88.5917 148.407 88.7667 148.111 88.89C147.814 89.01 147.481 89.07 147.111 89.07C146.737 89.07 146.401 89.01 146.101 88.89C145.804 88.7667 145.551 88.5917 145.341 88.365C145.131 88.1383 144.969 87.865 144.856 87.545C144.746 87.225 144.691 86.865 144.691 86.465C144.691 86.0683 144.746 85.71 144.856 85.39C144.969 85.0667 145.131 84.7917 145.341 84.565C145.551 84.3383 145.804 84.1633 146.101 84.04C146.401 83.9167 146.737 83.855 147.111 83.855ZM147.111 88.375C147.611 88.375 147.984 88.2083 148.231 87.875C148.477 87.5383 148.601 87.07 148.601 86.47C148.601 85.8667 148.477 85.3967 148.231 85.06C147.984 84.7233 147.611 84.555 147.111 84.555C146.857 84.555 146.636 84.5983 146.446 84.685C146.259 84.7717 146.102 84.8967 145.976 85.06C145.852 85.2233 145.759 85.425 145.696 85.665C145.636 85.9017 145.606 86.17 145.606 86.47C145.606 87.07 145.729 87.5383 145.976 87.875C146.226 88.2083 146.604 88.375 147.111 88.375ZM151.589 83.935V89H150.699V83.935H151.589ZM151.779 82.345C151.779 82.4317 151.761 82.5133 151.724 82.59C151.691 82.6633 151.644 82.73 151.584 82.79C151.528 82.8467 151.459 82.8917 151.379 82.925C151.303 82.9583 151.221 82.975 151.134 82.975C151.048 82.975 150.966 82.9583 150.889 82.925C150.816 82.8917 150.751 82.8467 150.694 82.79C150.638 82.73 150.593 82.6633 150.559 82.59C150.526 82.5133 150.509 82.4317 150.509 82.345C150.509 82.2583 150.526 82.1767 150.559 82.1C150.593 82.02 150.638 81.9517 150.694 81.895C150.751 81.835 150.816 81.7883 150.889 81.755C150.966 81.7217 151.048 81.705 151.134 81.705C151.221 81.705 151.303 81.7217 151.379 81.755C151.459 81.7883 151.528 81.835 151.584 81.895C151.644 81.9517 151.691 82.02 151.724 82.1C151.761 82.1767 151.779 82.2583 151.779 82.345ZM153.892 84.67C154.002 84.5467 154.118 84.435 154.242 84.335C154.365 84.235 154.495 84.15 154.632 84.08C154.772 84.0067 154.918 83.9517 155.072 83.915C155.228 83.875 155.397 83.855 155.577 83.855C155.853 83.855 156.097 83.9017 156.307 83.995C156.52 84.085 156.697 84.215 156.837 84.385C156.98 84.5517 157.088 84.7533 157.162 84.99C157.235 85.2267 157.272 85.4883 157.272 85.775V89H156.377V85.775C156.377 85.3917 156.288 85.095 156.112 84.885C155.938 84.6717 155.673 84.565 155.317 84.565C155.053 84.565 154.807 84.6283 154.577 84.755C154.35 84.8817 154.14 85.0533 153.947 85.27V89H153.052V83.935H153.587C153.713 83.935 153.792 83.9967 153.822 84.12L153.892 84.67ZM160.114 89.08C159.714 89.08 159.406 88.9683 159.189 88.745C158.976 88.5217 158.869 88.2 158.869 87.78V84.68H158.259C158.206 84.68 158.161 84.665 158.124 84.635C158.088 84.6017 158.069 84.5517 158.069 84.485V84.13L158.899 84.025L159.104 82.46C159.114 82.41 159.136 82.37 159.169 82.34C159.206 82.3067 159.253 82.29 159.309 82.29H159.759V84.035H161.224V84.68H159.759V87.72C159.759 87.9333 159.811 88.0917 159.914 88.195C160.018 88.2983 160.151 88.35 160.314 88.35C160.408 88.35 160.488 88.3383 160.554 88.315C160.624 88.2883 160.684 88.26 160.734 88.23C160.784 88.2 160.826 88.1733 160.859 88.15C160.896 88.1233 160.928 88.11 160.954 88.11C161.001 88.11 161.043 88.1383 161.079 88.195L161.339 88.62C161.186 88.7633 161.001 88.8767 160.784 88.96C160.568 89.04 160.344 89.08 160.114 89.08ZM165.504 85.915C165.504 85.7083 165.474 85.52 165.414 85.35C165.358 85.1767 165.273 85.0283 165.159 84.905C165.049 84.7783 164.914 84.6817 164.754 84.615C164.594 84.545 164.413 84.51 164.209 84.51C163.783 84.51 163.444 84.635 163.194 84.885C162.948 85.1317 162.794 85.475 162.734 85.915H165.504ZM166.224 88.29C166.114 88.4233 165.983 88.54 165.829 88.64C165.676 88.7367 165.511 88.8167 165.334 88.88C165.161 88.9433 164.981 88.99 164.794 89.02C164.608 89.0533 164.423 89.07 164.239 89.07C163.889 89.07 163.566 89.0117 163.269 88.895C162.976 88.775 162.721 88.6017 162.504 88.375C162.291 88.145 162.124 87.8617 162.004 87.525C161.884 87.1883 161.824 86.8017 161.824 86.365C161.824 86.0117 161.878 85.6817 161.984 85.375C162.094 85.0683 162.251 84.8033 162.454 84.58C162.658 84.3533 162.906 84.1767 163.199 84.05C163.493 83.92 163.823 83.855 164.189 83.855C164.493 83.855 164.773 83.9067 165.029 84.01C165.289 84.11 165.513 84.2567 165.699 84.45C165.889 84.64 166.038 84.8767 166.144 85.16C166.251 85.44 166.304 85.76 166.304 86.12C166.304 86.26 166.289 86.3533 166.259 86.4C166.229 86.4467 166.173 86.47 166.089 86.47H162.704C162.714 86.79 162.758 87.0683 162.834 87.305C162.914 87.5417 163.024 87.74 163.164 87.9C163.304 88.0567 163.471 88.175 163.664 88.255C163.858 88.3317 164.074 88.37 164.314 88.37C164.538 88.37 164.729 88.345 164.889 88.295C165.053 88.2417 165.193 88.185 165.309 88.125C165.426 88.065 165.523 88.01 165.599 87.96C165.679 87.9067 165.748 87.88 165.804 87.88C165.878 87.88 165.934 87.9083 165.974 87.965L166.224 88.29ZM168.242 84.95C168.402 84.6033 168.599 84.3333 168.832 84.14C169.066 83.9433 169.351 83.845 169.687 83.845C169.794 83.845 169.896 83.8567 169.992 83.88C170.092 83.9033 170.181 83.94 170.257 83.99L170.192 84.655C170.172 84.7383 170.122 84.78 170.042 84.78C169.996 84.78 169.927 84.77 169.837 84.75C169.747 84.73 169.646 84.72 169.532 84.72C169.372 84.72 169.229 84.7433 169.102 84.79C168.979 84.8367 168.867 84.9067 168.767 85C168.671 85.09 168.582 85.2033 168.502 85.34C168.426 85.4733 168.356 85.6267 168.292 85.8V89H167.397V83.935H167.907C168.004 83.935 168.071 83.9533 168.107 83.99C168.144 84.0267 168.169 84.09 168.182 84.18L168.242 84.95Z" fill="#D90D0D"/>
<path id="Arrow 8" d="M154.354 43.6464C154.158 43.4512 153.842 43.4512 153.646 43.6464L150.464 46.8284C150.269 47.0237 150.269 47.3403 150.464 47.5355C150.66 47.7308 150.976 47.7308 151.172 47.5355L154 44.7071L156.828 47.5355C157.024 47.7308 157.34 47.7308 157.536 47.5355C157.731 47.3403 157.731 47.0237 157.536 46.8284L154.354 43.6464ZM154.5 67L154.5 44L153.5 44L153.5 67L154.5 67Z" fill="#D90D0D"/>
<path id="null" d="M232.606 40.67C232.716 40.5467 232.832 40.435 232.956 40.335C233.079 40.235 233.209 40.15 233.346 40.08C233.486 40.0067 233.632 39.9517 233.786 39.915C233.942 39.875 234.111 39.855 234.291 39.855C234.567 39.855 234.811 39.9017 235.021 39.995C235.234 40.085 235.411 40.215 235.551 40.385C235.694 40.5517 235.802 40.7533 235.876 40.99C235.949 41.2267 235.986 41.4883 235.986 41.775V45H235.091V41.775C235.091 41.3917 235.002 41.095 234.826 40.885C234.652 40.6717 234.387 40.565 234.031 40.565C233.767 40.565 233.521 40.6283 233.291 40.755C233.064 40.8817 232.854 41.0533 232.661 41.27V45H231.766V39.935H232.301C232.427 39.935 232.506 39.9967 232.536 40.12L232.606 40.67ZM241.507 39.935V45H240.977C240.85 45 240.77 44.9383 240.737 44.815L240.667 44.27C240.447 44.5133 240.2 44.71 239.927 44.86C239.653 45.0067 239.34 45.08 238.987 45.08C238.71 45.08 238.465 45.035 238.252 44.945C238.042 44.8517 237.865 44.7217 237.722 44.555C237.578 44.3883 237.47 44.1867 237.397 43.95C237.327 43.7133 237.292 43.4517 237.292 43.165V39.935H238.182V43.165C238.182 43.5483 238.268 43.845 238.442 44.055C238.618 44.265 238.887 44.37 239.247 44.37C239.51 44.37 239.755 44.3083 239.982 44.185C240.212 44.0583 240.423 43.885 240.617 43.665V39.935H241.507ZM243.838 37.635V45H242.948V37.635H243.838ZM246.201 37.635V45H245.311V37.635H246.201Z" fill="black"/>
<path id="Arrow 6_2" d="M193.5 25C193.5 25.2761 193.724 25.5 194 25.5L198.5 25.5C198.776 25.5 199 25.2761 199 25C199 24.7238 198.776 24.5 198.5 24.5L194.5 24.5L194.5 20.5C194.5 20.2238 194.276 20 194 20C193.724 20 193.5 20.2238 193.5 20.5L193.5 25ZM205.646 12.6464L193.646 24.6464L194.354 25.3535L206.354 13.3535L205.646 12.6464Z" fill="#0B3AB5"/>
<path id="tail (end of list)" d="M181.239 10.08C180.839 10.08 180.53 9.96833 180.314 9.745C180.1 9.52167 179.994 9.2 179.994 8.78V5.68H179.384C179.33 5.68 179.285 5.665 179.249 5.635C179.212 5.60167 179.194 5.55167 179.194 5.485V5.13L180.024 5.025L180.229 3.46C180.239 3.41 180.26 3.37 180.294 3.34C180.33 3.30667 180.377 3.29 180.434 3.29H180.884V5.035H182.349V5.68H180.884V8.72C180.884 8.93333 180.935 9.09167 181.039 9.195C181.142 9.29833 181.275 9.35 181.439 9.35C181.532 9.35 181.612 9.33833 181.679 9.315C181.749 9.28833 181.809 9.26 181.859 9.23C181.909 9.2 181.95 9.17333 181.984 9.15C182.02 9.12333 182.052 9.11 182.079 9.11C182.125 9.11 182.167 9.13833 182.204 9.195L182.464 9.62C182.31 9.76333 182.125 9.87667 181.909 9.96C181.692 10.04 181.469 10.08 181.239 10.08ZM186.013 7.72C185.603 7.73333 185.253 7.76667 184.963 7.82C184.676 7.87 184.441 7.93667 184.258 8.02C184.078 8.10333 183.946 8.20167 183.863 8.315C183.783 8.42833 183.743 8.555 183.743 8.695C183.743 8.82833 183.764 8.94333 183.808 9.04C183.851 9.13667 183.909 9.21667 183.983 9.28C184.059 9.34 184.148 9.385 184.248 9.415C184.351 9.44167 184.461 9.455 184.578 9.455C184.734 9.455 184.878 9.44 185.008 9.41C185.138 9.37667 185.259 9.33 185.373 9.27C185.489 9.21 185.599 9.13833 185.703 9.055C185.809 8.97167 185.913 8.87667 186.013 8.77V7.72ZM183.138 5.65C183.418 5.38 183.719 5.17833 184.043 5.045C184.366 4.91167 184.724 4.845 185.118 4.845C185.401 4.845 185.653 4.89167 185.873 4.985C186.093 5.07833 186.278 5.20833 186.428 5.375C186.578 5.54167 186.691 5.74333 186.768 5.98C186.844 6.21667 186.883 6.47667 186.883 6.76V10H186.488C186.401 10 186.334 9.98667 186.288 9.96C186.241 9.93 186.204 9.87333 186.178 9.79L186.078 9.31C185.944 9.43333 185.814 9.54333 185.688 9.64C185.561 9.73333 185.428 9.81333 185.288 9.88C185.148 9.94333 184.998 9.99167 184.838 10.025C184.681 10.0617 184.506 10.08 184.313 10.08C184.116 10.08 183.931 10.0533 183.758 10C183.584 9.94333 183.433 9.86 183.303 9.75C183.176 9.64 183.074 9.50167 182.998 9.335C182.924 9.165 182.888 8.965 182.888 8.735C182.888 8.535 182.943 8.34333 183.053 8.16C183.163 7.97333 183.341 7.80833 183.588 7.665C183.834 7.52167 184.156 7.405 184.553 7.315C184.949 7.22167 185.436 7.16833 186.013 7.155V6.76C186.013 6.36667 185.928 6.07 185.758 5.87C185.588 5.66667 185.339 5.565 185.013 5.565C184.793 5.565 184.608 5.59333 184.458 5.65C184.311 5.70333 184.183 5.765 184.073 5.835C183.966 5.90167 183.873 5.96333 183.793 6.02C183.716 6.07333 183.639 6.1 183.563 6.1C183.503 6.1 183.451 6.085 183.408 6.055C183.364 6.02167 183.328 5.98167 183.297 5.935L183.138 5.65ZM189.178 4.935V10H188.288V4.935H189.178ZM189.368 3.345C189.368 3.43167 189.35 3.51333 189.313 3.59C189.28 3.66333 189.233 3.73 189.173 3.79C189.117 3.84667 189.048 3.89167 188.968 3.925C188.892 3.95833 188.81 3.975 188.723 3.975C188.637 3.975 188.555 3.95833 188.478 3.925C188.405 3.89167 188.34 3.84667 188.283 3.79C188.227 3.73 188.182 3.66333 188.148 3.59C188.115 3.51333 188.098 3.43167 188.098 3.345C188.098 3.25833 188.115 3.17667 188.148 3.1C188.182 3.02 188.227 2.95167 188.283 2.895C188.34 2.835 188.405 2.78833 188.478 2.755C188.555 2.72167 188.637 2.705 188.723 2.705C188.81 2.705 188.892 2.72167 188.968 2.755C189.048 2.78833 189.117 2.835 189.173 2.895C189.233 2.95167 189.28 3.02 189.313 3.1C189.35 3.17667 189.368 3.25833 189.368 3.345ZM191.561 2.635V10H190.671V2.635H191.561ZM196.082 6.855C196.082 7.56833 196.172 8.26167 196.352 8.935C196.536 9.60833 196.802 10.2483 197.152 10.855C197.206 10.9583 197.219 11.0367 197.192 11.09C197.166 11.1467 197.127 11.1917 197.077 11.225L196.682 11.465C196.432 11.0817 196.219 10.7017 196.042 10.325C195.869 9.94833 195.727 9.57 195.617 9.19C195.511 8.81 195.432 8.42833 195.382 8.045C195.332 7.65833 195.307 7.26167 195.307 6.855C195.307 6.45167 195.332 6.05667 195.382 5.67C195.432 5.28333 195.511 4.90167 195.617 4.525C195.727 4.145 195.869 3.76667 196.042 3.39C196.219 3.01333 196.432 2.63167 196.682 2.245L197.077 2.49C197.127 2.52333 197.166 2.56833 197.192 2.625C197.219 2.67833 197.206 2.755 197.152 2.855C196.802 3.46167 196.536 4.10167 196.352 4.775C196.172 5.44833 196.082 6.14167 196.082 6.855ZM201.316 6.915C201.316 6.70833 201.286 6.52 201.226 6.35C201.169 6.17667 201.084 6.02833 200.971 5.905C200.861 5.77833 200.726 5.68167 200.566 5.615C200.406 5.545 200.224 5.51 200.021 5.51C199.594 5.51 199.256 5.635 199.006 5.885C198.759 6.13167 198.606 6.475 198.546 6.915H201.316ZM202.036 9.29C201.926 9.42333 201.794 9.54 201.641 9.64C201.487 9.73667 201.322 9.81667 201.146 9.88C200.972 9.94333 200.792 9.99 200.606 10.02C200.419 10.0533 200.234 10.07 200.051 10.07C199.701 10.07 199.377 10.0117 199.081 9.895C198.787 9.775 198.532 9.60167 198.316 9.375C198.102 9.145 197.936 8.86167 197.816 8.525C197.696 8.18833 197.636 7.80167 197.636 7.365C197.636 7.01167 197.689 6.68167 197.796 6.375C197.906 6.06833 198.062 5.80333 198.266 5.58C198.469 5.35333 198.717 5.17667 199.011 5.05C199.304 4.92 199.634 4.855 200.001 4.855C200.304 4.855 200.584 4.90667 200.841 5.01C201.101 5.11 201.324 5.25667 201.511 5.45C201.701 5.64 201.849 5.87667 201.956 6.16C202.062 6.44 202.116 6.76 202.116 7.12C202.116 7.26 202.101 7.35333 202.071 7.4C202.041 7.44667 201.984 7.47 201.901 7.47H198.516C198.526 7.79 198.569 8.06833 198.646 8.305C198.726 8.54167 198.836 8.74 198.976 8.9C199.116 9.05667 199.282 9.175 199.476 9.255C199.669 9.33167 199.886 9.37 200.126 9.37C200.349 9.37 200.541 9.345 200.701 9.295C200.864 9.24167 201.004 9.185 201.121 9.125C201.237 9.065 201.334 9.01 201.411 8.96C201.491 8.90667 201.559 8.88 201.616 8.88C201.689 8.88 201.746 8.90833 201.786 8.965L202.036 9.29ZM204.049 5.67C204.159 5.54667 204.276 5.435 204.399 5.335C204.522 5.235 204.652 5.15 204.789 5.08C204.929 5.00667 205.076 4.95167 205.229 4.915C205.386 4.875 205.554 4.855 205.734 4.855C206.011 4.855 206.254 4.90167 206.464 4.995C206.677 5.085 206.854 5.215 206.994 5.385C207.137 5.55167 207.246 5.75333 207.319 5.99C207.392 6.22667 207.429 6.48833 207.429 6.775V10H206.534V6.775C206.534 6.39167 206.446 6.095 206.269 5.885C206.096 5.67167 205.831 5.565 205.474 5.565C205.211 5.565 204.964 5.62833 204.734 5.755C204.507 5.88167 204.297 6.05333 204.104 6.27V10H203.209V4.935H203.744C203.871 4.935 203.949 4.99667 203.979 5.12L204.049 5.67ZM212.085 6.14C211.918 5.91667 211.738 5.76167 211.545 5.675C211.352 5.585 211.135 5.54 210.895 5.54C210.425 5.54 210.063 5.70833 209.81 6.045C209.557 6.38167 209.43 6.86167 209.43 7.485C209.43 7.815 209.458 8.09833 209.515 8.335C209.572 8.56833 209.655 8.76167 209.765 8.915C209.875 9.065 210.01 9.175 210.17 9.245C210.33 9.315 210.512 9.35 210.715 9.35C211.008 9.35 211.263 9.28333 211.48 9.15C211.7 9.01667 211.902 8.82833 212.085 8.585V6.14ZM212.975 2.635V10H212.445C212.318 10 212.238 9.93833 212.205 9.815L212.125 9.2C211.908 9.46 211.662 9.67 211.385 9.83C211.108 9.99 210.788 10.07 210.425 10.07C210.135 10.07 209.872 10.015 209.635 9.905C209.398 9.79167 209.197 9.62667 209.03 9.41C208.863 9.19333 208.735 8.92333 208.645 8.6C208.555 8.27667 208.51 7.905 208.51 7.485C208.51 7.11167 208.56 6.765 208.66 6.445C208.76 6.12167 208.903 5.84167 209.09 5.605C209.277 5.36833 209.505 5.18333 209.775 5.05C210.048 4.91333 210.355 4.845 210.695 4.845C211.005 4.845 211.27 4.89833 211.49 5.005C211.713 5.10833 211.912 5.25333 212.085 5.44V2.635H212.975ZM219.074 4.855C219.444 4.855 219.778 4.91667 220.074 5.04C220.371 5.16333 220.624 5.33833 220.834 5.565C221.044 5.79167 221.204 6.06667 221.314 6.39C221.428 6.71 221.484 7.06833 221.484 7.465C221.484 7.865 221.428 8.225 221.314 8.545C221.204 8.865 221.044 9.13833 220.834 9.365C220.624 9.59167 220.371 9.76667 220.074 9.89C219.778 10.01 219.444 10.07 219.074 10.07C218.701 10.07 218.364 10.01 218.064 9.89C217.768 9.76667 217.514 9.59167 217.304 9.365C217.094 9.13833 216.933 8.865 216.819 8.545C216.709 8.225 216.654 7.865 216.654 7.465C216.654 7.06833 216.709 6.71 216.819 6.39C216.933 6.06667 217.094 5.79167 217.304 5.565C217.514 5.33833 217.768 5.16333 218.064 5.04C218.364 4.91667 218.701 4.855 219.074 4.855ZM219.074 9.375C219.574 9.375 219.948 9.20833 220.194 8.875C220.441 8.53833 220.564 8.07 220.564 7.47C220.564 6.86667 220.441 6.39667 220.194 6.06C219.948 5.72333 219.574 5.555 219.074 5.555C218.821 5.555 218.599 5.59833 218.409 5.685C218.223 5.77167 218.066 5.89667 217.939 6.06C217.816 6.22333 217.723 6.425 217.659 6.665C217.599 6.90167 217.569 7.17 217.569 7.47C217.569 8.07 217.693 8.53833 217.939 8.875C218.189 9.20833 218.568 9.375 219.074 9.375ZM222.836 10V5.695L222.276 5.63C222.206 5.61333 222.147 5.58833 222.101 5.555C222.057 5.51833 222.036 5.46667 222.036 5.4V5.035H222.836V4.545C222.836 4.255 222.876 3.99833 222.956 3.775C223.039 3.54833 223.156 3.35833 223.306 3.205C223.459 3.04833 223.642 2.93 223.856 2.85C224.069 2.77 224.309 2.73 224.576 2.73C224.802 2.73 225.011 2.76333 225.201 2.83L225.181 3.275C225.174 3.355 225.129 3.39833 225.046 3.405C224.966 3.41167 224.857 3.415 224.721 3.415C224.567 3.415 224.427 3.435 224.301 3.475C224.177 3.515 224.071 3.58 223.981 3.67C223.891 3.76 223.821 3.87833 223.771 4.025C223.724 4.17167 223.701 4.35333 223.701 4.57V5.035H225.161V5.68H223.731V10H222.836ZM229.305 2.635V10H228.415V2.635H229.305ZM231.688 4.935V10H230.798V4.935H231.688ZM231.878 3.345C231.878 3.43167 231.86 3.51333 231.823 3.59C231.79 3.66333 231.743 3.73 231.683 3.79C231.626 3.84667 231.558 3.89167 231.478 3.925C231.401 3.95833 231.32 3.975 231.233 3.975C231.146 3.975 231.065 3.95833 230.988 3.925C230.915 3.89167 230.85 3.84667 230.793 3.79C230.736 3.73 230.691 3.66333 230.658 3.59C230.625 3.51333 230.608 3.43167 230.608 3.345C230.608 3.25833 230.625 3.17667 230.658 3.1C230.691 3.02 230.736 2.95167 230.793 2.895C230.85 2.835 230.915 2.78833 230.988 2.755C231.065 2.72167 231.146 2.705 231.233 2.705C231.32 2.705 231.401 2.72167 231.478 2.755C231.558 2.78833 231.626 2.835 231.683 2.895C231.743 2.95167 231.79 3.02 231.823 3.1C231.86 3.17667 231.878 3.25833 231.878 3.345ZM236.1 5.77C236.06 5.84333 235.999 5.88 235.915 5.88C235.865 5.88 235.809 5.86167 235.745 5.825C235.682 5.78833 235.604 5.74833 235.51 5.705C235.42 5.65833 235.312 5.61667 235.185 5.58C235.059 5.54 234.909 5.52 234.735 5.52C234.585 5.52 234.45 5.54 234.33 5.58C234.21 5.61667 234.107 5.66833 234.02 5.735C233.937 5.80167 233.872 5.88 233.825 5.97C233.782 6.05667 233.76 6.15167 233.76 6.255C233.76 6.385 233.797 6.49333 233.87 6.58C233.947 6.66667 234.047 6.74167 234.17 6.805C234.294 6.86833 234.434 6.925 234.59 6.975C234.747 7.02167 234.907 7.07333 235.07 7.13C235.237 7.18333 235.399 7.24333 235.555 7.31C235.712 7.37667 235.852 7.46 235.975 7.56C236.099 7.66 236.197 7.78333 236.27 7.93C236.347 8.07333 236.385 8.24667 236.385 8.45C236.385 8.68333 236.344 8.9 236.26 9.1C236.177 9.29667 236.054 9.46833 235.89 9.615C235.727 9.75833 235.527 9.87167 235.29 9.955C235.054 10.0383 234.78 10.08 234.47 10.08C234.117 10.08 233.797 10.0233 233.51 9.91C233.224 9.79333 232.98 9.645 232.78 9.465L232.99 9.125C233.017 9.08167 233.049 9.04833 233.085 9.025C233.122 9.00167 233.169 8.99 233.225 8.99C233.285 8.99 233.349 9.01333 233.415 9.06C233.482 9.10667 233.562 9.15833 233.655 9.215C233.752 9.27167 233.869 9.32333 234.005 9.37C234.142 9.41667 234.312 9.44 234.515 9.44C234.689 9.44 234.84 9.41833 234.97 9.375C235.1 9.32833 235.209 9.26667 235.295 9.19C235.382 9.11333 235.445 9.025 235.485 8.925C235.529 8.825 235.55 8.71833 235.55 8.605C235.55 8.465 235.512 8.35 235.435 8.26C235.362 8.16667 235.264 8.08833 235.14 8.025C235.017 7.95833 234.875 7.90167 234.715 7.855C234.559 7.805 234.397 7.75333 234.23 7.7C234.067 7.64667 233.905 7.58667 233.745 7.52C233.589 7.45 233.449 7.36333 233.325 7.26C233.202 7.15667 233.102 7.03 233.025 6.88C232.952 6.72667 232.915 6.54167 232.915 6.325C232.915 6.13167 232.955 5.94667 233.035 5.77C233.115 5.59 233.232 5.43333 233.385 5.3C233.539 5.16333 233.727 5.055 233.95 4.975C234.174 4.895 234.429 4.855 234.715 4.855C235.049 4.855 235.347 4.90833 235.61 5.015C235.877 5.11833 236.107 5.26167 236.3 5.445L236.1 5.77ZM239.031 10.08C238.631 10.08 238.323 9.96833 238.106 9.745C237.893 9.52167 237.786 9.2 237.786 8.78V5.68H237.176C237.123 5.68 237.078 5.665 237.041 5.635C237.005 5.60167 236.986 5.55167 236.986 5.485V5.13L237.816 5.025L238.021 3.46C238.031 3.41 238.053 3.37 238.086 3.34C238.123 3.30667 238.17 3.29 238.226 3.29H238.676V5.035H240.141V5.68H238.676V8.72C238.676 8.93333 238.728 9.09167 238.831 9.195C238.935 9.29833 239.068 9.35 239.231 9.35C239.325 9.35 239.405 9.33833 239.471 9.315C239.541 9.28833 239.601 9.26 239.651 9.23C239.701 9.2 239.743 9.17333 239.776 9.15C239.813 9.12333 239.845 9.11 239.871 9.11C239.918 9.11 239.96 9.13833 239.996 9.195L240.256 9.62C240.103 9.76333 239.918 9.87667 239.701 9.96C239.485 10.04 239.261 10.08 239.031 10.08ZM241.8 6.855C241.8 6.14167 241.709 5.44833 241.525 4.775C241.345 4.10167 241.08 3.46167 240.73 2.855C240.704 2.805 240.687 2.76167 240.68 2.725C240.674 2.685 240.675 2.65167 240.685 2.625C240.695 2.595 240.71 2.57 240.73 2.55C240.754 2.52667 240.779 2.50667 240.805 2.49L241.2 2.245C241.45 2.63167 241.662 3.01333 241.835 3.39C242.012 3.76667 242.154 4.145 242.26 4.525C242.37 4.90167 242.45 5.28333 242.5 5.67C242.55 6.05667 242.575 6.45167 242.575 6.855C242.575 7.26167 242.55 7.65833 242.5 8.045C242.45 8.42833 242.37 8.81 242.26 9.19C242.154 9.57 242.012 9.94833 241.835 10.325C241.662 10.7017 241.45 11.0817 241.2 11.465L240.805 11.225C240.779 11.2083 240.754 11.1883 240.73 11.165C240.71 11.145 240.695 11.12 240.685 11.09C240.675 11.0633 240.674 11.03 240.68 10.99C240.687 10.95 240.704 10.905 240.73 10.855C241.08 10.2483 241.345 9.60833 241.525 8.935C241.709 8.26167 241.8 7.56833 241.8 6.855Z" fill="#0B3AB5"/>
</g>
</svg>
