<svg  viewBox="0 0 238 89" fill="none" xmlns="http://www.w3.org/2000/svg">
<g id="remove">
<g id="remove-c" style="transform: translate(-65px, 0px)">
<path id="remove(c)" d="M65.8391 5.95C65.9991 5.60333 66.1957 5.33333 66.4291 5.14C66.6624 4.94333 66.9474 4.845 67.2841 4.845C67.3907 4.845 67.4924 4.85667 67.5891 4.88C67.6891 4.90333 67.7774 4.94 67.8541 4.99L67.7891 5.655C67.7691 5.73833 67.7191 5.78 67.6391 5.78C67.5924 5.78 67.5241 5.77 67.4341 5.75C67.3441 5.73 67.2424 5.72 67.1291 5.72C66.9691 5.72 66.8257 5.74333 66.6991 5.79C66.5757 5.83667 66.4641 5.90667 66.3641 6C66.2674 6.09 66.1791 6.20333 66.0991 6.34C66.0224 6.47333 65.9524 6.62667 65.8891 6.8V10H64.9941V4.935H65.5041C65.6007 4.935 65.6674 4.95333 65.7041 4.99C65.7407 5.02667 65.7657 5.09 65.7791 5.18L65.8391 5.95ZM71.8216 6.915C71.8216 6.70833 71.7916 6.52 71.7316 6.35C71.6749 6.17667 71.5899 6.02833 71.4766 5.905C71.3666 5.77833 71.2316 5.68167 71.0716 5.615C70.9116 5.545 70.7299 5.51 70.5266 5.51C70.0999 5.51 69.7616 5.635 69.5116 5.885C69.2649 6.13167 69.1116 6.475 69.0516 6.915H71.8216ZM72.5416 9.29C72.4316 9.42333 72.2999 9.54 72.1466 9.64C71.9932 9.73667 71.8282 9.81667 71.6516 9.88C71.4782 9.94333 71.2982 9.99 71.1116 10.02C70.9249 10.0533 70.7399 10.07 70.5566 10.07C70.2066 10.07 69.8832 10.0117 69.5866 9.895C69.2932 9.775 69.0382 9.60167 68.8216 9.375C68.6082 9.145 68.4416 8.86167 68.3216 8.525C68.2016 8.18833 68.1416 7.80167 68.1416 7.365C68.1416 7.01167 68.1949 6.68167 68.3016 6.375C68.4116 6.06833 68.5682 5.80333 68.7716 5.58C68.9749 5.35333 69.2232 5.17667 69.5166 5.05C69.8099 4.92 70.1399 4.855 70.5066 4.855C70.8099 4.855 71.0899 4.90667 71.3466 5.01C71.6066 5.11 71.8299 5.25667 72.0166 5.45C72.2066 5.64 72.3549 5.87667 72.4616 6.16C72.5682 6.44 72.6216 6.76 72.6216 7.12C72.6216 7.26 72.6066 7.35333 72.5766 7.4C72.5466 7.44667 72.4899 7.47 72.4066 7.47H69.0216C69.0316 7.79 69.0749 8.06833 69.1516 8.305C69.2316 8.54167 69.3416 8.74 69.4816 8.9C69.6216 9.05667 69.7882 9.175 69.9816 9.255C70.1749 9.33167 70.3916 9.37 70.6316 9.37C70.8549 9.37 71.0466 9.345 71.2066 9.295C71.3699 9.24167 71.5099 9.185 71.6266 9.125C71.7432 9.065 71.8399 9.01 71.9166 8.96C71.9966 8.90667 72.0649 8.88 72.1216 8.88C72.1949 8.88 72.2516 8.90833 72.2916 8.965L72.5416 9.29ZM73.7148 10V4.935H74.2498C74.3764 4.935 74.4548 4.99667 74.4848 5.12L74.5498 5.64C74.7364 5.41 74.9464 5.22167 75.1798 5.075C75.4131 4.92833 75.6831 4.855 75.9898 4.855C76.3298 4.855 76.6048 4.95 76.8148 5.14C77.0281 5.33 77.1814 5.58667 77.2748 5.91C77.3481 5.72667 77.4414 5.56833 77.5548 5.435C77.6714 5.30167 77.8014 5.19167 77.9448 5.105C78.0881 5.01833 78.2398 4.955 78.3998 4.915C78.5631 4.875 78.7281 4.855 78.8948 4.855C79.1614 4.855 79.3981 4.89833 79.6048 4.985C79.8148 5.06833 79.9914 5.19167 80.1348 5.355C80.2814 5.51833 80.3931 5.72 80.4698 5.96C80.5464 6.19667 80.5848 6.46833 80.5848 6.775V10H79.6898V6.775C79.6898 6.37833 79.6031 6.07833 79.4298 5.875C79.2564 5.66833 79.0064 5.565 78.6798 5.565C78.5331 5.565 78.3931 5.59167 78.2598 5.645C78.1298 5.695 78.0148 5.77 77.9148 5.87C77.8148 5.97 77.7348 6.09667 77.6748 6.25C77.6181 6.4 77.5898 6.575 77.5898 6.775V10H76.6948V6.775C76.6948 6.36833 76.6131 6.065 76.4498 5.865C76.2864 5.665 76.0481 5.565 75.7348 5.565C75.5148 5.565 75.3114 5.625 75.1248 5.745C74.9381 5.86167 74.7664 6.02167 74.6098 6.225V10H73.7148ZM84.0724 4.855C84.4424 4.855 84.7758 4.91667 85.0724 5.04C85.3691 5.16333 85.6224 5.33833 85.8324 5.565C86.0424 5.79167 86.2024 6.06667 86.3124 6.39C86.4258 6.71 86.4824 7.06833 86.4824 7.465C86.4824 7.865 86.4258 8.225 86.3124 8.545C86.2024 8.865 86.0424 9.13833 85.8324 9.365C85.6224 9.59167 85.3691 9.76667 85.0724 9.89C84.7758 10.01 84.4424 10.07 84.0724 10.07C83.6991 10.07 83.3624 10.01 83.0624 9.89C82.7658 9.76667 82.5124 9.59167 82.3024 9.365C82.0924 9.13833 81.9308 8.865 81.8174 8.545C81.7074 8.225 81.6524 7.865 81.6524 7.465C81.6524 7.06833 81.7074 6.71 81.8174 6.39C81.9308 6.06667 82.0924 5.79167 82.3024 5.565C82.5124 5.33833 82.7658 5.16333 83.0624 5.04C83.3624 4.91667 83.6991 4.855 84.0724 4.855ZM84.0724 9.375C84.5724 9.375 84.9458 9.20833 85.1924 8.875C85.4391 8.53833 85.5624 8.07 85.5624 7.47C85.5624 6.86667 85.4391 6.39667 85.1924 6.06C84.9458 5.72333 84.5724 5.555 84.0724 5.555C83.8191 5.555 83.5974 5.59833 83.4074 5.685C83.2208 5.77167 83.0641 5.89667 82.9374 6.06C82.8141 6.22333 82.7208 6.425 82.6574 6.665C82.5974 6.90167 82.5674 7.17 82.5674 7.47C82.5674 8.07 82.6908 8.53833 82.9374 8.875C83.1874 9.20833 83.5658 9.375 84.0724 9.375ZM91.8145 4.935L89.7495 10H88.9495L86.8845 4.935H87.6095C87.6829 4.935 87.7429 4.95333 87.7895 4.99C87.8362 5.02667 87.8679 5.07 87.8845 5.12L89.1695 8.38C89.2095 8.50333 89.2445 8.62333 89.2745 8.74C89.3045 8.85667 89.3329 8.97333 89.3595 9.09C89.3862 8.97333 89.4145 8.85667 89.4445 8.74C89.4745 8.62333 89.5112 8.50333 89.5545 8.38L90.8545 5.12C90.8745 5.06667 90.9079 5.02333 90.9545 4.99C91.0012 4.95333 91.0562 4.935 91.1195 4.935H91.8145ZM95.8841 6.915C95.8841 6.70833 95.8541 6.52 95.7941 6.35C95.7374 6.17667 95.6524 6.02833 95.5391 5.905C95.4291 5.77833 95.2941 5.68167 95.1341 5.615C94.9741 5.545 94.7924 5.51 94.5891 5.51C94.1624 5.51 93.8241 5.635 93.5741 5.885C93.3274 6.13167 93.1741 6.475 93.1141 6.915H95.8841ZM96.6041 9.29C96.4941 9.42333 96.3624 9.54 96.2091 9.64C96.0557 9.73667 95.8907 9.81667 95.7141 9.88C95.5407 9.94333 95.3607 9.99 95.1741 10.02C94.9874 10.0533 94.8024 10.07 94.6191 10.07C94.2691 10.07 93.9457 10.0117 93.6491 9.895C93.3557 9.775 93.1007 9.60167 92.8841 9.375C92.6707 9.145 92.5041 8.86167 92.3841 8.525C92.2641 8.18833 92.2041 7.80167 92.2041 7.365C92.2041 7.01167 92.2574 6.68167 92.3641 6.375C92.4741 6.06833 92.6307 5.80333 92.8341 5.58C93.0374 5.35333 93.2857 5.17667 93.5791 5.05C93.8724 4.92 94.2024 4.855 94.5691 4.855C94.8724 4.855 95.1524 4.90667 95.4091 5.01C95.6691 5.11 95.8924 5.25667 96.0791 5.45C96.2691 5.64 96.4174 5.87667 96.5241 6.16C96.6307 6.44 96.6841 6.76 96.6841 7.12C96.6841 7.26 96.6691 7.35333 96.6391 7.4C96.6091 7.44667 96.5524 7.47 96.4691 7.47H93.0841C93.0941 7.79 93.1374 8.06833 93.2141 8.305C93.2941 8.54167 93.4041 8.74 93.5441 8.9C93.6841 9.05667 93.8507 9.175 94.0441 9.255C94.2374 9.33167 94.4541 9.37 94.6941 9.37C94.9174 9.37 95.1091 9.345 95.2691 9.295C95.4324 9.24167 95.5724 9.185 95.6891 9.125C95.8057 9.065 95.9024 9.01 95.9791 8.96C96.0591 8.90667 96.1274 8.88 96.1841 8.88C96.2574 8.88 96.3141 8.90833 96.3541 8.965L96.6041 9.29ZM98.2973 6.855C98.2973 7.56833 98.3873 8.26167 98.5673 8.935C98.7506 9.60833 99.0173 10.2483 99.3673 10.855C99.4206 10.9583 99.4339 11.0367 99.4073 11.09C99.3806 11.1467 99.3423 11.1917 99.2923 11.225L98.8973 11.465C98.6473 11.0817 98.4339 10.7017 98.2573 10.325C98.0839 9.94833 97.9423 9.57 97.8323 9.19C97.7256 8.81 97.6473 8.42833 97.5973 8.045C97.5473 7.65833 97.5223 7.26167 97.5223 6.855C97.5223 6.45167 97.5473 6.05667 97.5973 5.67C97.6473 5.28333 97.7256 4.90167 97.8323 4.525C97.9423 4.145 98.0839 3.76667 98.2573 3.39C98.4339 3.01333 98.6473 2.63167 98.8973 2.245L99.2923 2.49C99.3423 2.52333 99.3806 2.56833 99.4073 2.625C99.4339 2.67833 99.4206 2.755 99.3673 2.855C99.0173 3.46167 98.7506 4.10167 98.5673 4.775C98.3873 5.44833 98.2973 6.14167 98.2973 6.855ZM103.666 5.835C103.639 5.87167 103.612 5.9 103.586 5.92C103.559 5.94 103.522 5.95 103.476 5.95C103.426 5.95 103.371 5.93 103.311 5.89C103.251 5.84667 103.176 5.8 103.086 5.75C102.999 5.7 102.891 5.655 102.761 5.615C102.634 5.57167 102.477 5.55 102.291 5.55C102.041 5.55 101.821 5.595 101.631 5.685C101.441 5.77167 101.281 5.89833 101.151 6.065C101.024 6.23167 100.927 6.43333 100.861 6.67C100.797 6.90667 100.766 7.17167 100.766 7.465C100.766 7.77167 100.801 8.045 100.871 8.285C100.941 8.52167 101.039 8.72167 101.166 8.885C101.296 9.045 101.451 9.16833 101.631 9.255C101.814 9.33833 102.019 9.38 102.246 9.38C102.462 9.38 102.641 9.355 102.781 9.305C102.921 9.25167 103.036 9.19333 103.126 9.13C103.219 9.06667 103.296 9.01 103.356 8.96C103.419 8.90667 103.481 8.88 103.541 8.88C103.614 8.88 103.671 8.90833 103.711 8.965L103.961 9.29C103.851 9.42667 103.726 9.54333 103.586 9.64C103.446 9.73667 103.294 9.81833 103.131 9.885C102.971 9.94833 102.802 9.995 102.626 10.025C102.449 10.055 102.269 10.07 102.086 10.07C101.769 10.07 101.474 10.0117 101.201 9.895C100.931 9.77833 100.696 9.61 100.496 9.39C100.296 9.16667 100.139 8.89333 100.026 8.57C99.9122 8.24667 99.8555 7.87833 99.8555 7.465C99.8555 7.08833 99.9072 6.74 100.011 6.42C100.117 6.1 100.271 5.825 100.471 5.595C100.674 5.36167 100.922 5.18 101.216 5.05C101.512 4.92 101.852 4.855 102.236 4.855C102.592 4.855 102.906 4.91333 103.176 5.03C103.449 5.14333 103.691 5.305 103.901 5.515L103.666 5.835ZM105.49 6.855C105.49 6.14167 105.398 5.44833 105.215 4.775C105.035 4.10167 104.77 3.46167 104.42 2.855C104.393 2.805 104.377 2.76167 104.37 2.725C104.363 2.685 104.365 2.65167 104.375 2.625C104.385 2.595 104.4 2.57 104.42 2.55C104.443 2.52667 104.468 2.50667 104.495 2.49L104.89 2.245C105.14 2.63167 105.352 3.01333 105.525 3.39C105.702 3.76667 105.843 4.145 105.95 4.525C106.06 4.90167 106.14 5.28333 106.19 5.67C106.24 6.05667 106.265 6.45167 106.265 6.855C106.265 7.26167 106.24 7.65833 106.19 8.045C106.14 8.42833 106.06 8.81 105.95 9.19C105.843 9.57 105.702 9.94833 105.525 10.325C105.352 10.7017 105.14 11.0817 104.89 11.465L104.495 11.225C104.468 11.2083 104.443 11.1883 104.42 11.165C104.4 11.145 104.385 11.12 104.375 11.09C104.365 11.0633 104.363 11.03 104.37 10.99C104.377 10.95 104.393 10.905 104.42 10.855C104.77 10.2483 105.035 9.60833 105.215 8.935C105.398 8.26167 105.49 7.56833 105.49 6.855Z" fill="black"/>
<path id="index-arrow" d="M84.6464 24.3536C84.8417 24.5488 85.1583 24.5488 85.3536 24.3536L88.5355 21.1716C88.7308 20.9763 88.7308 20.6597 88.5355 20.4645C88.3403 20.2692 88.0237 20.2692 87.8284 20.4645L85 23.2929L82.1716 20.4645C81.9763 20.2692 81.6597 20.2692 81.4645 20.4645C81.2692 20.6597 81.2692 20.9763 81.4645 21.1716L84.6464 24.3536ZM84.5 13V24H85.5V13H84.5Z" fill="black"/>
</g>
<g id="array">
<rect id="Rectangle 1" x="0.5" y="18.5" width="33" height="35" stroke="black"/>
<rect id="Rectangle 7" x="204.5" y="18.5" width="33" height="35" stroke="black"/>
<rect id="Rectangle 6" x="170.5" y="18.5" width="33" height="35" stroke="black"/>
<rect id="Rectangle 5" x="136.5" y="18.5" width="33" height="35" stroke="black"/>
<rect id="Rectangle 4" x="102.5" y="18.5" width="33" height="35" stroke="black"/>
<rect id="c-container" x="68.5" y="18.5" width="33" height="35" stroke="black"/>
<rect id="Rectangle 2" x="34.5" y="18.5" width="33" height="35" stroke="black"/>
<path id="a" d="M18.6576 37.264C18.1656 37.28 17.7456 37.32 17.3976 37.384C17.0536 37.444 16.7716 37.524 16.5516 37.624C16.3356 37.724 16.1776 37.842 16.0776 37.978C15.9816 38.114 15.9336 38.266 15.9336 38.434C15.9336 38.594 15.9596 38.732 16.0116 38.848C16.0636 38.964 16.1336 39.06 16.2216 39.136C16.3136 39.208 16.4196 39.262 16.5396 39.298C16.6636 39.33 16.7956 39.346 16.9356 39.346C17.1236 39.346 17.2956 39.328 17.4516 39.292C17.6076 39.252 17.7536 39.196 17.8896 39.124C18.0296 39.052 18.1616 38.966 18.2856 38.866C18.4136 38.766 18.5376 38.652 18.6576 38.524V37.264ZM15.2076 34.78C15.5436 34.456 15.9056 34.214 16.2936 34.054C16.6816 33.894 17.1116 33.814 17.5836 33.814C17.9236 33.814 18.2256 33.87 18.4896 33.982C18.7536 34.094 18.9756 34.25 19.1556 34.45C19.3356 34.65 19.4716 34.892 19.5636 35.176C19.6556 35.46 19.7016 35.772 19.7016 36.112V40H19.2276C19.1236 40 19.0436 39.984 18.9876 39.952C18.9316 39.916 18.8876 39.848 18.8556 39.748L18.7356 39.172C18.5756 39.32 18.4196 39.452 18.2676 39.568C18.1156 39.68 17.9556 39.776 17.7876 39.856C17.6196 39.932 17.4396 39.99 17.2476 40.03C17.0596 40.074 16.8496 40.096 16.6176 40.096C16.3816 40.096 16.1596 40.064 15.9516 40C15.7436 39.932 15.5616 39.832 15.4056 39.7C15.2536 39.568 15.1316 39.402 15.0396 39.202C14.9516 38.998 14.9076 38.758 14.9076 38.482C14.9076 38.242 14.9736 38.012 15.1056 37.792C15.2376 37.568 15.4516 37.37 15.7476 37.198C16.0436 37.026 16.4296 36.886 16.9056 36.778C17.3816 36.666 17.9656 36.602 18.6576 36.586V36.112C18.6576 35.64 18.5556 35.284 18.3516 35.044C18.1476 34.8 17.8496 34.678 17.4576 34.678C17.1936 34.678 16.9716 34.712 16.7916 34.78C16.6156 34.844 16.4616 34.918 16.3296 35.002C16.2016 35.082 16.0896 35.156 15.9936 35.224C15.9016 35.288 15.8096 35.32 15.7176 35.32C15.6456 35.32 15.5836 35.302 15.5316 35.266C15.4796 35.226 15.4356 35.178 15.3996 35.122L15.2076 34.78Z" fill="black"/>
<path id="d" class="arli-remove-shift" d="M120.949 35.368C120.749 35.1 120.533 34.914 120.301 34.81C120.069 34.702 119.809 34.648 119.521 34.648C118.957 34.648 118.523 34.85 118.219 35.254C117.915 35.658 117.763 36.234 117.763 36.982C117.763 37.378 117.797 37.718 117.865 38.002C117.933 38.282 118.033 38.514 118.165 38.698C118.297 38.878 118.459 39.01 118.651 39.094C118.843 39.178 119.061 39.22 119.305 39.22C119.657 39.22 119.963 39.14 120.223 38.98C120.487 38.82 120.729 38.594 120.949 38.302V35.368ZM122.017 31.162V40H121.381C121.229 40 121.133 39.926 121.093 39.778L120.997 39.04C120.737 39.352 120.441 39.604 120.109 39.796C119.777 39.988 119.393 40.084 118.957 40.084C118.609 40.084 118.293 40.018 118.009 39.886C117.725 39.75 117.483 39.552 117.283 39.292C117.083 39.032 116.929 38.708 116.821 38.32C116.713 37.932 116.659 37.486 116.659 36.982C116.659 36.534 116.719 36.118 116.839 35.734C116.959 35.346 117.131 35.01 117.355 34.726C117.579 34.442 117.853 34.22 118.177 34.06C118.505 33.896 118.873 33.814 119.281 33.814C119.653 33.814 119.971 33.878 120.235 34.006C120.503 34.13 120.741 34.304 120.949 34.528V31.162H122.017Z" fill="black"/>
<path id="c" class="arli-remove-shift" d="M155.711 35.002C155.679 35.046 155.647 35.08 155.615 35.104C155.583 35.128 155.539 35.14 155.483 35.14C155.423 35.14 155.357 35.116 155.285 35.068C155.213 35.016 155.123 34.96 155.015 34.9C154.911 34.84 154.781 34.786 154.625 34.738C154.473 34.686 154.285 34.66 154.061 34.66C153.761 34.66 153.497 34.714 153.269 34.822C153.041 34.926 152.849 35.078 152.693 35.278C152.541 35.478 152.425 35.72 152.345 36.004C152.269 36.288 152.231 36.606 152.231 36.958C152.231 37.326 152.273 37.654 152.357 37.942C152.441 38.226 152.559 38.466 152.711 38.662C152.867 38.854 153.053 39.002 153.269 39.106C153.489 39.206 153.735 39.256 154.007 39.256C154.267 39.256 154.481 39.226 154.649 39.166C154.817 39.102 154.955 39.032 155.063 38.956C155.175 38.88 155.267 38.812 155.339 38.752C155.415 38.688 155.489 38.656 155.561 38.656C155.649 38.656 155.717 38.69 155.765 38.758L156.065 39.148C155.933 39.312 155.783 39.452 155.615 39.568C155.447 39.684 155.265 39.782 155.069 39.862C154.877 39.938 154.675 39.994 154.463 40.03C154.251 40.066 154.035 40.084 153.815 40.084C153.435 40.084 153.081 40.014 152.753 39.874C152.429 39.734 152.147 39.532 151.907 39.268C151.667 39 151.479 38.672 151.343 38.284C151.207 37.896 151.139 37.454 151.139 36.958C151.139 36.506 151.201 36.088 151.325 35.704C151.453 35.32 151.637 34.99 151.877 34.714C152.121 34.434 152.419 34.216 152.771 34.06C153.127 33.904 153.535 33.826 153.995 33.826C154.423 33.826 154.799 33.896 155.123 34.036C155.451 34.172 155.741 34.366 155.993 34.618L155.711 35.002Z" fill="black"/>
<path id="c-remove" d="M87.7108 35.002C87.6788 35.046 87.6468 35.08 87.6148 35.104C87.5828 35.128 87.5388 35.14 87.4828 35.14C87.4228 35.14 87.3568 35.116 87.2848 35.068C87.2128 35.016 87.1228 34.96 87.0148 34.9C86.9108 34.84 86.7808 34.786 86.6248 34.738C86.4728 34.686 86.2848 34.66 86.0608 34.66C85.7608 34.66 85.4968 34.714 85.2688 34.822C85.0408 34.926 84.8488 35.078 84.6928 35.278C84.5408 35.478 84.4248 35.72 84.3448 36.004C84.2688 36.288 84.2308 36.606 84.2308 36.958C84.2308 37.326 84.2728 37.654 84.3568 37.942C84.4408 38.226 84.5588 38.466 84.7108 38.662C84.8668 38.854 85.0528 39.002 85.2688 39.106C85.4888 39.206 85.7348 39.256 86.0068 39.256C86.2668 39.256 86.4808 39.226 86.6488 39.166C86.8168 39.102 86.9548 39.032 87.0628 38.956C87.1748 38.88 87.2668 38.812 87.3388 38.752C87.4148 38.688 87.4888 38.656 87.5608 38.656C87.6488 38.656 87.7168 38.69 87.7648 38.758L88.0648 39.148C87.9328 39.312 87.7828 39.452 87.6148 39.568C87.4468 39.684 87.2648 39.782 87.0688 39.862C86.8768 39.938 86.6748 39.994 86.4628 40.03C86.2508 40.066 86.0348 40.084 85.8148 40.084C85.4348 40.084 85.0808 40.014 84.7528 39.874C84.4288 39.734 84.1468 39.532 83.9068 39.268C83.6668 39 83.4788 38.672 83.3428 38.284C83.2068 37.896 83.1388 37.454 83.1388 36.958C83.1388 36.506 83.2008 36.088 83.3248 35.704C83.4528 35.32 83.6368 34.99 83.8768 34.714C84.1208 34.434 84.4188 34.216 84.7708 34.06C85.1268 33.904 85.5348 33.826 85.9948 33.826C86.4228 33.826 86.7988 33.896 87.1228 34.036C87.4508 34.172 87.7408 34.366 87.9928 34.618L87.7108 35.002Z" fill="black"/>
<path id="b" d="M50.0626 38.536C50.2586 38.8 50.4726 38.986 50.7046 39.094C50.9406 39.202 51.1986 39.256 51.4786 39.256C52.0506 39.256 52.4886 39.054 52.7926 38.65C53.0966 38.246 53.2486 37.644 53.2486 36.844C53.2486 36.1 53.1126 35.554 52.8406 35.206C52.5726 34.854 52.1886 34.678 51.6886 34.678C51.3406 34.678 51.0366 34.758 50.7766 34.918C50.5206 35.078 50.2826 35.304 50.0626 35.596V38.536ZM50.0626 34.798C50.3186 34.502 50.6066 34.266 50.9266 34.09C51.2506 33.914 51.6226 33.826 52.0426 33.826C52.3986 33.826 52.7186 33.894 53.0026 34.03C53.2906 34.166 53.5346 34.364 53.7346 34.624C53.9346 34.88 54.0866 35.192 54.1906 35.56C54.2986 35.928 54.3526 36.342 54.3526 36.802C54.3526 37.294 54.2926 37.742 54.1726 38.146C54.0526 38.55 53.8786 38.896 53.6506 39.184C53.4266 39.468 53.1526 39.69 52.8286 39.85C52.5046 40.006 52.1406 40.084 51.7366 40.084C51.3366 40.084 50.9986 40.01 50.7226 39.862C50.4506 39.71 50.2126 39.496 50.0086 39.22L49.9546 39.772C49.9226 39.924 49.8306 40 49.6786 40H48.9886V31.162H50.0626V34.798Z" fill="black"/>
</g>
<g id="shift" style="opacity: 0">
<path id="Arrow 3" d="M103.646 64.6464C103.451 64.8417 103.451 65.1583 103.646 65.3536L106.828 68.5355C107.024 68.7308 107.34 68.7308 107.536 68.5355C107.731 68.3403 107.731 68.0237 107.536 67.8284L104.707 65L107.536 62.1716C107.731 61.9763 107.731 61.6597 107.536 61.4645C107.34 61.2692 107.024 61.2692 106.828 61.4645L103.646 64.6464ZM117 64.5H104V65.5H117V64.5Z" fill="black"/>
<g id="shift-everything">
<path id="shift everything over by 1" d="M82.4948 70.77C82.4548 70.8433 82.3932 70.88 82.3098 70.88C82.2598 70.88 82.2032 70.8617 82.1398 70.825C82.0765 70.7883 81.9982 70.7483 81.9048 70.705C81.8148 70.6583 81.7065 70.6167 81.5798 70.58C81.4532 70.54 81.3032 70.52 81.1298 70.52C80.9798 70.52 80.8448 70.54 80.7248 70.58C80.6048 70.6167 80.5015 70.6683 80.4148 70.735C80.3315 70.8017 80.2665 70.88 80.2198 70.97C80.1765 71.0567 80.1548 71.1517 80.1548 71.255C80.1548 71.385 80.1915 71.4933 80.2648 71.58C80.3415 71.6667 80.4415 71.7417 80.5648 71.805C80.6882 71.8683 80.8282 71.925 80.9848 71.975C81.1415 72.0217 81.3015 72.0733 81.4648 72.13C81.6315 72.1833 81.7932 72.2433 81.9498 72.31C82.1065 72.3767 82.2465 72.46 82.3698 72.56C82.4932 72.66 82.5915 72.7833 82.6648 72.93C82.7415 73.0733 82.7798 73.2467 82.7798 73.45C82.7798 73.6833 82.7382 73.9 82.6548 74.1C82.5715 74.2967 82.4482 74.4683 82.2848 74.615C82.1215 74.7583 81.9215 74.8717 81.6848 74.955C81.4482 75.0383 81.1748 75.08 80.8648 75.08C80.5115 75.08 80.1915 75.0233 79.9048 74.91C79.6182 74.7933 79.3748 74.645 79.1748 74.465L79.3848 74.125C79.4115 74.0817 79.4432 74.0483 79.4798 74.025C79.5165 74.0017 79.5632 73.99 79.6198 73.99C79.6798 73.99 79.7432 74.0133 79.8098 74.06C79.8765 74.1067 79.9565 74.1583 80.0498 74.215C80.1465 74.2717 80.2632 74.3233 80.3998 74.37C80.5365 74.4167 80.7065 74.44 80.9098 74.44C81.0832 74.44 81.2348 74.4183 81.3648 74.375C81.4948 74.3283 81.6032 74.2667 81.6898 74.19C81.7765 74.1133 81.8398 74.025 81.8798 73.925C81.9232 73.825 81.9448 73.7183 81.9448 73.605C81.9448 73.465 81.9065 73.35 81.8298 73.26C81.7565 73.1667 81.6582 73.0883 81.5348 73.025C81.4115 72.9583 81.2698 72.9017 81.1098 72.855C80.9532 72.805 80.7915 72.7533 80.6248 72.7C80.4615 72.6467 80.2998 72.5867 80.1398 72.52C79.9832 72.45 79.8432 72.3633 79.7198 72.26C79.5965 72.1567 79.4965 72.03 79.4198 71.88C79.3465 71.7267 79.3098 71.5417 79.3098 71.325C79.3098 71.1317 79.3498 70.9467 79.4298 70.77C79.5098 70.59 79.6265 70.4333 79.7798 70.3C79.9332 70.1633 80.1215 70.055 80.3448 69.975C80.5682 69.895 80.8232 69.855 81.1098 69.855C81.4432 69.855 81.7415 69.9083 82.0048 70.015C82.2715 70.1183 82.5015 70.2617 82.6948 70.445L82.4948 70.77ZM84.766 70.61C84.9827 70.38 85.2227 70.1967 85.486 70.06C85.7493 69.9233 86.0527 69.855 86.396 69.855C86.6727 69.855 86.916 69.9017 87.126 69.995C87.3393 70.085 87.516 70.215 87.656 70.385C87.7993 70.5517 87.9077 70.7533 87.981 70.99C88.0543 71.2267 88.091 71.4883 88.091 71.775V75H87.196V71.775C87.196 71.3917 87.1077 71.095 86.931 70.885C86.7577 70.6717 86.4927 70.565 86.136 70.565C85.8727 70.565 85.626 70.6283 85.396 70.755C85.1693 70.8817 84.9593 71.0533 84.766 71.27V75H83.871V67.635H84.766V70.61ZM90.3872 69.935V75H89.4972V69.935H90.3872ZM90.5772 68.345C90.5772 68.4317 90.5589 68.5133 90.5222 68.59C90.4889 68.6633 90.4422 68.73 90.3822 68.79C90.3255 68.8467 90.2572 68.8917 90.1772 68.925C90.1005 68.9583 90.0189 68.975 89.9322 68.975C89.8455 68.975 89.7639 68.9583 89.6872 68.925C89.6139 68.8917 89.5489 68.8467 89.4922 68.79C89.4355 68.73 89.3905 68.6633 89.3572 68.59C89.3239 68.5133 89.3072 68.4317 89.3072 68.345C89.3072 68.2583 89.3239 68.1767 89.3572 68.1C89.3905 68.02 89.4355 67.9517 89.4922 67.895C89.5489 67.835 89.6139 67.7883 89.6872 67.755C89.7639 67.7217 89.8455 67.705 89.9322 67.705C90.0189 67.705 90.1005 67.7217 90.1772 67.755C90.2572 67.7883 90.3255 67.835 90.3822 67.895C90.4422 67.9517 90.4889 68.02 90.5222 68.1C90.5589 68.1767 90.5772 68.2583 90.5772 68.345ZM96.3095 70.68V73.72C96.3095 73.9333 96.3612 74.0917 96.4645 74.195C96.5679 74.2983 96.6995 74.35 96.8595 74.35C96.9562 74.35 97.0379 74.3383 97.1045 74.315C97.1745 74.2883 97.2345 74.26 97.2845 74.23C97.3345 74.2 97.3762 74.1733 97.4095 74.15C97.4429 74.1233 97.4729 74.11 97.4995 74.11C97.5295 74.11 97.5529 74.1167 97.5695 74.13C97.5895 74.1433 97.6095 74.165 97.6295 74.195L97.8895 74.62C97.7362 74.7633 97.5512 74.8767 97.3345 74.96C97.1179 75.04 96.8929 75.08 96.6595 75.08C96.2629 75.08 95.9562 74.9683 95.7395 74.745C95.5262 74.5217 95.4195 74.2 95.4195 73.78V70.68H93.0745V75H92.1795V70.695L91.6195 70.63C91.5495 70.6133 91.4912 70.5883 91.4445 70.555C91.4012 70.5183 91.3795 70.4667 91.3795 70.4V70.035H92.1795V69.545C92.1795 69.255 92.2195 68.9983 92.2995 68.775C92.3829 68.5483 92.4995 68.3583 92.6495 68.205C92.8029 68.0483 92.9862 67.93 93.1995 67.85C93.4129 67.77 93.6529 67.73 93.9195 67.73C94.1462 67.73 94.3545 67.7633 94.5445 67.83L94.5245 68.275C94.5179 68.355 94.4729 68.3983 94.3895 68.405C94.3095 68.4117 94.2012 68.415 94.0645 68.415C93.9112 68.415 93.7712 68.435 93.6445 68.475C93.5212 68.515 93.4145 68.58 93.3245 68.67C93.2345 68.76 93.1645 68.8783 93.1145 69.025C93.0679 69.1717 93.0445 69.3533 93.0445 69.57V70.035H95.4495L95.6495 68.46C95.6629 68.41 95.6862 68.37 95.7195 68.34C95.7562 68.3067 95.8029 68.29 95.8595 68.29H96.3095V70.035H97.7695V70.68H96.3095ZM104.644 71.915C104.644 71.7083 104.614 71.52 104.554 71.35C104.497 71.1767 104.412 71.0283 104.299 70.905C104.189 70.7783 104.054 70.6817 103.894 70.615C103.734 70.545 103.552 70.51 103.349 70.51C102.922 70.51 102.584 70.635 102.334 70.885C102.087 71.1317 101.934 71.475 101.874 71.915H104.644ZM105.364 74.29C105.254 74.4233 105.122 74.54 104.969 74.64C104.815 74.7367 104.65 74.8167 104.474 74.88C104.3 74.9433 104.12 74.99 103.934 75.02C103.747 75.0533 103.562 75.07 103.379 75.07C103.029 75.07 102.705 75.0117 102.409 74.895C102.115 74.775 101.86 74.6017 101.644 74.375C101.43 74.145 101.264 73.8617 101.144 73.525C101.024 73.1883 100.964 72.8017 100.964 72.365C100.964 72.0117 101.017 71.6817 101.124 71.375C101.234 71.0683 101.39 70.8033 101.594 70.58C101.797 70.3533 102.045 70.1767 102.339 70.05C102.632 69.92 102.962 69.855 103.329 69.855C103.632 69.855 103.912 69.9067 104.169 70.01C104.429 70.11 104.652 70.2567 104.839 70.45C105.029 70.64 105.177 70.8767 105.284 71.16C105.39 71.44 105.444 71.76 105.444 72.12C105.444 72.26 105.429 72.3533 105.399 72.4C105.369 72.4467 105.312 72.47 105.229 72.47H101.844C101.854 72.79 101.897 73.0683 101.974 73.305C102.054 73.5417 102.164 73.74 102.304 73.9C102.444 74.0567 102.61 74.175 102.804 74.255C102.997 74.3317 103.214 74.37 103.454 74.37C103.677 74.37 103.869 74.345 104.029 74.295C104.192 74.2417 104.332 74.185 104.449 74.125C104.565 74.065 104.662 74.01 104.739 73.96C104.819 73.9067 104.887 73.88 104.944 73.88C105.017 73.88 105.074 73.9083 105.114 73.965L105.364 74.29ZM110.77 69.935L108.705 75H107.905L105.84 69.935H106.565C106.638 69.935 106.698 69.9533 106.745 69.99C106.791 70.0267 106.823 70.07 106.84 70.12L108.125 73.38C108.165 73.5033 108.2 73.6233 108.23 73.74C108.26 73.8567 108.288 73.9733 108.315 74.09C108.341 73.9733 108.37 73.8567 108.4 73.74C108.43 73.6233 108.466 73.5033 108.51 73.38L109.81 70.12C109.83 70.0667 109.863 70.0233 109.91 69.99C109.956 69.9533 110.011 69.935 110.075 69.935H110.77ZM114.839 71.915C114.839 71.7083 114.809 71.52 114.749 71.35C114.692 71.1767 114.607 71.0283 114.494 70.905C114.384 70.7783 114.249 70.6817 114.089 70.615C113.929 70.545 113.747 70.51 113.544 70.51C113.117 70.51 112.779 70.635 112.529 70.885C112.282 71.1317 112.129 71.475 112.069 71.915H114.839ZM115.559 74.29C115.449 74.4233 115.317 74.54 115.164 74.64C115.011 74.7367 114.846 74.8167 114.669 74.88C114.496 74.9433 114.316 74.99 114.129 75.02C113.942 75.0533 113.757 75.07 113.574 75.07C113.224 75.07 112.901 75.0117 112.604 74.895C112.311 74.775 112.056 74.6017 111.839 74.375C111.626 74.145 111.459 73.8617 111.339 73.525C111.219 73.1883 111.159 72.8017 111.159 72.365C111.159 72.0117 111.212 71.6817 111.319 71.375C111.429 71.0683 111.586 70.8033 111.789 70.58C111.992 70.3533 112.241 70.1767 112.534 70.05C112.827 69.92 113.157 69.855 113.524 69.855C113.827 69.855 114.107 69.9067 114.364 70.01C114.624 70.11 114.847 70.2567 115.034 70.45C115.224 70.64 115.372 70.8767 115.479 71.16C115.586 71.44 115.639 71.76 115.639 72.12C115.639 72.26 115.624 72.3533 115.594 72.4C115.564 72.4467 115.507 72.47 115.424 72.47H112.039C112.049 72.79 112.092 73.0683 112.169 73.305C112.249 73.5417 112.359 73.74 112.499 73.9C112.639 74.0567 112.806 74.175 112.999 74.255C113.192 74.3317 113.409 74.37 113.649 74.37C113.872 74.37 114.064 74.345 114.224 74.295C114.387 74.2417 114.527 74.185 114.644 74.125C114.761 74.065 114.857 74.01 114.934 73.96C115.014 73.9067 115.082 73.88 115.139 73.88C115.212 73.88 115.269 73.9083 115.309 73.965L115.559 74.29ZM117.577 70.95C117.737 70.6033 117.934 70.3333 118.167 70.14C118.401 69.9433 118.686 69.845 119.022 69.845C119.129 69.845 119.231 69.8567 119.327 69.88C119.427 69.9033 119.516 69.94 119.592 69.99L119.527 70.655C119.507 70.7383 119.457 70.78 119.377 70.78C119.331 70.78 119.262 70.77 119.172 70.75C119.082 70.73 118.981 70.72 118.867 70.72C118.707 70.72 118.564 70.7433 118.437 70.79C118.314 70.8367 118.202 70.9067 118.102 71C118.006 71.09 117.917 71.2033 117.837 71.34C117.761 71.4733 117.691 71.6267 117.627 71.8V75H116.732V69.935H117.242C117.339 69.935 117.406 69.9533 117.442 69.99C117.479 70.0267 117.504 70.09 117.517 70.18L117.577 70.95ZM124.745 69.935L121.92 76.495C121.89 76.5617 121.852 76.615 121.805 76.655C121.762 76.695 121.693 76.715 121.6 76.715H120.94L121.865 74.705L119.775 69.935H120.545C120.622 69.935 120.682 69.955 120.725 69.995C120.772 70.0317 120.803 70.0733 120.82 70.12L122.175 73.31C122.228 73.45 122.273 73.5967 122.31 73.75C122.357 73.5933 122.407 73.445 122.46 73.305L123.775 70.12C123.795 70.0667 123.828 70.0233 123.875 69.99C123.925 69.9533 123.98 69.935 124.04 69.935H124.745ZM127.086 75.08C126.686 75.08 126.378 74.9683 126.161 74.745C125.948 74.5217 125.841 74.2 125.841 73.78V70.68H125.231C125.178 70.68 125.133 70.665 125.096 70.635C125.06 70.6017 125.041 70.5517 125.041 70.485V70.13L125.871 70.025L126.076 68.46C126.086 68.41 126.108 68.37 126.141 68.34C126.178 68.3067 126.225 68.29 126.281 68.29H126.731V70.035H128.196V70.68H126.731V73.72C126.731 73.9333 126.783 74.0917 126.886 74.195C126.99 74.2983 127.123 74.35 127.286 74.35C127.38 74.35 127.46 74.3383 127.526 74.315C127.596 74.2883 127.656 74.26 127.706 74.23C127.756 74.2 127.798 74.1733 127.831 74.15C127.868 74.1233 127.9 74.11 127.926 74.11C127.973 74.11 128.015 74.1383 128.051 74.195L128.311 74.62C128.158 74.7633 127.973 74.8767 127.756 74.96C127.54 75.04 127.316 75.08 127.086 75.08ZM130.01 70.61C130.227 70.38 130.467 70.1967 130.73 70.06C130.993 69.9233 131.297 69.855 131.64 69.855C131.917 69.855 132.16 69.9017 132.37 69.995C132.583 70.085 132.76 70.215 132.9 70.385C133.043 70.5517 133.152 70.7533 133.225 70.99C133.298 71.2267 133.335 71.4883 133.335 71.775V75H132.44V71.775C132.44 71.3917 132.352 71.095 132.175 70.885C132.002 70.6717 131.737 70.565 131.38 70.565C131.117 70.565 130.87 70.6283 130.64 70.755C130.413 70.8817 130.203 71.0533 130.01 71.27V75H129.115V67.635H130.01V70.61ZM135.631 69.935V75H134.741V69.935H135.631ZM135.821 68.345C135.821 68.4317 135.803 68.5133 135.766 68.59C135.733 68.6633 135.686 68.73 135.626 68.79C135.57 68.8467 135.501 68.8917 135.421 68.925C135.345 68.9583 135.263 68.975 135.176 68.975C135.09 68.975 135.008 68.9583 134.931 68.925C134.858 68.8917 134.793 68.8467 134.736 68.79C134.68 68.73 134.635 68.6633 134.601 68.59C134.568 68.5133 134.551 68.4317 134.551 68.345C134.551 68.2583 134.568 68.1767 134.601 68.1C134.635 68.02 134.68 67.9517 134.736 67.895C134.793 67.835 134.858 67.7883 134.931 67.755C135.008 67.7217 135.09 67.705 135.176 67.705C135.263 67.705 135.345 67.7217 135.421 67.755C135.501 67.7883 135.57 67.835 135.626 67.895C135.686 67.9517 135.733 68.02 135.766 68.1C135.803 68.1767 135.821 68.2583 135.821 68.345ZM137.934 70.67C138.044 70.5467 138.16 70.435 138.284 70.335C138.407 70.235 138.537 70.15 138.674 70.08C138.814 70.0067 138.96 69.9517 139.114 69.915C139.27 69.875 139.439 69.855 139.619 69.855C139.895 69.855 140.139 69.9017 140.349 69.995C140.562 70.085 140.739 70.215 140.879 70.385C141.022 70.5517 141.13 70.7533 141.204 70.99C141.277 71.2267 141.314 71.4883 141.314 71.775V75H140.419V71.775C140.419 71.3917 140.33 71.095 140.154 70.885C139.98 70.6717 139.715 70.565 139.359 70.565C139.095 70.565 138.849 70.6283 138.619 70.755C138.392 70.8817 138.182 71.0533 137.989 71.27V75H137.094V69.935H137.629C137.755 69.935 137.834 69.9967 137.864 70.12L137.934 70.67ZM144.435 72.525C144.615 72.525 144.773 72.5 144.91 72.45C145.047 72.4 145.162 72.33 145.255 72.24C145.348 72.15 145.418 72.0433 145.465 71.92C145.512 71.7933 145.535 71.655 145.535 71.505C145.535 71.195 145.44 70.9483 145.25 70.765C145.063 70.5817 144.792 70.49 144.435 70.49C144.075 70.49 143.8 70.5817 143.61 70.765C143.423 70.9483 143.33 71.195 143.33 71.505C143.33 71.655 143.353 71.7933 143.4 71.92C143.45 72.0433 143.522 72.15 143.615 72.24C143.708 72.33 143.823 72.4 143.96 72.45C144.097 72.5 144.255 72.525 144.435 72.525ZM146.04 75.275C146.04 75.1517 146.005 75.0517 145.935 74.975C145.865 74.8983 145.77 74.8383 145.65 74.795C145.533 74.7517 145.397 74.7217 145.24 74.705C145.083 74.685 144.917 74.67 144.74 74.66C144.567 74.65 144.39 74.64 144.21 74.63C144.03 74.62 143.857 74.6033 143.69 74.58C143.503 74.6667 143.35 74.7767 143.23 74.91C143.113 75.04 143.055 75.1933 143.055 75.37C143.055 75.4833 143.083 75.5883 143.14 75.685C143.2 75.785 143.29 75.87 143.41 75.94C143.53 76.0133 143.68 76.07 143.86 76.11C144.043 76.1533 144.258 76.175 144.505 76.175C144.745 76.175 144.96 76.1533 145.15 76.11C145.34 76.0667 145.5 76.005 145.63 75.925C145.763 75.845 145.865 75.75 145.935 75.64C146.005 75.53 146.04 75.4083 146.04 75.275ZM146.945 70.135V70.465C146.945 70.575 146.875 70.645 146.735 70.675L146.16 70.75C146.273 70.97 146.33 71.2133 146.33 71.48C146.33 71.7267 146.282 71.9517 146.185 72.155C146.092 72.355 145.962 72.5267 145.795 72.67C145.628 72.8133 145.428 72.9233 145.195 73C144.962 73.0767 144.708 73.115 144.435 73.115C144.198 73.115 143.975 73.0867 143.765 73.03C143.658 73.0967 143.577 73.1683 143.52 73.245C143.463 73.3183 143.435 73.3933 143.435 73.47C143.435 73.59 143.483 73.6817 143.58 73.745C143.68 73.805 143.81 73.8483 143.97 73.875C144.13 73.9017 144.312 73.9183 144.515 73.925C144.722 73.9317 144.932 73.9433 145.145 73.96C145.362 73.9733 145.572 73.9983 145.775 74.035C145.982 74.0717 146.165 74.1317 146.325 74.215C146.485 74.2983 146.613 74.4133 146.71 74.56C146.81 74.7067 146.86 74.8967 146.86 75.13C146.86 75.3467 146.805 75.5567 146.695 75.76C146.588 75.9633 146.433 76.1433 146.23 76.3C146.027 76.46 145.777 76.5867 145.48 76.68C145.187 76.7767 144.855 76.825 144.485 76.825C144.115 76.825 143.792 76.7883 143.515 76.715C143.238 76.6417 143.008 76.5433 142.825 76.42C142.642 76.2967 142.503 76.1533 142.41 75.99C142.32 75.83 142.275 75.6617 142.275 75.485C142.275 75.235 142.353 75.0233 142.51 74.85C142.667 74.6767 142.882 74.5383 143.155 74.435C143.005 74.3683 142.885 74.28 142.795 74.17C142.708 74.0567 142.665 73.905 142.665 73.715C142.665 73.6417 142.678 73.5667 142.705 73.49C142.732 73.41 142.772 73.3317 142.825 73.255C142.882 73.175 142.95 73.1 143.03 73.03C143.11 72.96 143.203 72.8983 143.31 72.845C143.06 72.705 142.865 72.52 142.725 72.29C142.585 72.0567 142.515 71.7867 142.515 71.48C142.515 71.2333 142.562 71.01 142.655 70.81C142.752 70.6067 142.885 70.435 143.055 70.295C143.225 70.1517 143.427 70.0417 143.66 69.965C143.897 69.8883 144.155 69.85 144.435 69.85C144.655 69.85 144.86 69.875 145.05 69.925C145.24 69.9717 145.413 70.0417 145.57 70.135H146.945ZM95.5568 81.855C95.9268 81.855 96.2601 81.9167 96.5568 82.04C96.8535 82.1633 97.1068 82.3383 97.3168 82.565C97.5268 82.7917 97.6868 83.0667 97.7968 83.39C97.9101 83.71 97.9668 84.0683 97.9668 84.465C97.9668 84.865 97.9101 85.225 97.7968 85.545C97.6868 85.865 97.5268 86.1383 97.3168 86.365C97.1068 86.5917 96.8535 86.7667 96.5568 86.89C96.2601 87.01 95.9268 87.07 95.5568 87.07C95.1835 87.07 94.8468 87.01 94.5468 86.89C94.2501 86.7667 93.9968 86.5917 93.7868 86.365C93.5768 86.1383 93.4151 85.865 93.3018 85.545C93.1918 85.225 93.1368 84.865 93.1368 84.465C93.1368 84.0683 93.1918 83.71 93.3018 83.39C93.4151 83.0667 93.5768 82.7917 93.7868 82.565C93.9968 82.3383 94.2501 82.1633 94.5468 82.04C94.8468 81.9167 95.1835 81.855 95.5568 81.855ZM95.5568 86.375C96.0568 86.375 96.4301 86.2083 96.6768 85.875C96.9235 85.5383 97.0468 85.07 97.0468 84.47C97.0468 83.8667 96.9235 83.3967 96.6768 83.06C96.4301 82.7233 96.0568 82.555 95.5568 82.555C95.3035 82.555 95.0818 82.5983 94.8918 82.685C94.7051 82.7717 94.5485 82.8967 94.4218 83.06C94.2985 83.2233 94.2051 83.425 94.1418 83.665C94.0818 83.9017 94.0518 84.17 94.0518 84.47C94.0518 85.07 94.1751 85.5383 94.4218 85.875C94.6718 86.2083 95.0501 86.375 95.5568 86.375ZM103.299 81.935L101.234 87H100.434L98.3689 81.935H99.0939C99.1672 81.935 99.2272 81.9533 99.2739 81.99C99.3206 82.0267 99.3522 82.07 99.3689 82.12L100.654 85.38C100.694 85.5033 100.729 85.6233 100.759 85.74C100.789 85.8567 100.817 85.9733 100.844 86.09C100.871 85.9733 100.899 85.8567 100.929 85.74C100.959 85.6233 100.996 85.5033 101.039 85.38L102.339 82.12C102.359 82.0667 102.392 82.0233 102.439 81.99C102.486 81.9533 102.541 81.935 102.604 81.935H103.299ZM107.368 83.915C107.368 83.7083 107.338 83.52 107.278 83.35C107.222 83.1767 107.137 83.0283 107.023 82.905C106.913 82.7783 106.778 82.6817 106.618 82.615C106.458 82.545 106.277 82.51 106.073 82.51C105.647 82.51 105.308 82.635 105.058 82.885C104.812 83.1317 104.658 83.475 104.598 83.915H107.368ZM108.088 86.29C107.978 86.4233 107.847 86.54 107.693 86.64C107.54 86.7367 107.375 86.8167 107.198 86.88C107.025 86.9433 106.845 86.99 106.658 87.02C106.472 87.0533 106.287 87.07 106.103 87.07C105.753 87.07 105.43 87.0117 105.133 86.895C104.84 86.775 104.585 86.6017 104.368 86.375C104.155 86.145 103.988 85.8617 103.868 85.525C103.748 85.1883 103.688 84.8017 103.688 84.365C103.688 84.0117 103.742 83.6817 103.848 83.375C103.958 83.0683 104.115 82.8033 104.318 82.58C104.522 82.3533 104.77 82.1767 105.063 82.05C105.357 81.92 105.687 81.855 106.053 81.855C106.357 81.855 106.637 81.9067 106.893 82.01C107.153 82.11 107.377 82.2567 107.563 82.45C107.753 82.64 107.902 82.8767 108.008 83.16C108.115 83.44 108.168 83.76 108.168 84.12C108.168 84.26 108.153 84.3533 108.123 84.4C108.093 84.4467 108.037 84.47 107.953 84.47H104.568C104.578 84.79 104.622 85.0683 104.698 85.305C104.778 85.5417 104.888 85.74 105.028 85.9C105.168 86.0567 105.335 86.175 105.528 86.255C105.722 86.3317 105.938 86.37 106.178 86.37C106.402 86.37 106.593 86.345 106.753 86.295C106.917 86.2417 107.057 86.185 107.173 86.125C107.29 86.065 107.387 86.01 107.463 85.96C107.543 85.9067 107.612 85.88 107.668 85.88C107.742 85.88 107.798 85.9083 107.838 85.965L108.088 86.29ZM110.107 82.95C110.267 82.6033 110.463 82.3333 110.697 82.14C110.93 81.9433 111.215 81.845 111.552 81.845C111.658 81.845 111.76 81.8567 111.857 81.88C111.957 81.9033 112.045 81.94 112.122 81.99L112.057 82.655C112.037 82.7383 111.987 82.78 111.907 82.78C111.86 82.78 111.792 82.77 111.702 82.75C111.612 82.73 111.51 82.72 111.397 82.72C111.237 82.72 111.093 82.7433 110.967 82.79C110.843 82.8367 110.732 82.9067 110.632 83C110.535 83.09 110.447 83.2033 110.367 83.34C110.29 83.4733 110.22 83.6267 110.157 83.8V87H109.262V81.935H109.772C109.868 81.935 109.935 81.9533 109.972 81.99C110.008 82.0267 110.033 82.09 110.047 82.18L110.107 82.95ZM116.143 85.78C116.306 86 116.485 86.155 116.678 86.245C116.875 86.335 117.09 86.38 117.323 86.38C117.8 86.38 118.165 86.2117 118.418 85.875C118.671 85.5383 118.798 85.0367 118.798 84.37C118.798 83.75 118.685 83.295 118.458 83.005C118.235 82.7117 117.915 82.565 117.498 82.565C117.208 82.565 116.955 82.6317 116.738 82.765C116.525 82.8983 116.326 83.0867 116.143 83.33V85.78ZM116.143 82.665C116.356 82.4183 116.596 82.2217 116.863 82.075C117.133 81.9283 117.443 81.855 117.793 81.855C118.09 81.855 118.356 81.9117 118.593 82.025C118.833 82.1383 119.036 82.3033 119.203 82.52C119.37 82.7333 119.496 82.9933 119.583 83.3C119.673 83.6067 119.718 83.9517 119.718 84.335C119.718 84.745 119.668 85.1183 119.568 85.455C119.468 85.7917 119.323 86.08 119.133 86.32C118.946 86.5567 118.718 86.7417 118.448 86.875C118.178 87.005 117.875 87.07 117.538 87.07C117.205 87.07 116.923 87.0083 116.693 86.885C116.466 86.7583 116.268 86.58 116.098 86.35L116.053 86.81C116.026 86.9367 115.95 87 115.823 87H115.248V79.635H116.143V82.665ZM125.087 81.935L122.262 88.495C122.232 88.5617 122.193 88.615 122.147 88.655C122.103 88.695 122.035 88.715 121.942 88.715H121.282L122.207 86.705L120.117 81.935H120.887C120.963 81.935 121.023 81.955 121.067 81.995C121.113 82.0317 121.145 82.0733 121.162 82.12L122.517 85.31C122.57 85.45 122.615 85.5967 122.652 85.75C122.698 85.5933 122.748 85.445 122.802 85.305L124.117 82.12C124.137 82.0667 124.17 82.0233 124.217 81.99C124.267 81.9533 124.322 81.935 124.382 81.935H125.087ZM132.572 86.32V87H128.732V86.32H130.267V81.435C130.267 81.2883 130.272 81.14 130.282 80.99L129.007 82.085C128.964 82.1217 128.921 82.145 128.877 82.155C128.834 82.1617 128.794 82.1617 128.757 82.155C128.721 82.1483 128.686 82.135 128.652 82.115C128.622 82.095 128.599 82.0733 128.582 82.05L128.302 81.665L130.437 79.82H131.162V86.32H132.572Z" fill="black"/>
</g>
<line id="Line 1" x1="116.5" y1="65" x2="116.5" y2="54" stroke="black"/>
</g>
</g>
</svg>
