<svg  viewBox="0 0 238 53" fill="none" xmlns="http://www.w3.org/2000/svg">
<g id="add">
<g id="array">
<rect id="Rectangle 1" x="0.5" y="17.5" width="33" height="35" stroke="black"/>
<rect id="Rectangle 7" x="204.5" y="17.5" width="33" height="35" stroke="black"/>
<rect id="Rectangle 6" x="170.5" y="17.5" width="33" height="35" stroke="black"/>
<rect id="Rectangle 5" x="136.5" y="17.5" width="33" height="35" stroke="black"/>
<rect id="Rectangle 4" x="102.5" y="17.5" width="33" height="35" stroke="black"/>
<rect id="Rectangle 3" x="68.5" y="17.5" width="33" height="35" stroke="black"/>
<rect id="Rectangle 2" x="34.5" y="17.5" width="33" height="35" stroke="black"/>
<path id="7" d="M20.5055 30.402V30.882C20.5055 31.018 20.4895 31.13 20.4575 31.218C20.4295 31.306 20.4015 31.38 20.3735 31.44L16.8095 38.622C16.7575 38.726 16.6855 38.816 16.5935 38.892C16.5015 38.964 16.3795 39 16.2275 39H15.4595L19.0715 31.908C19.1235 31.808 19.1775 31.716 19.2335 31.632C19.2895 31.548 19.3495 31.468 19.4135 31.392H14.9255C14.8575 31.392 14.7975 31.366 14.7455 31.314C14.6935 31.258 14.6675 31.196 14.6675 31.128V30.402H20.5055Z" fill="black"/>
<path id="add8" style="transform: translate(-35px, -27px)" d="M153.5 38.244C153.78 38.244 154.03 38.206 154.25 38.13C154.474 38.05 154.662 37.94 154.814 37.8C154.97 37.656 155.088 37.486 155.168 37.29C155.252 37.09 155.294 36.87 155.294 36.63C155.294 36.334 155.244 36.082 155.144 35.874C155.048 35.662 154.916 35.49 154.748 35.358C154.584 35.226 154.394 35.13 154.178 35.07C153.962 35.006 153.736 34.974 153.5 34.974C153.264 34.974 153.038 35.006 152.822 35.07C152.606 35.13 152.414 35.226 152.246 35.358C152.082 35.49 151.95 35.662 151.85 35.874C151.754 36.082 151.706 36.334 151.706 36.63C151.706 36.87 151.746 37.09 151.826 37.29C151.91 37.486 152.028 37.656 152.18 37.8C152.336 37.94 152.524 38.05 152.744 38.13C152.968 38.206 153.22 38.244 153.5 38.244ZM153.5 31.134C153.244 31.134 153.018 31.172 152.822 31.248C152.63 31.324 152.468 31.428 152.336 31.56C152.208 31.692 152.11 31.846 152.042 32.022C151.978 32.198 151.946 32.386 151.946 32.586C151.946 32.782 151.974 32.972 152.03 33.156C152.086 33.34 152.176 33.504 152.3 33.648C152.424 33.788 152.584 33.902 152.78 33.99C152.98 34.074 153.22 34.116 153.5 34.116C153.78 34.116 154.018 34.074 154.214 33.99C154.414 33.902 154.576 33.788 154.7 33.648C154.824 33.504 154.914 33.34 154.97 33.156C155.026 32.972 155.054 32.782 155.054 32.586C155.054 32.386 155.02 32.198 154.952 32.022C154.888 31.846 154.79 31.692 154.658 31.56C154.53 31.428 154.368 31.324 154.172 31.248C153.98 31.172 153.756 31.134 153.5 31.134ZM154.73 34.518C155.266 34.67 155.678 34.924 155.966 35.28C156.254 35.636 156.398 36.092 156.398 36.648C156.398 37.024 156.326 37.364 156.182 37.668C156.042 37.968 155.844 38.224 155.588 38.436C155.336 38.648 155.032 38.812 154.676 38.928C154.32 39.04 153.928 39.096 153.5 39.096C153.072 39.096 152.68 39.04 152.324 38.928C151.968 38.812 151.662 38.648 151.406 38.436C151.15 38.224 150.952 37.968 150.812 37.668C150.672 37.364 150.602 37.024 150.602 36.648C150.602 36.092 150.746 35.636 151.034 35.28C151.322 34.924 151.734 34.67 152.27 34.518C151.818 34.35 151.476 34.1 151.244 33.768C151.016 33.432 150.902 33.032 150.902 32.568C150.902 32.252 150.964 31.956 151.088 31.68C151.212 31.404 151.388 31.164 151.616 30.96C151.844 30.756 152.116 30.596 152.432 30.48C152.752 30.364 153.108 30.306 153.5 30.306C153.888 30.306 154.242 30.364 154.562 30.48C154.882 30.596 155.156 30.756 155.384 30.96C155.612 31.164 155.788 31.404 155.912 31.68C156.036 31.956 156.098 32.252 156.098 32.568C156.098 33.032 155.982 33.432 155.75 33.768C155.522 34.1 155.182 34.35 154.73 34.518Z" fill="black"/>
<path id="2" d="M121.942 37.986C122.058 37.986 122.15 38.02 122.218 38.088C122.286 38.156 122.32 38.244 122.32 38.352V39H116.584V38.634C116.584 38.558 116.6 38.48 116.632 38.4C116.664 38.32 116.714 38.246 116.782 38.178L119.536 35.412C119.764 35.18 119.972 34.958 120.16 34.746C120.348 34.53 120.508 34.314 120.64 34.098C120.772 33.882 120.874 33.664 120.946 33.444C121.018 33.22 121.054 32.982 121.054 32.73C121.054 32.478 121.014 32.258 120.934 32.07C120.854 31.878 120.744 31.72 120.604 31.596C120.468 31.472 120.306 31.38 120.118 31.32C119.93 31.256 119.728 31.224 119.512 31.224C119.292 31.224 119.09 31.256 118.906 31.32C118.722 31.384 118.558 31.474 118.414 31.59C118.274 31.702 118.156 31.836 118.06 31.992C117.964 32.148 117.896 32.32 117.856 32.508C117.808 32.648 117.742 32.742 117.658 32.79C117.578 32.834 117.464 32.846 117.316 32.826L116.758 32.73C116.814 32.338 116.922 31.992 117.082 31.692C117.246 31.388 117.45 31.134 117.694 30.93C117.942 30.726 118.224 30.572 118.54 30.468C118.856 30.36 119.198 30.306 119.566 30.306C119.93 30.306 120.27 30.36 120.586 30.468C120.902 30.576 121.176 30.734 121.408 30.942C121.64 31.146 121.822 31.396 121.954 31.692C122.086 31.988 122.152 32.324 122.152 32.7C122.152 33.02 122.104 33.318 122.008 33.594C121.912 33.866 121.782 34.126 121.618 34.374C121.454 34.622 121.264 34.864 121.048 35.1C120.836 35.336 120.61 35.574 120.37 35.814L118.102 38.13C118.262 38.086 118.424 38.052 118.588 38.028C118.752 38 118.91 37.986 119.062 37.986H121.942Z" fill="black"/>
<path id="3" d="M82.7995 32.73C82.8555 32.338 82.9635 31.992 83.1235 31.692C83.2835 31.388 83.4855 31.134 83.7295 30.93C83.9775 30.726 84.2595 30.572 84.5755 30.468C84.8955 30.36 85.2395 30.306 85.6075 30.306C85.9715 30.306 86.3075 30.358 86.6155 30.462C86.9235 30.566 87.1875 30.714 87.4075 30.906C87.6315 31.098 87.8055 31.33 87.9295 31.602C88.0535 31.874 88.1155 32.176 88.1155 32.508C88.1155 32.78 88.0795 33.024 88.0075 33.24C87.9395 33.452 87.8395 33.638 87.7075 33.798C87.5795 33.958 87.4235 34.094 87.2395 34.206C87.0555 34.318 86.8495 34.41 86.6215 34.482C87.1815 34.626 87.6015 34.874 87.8815 35.226C88.1655 35.574 88.3075 36.01 88.3075 36.534C88.3075 36.93 88.2315 37.286 88.0795 37.602C87.9315 37.918 87.7275 38.188 87.4675 38.412C87.2075 38.632 86.9035 38.802 86.5555 38.922C86.2115 39.038 85.8415 39.096 85.4455 39.096C84.9895 39.096 84.5995 39.04 84.2755 38.928C83.9515 38.812 83.6775 38.654 83.4535 38.454C83.2295 38.254 83.0455 38.018 82.9015 37.746C82.7575 37.47 82.6355 37.172 82.5355 36.852L82.9975 36.66C83.1175 36.608 83.2335 36.594 83.3455 36.618C83.4615 36.642 83.5455 36.708 83.5975 36.816C83.6495 36.928 83.7135 37.062 83.7895 37.218C83.8695 37.374 83.9775 37.524 84.1135 37.668C84.2495 37.812 84.4215 37.934 84.6295 38.034C84.8415 38.134 85.1095 38.184 85.4335 38.184C85.7335 38.184 85.9955 38.136 86.2195 38.04C86.4475 37.94 86.6355 37.812 86.7835 37.656C86.9355 37.5 87.0495 37.326 87.1255 37.134C87.2015 36.942 87.2395 36.752 87.2395 36.564C87.2395 36.332 87.2095 36.12 87.1495 35.928C87.0895 35.736 86.9775 35.57 86.8135 35.43C86.6495 35.29 86.4235 35.18 86.1355 35.1C85.8515 35.02 85.4855 34.98 85.0375 34.98V34.206C85.4055 34.202 85.7175 34.162 85.9735 34.086C86.2335 34.01 86.4435 33.906 86.6035 33.774C86.7675 33.642 86.8855 33.484 86.9575 33.3C87.0335 33.116 87.0715 32.912 87.0715 32.688C87.0715 32.44 87.0315 32.224 86.9515 32.04C86.8755 31.856 86.7695 31.704 86.6335 31.584C86.4975 31.464 86.3355 31.374 86.1475 31.314C85.9635 31.254 85.7635 31.224 85.5475 31.224C85.3315 31.224 85.1295 31.256 84.9415 31.32C84.7575 31.384 84.5935 31.474 84.4495 31.59C84.3095 31.702 84.1915 31.836 84.0955 31.992C83.9995 32.148 83.9315 32.32 83.8915 32.508C83.8395 32.648 83.7735 32.742 83.6935 32.79C83.6175 32.834 83.5055 32.846 83.3575 32.826L82.7995 32.73Z" fill="black"/>
<path id="1" d="M54.1275 38.184V39H49.5195V38.184H51.3615V32.322C51.3615 32.146 51.3675 31.968 51.3795 31.788L49.8495 33.102C49.7975 33.146 49.7455 33.174 49.6935 33.186C49.6415 33.194 49.5935 33.194 49.5495 33.186C49.5055 33.178 49.4635 33.162 49.4235 33.138C49.3875 33.114 49.3595 33.088 49.3395 33.06L49.0035 32.598L51.5655 30.384H52.4355V38.184H54.1275Z" fill="black"/>
</g>
<g id="size-5">
<path id="Size=5" d="M143.534 3.955C143.504 4.005 143.471 4.04333 143.434 4.07C143.401 4.09333 143.359 4.105 143.309 4.105C143.252 4.105 143.186 4.07667 143.109 4.02C143.032 3.96333 142.936 3.90167 142.819 3.835C142.706 3.765 142.567 3.70167 142.404 3.645C142.244 3.58833 142.049 3.56 141.819 3.56C141.602 3.56 141.411 3.59 141.244 3.65C141.081 3.70667 140.942 3.785 140.829 3.885C140.719 3.985 140.636 4.10333 140.579 4.24C140.522 4.37333 140.494 4.51833 140.494 4.675C140.494 4.875 140.542 5.04167 140.639 5.175C140.739 5.305 140.869 5.41667 141.029 5.51C141.192 5.60333 141.376 5.685 141.579 5.755C141.786 5.82167 141.996 5.89167 142.209 5.965C142.426 6.03833 142.636 6.12167 142.839 6.215C143.046 6.305 143.229 6.42 143.389 6.56C143.552 6.7 143.682 6.87167 143.779 7.075C143.879 7.27833 143.929 7.52833 143.929 7.825C143.929 8.13833 143.876 8.43333 143.769 8.71C143.662 8.98333 143.506 9.22167 143.299 9.425C143.096 9.62833 142.844 9.78833 142.544 9.905C142.247 10.0217 141.909 10.08 141.529 10.08C141.062 10.08 140.639 9.99667 140.259 9.83C139.879 9.66 139.554 9.43167 139.284 9.145L139.564 8.685C139.591 8.64833 139.622 8.61833 139.659 8.595C139.699 8.56833 139.742 8.555 139.789 8.555C139.832 8.555 139.881 8.57333 139.934 8.61C139.991 8.64333 140.054 8.68667 140.124 8.74C140.194 8.79333 140.274 8.85167 140.364 8.915C140.454 8.97833 140.556 9.03667 140.669 9.09C140.786 9.14333 140.917 9.18833 141.064 9.225C141.211 9.25833 141.376 9.275 141.559 9.275C141.789 9.275 141.994 9.24333 142.174 9.18C142.354 9.11667 142.506 9.02833 142.629 8.915C142.756 8.79833 142.852 8.66 142.919 8.5C142.986 8.34 143.019 8.16167 143.019 7.965C143.019 7.74833 142.969 7.57167 142.869 7.435C142.772 7.295 142.644 7.17833 142.484 7.085C142.324 6.99167 142.141 6.91333 141.934 6.85C141.727 6.78333 141.517 6.71667 141.304 6.65C141.091 6.58 140.881 6.5 140.674 6.41C140.467 6.32 140.284 6.20333 140.124 6.06C139.964 5.91667 139.834 5.73833 139.734 5.525C139.637 5.30833 139.589 5.04167 139.589 4.725C139.589 4.47167 139.637 4.22667 139.734 3.99C139.834 3.75333 139.977 3.54333 140.164 3.36C140.354 3.17667 140.586 3.03 140.859 2.92C141.136 2.81 141.452 2.755 141.809 2.755C142.209 2.755 142.572 2.81833 142.899 2.945C143.229 3.07167 143.519 3.255 143.769 3.495L143.534 3.955ZM145.98 4.935V10H145.09V4.935H145.98ZM146.17 3.345C146.17 3.43167 146.152 3.51333 146.115 3.59C146.082 3.66333 146.035 3.73 145.975 3.79C145.918 3.84667 145.85 3.89167 145.77 3.925C145.693 3.95833 145.612 3.975 145.525 3.975C145.438 3.975 145.357 3.95833 145.28 3.925C145.207 3.89167 145.142 3.84667 145.085 3.79C145.028 3.73 144.983 3.66333 144.95 3.59C144.917 3.51333 144.9 3.43167 144.9 3.345C144.9 3.25833 144.917 3.17667 144.95 3.1C144.983 3.02 145.028 2.95167 145.085 2.895C145.142 2.835 145.207 2.78833 145.28 2.755C145.357 2.72167 145.438 2.705 145.525 2.705C145.612 2.705 145.693 2.72167 145.77 2.755C145.85 2.78833 145.918 2.835 145.975 2.895C146.035 2.95167 146.082 3.02 146.115 3.1C146.152 3.17667 146.17 3.25833 146.17 3.345ZM150.937 5.315C150.937 5.37833 150.926 5.44 150.902 5.5C150.882 5.56 150.854 5.61167 150.817 5.655L148.072 9.305H150.842V10H147.027V9.63C147.027 9.58667 147.037 9.53667 147.057 9.48C147.077 9.42 147.107 9.36333 147.147 9.31L149.907 5.635H147.182V4.935H150.937V5.315ZM155.256 6.915C155.256 6.70833 155.226 6.52 155.166 6.35C155.109 6.17667 155.024 6.02833 154.911 5.905C154.801 5.77833 154.666 5.68167 154.506 5.615C154.346 5.545 154.164 5.51 153.961 5.51C153.534 5.51 153.196 5.635 152.946 5.885C152.699 6.13167 152.546 6.475 152.486 6.915H155.256ZM155.976 9.29C155.866 9.42333 155.734 9.54 155.581 9.64C155.428 9.73667 155.263 9.81667 155.086 9.88C154.913 9.94333 154.733 9.99 154.546 10.02C154.359 10.0533 154.174 10.07 153.991 10.07C153.641 10.07 153.318 10.0117 153.021 9.895C152.728 9.775 152.473 9.60167 152.256 9.375C152.043 9.145 151.876 8.86167 151.756 8.525C151.636 8.18833 151.576 7.80167 151.576 7.365C151.576 7.01167 151.629 6.68167 151.736 6.375C151.846 6.06833 152.003 5.80333 152.206 5.58C152.409 5.35333 152.658 5.17667 152.951 5.05C153.244 4.92 153.574 4.855 153.941 4.855C154.244 4.855 154.524 4.90667 154.781 5.01C155.041 5.11 155.264 5.25667 155.451 5.45C155.641 5.64 155.789 5.87667 155.896 6.16C156.003 6.44 156.056 6.76 156.056 7.12C156.056 7.26 156.041 7.35333 156.011 7.4C155.981 7.44667 155.924 7.47 155.841 7.47H152.456C152.466 7.79 152.509 8.06833 152.586 8.305C152.666 8.54167 152.776 8.74 152.916 8.9C153.056 9.05667 153.223 9.175 153.416 9.255C153.609 9.33167 153.826 9.37 154.066 9.37C154.289 9.37 154.481 9.345 154.641 9.295C154.804 9.24167 154.944 9.185 155.061 9.125C155.178 9.065 155.274 9.01 155.351 8.96C155.431 8.90667 155.499 8.88 155.556 8.88C155.629 8.88 155.686 8.90833 155.726 8.965L155.976 9.29ZM157.194 7.13H161.494V7.805H157.194V7.13ZM157.194 5.455H161.494V6.13H157.194V5.455ZM164.055 5.54C164.428 5.46 164.772 5.42 165.085 5.42C165.458 5.42 165.788 5.475 166.075 5.585C166.362 5.695 166.6 5.84667 166.79 6.04C166.983 6.23333 167.128 6.46167 167.225 6.725C167.325 6.98833 167.375 7.275 167.375 7.585C167.375 7.965 167.308 8.30833 167.175 8.615C167.045 8.92167 166.863 9.185 166.63 9.405C166.4 9.62167 166.128 9.78833 165.815 9.905C165.502 10.0217 165.163 10.08 164.8 10.08C164.59 10.08 164.388 10.0583 164.195 10.015C164.002 9.975 163.82 9.92 163.65 9.85C163.483 9.78 163.328 9.7 163.185 9.61C163.042 9.52 162.915 9.425 162.805 9.325L163.08 8.945C163.14 8.85833 163.218 8.815 163.315 8.815C163.382 8.815 163.457 8.84167 163.54 8.895C163.623 8.945 163.725 9.00167 163.845 9.065C163.965 9.12833 164.105 9.18667 164.265 9.24C164.428 9.29 164.622 9.315 164.845 9.315C165.095 9.315 165.32 9.275 165.52 9.195C165.72 9.115 165.892 9.00167 166.035 8.855C166.178 8.705 166.288 8.52667 166.365 8.32C166.442 8.11333 166.48 7.88167 166.48 7.625C166.48 7.40167 166.447 7.2 166.38 7.02C166.317 6.84 166.218 6.68667 166.085 6.56C165.955 6.43333 165.792 6.335 165.595 6.265C165.398 6.195 165.168 6.16 164.905 6.16C164.725 6.16 164.537 6.175 164.34 6.205C164.147 6.235 163.948 6.28333 163.745 6.35L163.185 6.185L163.76 2.835H167.155V3.225C167.155 3.35167 167.115 3.45667 167.035 3.54C166.958 3.62 166.825 3.66 166.635 3.66H164.385L164.055 5.54Z" fill="black"/>
<path id="Arrow 1" d="M152.646 24.3536C152.842 24.5488 153.158 24.5488 153.354 24.3536L156.536 21.1716C156.731 20.9763 156.731 20.6597 156.536 20.4645C156.34 20.2692 156.024 20.2692 155.828 20.4645L153 23.2929L150.172 20.4645C149.976 20.2692 149.66 20.2692 149.464 20.4645C149.269 20.6597 149.269 20.9763 149.464 21.1716L152.646 24.3536ZM152.5 13V24H153.5V13H152.5Z" fill="black"/>
</g>
<g id="size-6" style="opacity: 0">
<path id="Size=6" d="M177.534 3.955C177.504 4.005 177.471 4.04333 177.434 4.07C177.401 4.09333 177.359 4.105 177.309 4.105C177.252 4.105 177.186 4.07667 177.109 4.02C177.032 3.96333 176.936 3.90167 176.819 3.835C176.706 3.765 176.567 3.70167 176.404 3.645C176.244 3.58833 176.049 3.56 175.819 3.56C175.602 3.56 175.411 3.59 175.244 3.65C175.081 3.70667 174.942 3.785 174.829 3.885C174.719 3.985 174.636 4.10333 174.579 4.24C174.522 4.37333 174.494 4.51833 174.494 4.675C174.494 4.875 174.542 5.04167 174.639 5.175C174.739 5.305 174.869 5.41667 175.029 5.51C175.192 5.60333 175.376 5.685 175.579 5.755C175.786 5.82167 175.996 5.89167 176.209 5.965C176.426 6.03833 176.636 6.12167 176.839 6.215C177.046 6.305 177.229 6.42 177.389 6.56C177.552 6.7 177.682 6.87167 177.779 7.075C177.879 7.27833 177.929 7.52833 177.929 7.825C177.929 8.13833 177.876 8.43333 177.769 8.71C177.662 8.98333 177.506 9.22167 177.299 9.425C177.096 9.62833 176.844 9.78833 176.544 9.905C176.247 10.0217 175.909 10.08 175.529 10.08C175.062 10.08 174.639 9.99667 174.259 9.83C173.879 9.66 173.554 9.43167 173.284 9.145L173.564 8.685C173.591 8.64833 173.622 8.61833 173.659 8.595C173.699 8.56833 173.742 8.555 173.789 8.555C173.832 8.555 173.881 8.57333 173.934 8.61C173.991 8.64333 174.054 8.68667 174.124 8.74C174.194 8.79333 174.274 8.85167 174.364 8.915C174.454 8.97833 174.556 9.03667 174.669 9.09C174.786 9.14333 174.917 9.18833 175.064 9.225C175.211 9.25833 175.376 9.275 175.559 9.275C175.789 9.275 175.994 9.24333 176.174 9.18C176.354 9.11667 176.506 9.02833 176.629 8.915C176.756 8.79833 176.852 8.66 176.919 8.5C176.986 8.34 177.019 8.16167 177.019 7.965C177.019 7.74833 176.969 7.57167 176.869 7.435C176.772 7.295 176.644 7.17833 176.484 7.085C176.324 6.99167 176.141 6.91333 175.934 6.85C175.727 6.78333 175.517 6.71667 175.304 6.65C175.091 6.58 174.881 6.5 174.674 6.41C174.467 6.32 174.284 6.20333 174.124 6.06C173.964 5.91667 173.834 5.73833 173.734 5.525C173.637 5.30833 173.589 5.04167 173.589 4.725C173.589 4.47167 173.637 4.22667 173.734 3.99C173.834 3.75333 173.977 3.54333 174.164 3.36C174.354 3.17667 174.586 3.03 174.859 2.92C175.136 2.81 175.452 2.755 175.809 2.755C176.209 2.755 176.572 2.81833 176.899 2.945C177.229 3.07167 177.519 3.255 177.769 3.495L177.534 3.955ZM179.98 4.935V10H179.09V4.935H179.98ZM180.17 3.345C180.17 3.43167 180.152 3.51333 180.115 3.59C180.082 3.66333 180.035 3.73 179.975 3.79C179.918 3.84667 179.85 3.89167 179.77 3.925C179.693 3.95833 179.612 3.975 179.525 3.975C179.438 3.975 179.357 3.95833 179.28 3.925C179.207 3.89167 179.142 3.84667 179.085 3.79C179.028 3.73 178.983 3.66333 178.95 3.59C178.917 3.51333 178.9 3.43167 178.9 3.345C178.9 3.25833 178.917 3.17667 178.95 3.1C178.983 3.02 179.028 2.95167 179.085 2.895C179.142 2.835 179.207 2.78833 179.28 2.755C179.357 2.72167 179.438 2.705 179.525 2.705C179.612 2.705 179.693 2.72167 179.77 2.755C179.85 2.78833 179.918 2.835 179.975 2.895C180.035 2.95167 180.082 3.02 180.115 3.1C180.152 3.17667 180.17 3.25833 180.17 3.345ZM184.937 5.315C184.937 5.37833 184.926 5.44 184.902 5.5C184.882 5.56 184.854 5.61167 184.817 5.655L182.072 9.305H184.842V10H181.027V9.63C181.027 9.58667 181.037 9.53667 181.057 9.48C181.077 9.42 181.107 9.36333 181.147 9.31L183.907 5.635H181.182V4.935H184.937V5.315ZM189.256 6.915C189.256 6.70833 189.226 6.52 189.166 6.35C189.109 6.17667 189.024 6.02833 188.911 5.905C188.801 5.77833 188.666 5.68167 188.506 5.615C188.346 5.545 188.164 5.51 187.961 5.51C187.534 5.51 187.196 5.635 186.946 5.885C186.699 6.13167 186.546 6.475 186.486 6.915H189.256ZM189.976 9.29C189.866 9.42333 189.734 9.54 189.581 9.64C189.428 9.73667 189.263 9.81667 189.086 9.88C188.913 9.94333 188.733 9.99 188.546 10.02C188.359 10.0533 188.174 10.07 187.991 10.07C187.641 10.07 187.318 10.0117 187.021 9.895C186.728 9.775 186.473 9.60167 186.256 9.375C186.043 9.145 185.876 8.86167 185.756 8.525C185.636 8.18833 185.576 7.80167 185.576 7.365C185.576 7.01167 185.629 6.68167 185.736 6.375C185.846 6.06833 186.003 5.80333 186.206 5.58C186.409 5.35333 186.658 5.17667 186.951 5.05C187.244 4.92 187.574 4.855 187.941 4.855C188.244 4.855 188.524 4.90667 188.781 5.01C189.041 5.11 189.264 5.25667 189.451 5.45C189.641 5.64 189.789 5.87667 189.896 6.16C190.003 6.44 190.056 6.76 190.056 7.12C190.056 7.26 190.041 7.35333 190.011 7.4C189.981 7.44667 189.924 7.47 189.841 7.47H186.456C186.466 7.79 186.509 8.06833 186.586 8.305C186.666 8.54167 186.776 8.74 186.916 8.9C187.056 9.05667 187.223 9.175 187.416 9.255C187.609 9.33167 187.826 9.37 188.066 9.37C188.289 9.37 188.481 9.345 188.641 9.295C188.804 9.24167 188.944 9.185 189.061 9.125C189.178 9.065 189.274 9.01 189.351 8.96C189.431 8.90667 189.499 8.88 189.556 8.88C189.629 8.88 189.686 8.90833 189.726 8.965L189.976 9.29ZM191.194 7.13H195.494V7.805H191.194V7.13ZM191.194 5.455H195.494V6.13H191.194V5.455ZM199.135 9.34C199.375 9.34 199.592 9.30167 199.785 9.225C199.982 9.14833 200.148 9.04167 200.285 8.905C200.425 8.76833 200.532 8.60667 200.605 8.42C200.682 8.23333 200.72 8.03 200.72 7.81C200.72 7.57667 200.683 7.36667 200.61 7.18C200.537 6.99 200.432 6.83 200.295 6.7C200.162 6.56667 200.002 6.465 199.815 6.395C199.628 6.325 199.423 6.29 199.2 6.29C198.96 6.29 198.743 6.33167 198.55 6.415C198.357 6.495 198.192 6.605 198.055 6.745C197.922 6.88167 197.818 7.04167 197.745 7.225C197.675 7.405 197.64 7.59333 197.64 7.79C197.64 8.02 197.673 8.23 197.74 8.42C197.807 8.61 197.903 8.77333 198.03 8.91C198.16 9.04667 198.317 9.15333 198.5 9.23C198.687 9.30333 198.898 9.34 199.135 9.34ZM198.615 5.52C198.552 5.6 198.49 5.67833 198.43 5.755C198.373 5.82833 198.318 5.90167 198.265 5.975C198.435 5.85833 198.622 5.76833 198.825 5.705C199.028 5.64167 199.25 5.61 199.49 5.61C199.78 5.61 200.053 5.65833 200.31 5.755C200.567 5.84833 200.79 5.98667 200.98 6.17C201.173 6.35 201.327 6.57333 201.44 6.84C201.553 7.10333 201.61 7.405 201.61 7.745C201.61 8.075 201.55 8.38167 201.43 8.665C201.31 8.94833 201.142 9.195 200.925 9.405C200.712 9.615 200.453 9.78 200.15 9.9C199.85 10.02 199.518 10.08 199.155 10.08C198.795 10.08 198.468 10.0233 198.175 9.91C197.882 9.79333 197.632 9.63 197.425 9.42C197.222 9.20667 197.063 8.95 196.95 8.65C196.84 8.34667 196.785 8.00833 196.785 7.635C196.785 7.32167 196.853 6.98833 196.99 6.635C197.13 6.27833 197.352 5.89833 197.655 5.495L199.475 3.05C199.522 2.99 199.585 2.94 199.665 2.9C199.748 2.85667 199.843 2.835 199.95 2.835H200.74L198.615 5.52Z" fill="black"/>
<path id="Arrow 2" d="M186.646 24.3536C186.842 24.5488 187.158 24.5488 187.354 24.3536L190.536 21.1716C190.731 20.9763 190.731 20.6597 190.536 20.4645C190.34 20.2692 190.024 20.2692 189.828 20.4645L187 23.2929L184.172 20.4645C183.976 20.2692 183.66 20.2692 183.464 20.4645C183.269 20.6597 183.269 20.9763 183.464 21.1716L186.646 24.3536ZM186.5 13V24H187.5V13H186.5Z" fill="black"/>
</g>
</g>
</svg>
