<svg viewBox="0 0 238 72" fill="none" xmlns="http://www.w3.org/2000/svg">
<g id="get">
<g id="index-3" style="transform: translate(-100px, 0px)">
<path id="index=3" d="M103.459 4.935V10H102.569V4.935H103.459ZM103.649 3.345C103.649 3.43167 103.631 3.51333 103.594 3.59C103.561 3.66333 103.514 3.73 103.454 3.79C103.398 3.84667 103.329 3.89167 103.249 3.925C103.173 3.95833 103.091 3.975 103.004 3.975C102.918 3.975 102.836 3.95833 102.759 3.925C102.686 3.89167 102.621 3.84667 102.564 3.79C102.508 3.73 102.463 3.66333 102.429 3.59C102.396 3.51333 102.379 3.43167 102.379 3.345C102.379 3.25833 102.396 3.17667 102.429 3.1C102.463 3.02 102.508 2.95167 102.564 2.895C102.621 2.835 102.686 2.78833 102.759 2.755C102.836 2.72167 102.918 2.705 103.004 2.705C103.091 2.705 103.173 2.72167 103.249 2.755C103.329 2.78833 103.398 2.835 103.454 2.895C103.514 2.95167 103.561 3.02 103.594 3.1C103.631 3.17667 103.649 3.25833 103.649 3.345ZM105.762 5.67C105.872 5.54667 105.988 5.435 106.112 5.335C106.235 5.235 106.365 5.15 106.502 5.08C106.642 5.00667 106.788 4.95167 106.942 4.915C107.098 4.875 107.267 4.855 107.447 4.855C107.723 4.855 107.967 4.90167 108.177 4.995C108.39 5.085 108.567 5.215 108.707 5.385C108.85 5.55167 108.958 5.75333 109.032 5.99C109.105 6.22667 109.142 6.48833 109.142 6.775V10H108.247V6.775C108.247 6.39167 108.158 6.095 107.982 5.885C107.808 5.67167 107.543 5.565 107.187 5.565C106.923 5.565 106.677 5.62833 106.447 5.755C106.22 5.88167 106.01 6.05333 105.817 6.27V10H104.922V4.935H105.457C105.583 4.935 105.662 4.99667 105.692 5.12L105.762 5.67ZM113.798 6.14C113.631 5.91667 113.451 5.76167 113.258 5.675C113.065 5.585 112.848 5.54 112.608 5.54C112.138 5.54 111.776 5.70833 111.523 6.045C111.27 6.38167 111.143 6.86167 111.143 7.485C111.143 7.815 111.171 8.09833 111.228 8.335C111.285 8.56833 111.368 8.76167 111.478 8.915C111.588 9.065 111.723 9.175 111.883 9.245C112.043 9.315 112.225 9.35 112.428 9.35C112.721 9.35 112.976 9.28333 113.193 9.15C113.413 9.01667 113.615 8.82833 113.798 8.585V6.14ZM114.688 2.635V10H114.158C114.031 10 113.951 9.93833 113.918 9.815L113.838 9.2C113.621 9.46 113.375 9.67 113.098 9.83C112.821 9.99 112.501 10.07 112.138 10.07C111.848 10.07 111.585 10.015 111.348 9.905C111.111 9.79167 110.91 9.62667 110.743 9.41C110.576 9.19333 110.448 8.92333 110.358 8.6C110.268 8.27667 110.223 7.905 110.223 7.485C110.223 7.11167 110.273 6.765 110.373 6.445C110.473 6.12167 110.616 5.84167 110.803 5.605C110.99 5.36833 111.218 5.18333 111.488 5.05C111.761 4.91333 112.068 4.845 112.408 4.845C112.718 4.845 112.983 4.89833 113.203 5.005C113.426 5.10833 113.625 5.25333 113.798 5.44V2.635H114.688ZM119.484 6.915C119.484 6.70833 119.454 6.52 119.394 6.35C119.337 6.17667 119.252 6.02833 119.139 5.905C119.029 5.77833 118.894 5.68167 118.734 5.615C118.574 5.545 118.392 5.51 118.189 5.51C117.762 5.51 117.424 5.635 117.174 5.885C116.927 6.13167 116.774 6.475 116.714 6.915H119.484ZM120.204 9.29C120.094 9.42333 119.962 9.54 119.809 9.64C119.655 9.73667 119.49 9.81667 119.314 9.88C119.14 9.94333 118.96 9.99 118.774 10.02C118.587 10.0533 118.402 10.07 118.219 10.07C117.869 10.07 117.545 10.0117 117.249 9.895C116.955 9.775 116.7 9.60167 116.484 9.375C116.27 9.145 116.104 8.86167 115.984 8.525C115.864 8.18833 115.804 7.80167 115.804 7.365C115.804 7.01167 115.857 6.68167 115.964 6.375C116.074 6.06833 116.23 5.80333 116.434 5.58C116.637 5.35333 116.885 5.17667 117.179 5.05C117.472 4.92 117.802 4.855 118.169 4.855C118.472 4.855 118.752 4.90667 119.009 5.01C119.269 5.11 119.492 5.25667 119.679 5.45C119.869 5.64 120.017 5.87667 120.124 6.16C120.23 6.44 120.284 6.76 120.284 7.12C120.284 7.26 120.269 7.35333 120.239 7.4C120.209 7.44667 120.152 7.47 120.069 7.47H116.684C116.694 7.79 116.737 8.06833 116.814 8.305C116.894 8.54167 117.004 8.74 117.144 8.9C117.284 9.05667 117.45 9.175 117.644 9.255C117.837 9.33167 118.054 9.37 118.294 9.37C118.517 9.37 118.709 9.345 118.869 9.295C119.032 9.24167 119.172 9.185 119.289 9.125C119.405 9.065 119.502 9.01 119.579 8.96C119.659 8.90667 119.727 8.88 119.784 8.88C119.857 8.88 119.914 8.90833 119.954 8.965L120.204 9.29ZM125.469 10H124.614C124.54 10 124.482 9.98167 124.439 9.945C124.399 9.905 124.365 9.86167 124.339 9.815L123.064 7.83C123.05 7.87667 123.035 7.92333 123.019 7.97C123.005 8.01333 122.985 8.05333 122.959 8.09L121.779 9.815C121.745 9.86167 121.709 9.905 121.669 9.945C121.632 9.98167 121.58 10 121.514 10H120.719L122.494 7.4L120.789 4.935H121.644C121.717 4.935 121.77 4.94667 121.804 4.97C121.837 4.99333 121.867 5.02667 121.894 5.07L123.139 6.97C123.165 6.87333 123.207 6.78 123.264 6.69L124.354 5.09C124.384 5.04333 124.415 5.00667 124.449 4.98C124.485 4.95 124.529 4.935 124.579 4.935H125.399L123.694 7.355L125.469 10ZM126.334 7.13H130.634V7.805H126.334V7.13ZM126.334 5.455H130.634V6.13H126.334V5.455ZM132.035 4.775C132.081 4.44833 132.171 4.16 132.305 3.91C132.438 3.65667 132.606 3.445 132.81 3.275C133.016 3.105 133.251 2.97667 133.515 2.89C133.781 2.8 134.068 2.755 134.375 2.755C134.678 2.755 134.958 2.79833 135.215 2.885C135.471 2.97167 135.691 3.095 135.875 3.255C136.061 3.415 136.206 3.60833 136.31 3.835C136.413 4.06167 136.465 4.31333 136.465 4.59C136.465 4.81667 136.435 5.02 136.375 5.2C136.318 5.37667 136.235 5.53167 136.125 5.665C136.018 5.79833 135.888 5.91167 135.735 6.005C135.581 6.09833 135.41 6.175 135.22 6.235C135.686 6.355 136.036 6.56167 136.27 6.855C136.506 7.145 136.625 7.50833 136.625 7.945C136.625 8.275 136.561 8.57167 136.435 8.835C136.311 9.09833 136.141 9.32333 135.925 9.51C135.708 9.69333 135.455 9.835 135.165 9.935C134.878 10.0317 134.57 10.08 134.24 10.08C133.86 10.08 133.535 10.0333 133.265 9.94C132.995 9.84333 132.766 9.71167 132.58 9.545C132.393 9.37833 132.24 9.18167 132.12 8.955C132 8.725 131.898 8.47667 131.815 8.21L132.2 8.05C132.3 8.00667 132.396 7.995 132.49 8.015C132.586 8.035 132.656 8.09 132.7 8.18C132.743 8.27333 132.796 8.385 132.86 8.515C132.926 8.645 133.016 8.77 133.13 8.89C133.243 9.01 133.386 9.11167 133.56 9.195C133.736 9.27833 133.96 9.32 134.23 9.32C134.48 9.32 134.698 9.28 134.885 9.2C135.075 9.11667 135.231 9.01 135.355 8.88C135.481 8.75 135.576 8.605 135.64 8.445C135.703 8.285 135.735 8.12667 135.735 7.97C135.735 7.77667 135.71 7.6 135.66 7.44C135.61 7.28 135.516 7.14167 135.38 7.025C135.243 6.90833 135.055 6.81667 134.815 6.75C134.578 6.68333 134.273 6.65 133.9 6.65V6.005C134.206 6.00167 134.466 5.96833 134.68 5.905C134.896 5.84167 135.071 5.755 135.205 5.645C135.341 5.535 135.44 5.40333 135.5 5.25C135.563 5.09667 135.595 4.92667 135.595 4.74C135.595 4.53333 135.561 4.35333 135.495 4.2C135.431 4.04667 135.343 3.92 135.23 3.82C135.116 3.72 134.981 3.645 134.825 3.595C134.671 3.545 134.505 3.52 134.325 3.52C134.145 3.52 133.976 3.54667 133.82 3.6C133.666 3.65333 133.53 3.72833 133.41 3.825C133.293 3.91833 133.195 4.03 133.115 4.16C133.035 4.29 132.978 4.43333 132.945 4.59C132.901 4.70667 132.846 4.785 132.78 4.825C132.716 4.86167 132.623 4.87167 132.5 4.855L132.035 4.775Z" fill="black"/>
<path id="index-arrow" style="opacity: 0; z-index: 5" d="M118.646 24.3536C118.842 24.5488 119.158 24.5488 119.354 24.3536L122.536 21.1716C122.731 20.9763 122.731 20.6597 122.536 20.4645C122.34 20.2692 122.024 20.2692 121.828 20.4645L119 23.2929L116.172 20.4645C115.976 20.2692 115.66 20.2692 115.464 20.4645C115.269 20.6597 115.269 20.9763 115.464 21.1716L118.646 24.3536ZM118.5 13V24H119.5V13H118.5Z" fill="black"/>
</g>
<g id="return-2" style="opacity: 0">
<path id="return 2" d="M103.34 66.95C103.5 66.6033 103.697 66.3333 103.93 66.14C104.163 65.9433 104.448 65.845 104.785 65.845C104.892 65.845 104.993 65.8567 105.09 65.88C105.19 65.9033 105.278 65.94 105.355 65.99L105.29 66.655C105.27 66.7383 105.22 66.78 105.14 66.78C105.093 66.78 105.025 66.77 104.935 66.75C104.845 66.73 104.743 66.72 104.63 66.72C104.47 66.72 104.327 66.7433 104.2 66.79C104.077 66.8367 103.965 66.9067 103.865 67C103.768 67.09 103.68 67.2033 103.6 67.34C103.523 67.4733 103.453 67.6267 103.39 67.8V71H102.495V65.935H103.005C103.102 65.935 103.168 65.9533 103.205 65.99C103.242 66.0267 103.267 66.09 103.28 66.18L103.34 66.95ZM109.323 67.915C109.323 67.7083 109.293 67.52 109.233 67.35C109.176 67.1767 109.091 67.0283 108.978 66.905C108.868 66.7783 108.733 66.6817 108.573 66.615C108.413 66.545 108.231 66.51 108.028 66.51C107.601 66.51 107.263 66.635 107.013 66.885C106.766 67.1317 106.613 67.475 106.553 67.915H109.323ZM110.043 70.29C109.933 70.4233 109.801 70.54 109.648 70.64C109.494 70.7367 109.329 70.8167 109.153 70.88C108.979 70.9433 108.799 70.99 108.613 71.02C108.426 71.0533 108.241 71.07 108.058 71.07C107.708 71.07 107.384 71.0117 107.088 70.895C106.794 70.775 106.539 70.6017 106.323 70.375C106.109 70.145 105.943 69.8617 105.823 69.525C105.703 69.1883 105.643 68.8017 105.643 68.365C105.643 68.0117 105.696 67.6817 105.803 67.375C105.913 67.0683 106.069 66.8033 106.273 66.58C106.476 66.3533 106.724 66.1767 107.018 66.05C107.311 65.92 107.641 65.855 108.008 65.855C108.311 65.855 108.591 65.9067 108.848 66.01C109.108 66.11 109.331 66.2567 109.518 66.45C109.708 66.64 109.856 66.8767 109.963 67.16C110.069 67.44 110.123 67.76 110.123 68.12C110.123 68.26 110.108 68.3533 110.078 68.4C110.048 68.4467 109.991 68.47 109.908 68.47H106.523C106.533 68.79 106.576 69.0683 106.653 69.305C106.733 69.5417 106.843 69.74 106.983 69.9C107.123 70.0567 107.289 70.175 107.483 70.255C107.676 70.3317 107.893 70.37 108.133 70.37C108.356 70.37 108.548 70.345 108.708 70.295C108.871 70.2417 109.011 70.185 109.128 70.125C109.244 70.065 109.341 70.01 109.418 69.96C109.498 69.9067 109.566 69.88 109.623 69.88C109.696 69.88 109.753 69.9083 109.793 69.965L110.043 70.29ZM112.732 71.08C112.332 71.08 112.023 70.9683 111.807 70.745C111.593 70.5217 111.487 70.2 111.487 69.78V66.68H110.877C110.823 66.68 110.778 66.665 110.742 66.635C110.705 66.6017 110.687 66.5517 110.687 66.485V66.13L111.517 66.025L111.722 64.46C111.732 64.41 111.753 64.37 111.787 64.34C111.823 64.3067 111.87 64.29 111.927 64.29H112.377V66.035H113.842V66.68H112.377V69.72C112.377 69.9333 112.428 70.0917 112.532 70.195C112.635 70.2983 112.768 70.35 112.932 70.35C113.025 70.35 113.105 70.3383 113.172 70.315C113.242 70.2883 113.302 70.26 113.352 70.23C113.402 70.2 113.443 70.1733 113.477 70.15C113.513 70.1233 113.545 70.11 113.572 70.11C113.618 70.11 113.66 70.1383 113.697 70.195L113.957 70.62C113.803 70.7633 113.618 70.8767 113.402 70.96C113.185 71.04 112.962 71.08 112.732 71.08ZM118.926 65.935V71H118.396C118.269 71 118.189 70.9383 118.156 70.815L118.086 70.27C117.866 70.5133 117.619 70.71 117.346 70.86C117.072 71.0067 116.759 71.08 116.406 71.08C116.129 71.08 115.884 71.035 115.671 70.945C115.461 70.8517 115.284 70.7217 115.141 70.555C114.997 70.3883 114.889 70.1867 114.816 69.95C114.746 69.7133 114.711 69.4517 114.711 69.165V65.935H115.601V69.165C115.601 69.5483 115.687 69.845 115.861 70.055C116.037 70.265 116.306 70.37 116.666 70.37C116.929 70.37 117.174 70.3083 117.401 70.185C117.631 70.0583 117.842 69.885 118.036 69.665V65.935H118.926ZM121.182 66.95C121.342 66.6033 121.539 66.3333 121.772 66.14C122.005 65.9433 122.29 65.845 122.627 65.845C122.734 65.845 122.835 65.8567 122.932 65.88C123.032 65.9033 123.12 65.94 123.197 65.99L123.132 66.655C123.112 66.7383 123.062 66.78 122.982 66.78C122.935 66.78 122.867 66.77 122.777 66.75C122.687 66.73 122.585 66.72 122.472 66.72C122.312 66.72 122.169 66.7433 122.042 66.79C121.919 66.8367 121.807 66.9067 121.707 67C121.61 67.09 121.522 67.2033 121.442 67.34C121.365 67.4733 121.295 67.6267 121.232 67.8V71H120.337V65.935H120.847C120.944 65.935 121.01 65.9533 121.047 65.99C121.084 66.0267 121.109 66.09 121.122 66.18L121.182 66.95ZM124.819 66.67C124.929 66.5467 125.046 66.435 125.169 66.335C125.293 66.235 125.423 66.15 125.559 66.08C125.699 66.0067 125.846 65.9517 125.999 65.915C126.156 65.875 126.324 65.855 126.504 65.855C126.781 65.855 127.024 65.9017 127.234 65.995C127.448 66.085 127.624 66.215 127.764 66.385C127.908 66.5517 128.016 66.7533 128.089 66.99C128.163 67.2267 128.199 67.4883 128.199 67.775V71H127.304V67.775C127.304 67.3917 127.216 67.095 127.039 66.885C126.866 66.6717 126.601 66.565 126.244 66.565C125.981 66.565 125.734 66.6283 125.504 66.755C125.278 66.8817 125.068 67.0533 124.874 67.27V71H123.979V65.935H124.514C124.641 65.935 124.719 65.9967 124.749 66.12L124.819 66.67ZM136.344 70.155C136.441 70.155 136.518 70.1833 136.574 70.24C136.631 70.2967 136.659 70.37 136.659 70.46V71H131.879V70.695C131.879 70.6317 131.893 70.5667 131.919 70.5C131.946 70.4333 131.988 70.3717 132.044 70.315L134.339 68.01C134.529 67.8167 134.703 67.6317 134.859 67.455C135.016 67.275 135.149 67.095 135.259 66.915C135.369 66.735 135.454 66.5533 135.514 66.37C135.574 66.1833 135.604 65.985 135.604 65.775C135.604 65.565 135.571 65.3817 135.504 65.225C135.438 65.065 135.346 64.9333 135.229 64.83C135.116 64.7267 134.981 64.65 134.824 64.6C134.668 64.5467 134.499 64.52 134.319 64.52C134.136 64.52 133.968 64.5467 133.814 64.6C133.661 64.6533 133.524 64.7283 133.404 64.825C133.288 64.9183 133.189 65.03 133.109 65.16C133.029 65.29 132.973 65.4333 132.939 65.59C132.899 65.7067 132.844 65.785 132.774 65.825C132.708 65.8617 132.613 65.8717 132.489 65.855L132.024 65.775C132.071 65.4483 132.161 65.16 132.294 64.91C132.431 64.6567 132.601 64.445 132.804 64.275C133.011 64.105 133.246 63.9767 133.509 63.89C133.773 63.8 134.058 63.755 134.364 63.755C134.668 63.755 134.951 63.8 135.214 63.89C135.478 63.98 135.706 64.1117 135.899 64.285C136.093 64.455 136.244 64.6633 136.354 64.91C136.464 65.1567 136.519 65.4367 136.519 65.75C136.519 66.0167 136.479 66.265 136.399 66.495C136.319 66.7217 136.211 66.9383 136.074 67.145C135.938 67.3517 135.779 67.5533 135.599 67.75C135.423 67.9467 135.234 68.145 135.034 68.345L133.144 70.275C133.278 70.2383 133.413 70.21 133.549 70.19C133.686 70.1667 133.818 70.155 133.944 70.155H136.344Z" fill="black"/>
<path id="index-arrow_2" style="z-index: 5" d="M118.646 61.3536C118.842 61.5488 119.158 61.5488 119.354 61.3536L122.536 58.1716C122.731 57.9763 122.731 57.6597 122.536 57.4645C122.34 57.2692 122.024 57.2692 121.828 57.4645L119 60.2929L116.172 57.4645C115.976 57.2692 115.66 57.2692 115.464 57.4645C115.269 57.6597 115.269 57.9763 115.464 58.1716L118.646 61.3536ZM118.5 50V61H119.5V50H118.5Z" fill="black"/>
</g>
<g id="array">
<rect id="Rectangle 1" x="0.5" y="19.5" width="33" height="35" stroke="black"/>
<rect id="Rectangle 7" x="204.5" y="19.5" width="33" height="35" stroke="black"/>
<rect id="Rectangle 6" x="170.5" y="19.5" width="33" height="35" stroke="black"/>
<rect id="Rectangle 5" x="136.5" y="19.5" width="33" height="35" stroke="black"/>
<rect id="ret-2" x="102.5" y="19.5" width="33" height="35" stroke="black"/>
<rect id="Rectangle 3" x="68.5" y="19.5" width="33" height="35" stroke="black"/>
<rect id="Rectangle 2" x="34.5" y="19.5" width="33" height="35" stroke="black"/>
<path id="7" d="M20.5055 32.402V32.882C20.5055 33.018 20.4895 33.13 20.4575 33.218C20.4295 33.306 20.4015 33.38 20.3735 33.44L16.8095 40.622C16.7575 40.726 16.6855 40.816 16.5935 40.892C16.5015 40.964 16.3795 41 16.2275 41H15.4595L19.0715 33.908C19.1235 33.808 19.1775 33.716 19.2335 33.632C19.2895 33.548 19.3495 33.468 19.4135 33.392H14.9255C14.8575 33.392 14.7975 33.366 14.7455 33.314C14.6935 33.258 14.6675 33.196 14.6675 33.128V32.402H20.5055Z" fill="black"/>
<path id="8-add" d="M153.5 40.244C153.78 40.244 154.03 40.206 154.25 40.13C154.474 40.05 154.662 39.94 154.814 39.8C154.97 39.656 155.088 39.486 155.168 39.29C155.252 39.09 155.294 38.87 155.294 38.63C155.294 38.334 155.244 38.082 155.144 37.874C155.048 37.662 154.916 37.49 154.748 37.358C154.584 37.226 154.394 37.13 154.178 37.07C153.962 37.006 153.736 36.974 153.5 36.974C153.264 36.974 153.038 37.006 152.822 37.07C152.606 37.13 152.414 37.226 152.246 37.358C152.082 37.49 151.95 37.662 151.85 37.874C151.754 38.082 151.706 38.334 151.706 38.63C151.706 38.87 151.746 39.09 151.826 39.29C151.91 39.486 152.028 39.656 152.18 39.8C152.336 39.94 152.524 40.05 152.744 40.13C152.968 40.206 153.22 40.244 153.5 40.244ZM153.5 33.134C153.244 33.134 153.018 33.172 152.822 33.248C152.63 33.324 152.468 33.428 152.336 33.56C152.208 33.692 152.11 33.846 152.042 34.022C151.978 34.198 151.946 34.386 151.946 34.586C151.946 34.782 151.974 34.972 152.03 35.156C152.086 35.34 152.176 35.504 152.3 35.648C152.424 35.788 152.584 35.902 152.78 35.99C152.98 36.074 153.22 36.116 153.5 36.116C153.78 36.116 154.018 36.074 154.214 35.99C154.414 35.902 154.576 35.788 154.7 35.648C154.824 35.504 154.914 35.34 154.97 35.156C155.026 34.972 155.054 34.782 155.054 34.586C155.054 34.386 155.02 34.198 154.952 34.022C154.888 33.846 154.79 33.692 154.658 33.56C154.53 33.428 154.368 33.324 154.172 33.248C153.98 33.172 153.756 33.134 153.5 33.134ZM154.73 36.518C155.266 36.67 155.678 36.924 155.966 37.28C156.254 37.636 156.398 38.092 156.398 38.648C156.398 39.024 156.326 39.364 156.182 39.668C156.042 39.968 155.844 40.224 155.588 40.436C155.336 40.648 155.032 40.812 154.676 40.928C154.32 41.04 153.928 41.096 153.5 41.096C153.072 41.096 152.68 41.04 152.324 40.928C151.968 40.812 151.662 40.648 151.406 40.436C151.15 40.224 150.952 39.968 150.812 39.668C150.672 39.364 150.602 39.024 150.602 38.648C150.602 38.092 150.746 37.636 151.034 37.28C151.322 36.924 151.734 36.67 152.27 36.518C151.818 36.35 151.476 36.1 151.244 35.768C151.016 35.432 150.902 35.032 150.902 34.568C150.902 34.252 150.964 33.956 151.088 33.68C151.212 33.404 151.388 33.164 151.616 32.96C151.844 32.756 152.116 32.596 152.432 32.48C152.752 32.364 153.108 32.306 153.5 32.306C153.888 32.306 154.242 32.364 154.562 32.48C154.882 32.596 155.156 32.756 155.384 32.96C155.612 33.164 155.788 33.404 155.912 33.68C156.036 33.956 156.098 34.252 156.098 34.568C156.098 35.032 155.982 35.432 155.75 35.768C155.522 36.1 155.182 36.35 154.73 36.518Z" fill="black"/>
<path id="2" d="M121.942 39.986C122.058 39.986 122.15 40.02 122.218 40.088C122.286 40.156 122.32 40.244 122.32 40.352V41H116.584V40.634C116.584 40.558 116.6 40.48 116.632 40.4C116.664 40.32 116.714 40.246 116.782 40.178L119.536 37.412C119.764 37.18 119.972 36.958 120.16 36.746C120.348 36.53 120.508 36.314 120.64 36.098C120.772 35.882 120.874 35.664 120.946 35.444C121.018 35.22 121.054 34.982 121.054 34.73C121.054 34.478 121.014 34.258 120.934 34.07C120.854 33.878 120.744 33.72 120.604 33.596C120.468 33.472 120.306 33.38 120.118 33.32C119.93 33.256 119.728 33.224 119.512 33.224C119.292 33.224 119.09 33.256 118.906 33.32C118.722 33.384 118.558 33.474 118.414 33.59C118.274 33.702 118.156 33.836 118.06 33.992C117.964 34.148 117.896 34.32 117.856 34.508C117.808 34.648 117.742 34.742 117.658 34.79C117.578 34.834 117.464 34.846 117.316 34.826L116.758 34.73C116.814 34.338 116.922 33.992 117.082 33.692C117.246 33.388 117.45 33.134 117.694 32.93C117.942 32.726 118.224 32.572 118.54 32.468C118.856 32.36 119.198 32.306 119.566 32.306C119.93 32.306 120.27 32.36 120.586 32.468C120.902 32.576 121.176 32.734 121.408 32.942C121.64 33.146 121.822 33.396 121.954 33.692C122.086 33.988 122.152 34.324 122.152 34.7C122.152 35.02 122.104 35.318 122.008 35.594C121.912 35.866 121.782 36.126 121.618 36.374C121.454 36.622 121.264 36.864 121.048 37.1C120.836 37.336 120.61 37.574 120.37 37.814L118.102 40.13C118.262 40.086 118.424 40.052 118.588 40.028C118.752 40 118.91 39.986 119.062 39.986H121.942Z" fill="black"/>
<path id="3" d="M82.7995 34.73C82.8555 34.338 82.9635 33.992 83.1235 33.692C83.2835 33.388 83.4855 33.134 83.7295 32.93C83.9775 32.726 84.2595 32.572 84.5755 32.468C84.8955 32.36 85.2395 32.306 85.6075 32.306C85.9715 32.306 86.3075 32.358 86.6155 32.462C86.9235 32.566 87.1875 32.714 87.4075 32.906C87.6315 33.098 87.8055 33.33 87.9295 33.602C88.0535 33.874 88.1155 34.176 88.1155 34.508C88.1155 34.78 88.0795 35.024 88.0075 35.24C87.9395 35.452 87.8395 35.638 87.7075 35.798C87.5795 35.958 87.4235 36.094 87.2395 36.206C87.0555 36.318 86.8495 36.41 86.6215 36.482C87.1815 36.626 87.6015 36.874 87.8815 37.226C88.1655 37.574 88.3075 38.01 88.3075 38.534C88.3075 38.93 88.2315 39.286 88.0795 39.602C87.9315 39.918 87.7275 40.188 87.4675 40.412C87.2075 40.632 86.9035 40.802 86.5555 40.922C86.2115 41.038 85.8415 41.096 85.4455 41.096C84.9895 41.096 84.5995 41.04 84.2755 40.928C83.9515 40.812 83.6775 40.654 83.4535 40.454C83.2295 40.254 83.0455 40.018 82.9015 39.746C82.7575 39.47 82.6355 39.172 82.5355 38.852L82.9975 38.66C83.1175 38.608 83.2335 38.594 83.3455 38.618C83.4615 38.642 83.5455 38.708 83.5975 38.816C83.6495 38.928 83.7135 39.062 83.7895 39.218C83.8695 39.374 83.9775 39.524 84.1135 39.668C84.2495 39.812 84.4215 39.934 84.6295 40.034C84.8415 40.134 85.1095 40.184 85.4335 40.184C85.7335 40.184 85.9955 40.136 86.2195 40.04C86.4475 39.94 86.6355 39.812 86.7835 39.656C86.9355 39.5 87.0495 39.326 87.1255 39.134C87.2015 38.942 87.2395 38.752 87.2395 38.564C87.2395 38.332 87.2095 38.12 87.1495 37.928C87.0895 37.736 86.9775 37.57 86.8135 37.43C86.6495 37.29 86.4235 37.18 86.1355 37.1C85.8515 37.02 85.4855 36.98 85.0375 36.98V36.206C85.4055 36.202 85.7175 36.162 85.9735 36.086C86.2335 36.01 86.4435 35.906 86.6035 35.774C86.7675 35.642 86.8855 35.484 86.9575 35.3C87.0335 35.116 87.0715 34.912 87.0715 34.688C87.0715 34.44 87.0315 34.224 86.9515 34.04C86.8755 33.856 86.7695 33.704 86.6335 33.584C86.4975 33.464 86.3355 33.374 86.1475 33.314C85.9635 33.254 85.7635 33.224 85.5475 33.224C85.3315 33.224 85.1295 33.256 84.9415 33.32C84.7575 33.384 84.5935 33.474 84.4495 33.59C84.3095 33.702 84.1915 33.836 84.0955 33.992C83.9995 34.148 83.9315 34.32 83.8915 34.508C83.8395 34.648 83.7735 34.742 83.6935 34.79C83.6175 34.834 83.5055 34.846 83.3575 34.826L82.7995 34.73Z" fill="black"/>
<path id="1" d="M54.1275 40.184V41H49.5195V40.184H51.3615V34.322C51.3615 34.146 51.3675 33.968 51.3795 33.788L49.8495 35.102C49.7975 35.146 49.7455 35.174 49.6935 35.186C49.6415 35.194 49.5935 35.194 49.5495 35.186C49.5055 35.178 49.4635 35.162 49.4235 35.138C49.3875 35.114 49.3595 35.088 49.3395 35.06L49.0035 34.598L51.5655 32.384H52.4355V40.184H54.1275Z" fill="black"/>
</g>
</g>
</svg>
