<svg  viewBox="0 0 357 81" fill="none" xmlns="http://www.w3.org/2000/svg">
<g id="hashmap-remove-linear-probing">
<g id="array">
<rect id="Rectangle 1" x="4.5" y="25.5" width="51.5745" height="55" stroke="black"/>
<rect id="Rectangle 7" x="307.071" y="25.5" width="49.4286" height="55" stroke="black"/>
<rect id="Rectangle 6" x="257.716" y="25.5" width="48.3556" height="55" stroke="black"/>
<rect id="Rectangle 5" x="207.287" y="25.5" width="49.4286" height="55" stroke="black"/>
<rect id="Rectangle 4" x="156.859" y="25.5" width="49.4286" height="55" stroke="black"/>
<rect id="Rectangle 3" x="106.43" y="25.5" width="49.4286" height="55" stroke="black"/>
<rect id="Rectangle 2" x="57.0745" y="25.5" width="48.3556" height="55" stroke="black"/>
<g id="pair">
<circle id="node-template" cx="30" cy="53" r="22.5" stroke="black"/>
<g id="params">
<path id="key=&#226;&#128;&#156;john&#226;&#128;&#157;" d="M11.6617 45.3715V49.273H11.8687C11.9287 49.273 11.9782 49.2655 12.0172 49.2505C12.0592 49.2325 12.1027 49.198 12.1477 49.147L13.5877 47.6035C13.6297 47.5525 13.6732 47.5135 13.7182 47.4865C13.7662 47.4565 13.8292 47.4415 13.9072 47.4415H14.6317L12.9532 49.228C12.8722 49.33 12.7852 49.4095 12.6922 49.4665C12.7462 49.5025 12.7942 49.5445 12.8362 49.5925C12.8812 49.6375 12.9232 49.69 12.9622 49.75L14.7442 52H14.0287C13.9597 52 13.8997 51.9895 13.8487 51.9685C13.8007 51.9445 13.7587 51.9025 13.7227 51.8425L12.2242 49.975C12.1792 49.912 12.1342 49.8715 12.0892 49.8535C12.0472 49.8325 11.9812 49.822 11.8912 49.822H11.6617V52H10.8562V45.3715H11.6617ZM18.2226 49.2235C18.2226 49.0375 18.1956 48.868 18.1416 48.715C18.0906 48.559 18.0141 48.4255 17.9121 48.3145C17.8131 48.2005 17.6916 48.1135 17.5476 48.0535C17.4036 47.9905 17.2401 47.959 17.0571 47.959C16.6731 47.959 16.3686 48.0715 16.1436 48.2965C15.9216 48.5185 15.7836 48.8275 15.7296 49.2235H18.2226ZM18.8706 51.361C18.7716 51.481 18.6531 51.586 18.5151 51.676C18.3771 51.763 18.2286 51.835 18.0696 51.892C17.9136 51.949 17.7516 51.991 17.5836 52.018C17.4156 52.048 17.2491 52.063 17.0841 52.063C16.7691 52.063 16.4781 52.0105 16.2111 51.9055C15.9471 51.7975 15.7176 51.6415 15.5226 51.4375C15.3306 51.2305 15.1806 50.9755 15.0726 50.6725C14.9646 50.3695 14.9106 50.0215 14.9106 49.6285C14.9106 49.3105 14.9586 49.0135 15.0546 48.7375C15.1536 48.4615 15.2946 48.223 15.4776 48.022C15.6606 47.818 15.8841 47.659 16.1481 47.545C16.4121 47.428 16.7091 47.3695 17.0391 47.3695C17.3121 47.3695 17.5641 47.416 17.7951 47.509C18.0291 47.599 18.2301 47.731 18.3981 47.905C18.5691 48.076 18.7026 48.289 18.7986 48.544C18.8946 48.796 18.9426 49.084 18.9426 49.408C18.9426 49.534 18.9291 49.618 18.9021 49.66C18.8751 49.702 18.8241 49.723 18.7491 49.723H15.7026C15.7116 50.011 15.7506 50.2615 15.8196 50.4745C15.8916 50.6875 15.9906 50.866 16.1166 51.01C16.2426 51.151 16.3926 51.2575 16.5666 51.3295C16.7406 51.3985 16.9356 51.433 17.1516 51.433C17.3526 51.433 17.5251 51.4105 17.6691 51.3655C17.8161 51.3175 17.9421 51.2665 18.0471 51.2125C18.1521 51.1585 18.2391 51.109 18.3081 51.064C18.3801 51.016 18.4416 50.992 18.4926 50.992C18.5586 50.992 18.6096 51.0175 18.6456 51.0685L18.8706 51.361ZM23.7452 47.4415L21.2027 53.3455C21.1757 53.4055 21.1412 53.4535 21.0992 53.4895C21.0602 53.5255 20.9987 53.5435 20.9147 53.5435H20.3207L21.1532 51.7345L19.2722 47.4415H19.9652C20.0342 47.4415 20.0882 47.4595 20.1272 47.4955C20.1692 47.5285 20.1977 47.566 20.2127 47.608L21.4322 50.479C21.4802 50.605 21.5207 50.737 21.5537 50.875C21.5957 50.734 21.6407 50.6005 21.6887 50.4745L22.8722 47.608C22.8902 47.56 22.9202 47.521 22.9622 47.491C23.0072 47.458 23.0567 47.4415 23.1107 47.4415H23.7452ZM24.4934 49.417H28.3634V50.0245H24.4934V49.417ZM24.4934 47.9095H28.3634V48.517H24.4934V47.9095ZM29.8041 47.725C29.6781 47.512 29.5926 47.2885 29.5476 47.0545C29.5026 46.8175 29.4981 46.5835 29.5341 46.3525C29.5701 46.1215 29.6451 45.901 29.7591 45.691C29.8731 45.478 30.0246 45.2875 30.2136 45.1195L30.4566 45.2725C30.5016 45.3025 30.5211 45.34 30.5151 45.385C30.5121 45.427 30.4986 45.46 30.4746 45.484C30.3966 45.58 30.3291 45.697 30.2721 45.835C30.2181 45.973 30.1836 46.1215 30.1686 46.2805C30.1536 46.4365 30.1611 46.5985 30.1911 46.7665C30.2211 46.9345 30.2826 47.0965 30.3756 47.2525C30.4146 47.3155 30.4251 47.3725 30.4071 47.4235C30.3921 47.4715 30.3561 47.5075 30.2991 47.5315L29.8041 47.725ZM31.1721 47.725C31.0461 47.512 30.9606 47.2885 30.9156 47.0545C30.8706 46.8175 30.8661 46.5835 30.9021 46.3525C30.9381 46.1215 31.0131 45.901 31.1271 45.691C31.2411 45.478 31.3926 45.2875 31.5816 45.1195L31.8246 45.2725C31.8696 45.3025 31.8891 45.34 31.8831 45.385C31.8801 45.427 31.8666 45.46 31.8426 45.484C31.7646 45.58 31.6971 45.697 31.6401 45.835C31.5861 45.973 31.5516 46.1215 31.5366 46.2805C31.5216 46.4365 31.5291 46.5985 31.5591 46.7665C31.5891 46.9345 31.6506 47.0965 31.7436 47.2525C31.7826 47.3155 31.7931 47.3725 31.7751 47.4235C31.7601 47.4715 31.7241 47.5075 31.6671 47.5315L31.1721 47.725ZM33.8067 47.4415V52.3375C33.8067 52.5205 33.7827 52.69 33.7347 52.846C33.6867 53.005 33.6102 53.143 33.5052 53.26C33.4002 53.377 33.2652 53.4685 33.1002 53.5345C32.9382 53.6035 32.7432 53.638 32.5152 53.638C32.4192 53.638 32.3307 53.6305 32.2497 53.6155C32.1687 53.6005 32.0877 53.578 32.0067 53.548L32.0382 53.116C32.0442 53.089 32.0547 53.068 32.0697 53.053C32.0817 53.041 32.0997 53.0335 32.1237 53.0305C32.1477 53.0275 32.1792 53.026 32.2182 53.026C32.2542 53.029 32.3007 53.0305 32.3577 53.0305C32.5917 53.0305 32.7582 52.975 32.8572 52.864C32.9562 52.756 33.0057 52.5805 33.0057 52.3375V47.4415H33.8067ZM33.9732 46.0105C33.9732 46.0885 33.9567 46.162 33.9237 46.231C33.8937 46.297 33.8517 46.357 33.7977 46.411C33.7467 46.462 33.6867 46.5025 33.6177 46.5325C33.5487 46.5625 33.4752 46.5775 33.3972 46.5775C33.3192 46.5775 33.2457 46.5625 33.1767 46.5325C33.1107 46.5025 33.0522 46.462 33.0012 46.411C32.9502 46.357 32.9097 46.297 32.8797 46.231C32.8497 46.162 32.8347 46.0885 32.8347 46.0105C32.8347 45.9325 32.8497 45.859 32.8797 45.79C32.9097 45.718 32.9502 45.6565 33.0012 45.6055C33.0522 45.5515 33.1107 45.5095 33.1767 45.4795C33.2457 45.4495 33.3192 45.4345 33.3972 45.4345C33.4752 45.4345 33.5487 45.4495 33.6177 45.4795C33.6867 45.5095 33.7467 45.5515 33.7977 45.6055C33.8517 45.6565 33.8937 45.718 33.9237 45.79C33.9567 45.859 33.9732 45.9325 33.9732 46.0105ZM37.0443 47.3695C37.3773 47.3695 37.6773 47.425 37.9443 47.536C38.2113 47.647 38.4393 47.8045 38.6283 48.0085C38.8173 48.2125 38.9613 48.46 39.0603 48.751C39.1623 49.039 39.2133 49.3615 39.2133 49.7185C39.2133 50.0785 39.1623 50.4025 39.0603 50.6905C38.9613 50.9785 38.8173 51.2245 38.6283 51.4285C38.4393 51.6325 38.2113 51.79 37.9443 51.901C37.6773 52.009 37.3773 52.063 37.0443 52.063C36.7083 52.063 36.4053 52.009 36.1353 51.901C35.8683 51.79 35.6403 51.6325 35.4513 51.4285C35.2623 51.2245 35.1168 50.9785 35.0148 50.6905C34.9158 50.4025 34.8663 50.0785 34.8663 49.7185C34.8663 49.3615 34.9158 49.039 35.0148 48.751C35.1168 48.46 35.2623 48.2125 35.4513 48.0085C35.6403 47.8045 35.8683 47.647 36.1353 47.536C36.4053 47.425 36.7083 47.3695 37.0443 47.3695ZM37.0443 51.4375C37.4943 51.4375 37.8303 51.2875 38.0523 50.9875C38.2743 50.6845 38.3853 50.263 38.3853 49.723C38.3853 49.18 38.2743 48.757 38.0523 48.454C37.8303 48.151 37.4943 47.9995 37.0443 47.9995C36.8163 47.9995 36.6168 48.0385 36.4458 48.1165C36.2778 48.1945 36.1368 48.307 36.0228 48.454C35.9118 48.601 35.8278 48.7825 35.7708 48.9985C35.7168 49.2115 35.6898 49.453 35.6898 49.723C35.6898 50.263 35.8008 50.6845 36.0228 50.9875C36.2478 51.2875 36.5883 51.4375 37.0443 51.4375ZM41.0347 48.049C41.2297 47.842 41.4457 47.677 41.6827 47.554C41.9197 47.431 42.1927 47.3695 42.5017 47.3695C42.7507 47.3695 42.9697 47.4115 43.1587 47.4955C43.3507 47.5765 43.5097 47.6935 43.6357 47.8465C43.7647 47.9965 43.8622 48.178 43.9282 48.391C43.9942 48.604 44.0272 48.8395 44.0272 49.0975V52H43.2217V49.0975C43.2217 48.7525 43.1422 48.4855 42.9832 48.2965C42.8272 48.1045 42.5887 48.0085 42.2677 48.0085C42.0307 48.0085 41.8087 48.0655 41.6017 48.1795C41.3977 48.2935 41.2087 48.448 41.0347 48.643V52H40.2292V45.3715H41.0347V48.049ZM46.0038 48.103C46.1028 47.992 46.2078 47.8915 46.3188 47.8015C46.4298 47.7115 46.5468 47.635 46.6698 47.572C46.7958 47.506 46.9278 47.4565 47.0658 47.4235C47.2068 47.3875 47.3583 47.3695 47.5203 47.3695C47.7693 47.3695 47.9883 47.4115 48.1773 47.4955C48.3693 47.5765 48.5283 47.6935 48.6543 47.8465C48.7833 47.9965 48.8808 48.178 48.9468 48.391C49.0128 48.604 49.0458 48.8395 49.0458 49.0975V52H48.2403V49.0975C48.2403 48.7525 48.1608 48.4855 48.0018 48.2965C47.8458 48.1045 47.6073 48.0085 47.2863 48.0085C47.0493 48.0085 46.8273 48.0655 46.6203 48.1795C46.4163 48.2935 46.2273 48.448 46.0533 48.643V52H45.2478V47.4415H45.7293C45.8433 47.4415 45.9138 47.497 45.9408 47.608L46.0038 48.103ZM50.6792 45.1195C50.8052 45.3325 50.8907 45.5575 50.9357 45.7945C50.9807 46.0315 50.9852 46.2655 50.9492 46.4965C50.9132 46.7275 50.8382 46.9495 50.7242 47.1625C50.6102 47.3755 50.4587 47.5645 50.2697 47.7295L50.0267 47.572C49.9817 47.545 49.9607 47.5105 49.9637 47.4685C49.9697 47.4235 49.9847 47.3875 50.0087 47.3605C50.0867 47.2645 50.1527 47.149 50.2067 47.014C50.2637 46.876 50.2997 46.729 50.3147 46.573C50.3327 46.414 50.3252 46.2505 50.2922 46.0825C50.2622 45.9145 50.2007 45.7525 50.1077 45.5965C50.0687 45.5335 50.0567 45.478 50.0717 45.43C50.0897 45.379 50.1272 45.3415 50.1842 45.3175L50.6792 45.1195ZM52.0472 45.1195C52.1732 45.3325 52.2587 45.5575 52.3037 45.7945C52.3487 46.0315 52.3532 46.2655 52.3172 46.4965C52.2812 46.7275 52.2062 46.9495 52.0922 47.1625C51.9782 47.3755 51.8267 47.5645 51.6377 47.7295L51.3947 47.572C51.3497 47.545 51.3287 47.5105 51.3317 47.4685C51.3377 47.4235 51.3527 47.3875 51.3767 47.3605C51.4547 47.2645 51.5207 47.149 51.5747 47.014C51.6317 46.876 51.6677 46.729 51.6827 46.573C51.7007 46.414 51.6932 46.2505 51.6602 46.0825C51.6302 45.9145 51.5687 45.7525 51.4757 45.5965C51.4367 45.5335 51.4247 45.478 51.4397 45.43C51.4577 45.379 51.4952 45.3415 51.5522 45.3175L52.0472 45.1195Z" fill="black"/>
<path id="val=&#226;&#128;&#156;blue&#226;&#128;&#157;" d="M14.1816 58.4415L12.3231 63H11.6031L9.74461 58.4415H10.3971C10.4631 58.4415 10.5171 58.458 10.5591 58.491C10.6011 58.524 10.6296 58.563 10.6446 58.608L11.8011 61.542C11.8371 61.653 11.8686 61.761 11.8956 61.866C11.9226 61.971 11.9481 62.076 11.9721 62.181C11.9961 62.076 12.0216 61.971 12.0486 61.866C12.0756 61.761 12.1086 61.653 12.1476 61.542L13.3176 58.608C13.3356 58.56 13.3656 58.521 13.4076 58.491C13.4496 58.458 13.4991 58.4415 13.5561 58.4415H14.1816ZM17.2901 60.948C16.9211 60.96 16.6061 60.99 16.3451 61.038C16.0871 61.083 15.8756 61.143 15.7106 61.218C15.5486 61.293 15.4301 61.3815 15.3551 61.4835C15.2831 61.5855 15.2471 61.6995 15.2471 61.8255C15.2471 61.9455 15.2666 62.049 15.3056 62.136C15.3446 62.223 15.3971 62.295 15.4631 62.352C15.5321 62.406 15.6116 62.4465 15.7016 62.4735C15.7946 62.4975 15.8936 62.5095 15.9986 62.5095C16.1396 62.5095 16.2686 62.496 16.3856 62.469C16.5026 62.439 16.6121 62.397 16.7141 62.343C16.8191 62.289 16.9181 62.2245 17.0111 62.1495C17.1071 62.0745 17.2001 61.989 17.2901 61.893V60.948ZM14.7026 59.085C14.9546 58.842 15.2261 58.6605 15.5171 58.5405C15.8081 58.4205 16.1306 58.3605 16.4846 58.3605C16.7396 58.3605 16.9661 58.4025 17.1641 58.4865C17.3621 58.5705 17.5286 58.6875 17.6636 58.8375C17.7986 58.9875 17.9006 59.169 17.9696 59.382C18.0386 59.595 18.0731 59.829 18.0731 60.084V63H17.7176C17.6396 63 17.5796 62.988 17.5376 62.964C17.4956 62.937 17.4626 62.886 17.4386 62.811L17.3486 62.379C17.2286 62.49 17.1116 62.589 16.9976 62.676C16.8836 62.76 16.7636 62.832 16.6376 62.892C16.5116 62.949 16.3766 62.9925 16.2326 63.0225C16.0916 63.0555 15.9341 63.072 15.7601 63.072C15.5831 63.072 15.4166 63.048 15.2606 63C15.1046 62.949 14.9681 62.874 14.8511 62.775C14.7371 62.676 14.6456 62.5515 14.5766 62.4015C14.5106 62.2485 14.4776 62.0685 14.4776 61.8615C14.4776 61.6815 14.5271 61.509 14.6261 61.344C14.7251 61.176 14.8856 61.0275 15.1076 60.8985C15.3296 60.7695 15.6191 60.6645 15.9761 60.5835C16.3331 60.4995 16.7711 60.4515 17.2901 60.4395V60.084C17.2901 59.73 17.2136 59.463 17.0606 59.283C16.9076 59.1 16.6841 59.0085 16.3901 59.0085C16.1921 59.0085 16.0256 59.034 15.8906 59.085C15.7586 59.133 15.6431 59.1885 15.5441 59.2515C15.4481 59.3115 15.3641 59.367 15.2921 59.418C15.2231 59.466 15.1541 59.49 15.0851 59.49C15.0311 59.49 14.9846 59.4765 14.9456 59.4495C14.9066 59.4195 14.8736 59.3835 14.8466 59.3415L14.7026 59.085ZM20.1212 56.3715V63H19.3202V56.3715H20.1212ZM21.4606 60.417H25.3306V61.0245H21.4606V60.417ZM21.4606 58.9095H25.3306V59.517H21.4606V58.9095ZM26.7713 58.725C26.6453 58.512 26.5598 58.2885 26.5148 58.0545C26.4698 57.8175 26.4653 57.5835 26.5013 57.3525C26.5373 57.1215 26.6123 56.901 26.7263 56.691C26.8403 56.478 26.9918 56.2875 27.1808 56.1195L27.4238 56.2725C27.4688 56.3025 27.4883 56.34 27.4823 56.385C27.4793 56.427 27.4658 56.46 27.4418 56.484C27.3638 56.58 27.2963 56.697 27.2393 56.835C27.1853 56.973 27.1508 57.1215 27.1358 57.2805C27.1208 57.4365 27.1283 57.5985 27.1583 57.7665C27.1883 57.9345 27.2498 58.0965 27.3428 58.2525C27.3818 58.3155 27.3923 58.3725 27.3743 58.4235C27.3593 58.4715 27.3233 58.5075 27.2663 58.5315L26.7713 58.725ZM28.1393 58.725C28.0133 58.512 27.9278 58.2885 27.8828 58.0545C27.8378 57.8175 27.8333 57.5835 27.8693 57.3525C27.9053 57.1215 27.9803 56.901 28.0943 56.691C28.2083 56.478 28.3598 56.2875 28.5488 56.1195L28.7918 56.2725C28.8368 56.3025 28.8563 56.34 28.8503 56.385C28.8473 56.427 28.8338 56.46 28.8098 56.484C28.7318 56.58 28.6643 56.697 28.6073 56.835C28.5533 56.973 28.5188 57.1215 28.5038 57.2805C28.4888 57.4365 28.4963 57.5985 28.5263 57.7665C28.5563 57.9345 28.6178 58.0965 28.7108 58.2525C28.7498 58.3155 28.7603 58.3725 28.7423 58.4235C28.7273 58.4715 28.6913 58.5075 28.6343 58.5315L28.1393 58.725ZM30.7335 61.902C30.8805 62.1 31.041 62.2395 31.215 62.3205C31.392 62.4015 31.5855 62.442 31.7955 62.442C32.2245 62.442 32.553 62.2905 32.781 61.9875C33.009 61.6845 33.123 61.233 33.123 60.633C33.123 60.075 33.021 59.6655 32.817 59.4045C32.616 59.1405 32.328 59.0085 31.953 59.0085C31.692 59.0085 31.464 59.0685 31.269 59.1885C31.077 59.3085 30.8985 59.478 30.7335 59.697V61.902ZM30.7335 59.0985C30.9255 58.8765 31.1415 58.6995 31.3815 58.5675C31.6245 58.4355 31.9035 58.3695 32.2185 58.3695C32.4855 58.3695 32.7255 58.4205 32.9385 58.5225C33.1545 58.6245 33.3375 58.773 33.4875 58.968C33.6375 59.16 33.7515 59.394 33.8295 59.67C33.9105 59.946 33.951 60.2565 33.951 60.6015C33.951 60.9705 33.906 61.3065 33.816 61.6095C33.726 61.9125 33.5955 62.172 33.4245 62.388C33.2565 62.601 33.051 62.7675 32.808 62.8875C32.565 63.0045 32.292 63.063 31.989 63.063C31.689 63.063 31.4355 63.0075 31.2285 62.8965C31.0245 62.7825 30.846 62.622 30.693 62.415L30.6525 62.829C30.6285 62.943 30.5595 63 30.4455 63H29.928V56.3715H30.7335V59.0985ZM35.7921 56.3715V63H34.9911V56.3715H35.7921ZM40.8395 58.4415V63H40.3625C40.2485 63 40.1765 62.9445 40.1465 62.8335L40.0835 62.343C39.8855 62.562 39.6635 62.739 39.4175 62.874C39.1715 63.006 38.8895 63.072 38.5715 63.072C38.3225 63.072 38.102 63.0315 37.91 62.9505C37.721 62.8665 37.562 62.7495 37.433 62.5995C37.304 62.4495 37.2065 62.268 37.1405 62.055C37.0775 61.842 37.046 61.6065 37.046 61.3485V58.4415H37.847V61.3485C37.847 61.6935 37.925 61.9605 38.081 62.1495C38.24 62.3385 38.4815 62.433 38.8055 62.433C39.0425 62.433 39.263 62.3775 39.467 62.2665C39.674 62.1525 39.8645 61.9965 40.0385 61.7985V58.4415H40.8395ZM45.1606 60.2235C45.1606 60.0375 45.1336 59.868 45.0796 59.715C45.0286 59.559 44.9521 59.4255 44.8501 59.3145C44.7511 59.2005 44.6296 59.1135 44.4856 59.0535C44.3416 58.9905 44.1781 58.959 43.9951 58.959C43.6111 58.959 43.3066 59.0715 43.0816 59.2965C42.8596 59.5185 42.7216 59.8275 42.6676 60.2235H45.1606ZM45.8086 62.361C45.7096 62.481 45.5911 62.586 45.4531 62.676C45.3151 62.763 45.1666 62.835 45.0076 62.892C44.8516 62.949 44.6896 62.991 44.5216 63.018C44.3536 63.048 44.1871 63.063 44.0221 63.063C43.7071 63.063 43.4161 63.0105 43.1491 62.9055C42.8851 62.7975 42.6556 62.6415 42.4606 62.4375C42.2686 62.2305 42.1186 61.9755 42.0106 61.6725C41.9026 61.3695 41.8486 61.0215 41.8486 60.6285C41.8486 60.3105 41.8966 60.0135 41.9926 59.7375C42.0916 59.4615 42.2326 59.223 42.4156 59.022C42.5986 58.818 42.8221 58.659 43.0861 58.545C43.3501 58.428 43.6471 58.3695 43.9771 58.3695C44.2501 58.3695 44.5021 58.416 44.7331 58.509C44.9671 58.599 45.1681 58.731 45.3361 58.905C45.5071 59.076 45.6406 59.289 45.7366 59.544C45.8326 59.796 45.8806 60.084 45.8806 60.408C45.8806 60.534 45.8671 60.618 45.8401 60.66C45.8131 60.702 45.7621 60.723 45.6871 60.723H42.6406C42.6496 61.011 42.6886 61.2615 42.7576 61.4745C42.8296 61.6875 42.9286 61.866 43.0546 62.01C43.1806 62.151 43.3306 62.2575 43.5046 62.3295C43.6786 62.3985 43.8736 62.433 44.0896 62.433C44.2906 62.433 44.4631 62.4105 44.6071 62.3655C44.7541 62.3175 44.8801 62.2665 44.9851 62.2125C45.0901 62.1585 45.1771 62.109 45.2461 62.064C45.3181 62.016 45.3796 61.992 45.4306 61.992C45.4966 61.992 45.5476 62.0175 45.5836 62.0685L45.8086 62.361ZM47.2598 56.1195C47.3858 56.3325 47.4713 56.5575 47.5163 56.7945C47.5613 57.0315 47.5658 57.2655 47.5298 57.4965C47.4938 57.7275 47.4188 57.9495 47.3048 58.1625C47.1908 58.3755 47.0393 58.5645 46.8503 58.7295L46.6073 58.572C46.5623 58.545 46.5413 58.5105 46.5443 58.4685C46.5503 58.4235 46.5653 58.3875 46.5893 58.3605C46.6673 58.2645 46.7333 58.149 46.7873 58.014C46.8443 57.876 46.8803 57.729 46.8953 57.573C46.9133 57.414 46.9058 57.2505 46.8728 57.0825C46.8428 56.9145 46.7813 56.7525 46.6883 56.5965C46.6493 56.5335 46.6373 56.478 46.6523 56.43C46.6703 56.379 46.7078 56.3415 46.7648 56.3175L47.2598 56.1195ZM48.6278 56.1195C48.7538 56.3325 48.8393 56.5575 48.8843 56.7945C48.9293 57.0315 48.9338 57.2655 48.8978 57.4965C48.8618 57.7275 48.7868 57.9495 48.6728 58.1625C48.5588 58.3755 48.4073 58.5645 48.2183 58.7295L47.9753 58.572C47.9303 58.545 47.9093 58.5105 47.9123 58.4685C47.9183 58.4235 47.9333 58.3875 47.9573 58.3605C48.0353 58.2645 48.1013 58.149 48.1553 58.014C48.2123 57.876 48.2483 57.729 48.2633 57.573C48.2813 57.414 48.2738 57.2505 48.2408 57.0825C48.2108 56.9145 48.1493 56.7525 48.0563 56.5965C48.0173 56.5335 48.0053 56.478 48.0203 56.43C48.0383 56.379 48.0758 56.3415 48.1328 56.3175L48.6278 56.1195Z" fill="black"/>
</g>
</g>
<g id="pair_2">
<circle id="node-template_2" cx="131" cy="52" r="22.5" stroke="black"/>
<g id="params_2">
<path id="key-sue-linear-probing" d="M114.569 44.3715V48.273H114.776C114.836 48.273 114.885 48.2655 114.924 48.2505C114.966 48.2325 115.01 48.198 115.055 48.147L116.495 46.6035C116.537 46.5525 116.58 46.5135 116.625 46.4865C116.673 46.4565 116.736 46.4415 116.814 46.4415H117.539L115.86 48.228C115.779 48.33 115.692 48.4095 115.599 48.4665C115.653 48.5025 115.701 48.5445 115.743 48.5925C115.788 48.6375 115.83 48.69 115.869 48.75L117.651 51H116.936C116.867 51 116.807 50.9895 116.756 50.9685C116.708 50.9445 116.666 50.9025 116.63 50.8425L115.131 48.975C115.086 48.912 115.041 48.8715 114.996 48.8535C114.954 48.8325 114.888 48.822 114.798 48.822H114.569V51H113.763V44.3715H114.569ZM121.13 48.2235C121.13 48.0375 121.103 47.868 121.049 47.715C120.998 47.559 120.921 47.4255 120.819 47.3145C120.72 47.2005 120.599 47.1135 120.455 47.0535C120.311 46.9905 120.147 46.959 119.964 46.959C119.58 46.959 119.276 47.0715 119.051 47.2965C118.829 47.5185 118.691 47.8275 118.637 48.2235H121.13ZM121.778 50.361C121.679 50.481 121.56 50.586 121.422 50.676C121.284 50.763 121.136 50.835 120.977 50.892C120.821 50.949 120.659 50.991 120.491 51.018C120.323 51.048 120.156 51.063 119.991 51.063C119.676 51.063 119.385 51.0105 119.118 50.9055C118.854 50.7975 118.625 50.6415 118.43 50.4375C118.238 50.2305 118.088 49.9755 117.98 49.6725C117.872 49.3695 117.818 49.0215 117.818 48.6285C117.818 48.3105 117.866 48.0135 117.962 47.7375C118.061 47.4615 118.202 47.223 118.385 47.022C118.568 46.818 118.791 46.659 119.055 46.545C119.319 46.428 119.616 46.3695 119.946 46.3695C120.219 46.3695 120.471 46.416 120.702 46.509C120.936 46.599 121.137 46.731 121.305 46.905C121.476 47.076 121.61 47.289 121.706 47.544C121.802 47.796 121.85 48.084 121.85 48.408C121.85 48.534 121.836 48.618 121.809 48.66C121.782 48.702 121.731 48.723 121.656 48.723H118.61C118.619 49.011 118.658 49.2615 118.727 49.4745C118.799 49.6875 118.898 49.866 119.024 50.01C119.15 50.151 119.3 50.2575 119.474 50.3295C119.648 50.3985 119.843 50.433 120.059 50.433C120.26 50.433 120.432 50.4105 120.576 50.3655C120.723 50.3175 120.849 50.2665 120.954 50.2125C121.059 50.1585 121.146 50.109 121.215 50.064C121.287 50.016 121.349 49.992 121.4 49.992C121.466 49.992 121.517 50.0175 121.553 50.0685L121.778 50.361ZM126.652 46.4415L124.11 52.3455C124.083 52.4055 124.048 52.4535 124.006 52.4895C123.967 52.5255 123.906 52.5435 123.822 52.5435H123.228L124.06 50.7345L122.179 46.4415H122.872C122.941 46.4415 122.995 46.4595 123.034 46.4955C123.076 46.5285 123.105 46.566 123.12 46.608L124.339 49.479C124.387 49.605 124.428 49.737 124.461 49.875C124.503 49.734 124.548 49.6005 124.596 49.4745L125.779 46.608C125.797 46.56 125.827 46.521 125.869 46.491C125.914 46.458 125.964 46.4415 126.018 46.4415H126.652ZM127.401 48.417H131.271V49.0245H127.401V48.417ZM127.401 46.9095H131.271V47.517H127.401V46.9095ZM132.711 46.725C132.585 46.512 132.5 46.2885 132.455 46.0545C132.41 45.8175 132.405 45.5835 132.441 45.3525C132.477 45.1215 132.552 44.901 132.666 44.691C132.78 44.478 132.932 44.2875 133.121 44.1195L133.364 44.2725C133.409 44.3025 133.428 44.34 133.422 44.385C133.419 44.427 133.406 44.46 133.382 44.484C133.304 44.58 133.236 44.697 133.179 44.835C133.125 44.973 133.091 45.1215 133.076 45.2805C133.061 45.4365 133.068 45.5985 133.098 45.7665C133.128 45.9345 133.19 46.0965 133.283 46.2525C133.322 46.3155 133.332 46.3725 133.314 46.4235C133.299 46.4715 133.263 46.5075 133.206 46.5315L132.711 46.725ZM134.079 46.725C133.953 46.512 133.868 46.2885 133.823 46.0545C133.778 45.8175 133.773 45.5835 133.809 45.3525C133.845 45.1215 133.92 44.901 134.034 44.691C134.148 44.478 134.3 44.2875 134.489 44.1195L134.732 44.2725C134.777 44.3025 134.796 44.34 134.79 44.385C134.787 44.427 134.774 44.46 134.75 44.484C134.672 44.58 134.604 44.697 134.547 44.835C134.493 44.973 134.459 45.1215 134.444 45.2805C134.429 45.4365 134.436 45.5985 134.466 45.7665C134.496 45.9345 134.558 46.0965 134.651 46.2525C134.69 46.3155 134.7 46.3725 134.682 46.4235C134.667 46.4715 134.631 46.5075 134.574 46.5315L134.079 46.725ZM138.365 47.193C138.329 47.259 138.273 47.292 138.198 47.292C138.153 47.292 138.102 47.2755 138.045 47.2425C137.988 47.2095 137.918 47.1735 137.834 47.1345C137.753 47.0925 137.655 47.055 137.541 47.022C137.427 46.986 137.292 46.968 137.136 46.968C137.001 46.968 136.88 46.986 136.772 47.022C136.664 47.055 136.571 47.1015 136.493 47.1615C136.418 47.2215 136.359 47.292 136.317 47.373C136.278 47.451 136.259 47.5365 136.259 47.6295C136.259 47.7465 136.292 47.844 136.358 47.922C136.427 48 136.517 48.0675 136.628 48.1245C136.739 48.1815 136.865 48.2325 137.006 48.2775C137.147 48.3195 137.291 48.366 137.438 48.417C137.588 48.465 137.733 48.519 137.874 48.579C138.015 48.639 138.141 48.714 138.252 48.804C138.363 48.894 138.452 49.005 138.518 49.137C138.587 49.266 138.621 49.422 138.621 49.605C138.621 49.815 138.584 50.01 138.509 50.19C138.434 50.367 138.323 50.5215 138.176 50.6535C138.029 50.7825 137.849 50.8845 137.636 50.9595C137.423 51.0345 137.177 51.072 136.898 51.072C136.58 51.072 136.292 51.021 136.034 50.919C135.776 50.814 135.557 50.6805 135.377 50.5185L135.566 50.2125C135.59 50.1735 135.618 50.1435 135.651 50.1225C135.684 50.1015 135.726 50.091 135.777 50.091C135.831 50.091 135.888 50.112 135.948 50.154C136.008 50.196 136.08 50.2425 136.164 50.2935C136.251 50.3445 136.356 50.391 136.479 50.433C136.602 50.475 136.755 50.496 136.938 50.496C137.094 50.496 137.231 50.4765 137.348 50.4375C137.465 50.3955 137.562 50.34 137.64 50.271C137.718 50.202 137.775 50.1225 137.811 50.0325C137.85 49.9425 137.87 49.8465 137.87 49.7445C137.87 49.6185 137.835 49.515 137.766 49.434C137.7 49.35 137.612 49.2795 137.501 49.2225C137.39 49.1625 137.262 49.1115 137.118 49.0695C136.977 49.0245 136.832 48.978 136.682 48.93C136.535 48.882 136.389 48.828 136.245 48.768C136.104 48.705 135.978 48.627 135.867 48.534C135.756 48.441 135.666 48.327 135.597 48.192C135.531 48.054 135.498 47.8875 135.498 47.6925C135.498 47.5185 135.534 47.352 135.606 47.193C135.678 47.031 135.783 46.89 135.921 46.77C136.059 46.647 136.229 46.5495 136.43 46.4775C136.631 46.4055 136.86 46.3695 137.118 46.3695C137.418 46.3695 137.687 46.4175 137.924 46.5135C138.164 46.6065 138.371 46.7355 138.545 46.9005L138.365 47.193ZM143.352 46.4415V51H142.875C142.761 51 142.689 50.9445 142.659 50.8335L142.596 50.343C142.398 50.562 142.176 50.739 141.93 50.874C141.684 51.006 141.402 51.072 141.084 51.072C140.835 51.072 140.614 51.0315 140.422 50.9505C140.233 50.8665 140.074 50.7495 139.945 50.5995C139.816 50.4495 139.719 50.268 139.653 50.055C139.59 49.842 139.558 49.6065 139.558 49.3485V46.4415H140.359V49.3485C140.359 49.6935 140.437 49.9605 140.593 50.1495C140.752 50.3385 140.994 50.433 141.318 50.433C141.555 50.433 141.775 50.3775 141.979 50.2665C142.186 50.1525 142.377 49.9965 142.551 49.7985V46.4415H143.352ZM147.673 48.2235C147.673 48.0375 147.646 47.868 147.592 47.715C147.541 47.559 147.464 47.4255 147.362 47.3145C147.263 47.2005 147.142 47.1135 146.998 47.0535C146.854 46.9905 146.69 46.959 146.507 46.959C146.123 46.959 145.819 47.0715 145.594 47.2965C145.372 47.5185 145.234 47.8275 145.18 48.2235H147.673ZM148.321 50.361C148.222 50.481 148.103 50.586 147.965 50.676C147.827 50.763 147.679 50.835 147.52 50.892C147.364 50.949 147.202 50.991 147.034 51.018C146.866 51.048 146.699 51.063 146.534 51.063C146.219 51.063 145.928 51.0105 145.661 50.9055C145.397 50.7975 145.168 50.6415 144.973 50.4375C144.781 50.2305 144.631 49.9755 144.523 49.6725C144.415 49.3695 144.361 49.0215 144.361 48.6285C144.361 48.3105 144.409 48.0135 144.505 47.7375C144.604 47.4615 144.745 47.223 144.928 47.022C145.111 46.818 145.334 46.659 145.598 46.545C145.862 46.428 146.159 46.3695 146.489 46.3695C146.762 46.3695 147.014 46.416 147.245 46.509C147.479 46.599 147.68 46.731 147.848 46.905C148.019 47.076 148.153 47.289 148.249 47.544C148.345 47.796 148.393 48.084 148.393 48.408C148.393 48.534 148.379 48.618 148.352 48.66C148.325 48.702 148.274 48.723 148.199 48.723H145.153C145.162 49.011 145.201 49.2615 145.27 49.4745C145.342 49.6875 145.441 49.866 145.567 50.01C145.693 50.151 145.843 50.2575 146.017 50.3295C146.191 50.3985 146.386 50.433 146.602 50.433C146.803 50.433 146.975 50.4105 147.119 50.3655C147.266 50.3175 147.392 50.2665 147.497 50.2125C147.602 50.1585 147.689 50.109 147.758 50.064C147.83 50.016 147.892 49.992 147.943 49.992C148.009 49.992 148.06 50.0175 148.096 50.0685L148.321 50.361ZM149.772 44.1195C149.898 44.3325 149.983 44.5575 150.028 44.7945C150.073 45.0315 150.078 45.2655 150.042 45.4965C150.006 45.7275 149.931 45.9495 149.817 46.1625C149.703 46.3755 149.551 46.5645 149.362 46.7295L149.119 46.572C149.074 46.545 149.053 46.5105 149.056 46.4685C149.062 46.4235 149.077 46.3875 149.101 46.3605C149.179 46.2645 149.245 46.149 149.299 46.014C149.356 45.876 149.392 45.729 149.407 45.573C149.425 45.414 149.418 45.2505 149.385 45.0825C149.355 44.9145 149.293 44.7525 149.2 44.5965C149.161 44.5335 149.149 44.478 149.164 44.43C149.182 44.379 149.22 44.3415 149.277 44.3175L149.772 44.1195ZM151.14 44.1195C151.266 44.3325 151.351 44.5575 151.396 44.7945C151.441 45.0315 151.446 45.2655 151.41 45.4965C151.374 45.7275 151.299 45.9495 151.185 46.1625C151.071 46.3755 150.919 46.5645 150.73 46.7295L150.487 46.572C150.442 46.545 150.421 46.5105 150.424 46.4685C150.43 46.4235 150.445 46.3875 150.469 46.3605C150.547 46.2645 150.613 46.149 150.667 46.014C150.724 45.876 150.76 45.729 150.775 45.573C150.793 45.414 150.786 45.2505 150.753 45.0825C150.723 44.9145 150.661 44.7525 150.568 44.5965C150.529 44.5335 150.517 44.478 150.532 44.43C150.55 44.379 150.588 44.3415 150.645 44.3175L151.14 44.1195Z" fill="black"/>
<path id="val=&#226;&#128;&#156;red&#226;&#128;&#157;" d="M117.128 57.4415L115.27 62H114.55L112.691 57.4415H113.344C113.41 57.4415 113.464 57.458 113.506 57.491C113.548 57.524 113.576 57.563 113.591 57.608L114.748 60.542C114.784 60.653 114.815 60.761 114.842 60.866C114.869 60.971 114.895 61.076 114.919 61.181C114.943 61.076 114.968 60.971 114.995 60.866C115.022 60.761 115.055 60.653 115.094 60.542L116.264 57.608C116.282 57.56 116.312 57.521 116.354 57.491C116.396 57.458 116.446 57.4415 116.503 57.4415H117.128ZM120.237 59.948C119.868 59.96 119.553 59.99 119.292 60.038C119.034 60.083 118.822 60.143 118.657 60.218C118.495 60.293 118.377 60.3815 118.302 60.4835C118.23 60.5855 118.194 60.6995 118.194 60.8255C118.194 60.9455 118.213 61.049 118.252 61.136C118.291 61.223 118.344 61.295 118.41 61.352C118.479 61.406 118.558 61.4465 118.648 61.4735C118.741 61.4975 118.84 61.5095 118.945 61.5095C119.086 61.5095 119.215 61.496 119.332 61.469C119.449 61.439 119.559 61.397 119.661 61.343C119.766 61.289 119.865 61.2245 119.958 61.1495C120.054 61.0745 120.147 60.989 120.237 60.893V59.948ZM117.649 58.085C117.901 57.842 118.173 57.6605 118.464 57.5405C118.755 57.4205 119.077 57.3605 119.431 57.3605C119.686 57.3605 119.913 57.4025 120.111 57.4865C120.309 57.5705 120.475 57.6875 120.61 57.8375C120.745 57.9875 120.847 58.169 120.916 58.382C120.985 58.595 121.02 58.829 121.02 59.084V62H120.664C120.586 62 120.526 61.988 120.484 61.964C120.442 61.937 120.409 61.886 120.385 61.811L120.295 61.379C120.175 61.49 120.058 61.589 119.944 61.676C119.83 61.76 119.71 61.832 119.584 61.892C119.458 61.949 119.323 61.9925 119.179 62.0225C119.038 62.0555 118.881 62.072 118.707 62.072C118.53 62.072 118.363 62.048 118.207 62C118.051 61.949 117.915 61.874 117.798 61.775C117.684 61.676 117.592 61.5515 117.523 61.4015C117.457 61.2485 117.424 61.0685 117.424 60.8615C117.424 60.6815 117.474 60.509 117.573 60.344C117.672 60.176 117.832 60.0275 118.054 59.8985C118.276 59.7695 118.566 59.6645 118.923 59.5835C119.28 59.4995 119.718 59.4515 120.237 59.4395V59.084C120.237 58.73 120.16 58.463 120.007 58.283C119.854 58.1 119.631 58.0085 119.337 58.0085C119.139 58.0085 118.972 58.034 118.837 58.085C118.705 58.133 118.59 58.1885 118.491 58.2515C118.395 58.3115 118.311 58.367 118.239 58.418C118.17 58.466 118.101 58.49 118.032 58.49C117.978 58.49 117.931 58.4765 117.892 58.4495C117.853 58.4195 117.82 58.3835 117.793 58.3415L117.649 58.085ZM123.068 55.3715V62H122.267V55.3715H123.068ZM124.407 59.417H128.277V60.0245H124.407V59.417ZM124.407 57.9095H128.277V58.517H124.407V57.9095ZM129.718 57.725C129.592 57.512 129.507 57.2885 129.462 57.0545C129.417 56.8175 129.412 56.5835 129.448 56.3525C129.484 56.1215 129.559 55.901 129.673 55.691C129.787 55.478 129.939 55.2875 130.128 55.1195L130.371 55.2725C130.416 55.3025 130.435 55.34 130.429 55.385C130.426 55.427 130.413 55.46 130.389 55.484C130.311 55.58 130.243 55.697 130.186 55.835C130.132 55.973 130.098 56.1215 130.083 56.2805C130.068 56.4365 130.075 56.5985 130.105 56.7665C130.135 56.9345 130.197 57.0965 130.29 57.2525C130.329 57.3155 130.339 57.3725 130.321 57.4235C130.306 57.4715 130.27 57.5075 130.213 57.5315L129.718 57.725ZM131.086 57.725C130.96 57.512 130.875 57.2885 130.83 57.0545C130.785 56.8175 130.78 56.5835 130.816 56.3525C130.852 56.1215 130.927 55.901 131.041 55.691C131.155 55.478 131.307 55.2875 131.496 55.1195L131.739 55.2725C131.784 55.3025 131.803 55.34 131.797 55.385C131.794 55.427 131.781 55.46 131.757 55.484C131.679 55.58 131.611 55.697 131.554 55.835C131.5 55.973 131.466 56.1215 131.451 56.2805C131.436 56.4365 131.443 56.5985 131.473 56.7665C131.503 56.9345 131.565 57.0965 131.658 57.2525C131.697 57.3155 131.707 57.3725 131.689 57.4235C131.674 57.4715 131.638 57.5075 131.581 57.5315L131.086 57.725ZM133.635 58.355C133.779 58.043 133.956 57.8 134.166 57.626C134.376 57.449 134.633 57.3605 134.936 57.3605C135.032 57.3605 135.123 57.371 135.21 57.392C135.3 57.413 135.38 57.446 135.449 57.491L135.39 58.0895C135.372 58.1645 135.327 58.202 135.255 58.202C135.213 58.202 135.152 58.193 135.071 58.175C134.99 58.157 134.898 58.148 134.796 58.148C134.652 58.148 134.523 58.169 134.409 58.211C134.298 58.253 134.198 58.316 134.108 58.4C134.021 58.481 133.941 58.583 133.869 58.706C133.8 58.826 133.737 58.964 133.68 59.12V62H132.875V57.4415H133.334C133.421 57.4415 133.481 57.458 133.514 57.491C133.547 57.524 133.569 57.581 133.581 57.662L133.635 58.355ZM139.019 59.2235C139.019 59.0375 138.992 58.868 138.938 58.715C138.887 58.559 138.811 58.4255 138.709 58.3145C138.61 58.2005 138.488 58.1135 138.344 58.0535C138.2 57.9905 138.037 57.959 137.854 57.959C137.47 57.959 137.165 58.0715 136.94 58.2965C136.718 58.5185 136.58 58.8275 136.526 59.2235H139.019ZM139.667 61.361C139.568 61.481 139.45 61.586 139.312 61.676C139.174 61.763 139.025 61.835 138.866 61.892C138.71 61.949 138.548 61.991 138.38 62.018C138.212 62.048 138.046 62.063 137.881 62.063C137.566 62.063 137.275 62.0105 137.008 61.9055C136.744 61.7975 136.514 61.6415 136.319 61.4375C136.127 61.2305 135.977 60.9755 135.869 60.6725C135.761 60.3695 135.707 60.0215 135.707 59.6285C135.707 59.3105 135.755 59.0135 135.851 58.7375C135.95 58.4615 136.091 58.223 136.274 58.022C136.457 57.818 136.681 57.659 136.945 57.545C137.209 57.428 137.506 57.3695 137.836 57.3695C138.109 57.3695 138.361 57.416 138.592 57.509C138.826 57.599 139.027 57.731 139.195 57.905C139.366 58.076 139.499 58.289 139.595 58.544C139.691 58.796 139.739 59.084 139.739 59.408C139.739 59.534 139.726 59.618 139.699 59.66C139.672 59.702 139.621 59.723 139.546 59.723H136.499C136.508 60.011 136.547 60.2615 136.616 60.4745C136.688 60.6875 136.787 60.866 136.913 61.01C137.039 61.151 137.189 61.2575 137.363 61.3295C137.537 61.3985 137.732 61.433 137.948 61.433C138.149 61.433 138.322 61.4105 138.466 61.3655C138.613 61.3175 138.739 61.2665 138.844 61.2125C138.949 61.1585 139.036 61.109 139.105 61.064C139.177 61.016 139.238 60.992 139.289 60.992C139.355 60.992 139.406 61.0175 139.442 61.0685L139.667 61.361ZM143.693 58.526C143.543 58.325 143.381 58.1855 143.207 58.1075C143.033 58.0265 142.838 57.986 142.622 57.986C142.199 57.986 141.874 58.1375 141.646 58.4405C141.418 58.7435 141.304 59.1755 141.304 59.7365C141.304 60.0335 141.329 60.2885 141.38 60.5015C141.431 60.7115 141.506 60.8855 141.605 61.0235C141.704 61.1585 141.826 61.2575 141.97 61.3205C142.114 61.3835 142.277 61.415 142.46 61.415C142.724 61.415 142.954 61.355 143.149 61.235C143.347 61.115 143.528 60.9455 143.693 60.7265V58.526ZM144.494 55.3715V62H144.017C143.903 62 143.831 61.9445 143.801 61.8335L143.729 61.28C143.534 61.514 143.312 61.703 143.063 61.847C142.814 61.991 142.526 62.063 142.199 62.063C141.938 62.063 141.701 62.0135 141.488 61.9145C141.275 61.8125 141.094 61.664 140.944 61.469C140.794 61.274 140.678 61.031 140.597 60.74C140.516 60.449 140.476 60.1145 140.476 59.7365C140.476 59.4005 140.521 59.0885 140.611 58.8005C140.701 58.5095 140.83 58.2575 140.998 58.0445C141.166 57.8315 141.371 57.665 141.614 57.545C141.86 57.422 142.136 57.3605 142.442 57.3605C142.721 57.3605 142.96 57.4085 143.158 57.5045C143.359 57.5975 143.537 57.728 143.693 57.896V55.3715H144.494ZM146.313 55.1195C146.439 55.3325 146.525 55.5575 146.57 55.7945C146.615 56.0315 146.619 56.2655 146.583 56.4965C146.547 56.7275 146.472 56.9495 146.358 57.1625C146.244 57.3755 146.093 57.5645 145.904 57.7295L145.661 57.572C145.616 57.545 145.595 57.5105 145.598 57.4685C145.604 57.4235 145.619 57.3875 145.643 57.3605C145.721 57.2645 145.787 57.149 145.841 57.014C145.898 56.876 145.934 56.729 145.949 56.573C145.967 56.414 145.959 56.2505 145.926 56.0825C145.896 55.9145 145.835 55.7525 145.742 55.5965C145.703 55.5335 145.691 55.478 145.706 55.43C145.724 55.379 145.761 55.3415 145.818 55.3175L146.313 55.1195ZM147.681 55.1195C147.807 55.3325 147.893 55.5575 147.938 55.7945C147.983 56.0315 147.987 56.2655 147.951 56.4965C147.915 56.7275 147.84 56.9495 147.726 57.1625C147.612 57.3755 147.461 57.5645 147.272 57.7295L147.029 57.572C146.984 57.545 146.963 57.5105 146.966 57.4685C146.972 57.4235 146.987 57.3875 147.011 57.3605C147.089 57.2645 147.155 57.149 147.209 57.014C147.266 56.876 147.302 56.729 147.317 56.573C147.335 56.414 147.327 56.2505 147.294 56.0825C147.264 55.9145 147.203 55.7525 147.11 55.5965C147.071 55.5335 147.059 55.478 147.074 55.43C147.092 55.379 147.129 55.3415 147.186 55.3175L147.681 55.1195Z" fill="black"/>
</g>
</g>
<g id="pair_3">
<circle id="node-template_3" cx="182" cy="52" r="22.5" stroke="black"/>
<g id="params-to-remove-linear-probing">
<path id="key-al-linear-probing" d="M169.032 44.3715V48.273H169.239C169.299 48.273 169.348 48.2655 169.387 48.2505C169.429 48.2325 169.473 48.198 169.518 48.147L170.958 46.6035C171 46.5525 171.043 46.5135 171.088 46.4865C171.136 46.4565 171.199 46.4415 171.277 46.4415H172.002L170.323 48.228C170.242 48.33 170.155 48.4095 170.062 48.4665C170.116 48.5025 170.164 48.5445 170.206 48.5925C170.251 48.6375 170.293 48.69 170.332 48.75L172.114 51H171.399C171.33 51 171.27 50.9895 171.219 50.9685C171.171 50.9445 171.129 50.9025 171.093 50.8425L169.594 48.975C169.549 48.912 169.504 48.8715 169.459 48.8535C169.417 48.8325 169.351 48.822 169.261 48.822H169.032V51H168.226V44.3715H169.032ZM175.593 48.2235C175.593 48.0375 175.566 47.868 175.512 47.715C175.461 47.559 175.384 47.4255 175.282 47.3145C175.183 47.2005 175.062 47.1135 174.918 47.0535C174.774 46.9905 174.61 46.959 174.427 46.959C174.043 46.959 173.739 47.0715 173.514 47.2965C173.292 47.5185 173.154 47.8275 173.1 48.2235H175.593ZM176.241 50.361C176.142 50.481 176.023 50.586 175.885 50.676C175.747 50.763 175.599 50.835 175.44 50.892C175.284 50.949 175.122 50.991 174.954 51.018C174.786 51.048 174.619 51.063 174.454 51.063C174.139 51.063 173.848 51.0105 173.581 50.9055C173.317 50.7975 173.088 50.6415 172.893 50.4375C172.701 50.2305 172.551 49.9755 172.443 49.6725C172.335 49.3695 172.281 49.0215 172.281 48.6285C172.281 48.3105 172.329 48.0135 172.425 47.7375C172.524 47.4615 172.665 47.223 172.848 47.022C173.031 46.818 173.254 46.659 173.518 46.545C173.782 46.428 174.079 46.3695 174.409 46.3695C174.682 46.3695 174.934 46.416 175.165 46.509C175.399 46.599 175.6 46.731 175.768 46.905C175.939 47.076 176.073 47.289 176.169 47.544C176.265 47.796 176.313 48.084 176.313 48.408C176.313 48.534 176.299 48.618 176.272 48.66C176.245 48.702 176.194 48.723 176.119 48.723H173.073C173.082 49.011 173.121 49.2615 173.19 49.4745C173.262 49.6875 173.361 49.866 173.487 50.01C173.613 50.151 173.763 50.2575 173.937 50.3295C174.111 50.3985 174.306 50.433 174.522 50.433C174.723 50.433 174.895 50.4105 175.039 50.3655C175.186 50.3175 175.312 50.2665 175.417 50.2125C175.522 50.1585 175.609 50.109 175.678 50.064C175.75 50.016 175.812 49.992 175.863 49.992C175.929 49.992 175.98 50.0175 176.016 50.0685L176.241 50.361ZM181.115 46.4415L178.573 52.3455C178.546 52.4055 178.511 52.4535 178.469 52.4895C178.43 52.5255 178.369 52.5435 178.285 52.5435H177.691L178.523 50.7345L176.642 46.4415H177.335C177.404 46.4415 177.458 46.4595 177.497 46.4955C177.539 46.5285 177.568 46.566 177.583 46.608L178.802 49.479C178.85 49.605 178.891 49.737 178.924 49.875C178.966 49.734 179.011 49.6005 179.059 49.4745L180.242 46.608C180.26 46.56 180.29 46.521 180.332 46.491C180.377 46.458 180.427 46.4415 180.481 46.4415H181.115ZM181.863 48.417H185.733V49.0245H181.863V48.417ZM181.863 46.9095H185.733V47.517H181.863V46.9095ZM187.174 46.725C187.048 46.512 186.963 46.2885 186.918 46.0545C186.873 45.8175 186.868 45.5835 186.904 45.3525C186.94 45.1215 187.015 44.901 187.129 44.691C187.243 44.478 187.395 44.2875 187.584 44.1195L187.827 44.2725C187.872 44.3025 187.891 44.34 187.885 44.385C187.882 44.427 187.869 44.46 187.845 44.484C187.767 44.58 187.699 44.697 187.642 44.835C187.588 44.973 187.554 45.1215 187.539 45.2805C187.524 45.4365 187.531 45.5985 187.561 45.7665C187.591 45.9345 187.653 46.0965 187.746 46.2525C187.785 46.3155 187.795 46.3725 187.777 46.4235C187.762 46.4715 187.726 46.5075 187.669 46.5315L187.174 46.725ZM188.542 46.725C188.416 46.512 188.331 46.2885 188.286 46.0545C188.241 45.8175 188.236 45.5835 188.272 45.3525C188.308 45.1215 188.383 44.901 188.497 44.691C188.611 44.478 188.763 44.2875 188.952 44.1195L189.195 44.2725C189.24 44.3025 189.259 44.34 189.253 44.385C189.25 44.427 189.237 44.46 189.213 44.484C189.135 44.58 189.067 44.697 189.01 44.835C188.956 44.973 188.922 45.1215 188.907 45.2805C188.892 45.4365 188.899 45.5985 188.929 45.7665C188.959 45.9345 189.021 46.0965 189.114 46.2525C189.153 46.3155 189.163 46.3725 189.145 46.4235C189.13 46.4715 189.094 46.5075 189.037 46.5315L188.542 46.725ZM192.626 48.948C192.257 48.96 191.942 48.99 191.681 49.038C191.423 49.083 191.211 49.143 191.046 49.218C190.884 49.293 190.766 49.3815 190.691 49.4835C190.619 49.5855 190.583 49.6995 190.583 49.8255C190.583 49.9455 190.602 50.049 190.641 50.136C190.68 50.223 190.733 50.295 190.799 50.352C190.868 50.406 190.947 50.4465 191.037 50.4735C191.13 50.4975 191.229 50.5095 191.334 50.5095C191.475 50.5095 191.604 50.496 191.721 50.469C191.838 50.439 191.948 50.397 192.05 50.343C192.155 50.289 192.254 50.2245 192.347 50.1495C192.443 50.0745 192.536 49.989 192.626 49.893V48.948ZM190.038 47.085C190.29 46.842 190.562 46.6605 190.853 46.5405C191.144 46.4205 191.466 46.3605 191.82 46.3605C192.075 46.3605 192.302 46.4025 192.5 46.4865C192.698 46.5705 192.864 46.6875 192.999 46.8375C193.134 46.9875 193.236 47.169 193.305 47.382C193.374 47.595 193.409 47.829 193.409 48.084V51H193.053C192.975 51 192.915 50.988 192.873 50.964C192.831 50.937 192.798 50.886 192.774 50.811L192.684 50.379C192.564 50.49 192.447 50.589 192.333 50.676C192.219 50.76 192.099 50.832 191.973 50.892C191.847 50.949 191.712 50.9925 191.568 51.0225C191.427 51.0555 191.27 51.072 191.096 51.072C190.919 51.072 190.752 51.048 190.596 51C190.44 50.949 190.304 50.874 190.187 50.775C190.073 50.676 189.981 50.5515 189.912 50.4015C189.846 50.2485 189.813 50.0685 189.813 49.8615C189.813 49.6815 189.863 49.509 189.962 49.344C190.061 49.176 190.221 49.0275 190.443 48.8985C190.665 48.7695 190.955 48.6645 191.312 48.5835C191.669 48.4995 192.107 48.4515 192.626 48.4395V48.084C192.626 47.73 192.549 47.463 192.396 47.283C192.243 47.1 192.02 47.0085 191.726 47.0085C191.528 47.0085 191.361 47.034 191.226 47.085C191.094 47.133 190.979 47.1885 190.88 47.2515C190.784 47.3115 190.7 47.367 190.628 47.418C190.559 47.466 190.49 47.49 190.421 47.49C190.367 47.49 190.32 47.4765 190.281 47.4495C190.242 47.4195 190.209 47.3835 190.182 47.3415L190.038 47.085ZM195.457 44.3715V51H194.656V44.3715H195.457ZM197.309 44.1195C197.435 44.3325 197.521 44.5575 197.566 44.7945C197.611 45.0315 197.615 45.2655 197.579 45.4965C197.543 45.7275 197.468 45.9495 197.354 46.1625C197.24 46.3755 197.089 46.5645 196.9 46.7295L196.657 46.572C196.612 46.545 196.591 46.5105 196.594 46.4685C196.6 46.4235 196.615 46.3875 196.639 46.3605C196.717 46.2645 196.783 46.149 196.837 46.014C196.894 45.876 196.93 45.729 196.945 45.573C196.963 45.414 196.955 45.2505 196.922 45.0825C196.892 44.9145 196.831 44.7525 196.738 44.5965C196.699 44.5335 196.687 44.478 196.702 44.43C196.72 44.379 196.757 44.3415 196.814 44.3175L197.309 44.1195ZM198.677 44.1195C198.803 44.3325 198.889 44.5575 198.934 44.7945C198.979 45.0315 198.983 45.2655 198.947 45.4965C198.911 45.7275 198.836 45.9495 198.722 46.1625C198.608 46.3755 198.457 46.5645 198.268 46.7295L198.025 46.572C197.98 46.545 197.959 46.5105 197.962 46.4685C197.968 46.4235 197.983 46.3875 198.007 46.3605C198.085 46.2645 198.151 46.149 198.205 46.014C198.262 45.876 198.298 45.729 198.313 45.573C198.331 45.414 198.323 45.2505 198.29 45.0825C198.26 44.9145 198.199 44.7525 198.106 44.5965C198.067 44.5335 198.055 44.478 198.07 44.43C198.088 44.379 198.125 44.3415 198.182 44.3175L198.677 44.1195Z" fill="black"/>
<path id="val=&#226;&#128;&#156;gold&#226;&#128;&#157;" d="M166.221 57.4415L164.363 62H163.643L161.784 57.4415H162.437C162.503 57.4415 162.557 57.458 162.599 57.491C162.641 57.524 162.669 57.563 162.684 57.608L163.841 60.542C163.877 60.653 163.908 60.761 163.935 60.866C163.962 60.971 163.988 61.076 164.012 61.181C164.036 61.076 164.061 60.971 164.088 60.866C164.115 60.761 164.148 60.653 164.187 60.542L165.357 57.608C165.375 57.56 165.405 57.521 165.447 57.491C165.489 57.458 165.539 57.4415 165.596 57.4415H166.221ZM169.33 59.948C168.961 59.96 168.646 59.99 168.385 60.038C168.127 60.083 167.915 60.143 167.75 60.218C167.588 60.293 167.47 60.3815 167.395 60.4835C167.323 60.5855 167.287 60.6995 167.287 60.8255C167.287 60.9455 167.306 61.049 167.345 61.136C167.384 61.223 167.437 61.295 167.503 61.352C167.572 61.406 167.651 61.4465 167.741 61.4735C167.834 61.4975 167.933 61.5095 168.038 61.5095C168.179 61.5095 168.308 61.496 168.425 61.469C168.542 61.439 168.652 61.397 168.754 61.343C168.859 61.289 168.958 61.2245 169.051 61.1495C169.147 61.0745 169.24 60.989 169.33 60.893V59.948ZM166.742 58.085C166.994 57.842 167.266 57.6605 167.557 57.5405C167.848 57.4205 168.17 57.3605 168.524 57.3605C168.779 57.3605 169.006 57.4025 169.204 57.4865C169.402 57.5705 169.568 57.6875 169.703 57.8375C169.838 57.9875 169.94 58.169 170.009 58.382C170.078 58.595 170.113 58.829 170.113 59.084V62H169.757C169.679 62 169.619 61.988 169.577 61.964C169.535 61.937 169.502 61.886 169.478 61.811L169.388 61.379C169.268 61.49 169.151 61.589 169.037 61.676C168.923 61.76 168.803 61.832 168.677 61.892C168.551 61.949 168.416 61.9925 168.272 62.0225C168.131 62.0555 167.974 62.072 167.8 62.072C167.623 62.072 167.456 62.048 167.3 62C167.144 61.949 167.008 61.874 166.891 61.775C166.777 61.676 166.685 61.5515 166.616 61.4015C166.55 61.2485 166.517 61.0685 166.517 60.8615C166.517 60.6815 166.567 60.509 166.666 60.344C166.765 60.176 166.925 60.0275 167.147 59.8985C167.369 59.7695 167.659 59.6645 168.016 59.5835C168.373 59.4995 168.811 59.4515 169.33 59.4395V59.084C169.33 58.73 169.253 58.463 169.1 58.283C168.947 58.1 168.724 58.0085 168.43 58.0085C168.232 58.0085 168.065 58.034 167.93 58.085C167.798 58.133 167.683 58.1885 167.584 58.2515C167.488 58.3115 167.404 58.367 167.332 58.418C167.263 58.466 167.194 58.49 167.125 58.49C167.071 58.49 167.024 58.4765 166.985 58.4495C166.946 58.4195 166.913 58.3835 166.886 58.3415L166.742 58.085ZM172.161 55.3715V62H171.36V55.3715H172.161ZM173.5 59.417H177.37V60.0245H173.5V59.417ZM173.5 57.9095H177.37V58.517H173.5V57.9095ZM178.811 57.725C178.685 57.512 178.599 57.2885 178.554 57.0545C178.509 56.8175 178.505 56.5835 178.541 56.3525C178.577 56.1215 178.652 55.901 178.766 55.691C178.88 55.478 179.031 55.2875 179.22 55.1195L179.463 55.2725C179.508 55.3025 179.528 55.34 179.522 55.385C179.519 55.427 179.505 55.46 179.481 55.484C179.403 55.58 179.336 55.697 179.279 55.835C179.225 55.973 179.19 56.1215 179.175 56.2805C179.16 56.4365 179.168 56.5985 179.198 56.7665C179.228 56.9345 179.289 57.0965 179.382 57.2525C179.421 57.3155 179.432 57.3725 179.414 57.4235C179.399 57.4715 179.363 57.5075 179.306 57.5315L178.811 57.725ZM180.179 57.725C180.053 57.512 179.967 57.2885 179.922 57.0545C179.877 56.8175 179.873 56.5835 179.909 56.3525C179.945 56.1215 180.02 55.901 180.134 55.691C180.248 55.478 180.399 55.2875 180.588 55.1195L180.831 55.2725C180.876 55.3025 180.896 55.34 180.89 55.385C180.887 55.427 180.873 55.46 180.849 55.484C180.771 55.58 180.704 55.697 180.647 55.835C180.593 55.973 180.558 56.1215 180.543 56.2805C180.528 56.4365 180.536 56.5985 180.566 56.7665C180.596 56.9345 180.657 57.0965 180.75 57.2525C180.789 57.3155 180.8 57.3725 180.782 57.4235C180.767 57.4715 180.731 57.5075 180.674 57.5315L180.179 57.725ZM183.38 59.7725C183.542 59.7725 183.685 59.75 183.808 59.705C183.931 59.66 184.034 59.597 184.118 59.516C184.202 59.435 184.265 59.339 184.307 59.228C184.349 59.114 184.37 58.9895 184.37 58.8545C184.37 58.5755 184.285 58.3535 184.114 58.1885C183.946 58.0235 183.701 57.941 183.38 57.941C183.056 57.941 182.809 58.0235 182.638 58.1885C182.47 58.3535 182.386 58.5755 182.386 58.8545C182.386 58.9895 182.407 59.114 182.449 59.228C182.494 59.339 182.558 59.435 182.642 59.516C182.726 59.597 182.83 59.66 182.953 59.705C183.076 59.75 183.218 59.7725 183.38 59.7725ZM184.825 62.2475C184.825 62.1365 184.793 62.0465 184.73 61.9775C184.667 61.9085 184.582 61.8545 184.474 61.8155C184.369 61.7765 184.246 61.7495 184.105 61.7345C183.964 61.7165 183.814 61.703 183.655 61.694C183.499 61.685 183.34 61.676 183.178 61.667C183.016 61.658 182.86 61.643 182.71 61.622C182.542 61.7 182.404 61.799 182.296 61.919C182.191 62.036 182.138 62.174 182.138 62.333C182.138 62.435 182.164 62.5295 182.215 62.6165C182.269 62.7065 182.35 62.783 182.458 62.846C182.566 62.912 182.701 62.963 182.863 62.999C183.028 63.038 183.221 63.0575 183.443 63.0575C183.659 63.0575 183.853 63.038 184.024 62.999C184.195 62.96 184.339 62.9045 184.456 62.8325C184.576 62.7605 184.667 62.675 184.73 62.576C184.793 62.477 184.825 62.3675 184.825 62.2475ZM185.639 57.6215V57.9185C185.639 58.0175 185.576 58.0805 185.45 58.1075L184.933 58.175C185.035 58.373 185.086 58.592 185.086 58.832C185.086 59.054 185.042 59.2565 184.955 59.4395C184.871 59.6195 184.754 59.774 184.604 59.903C184.454 60.032 184.274 60.131 184.064 60.2C183.854 60.269 183.626 60.3035 183.38 60.3035C183.167 60.3035 182.966 60.278 182.777 60.227C182.681 60.287 182.608 60.3515 182.557 60.4205C182.506 60.4865 182.48 60.554 182.48 60.623C182.48 60.731 182.524 60.8135 182.611 60.8705C182.701 60.9245 182.818 60.9635 182.962 60.9875C183.106 61.0115 183.269 61.0265 183.452 61.0325C183.638 61.0385 183.827 61.049 184.019 61.064C184.214 61.076 184.403 61.0985 184.586 61.1315C184.772 61.1645 184.937 61.2185 185.081 61.2935C185.225 61.3685 185.341 61.472 185.428 61.604C185.518 61.736 185.563 61.907 185.563 62.117C185.563 62.312 185.513 62.501 185.414 62.684C185.318 62.867 185.179 63.029 184.996 63.17C184.813 63.314 184.588 63.428 184.321 63.512C184.057 63.599 183.758 63.6425 183.425 63.6425C183.092 63.6425 182.801 63.6095 182.552 63.5435C182.303 63.4775 182.096 63.389 181.931 63.278C181.766 63.167 181.642 63.038 181.558 62.891C181.477 62.747 181.436 62.5955 181.436 62.4365C181.436 62.2115 181.507 62.021 181.648 61.865C181.789 61.709 181.982 61.5845 182.228 61.4915C182.093 61.4315 181.985 61.352 181.904 61.253C181.826 61.151 181.787 61.0145 181.787 60.8435C181.787 60.7775 181.799 60.71 181.823 60.641C181.847 60.569 181.883 60.4985 181.931 60.4295C181.982 60.3575 182.044 60.29 182.116 60.227C182.188 60.164 182.272 60.1085 182.368 60.0605C182.143 59.9345 181.967 59.768 181.841 59.561C181.715 59.351 181.652 59.108 181.652 58.832C181.652 58.61 181.694 58.409 181.778 58.229C181.865 58.046 181.985 57.8915 182.138 57.7655C182.291 57.6365 182.473 57.5375 182.683 57.4685C182.896 57.3995 183.128 57.365 183.38 57.365C183.578 57.365 183.763 57.3875 183.934 57.4325C184.105 57.4745 184.261 57.5375 184.402 57.6215H185.639ZM188.319 57.3695C188.652 57.3695 188.952 57.425 189.219 57.536C189.486 57.647 189.714 57.8045 189.903 58.0085C190.092 58.2125 190.236 58.46 190.335 58.751C190.437 59.039 190.488 59.3615 190.488 59.7185C190.488 60.0785 190.437 60.4025 190.335 60.6905C190.236 60.9785 190.092 61.2245 189.903 61.4285C189.714 61.6325 189.486 61.79 189.219 61.901C188.952 62.009 188.652 62.063 188.319 62.063C187.983 62.063 187.68 62.009 187.41 61.901C187.143 61.79 186.915 61.6325 186.726 61.4285C186.537 61.2245 186.391 60.9785 186.289 60.6905C186.19 60.4025 186.141 60.0785 186.141 59.7185C186.141 59.3615 186.19 59.039 186.289 58.751C186.391 58.46 186.537 58.2125 186.726 58.0085C186.915 57.8045 187.143 57.647 187.41 57.536C187.68 57.425 187.983 57.3695 188.319 57.3695ZM188.319 61.4375C188.769 61.4375 189.105 61.2875 189.327 60.9875C189.549 60.6845 189.66 60.263 189.66 59.723C189.66 59.18 189.549 58.757 189.327 58.454C189.105 58.151 188.769 57.9995 188.319 57.9995C188.091 57.9995 187.891 58.0385 187.72 58.1165C187.552 58.1945 187.411 58.307 187.297 58.454C187.186 58.601 187.102 58.7825 187.045 58.9985C186.991 59.2115 186.964 59.453 186.964 59.723C186.964 60.263 187.075 60.6845 187.297 60.9875C187.522 61.2875 187.863 61.4375 188.319 61.4375ZM192.332 55.3715V62H191.531V55.3715H192.332ZM196.601 58.526C196.451 58.325 196.289 58.1855 196.115 58.1075C195.941 58.0265 195.746 57.986 195.53 57.986C195.107 57.986 194.781 58.1375 194.553 58.4405C194.325 58.7435 194.211 59.1755 194.211 59.7365C194.211 60.0335 194.237 60.2885 194.288 60.5015C194.339 60.7115 194.414 60.8855 194.513 61.0235C194.612 61.1585 194.733 61.2575 194.877 61.3205C195.021 61.3835 195.185 61.415 195.368 61.415C195.632 61.415 195.861 61.355 196.056 61.235C196.254 61.115 196.436 60.9455 196.601 60.7265V58.526ZM197.402 55.3715V62H196.925C196.811 62 196.739 61.9445 196.709 61.8335L196.637 61.28C196.442 61.514 196.22 61.703 195.971 61.847C195.722 61.991 195.434 62.063 195.107 62.063C194.846 62.063 194.609 62.0135 194.396 61.9145C194.183 61.8125 194.001 61.664 193.851 61.469C193.701 61.274 193.586 61.031 193.505 60.74C193.424 60.449 193.383 60.1145 193.383 59.7365C193.383 59.4005 193.428 59.0885 193.518 58.8005C193.608 58.5095 193.737 58.2575 193.905 58.0445C194.073 57.8315 194.279 57.665 194.522 57.545C194.768 57.422 195.044 57.3605 195.35 57.3605C195.629 57.3605 195.867 57.4085 196.065 57.5045C196.266 57.5975 196.445 57.728 196.601 57.896V55.3715H197.402ZM199.22 55.1195C199.346 55.3325 199.432 55.5575 199.477 55.7945C199.522 56.0315 199.526 56.2655 199.49 56.4965C199.454 56.7275 199.379 56.9495 199.265 57.1625C199.151 57.3755 199 57.5645 198.811 57.7295L198.568 57.572C198.523 57.545 198.502 57.5105 198.505 57.4685C198.511 57.4235 198.526 57.3875 198.55 57.3605C198.628 57.2645 198.694 57.149 198.748 57.014C198.805 56.876 198.841 56.729 198.856 56.573C198.874 56.414 198.866 56.2505 198.833 56.0825C198.803 55.9145 198.742 55.7525 198.649 55.5965C198.61 55.5335 198.598 55.478 198.613 55.43C198.631 55.379 198.668 55.3415 198.725 55.3175L199.22 55.1195ZM200.588 55.1195C200.714 55.3325 200.8 55.5575 200.845 55.7945C200.89 56.0315 200.894 56.2655 200.858 56.4965C200.822 56.7275 200.747 56.9495 200.633 57.1625C200.519 57.3755 200.368 57.5645 200.179 57.7295L199.936 57.572C199.891 57.545 199.87 57.5105 199.873 57.4685C199.879 57.4235 199.894 57.3875 199.918 57.3605C199.996 57.2645 200.062 57.149 200.116 57.014C200.173 56.876 200.209 56.729 200.224 56.573C200.242 56.414 200.234 56.2505 200.201 56.0825C200.171 55.9145 200.11 55.7525 200.017 55.5965C199.978 55.5335 199.966 55.478 199.981 55.43C199.999 55.379 200.036 55.3415 200.093 55.3175L200.588 55.1195Z" fill="black"/>
</g>
</g>
<path id="current-key-remove-linear-probing" d="M71.0318 7.3715V11.273H71.2388C71.2988 11.273 71.3483 11.2655 71.3873 11.2505C71.4293 11.2325 71.4728 11.198 71.5178 11.147L72.9578 9.6035C72.9998 9.5525 73.0433 9.5135 73.0883 9.4865C73.1363 9.4565 73.1993 9.4415 73.2773 9.4415H74.0018L72.3233 11.228C72.2423 11.33 72.1553 11.4095 72.0623 11.4665C72.1163 11.5025 72.1643 11.5445 72.2063 11.5925C72.2513 11.6375 72.2933 11.69 72.3323 11.75L74.1143 14H73.3988C73.3298 14 73.2698 13.9895 73.2188 13.9685C73.1708 13.9445 73.1288 13.9025 73.0928 13.8425L71.5943 11.975C71.5493 11.912 71.5043 11.8715 71.4593 11.8535C71.4173 11.8325 71.3513 11.822 71.2613 11.822H71.0318V14H70.2263V7.3715H71.0318ZM77.5927 11.2235C77.5927 11.0375 77.5657 10.868 77.5117 10.715C77.4607 10.559 77.3842 10.4255 77.2822 10.3145C77.1832 10.2005 77.0617 10.1135 76.9177 10.0535C76.7737 9.9905 76.6102 9.959 76.4272 9.959C76.0432 9.959 75.7387 10.0715 75.5137 10.2965C75.2917 10.5185 75.1537 10.8275 75.0997 11.2235H77.5927ZM78.2407 13.361C78.1417 13.481 78.0232 13.586 77.8852 13.676C77.7472 13.763 77.5987 13.835 77.4397 13.892C77.2837 13.949 77.1217 13.991 76.9537 14.018C76.7857 14.048 76.6192 14.063 76.4542 14.063C76.1392 14.063 75.8482 14.0105 75.5812 13.9055C75.3172 13.7975 75.0877 13.6415 74.8927 13.4375C74.7007 13.2305 74.5507 12.9755 74.4427 12.6725C74.3347 12.3695 74.2807 12.0215 74.2807 11.6285C74.2807 11.3105 74.3287 11.0135 74.4247 10.7375C74.5237 10.4615 74.6647 10.223 74.8477 10.022C75.0307 9.818 75.2542 9.659 75.5182 9.545C75.7822 9.428 76.0792 9.3695 76.4092 9.3695C76.6822 9.3695 76.9342 9.416 77.1652 9.509C77.3992 9.599 77.6002 9.731 77.7682 9.905C77.9392 10.076 78.0727 10.289 78.1687 10.544C78.2647 10.796 78.3127 11.084 78.3127 11.408C78.3127 11.534 78.2992 11.618 78.2722 11.66C78.2452 11.702 78.1942 11.723 78.1192 11.723H75.0727C75.0817 12.011 75.1207 12.2615 75.1897 12.4745C75.2617 12.6875 75.3607 12.866 75.4867 13.01C75.6127 13.151 75.7627 13.2575 75.9367 13.3295C76.1107 13.3985 76.3057 13.433 76.5217 13.433C76.7227 13.433 76.8952 13.4105 77.0392 13.3655C77.1862 13.3175 77.3122 13.2665 77.4172 13.2125C77.5222 13.1585 77.6092 13.109 77.6782 13.064C77.7502 13.016 77.8117 12.992 77.8627 12.992C77.9287 12.992 77.9797 13.0175 78.0157 13.0685L78.2407 13.361ZM83.1154 9.4415L80.5729 15.3455C80.5459 15.4055 80.5114 15.4535 80.4694 15.4895C80.4304 15.5255 80.3689 15.5435 80.2849 15.5435H79.6909L80.5234 13.7345L78.6424 9.4415H79.3354C79.4044 9.4415 79.4584 9.4595 79.4974 9.4955C79.5394 9.5285 79.5679 9.566 79.5829 9.608L80.8024 12.479C80.8504 12.605 80.8909 12.737 80.9239 12.875C80.9659 12.734 81.0109 12.6005 81.0589 12.4745L82.2424 9.608C82.2604 9.56 82.2904 9.521 82.3324 9.491C82.3774 9.458 82.4269 9.4415 82.4809 9.4415H83.1154ZM83.8635 11.417H87.7335V12.0245H83.8635V11.417ZM83.8635 9.9095H87.7335V10.517H83.8635V9.9095ZM89.1742 9.725C89.0482 9.512 88.9627 9.2885 88.9177 9.0545C88.8727 8.8175 88.8682 8.5835 88.9042 8.3525C88.9402 8.1215 89.0152 7.901 89.1292 7.691C89.2432 7.478 89.3947 7.2875 89.5837 7.1195L89.8267 7.2725C89.8717 7.3025 89.8912 7.34 89.8852 7.385C89.8822 7.427 89.8687 7.46 89.8447 7.484C89.7667 7.58 89.6992 7.697 89.6422 7.835C89.5882 7.973 89.5537 8.1215 89.5387 8.2805C89.5237 8.4365 89.5312 8.5985 89.5612 8.7665C89.5912 8.9345 89.6527 9.0965 89.7457 9.2525C89.7847 9.3155 89.7952 9.3725 89.7772 9.4235C89.7622 9.4715 89.7262 9.5075 89.6692 9.5315L89.1742 9.725ZM90.5422 9.725C90.4162 9.512 90.3307 9.2885 90.2857 9.0545C90.2407 8.8175 90.2362 8.5835 90.2722 8.3525C90.3082 8.1215 90.3832 7.901 90.4972 7.691C90.6112 7.478 90.7627 7.2875 90.9517 7.1195L91.1947 7.2725C91.2397 7.3025 91.2592 7.34 91.2532 7.385C91.2502 7.427 91.2367 7.46 91.2127 7.484C91.1347 7.58 91.0672 7.697 91.0102 7.835C90.9562 7.973 90.9217 8.1215 90.9067 8.2805C90.8917 8.4365 90.8992 8.5985 90.9292 8.7665C90.9592 8.9345 91.0207 9.0965 91.1137 9.2525C91.1527 9.3155 91.1632 9.3725 91.1452 9.4235C91.1302 9.4715 91.0942 9.5075 91.0372 9.5315L90.5422 9.725ZM94.6255 11.948C94.2565 11.96 93.9415 11.99 93.6805 12.038C93.4225 12.083 93.211 12.143 93.046 12.218C92.884 12.293 92.7655 12.3815 92.6905 12.4835C92.6185 12.5855 92.5825 12.6995 92.5825 12.8255C92.5825 12.9455 92.602 13.049 92.641 13.136C92.68 13.223 92.7325 13.295 92.7985 13.352C92.8675 13.406 92.947 13.4465 93.037 13.4735C93.13 13.4975 93.229 13.5095 93.334 13.5095C93.475 13.5095 93.604 13.496 93.721 13.469C93.838 13.439 93.9475 13.397 94.0495 13.343C94.1545 13.289 94.2535 13.2245 94.3465 13.1495C94.4425 13.0745 94.5355 12.989 94.6255 12.893V11.948ZM92.038 10.085C92.29 9.842 92.5615 9.6605 92.8525 9.5405C93.1435 9.4205 93.466 9.3605 93.82 9.3605C94.075 9.3605 94.3015 9.4025 94.4995 9.4865C94.6975 9.5705 94.864 9.6875 94.999 9.8375C95.134 9.9875 95.236 10.169 95.305 10.382C95.374 10.595 95.4085 10.829 95.4085 11.084V14H95.053C94.975 14 94.915 13.988 94.873 13.964C94.831 13.937 94.798 13.886 94.774 13.811L94.684 13.379C94.564 13.49 94.447 13.589 94.333 13.676C94.219 13.76 94.099 13.832 93.973 13.892C93.847 13.949 93.712 13.9925 93.568 14.0225C93.427 14.0555 93.2695 14.072 93.0955 14.072C92.9185 14.072 92.752 14.048 92.596 14C92.44 13.949 92.3035 13.874 92.1865 13.775C92.0725 13.676 91.981 13.5515 91.912 13.4015C91.846 13.2485 91.813 13.0685 91.813 12.8615C91.813 12.6815 91.8625 12.509 91.9615 12.344C92.0605 12.176 92.221 12.0275 92.443 11.8985C92.665 11.7695 92.9545 11.6645 93.3115 11.5835C93.6685 11.4995 94.1065 11.4515 94.6255 11.4395V11.084C94.6255 10.73 94.549 10.463 94.396 10.283C94.243 10.1 94.0195 10.0085 93.7255 10.0085C93.5275 10.0085 93.361 10.034 93.226 10.085C93.094 10.133 92.9785 10.1885 92.8795 10.2515C92.7835 10.3115 92.6995 10.367 92.6275 10.418C92.5585 10.466 92.4895 10.49 92.4205 10.49C92.3665 10.49 92.32 10.4765 92.281 10.4495C92.242 10.4195 92.209 10.3835 92.182 10.3415L92.038 10.085ZM97.4566 7.3715V14H96.6556V7.3715H97.4566ZM99.3091 7.1195C99.4351 7.3325 99.5206 7.5575 99.5656 7.7945C99.6106 8.0315 99.6151 8.2655 99.5791 8.4965C99.5431 8.7275 99.4681 8.9495 99.3541 9.1625C99.2401 9.3755 99.0886 9.5645 98.8996 9.7295L98.6566 9.572C98.6116 9.545 98.5906 9.5105 98.5936 9.4685C98.5996 9.4235 98.6146 9.3875 98.6386 9.3605C98.7166 9.2645 98.7826 9.149 98.8366 9.014C98.8936 8.876 98.9296 8.729 98.9446 8.573C98.9626 8.414 98.9551 8.2505 98.9221 8.0825C98.8921 7.9145 98.8306 7.7525 98.7376 7.5965C98.6986 7.5335 98.6866 7.478 98.7016 7.43C98.7196 7.379 98.7571 7.3415 98.8141 7.3175L99.3091 7.1195ZM100.677 7.1195C100.803 7.3325 100.889 7.5575 100.934 7.7945C100.979 8.0315 100.983 8.2655 100.947 8.4965C100.911 8.7275 100.836 8.9495 100.722 9.1625C100.608 9.3755 100.457 9.5645 100.268 9.7295L100.025 9.572C99.9796 9.545 99.9586 9.5105 99.9616 9.4685C99.9676 9.4235 99.9826 9.3875 100.007 9.3605C100.085 9.2645 100.151 9.149 100.205 9.014C100.262 8.876 100.298 8.729 100.313 8.573C100.331 8.414 100.323 8.2505 100.29 8.0825C100.26 7.9145 100.199 7.7525 100.106 7.5965C100.067 7.5335 100.055 7.478 100.07 7.43C100.088 7.379 100.125 7.3415 100.182 7.3175L100.677 7.1195Z" fill="black"/>
</g>
<g id="pointer-remove-linear-probing-0" style="opacity: 0">
<path id="arrow-pointer" d="M128.646 25.3536C128.842 25.5488 129.158 25.5488 129.354 25.3536L132.536 22.1716C132.731 21.9763 132.731 21.6597 132.536 21.4645C132.34 21.2692 132.024 21.2692 131.828 21.4645L129 24.2929L126.172 21.4645C125.976 21.2692 125.66 21.2692 125.464 21.4645C125.269 21.6597 125.269 21.9763 125.464 22.1716L128.646 25.3536ZM128.5 13L128.5 25L129.5 25L129.5 13L128.5 13Z" fill="black"/>
<path id="index=2" d="M114.564 4.4415V9H113.763V4.4415H114.564ZM114.735 3.0105C114.735 3.0885 114.718 3.162 114.685 3.231C114.655 3.297 114.613 3.357 114.559 3.411C114.508 3.462 114.447 3.5025 114.375 3.5325C114.306 3.5625 114.232 3.5775 114.154 3.5775C114.076 3.5775 114.003 3.5625 113.934 3.5325C113.868 3.5025 113.809 3.462 113.758 3.411C113.707 3.357 113.667 3.297 113.637 3.231C113.607 3.162 113.592 3.0885 113.592 3.0105C113.592 2.9325 113.607 2.859 113.637 2.79C113.667 2.718 113.707 2.6565 113.758 2.6055C113.809 2.5515 113.868 2.5095 113.934 2.4795C114.003 2.4495 114.076 2.4345 114.154 2.4345C114.232 2.4345 114.306 2.4495 114.375 2.4795C114.447 2.5095 114.508 2.5515 114.559 2.6055C114.613 2.6565 114.655 2.718 114.685 2.79C114.718 2.859 114.735 2.9325 114.735 3.0105ZM116.636 5.103C116.735 4.992 116.84 4.8915 116.951 4.8015C117.062 4.7115 117.179 4.635 117.302 4.572C117.428 4.506 117.56 4.4565 117.698 4.4235C117.839 4.3875 117.99 4.3695 118.152 4.3695C118.401 4.3695 118.62 4.4115 118.809 4.4955C119.001 4.5765 119.16 4.6935 119.286 4.8465C119.415 4.9965 119.513 5.178 119.579 5.391C119.645 5.604 119.678 5.8395 119.678 6.0975V9H118.872V6.0975C118.872 5.7525 118.793 5.4855 118.634 5.2965C118.478 5.1045 118.239 5.0085 117.918 5.0085C117.681 5.0085 117.459 5.0655 117.252 5.1795C117.048 5.2935 116.859 5.448 116.685 5.643V9H115.88V4.4415H116.361C116.475 4.4415 116.546 4.497 116.573 4.608L116.636 5.103ZM123.868 5.526C123.718 5.325 123.556 5.1855 123.382 5.1075C123.208 5.0265 123.013 4.986 122.797 4.986C122.374 4.986 122.049 5.1375 121.821 5.4405C121.593 5.7435 121.479 6.1755 121.479 6.7365C121.479 7.0335 121.504 7.2885 121.555 7.5015C121.606 7.7115 121.681 7.8855 121.78 8.0235C121.879 8.1585 122.001 8.2575 122.145 8.3205C122.289 8.3835 122.452 8.415 122.635 8.415C122.899 8.415 123.129 8.355 123.324 8.235C123.522 8.115 123.703 7.9455 123.868 7.7265V5.526ZM124.669 2.3715V9H124.192C124.078 9 124.006 8.9445 123.976 8.8335L123.904 8.28C123.709 8.514 123.487 8.703 123.238 8.847C122.989 8.991 122.701 9.063 122.374 9.063C122.113 9.063 121.876 9.0135 121.663 8.9145C121.45 8.8125 121.269 8.664 121.119 8.469C120.969 8.274 120.853 8.031 120.772 7.74C120.691 7.449 120.651 7.1145 120.651 6.7365C120.651 6.4005 120.696 6.0885 120.786 5.8005C120.876 5.5095 121.005 5.2575 121.173 5.0445C121.341 4.8315 121.546 4.665 121.789 4.545C122.035 4.422 122.311 4.3605 122.617 4.3605C122.896 4.3605 123.135 4.4085 123.333 4.5045C123.534 4.5975 123.712 4.728 123.868 4.896V2.3715H124.669ZM128.985 6.2235C128.985 6.0375 128.958 5.868 128.904 5.715C128.853 5.559 128.777 5.4255 128.675 5.3145C128.576 5.2005 128.454 5.1135 128.31 5.0535C128.166 4.9905 128.003 4.959 127.82 4.959C127.436 4.959 127.131 5.0715 126.906 5.2965C126.684 5.5185 126.546 5.8275 126.492 6.2235H128.985ZM129.633 8.361C129.534 8.481 129.416 8.586 129.278 8.676C129.14 8.763 128.991 8.835 128.832 8.892C128.676 8.949 128.514 8.991 128.346 9.018C128.178 9.048 128.012 9.063 127.847 9.063C127.532 9.063 127.241 9.0105 126.974 8.9055C126.71 8.7975 126.48 8.6415 126.285 8.4375C126.093 8.2305 125.943 7.9755 125.835 7.6725C125.727 7.3695 125.673 7.0215 125.673 6.6285C125.673 6.3105 125.721 6.0135 125.817 5.7375C125.916 5.4615 126.057 5.223 126.24 5.022C126.423 4.818 126.647 4.659 126.911 4.545C127.175 4.428 127.472 4.3695 127.802 4.3695C128.075 4.3695 128.327 4.416 128.558 4.509C128.792 4.599 128.993 4.731 129.161 4.905C129.332 5.076 129.465 5.289 129.561 5.544C129.657 5.796 129.705 6.084 129.705 6.408C129.705 6.534 129.692 6.618 129.665 6.66C129.638 6.702 129.587 6.723 129.512 6.723H126.465C126.474 7.011 126.513 7.2615 126.582 7.4745C126.654 7.6875 126.753 7.866 126.879 8.01C127.005 8.151 127.155 8.2575 127.329 8.3295C127.503 8.3985 127.698 8.433 127.914 8.433C128.115 8.433 128.288 8.4105 128.432 8.3655C128.579 8.3175 128.705 8.2665 128.81 8.2125C128.915 8.1585 129.002 8.109 129.071 8.064C129.143 8.016 129.204 7.992 129.255 7.992C129.321 7.992 129.372 8.0175 129.408 8.0685L129.633 8.361ZM134.372 9H133.602C133.536 9 133.484 8.9835 133.445 8.9505C133.409 8.9145 133.379 8.8755 133.355 8.8335L132.207 7.047C132.195 7.089 132.182 7.131 132.167 7.173C132.155 7.212 132.137 7.248 132.113 7.281L131.051 8.8335C131.021 8.8755 130.988 8.9145 130.952 8.9505C130.919 8.9835 130.872 9 130.812 9H130.097L131.694 6.66L130.16 4.4415H130.929C130.995 4.4415 131.043 4.452 131.073 4.473C131.103 4.494 131.13 4.524 131.154 4.563L132.275 6.273C132.299 6.186 132.336 6.102 132.387 6.021L133.368 4.581C133.395 4.539 133.424 4.506 133.454 4.482C133.487 4.455 133.526 4.4415 133.571 4.4415H134.309L132.774 6.6195L134.372 9ZM135.151 6.417H139.021V7.0245H135.151V6.417ZM135.151 4.9095H139.021V5.517H135.151V4.9095ZM144.138 8.2395C144.225 8.2395 144.294 8.265 144.345 8.316C144.396 8.367 144.421 8.433 144.421 8.514V9H140.119V8.7255C140.119 8.6685 140.131 8.61 140.155 8.55C140.179 8.49 140.217 8.4345 140.268 8.3835L142.333 6.309C142.504 6.135 142.66 5.9685 142.801 5.8095C142.942 5.6475 143.062 5.4855 143.161 5.3235C143.26 5.1615 143.337 4.998 143.391 4.833C143.445 4.665 143.472 4.4865 143.472 4.2975C143.472 4.1085 143.442 3.9435 143.382 3.8025C143.322 3.6585 143.239 3.54 143.134 3.447C143.032 3.354 142.911 3.285 142.77 3.24C142.629 3.192 142.477 3.168 142.315 3.168C142.15 3.168 141.999 3.192 141.861 3.24C141.723 3.288 141.6 3.3555 141.492 3.4425C141.387 3.5265 141.298 3.627 141.226 3.744C141.154 3.861 141.103 3.99 141.073 4.131C141.037 4.236 140.988 4.3065 140.925 4.3425C140.865 4.3755 140.779 4.3845 140.668 4.3695L140.25 4.2975C140.292 4.0035 140.373 3.744 140.493 3.519C140.616 3.291 140.769 3.1005 140.952 2.9475C141.138 2.7945 141.349 2.679 141.586 2.601C141.823 2.52 142.08 2.4795 142.356 2.4795C142.629 2.4795 142.884 2.52 143.121 2.601C143.358 2.682 143.563 2.8005 143.737 2.9565C143.911 3.1095 144.048 3.297 144.147 3.519C144.246 3.741 144.295 3.993 144.295 4.275C144.295 4.515 144.259 4.7385 144.187 4.9455C144.115 5.1495 144.018 5.3445 143.895 5.5305C143.772 5.7165 143.629 5.898 143.467 6.075C143.308 6.252 143.139 6.4305 142.959 6.6105L141.258 8.3475C141.378 8.3145 141.499 8.289 141.622 8.271C141.745 8.25 141.864 8.2395 141.978 8.2395H144.138Z" fill="black"/>
</g>
<path style="opacity: 0" id="removed-flag-linear-probing" d="M165.521 52.355C165.665 52.043 165.842 51.8 166.052 51.626C166.262 51.449 166.519 51.3605 166.822 51.3605C166.918 51.3605 167.009 51.371 167.096 51.392C167.186 51.413 167.266 51.446 167.335 51.491L167.276 52.0895C167.258 52.1645 167.213 52.202 167.141 52.202C167.099 52.202 167.038 52.193 166.957 52.175C166.876 52.157 166.784 52.148 166.682 52.148C166.538 52.148 166.409 52.169 166.295 52.211C166.184 52.253 166.084 52.316 165.994 52.4C165.907 52.481 165.827 52.583 165.755 52.706C165.686 52.826 165.623 52.964 165.566 53.12V56H164.761V51.4415H165.22C165.307 51.4415 165.367 51.458 165.4 51.491C165.433 51.524 165.455 51.581 165.467 51.662L165.521 52.355ZM170.906 53.2235C170.906 53.0375 170.879 52.868 170.825 52.715C170.774 52.559 170.697 52.4255 170.595 52.3145C170.496 52.2005 170.375 52.1135 170.231 52.0535C170.087 51.9905 169.923 51.959 169.74 51.959C169.356 51.959 169.052 52.0715 168.827 52.2965C168.605 52.5185 168.467 52.8275 168.413 53.2235H170.906ZM171.554 55.361C171.455 55.481 171.336 55.586 171.198 55.676C171.06 55.763 170.912 55.835 170.753 55.892C170.597 55.949 170.435 55.991 170.267 56.018C170.099 56.048 169.932 56.063 169.767 56.063C169.452 56.063 169.161 56.0105 168.894 55.9055C168.63 55.7975 168.401 55.6415 168.206 55.4375C168.014 55.2305 167.864 54.9755 167.756 54.6725C167.648 54.3695 167.594 54.0215 167.594 53.6285C167.594 53.3105 167.642 53.0135 167.738 52.7375C167.837 52.4615 167.978 52.223 168.161 52.022C168.344 51.818 168.567 51.659 168.831 51.545C169.095 51.428 169.392 51.3695 169.722 51.3695C169.995 51.3695 170.247 51.416 170.478 51.509C170.712 51.599 170.913 51.731 171.081 51.905C171.252 52.076 171.386 52.289 171.482 52.544C171.578 52.796 171.626 53.084 171.626 53.408C171.626 53.534 171.612 53.618 171.585 53.66C171.558 53.702 171.507 53.723 171.432 53.723H168.386C168.395 54.011 168.434 54.2615 168.503 54.4745C168.575 54.6875 168.674 54.866 168.8 55.01C168.926 55.151 169.076 55.2575 169.25 55.3295C169.424 55.3985 169.619 55.433 169.835 55.433C170.036 55.433 170.208 55.4105 170.352 55.3655C170.499 55.3175 170.625 55.2665 170.73 55.2125C170.835 55.1585 170.922 55.109 170.991 55.064C171.063 55.016 171.125 54.992 171.176 54.992C171.242 54.992 171.293 55.0175 171.329 55.0685L171.554 55.361ZM172.61 56V51.4415H173.091C173.205 51.4415 173.276 51.497 173.303 51.608L173.361 52.076C173.529 51.869 173.718 51.6995 173.928 51.5675C174.138 51.4355 174.381 51.3695 174.657 51.3695C174.963 51.3695 175.211 51.455 175.4 51.626C175.592 51.797 175.73 52.028 175.814 52.319C175.88 52.154 175.964 52.0115 176.066 51.8915C176.171 51.7715 176.288 51.6725 176.417 51.5945C176.546 51.5165 176.682 51.4595 176.826 51.4235C176.973 51.3875 177.122 51.3695 177.272 51.3695C177.512 51.3695 177.725 51.4085 177.911 51.4865C178.1 51.5615 178.259 51.6725 178.388 51.8195C178.52 51.9665 178.62 52.148 178.689 52.364C178.758 52.577 178.793 52.8215 178.793 53.0975V56H177.987V53.0975C177.987 52.7405 177.909 52.4705 177.753 52.2875C177.597 52.1015 177.372 52.0085 177.078 52.0085C176.946 52.0085 176.82 52.0325 176.7 52.0805C176.583 52.1255 176.48 52.193 176.39 52.283C176.3 52.373 176.228 52.487 176.174 52.625C176.123 52.76 176.097 52.9175 176.097 53.0975V56H175.292V53.0975C175.292 52.7315 175.218 52.4585 175.071 52.2785C174.924 52.0985 174.71 52.0085 174.428 52.0085C174.23 52.0085 174.047 52.0625 173.879 52.1705C173.711 52.2755 173.556 52.4195 173.415 52.6025V56H172.61ZM180.05 53.417H183.92V54.0245H180.05V53.417ZM180.05 51.9095H183.92V52.517H180.05V51.9095ZM186.63 56.072C186.27 56.072 185.993 55.9715 185.798 55.7705C185.606 55.5695 185.51 55.28 185.51 54.902V52.112H184.961C184.913 52.112 184.872 52.0985 184.839 52.0715C184.806 52.0415 184.79 51.9965 184.79 51.9365V51.617L185.537 51.5225L185.721 50.114C185.73 50.069 185.75 50.033 185.78 50.006C185.813 49.976 185.855 49.961 185.906 49.961H186.311V51.5315H187.629V52.112H186.311V54.848C186.311 55.04 186.357 55.1825 186.45 55.2755C186.543 55.3685 186.663 55.415 186.81 55.415C186.894 55.415 186.966 55.4045 187.026 55.3835C187.089 55.3595 187.143 55.334 187.188 55.307C187.233 55.28 187.271 55.256 187.301 55.235C187.334 55.211 187.362 55.199 187.386 55.199C187.428 55.199 187.466 55.2245 187.499 55.2755L187.733 55.658C187.595 55.787 187.428 55.889 187.233 55.964C187.038 56.036 186.837 56.072 186.63 56.072ZM189.217 52.355C189.361 52.043 189.538 51.8 189.748 51.626C189.958 51.449 190.214 51.3605 190.517 51.3605C190.613 51.3605 190.705 51.371 190.792 51.392C190.882 51.413 190.961 51.446 191.03 51.491L190.972 52.0895C190.954 52.1645 190.909 52.202 190.837 52.202C190.795 52.202 190.733 52.193 190.652 52.175C190.571 52.157 190.48 52.148 190.378 52.148C190.234 52.148 190.105 52.169 189.991 52.211C189.88 52.253 189.779 52.316 189.689 52.4C189.602 52.481 189.523 52.583 189.451 52.706C189.382 52.826 189.319 52.964 189.262 53.12V56H188.456V51.4415H188.915C189.002 51.4415 189.062 51.458 189.095 51.491C189.128 51.524 189.151 51.581 189.163 51.662L189.217 52.355ZM195.483 51.4415V56H195.006C194.892 56 194.82 55.9445 194.79 55.8335L194.727 55.343C194.529 55.562 194.307 55.739 194.061 55.874C193.815 56.006 193.533 56.072 193.215 56.072C192.966 56.072 192.746 56.0315 192.554 55.9505C192.365 55.8665 192.206 55.7495 192.077 55.5995C191.948 55.4495 191.85 55.268 191.784 55.055C191.721 54.842 191.69 54.6065 191.69 54.3485V51.4415H192.491V54.3485C192.491 54.6935 192.569 54.9605 192.725 55.1495C192.884 55.3385 193.125 55.433 193.449 55.433C193.686 55.433 193.907 55.3775 194.111 55.2665C194.318 55.1525 194.508 54.9965 194.682 54.7985V51.4415H195.483ZM199.804 53.2235C199.804 53.0375 199.777 52.868 199.723 52.715C199.672 52.559 199.596 52.4255 199.494 52.3145C199.395 52.2005 199.273 52.1135 199.129 52.0535C198.985 51.9905 198.822 51.959 198.639 51.959C198.255 51.959 197.95 52.0715 197.725 52.2965C197.503 52.5185 197.365 52.8275 197.311 53.2235H199.804ZM200.452 55.361C200.353 55.481 200.235 55.586 200.097 55.676C199.959 55.763 199.81 55.835 199.651 55.892C199.495 55.949 199.333 55.991 199.165 56.018C198.997 56.048 198.831 56.063 198.666 56.063C198.351 56.063 198.06 56.0105 197.793 55.9055C197.529 55.7975 197.299 55.6415 197.104 55.4375C196.912 55.2305 196.762 54.9755 196.654 54.6725C196.546 54.3695 196.492 54.0215 196.492 53.6285C196.492 53.3105 196.54 53.0135 196.636 52.7375C196.735 52.4615 196.876 52.223 197.059 52.022C197.242 51.818 197.466 51.659 197.73 51.545C197.994 51.428 198.291 51.3695 198.621 51.3695C198.894 51.3695 199.146 51.416 199.377 51.509C199.611 51.599 199.812 51.731 199.98 51.905C200.151 52.076 200.284 52.289 200.38 52.544C200.476 52.796 200.524 53.084 200.524 53.408C200.524 53.534 200.511 53.618 200.484 53.66C200.457 53.702 200.406 53.723 200.331 53.723H197.284C197.293 54.011 197.332 54.2615 197.401 54.4745C197.473 54.6875 197.572 54.866 197.698 55.01C197.824 55.151 197.974 55.2575 198.148 55.3295C198.322 55.3985 198.517 55.433 198.733 55.433C198.934 55.433 199.107 55.4105 199.251 55.3655C199.398 55.3175 199.524 55.2665 199.629 55.2125C199.734 55.1585 199.821 55.109 199.89 55.064C199.962 55.016 200.023 54.992 200.074 54.992C200.14 54.992 200.191 55.0175 200.227 55.0685L200.452 55.361Z" fill="black"/>
<g id="pointer-remove-linear-probing-1" style="opacity: 0">
<path id="arrow-pointer_2" d="M180.646 25.3536C180.842 25.5488 181.158 25.5488 181.354 25.3536L184.536 22.1716C184.731 21.9763 184.731 21.6597 184.536 21.4645C184.34 21.2692 184.024 21.2692 183.828 21.4645L181 24.2929L178.172 21.4645C177.976 21.2692 177.66 21.2692 177.464 21.4645C177.269 21.6597 177.269 21.9763 177.464 22.1716L180.646 25.3536ZM180.5 13L180.5 25L181.5 25L181.5 13L180.5 13Z" fill="black"/>
<path id="index=3" d="M166.564 4.4415V9H165.763V4.4415H166.564ZM166.735 3.0105C166.735 3.0885 166.718 3.162 166.685 3.231C166.655 3.297 166.613 3.357 166.559 3.411C166.508 3.462 166.447 3.5025 166.375 3.5325C166.306 3.5625 166.232 3.5775 166.154 3.5775C166.076 3.5775 166.003 3.5625 165.934 3.5325C165.868 3.5025 165.809 3.462 165.758 3.411C165.707 3.357 165.667 3.297 165.637 3.231C165.607 3.162 165.592 3.0885 165.592 3.0105C165.592 2.9325 165.607 2.859 165.637 2.79C165.667 2.718 165.707 2.6565 165.758 2.6055C165.809 2.5515 165.868 2.5095 165.934 2.4795C166.003 2.4495 166.076 2.4345 166.154 2.4345C166.232 2.4345 166.306 2.4495 166.375 2.4795C166.447 2.5095 166.508 2.5515 166.559 2.6055C166.613 2.6565 166.655 2.718 166.685 2.79C166.718 2.859 166.735 2.9325 166.735 3.0105ZM168.636 5.103C168.735 4.992 168.84 4.8915 168.951 4.8015C169.062 4.7115 169.179 4.635 169.302 4.572C169.428 4.506 169.56 4.4565 169.698 4.4235C169.839 4.3875 169.99 4.3695 170.152 4.3695C170.401 4.3695 170.62 4.4115 170.809 4.4955C171.001 4.5765 171.16 4.6935 171.286 4.8465C171.415 4.9965 171.513 5.178 171.579 5.391C171.645 5.604 171.678 5.8395 171.678 6.0975V9H170.872V6.0975C170.872 5.7525 170.793 5.4855 170.634 5.2965C170.478 5.1045 170.239 5.0085 169.918 5.0085C169.681 5.0085 169.459 5.0655 169.252 5.1795C169.048 5.2935 168.859 5.448 168.685 5.643V9H167.88V4.4415H168.361C168.475 4.4415 168.546 4.497 168.573 4.608L168.636 5.103ZM175.868 5.526C175.718 5.325 175.556 5.1855 175.382 5.1075C175.208 5.0265 175.013 4.986 174.797 4.986C174.374 4.986 174.049 5.1375 173.821 5.4405C173.593 5.7435 173.479 6.1755 173.479 6.7365C173.479 7.0335 173.504 7.2885 173.555 7.5015C173.606 7.7115 173.681 7.8855 173.78 8.0235C173.879 8.1585 174.001 8.2575 174.145 8.3205C174.289 8.3835 174.452 8.415 174.635 8.415C174.899 8.415 175.129 8.355 175.324 8.235C175.522 8.115 175.703 7.9455 175.868 7.7265V5.526ZM176.669 2.3715V9H176.192C176.078 9 176.006 8.9445 175.976 8.8335L175.904 8.28C175.709 8.514 175.487 8.703 175.238 8.847C174.989 8.991 174.701 9.063 174.374 9.063C174.113 9.063 173.876 9.0135 173.663 8.9145C173.45 8.8125 173.269 8.664 173.119 8.469C172.969 8.274 172.853 8.031 172.772 7.74C172.691 7.449 172.651 7.1145 172.651 6.7365C172.651 6.4005 172.696 6.0885 172.786 5.8005C172.876 5.5095 173.005 5.2575 173.173 5.0445C173.341 4.8315 173.546 4.665 173.789 4.545C174.035 4.422 174.311 4.3605 174.617 4.3605C174.896 4.3605 175.135 4.4085 175.333 4.5045C175.534 4.5975 175.712 4.728 175.868 4.896V2.3715H176.669ZM180.985 6.2235C180.985 6.0375 180.958 5.868 180.904 5.715C180.853 5.559 180.777 5.4255 180.675 5.3145C180.576 5.2005 180.454 5.1135 180.31 5.0535C180.166 4.9905 180.003 4.959 179.82 4.959C179.436 4.959 179.131 5.0715 178.906 5.2965C178.684 5.5185 178.546 5.8275 178.492 6.2235H180.985ZM181.633 8.361C181.534 8.481 181.416 8.586 181.278 8.676C181.14 8.763 180.991 8.835 180.832 8.892C180.676 8.949 180.514 8.991 180.346 9.018C180.178 9.048 180.012 9.063 179.847 9.063C179.532 9.063 179.241 9.0105 178.974 8.9055C178.71 8.7975 178.48 8.6415 178.285 8.4375C178.093 8.2305 177.943 7.9755 177.835 7.6725C177.727 7.3695 177.673 7.0215 177.673 6.6285C177.673 6.3105 177.721 6.0135 177.817 5.7375C177.916 5.4615 178.057 5.223 178.24 5.022C178.423 4.818 178.647 4.659 178.911 4.545C179.175 4.428 179.472 4.3695 179.802 4.3695C180.075 4.3695 180.327 4.416 180.558 4.509C180.792 4.599 180.993 4.731 181.161 4.905C181.332 5.076 181.465 5.289 181.561 5.544C181.657 5.796 181.705 6.084 181.705 6.408C181.705 6.534 181.692 6.618 181.665 6.66C181.638 6.702 181.587 6.723 181.512 6.723H178.465C178.474 7.011 178.513 7.2615 178.582 7.4745C178.654 7.6875 178.753 7.866 178.879 8.01C179.005 8.151 179.155 8.2575 179.329 8.3295C179.503 8.3985 179.698 8.433 179.914 8.433C180.115 8.433 180.288 8.4105 180.432 8.3655C180.579 8.3175 180.705 8.2665 180.81 8.2125C180.915 8.1585 181.002 8.109 181.071 8.064C181.143 8.016 181.204 7.992 181.255 7.992C181.321 7.992 181.372 8.0175 181.408 8.0685L181.633 8.361ZM186.372 9H185.602C185.536 9 185.484 8.9835 185.445 8.9505C185.409 8.9145 185.379 8.8755 185.355 8.8335L184.207 7.047C184.195 7.089 184.182 7.131 184.167 7.173C184.155 7.212 184.137 7.248 184.113 7.281L183.051 8.8335C183.021 8.8755 182.988 8.9145 182.952 8.9505C182.919 8.9835 182.872 9 182.812 9H182.097L183.694 6.66L182.16 4.4415H182.929C182.995 4.4415 183.043 4.452 183.073 4.473C183.103 4.494 183.13 4.524 183.154 4.563L184.275 6.273C184.299 6.186 184.336 6.102 184.387 6.021L185.368 4.581C185.395 4.539 185.424 4.506 185.454 4.482C185.487 4.455 185.526 4.4415 185.571 4.4415H186.309L184.774 6.6195L186.372 9ZM187.151 6.417H191.021V7.0245H187.151V6.417ZM187.151 4.9095H191.021V5.517H187.151V4.9095ZM192.281 4.2975C192.323 4.0035 192.404 3.744 192.524 3.519C192.644 3.291 192.796 3.1005 192.979 2.9475C193.165 2.7945 193.376 2.679 193.613 2.601C193.853 2.52 194.111 2.4795 194.387 2.4795C194.66 2.4795 194.912 2.5185 195.143 2.5965C195.374 2.6745 195.572 2.7855 195.737 2.9295C195.905 3.0735 196.036 3.2475 196.129 3.4515C196.222 3.6555 196.268 3.882 196.268 4.131C196.268 4.335 196.241 4.518 196.187 4.68C196.136 4.839 196.061 4.9785 195.962 5.0985C195.866 5.2185 195.749 5.3205 195.611 5.4045C195.473 5.4885 195.319 5.5575 195.148 5.6115C195.568 5.7195 195.883 5.9055 196.093 6.1695C196.306 6.4305 196.412 6.7575 196.412 7.1505C196.412 7.4475 196.355 7.7145 196.241 7.9515C196.13 8.1885 195.977 8.391 195.782 8.559C195.587 8.724 195.359 8.8515 195.098 8.9415C194.84 9.0285 194.563 9.072 194.266 9.072C193.924 9.072 193.631 9.03 193.388 8.946C193.145 8.859 192.94 8.7405 192.772 8.5905C192.604 8.4405 192.466 8.2635 192.358 8.0595C192.25 7.8525 192.158 7.629 192.083 7.389L192.43 7.245C192.52 7.206 192.607 7.1955 192.691 7.2135C192.778 7.2315 192.841 7.281 192.88 7.362C192.919 7.446 192.967 7.5465 193.024 7.6635C193.084 7.7805 193.165 7.893 193.267 8.001C193.369 8.109 193.498 8.2005 193.654 8.2755C193.813 8.3505 194.014 8.388 194.257 8.388C194.482 8.388 194.678 8.352 194.846 8.28C195.017 8.205 195.158 8.109 195.269 7.992C195.383 7.875 195.469 7.7445 195.526 7.6005C195.583 7.4565 195.611 7.314 195.611 7.173C195.611 6.999 195.589 6.84 195.544 6.696C195.499 6.552 195.415 6.4275 195.292 6.3225C195.169 6.2175 194.999 6.135 194.783 6.075C194.57 6.015 194.296 5.985 193.96 5.985V5.4045C194.236 5.4015 194.47 5.3715 194.662 5.3145C194.857 5.2575 195.014 5.1795 195.134 5.0805C195.257 4.9815 195.346 4.863 195.4 4.725C195.457 4.587 195.485 4.434 195.485 4.266C195.485 4.08 195.455 3.918 195.395 3.78C195.338 3.642 195.259 3.528 195.157 3.438C195.055 3.348 194.933 3.2805 194.792 3.2355C194.654 3.1905 194.504 3.168 194.342 3.168C194.18 3.168 194.029 3.192 193.888 3.24C193.75 3.288 193.627 3.3555 193.519 3.4425C193.414 3.5265 193.325 3.627 193.253 3.744C193.181 3.861 193.13 3.99 193.1 4.131C193.061 4.236 193.012 4.3065 192.952 4.3425C192.895 4.3755 192.811 4.3845 192.7 4.3695L192.281 4.2975Z" fill="black"/>
</g>
</g>
</svg>
