<svg viewBox="0 0 311 99" fill="none" xmlns="http://www.w3.org/2000/svg">
<g id="linkedlist-removeFromBack">
<g id="node-a">
<circle id="Ellipse 2" cx="62.5" cy="45.5" r="18" stroke="black"/>
<path id="a" d="M62.9646 46.72C62.5546 46.7333 62.2046 46.7667 61.9146 46.82C61.628 46.87 61.393 46.9367 61.2096 47.02C61.0296 47.1033 60.898 47.2017 60.8146 47.315C60.7346 47.4283 60.6946 47.555 60.6946 47.695C60.6946 47.8283 60.7163 47.9433 60.7596 48.04C60.803 48.1367 60.8613 48.2167 60.9346 48.28C61.0113 48.34 61.0996 48.385 61.1996 48.415C61.303 48.4417 61.413 48.455 61.5296 48.455C61.6863 48.455 61.8296 48.44 61.9596 48.41C62.0896 48.3767 62.2113 48.33 62.3246 48.27C62.4413 48.21 62.5513 48.1383 62.6546 48.055C62.7613 47.9717 62.8646 47.8767 62.9646 47.77V46.72ZM60.0896 44.65C60.3696 44.38 60.6713 44.1783 60.9946 44.045C61.318 43.9117 61.6763 43.845 62.0696 43.845C62.353 43.845 62.6046 43.8917 62.8246 43.985C63.0446 44.0783 63.2296 44.2083 63.3796 44.375C63.5296 44.5417 63.643 44.7433 63.7196 44.98C63.7963 45.2167 63.8346 45.4767 63.8346 45.76V49H63.4396C63.353 49 63.2863 48.9867 63.2396 48.96C63.193 48.93 63.1563 48.8733 63.1296 48.79L63.0296 48.31C62.8963 48.4333 62.7663 48.5433 62.6396 48.64C62.513 48.7333 62.3796 48.8133 62.2396 48.88C62.0996 48.9433 61.9496 48.9917 61.7896 49.025C61.633 49.0617 61.458 49.08 61.2646 49.08C61.068 49.08 60.883 49.0533 60.7096 49C60.5363 48.9433 60.3846 48.86 60.2546 48.75C60.128 48.64 60.0263 48.5017 59.9496 48.335C59.8763 48.165 59.8396 47.965 59.8396 47.735C59.8396 47.535 59.8946 47.3433 60.0046 47.16C60.1146 46.9733 60.293 46.8083 60.5396 46.665C60.7863 46.5217 61.108 46.405 61.5046 46.315C61.9013 46.2217 62.388 46.1683 62.9646 46.155V45.76C62.9646 45.3667 62.8796 45.07 62.7096 44.87C62.5396 44.6667 62.2913 44.565 61.9646 44.565C61.7446 44.565 61.5596 44.5933 61.4096 44.65C61.263 44.7033 61.1346 44.765 61.0246 44.835C60.918 44.9017 60.8246 44.9633 60.7446 45.02C60.668 45.0733 60.5913 45.1 60.5146 45.1C60.4546 45.1 60.403 45.085 60.3596 45.055C60.3163 45.0217 60.2796 44.9817 60.2496 44.935L60.0896 44.65Z" fill="black"/>
</g>
<g id="node-c">
<circle id="Ellipse 2_2" cx="183.5" cy="45.5" r="18" stroke="black"/>
<path id="c" d="M184.842 44.835C184.816 44.8717 184.789 44.9 184.762 44.92C184.736 44.94 184.699 44.95 184.652 44.95C184.602 44.95 184.547 44.93 184.487 44.89C184.427 44.8467 184.352 44.8 184.262 44.75C184.176 44.7 184.067 44.655 183.937 44.615C183.811 44.5717 183.654 44.55 183.467 44.55C183.217 44.55 182.997 44.595 182.807 44.685C182.617 44.7717 182.457 44.8983 182.327 45.065C182.201 45.2317 182.104 45.4333 182.037 45.67C181.974 45.9067 181.942 46.1717 181.942 46.465C181.942 46.7717 181.977 47.045 182.047 47.285C182.117 47.5217 182.216 47.7217 182.342 47.885C182.472 48.045 182.627 48.1683 182.807 48.255C182.991 48.3383 183.196 48.38 183.422 48.38C183.639 48.38 183.817 48.355 183.957 48.305C184.097 48.2517 184.212 48.1933 184.302 48.13C184.396 48.0667 184.472 48.01 184.532 47.96C184.596 47.9067 184.657 47.88 184.717 47.88C184.791 47.88 184.847 47.9083 184.887 47.965L185.137 48.29C185.027 48.4267 184.902 48.5433 184.762 48.64C184.622 48.7367 184.471 48.8183 184.307 48.885C184.147 48.9483 183.979 48.995 183.802 49.025C183.626 49.055 183.446 49.07 183.262 49.07C182.946 49.07 182.651 49.0117 182.377 48.895C182.107 48.7783 181.872 48.61 181.672 48.39C181.472 48.1667 181.316 47.8933 181.202 47.57C181.089 47.2467 181.032 46.8783 181.032 46.465C181.032 46.0883 181.084 45.74 181.187 45.42C181.294 45.1 181.447 44.825 181.647 44.595C181.851 44.3617 182.099 44.18 182.392 44.05C182.689 43.92 183.029 43.855 183.412 43.855C183.769 43.855 184.082 43.9133 184.352 44.03C184.626 44.1433 184.867 44.305 185.077 44.515L184.842 44.835Z" fill="black"/>
</g>
<g id="node-b">
<circle id="Ellipse 2_3" cx="123.5" cy="45.5" r="18" stroke="black"/>
<path id="b" d="M121.802 47.78C121.965 48 122.144 48.155 122.337 48.245C122.534 48.335 122.749 48.38 122.982 48.38C123.459 48.38 123.824 48.2117 124.077 47.875C124.33 47.5383 124.457 47.0367 124.457 46.37C124.457 45.75 124.344 45.295 124.117 45.005C123.894 44.7117 123.574 44.565 123.157 44.565C122.867 44.565 122.614 44.6317 122.397 44.765C122.184 44.8983 121.985 45.0867 121.802 45.33V47.78ZM121.802 44.665C122.015 44.4183 122.255 44.2217 122.522 44.075C122.792 43.9283 123.102 43.855 123.452 43.855C123.749 43.855 124.015 43.9117 124.252 44.025C124.492 44.1383 124.695 44.3033 124.862 44.52C125.029 44.7333 125.155 44.9933 125.242 45.3C125.332 45.6067 125.377 45.9517 125.377 46.335C125.377 46.745 125.327 47.1183 125.227 47.455C125.127 47.7917 124.982 48.08 124.792 48.32C124.605 48.5567 124.377 48.7417 124.107 48.875C123.837 49.005 123.534 49.07 123.197 49.07C122.864 49.07 122.582 49.0083 122.352 48.885C122.125 48.7583 121.927 48.58 121.757 48.35L121.712 48.81C121.685 48.9367 121.609 49 121.482 49H120.907V41.635H121.802V44.665Z" fill="black"/>
</g>
<path id="Arrow 4" d="M105.354 46.3536C105.549 46.1583 105.549 45.8417 105.354 45.6464L102.172 42.4645C101.976 42.2692 101.66 42.2692 101.464 42.4645C101.269 42.6597 101.269 42.9763 101.464 43.1716L104.293 46L101.464 48.8284C101.269 49.0237 101.269 49.3403 101.464 49.5355C101.66 49.7308 101.976 49.7308 102.172 49.5355L105.354 46.3536ZM81 46.5H105V45.5H81V46.5Z" fill="black"/>
<path id="Arrow 5" d="M165.354 46.3536C165.549 46.1583 165.549 45.8417 165.354 45.6464L162.172 42.4645C161.976 42.2692 161.66 42.2692 161.464 42.4645C161.269 42.6597 161.269 42.9763 161.464 43.1716L164.293 46L161.464 48.8284C161.269 49.0237 161.269 49.3403 161.464 49.5355C161.66 49.7308 161.976 49.7308 162.172 49.5355L165.354 46.3536ZM142 46.5H165V45.5H142V46.5Z" fill="black"/>
<path id="Arrow 5_2" class="arrow-stagger-3" d="M225.354 46.3536C225.549 46.1583 225.549 45.8417 225.354 45.6464L222.172 42.4645C221.976 42.2692 221.66 42.2692 221.464 42.4645C221.269 42.6597 221.269 42.9763 221.464 43.1716L224.293 46L221.464 48.8284C221.269 49.0237 221.269 49.3403 221.464 49.5355C221.66 49.7308 221.976 49.7308 222.172 49.5355L225.354 46.3536ZM202 46.5H225V45.5H202V46.5Z" fill="black"/>
<path id="Arrow 6" d="M48.0161 32.4997C48.2921 32.4908 48.5086 32.2599 48.4997 31.9839L48.3547 27.4862C48.3458 27.2102 48.1148 26.9937 47.8388 27.0026C47.5628 27.0115 47.3463 27.2425 47.3552 27.5185L47.4841 31.5164L43.4862 31.6453C43.2102 31.6542 42.9937 31.8852 43.0026 32.1612C43.0115 32.4372 43.2425 32.6537 43.5185 32.6448L48.0161 32.4997ZM31.658 17.3648L47.658 32.3648L48.342 31.6352L32.342 16.6352L31.658 17.3648Z" fill="#0B3AB5"/>
<path id="head (start of list)" d="M3.64102 9.61C3.85768 9.38 4.09768 9.19667 4.36102 9.06C4.62435 8.92333 4.92768 8.855 5.27102 8.855C5.54768 8.855 5.79102 8.90167 6.00102 8.995C6.21435 9.085 6.39102 9.215 6.53102 9.385C6.67435 9.55167 6.78268 9.75333 6.85602 9.99C6.92935 10.2267 6.96602 10.4883 6.96602 10.775V14H6.07102V10.775C6.07102 10.3917 5.98268 10.095 5.80602 9.885C5.63268 9.67167 5.36768 9.565 5.01102 9.565C4.74768 9.565 4.50102 9.62833 4.27102 9.755C4.04435 9.88167 3.83435 10.0533 3.64102 10.27V14H2.74602V6.635H3.64102V9.61ZM11.7122 10.915C11.7122 10.7083 11.6822 10.52 11.6222 10.35C11.5655 10.1767 11.4805 10.0283 11.3672 9.905C11.2572 9.77833 11.1222 9.68167 10.9622 9.615C10.8022 9.545 10.6205 9.51 10.4172 9.51C9.99052 9.51 9.65219 9.635 9.40219 9.885C9.15552 10.1317 9.00219 10.475 8.94219 10.915H11.7122ZM12.4322 13.29C12.3222 13.4233 12.1905 13.54 12.0372 13.64C11.8839 13.7367 11.7189 13.8167 11.5422 13.88C11.3689 13.9433 11.1889 13.99 11.0022 14.02C10.8155 14.0533 10.6305 14.07 10.4472 14.07C10.0972 14.07 9.77385 14.0117 9.47719 13.895C9.18385 13.775 8.92885 13.6017 8.71219 13.375C8.49885 13.145 8.33219 12.8617 8.21219 12.525C8.09219 12.1883 8.03219 11.8017 8.03219 11.365C8.03219 11.0117 8.08552 10.6817 8.19219 10.375C8.30219 10.0683 8.45885 9.80333 8.66219 9.58C8.86552 9.35333 9.11385 9.17667 9.40719 9.05C9.70052 8.92 10.0305 8.855 10.3972 8.855C10.7005 8.855 10.9805 8.90667 11.2372 9.01C11.4972 9.11 11.7205 9.25667 11.9072 9.45C12.0972 9.64 12.2455 9.87667 12.3522 10.16C12.4589 10.44 12.5122 10.76 12.5122 11.12C12.5122 11.26 12.4972 11.3533 12.4672 11.4C12.4372 11.4467 12.3805 11.47 12.2972 11.47H8.91219C8.92219 11.79 8.96552 12.0683 9.04219 12.305C9.12219 12.5417 9.23219 12.74 9.37219 12.9C9.51219 13.0567 9.67885 13.175 9.87219 13.255C10.0655 13.3317 10.2822 13.37 10.5222 13.37C10.7455 13.37 10.9372 13.345 11.0972 13.295C11.2605 13.2417 11.4005 13.185 11.5172 13.125C11.6339 13.065 11.7305 13.01 11.8072 12.96C11.8872 12.9067 11.9555 12.88 12.0122 12.88C12.0855 12.88 12.1422 12.9083 12.1822 12.965L12.4322 13.29ZM16.3504 11.72C15.9404 11.7333 15.5904 11.7667 15.3004 11.82C15.0137 11.87 14.7787 11.9367 14.5954 12.02C14.4154 12.1033 14.2837 12.2017 14.2004 12.315C14.1204 12.4283 14.0804 12.555 14.0804 12.695C14.0804 12.8283 14.1021 12.9433 14.1454 13.04C14.1887 13.1367 14.2471 13.2167 14.3204 13.28C14.3971 13.34 14.4854 13.385 14.5854 13.415C14.6887 13.4417 14.7987 13.455 14.9154 13.455C15.0721 13.455 15.2154 13.44 15.3454 13.41C15.4754 13.3767 15.5971 13.33 15.7104 13.27C15.8271 13.21 15.9371 13.1383 16.0404 13.055C16.1471 12.9717 16.2504 12.8767 16.3504 12.77V11.72ZM13.4754 9.65C13.7554 9.38 14.0571 9.17833 14.3804 9.045C14.7037 8.91167 15.0621 8.845 15.4554 8.845C15.7387 8.845 15.9904 8.89167 16.2104 8.985C16.4304 9.07833 16.6154 9.20833 16.7654 9.375C16.9154 9.54167 17.0287 9.74333 17.1054 9.98C17.1821 10.2167 17.2204 10.4767 17.2204 10.76V14H16.8254C16.7387 14 16.6721 13.9867 16.6254 13.96C16.5787 13.93 16.5421 13.8733 16.5154 13.79L16.4154 13.31C16.2821 13.4333 16.1521 13.5433 16.0254 13.64C15.8987 13.7333 15.7654 13.8133 15.6254 13.88C15.4854 13.9433 15.3354 13.9917 15.1754 14.025C15.0187 14.0617 14.8437 14.08 14.6504 14.08C14.4537 14.08 14.2687 14.0533 14.0954 14C13.9221 13.9433 13.7704 13.86 13.6404 13.75C13.5137 13.64 13.4121 13.5017 13.3354 13.335C13.2621 13.165 13.2254 12.965 13.2254 12.735C13.2254 12.535 13.2804 12.3433 13.3904 12.16C13.5004 11.9733 13.6787 11.8083 13.9254 11.665C14.1721 11.5217 14.4937 11.405 14.8904 11.315C15.2871 11.2217 15.7737 11.1683 16.3504 11.155V10.76C16.3504 10.3667 16.2654 10.07 16.0954 9.87C15.9254 9.66667 15.6771 9.565 15.3504 9.565C15.1304 9.565 14.9454 9.59333 14.7954 9.65C14.6487 9.70333 14.5204 9.765 14.4104 9.835C14.3037 9.90167 14.2104 9.96333 14.1304 10.02C14.0537 10.0733 13.9771 10.1 13.9004 10.1C13.8404 10.1 13.7887 10.085 13.7454 10.055C13.7021 10.0217 13.6654 9.98167 13.6354 9.935L13.4754 9.65ZM21.8761 10.14C21.7094 9.91667 21.5294 9.76167 21.3361 9.675C21.1428 9.585 20.9261 9.54 20.6861 9.54C20.2161 9.54 19.8544 9.70833 19.6011 10.045C19.3478 10.3817 19.2211 10.8617 19.2211 11.485C19.2211 11.815 19.2494 12.0983 19.3061 12.335C19.3628 12.5683 19.4461 12.7617 19.5561 12.915C19.6661 13.065 19.8011 13.175 19.9611 13.245C20.1211 13.315 20.3028 13.35 20.5061 13.35C20.7994 13.35 21.0544 13.2833 21.2711 13.15C21.4911 13.0167 21.6928 12.8283 21.8761 12.585V10.14ZM22.7661 6.635V14H22.2361C22.1094 14 22.0294 13.9383 21.9961 13.815L21.9161 13.2C21.6994 13.46 21.4528 13.67 21.1761 13.83C20.8994 13.99 20.5794 14.07 20.2161 14.07C19.9261 14.07 19.6628 14.015 19.4261 13.905C19.1894 13.7917 18.9878 13.6267 18.8211 13.41C18.6544 13.1933 18.5261 12.9233 18.4361 12.6C18.3461 12.2767 18.3011 11.905 18.3011 11.485C18.3011 11.1117 18.3511 10.765 18.4511 10.445C18.5511 10.1217 18.6944 9.84167 18.8811 9.605C19.0678 9.36833 19.2961 9.18333 19.5661 9.05C19.8394 8.91333 20.1461 8.845 20.4861 8.845C20.7961 8.845 21.0611 8.89833 21.2811 9.005C21.5044 9.10833 21.7028 9.25333 21.8761 9.44V6.635H22.7661ZM27.2504 10.855C27.2504 11.5683 27.3404 12.2617 27.5204 12.935C27.7037 13.6083 27.9704 14.2483 28.3204 14.855C28.3737 14.9583 28.3871 15.0367 28.3604 15.09C28.3337 15.1467 28.2954 15.1917 28.2454 15.225L27.8504 15.465C27.6004 15.0817 27.3871 14.7017 27.2104 14.325C27.0371 13.9483 26.8954 13.57 26.7854 13.19C26.6787 12.81 26.6004 12.4283 26.5504 12.045C26.5004 11.6583 26.4754 11.2617 26.4754 10.855C26.4754 10.4517 26.5004 10.0567 26.5504 9.67C26.6004 9.28333 26.6787 8.90167 26.7854 8.525C26.8954 8.145 27.0371 7.76667 27.2104 7.39C27.3871 7.01333 27.6004 6.63167 27.8504 6.245L28.2454 6.49C28.2954 6.52333 28.3337 6.56833 28.3604 6.625C28.3871 6.67833 28.3737 6.755 28.3204 6.855C27.9704 7.46167 27.7037 8.10167 27.5204 8.775C27.3404 9.44833 27.2504 10.1417 27.2504 10.855ZM32.1609 9.77C32.1209 9.84333 32.0592 9.88 31.9759 9.88C31.9259 9.88 31.8692 9.86167 31.8059 9.825C31.7425 9.78833 31.6642 9.74833 31.5709 9.705C31.4809 9.65833 31.3725 9.61667 31.2459 9.58C31.1192 9.54 30.9692 9.52 30.7959 9.52C30.6459 9.52 30.5109 9.54 30.3909 9.58C30.2709 9.61667 30.1675 9.66833 30.0809 9.735C29.9975 9.80167 29.9325 9.88 29.8859 9.97C29.8425 10.0567 29.8209 10.1517 29.8209 10.255C29.8209 10.385 29.8575 10.4933 29.9309 10.58C30.0075 10.6667 30.1075 10.7417 30.2309 10.805C30.3542 10.8683 30.4942 10.925 30.6509 10.975C30.8075 11.0217 30.9675 11.0733 31.1309 11.13C31.2975 11.1833 31.4592 11.2433 31.6159 11.31C31.7725 11.3767 31.9125 11.46 32.0359 11.56C32.1592 11.66 32.2575 11.7833 32.3309 11.93C32.4075 12.0733 32.4459 12.2467 32.4459 12.45C32.4459 12.6833 32.4042 12.9 32.3209 13.1C32.2375 13.2967 32.1142 13.4683 31.9509 13.615C31.7875 13.7583 31.5875 13.8717 31.3509 13.955C31.1142 14.0383 30.8409 14.08 30.5309 14.08C30.1775 14.08 29.8575 14.0233 29.5709 13.91C29.2842 13.7933 29.0409 13.645 28.8409 13.465L29.0509 13.125C29.0775 13.0817 29.1092 13.0483 29.1459 13.025C29.1825 13.0017 29.2292 12.99 29.2859 12.99C29.3459 12.99 29.4092 13.0133 29.4759 13.06C29.5425 13.1067 29.6225 13.1583 29.7159 13.215C29.8125 13.2717 29.9292 13.3233 30.0659 13.37C30.2025 13.4167 30.3725 13.44 30.5759 13.44C30.7492 13.44 30.9009 13.4183 31.0309 13.375C31.1609 13.3283 31.2692 13.2667 31.3559 13.19C31.4425 13.1133 31.5059 13.025 31.5459 12.925C31.5892 12.825 31.6109 12.7183 31.6109 12.605C31.6109 12.465 31.5725 12.35 31.4959 12.26C31.4225 12.1667 31.3242 12.0883 31.2009 12.025C31.0775 11.9583 30.9359 11.9017 30.7759 11.855C30.6192 11.805 30.4575 11.7533 30.2909 11.7C30.1275 11.6467 29.9659 11.5867 29.8059 11.52C29.6492 11.45 29.5092 11.3633 29.3859 11.26C29.2625 11.1567 29.1625 11.03 29.0859 10.88C29.0125 10.7267 28.9759 10.5417 28.9759 10.325C28.9759 10.1317 29.0159 9.94667 29.0959 9.77C29.1759 9.59 29.2925 9.43333 29.4459 9.3C29.5992 9.16333 29.7875 9.055 30.0109 8.975C30.2342 8.895 30.4892 8.855 30.7759 8.855C31.1092 8.855 31.4075 8.90833 31.6709 9.015C31.9375 9.11833 32.1675 9.26167 32.3609 9.445L32.1609 9.77ZM35.092 14.08C34.692 14.08 34.3837 13.9683 34.167 13.745C33.9537 13.5217 33.847 13.2 33.847 12.78V9.68H33.237C33.1837 9.68 33.1387 9.665 33.102 9.635C33.0654 9.60167 33.047 9.55167 33.047 9.485V9.13L33.877 9.025L34.082 7.46C34.092 7.41 34.1137 7.37 34.147 7.34C34.1837 7.30667 34.2304 7.29 34.287 7.29H34.737V9.035H36.202V9.68H34.737V12.72C34.737 12.9333 34.7887 13.0917 34.892 13.195C34.9954 13.2983 35.1287 13.35 35.292 13.35C35.3854 13.35 35.4654 13.3383 35.532 13.315C35.602 13.2883 35.662 13.26 35.712 13.23C35.762 13.2 35.8037 13.1733 35.837 13.15C35.8737 13.1233 35.9054 13.11 35.932 13.11C35.9787 13.11 36.0204 13.1383 36.057 13.195L36.317 13.62C36.1637 13.7633 35.9787 13.8767 35.762 13.96C35.5454 14.04 35.322 14.08 35.092 14.08ZM39.866 11.72C39.456 11.7333 39.106 11.7667 38.816 11.82C38.5293 11.87 38.2943 11.9367 38.111 12.02C37.931 12.1033 37.7993 12.2017 37.716 12.315C37.636 12.4283 37.596 12.555 37.596 12.695C37.596 12.8283 37.6177 12.9433 37.661 13.04C37.7043 13.1367 37.7627 13.2167 37.836 13.28C37.9127 13.34 38.001 13.385 38.101 13.415C38.2043 13.4417 38.3143 13.455 38.431 13.455C38.5877 13.455 38.731 13.44 38.861 13.41C38.991 13.3767 39.1127 13.33 39.226 13.27C39.3427 13.21 39.4527 13.1383 39.556 13.055C39.6627 12.9717 39.766 12.8767 39.866 12.77V11.72ZM36.991 9.65C37.271 9.38 37.5727 9.17833 37.896 9.045C38.2193 8.91167 38.5777 8.845 38.971 8.845C39.2543 8.845 39.506 8.89167 39.726 8.985C39.946 9.07833 40.131 9.20833 40.281 9.375C40.431 9.54167 40.5443 9.74333 40.621 9.98C40.6977 10.2167 40.736 10.4767 40.736 10.76V14H40.341C40.2543 14 40.1877 13.9867 40.141 13.96C40.0943 13.93 40.0577 13.8733 40.031 13.79L39.931 13.31C39.7977 13.4333 39.6677 13.5433 39.541 13.64C39.4143 13.7333 39.281 13.8133 39.141 13.88C39.001 13.9433 38.851 13.9917 38.691 14.025C38.5343 14.0617 38.3593 14.08 38.166 14.08C37.9693 14.08 37.7843 14.0533 37.611 14C37.4377 13.9433 37.286 13.86 37.156 13.75C37.0293 13.64 36.9277 13.5017 36.851 13.335C36.7777 13.165 36.741 12.965 36.741 12.735C36.741 12.535 36.796 12.3433 36.906 12.16C37.016 11.9733 37.1943 11.8083 37.441 11.665C37.6877 11.5217 38.0093 11.405 38.406 11.315C38.8027 11.2217 39.2893 11.1683 39.866 11.155V10.76C39.866 10.3667 39.781 10.07 39.611 9.87C39.441 9.66667 39.1927 9.565 38.866 9.565C38.646 9.565 38.461 9.59333 38.311 9.65C38.1643 9.70333 38.036 9.765 37.926 9.835C37.8193 9.90167 37.726 9.96333 37.646 10.02C37.5693 10.0733 37.4927 10.1 37.416 10.1C37.356 10.1 37.3043 10.085 37.261 10.055C37.2177 10.0217 37.181 9.98167 37.151 9.935L36.991 9.65ZM42.9367 9.95C43.0967 9.60333 43.2934 9.33333 43.5267 9.14C43.7601 8.94333 44.0451 8.845 44.3817 8.845C44.4884 8.845 44.5901 8.85667 44.6867 8.88C44.7867 8.90333 44.8751 8.94 44.9517 8.99L44.8867 9.655C44.8667 9.73833 44.8167 9.78 44.7367 9.78C44.6901 9.78 44.6217 9.77 44.5317 9.75C44.4417 9.73 44.3401 9.72 44.2267 9.72C44.0667 9.72 43.9234 9.74333 43.7967 9.79C43.6734 9.83667 43.5617 9.90667 43.4617 10C43.3651 10.09 43.2767 10.2033 43.1967 10.34C43.1201 10.4733 43.0501 10.6267 42.9867 10.8V14H42.0917V8.935H42.6017C42.6984 8.935 42.7651 8.95333 42.8017 8.99C42.8384 9.02667 42.8634 9.09 42.8767 9.18L42.9367 9.95ZM47.2893 14.08C46.8893 14.08 46.581 13.9683 46.3643 13.745C46.151 13.5217 46.0443 13.2 46.0443 12.78V9.68H45.4343C45.381 9.68 45.336 9.665 45.2993 9.635C45.2626 9.60167 45.2443 9.55167 45.2443 9.485V9.13L46.0743 9.025L46.2793 7.46C46.2893 7.41 46.311 7.37 46.3443 7.34C46.381 7.30667 46.4276 7.29 46.4843 7.29H46.9343V9.035H48.3993V9.68H46.9343V12.72C46.9343 12.9333 46.986 13.0917 47.0893 13.195C47.1926 13.2983 47.326 13.35 47.4893 13.35C47.5826 13.35 47.6626 13.3383 47.7293 13.315C47.7993 13.2883 47.8593 13.26 47.9093 13.23C47.9593 13.2 48.001 13.1733 48.0343 13.15C48.071 13.1233 48.1026 13.11 48.1293 13.11C48.176 13.11 48.2176 13.1383 48.2543 13.195L48.5143 13.62C48.361 13.7633 48.176 13.8767 47.9593 13.96C47.7426 14.04 47.5193 14.08 47.2893 14.08ZM54.0119 8.855C54.3819 8.855 54.7152 8.91667 55.0119 9.04C55.3085 9.16333 55.5619 9.33833 55.7719 9.565C55.9819 9.79167 56.1419 10.0667 56.2519 10.39C56.3652 10.71 56.4219 11.0683 56.4219 11.465C56.4219 11.865 56.3652 12.225 56.2519 12.545C56.1419 12.865 55.9819 13.1383 55.7719 13.365C55.5619 13.5917 55.3085 13.7667 55.0119 13.89C54.7152 14.01 54.3819 14.07 54.0119 14.07C53.6385 14.07 53.3019 14.01 53.0019 13.89C52.7052 13.7667 52.4519 13.5917 52.2419 13.365C52.0319 13.1383 51.8702 12.865 51.7569 12.545C51.6469 12.225 51.5919 11.865 51.5919 11.465C51.5919 11.0683 51.6469 10.71 51.7569 10.39C51.8702 10.0667 52.0319 9.79167 52.2419 9.565C52.4519 9.33833 52.7052 9.16333 53.0019 9.04C53.3019 8.91667 53.6385 8.855 54.0119 8.855ZM54.0119 13.375C54.5119 13.375 54.8852 13.2083 55.1319 12.875C55.3785 12.5383 55.5019 12.07 55.5019 11.47C55.5019 10.8667 55.3785 10.3967 55.1319 10.06C54.8852 9.72333 54.5119 9.555 54.0119 9.555C53.7585 9.555 53.5369 9.59833 53.3469 9.685C53.1602 9.77167 53.0035 9.89667 52.8769 10.06C52.7535 10.2233 52.6602 10.425 52.5969 10.665C52.5369 10.9017 52.5069 11.17 52.5069 11.47C52.5069 12.07 52.6302 12.5383 52.8769 12.875C53.1269 13.2083 53.5052 13.375 54.0119 13.375ZM57.7733 14V9.695L57.2133 9.63C57.1433 9.61333 57.0849 9.58833 57.0383 9.555C56.9949 9.51833 56.9733 9.46667 56.9733 9.4V9.035H57.7733V8.545C57.7733 8.255 57.8133 7.99833 57.8933 7.775C57.9766 7.54833 58.0933 7.35833 58.2433 7.205C58.3966 7.04833 58.5799 6.93 58.7933 6.85C59.0066 6.77 59.2466 6.73 59.5133 6.73C59.7399 6.73 59.9483 6.76333 60.1383 6.83L60.1183 7.275C60.1116 7.355 60.0666 7.39833 59.9833 7.405C59.9033 7.41167 59.7949 7.415 59.6583 7.415C59.5049 7.415 59.3649 7.435 59.2383 7.475C59.1149 7.515 59.0083 7.58 58.9183 7.67C58.8283 7.76 58.7583 7.87833 58.7083 8.025C58.6616 8.17167 58.6383 8.35333 58.6383 8.57V9.035H60.0983V9.68H58.6683V14H57.7733ZM64.2422 6.635V14H63.3522V6.635H64.2422ZM66.6255 8.935V14H65.7355V8.935H66.6255ZM66.8155 7.345C66.8155 7.43167 66.7971 7.51333 66.7605 7.59C66.7271 7.66333 66.6805 7.73 66.6205 7.79C66.5638 7.84667 66.4955 7.89167 66.4155 7.925C66.3388 7.95833 66.2571 7.975 66.1705 7.975C66.0838 7.975 66.0021 7.95833 65.9255 7.925C65.8521 7.89167 65.7871 7.84667 65.7305 7.79C65.6738 7.73 65.6288 7.66333 65.5955 7.59C65.5621 7.51333 65.5455 7.43167 65.5455 7.345C65.5455 7.25833 65.5621 7.17667 65.5955 7.1C65.6288 7.02 65.6738 6.95167 65.7305 6.895C65.7871 6.835 65.8521 6.78833 65.9255 6.755C66.0021 6.72167 66.0838 6.705 66.1705 6.705C66.2571 6.705 66.3388 6.72167 66.4155 6.755C66.4955 6.78833 66.5638 6.835 66.6205 6.895C66.6805 6.95167 66.7271 7.02 66.7605 7.1C66.7971 7.17667 66.8155 7.25833 66.8155 7.345ZM71.0378 9.77C70.9978 9.84333 70.9361 9.88 70.8528 9.88C70.8028 9.88 70.7461 9.86167 70.6828 9.825C70.6195 9.78833 70.5411 9.74833 70.4478 9.705C70.3578 9.65833 70.2495 9.61667 70.1228 9.58C69.9961 9.54 69.8461 9.52 69.6728 9.52C69.5228 9.52 69.3878 9.54 69.2678 9.58C69.1478 9.61667 69.0445 9.66833 68.9578 9.735C68.8745 9.80167 68.8095 9.88 68.7628 9.97C68.7195 10.0567 68.6978 10.1517 68.6978 10.255C68.6978 10.385 68.7345 10.4933 68.8078 10.58C68.8845 10.6667 68.9845 10.7417 69.1078 10.805C69.2311 10.8683 69.3711 10.925 69.5278 10.975C69.6845 11.0217 69.8445 11.0733 70.0078 11.13C70.1745 11.1833 70.3361 11.2433 70.4928 11.31C70.6495 11.3767 70.7895 11.46 70.9128 11.56C71.0361 11.66 71.1345 11.7833 71.2078 11.93C71.2845 12.0733 71.3228 12.2467 71.3228 12.45C71.3228 12.6833 71.2811 12.9 71.1978 13.1C71.1145 13.2967 70.9911 13.4683 70.8278 13.615C70.6645 13.7583 70.4645 13.8717 70.2278 13.955C69.9911 14.0383 69.7178 14.08 69.4078 14.08C69.0545 14.08 68.7345 14.0233 68.4478 13.91C68.1611 13.7933 67.9178 13.645 67.7178 13.465L67.9278 13.125C67.9545 13.0817 67.9861 13.0483 68.0228 13.025C68.0595 13.0017 68.1061 12.99 68.1628 12.99C68.2228 12.99 68.2861 13.0133 68.3528 13.06C68.4195 13.1067 68.4995 13.1583 68.5928 13.215C68.6895 13.2717 68.8061 13.3233 68.9428 13.37C69.0795 13.4167 69.2495 13.44 69.4528 13.44C69.6261 13.44 69.7778 13.4183 69.9078 13.375C70.0378 13.3283 70.1461 13.2667 70.2328 13.19C70.3195 13.1133 70.3828 13.025 70.4228 12.925C70.4661 12.825 70.4878 12.7183 70.4878 12.605C70.4878 12.465 70.4495 12.35 70.3728 12.26C70.2995 12.1667 70.2011 12.0883 70.0778 12.025C69.9545 11.9583 69.8128 11.9017 69.6528 11.855C69.4961 11.805 69.3345 11.7533 69.1678 11.7C69.0045 11.6467 68.8428 11.5867 68.6828 11.52C68.5261 11.45 68.3861 11.3633 68.2628 11.26C68.1395 11.1567 68.0395 11.03 67.9628 10.88C67.8895 10.7267 67.8528 10.5417 67.8528 10.325C67.8528 10.1317 67.8928 9.94667 67.9728 9.77C68.0528 9.59 68.1695 9.43333 68.3228 9.3C68.4761 9.16333 68.6645 9.055 68.8878 8.975C69.1111 8.895 69.3661 8.855 69.6528 8.855C69.9861 8.855 70.2845 8.90833 70.5478 9.015C70.8145 9.11833 71.0445 9.26167 71.2378 9.445L71.0378 9.77ZM73.969 14.08C73.569 14.08 73.2607 13.9683 73.044 13.745C72.8307 13.5217 72.724 13.2 72.724 12.78V9.68H72.114C72.0607 9.68 72.0157 9.665 71.979 9.635C71.9423 9.60167 71.924 9.55167 71.924 9.485V9.13L72.754 9.025L72.959 7.46C72.969 7.41 72.9907 7.37 73.024 7.34C73.0607 7.30667 73.1073 7.29 73.164 7.29H73.614V9.035H75.079V9.68H73.614V12.72C73.614 12.9333 73.6657 13.0917 73.769 13.195C73.8723 13.2983 74.0057 13.35 74.169 13.35C74.2623 13.35 74.3423 13.3383 74.409 13.315C74.479 13.2883 74.539 13.26 74.589 13.23C74.639 13.2 74.6807 13.1733 74.714 13.15C74.7507 13.1233 74.7823 13.11 74.809 13.11C74.8557 13.11 74.8973 13.1383 74.934 13.195L75.194 13.62C75.0407 13.7633 74.8557 13.8767 74.639 13.96C74.4223 14.04 74.199 14.08 73.969 14.08ZM76.738 10.855C76.738 10.1417 76.6463 9.44833 76.463 8.775C76.283 8.10167 76.018 7.46167 75.668 6.855C75.6413 6.805 75.6246 6.76167 75.618 6.725C75.6113 6.685 75.613 6.65167 75.623 6.625C75.633 6.595 75.648 6.57 75.668 6.55C75.6913 6.52667 75.7163 6.50667 75.743 6.49L76.138 6.245C76.388 6.63167 76.5996 7.01333 76.773 7.39C76.9496 7.76667 77.0913 8.145 77.198 8.525C77.308 8.90167 77.388 9.28333 77.438 9.67C77.488 10.0567 77.513 10.4517 77.513 10.855C77.513 11.2617 77.488 11.6583 77.438 12.045C77.388 12.4283 77.308 12.81 77.198 13.19C77.0913 13.57 76.9496 13.9483 76.773 14.325C76.5996 14.7017 76.388 15.0817 76.138 15.465L75.743 15.225C75.7163 15.2083 75.6913 15.1883 75.668 15.165C75.648 15.145 75.633 15.12 75.623 15.09C75.613 15.0633 75.6113 15.03 75.618 14.99C75.6246 14.95 75.6413 14.905 75.668 14.855C76.018 14.2483 76.283 13.6083 76.463 12.935C76.6463 12.2617 76.738 11.5683 76.738 10.855Z" fill="#0B3AB5"/>
<path id="next pointer" d="M82.8673 77.67C82.9773 77.5467 83.0939 77.435 83.2173 77.335C83.3406 77.235 83.4706 77.15 83.6073 77.08C83.7473 77.0067 83.8939 76.9517 84.0473 76.915C84.2039 76.875 84.3723 76.855 84.5523 76.855C84.8289 76.855 85.0723 76.9017 85.2823 76.995C85.4956 77.085 85.6723 77.215 85.8123 77.385C85.9556 77.5517 86.0639 77.7533 86.1373 77.99C86.2106 78.2267 86.2473 78.4883 86.2473 78.775V82H85.3523V78.775C85.3523 78.3917 85.2639 78.095 85.0873 77.885C84.9139 77.6717 84.6489 77.565 84.2923 77.565C84.0289 77.565 83.7823 77.6283 83.5523 77.755C83.3256 77.8817 83.1156 78.0533 82.9223 78.27V82H82.0273V76.935H82.5623C82.6889 76.935 82.7673 76.9967 82.7973 77.12L82.8673 77.67ZM90.9934 78.915C90.9934 78.7083 90.9634 78.52 90.9034 78.35C90.8468 78.1767 90.7618 78.0283 90.6484 77.905C90.5384 77.7783 90.4034 77.6817 90.2434 77.615C90.0834 77.545 89.9018 77.51 89.6984 77.51C89.2718 77.51 88.9334 77.635 88.6834 77.885C88.4368 78.1317 88.2834 78.475 88.2234 78.915H90.9934ZM91.7134 81.29C91.6034 81.4233 91.4718 81.54 91.3184 81.64C91.1651 81.7367 91.0001 81.8167 90.8234 81.88C90.6501 81.9433 90.4701 81.99 90.2834 82.02C90.0968 82.0533 89.9118 82.07 89.7284 82.07C89.3784 82.07 89.0551 82.0117 88.7584 81.895C88.4651 81.775 88.2101 81.6017 87.9934 81.375C87.7801 81.145 87.6134 80.8617 87.4934 80.525C87.3734 80.1883 87.3134 79.8017 87.3134 79.365C87.3134 79.0117 87.3668 78.6817 87.4734 78.375C87.5834 78.0683 87.7401 77.8033 87.9434 77.58C88.1468 77.3533 88.3951 77.1767 88.6884 77.05C88.9818 76.92 89.3118 76.855 89.6784 76.855C89.9818 76.855 90.2618 76.9067 90.5184 77.01C90.7784 77.11 91.0018 77.2567 91.1884 77.45C91.3784 77.64 91.5268 77.8767 91.6334 78.16C91.7401 78.44 91.7934 78.76 91.7934 79.12C91.7934 79.26 91.7784 79.3533 91.7484 79.4C91.7184 79.4467 91.6618 79.47 91.5784 79.47H88.1934C88.2034 79.79 88.2468 80.0683 88.3234 80.305C88.4034 80.5417 88.5134 80.74 88.6534 80.9C88.7934 81.0567 88.9601 81.175 89.1534 81.255C89.3468 81.3317 89.5634 81.37 89.8034 81.37C90.0268 81.37 90.2184 81.345 90.3784 81.295C90.5418 81.2417 90.6818 81.185 90.7984 81.125C90.9151 81.065 91.0118 81.01 91.0884 80.96C91.1684 80.9067 91.2368 80.88 91.2934 80.88C91.3668 80.88 91.4234 80.9083 91.4634 80.965L91.7134 81.29ZM96.9783 82H96.1233C96.0499 82 95.9916 81.9817 95.9483 81.945C95.9083 81.905 95.8749 81.8617 95.8483 81.815L94.5733 79.83C94.5599 79.8767 94.5449 79.9233 94.5283 79.97C94.5149 80.0133 94.4949 80.0533 94.4683 80.09L93.2883 81.815C93.2549 81.8617 93.2183 81.905 93.1783 81.945C93.1416 81.9817 93.0899 82 93.0233 82H92.2283L94.0033 79.4L92.2983 76.935H93.1533C93.2266 76.935 93.2799 76.9467 93.3133 76.97C93.3466 76.9933 93.3766 77.0267 93.4033 77.07L94.6483 78.97C94.6749 78.8733 94.7166 78.78 94.7733 78.69L95.8633 77.09C95.8933 77.0433 95.9249 77.0067 95.9583 76.98C95.9949 76.95 96.0383 76.935 96.0883 76.935H96.9083L95.2033 79.355L96.9783 82ZM99.3538 82.08C98.9538 82.08 98.6454 81.9683 98.4288 81.745C98.2154 81.5217 98.1088 81.2 98.1088 80.78V77.68H97.4988C97.4454 77.68 97.4004 77.665 97.3638 77.635C97.3271 77.6017 97.3088 77.5517 97.3088 77.485V77.13L98.1388 77.025L98.3438 75.46C98.3538 75.41 98.3754 75.37 98.4088 75.34C98.4454 75.3067 98.4921 75.29 98.5488 75.29H98.9988V77.035H100.464V77.68H98.9988V80.72C98.9988 80.9333 99.0504 81.0917 99.1538 81.195C99.2571 81.2983 99.3904 81.35 99.5538 81.35C99.6471 81.35 99.7271 81.3383 99.7938 81.315C99.8638 81.2883 99.9238 81.26 99.9738 81.23C100.024 81.2 100.065 81.1733 100.099 81.15C100.135 81.1233 100.167 81.11 100.194 81.11C100.24 81.11 100.282 81.1383 100.319 81.195L100.579 81.62C100.425 81.7633 100.24 81.8767 100.024 81.96C99.8071 82.04 99.5838 82.08 99.3538 82.08ZM76.765 92.78C76.9284 93 77.1067 93.155 77.3 93.245C77.4934 93.335 77.71 93.38 77.95 93.38C78.4234 93.38 78.7867 93.2117 79.04 92.875C79.2934 92.5383 79.42 92.0583 79.42 91.435C79.42 91.105 79.39 90.8217 79.33 90.585C79.2734 90.3483 79.19 90.155 79.08 90.005C78.97 89.8517 78.835 89.74 78.675 89.67C78.515 89.6 78.3334 89.565 78.13 89.565C77.84 89.565 77.585 89.6317 77.365 89.765C77.1484 89.8983 76.9484 90.0867 76.765 90.33V92.78ZM76.72 89.72C76.9334 89.4567 77.18 89.245 77.46 89.085C77.74 88.925 78.06 88.845 78.42 88.845C78.7134 88.845 78.9784 88.9017 79.215 89.015C79.4517 89.125 79.6534 89.29 79.82 89.51C79.9867 89.7267 80.115 89.9967 80.205 90.32C80.295 90.6433 80.34 91.015 80.34 91.435C80.34 91.8083 80.29 92.1567 80.19 92.48C80.09 92.8 79.945 93.0783 79.755 93.315C79.5684 93.5483 79.3384 93.7333 79.065 93.87C78.795 94.0033 78.49 94.07 78.15 94.07C77.84 94.07 77.5734 94.0183 77.35 93.915C77.13 93.8083 76.935 93.6617 76.765 93.475V95.715H75.87V88.935H76.405C76.5317 88.935 76.61 88.9967 76.64 89.12L76.72 89.72ZM83.6105 88.855C83.9805 88.855 84.3138 88.9167 84.6105 89.04C84.9072 89.1633 85.1605 89.3383 85.3705 89.565C85.5805 89.7917 85.7405 90.0667 85.8505 90.39C85.9638 90.71 86.0205 91.0683 86.0205 91.465C86.0205 91.865 85.9638 92.225 85.8505 92.545C85.7405 92.865 85.5805 93.1383 85.3705 93.365C85.1605 93.5917 84.9072 93.7667 84.6105 93.89C84.3138 94.01 83.9805 94.07 83.6105 94.07C83.2372 94.07 82.9005 94.01 82.6005 93.89C82.3038 93.7667 82.0505 93.5917 81.8405 93.365C81.6305 93.1383 81.4688 92.865 81.3555 92.545C81.2455 92.225 81.1905 91.865 81.1905 91.465C81.1905 91.0683 81.2455 90.71 81.3555 90.39C81.4688 90.0667 81.6305 89.7917 81.8405 89.565C82.0505 89.3383 82.3038 89.1633 82.6005 89.04C82.9005 88.9167 83.2372 88.855 83.6105 88.855ZM83.6105 93.375C84.1105 93.375 84.4838 93.2083 84.7305 92.875C84.9772 92.5383 85.1005 92.07 85.1005 91.47C85.1005 90.8667 84.9772 90.3967 84.7305 90.06C84.4838 89.7233 84.1105 89.555 83.6105 89.555C83.3572 89.555 83.1355 89.5983 82.9455 89.685C82.7588 89.7717 82.6022 89.8967 82.4755 90.06C82.3522 90.2233 82.2588 90.425 82.1955 90.665C82.1355 90.9017 82.1055 91.17 82.1055 91.47C82.1055 92.07 82.2288 92.5383 82.4755 92.875C82.7255 93.2083 83.1038 93.375 83.6105 93.375ZM88.0893 88.935V94H87.1993V88.935H88.0893ZM88.2793 87.345C88.2793 87.4317 88.261 87.5133 88.2243 87.59C88.191 87.6633 88.1443 87.73 88.0843 87.79C88.0277 87.8467 87.9593 87.8917 87.8793 87.925C87.8027 87.9583 87.721 87.975 87.6343 87.975C87.5477 87.975 87.466 87.9583 87.3893 87.925C87.316 87.8917 87.251 87.8467 87.1943 87.79C87.1377 87.73 87.0927 87.6633 87.0593 87.59C87.026 87.5133 87.0093 87.4317 87.0093 87.345C87.0093 87.2583 87.026 87.1767 87.0593 87.1C87.0927 87.02 87.1377 86.9517 87.1943 86.895C87.251 86.835 87.316 86.7883 87.3893 86.755C87.466 86.7217 87.5477 86.705 87.6343 86.705C87.721 86.705 87.8027 86.7217 87.8793 86.755C87.9593 86.7883 88.0277 86.835 88.0843 86.895C88.1443 86.9517 88.191 87.02 88.2243 87.1C88.261 87.1767 88.2793 87.2583 88.2793 87.345ZM90.3917 89.67C90.5017 89.5467 90.6183 89.435 90.7417 89.335C90.865 89.235 90.995 89.15 91.1317 89.08C91.2717 89.0067 91.4183 88.9517 91.5717 88.915C91.7283 88.875 91.8967 88.855 92.0767 88.855C92.3533 88.855 92.5967 88.9017 92.8067 88.995C93.02 89.085 93.1967 89.215 93.3367 89.385C93.48 89.5517 93.5883 89.7533 93.6617 89.99C93.735 90.2267 93.7717 90.4883 93.7717 90.775V94H92.8767V90.775C92.8767 90.3917 92.7883 90.095 92.6117 89.885C92.4383 89.6717 92.1733 89.565 91.8167 89.565C91.5533 89.565 91.3067 89.6283 91.0767 89.755C90.85 89.8817 90.64 90.0533 90.4467 90.27V94H89.5517V88.935H90.0867C90.2133 88.935 90.2917 88.9967 90.3217 89.12L90.3917 89.67ZM96.6145 94.08C96.2145 94.08 95.9062 93.9683 95.6895 93.745C95.4762 93.5217 95.3695 93.2 95.3695 92.78V89.68H94.7595C94.7062 89.68 94.6612 89.665 94.6245 89.635C94.5878 89.6017 94.5695 89.5517 94.5695 89.485V89.13L95.3995 89.025L95.6045 87.46C95.6145 87.41 95.6362 87.37 95.6695 87.34C95.7062 87.3067 95.7528 87.29 95.8095 87.29H96.2595V89.035H97.7245V89.68H96.2595V92.72C96.2595 92.9333 96.3112 93.0917 96.4145 93.195C96.5178 93.2983 96.6512 93.35 96.8145 93.35C96.9078 93.35 96.9878 93.3383 97.0545 93.315C97.1245 93.2883 97.1845 93.26 97.2345 93.23C97.2845 93.2 97.3262 93.1733 97.3595 93.15C97.3962 93.1233 97.4278 93.11 97.4545 93.11C97.5012 93.11 97.5428 93.1383 97.5795 93.195L97.8395 93.62C97.6862 93.7633 97.5012 93.8767 97.2845 93.96C97.0678 94.04 96.8445 94.08 96.6145 94.08ZM102.004 90.915C102.004 90.7083 101.974 90.52 101.914 90.35C101.858 90.1767 101.773 90.0283 101.659 89.905C101.549 89.7783 101.414 89.6817 101.254 89.615C101.094 89.545 100.913 89.51 100.709 89.51C100.283 89.51 99.9442 89.635 99.6942 89.885C99.4475 90.1317 99.2942 90.475 99.2342 90.915H102.004ZM102.724 93.29C102.614 93.4233 102.483 93.54 102.329 93.64C102.176 93.7367 102.011 93.8167 101.834 93.88C101.661 93.9433 101.481 93.99 101.294 94.02C101.108 94.0533 100.923 94.07 100.739 94.07C100.389 94.07 100.066 94.0117 99.7692 93.895C99.4758 93.775 99.2208 93.6017 99.0042 93.375C98.7908 93.145 98.6242 92.8617 98.5042 92.525C98.3842 92.1883 98.3242 91.8017 98.3242 91.365C98.3242 91.0117 98.3775 90.6817 98.4842 90.375C98.5942 90.0683 98.7508 89.8033 98.9542 89.58C99.1575 89.3533 99.4058 89.1767 99.6992 89.05C99.9925 88.92 100.323 88.855 100.689 88.855C100.993 88.855 101.273 88.9067 101.529 89.01C101.789 89.11 102.013 89.2567 102.199 89.45C102.389 89.64 102.538 89.8767 102.644 90.16C102.751 90.44 102.804 90.76 102.804 91.12C102.804 91.26 102.789 91.3533 102.759 91.4C102.729 91.4467 102.673 91.47 102.589 91.47H99.2042C99.2142 91.79 99.2575 92.0683 99.3342 92.305C99.4142 92.5417 99.5242 92.74 99.6642 92.9C99.8042 93.0567 99.9708 93.175 100.164 93.255C100.358 93.3317 100.574 93.37 100.814 93.37C101.038 93.37 101.229 93.345 101.389 93.295C101.553 93.2417 101.693 93.185 101.809 93.125C101.926 93.065 102.023 93.01 102.099 92.96C102.179 92.9067 102.248 92.88 102.304 92.88C102.378 92.88 102.434 92.9083 102.474 92.965L102.724 93.29ZM104.742 89.95C104.902 89.6033 105.099 89.3333 105.332 89.14C105.566 88.9433 105.851 88.845 106.187 88.845C106.294 88.845 106.396 88.8567 106.492 88.88C106.592 88.9033 106.681 88.94 106.757 88.99L106.692 89.655C106.672 89.7383 106.622 89.78 106.542 89.78C106.496 89.78 106.427 89.77 106.337 89.75C106.247 89.73 106.146 89.72 106.032 89.72C105.872 89.72 105.729 89.7433 105.602 89.79C105.479 89.8367 105.367 89.9067 105.267 90C105.171 90.09 105.082 90.2033 105.002 90.34C104.926 90.4733 104.856 90.6267 104.792 90.8V94H103.897V88.935H104.407C104.504 88.935 104.571 88.9533 104.607 88.99C104.644 89.0267 104.669 89.09 104.682 89.18L104.742 89.95Z" fill="#D90D0D"/>
<path id="Arrow 7" d="M93.3536 48.6464C93.1583 48.4512 92.8417 48.4512 92.6464 48.6464L89.4645 51.8284C89.2692 52.0237 89.2692 52.3403 89.4645 52.5355C89.6597 52.7308 89.9763 52.7308 90.1716 52.5355L93 49.7071L95.8284 52.5355C96.0237 52.7308 96.3403 52.7308 96.5355 52.5355C96.7308 52.3403 96.7308 52.0237 96.5355 51.8284L93.3536 48.6464ZM93.5 72L93.5 49L92.5 49L92.5 72L93.5 72Z" fill="#D90D0D"/>
<path id="next pointer_2" d="M146.367 76.67C146.477 76.5467 146.594 76.435 146.717 76.335C146.841 76.235 146.971 76.15 147.107 76.08C147.247 76.0067 147.394 75.9517 147.547 75.915C147.704 75.875 147.872 75.855 148.052 75.855C148.329 75.855 148.572 75.9017 148.782 75.995C148.996 76.085 149.172 76.215 149.312 76.385C149.456 76.5517 149.564 76.7533 149.637 76.99C149.711 77.2267 149.747 77.4883 149.747 77.775V81H148.852V77.775C148.852 77.3917 148.764 77.095 148.587 76.885C148.414 76.6717 148.149 76.565 147.792 76.565C147.529 76.565 147.282 76.6283 147.052 76.755C146.826 76.8817 146.616 77.0533 146.422 77.27V81H145.527V75.935H146.062C146.189 75.935 146.267 75.9967 146.297 76.12L146.367 76.67ZM154.493 77.915C154.493 77.7083 154.463 77.52 154.403 77.35C154.347 77.1767 154.262 77.0283 154.148 76.905C154.038 76.7783 153.903 76.6817 153.743 76.615C153.583 76.545 153.402 76.51 153.198 76.51C152.772 76.51 152.433 76.635 152.183 76.885C151.937 77.1317 151.783 77.475 151.723 77.915H154.493ZM155.213 80.29C155.103 80.4233 154.972 80.54 154.818 80.64C154.665 80.7367 154.5 80.8167 154.323 80.88C154.15 80.9433 153.97 80.99 153.783 81.02C153.597 81.0533 153.412 81.07 153.228 81.07C152.878 81.07 152.555 81.0117 152.258 80.895C151.965 80.775 151.71 80.6017 151.493 80.375C151.28 80.145 151.113 79.8617 150.993 79.525C150.873 79.1883 150.813 78.8017 150.813 78.365C150.813 78.0117 150.867 77.6817 150.973 77.375C151.083 77.0683 151.24 76.8033 151.443 76.58C151.647 76.3533 151.895 76.1767 152.188 76.05C152.482 75.92 152.812 75.855 153.178 75.855C153.482 75.855 153.762 75.9067 154.018 76.01C154.278 76.11 154.502 76.2567 154.688 76.45C154.878 76.64 155.027 76.8767 155.133 77.16C155.24 77.44 155.293 77.76 155.293 78.12C155.293 78.26 155.278 78.3533 155.248 78.4C155.218 78.4467 155.162 78.47 155.078 78.47H151.693C151.703 78.79 151.747 79.0683 151.823 79.305C151.903 79.5417 152.013 79.74 152.153 79.9C152.293 80.0567 152.46 80.175 152.653 80.255C152.847 80.3317 153.063 80.37 153.303 80.37C153.527 80.37 153.718 80.345 153.878 80.295C154.042 80.2417 154.182 80.185 154.298 80.125C154.415 80.065 154.512 80.01 154.588 79.96C154.668 79.9067 154.737 79.88 154.793 79.88C154.867 79.88 154.923 79.9083 154.963 79.965L155.213 80.29ZM160.478 81H159.623C159.55 81 159.492 80.9817 159.448 80.945C159.408 80.905 159.375 80.8617 159.348 80.815L158.073 78.83C158.06 78.8767 158.045 78.9233 158.028 78.97C158.015 79.0133 157.995 79.0533 157.968 79.09L156.788 80.815C156.755 80.8617 156.718 80.905 156.678 80.945C156.642 80.9817 156.59 81 156.523 81H155.728L157.503 78.4L155.798 75.935H156.653C156.727 75.935 156.78 75.9467 156.813 75.97C156.847 75.9933 156.877 76.0267 156.903 76.07L158.148 77.97C158.175 77.8733 158.217 77.78 158.273 77.69L159.363 76.09C159.393 76.0433 159.425 76.0067 159.458 75.98C159.495 75.95 159.538 75.935 159.588 75.935H160.408L158.703 78.355L160.478 81ZM162.854 81.08C162.454 81.08 162.145 80.9683 161.929 80.745C161.715 80.5217 161.609 80.2 161.609 79.78V76.68H160.999C160.945 76.68 160.9 76.665 160.864 76.635C160.827 76.6017 160.809 76.5517 160.809 76.485V76.13L161.639 76.025L161.844 74.46C161.854 74.41 161.875 74.37 161.909 74.34C161.945 74.3067 161.992 74.29 162.049 74.29H162.499V76.035H163.964V76.68H162.499V79.72C162.499 79.9333 162.55 80.0917 162.654 80.195C162.757 80.2983 162.89 80.35 163.054 80.35C163.147 80.35 163.227 80.3383 163.294 80.315C163.364 80.2883 163.424 80.26 163.474 80.23C163.524 80.2 163.565 80.1733 163.599 80.15C163.635 80.1233 163.667 80.11 163.694 80.11C163.74 80.11 163.782 80.1383 163.819 80.195L164.079 80.62C163.925 80.7633 163.74 80.8767 163.524 80.96C163.307 81.04 163.084 81.08 162.854 81.08ZM140.265 91.78C140.428 92 140.607 92.155 140.8 92.245C140.993 92.335 141.21 92.38 141.45 92.38C141.923 92.38 142.287 92.2117 142.54 91.875C142.793 91.5383 142.92 91.0583 142.92 90.435C142.92 90.105 142.89 89.8217 142.83 89.585C142.773 89.3483 142.69 89.155 142.58 89.005C142.47 88.8517 142.335 88.74 142.175 88.67C142.015 88.6 141.833 88.565 141.63 88.565C141.34 88.565 141.085 88.6317 140.865 88.765C140.648 88.8983 140.448 89.0867 140.265 89.33V91.78ZM140.22 88.72C140.433 88.4567 140.68 88.245 140.96 88.085C141.24 87.925 141.56 87.845 141.92 87.845C142.213 87.845 142.478 87.9017 142.715 88.015C142.952 88.125 143.153 88.29 143.32 88.51C143.487 88.7267 143.615 88.9967 143.705 89.32C143.795 89.6433 143.84 90.015 143.84 90.435C143.84 90.8083 143.79 91.1567 143.69 91.48C143.59 91.8 143.445 92.0783 143.255 92.315C143.068 92.5483 142.838 92.7333 142.565 92.87C142.295 93.0033 141.99 93.07 141.65 93.07C141.34 93.07 141.073 93.0183 140.85 92.915C140.63 92.8083 140.435 92.6617 140.265 92.475V94.715H139.37V87.935H139.905C140.032 87.935 140.11 87.9967 140.14 88.12L140.22 88.72ZM147.111 87.855C147.481 87.855 147.814 87.9167 148.111 88.04C148.407 88.1633 148.661 88.3383 148.871 88.565C149.081 88.7917 149.241 89.0667 149.351 89.39C149.464 89.71 149.521 90.0683 149.521 90.465C149.521 90.865 149.464 91.225 149.351 91.545C149.241 91.865 149.081 92.1383 148.871 92.365C148.661 92.5917 148.407 92.7667 148.111 92.89C147.814 93.01 147.481 93.07 147.111 93.07C146.737 93.07 146.401 93.01 146.101 92.89C145.804 92.7667 145.551 92.5917 145.341 92.365C145.131 92.1383 144.969 91.865 144.856 91.545C144.746 91.225 144.691 90.865 144.691 90.465C144.691 90.0683 144.746 89.71 144.856 89.39C144.969 89.0667 145.131 88.7917 145.341 88.565C145.551 88.3383 145.804 88.1633 146.101 88.04C146.401 87.9167 146.737 87.855 147.111 87.855ZM147.111 92.375C147.611 92.375 147.984 92.2083 148.231 91.875C148.477 91.5383 148.601 91.07 148.601 90.47C148.601 89.8667 148.477 89.3967 148.231 89.06C147.984 88.7233 147.611 88.555 147.111 88.555C146.857 88.555 146.636 88.5983 146.446 88.685C146.259 88.7717 146.102 88.8967 145.976 89.06C145.852 89.2233 145.759 89.425 145.696 89.665C145.636 89.9017 145.606 90.17 145.606 90.47C145.606 91.07 145.729 91.5383 145.976 91.875C146.226 92.2083 146.604 92.375 147.111 92.375ZM151.589 87.935V93H150.699V87.935H151.589ZM151.779 86.345C151.779 86.4317 151.761 86.5133 151.724 86.59C151.691 86.6633 151.644 86.73 151.584 86.79C151.528 86.8467 151.459 86.8917 151.379 86.925C151.303 86.9583 151.221 86.975 151.134 86.975C151.048 86.975 150.966 86.9583 150.889 86.925C150.816 86.8917 150.751 86.8467 150.694 86.79C150.638 86.73 150.593 86.6633 150.559 86.59C150.526 86.5133 150.509 86.4317 150.509 86.345C150.509 86.2583 150.526 86.1767 150.559 86.1C150.593 86.02 150.638 85.9517 150.694 85.895C150.751 85.835 150.816 85.7883 150.889 85.755C150.966 85.7217 151.048 85.705 151.134 85.705C151.221 85.705 151.303 85.7217 151.379 85.755C151.459 85.7883 151.528 85.835 151.584 85.895C151.644 85.9517 151.691 86.02 151.724 86.1C151.761 86.1767 151.779 86.2583 151.779 86.345ZM153.892 88.67C154.002 88.5467 154.118 88.435 154.242 88.335C154.365 88.235 154.495 88.15 154.632 88.08C154.772 88.0067 154.918 87.9517 155.072 87.915C155.228 87.875 155.397 87.855 155.577 87.855C155.853 87.855 156.097 87.9017 156.307 87.995C156.52 88.085 156.697 88.215 156.837 88.385C156.98 88.5517 157.088 88.7533 157.162 88.99C157.235 89.2267 157.272 89.4883 157.272 89.775V93H156.377V89.775C156.377 89.3917 156.288 89.095 156.112 88.885C155.938 88.6717 155.673 88.565 155.317 88.565C155.053 88.565 154.807 88.6283 154.577 88.755C154.35 88.8817 154.14 89.0533 153.947 89.27V93H153.052V87.935H153.587C153.713 87.935 153.792 87.9967 153.822 88.12L153.892 88.67ZM160.114 93.08C159.714 93.08 159.406 92.9683 159.189 92.745C158.976 92.5217 158.869 92.2 158.869 91.78V88.68H158.259C158.206 88.68 158.161 88.665 158.124 88.635C158.088 88.6017 158.069 88.5517 158.069 88.485V88.13L158.899 88.025L159.104 86.46C159.114 86.41 159.136 86.37 159.169 86.34C159.206 86.3067 159.253 86.29 159.309 86.29H159.759V88.035H161.224V88.68H159.759V91.72C159.759 91.9333 159.811 92.0917 159.914 92.195C160.018 92.2983 160.151 92.35 160.314 92.35C160.408 92.35 160.488 92.3383 160.554 92.315C160.624 92.2883 160.684 92.26 160.734 92.23C160.784 92.2 160.826 92.1733 160.859 92.15C160.896 92.1233 160.928 92.11 160.954 92.11C161.001 92.11 161.043 92.1383 161.079 92.195L161.339 92.62C161.186 92.7633 161.001 92.8767 160.784 92.96C160.568 93.04 160.344 93.08 160.114 93.08ZM165.504 89.915C165.504 89.7083 165.474 89.52 165.414 89.35C165.358 89.1767 165.273 89.0283 165.159 88.905C165.049 88.7783 164.914 88.6817 164.754 88.615C164.594 88.545 164.413 88.51 164.209 88.51C163.783 88.51 163.444 88.635 163.194 88.885C162.948 89.1317 162.794 89.475 162.734 89.915H165.504ZM166.224 92.29C166.114 92.4233 165.983 92.54 165.829 92.64C165.676 92.7367 165.511 92.8167 165.334 92.88C165.161 92.9433 164.981 92.99 164.794 93.02C164.608 93.0533 164.423 93.07 164.239 93.07C163.889 93.07 163.566 93.0117 163.269 92.895C162.976 92.775 162.721 92.6017 162.504 92.375C162.291 92.145 162.124 91.8617 162.004 91.525C161.884 91.1883 161.824 90.8017 161.824 90.365C161.824 90.0117 161.878 89.6817 161.984 89.375C162.094 89.0683 162.251 88.8033 162.454 88.58C162.658 88.3533 162.906 88.1767 163.199 88.05C163.493 87.92 163.823 87.855 164.189 87.855C164.493 87.855 164.773 87.9067 165.029 88.01C165.289 88.11 165.513 88.2567 165.699 88.45C165.889 88.64 166.038 88.8767 166.144 89.16C166.251 89.44 166.304 89.76 166.304 90.12C166.304 90.26 166.289 90.3533 166.259 90.4C166.229 90.4467 166.173 90.47 166.089 90.47H162.704C162.714 90.79 162.758 91.0683 162.834 91.305C162.914 91.5417 163.024 91.74 163.164 91.9C163.304 92.0567 163.471 92.175 163.664 92.255C163.858 92.3317 164.074 92.37 164.314 92.37C164.538 92.37 164.729 92.345 164.889 92.295C165.053 92.2417 165.193 92.185 165.309 92.125C165.426 92.065 165.523 92.01 165.599 91.96C165.679 91.9067 165.748 91.88 165.804 91.88C165.878 91.88 165.934 91.9083 165.974 91.965L166.224 92.29ZM168.242 88.95C168.402 88.6033 168.599 88.3333 168.832 88.14C169.066 87.9433 169.351 87.845 169.687 87.845C169.794 87.845 169.896 87.8567 169.992 87.88C170.092 87.9033 170.181 87.94 170.257 87.99L170.192 88.655C170.172 88.7383 170.122 88.78 170.042 88.78C169.996 88.78 169.927 88.77 169.837 88.75C169.747 88.73 169.646 88.72 169.532 88.72C169.372 88.72 169.229 88.7433 169.102 88.79C168.979 88.8367 168.867 88.9067 168.767 89C168.671 89.09 168.582 89.2033 168.502 89.34C168.426 89.4733 168.356 89.6267 168.292 89.8V93H167.397V87.935H167.907C168.004 87.935 168.071 87.9533 168.107 87.99C168.144 88.0267 168.169 88.09 168.182 88.18L168.242 88.95Z" fill="#D90D0D"/>
<path id="Arrow 8" d="M154.354 47.6464C154.158 47.4512 153.842 47.4512 153.646 47.6464L150.464 50.8284C150.269 51.0237 150.269 51.3403 150.464 51.5355C150.66 51.7308 150.976 51.7308 151.172 51.5355L154 48.7071L156.828 51.5355C157.024 51.7308 157.34 51.7308 157.536 51.5355C157.731 51.3403 157.731 51.0237 157.536 50.8284L154.354 47.6464ZM154.5 71L154.5 48L153.5 48L153.5 71L154.5 71Z" fill="#D90D0D"/>
<path id="old-null-remove-from-back" style="opacity: 0" d="M232.606 44.67C232.716 44.5467 232.832 44.435 232.956 44.335C233.079 44.235 233.209 44.15 233.346 44.08C233.486 44.0067 233.632 43.9517 233.786 43.915C233.942 43.875 234.111 43.855 234.291 43.855C234.567 43.855 234.811 43.9017 235.021 43.995C235.234 44.085 235.411 44.215 235.551 44.385C235.694 44.5517 235.802 44.7533 235.876 44.99C235.949 45.2267 235.986 45.4883 235.986 45.775V49H235.091V45.775C235.091 45.3917 235.002 45.095 234.826 44.885C234.652 44.6717 234.387 44.565 234.031 44.565C233.767 44.565 233.521 44.6283 233.291 44.755C233.064 44.8817 232.854 45.0533 232.661 45.27V49H231.766V43.935H232.301C232.427 43.935 232.506 43.9967 232.536 44.12L232.606 44.67ZM241.507 43.935V49H240.977C240.85 49 240.77 48.9383 240.737 48.815L240.667 48.27C240.447 48.5133 240.2 48.71 239.927 48.86C239.653 49.0067 239.34 49.08 238.987 49.08C238.71 49.08 238.465 49.035 238.252 48.945C238.042 48.8517 237.865 48.7217 237.722 48.555C237.578 48.3883 237.47 48.1867 237.397 47.95C237.327 47.7133 237.292 47.4517 237.292 47.165V43.935H238.182V47.165C238.182 47.5483 238.268 47.845 238.442 48.055C238.618 48.265 238.887 48.37 239.247 48.37C239.51 48.37 239.755 48.3083 239.982 48.185C240.212 48.0583 240.423 47.885 240.617 47.665V43.935H241.507ZM243.838 41.635V49H242.948V41.635H243.838ZM246.201 41.635V49H245.311V41.635H246.201Z" fill="black"/>
<path id="tail-pointer-remove-from-back" style="    transform-box: fill-box;
    transform-origin: left top;
    transition-duration: 500ms;" class="arrow-stagger-1" d="M222.405 31.5C222.682 31.5 222.905 31.2761 222.905 31L222.905 26.5C222.905 26.2239 222.682 26 222.405 26C222.129 26 221.905 26.2239 221.905 26.5L221.905 30.5L217.905 30.5C217.629 30.5 217.405 30.7239 217.405 31C217.405 31.2761 217.629 31.5 217.905 31.5L222.405 31.5ZM209.052 18.3536L222.052 31.3536L222.759 30.6464L209.759 17.6464L209.052 18.3536Z" fill="#0B3AB5"/>
<path id="tail (end of list)" d="M183.239 15.08C182.839 15.08 182.53 14.9683 182.314 14.745C182.1 14.5217 181.994 14.2 181.994 13.78V10.68H181.384C181.33 10.68 181.285 10.665 181.249 10.635C181.212 10.6017 181.194 10.5517 181.194 10.485V10.13L182.024 10.025L182.229 8.46C182.239 8.41 182.26 8.37 182.294 8.34C182.33 8.30667 182.377 8.29 182.434 8.29H182.884V10.035H184.349V10.68H182.884V13.72C182.884 13.9333 182.935 14.0917 183.039 14.195C183.142 14.2983 183.275 14.35 183.439 14.35C183.532 14.35 183.612 14.3383 183.679 14.315C183.749 14.2883 183.809 14.26 183.859 14.23C183.909 14.2 183.95 14.1733 183.984 14.15C184.02 14.1233 184.052 14.11 184.079 14.11C184.125 14.11 184.167 14.1383 184.204 14.195L184.464 14.62C184.31 14.7633 184.125 14.8767 183.909 14.96C183.692 15.04 183.469 15.08 183.239 15.08ZM188.013 12.72C187.603 12.7333 187.253 12.7667 186.963 12.82C186.676 12.87 186.441 12.9367 186.258 13.02C186.078 13.1033 185.946 13.2017 185.863 13.315C185.783 13.4283 185.743 13.555 185.743 13.695C185.743 13.8283 185.764 13.9433 185.808 14.04C185.851 14.1367 185.909 14.2167 185.983 14.28C186.059 14.34 186.148 14.385 186.248 14.415C186.351 14.4417 186.461 14.455 186.578 14.455C186.734 14.455 186.878 14.44 187.008 14.41C187.138 14.3767 187.259 14.33 187.373 14.27C187.489 14.21 187.599 14.1383 187.703 14.055C187.809 13.9717 187.913 13.8767 188.013 13.77V12.72ZM185.138 10.65C185.418 10.38 185.719 10.1783 186.043 10.045C186.366 9.91167 186.724 9.845 187.118 9.845C187.401 9.845 187.653 9.89167 187.873 9.985C188.093 10.0783 188.278 10.2083 188.428 10.375C188.578 10.5417 188.691 10.7433 188.768 10.98C188.844 11.2167 188.883 11.4767 188.883 11.76V15H188.488C188.401 15 188.334 14.9867 188.288 14.96C188.241 14.93 188.204 14.8733 188.178 14.79L188.078 14.31C187.944 14.4333 187.814 14.5433 187.688 14.64C187.561 14.7333 187.428 14.8133 187.288 14.88C187.148 14.9433 186.998 14.9917 186.838 15.025C186.681 15.0617 186.506 15.08 186.313 15.08C186.116 15.08 185.931 15.0533 185.758 15C185.584 14.9433 185.433 14.86 185.303 14.75C185.176 14.64 185.074 14.5017 184.998 14.335C184.924 14.165 184.888 13.965 184.888 13.735C184.888 13.535 184.943 13.3433 185.053 13.16C185.163 12.9733 185.341 12.8083 185.588 12.665C185.834 12.5217 186.156 12.405 186.553 12.315C186.949 12.2217 187.436 12.1683 188.013 12.155V11.76C188.013 11.3667 187.928 11.07 187.758 10.87C187.588 10.6667 187.339 10.565 187.013 10.565C186.793 10.565 186.608 10.5933 186.458 10.65C186.311 10.7033 186.183 10.765 186.073 10.835C185.966 10.9017 185.873 10.9633 185.793 11.02C185.716 11.0733 185.639 11.1 185.563 11.1C185.503 11.1 185.451 11.085 185.408 11.055C185.364 11.0217 185.328 10.9817 185.297 10.935L185.138 10.65ZM191.178 9.935V15H190.288V9.935H191.178ZM191.368 8.345C191.368 8.43167 191.35 8.51333 191.313 8.59C191.28 8.66333 191.233 8.73 191.173 8.79C191.117 8.84667 191.048 8.89167 190.968 8.925C190.892 8.95833 190.81 8.975 190.723 8.975C190.637 8.975 190.555 8.95833 190.478 8.925C190.405 8.89167 190.34 8.84667 190.283 8.79C190.227 8.73 190.182 8.66333 190.148 8.59C190.115 8.51333 190.098 8.43167 190.098 8.345C190.098 8.25833 190.115 8.17667 190.148 8.1C190.182 8.02 190.227 7.95167 190.283 7.895C190.34 7.835 190.405 7.78833 190.478 7.755C190.555 7.72167 190.637 7.705 190.723 7.705C190.81 7.705 190.892 7.72167 190.968 7.755C191.048 7.78833 191.117 7.835 191.173 7.895C191.233 7.95167 191.28 8.02 191.313 8.1C191.35 8.17667 191.368 8.25833 191.368 8.345ZM193.561 7.635V15H192.671V7.635H193.561ZM198.082 11.855C198.082 12.5683 198.172 13.2617 198.352 13.935C198.536 14.6083 198.802 15.2483 199.152 15.855C199.206 15.9583 199.219 16.0367 199.192 16.09C199.166 16.1467 199.127 16.1917 199.077 16.225L198.682 16.465C198.432 16.0817 198.219 15.7017 198.042 15.325C197.869 14.9483 197.727 14.57 197.617 14.19C197.511 13.81 197.432 13.4283 197.382 13.045C197.332 12.6583 197.307 12.2617 197.307 11.855C197.307 11.4517 197.332 11.0567 197.382 10.67C197.432 10.2833 197.511 9.90167 197.617 9.525C197.727 9.145 197.869 8.76667 198.042 8.39C198.219 8.01333 198.432 7.63167 198.682 7.245L199.077 7.49C199.127 7.52333 199.166 7.56833 199.192 7.625C199.219 7.67833 199.206 7.755 199.152 7.855C198.802 8.46167 198.536 9.10167 198.352 9.775C198.172 10.4483 198.082 11.1417 198.082 11.855ZM203.316 11.915C203.316 11.7083 203.286 11.52 203.226 11.35C203.169 11.1767 203.084 11.0283 202.971 10.905C202.861 10.7783 202.726 10.6817 202.566 10.615C202.406 10.545 202.224 10.51 202.021 10.51C201.594 10.51 201.256 10.635 201.006 10.885C200.759 11.1317 200.606 11.475 200.546 11.915H203.316ZM204.036 14.29C203.926 14.4233 203.794 14.54 203.641 14.64C203.487 14.7367 203.322 14.8167 203.146 14.88C202.972 14.9433 202.792 14.99 202.606 15.02C202.419 15.0533 202.234 15.07 202.051 15.07C201.701 15.07 201.377 15.0117 201.081 14.895C200.787 14.775 200.532 14.6017 200.316 14.375C200.102 14.145 199.936 13.8617 199.816 13.525C199.696 13.1883 199.636 12.8017 199.636 12.365C199.636 12.0117 199.689 11.6817 199.796 11.375C199.906 11.0683 200.062 10.8033 200.266 10.58C200.469 10.3533 200.717 10.1767 201.011 10.05C201.304 9.92 201.634 9.855 202.001 9.855C202.304 9.855 202.584 9.90667 202.841 10.01C203.101 10.11 203.324 10.2567 203.511 10.45C203.701 10.64 203.849 10.8767 203.956 11.16C204.062 11.44 204.116 11.76 204.116 12.12C204.116 12.26 204.101 12.3533 204.071 12.4C204.041 12.4467 203.984 12.47 203.901 12.47H200.516C200.526 12.79 200.569 13.0683 200.646 13.305C200.726 13.5417 200.836 13.74 200.976 13.9C201.116 14.0567 201.282 14.175 201.476 14.255C201.669 14.3317 201.886 14.37 202.126 14.37C202.349 14.37 202.541 14.345 202.701 14.295C202.864 14.2417 203.004 14.185 203.121 14.125C203.237 14.065 203.334 14.01 203.411 13.96C203.491 13.9067 203.559 13.88 203.616 13.88C203.689 13.88 203.746 13.9083 203.786 13.965L204.036 14.29ZM206.049 10.67C206.159 10.5467 206.276 10.435 206.399 10.335C206.522 10.235 206.652 10.15 206.789 10.08C206.929 10.0067 207.076 9.95167 207.229 9.915C207.386 9.875 207.554 9.855 207.734 9.855C208.011 9.855 208.254 9.90167 208.464 9.995C208.677 10.085 208.854 10.215 208.994 10.385C209.137 10.5517 209.246 10.7533 209.319 10.99C209.392 11.2267 209.429 11.4883 209.429 11.775V15H208.534V11.775C208.534 11.3917 208.446 11.095 208.269 10.885C208.096 10.6717 207.831 10.565 207.474 10.565C207.211 10.565 206.964 10.6283 206.734 10.755C206.507 10.8817 206.297 11.0533 206.104 11.27V15H205.209V9.935H205.744C205.871 9.935 205.949 9.99667 205.979 10.12L206.049 10.67ZM214.085 11.14C213.918 10.9167 213.738 10.7617 213.545 10.675C213.352 10.585 213.135 10.54 212.895 10.54C212.425 10.54 212.063 10.7083 211.81 11.045C211.557 11.3817 211.43 11.8617 211.43 12.485C211.43 12.815 211.458 13.0983 211.515 13.335C211.572 13.5683 211.655 13.7617 211.765 13.915C211.875 14.065 212.01 14.175 212.17 14.245C212.33 14.315 212.512 14.35 212.715 14.35C213.008 14.35 213.263 14.2833 213.48 14.15C213.7 14.0167 213.902 13.8283 214.085 13.585V11.14ZM214.975 7.635V15H214.445C214.318 15 214.238 14.9383 214.205 14.815L214.125 14.2C213.908 14.46 213.662 14.67 213.385 14.83C213.108 14.99 212.788 15.07 212.425 15.07C212.135 15.07 211.872 15.015 211.635 14.905C211.398 14.7917 211.197 14.6267 211.03 14.41C210.863 14.1933 210.735 13.9233 210.645 13.6C210.555 13.2767 210.51 12.905 210.51 12.485C210.51 12.1117 210.56 11.765 210.66 11.445C210.76 11.1217 210.903 10.8417 211.09 10.605C211.277 10.3683 211.505 10.1833 211.775 10.05C212.048 9.91333 212.355 9.845 212.695 9.845C213.005 9.845 213.27 9.89833 213.49 10.005C213.713 10.1083 213.912 10.2533 214.085 10.44V7.635H214.975ZM221.074 9.855C221.444 9.855 221.778 9.91667 222.074 10.04C222.371 10.1633 222.624 10.3383 222.834 10.565C223.044 10.7917 223.204 11.0667 223.314 11.39C223.428 11.71 223.484 12.0683 223.484 12.465C223.484 12.865 223.428 13.225 223.314 13.545C223.204 13.865 223.044 14.1383 222.834 14.365C222.624 14.5917 222.371 14.7667 222.074 14.89C221.778 15.01 221.444 15.07 221.074 15.07C220.701 15.07 220.364 15.01 220.064 14.89C219.768 14.7667 219.514 14.5917 219.304 14.365C219.094 14.1383 218.933 13.865 218.819 13.545C218.709 13.225 218.654 12.865 218.654 12.465C218.654 12.0683 218.709 11.71 218.819 11.39C218.933 11.0667 219.094 10.7917 219.304 10.565C219.514 10.3383 219.768 10.1633 220.064 10.04C220.364 9.91667 220.701 9.855 221.074 9.855ZM221.074 14.375C221.574 14.375 221.948 14.2083 222.194 13.875C222.441 13.5383 222.564 13.07 222.564 12.47C222.564 11.8667 222.441 11.3967 222.194 11.06C221.948 10.7233 221.574 10.555 221.074 10.555C220.821 10.555 220.599 10.5983 220.409 10.685C220.223 10.7717 220.066 10.8967 219.939 11.06C219.816 11.2233 219.723 11.425 219.659 11.665C219.599 11.9017 219.569 12.17 219.569 12.47C219.569 13.07 219.693 13.5383 219.939 13.875C220.189 14.2083 220.568 14.375 221.074 14.375ZM224.836 15V10.695L224.276 10.63C224.206 10.6133 224.147 10.5883 224.101 10.555C224.057 10.5183 224.036 10.4667 224.036 10.4V10.035H224.836V9.545C224.836 9.255 224.876 8.99833 224.956 8.775C225.039 8.54833 225.156 8.35833 225.306 8.205C225.459 8.04833 225.642 7.93 225.856 7.85C226.069 7.77 226.309 7.73 226.576 7.73C226.802 7.73 227.011 7.76333 227.201 7.83L227.181 8.275C227.174 8.355 227.129 8.39833 227.046 8.405C226.966 8.41167 226.857 8.415 226.721 8.415C226.567 8.415 226.427 8.435 226.301 8.475C226.177 8.515 226.071 8.58 225.981 8.67C225.891 8.76 225.821 8.87833 225.771 9.025C225.724 9.17167 225.701 9.35333 225.701 9.57V10.035H227.161V10.68H225.731V15H224.836ZM231.305 7.635V15H230.415V7.635H231.305ZM233.688 9.935V15H232.798V9.935H233.688ZM233.878 8.345C233.878 8.43167 233.86 8.51333 233.823 8.59C233.79 8.66333 233.743 8.73 233.683 8.79C233.626 8.84667 233.558 8.89167 233.478 8.925C233.401 8.95833 233.32 8.975 233.233 8.975C233.146 8.975 233.065 8.95833 232.988 8.925C232.915 8.89167 232.85 8.84667 232.793 8.79C232.736 8.73 232.691 8.66333 232.658 8.59C232.625 8.51333 232.608 8.43167 232.608 8.345C232.608 8.25833 232.625 8.17667 232.658 8.1C232.691 8.02 232.736 7.95167 232.793 7.895C232.85 7.835 232.915 7.78833 232.988 7.755C233.065 7.72167 233.146 7.705 233.233 7.705C233.32 7.705 233.401 7.72167 233.478 7.755C233.558 7.78833 233.626 7.835 233.683 7.895C233.743 7.95167 233.79 8.02 233.823 8.1C233.86 8.17667 233.878 8.25833 233.878 8.345ZM238.1 10.77C238.06 10.8433 237.999 10.88 237.915 10.88C237.865 10.88 237.809 10.8617 237.745 10.825C237.682 10.7883 237.604 10.7483 237.51 10.705C237.42 10.6583 237.312 10.6167 237.185 10.58C237.059 10.54 236.909 10.52 236.735 10.52C236.585 10.52 236.45 10.54 236.33 10.58C236.21 10.6167 236.107 10.6683 236.02 10.735C235.937 10.8017 235.872 10.88 235.825 10.97C235.782 11.0567 235.76 11.1517 235.76 11.255C235.76 11.385 235.797 11.4933 235.87 11.58C235.947 11.6667 236.047 11.7417 236.17 11.805C236.294 11.8683 236.434 11.925 236.59 11.975C236.747 12.0217 236.907 12.0733 237.07 12.13C237.237 12.1833 237.399 12.2433 237.555 12.31C237.712 12.3767 237.852 12.46 237.975 12.56C238.099 12.66 238.197 12.7833 238.27 12.93C238.347 13.0733 238.385 13.2467 238.385 13.45C238.385 13.6833 238.344 13.9 238.26 14.1C238.177 14.2967 238.054 14.4683 237.89 14.615C237.727 14.7583 237.527 14.8717 237.29 14.955C237.054 15.0383 236.78 15.08 236.47 15.08C236.117 15.08 235.797 15.0233 235.51 14.91C235.224 14.7933 234.98 14.645 234.78 14.465L234.99 14.125C235.017 14.0817 235.049 14.0483 235.085 14.025C235.122 14.0017 235.169 13.99 235.225 13.99C235.285 13.99 235.349 14.0133 235.415 14.06C235.482 14.1067 235.562 14.1583 235.655 14.215C235.752 14.2717 235.869 14.3233 236.005 14.37C236.142 14.4167 236.312 14.44 236.515 14.44C236.689 14.44 236.84 14.4183 236.97 14.375C237.1 14.3283 237.209 14.2667 237.295 14.19C237.382 14.1133 237.445 14.025 237.485 13.925C237.529 13.825 237.55 13.7183 237.55 13.605C237.55 13.465 237.512 13.35 237.435 13.26C237.362 13.1667 237.264 13.0883 237.14 13.025C237.017 12.9583 236.875 12.9017 236.715 12.855C236.559 12.805 236.397 12.7533 236.23 12.7C236.067 12.6467 235.905 12.5867 235.745 12.52C235.589 12.45 235.449 12.3633 235.325 12.26C235.202 12.1567 235.102 12.03 235.025 11.88C234.952 11.7267 234.915 11.5417 234.915 11.325C234.915 11.1317 234.955 10.9467 235.035 10.77C235.115 10.59 235.232 10.4333 235.385 10.3C235.539 10.1633 235.727 10.055 235.95 9.975C236.174 9.895 236.429 9.855 236.715 9.855C237.049 9.855 237.347 9.90833 237.61 10.015C237.877 10.1183 238.107 10.2617 238.3 10.445L238.1 10.77ZM241.031 15.08C240.631 15.08 240.323 14.9683 240.106 14.745C239.893 14.5217 239.786 14.2 239.786 13.78V10.68H239.176C239.123 10.68 239.078 10.665 239.041 10.635C239.005 10.6017 238.986 10.5517 238.986 10.485V10.13L239.816 10.025L240.021 8.46C240.031 8.41 240.053 8.37 240.086 8.34C240.123 8.30667 240.17 8.29 240.226 8.29H240.676V10.035H242.141V10.68H240.676V13.72C240.676 13.9333 240.728 14.0917 240.831 14.195C240.935 14.2983 241.068 14.35 241.231 14.35C241.325 14.35 241.405 14.3383 241.471 14.315C241.541 14.2883 241.601 14.26 241.651 14.23C241.701 14.2 241.743 14.1733 241.776 14.15C241.813 14.1233 241.845 14.11 241.871 14.11C241.918 14.11 241.96 14.1383 241.996 14.195L242.256 14.62C242.103 14.7633 241.918 14.8767 241.701 14.96C241.485 15.04 241.261 15.08 241.031 15.08ZM243.8 11.855C243.8 11.1417 243.709 10.4483 243.525 9.775C243.345 9.10167 243.08 8.46167 242.73 7.855C242.704 7.805 242.687 7.76167 242.68 7.725C242.674 7.685 242.675 7.65167 242.685 7.625C242.695 7.595 242.71 7.57 242.73 7.55C242.754 7.52667 242.779 7.50667 242.805 7.49L243.2 7.245C243.45 7.63167 243.662 8.01333 243.835 8.39C244.012 8.76667 244.154 9.145 244.26 9.525C244.37 9.90167 244.45 10.2833 244.5 10.67C244.55 11.0567 244.575 11.4517 244.575 11.855C244.575 12.2617 244.55 12.6583 244.5 13.045C244.45 13.4283 244.37 13.81 244.26 14.19C244.154 14.57 244.012 14.9483 243.835 15.325C243.662 15.7017 243.45 16.0817 243.2 16.465L242.805 16.225C242.779 16.2083 242.754 16.1883 242.73 16.165C242.71 16.145 242.695 16.12 242.685 16.09C242.675 16.0633 242.674 16.03 242.68 15.99C242.687 15.95 242.704 15.905 242.73 15.855C243.08 15.2483 243.345 14.6083 243.525 13.935C243.709 13.2617 243.8 12.5683 243.8 11.855Z" fill="#0B3AB5"/>
<g id="to-remove-from-back-of-list">
<g id="node-d">
<circle id="Ellipse 2_4" cx="243.5" cy="44.5" r="18" stroke="black"/>
<path id="d" d="M244.207 44.14C244.04 43.9167 243.86 43.7617 243.667 43.675C243.474 43.585 243.257 43.54 243.017 43.54C242.547 43.54 242.185 43.7083 241.932 44.045C241.679 44.3817 241.552 44.8617 241.552 45.485C241.552 45.815 241.58 46.0983 241.637 46.335C241.694 46.5683 241.777 46.7617 241.887 46.915C241.997 47.065 242.132 47.175 242.292 47.245C242.452 47.315 242.634 47.35 242.837 47.35C243.13 47.35 243.385 47.2833 243.602 47.15C243.822 47.0167 244.024 46.8283 244.207 46.585V44.14ZM245.097 40.635V48H244.567C244.44 48 244.36 47.9383 244.327 47.815L244.247 47.2C244.03 47.46 243.784 47.67 243.507 47.83C243.23 47.99 242.91 48.07 242.547 48.07C242.257 48.07 241.994 48.015 241.757 47.905C241.52 47.7917 241.319 47.6267 241.152 47.41C240.985 47.1933 240.857 46.9233 240.767 46.6C240.677 46.2767 240.632 45.905 240.632 45.485C240.632 45.1117 240.682 44.765 240.782 44.445C240.882 44.1217 241.025 43.8417 241.212 43.605C241.399 43.3683 241.627 43.1833 241.897 43.05C242.17 42.9133 242.477 42.845 242.817 42.845C243.127 42.845 243.392 42.8983 243.612 43.005C243.835 43.1083 244.034 43.2533 244.207 43.44V40.635H245.097Z" fill="black"/>
</g>
<path id="Arrow 9" d="M286.354 45.3536C286.549 45.1583 286.549 44.8417 286.354 44.6464L283.172 41.4645C282.976 41.2692 282.66 41.2692 282.464 41.4645C282.269 41.6597 282.269 41.9763 282.464 42.1716L285.293 45L282.464 47.8284C282.269 48.0237 282.269 48.3403 282.464 48.5355C282.66 48.7308 282.976 48.7308 283.172 48.5355L286.354 45.3536ZM262 45.5H286V44.5H262V45.5Z" fill="black"/>
<path id="new-null-remove-from-back" d="M291.606 44.67C291.716 44.5467 291.832 44.435 291.956 44.335C292.079 44.235 292.209 44.15 292.346 44.08C292.486 44.0067 292.632 43.9517 292.786 43.915C292.942 43.875 293.111 43.855 293.291 43.855C293.567 43.855 293.811 43.9017 294.021 43.995C294.234 44.085 294.411 44.215 294.551 44.385C294.694 44.5517 294.802 44.7533 294.876 44.99C294.949 45.2267 294.986 45.4883 294.986 45.775V49H294.091V45.775C294.091 45.3917 294.002 45.095 293.826 44.885C293.652 44.6717 293.387 44.565 293.031 44.565C292.767 44.565 292.521 44.6283 292.291 44.755C292.064 44.8817 291.854 45.0533 291.661 45.27V49H290.766V43.935H291.301C291.427 43.935 291.506 43.9967 291.536 44.12L291.606 44.67ZM300.507 43.935V49H299.977C299.85 49 299.77 48.9383 299.737 48.815L299.667 48.27C299.447 48.5133 299.2 48.71 298.927 48.86C298.653 49.0067 298.34 49.08 297.987 49.08C297.71 49.08 297.465 49.035 297.252 48.945C297.042 48.8517 296.865 48.7217 296.722 48.555C296.578 48.3883 296.47 48.1867 296.397 47.95C296.327 47.7133 296.292 47.4517 296.292 47.165V43.935H297.182V47.165C297.182 47.5483 297.268 47.845 297.442 48.055C297.618 48.265 297.887 48.37 298.247 48.37C298.51 48.37 298.755 48.3083 298.982 48.185C299.212 48.0583 299.423 47.885 299.617 47.665V43.935H300.507ZM302.838 41.635V49H301.948V41.635H302.838ZM305.201 41.635V49H304.311V41.635H305.201Z" fill="black"/>
<path id="Arrow 5_3" class="arrow-stagger-2" d="M201.646 41.3536C201.451 41.1583 201.451 40.8417 201.646 40.6464L204.828 37.4645C205.024 37.2692 205.34 37.2692 205.536 37.4645C205.731 37.6597 205.731 37.9763 205.536 38.1716L202.707 41L205.536 43.8284C205.731 44.0237 205.731 44.3403 205.536 44.5355C205.34 44.7308 205.024 44.7308 204.828 44.5355L201.646 41.3536ZM225 41.5H202V40.5H225V41.5Z" fill="black"/>
</g>
<g id="pointer">
<path id="next pointer_3" d="M202.867 80.67C202.977 80.5467 203.094 80.435 203.217 80.335C203.341 80.235 203.471 80.15 203.607 80.08C203.747 80.0067 203.894 79.9517 204.047 79.915C204.204 79.875 204.372 79.855 204.552 79.855C204.829 79.855 205.072 79.9017 205.282 79.995C205.496 80.085 205.672 80.215 205.812 80.385C205.956 80.5517 206.064 80.7533 206.137 80.99C206.211 81.2267 206.247 81.4883 206.247 81.775V85H205.352V81.775C205.352 81.3917 205.264 81.095 205.087 80.885C204.914 80.6717 204.649 80.565 204.292 80.565C204.029 80.565 203.782 80.6283 203.552 80.755C203.326 80.8817 203.116 81.0533 202.922 81.27V85H202.027V79.935H202.562C202.689 79.935 202.767 79.9967 202.797 80.12L202.867 80.67ZM210.993 81.915C210.993 81.7083 210.963 81.52 210.903 81.35C210.847 81.1767 210.762 81.0283 210.648 80.905C210.538 80.7783 210.403 80.6817 210.243 80.615C210.083 80.545 209.902 80.51 209.698 80.51C209.272 80.51 208.933 80.635 208.683 80.885C208.437 81.1317 208.283 81.475 208.223 81.915H210.993ZM211.713 84.29C211.603 84.4233 211.472 84.54 211.318 84.64C211.165 84.7367 211 84.8167 210.823 84.88C210.65 84.9433 210.47 84.99 210.283 85.02C210.097 85.0533 209.912 85.07 209.728 85.07C209.378 85.07 209.055 85.0117 208.758 84.895C208.465 84.775 208.21 84.6017 207.993 84.375C207.78 84.145 207.613 83.8617 207.493 83.525C207.373 83.1883 207.313 82.8017 207.313 82.365C207.313 82.0117 207.367 81.6817 207.473 81.375C207.583 81.0683 207.74 80.8033 207.943 80.58C208.147 80.3533 208.395 80.1767 208.688 80.05C208.982 79.92 209.312 79.855 209.678 79.855C209.982 79.855 210.262 79.9067 210.518 80.01C210.778 80.11 211.002 80.2567 211.188 80.45C211.378 80.64 211.527 80.8767 211.633 81.16C211.74 81.44 211.793 81.76 211.793 82.12C211.793 82.26 211.778 82.3533 211.748 82.4C211.718 82.4467 211.662 82.47 211.578 82.47H208.193C208.203 82.79 208.247 83.0683 208.323 83.305C208.403 83.5417 208.513 83.74 208.653 83.9C208.793 84.0567 208.96 84.175 209.153 84.255C209.347 84.3317 209.563 84.37 209.803 84.37C210.027 84.37 210.218 84.345 210.378 84.295C210.542 84.2417 210.682 84.185 210.798 84.125C210.915 84.065 211.012 84.01 211.088 83.96C211.168 83.9067 211.237 83.88 211.293 83.88C211.367 83.88 211.423 83.9083 211.463 83.965L211.713 84.29ZM216.978 85H216.123C216.05 85 215.992 84.9817 215.948 84.945C215.908 84.905 215.875 84.8617 215.848 84.815L214.573 82.83C214.56 82.8767 214.545 82.9233 214.528 82.97C214.515 83.0133 214.495 83.0533 214.468 83.09L213.288 84.815C213.255 84.8617 213.218 84.905 213.178 84.945C213.142 84.9817 213.09 85 213.023 85H212.228L214.003 82.4L212.298 79.935H213.153C213.227 79.935 213.28 79.9467 213.313 79.97C213.347 79.9933 213.377 80.0267 213.403 80.07L214.648 81.97C214.675 81.8733 214.717 81.78 214.773 81.69L215.863 80.09C215.893 80.0433 215.925 80.0067 215.958 79.98C215.995 79.95 216.038 79.935 216.088 79.935H216.908L215.203 82.355L216.978 85ZM219.354 85.08C218.954 85.08 218.645 84.9683 218.429 84.745C218.215 84.5217 218.109 84.2 218.109 83.78V80.68H217.499C217.445 80.68 217.4 80.665 217.364 80.635C217.327 80.6017 217.309 80.5517 217.309 80.485V80.13L218.139 80.025L218.344 78.46C218.354 78.41 218.375 78.37 218.409 78.34C218.445 78.3067 218.492 78.29 218.549 78.29H218.999V80.035H220.464V80.68H218.999V83.72C218.999 83.9333 219.05 84.0917 219.154 84.195C219.257 84.2983 219.39 84.35 219.554 84.35C219.647 84.35 219.727 84.3383 219.794 84.315C219.864 84.2883 219.924 84.26 219.974 84.23C220.024 84.2 220.065 84.1733 220.099 84.15C220.135 84.1233 220.167 84.11 220.194 84.11C220.24 84.11 220.282 84.1383 220.319 84.195L220.579 84.62C220.425 84.7633 220.24 84.8767 220.024 84.96C219.807 85.04 219.584 85.08 219.354 85.08ZM196.765 95.78C196.928 96 197.107 96.155 197.3 96.245C197.493 96.335 197.71 96.38 197.95 96.38C198.423 96.38 198.787 96.2117 199.04 95.875C199.293 95.5383 199.42 95.0583 199.42 94.435C199.42 94.105 199.39 93.8217 199.33 93.585C199.273 93.3483 199.19 93.155 199.08 93.005C198.97 92.8517 198.835 92.74 198.675 92.67C198.515 92.6 198.333 92.565 198.13 92.565C197.84 92.565 197.585 92.6317 197.365 92.765C197.148 92.8983 196.948 93.0867 196.765 93.33V95.78ZM196.72 92.72C196.933 92.4567 197.18 92.245 197.46 92.085C197.74 91.925 198.06 91.845 198.42 91.845C198.713 91.845 198.978 91.9017 199.215 92.015C199.452 92.125 199.653 92.29 199.82 92.51C199.987 92.7267 200.115 92.9967 200.205 93.32C200.295 93.6433 200.34 94.015 200.34 94.435C200.34 94.8083 200.29 95.1567 200.19 95.48C200.09 95.8 199.945 96.0783 199.755 96.315C199.568 96.5483 199.338 96.7333 199.065 96.87C198.795 97.0033 198.49 97.07 198.15 97.07C197.84 97.07 197.573 97.0183 197.35 96.915C197.13 96.8083 196.935 96.6617 196.765 96.475V98.715H195.87V91.935H196.405C196.532 91.935 196.61 91.9967 196.64 92.12L196.72 92.72ZM203.611 91.855C203.981 91.855 204.314 91.9167 204.611 92.04C204.907 92.1633 205.161 92.3383 205.371 92.565C205.581 92.7917 205.741 93.0667 205.851 93.39C205.964 93.71 206.021 94.0683 206.021 94.465C206.021 94.865 205.964 95.225 205.851 95.545C205.741 95.865 205.581 96.1383 205.371 96.365C205.161 96.5917 204.907 96.7667 204.611 96.89C204.314 97.01 203.981 97.07 203.611 97.07C203.237 97.07 202.901 97.01 202.601 96.89C202.304 96.7667 202.051 96.5917 201.841 96.365C201.631 96.1383 201.469 95.865 201.356 95.545C201.246 95.225 201.191 94.865 201.191 94.465C201.191 94.0683 201.246 93.71 201.356 93.39C201.469 93.0667 201.631 92.7917 201.841 92.565C202.051 92.3383 202.304 92.1633 202.601 92.04C202.901 91.9167 203.237 91.855 203.611 91.855ZM203.611 96.375C204.111 96.375 204.484 96.2083 204.731 95.875C204.977 95.5383 205.101 95.07 205.101 94.47C205.101 93.8667 204.977 93.3967 204.731 93.06C204.484 92.7233 204.111 92.555 203.611 92.555C203.357 92.555 203.136 92.5983 202.946 92.685C202.759 92.7717 202.602 92.8967 202.476 93.06C202.352 93.2233 202.259 93.425 202.196 93.665C202.136 93.9017 202.106 94.17 202.106 94.47C202.106 95.07 202.229 95.5383 202.476 95.875C202.726 96.2083 203.104 96.375 203.611 96.375ZM208.089 91.935V97H207.199V91.935H208.089ZM208.279 90.345C208.279 90.4317 208.261 90.5133 208.224 90.59C208.191 90.6633 208.144 90.73 208.084 90.79C208.028 90.8467 207.959 90.8917 207.879 90.925C207.803 90.9583 207.721 90.975 207.634 90.975C207.548 90.975 207.466 90.9583 207.389 90.925C207.316 90.8917 207.251 90.8467 207.194 90.79C207.138 90.73 207.093 90.6633 207.059 90.59C207.026 90.5133 207.009 90.4317 207.009 90.345C207.009 90.2583 207.026 90.1767 207.059 90.1C207.093 90.02 207.138 89.9517 207.194 89.895C207.251 89.835 207.316 89.7883 207.389 89.755C207.466 89.7217 207.548 89.705 207.634 89.705C207.721 89.705 207.803 89.7217 207.879 89.755C207.959 89.7883 208.028 89.835 208.084 89.895C208.144 89.9517 208.191 90.02 208.224 90.1C208.261 90.1767 208.279 90.2583 208.279 90.345ZM210.392 92.67C210.502 92.5467 210.618 92.435 210.742 92.335C210.865 92.235 210.995 92.15 211.132 92.08C211.272 92.0067 211.418 91.9517 211.572 91.915C211.728 91.875 211.897 91.855 212.077 91.855C212.353 91.855 212.597 91.9017 212.807 91.995C213.02 92.085 213.197 92.215 213.337 92.385C213.48 92.5517 213.588 92.7533 213.662 92.99C213.735 93.2267 213.772 93.4883 213.772 93.775V97H212.877V93.775C212.877 93.3917 212.788 93.095 212.612 92.885C212.438 92.6717 212.173 92.565 211.817 92.565C211.553 92.565 211.307 92.6283 211.077 92.755C210.85 92.8817 210.64 93.0533 210.447 93.27V97H209.552V91.935H210.087C210.213 91.935 210.292 91.9967 210.322 92.12L210.392 92.67ZM216.614 97.08C216.214 97.08 215.906 96.9683 215.689 96.745C215.476 96.5217 215.369 96.2 215.369 95.78V92.68H214.759C214.706 92.68 214.661 92.665 214.624 92.635C214.588 92.6017 214.569 92.5517 214.569 92.485V92.13L215.399 92.025L215.604 90.46C215.614 90.41 215.636 90.37 215.669 90.34C215.706 90.3067 215.753 90.29 215.809 90.29H216.259V92.035H217.724V92.68H216.259V95.72C216.259 95.9333 216.311 96.0917 216.414 96.195C216.518 96.2983 216.651 96.35 216.814 96.35C216.908 96.35 216.988 96.3383 217.054 96.315C217.124 96.2883 217.184 96.26 217.234 96.23C217.284 96.2 217.326 96.1733 217.359 96.15C217.396 96.1233 217.428 96.11 217.454 96.11C217.501 96.11 217.543 96.1383 217.579 96.195L217.839 96.62C217.686 96.7633 217.501 96.8767 217.284 96.96C217.068 97.04 216.844 97.08 216.614 97.08ZM222.004 93.915C222.004 93.7083 221.974 93.52 221.914 93.35C221.858 93.1767 221.773 93.0283 221.659 92.905C221.549 92.7783 221.414 92.6817 221.254 92.615C221.094 92.545 220.913 92.51 220.709 92.51C220.283 92.51 219.944 92.635 219.694 92.885C219.448 93.1317 219.294 93.475 219.234 93.915H222.004ZM222.724 96.29C222.614 96.4233 222.483 96.54 222.329 96.64C222.176 96.7367 222.011 96.8167 221.834 96.88C221.661 96.9433 221.481 96.99 221.294 97.02C221.108 97.0533 220.923 97.07 220.739 97.07C220.389 97.07 220.066 97.0117 219.769 96.895C219.476 96.775 219.221 96.6017 219.004 96.375C218.791 96.145 218.624 95.8617 218.504 95.525C218.384 95.1883 218.324 94.8017 218.324 94.365C218.324 94.0117 218.378 93.6817 218.484 93.375C218.594 93.0683 218.751 92.8033 218.954 92.58C219.158 92.3533 219.406 92.1767 219.699 92.05C219.993 91.92 220.323 91.855 220.689 91.855C220.993 91.855 221.273 91.9067 221.529 92.01C221.789 92.11 222.013 92.2567 222.199 92.45C222.389 92.64 222.538 92.8767 222.644 93.16C222.751 93.44 222.804 93.76 222.804 94.12C222.804 94.26 222.789 94.3533 222.759 94.4C222.729 94.4467 222.673 94.47 222.589 94.47H219.204C219.214 94.79 219.258 95.0683 219.334 95.305C219.414 95.5417 219.524 95.74 219.664 95.9C219.804 96.0567 219.971 96.175 220.164 96.255C220.358 96.3317 220.574 96.37 220.814 96.37C221.038 96.37 221.229 96.345 221.389 96.295C221.553 96.2417 221.693 96.185 221.809 96.125C221.926 96.065 222.023 96.01 222.099 95.96C222.179 95.9067 222.248 95.88 222.304 95.88C222.378 95.88 222.434 95.9083 222.474 95.965L222.724 96.29ZM224.742 92.95C224.902 92.6033 225.099 92.3333 225.332 92.14C225.566 91.9433 225.851 91.845 226.187 91.845C226.294 91.845 226.396 91.8567 226.492 91.88C226.592 91.9033 226.681 91.94 226.757 91.99L226.692 92.655C226.672 92.7383 226.622 92.78 226.542 92.78C226.496 92.78 226.427 92.77 226.337 92.75C226.247 92.73 226.146 92.72 226.032 92.72C225.872 92.72 225.729 92.7433 225.602 92.79C225.479 92.8367 225.367 92.9067 225.267 93C225.171 93.09 225.082 93.2033 225.002 93.34C224.926 93.4733 224.856 93.6267 224.792 93.8V97H223.897V91.935H224.407C224.504 91.935 224.571 91.9533 224.607 91.99C224.644 92.0267 224.669 92.09 224.682 92.18L224.742 92.95Z" fill="#D90D0D"/>
<path id="Arrow 7_2" d="M213.354 51.6464C213.158 51.4512 212.842 51.4512 212.646 51.6464L209.464 54.8284C209.269 55.0237 209.269 55.3403 209.464 55.5355C209.66 55.7308 209.976 55.7308 210.172 55.5355L213 52.7071L215.828 55.5355C216.024 55.7308 216.34 55.7308 216.536 55.5355C216.731 55.3403 216.731 55.0237 216.536 54.8284L213.354 51.6464ZM213.5 75L213.5 52L212.5 52L212.5 75L213.5 75Z" fill="#D90D0D"/>
</g>
<path id="previous pointer" d="M135.423 8.78C135.587 9 135.765 9.155 135.958 9.245C136.152 9.335 136.368 9.38 136.608 9.38C137.082 9.38 137.445 9.21167 137.698 8.875C137.952 8.53833 138.078 8.05833 138.078 7.435C138.078 7.105 138.048 6.82167 137.988 6.585C137.932 6.34833 137.848 6.155 137.738 6.005C137.628 5.85167 137.493 5.74 137.333 5.67C137.173 5.6 136.992 5.565 136.788 5.565C136.498 5.565 136.243 5.63167 136.023 5.765C135.807 5.89833 135.607 6.08667 135.423 6.33V8.78ZM135.378 5.72C135.592 5.45667 135.838 5.245 136.118 5.085C136.398 4.925 136.718 4.845 137.078 4.845C137.372 4.845 137.637 4.90167 137.873 5.015C138.11 5.125 138.312 5.29 138.478 5.51C138.645 5.72667 138.773 5.99667 138.863 6.32C138.953 6.64333 138.998 7.015 138.998 7.435C138.998 7.80833 138.948 8.15667 138.848 8.48C138.748 8.8 138.603 9.07833 138.413 9.315C138.227 9.54833 137.997 9.73333 137.723 9.87C137.453 10.0033 137.148 10.07 136.808 10.07C136.498 10.07 136.232 10.0183 136.008 9.915C135.788 9.80833 135.593 9.66167 135.423 9.475V11.715H134.528V4.935H135.063C135.19 4.935 135.268 4.99667 135.298 5.12L135.378 5.72ZM140.979 5.95C141.139 5.60333 141.335 5.33333 141.569 5.14C141.802 4.94333 142.087 4.845 142.424 4.845C142.53 4.845 142.632 4.85667 142.729 4.88C142.829 4.90333 142.917 4.94 142.994 4.99L142.929 5.655C142.909 5.73833 142.859 5.78 142.779 5.78C142.732 5.78 142.664 5.77 142.574 5.75C142.484 5.73 142.382 5.72 142.269 5.72C142.109 5.72 141.965 5.74333 141.839 5.79C141.715 5.83667 141.604 5.90667 141.504 6C141.407 6.09 141.319 6.20333 141.239 6.34C141.162 6.47333 141.092 6.62667 141.029 6.8V10H140.134V4.935H140.644C140.74 4.935 140.807 4.95333 140.844 4.99C140.88 5.02667 140.905 5.09 140.919 5.18L140.979 5.95ZM146.961 6.915C146.961 6.70833 146.931 6.52 146.871 6.35C146.815 6.17667 146.73 6.02833 146.616 5.905C146.506 5.77833 146.371 5.68167 146.211 5.615C146.051 5.545 145.87 5.51 145.666 5.51C145.24 5.51 144.901 5.635 144.651 5.885C144.405 6.13167 144.251 6.475 144.191 6.915H146.961ZM147.681 9.29C147.571 9.42333 147.44 9.54 147.286 9.64C147.133 9.73667 146.968 9.81667 146.791 9.88C146.618 9.94333 146.438 9.99 146.251 10.02C146.065 10.0533 145.88 10.07 145.696 10.07C145.346 10.07 145.023 10.0117 144.726 9.895C144.433 9.775 144.178 9.60167 143.961 9.375C143.748 9.145 143.581 8.86167 143.461 8.525C143.341 8.18833 143.281 7.80167 143.281 7.365C143.281 7.01167 143.335 6.68167 143.441 6.375C143.551 6.06833 143.708 5.80333 143.911 5.58C144.115 5.35333 144.363 5.17667 144.656 5.05C144.95 4.92 145.28 4.855 145.646 4.855C145.95 4.855 146.23 4.90667 146.486 5.01C146.746 5.11 146.97 5.25667 147.156 5.45C147.346 5.64 147.495 5.87667 147.601 6.16C147.708 6.44 147.761 6.76 147.761 7.12C147.761 7.26 147.746 7.35333 147.716 7.4C147.686 7.44667 147.63 7.47 147.546 7.47H144.161C144.171 7.79 144.215 8.06833 144.291 8.305C144.371 8.54167 144.481 8.74 144.621 8.9C144.761 9.05667 144.928 9.175 145.121 9.255C145.315 9.33167 145.531 9.37 145.771 9.37C145.995 9.37 146.186 9.345 146.346 9.295C146.51 9.24167 146.65 9.185 146.766 9.125C146.883 9.065 146.98 9.01 147.056 8.96C147.136 8.90667 147.205 8.88 147.261 8.88C147.335 8.88 147.391 8.90833 147.431 8.965L147.681 9.29ZM153.087 4.935L151.022 10H150.222L148.157 4.935H148.882C148.955 4.935 149.015 4.95333 149.062 4.99C149.109 5.02667 149.14 5.07 149.157 5.12L150.442 8.38C150.482 8.50333 150.517 8.62333 150.547 8.74C150.577 8.85667 150.605 8.97333 150.632 9.09C150.659 8.97333 150.687 8.85667 150.717 8.74C150.747 8.62333 150.784 8.50333 150.827 8.38L152.127 5.12C152.147 5.06667 152.18 5.02333 152.227 4.99C152.274 4.95333 152.329 4.935 152.392 4.935H153.087ZM154.843 4.935V10H153.953V4.935H154.843ZM155.033 3.345C155.033 3.43167 155.015 3.51333 154.978 3.59C154.945 3.66333 154.898 3.73 154.838 3.79C154.782 3.84667 154.713 3.89167 154.633 3.925C154.557 3.95833 154.475 3.975 154.388 3.975C154.302 3.975 154.22 3.95833 154.143 3.925C154.07 3.89167 154.005 3.84667 153.948 3.79C153.892 3.73 153.847 3.66333 153.813 3.59C153.78 3.51333 153.763 3.43167 153.763 3.345C153.763 3.25833 153.78 3.17667 153.813 3.1C153.847 3.02 153.892 2.95167 153.948 2.895C154.005 2.835 154.07 2.78833 154.143 2.755C154.22 2.72167 154.302 2.705 154.388 2.705C154.475 2.705 154.557 2.72167 154.633 2.755C154.713 2.78833 154.782 2.835 154.838 2.895C154.898 2.95167 154.945 3.02 154.978 3.1C155.015 3.17667 155.033 3.25833 155.033 3.345ZM158.441 4.855C158.811 4.855 159.144 4.91667 159.441 5.04C159.737 5.16333 159.991 5.33833 160.201 5.565C160.411 5.79167 160.571 6.06667 160.681 6.39C160.794 6.71 160.851 7.06833 160.851 7.465C160.851 7.865 160.794 8.225 160.681 8.545C160.571 8.865 160.411 9.13833 160.201 9.365C159.991 9.59167 159.737 9.76667 159.441 9.89C159.144 10.01 158.811 10.07 158.441 10.07C158.067 10.07 157.731 10.01 157.431 9.89C157.134 9.76667 156.881 9.59167 156.671 9.365C156.461 9.13833 156.299 8.865 156.186 8.545C156.076 8.225 156.021 7.865 156.021 7.465C156.021 7.06833 156.076 6.71 156.186 6.39C156.299 6.06667 156.461 5.79167 156.671 5.565C156.881 5.33833 157.134 5.16333 157.431 5.04C157.731 4.91667 158.067 4.855 158.441 4.855ZM158.441 9.375C158.941 9.375 159.314 9.20833 159.561 8.875C159.807 8.53833 159.931 8.07 159.931 7.47C159.931 6.86667 159.807 6.39667 159.561 6.06C159.314 5.72333 158.941 5.555 158.441 5.555C158.187 5.555 157.966 5.59833 157.776 5.685C157.589 5.77167 157.432 5.89667 157.306 6.06C157.182 6.22333 157.089 6.425 157.026 6.665C156.966 6.90167 156.936 7.17 156.936 7.47C156.936 8.07 157.059 8.53833 157.306 8.875C157.556 9.20833 157.934 9.375 158.441 9.375ZM166.144 4.935V10H165.614C165.488 10 165.408 9.93833 165.374 9.815L165.304 9.27C165.084 9.51333 164.838 9.71 164.564 9.86C164.291 10.0067 163.978 10.08 163.624 10.08C163.348 10.08 163.103 10.035 162.889 9.945C162.679 9.85167 162.503 9.72167 162.359 9.555C162.216 9.38833 162.108 9.18667 162.034 8.95C161.964 8.71333 161.929 8.45167 161.929 8.165V4.935H162.819V8.165C162.819 8.54833 162.906 8.845 163.079 9.055C163.256 9.265 163.524 9.37 163.884 9.37C164.148 9.37 164.393 9.30833 164.619 9.185C164.849 9.05833 165.061 8.885 165.254 8.665V4.935H166.144ZM170.506 5.77C170.466 5.84333 170.404 5.88 170.321 5.88C170.271 5.88 170.214 5.86167 170.151 5.825C170.087 5.78833 170.009 5.74833 169.916 5.705C169.826 5.65833 169.717 5.61667 169.591 5.58C169.464 5.54 169.314 5.52 169.141 5.52C168.991 5.52 168.856 5.54 168.736 5.58C168.616 5.61667 168.512 5.66833 168.426 5.735C168.342 5.80167 168.277 5.88 168.231 5.97C168.187 6.05667 168.166 6.15167 168.166 6.255C168.166 6.385 168.202 6.49333 168.276 6.58C168.352 6.66667 168.452 6.74167 168.576 6.805C168.699 6.86833 168.839 6.925 168.996 6.975C169.152 7.02167 169.312 7.07333 169.476 7.13C169.642 7.18333 169.804 7.24333 169.961 7.31C170.117 7.37667 170.257 7.46 170.381 7.56C170.504 7.66 170.602 7.78333 170.676 7.93C170.752 8.07333 170.791 8.24667 170.791 8.45C170.791 8.68333 170.749 8.9 170.666 9.1C170.582 9.29667 170.459 9.46833 170.296 9.615C170.132 9.75833 169.932 9.87167 169.696 9.955C169.459 10.0383 169.186 10.08 168.876 10.08C168.522 10.08 168.202 10.0233 167.916 9.91C167.629 9.79333 167.386 9.645 167.186 9.465L167.396 9.125C167.422 9.08167 167.454 9.04833 167.491 9.025C167.527 9.00167 167.574 8.99 167.631 8.99C167.691 8.99 167.754 9.01333 167.821 9.06C167.887 9.10667 167.967 9.15833 168.061 9.215C168.157 9.27167 168.274 9.32333 168.411 9.37C168.547 9.41667 168.717 9.44 168.921 9.44C169.094 9.44 169.246 9.41833 169.376 9.375C169.506 9.32833 169.614 9.26667 169.701 9.19C169.787 9.11333 169.851 9.025 169.891 8.925C169.934 8.825 169.956 8.71833 169.956 8.605C169.956 8.465 169.917 8.35 169.841 8.26C169.767 8.16667 169.669 8.08833 169.546 8.025C169.422 7.95833 169.281 7.90167 169.121 7.855C168.964 7.805 168.802 7.75333 168.636 7.7C168.472 7.64667 168.311 7.58667 168.151 7.52C167.994 7.45 167.854 7.36333 167.731 7.26C167.607 7.15667 167.507 7.03 167.431 6.88C167.357 6.72667 167.321 6.54167 167.321 6.325C167.321 6.13167 167.361 5.94667 167.441 5.77C167.521 5.59 167.637 5.43333 167.791 5.3C167.944 5.16333 168.132 5.055 168.356 4.975C168.579 4.895 168.834 4.855 169.121 4.855C169.454 4.855 169.752 4.90833 170.016 5.015C170.282 5.11833 170.512 5.26167 170.706 5.445L170.506 5.77ZM138.265 20.78C138.428 21 138.607 21.155 138.8 21.245C138.993 21.335 139.21 21.38 139.45 21.38C139.923 21.38 140.287 21.2117 140.54 20.875C140.793 20.5383 140.92 20.0583 140.92 19.435C140.92 19.105 140.89 18.8217 140.83 18.585C140.773 18.3483 140.69 18.155 140.58 18.005C140.47 17.8517 140.335 17.74 140.175 17.67C140.015 17.6 139.833 17.565 139.63 17.565C139.34 17.565 139.085 17.6317 138.865 17.765C138.648 17.8983 138.448 18.0867 138.265 18.33V20.78ZM138.22 17.72C138.433 17.4567 138.68 17.245 138.96 17.085C139.24 16.925 139.56 16.845 139.92 16.845C140.213 16.845 140.478 16.9017 140.715 17.015C140.952 17.125 141.153 17.29 141.32 17.51C141.487 17.7267 141.615 17.9967 141.705 18.32C141.795 18.6433 141.84 19.015 141.84 19.435C141.84 19.8083 141.79 20.1567 141.69 20.48C141.59 20.8 141.445 21.0783 141.255 21.315C141.068 21.5483 140.838 21.7333 140.565 21.87C140.295 22.0033 139.99 22.07 139.65 22.07C139.34 22.07 139.073 22.0183 138.85 21.915C138.63 21.8083 138.435 21.6617 138.265 21.475V23.715H137.37V16.935H137.905C138.032 16.935 138.11 16.9967 138.14 17.12L138.22 17.72ZM145.111 16.855C145.481 16.855 145.814 16.9167 146.111 17.04C146.407 17.1633 146.661 17.3383 146.871 17.565C147.081 17.7917 147.241 18.0667 147.351 18.39C147.464 18.71 147.521 19.0683 147.521 19.465C147.521 19.865 147.464 20.225 147.351 20.545C147.241 20.865 147.081 21.1383 146.871 21.365C146.661 21.5917 146.407 21.7667 146.111 21.89C145.814 22.01 145.481 22.07 145.111 22.07C144.737 22.07 144.401 22.01 144.101 21.89C143.804 21.7667 143.551 21.5917 143.341 21.365C143.131 21.1383 142.969 20.865 142.856 20.545C142.746 20.225 142.691 19.865 142.691 19.465C142.691 19.0683 142.746 18.71 142.856 18.39C142.969 18.0667 143.131 17.7917 143.341 17.565C143.551 17.3383 143.804 17.1633 144.101 17.04C144.401 16.9167 144.737 16.855 145.111 16.855ZM145.111 21.375C145.611 21.375 145.984 21.2083 146.231 20.875C146.477 20.5383 146.601 20.07 146.601 19.47C146.601 18.8667 146.477 18.3967 146.231 18.06C145.984 17.7233 145.611 17.555 145.111 17.555C144.857 17.555 144.636 17.5983 144.446 17.685C144.259 17.7717 144.102 17.8967 143.976 18.06C143.852 18.2233 143.759 18.425 143.696 18.665C143.636 18.9017 143.606 19.17 143.606 19.47C143.606 20.07 143.729 20.5383 143.976 20.875C144.226 21.2083 144.604 21.375 145.111 21.375ZM149.589 16.935V22H148.699V16.935H149.589ZM149.779 15.345C149.779 15.4317 149.761 15.5133 149.724 15.59C149.691 15.6633 149.644 15.73 149.584 15.79C149.528 15.8467 149.459 15.8917 149.379 15.925C149.303 15.9583 149.221 15.975 149.134 15.975C149.048 15.975 148.966 15.9583 148.889 15.925C148.816 15.8917 148.751 15.8467 148.694 15.79C148.638 15.73 148.593 15.6633 148.559 15.59C148.526 15.5133 148.509 15.4317 148.509 15.345C148.509 15.2583 148.526 15.1767 148.559 15.1C148.593 15.02 148.638 14.9517 148.694 14.895C148.751 14.835 148.816 14.7883 148.889 14.755C148.966 14.7217 149.048 14.705 149.134 14.705C149.221 14.705 149.303 14.7217 149.379 14.755C149.459 14.7883 149.528 14.835 149.584 14.895C149.644 14.9517 149.691 15.02 149.724 15.1C149.761 15.1767 149.779 15.2583 149.779 15.345ZM151.892 17.67C152.002 17.5467 152.118 17.435 152.242 17.335C152.365 17.235 152.495 17.15 152.632 17.08C152.772 17.0067 152.918 16.9517 153.072 16.915C153.228 16.875 153.397 16.855 153.577 16.855C153.853 16.855 154.097 16.9017 154.307 16.995C154.52 17.085 154.697 17.215 154.837 17.385C154.98 17.5517 155.088 17.7533 155.162 17.99C155.235 18.2267 155.272 18.4883 155.272 18.775V22H154.377V18.775C154.377 18.3917 154.288 18.095 154.112 17.885C153.938 17.6717 153.673 17.565 153.317 17.565C153.053 17.565 152.807 17.6283 152.577 17.755C152.35 17.8817 152.14 18.0533 151.947 18.27V22H151.052V16.935H151.587C151.713 16.935 151.792 16.9967 151.822 17.12L151.892 17.67ZM158.114 22.08C157.714 22.08 157.406 21.9683 157.189 21.745C156.976 21.5217 156.869 21.2 156.869 20.78V17.68H156.259C156.206 17.68 156.161 17.665 156.124 17.635C156.088 17.6017 156.069 17.5517 156.069 17.485V17.13L156.899 17.025L157.104 15.46C157.114 15.41 157.136 15.37 157.169 15.34C157.206 15.3067 157.253 15.29 157.309 15.29H157.759V17.035H159.224V17.68H157.759V20.72C157.759 20.9333 157.811 21.0917 157.914 21.195C158.018 21.2983 158.151 21.35 158.314 21.35C158.408 21.35 158.488 21.3383 158.554 21.315C158.624 21.2883 158.684 21.26 158.734 21.23C158.784 21.2 158.826 21.1733 158.859 21.15C158.896 21.1233 158.928 21.11 158.954 21.11C159.001 21.11 159.043 21.1383 159.079 21.195L159.339 21.62C159.186 21.7633 159.001 21.8767 158.784 21.96C158.568 22.04 158.344 22.08 158.114 22.08ZM163.504 18.915C163.504 18.7083 163.474 18.52 163.414 18.35C163.358 18.1767 163.273 18.0283 163.159 17.905C163.049 17.7783 162.914 17.6817 162.754 17.615C162.594 17.545 162.413 17.51 162.209 17.51C161.783 17.51 161.444 17.635 161.194 17.885C160.948 18.1317 160.794 18.475 160.734 18.915H163.504ZM164.224 21.29C164.114 21.4233 163.983 21.54 163.829 21.64C163.676 21.7367 163.511 21.8167 163.334 21.88C163.161 21.9433 162.981 21.99 162.794 22.02C162.608 22.0533 162.423 22.07 162.239 22.07C161.889 22.07 161.566 22.0117 161.269 21.895C160.976 21.775 160.721 21.6017 160.504 21.375C160.291 21.145 160.124 20.8617 160.004 20.525C159.884 20.1883 159.824 19.8017 159.824 19.365C159.824 19.0117 159.878 18.6817 159.984 18.375C160.094 18.0683 160.251 17.8033 160.454 17.58C160.658 17.3533 160.906 17.1767 161.199 17.05C161.493 16.92 161.823 16.855 162.189 16.855C162.493 16.855 162.773 16.9067 163.029 17.01C163.289 17.11 163.513 17.2567 163.699 17.45C163.889 17.64 164.038 17.8767 164.144 18.16C164.251 18.44 164.304 18.76 164.304 19.12C164.304 19.26 164.289 19.3533 164.259 19.4C164.229 19.4467 164.173 19.47 164.089 19.47H160.704C160.714 19.79 160.758 20.0683 160.834 20.305C160.914 20.5417 161.024 20.74 161.164 20.9C161.304 21.0567 161.471 21.175 161.664 21.255C161.858 21.3317 162.074 21.37 162.314 21.37C162.538 21.37 162.729 21.345 162.889 21.295C163.053 21.2417 163.193 21.185 163.309 21.125C163.426 21.065 163.523 21.01 163.599 20.96C163.679 20.9067 163.748 20.88 163.804 20.88C163.878 20.88 163.934 20.9083 163.974 20.965L164.224 21.29ZM166.242 17.95C166.402 17.6033 166.599 17.3333 166.832 17.14C167.066 16.9433 167.351 16.845 167.687 16.845C167.794 16.845 167.896 16.8567 167.992 16.88C168.092 16.9033 168.181 16.94 168.257 16.99L168.192 17.655C168.172 17.7383 168.122 17.78 168.042 17.78C167.996 17.78 167.927 17.77 167.837 17.75C167.747 17.73 167.646 17.72 167.532 17.72C167.372 17.72 167.229 17.7433 167.102 17.79C166.979 17.8367 166.867 17.9067 166.767 18C166.671 18.09 166.582 18.2033 166.502 18.34C166.426 18.4733 166.356 18.6267 166.292 18.8V22H165.397V16.935H165.907C166.004 16.935 166.071 16.9533 166.107 16.99C166.144 17.0267 166.169 17.09 166.182 17.18L166.242 17.95Z" fill="#D90D0D"/>
<path id="Arrow 9_2" d="M152.646 38.3536C152.842 38.5488 153.158 38.5488 153.354 38.3536L156.536 35.1716C156.731 34.9763 156.731 34.6597 156.536 34.4645C156.34 34.2692 156.024 34.2692 155.828 34.4645L153 37.2929L150.172 34.4645C149.976 34.2692 149.66 34.2692 149.464 34.4645C149.269 34.6597 149.269 34.9763 149.464 35.1716L152.646 38.3536ZM152.5 26L152.5 38L153.5 38L153.5 26L152.5 26Z" fill="#D90D0D"/>
<path id="Arrow 8_2" d="M80.6464 41.3536C80.4512 41.1583 80.4512 40.8417 80.6464 40.6464L83.8284 37.4645C84.0237 37.2692 84.3403 37.2692 84.5355 37.4645C84.7308 37.6597 84.7308 37.9763 84.5355 38.1716L81.7071 41L84.5355 43.8284C84.7308 44.0237 84.7308 44.3403 84.5355 44.5355C84.3403 44.7308 84.0237 44.7308 83.8284 44.5355L80.6464 41.3536ZM104 41.5H81V40.5H104V41.5Z" fill="black"/>
<path id="Arrow 7_3" d="M141.646 41.3536C141.451 41.1583 141.451 40.8417 141.646 40.6464L144.828 37.4645C145.024 37.2692 145.34 37.2692 145.536 37.4645C145.731 37.6597 145.731 37.9763 145.536 38.1716L142.707 41L145.536 43.8284C145.731 44.0237 145.731 44.3403 145.536 44.5355C145.34 44.7308 145.024 44.7308 144.828 44.5355L141.646 41.3536ZM165 41.5H142V40.5H165V41.5Z" fill="black"/>
</g>
</svg>
