<svg viewBox="0 0 268 95" fill="none" xmlns="http://www.w3.org/2000/svg">
<g id="stack-pop">
<g id="node-a">
<circle id="Ellipse 2" cx="78.5" cy="41.5" r="18" stroke="black"/>
<path id="a" d="M78.9646 42.72C78.5546 42.7333 78.2046 42.7667 77.9146 42.82C77.628 42.87 77.393 42.9367 77.2096 43.02C77.0296 43.1033 76.898 43.2017 76.8146 43.315C76.7346 43.4283 76.6946 43.555 76.6946 43.695C76.6946 43.8283 76.7163 43.9433 76.7596 44.04C76.803 44.1367 76.8613 44.2167 76.9346 44.28C77.0113 44.34 77.0996 44.385 77.1996 44.415C77.303 44.4417 77.413 44.455 77.5296 44.455C77.6863 44.455 77.8296 44.44 77.9596 44.41C78.0896 44.3767 78.2113 44.33 78.3246 44.27C78.4413 44.21 78.5513 44.1383 78.6546 44.055C78.7613 43.9717 78.8646 43.8767 78.9646 43.77V42.72ZM76.0896 40.65C76.3696 40.38 76.6713 40.1783 76.9946 40.045C77.318 39.9117 77.6763 39.845 78.0696 39.845C78.353 39.845 78.6046 39.8917 78.8246 39.985C79.0446 40.0783 79.2296 40.2083 79.3796 40.375C79.5296 40.5417 79.643 40.7433 79.7196 40.98C79.7963 41.2167 79.8346 41.4767 79.8346 41.76V45H79.4396C79.353 45 79.2863 44.9867 79.2396 44.96C79.193 44.93 79.1563 44.8733 79.1296 44.79L79.0296 44.31C78.8963 44.4333 78.7663 44.5433 78.6396 44.64C78.513 44.7333 78.3796 44.8133 78.2396 44.88C78.0996 44.9433 77.9496 44.9917 77.7896 45.025C77.633 45.0617 77.458 45.08 77.2646 45.08C77.068 45.08 76.883 45.0533 76.7096 45C76.5363 44.9433 76.3846 44.86 76.2546 44.75C76.128 44.64 76.0263 44.5017 75.9496 44.335C75.8763 44.165 75.8396 43.965 75.8396 43.735C75.8396 43.535 75.8946 43.3433 76.0046 43.16C76.1146 42.9733 76.293 42.8083 76.5396 42.665C76.7863 42.5217 77.108 42.405 77.5046 42.315C77.9013 42.2217 78.388 42.1683 78.9646 42.155V41.76C78.9646 41.3667 78.8796 41.07 78.7096 40.87C78.5396 40.6667 78.2913 40.565 77.9646 40.565C77.7446 40.565 77.5596 40.5933 77.4096 40.65C77.263 40.7033 77.1346 40.765 77.0246 40.835C76.918 40.9017 76.8246 40.9633 76.7446 41.02C76.668 41.0733 76.5913 41.1 76.5146 41.1C76.4546 41.1 76.403 41.085 76.3596 41.055C76.3163 41.0217 76.2796 40.9817 76.2496 40.935L76.0896 40.65Z" fill="black"/>
</g>
<g id="node-c">
<circle id="Ellipse 2_2" cx="199.5" cy="41.5" r="18" stroke="black"/>
<path id="c" d="M200.842 40.835C200.816 40.8717 200.789 40.9 200.762 40.92C200.736 40.94 200.699 40.95 200.652 40.95C200.602 40.95 200.547 40.93 200.487 40.89C200.427 40.8467 200.352 40.8 200.262 40.75C200.176 40.7 200.067 40.655 199.937 40.615C199.811 40.5717 199.654 40.55 199.467 40.55C199.217 40.55 198.997 40.595 198.807 40.685C198.617 40.7717 198.457 40.8983 198.327 41.065C198.201 41.2317 198.104 41.4333 198.037 41.67C197.974 41.9067 197.942 42.1717 197.942 42.465C197.942 42.7717 197.977 43.045 198.047 43.285C198.117 43.5217 198.216 43.7217 198.342 43.885C198.472 44.045 198.627 44.1683 198.807 44.255C198.991 44.3383 199.196 44.38 199.422 44.38C199.639 44.38 199.817 44.355 199.957 44.305C200.097 44.2517 200.212 44.1933 200.302 44.13C200.396 44.0667 200.472 44.01 200.532 43.96C200.596 43.9067 200.657 43.88 200.717 43.88C200.791 43.88 200.847 43.9083 200.887 43.965L201.137 44.29C201.027 44.4267 200.902 44.5433 200.762 44.64C200.622 44.7367 200.471 44.8183 200.307 44.885C200.147 44.9483 199.979 44.995 199.802 45.025C199.626 45.055 199.446 45.07 199.262 45.07C198.946 45.07 198.651 45.0117 198.377 44.895C198.107 44.7783 197.872 44.61 197.672 44.39C197.472 44.1667 197.316 43.8933 197.202 43.57C197.089 43.2467 197.032 42.8783 197.032 42.465C197.032 42.0883 197.084 41.74 197.187 41.42C197.294 41.1 197.447 40.825 197.647 40.595C197.851 40.3617 198.099 40.18 198.392 40.05C198.689 39.92 199.029 39.855 199.412 39.855C199.769 39.855 200.082 39.9133 200.352 40.03C200.626 40.1433 200.867 40.305 201.077 40.515L200.842 40.835Z" fill="black"/>
</g>
<g id="node-b">
<circle id="Ellipse 2_3" cx="139.5" cy="41.5" r="18" stroke="black"/>
<path id="b" d="M137.802 43.78C137.965 44 138.144 44.155 138.337 44.245C138.534 44.335 138.749 44.38 138.982 44.38C139.459 44.38 139.824 44.2117 140.077 43.875C140.33 43.5383 140.457 43.0367 140.457 42.37C140.457 41.75 140.344 41.295 140.117 41.005C139.894 40.7117 139.574 40.565 139.157 40.565C138.867 40.565 138.614 40.6317 138.397 40.765C138.184 40.8983 137.985 41.0867 137.802 41.33V43.78ZM137.802 40.665C138.015 40.4183 138.255 40.2217 138.522 40.075C138.792 39.9283 139.102 39.855 139.452 39.855C139.749 39.855 140.015 39.9117 140.252 40.025C140.492 40.1383 140.695 40.3033 140.862 40.52C141.029 40.7333 141.155 40.9933 141.242 41.3C141.332 41.6067 141.377 41.9517 141.377 42.335C141.377 42.745 141.327 43.1183 141.227 43.455C141.127 43.7917 140.982 44.08 140.792 44.32C140.605 44.5567 140.377 44.7417 140.107 44.875C139.837 45.005 139.534 45.07 139.197 45.07C138.864 45.07 138.582 45.0083 138.352 44.885C138.125 44.7583 137.927 44.58 137.757 44.35L137.712 44.81C137.685 44.9367 137.609 45 137.482 45H136.907V37.635H137.802V40.665Z" fill="black"/>
</g>
<path id="Arrow 4" d="M121.354 42.3536C121.549 42.1583 121.549 41.8417 121.354 41.6464L118.172 38.4645C117.976 38.2692 117.66 38.2692 117.464 38.4645C117.269 38.6597 117.269 38.9763 117.464 39.1716L120.293 42L117.464 44.8284C117.269 45.0237 117.269 45.3403 117.464 45.5355C117.66 45.7308 117.976 45.7308 118.172 45.5355L121.354 42.3536ZM97 42.5H121V41.5H97V42.5Z" fill="black"/>
<path id="Arrow 5" d="M181.354 42.3536C181.549 42.1583 181.549 41.8417 181.354 41.6464L178.172 38.4645C177.976 38.2692 177.66 38.2692 177.464 38.4645C177.269 38.6597 177.269 38.9763 177.464 39.1716L180.293 42L177.464 44.8284C177.269 45.0237 177.269 45.3403 177.464 45.5355C177.66 45.7308 177.976 45.7308 178.172 45.5355L181.354 42.3536ZM158 42.5H181V41.5H158V42.5Z" fill="black"/>
<path id="Arrow 5_2" d="M241.354 42.3536C241.549 42.1583 241.549 41.8417 241.354 41.6464L238.172 38.4645C237.976 38.2692 237.66 38.2692 237.464 38.4645C237.269 38.6597 237.269 38.9763 237.464 39.1716L240.293 42L237.464 44.8284C237.269 45.0237 237.269 45.3403 237.464 45.5355C237.66 45.7308 237.976 45.7308 238.172 45.5355L241.354 42.3536ZM218 42.5H241V41.5H218V42.5Z" fill="black"/>
<path id="stack-pop-head-pointer" style="transform-origin: top right; transform-box: fill-box; transition-duration: 500ms" d="M31.5 29C31.5 29.2761 31.7239 29.5 32 29.5H36.5C36.7761 29.5 37 29.2761 37 29C37 28.7239 36.7761 28.5 36.5 28.5H32.5V24.5C32.5 24.2239 32.2761 24 32 24C31.7239 24 31.5 24.2239 31.5 24.5V29ZM47.6464 12.6464L31.6464 28.6464L32.3536 29.3536L48.3536 13.3536L47.6464 12.6464Z" fill="#0B3AB5"/>
<path id="head (start of queue)" d="M2.93887 5.61C3.15553 5.38 3.39553 5.19667 3.65887 5.06C3.9222 4.92333 4.22553 4.855 4.56887 4.855C4.84553 4.855 5.08887 4.90167 5.29887 4.995C5.5122 5.085 5.68887 5.215 5.82887 5.385C5.9722 5.55167 6.08053 5.75333 6.15387 5.99C6.2272 6.22667 6.26387 6.48833 6.26387 6.775V10H5.36887V6.775C5.36887 6.39167 5.28053 6.095 5.10387 5.885C4.93053 5.67167 4.66553 5.565 4.30887 5.565C4.04553 5.565 3.79887 5.62833 3.56887 5.755C3.3422 5.88167 3.1322 6.05333 2.93887 6.27V10H2.04387V2.635H2.93887V5.61ZM11.01 6.915C11.01 6.70833 10.98 6.52 10.92 6.35C10.8634 6.17667 10.7784 6.02833 10.665 5.905C10.555 5.77833 10.42 5.68167 10.26 5.615C10.1 5.545 9.91837 5.51 9.71504 5.51C9.28837 5.51 8.95004 5.635 8.70004 5.885C8.45337 6.13167 8.30004 6.475 8.24004 6.915H11.01ZM11.73 9.29C11.62 9.42333 11.4884 9.54 11.335 9.64C11.1817 9.73667 11.0167 9.81667 10.84 9.88C10.6667 9.94333 10.4867 9.99 10.3 10.02C10.1134 10.0533 9.92837 10.07 9.74504 10.07C9.39504 10.07 9.07171 10.0117 8.77504 9.895C8.48171 9.775 8.22671 9.60167 8.01004 9.375C7.79671 9.145 7.63004 8.86167 7.51004 8.525C7.39004 8.18833 7.33004 7.80167 7.33004 7.365C7.33004 7.01167 7.38337 6.68167 7.49004 6.375C7.60004 6.06833 7.75671 5.80333 7.96004 5.58C8.16337 5.35333 8.41171 5.17667 8.70504 5.05C8.99837 4.92 9.32837 4.855 9.69504 4.855C9.99837 4.855 10.2784 4.90667 10.535 5.01C10.795 5.11 11.0184 5.25667 11.205 5.45C11.395 5.64 11.5434 5.87667 11.65 6.16C11.7567 6.44 11.81 6.76 11.81 7.12C11.81 7.26 11.795 7.35333 11.765 7.4C11.735 7.44667 11.6784 7.47 11.595 7.47H8.21004C8.22004 7.79 8.26337 8.06833 8.34004 8.305C8.42004 8.54167 8.53004 8.74 8.67004 8.9C8.81004 9.05667 8.97671 9.175 9.17004 9.255C9.36337 9.33167 9.58004 9.37 9.82004 9.37C10.0434 9.37 10.235 9.345 10.395 9.295C10.5584 9.24167 10.6984 9.185 10.815 9.125C10.9317 9.065 11.0284 9.01 11.105 8.96C11.185 8.90667 11.2534 8.88 11.31 8.88C11.3834 8.88 11.44 8.90833 11.48 8.965L11.73 9.29ZM15.6482 7.72C15.2382 7.73333 14.8882 7.76667 14.5982 7.82C14.3116 7.87 14.0766 7.93667 13.8932 8.02C13.7132 8.10333 13.5816 8.20167 13.4982 8.315C13.4182 8.42833 13.3782 8.555 13.3782 8.695C13.3782 8.82833 13.3999 8.94333 13.4432 9.04C13.4866 9.13667 13.5449 9.21667 13.6182 9.28C13.6949 9.34 13.7832 9.385 13.8832 9.415C13.9866 9.44167 14.0966 9.455 14.2132 9.455C14.3699 9.455 14.5132 9.44 14.6432 9.41C14.7732 9.37667 14.8949 9.33 15.0082 9.27C15.1249 9.21 15.2349 9.13833 15.3382 9.055C15.4449 8.97167 15.5482 8.87667 15.6482 8.77V7.72ZM12.7732 5.65C13.0532 5.38 13.3549 5.17833 13.6782 5.045C14.0016 4.91167 14.3599 4.845 14.7532 4.845C15.0366 4.845 15.2882 4.89167 15.5082 4.985C15.7282 5.07833 15.9132 5.20833 16.0632 5.375C16.2132 5.54167 16.3266 5.74333 16.4032 5.98C16.4799 6.21667 16.5182 6.47667 16.5182 6.76V10H16.1232C16.0366 10 15.9699 9.98667 15.9232 9.96C15.8766 9.93 15.8399 9.87333 15.8132 9.79L15.7132 9.31C15.5799 9.43333 15.4499 9.54333 15.3232 9.64C15.1966 9.73333 15.0632 9.81333 14.9232 9.88C14.7832 9.94333 14.6332 9.99167 14.4732 10.025C14.3166 10.0617 14.1416 10.08 13.9482 10.08C13.7516 10.08 13.5666 10.0533 13.3932 10C13.2199 9.94333 13.0682 9.86 12.9382 9.75C12.8116 9.64 12.7099 9.50167 12.6332 9.335C12.5599 9.165 12.5232 8.965 12.5232 8.735C12.5232 8.535 12.5782 8.34333 12.6882 8.16C12.7982 7.97333 12.9766 7.80833 13.2232 7.665C13.4699 7.52167 13.7916 7.405 14.1882 7.315C14.5849 7.22167 15.0716 7.16833 15.6482 7.155V6.76C15.6482 6.36667 15.5632 6.07 15.3932 5.87C15.2232 5.66667 14.9749 5.565 14.6482 5.565C14.4282 5.565 14.2432 5.59333 14.0932 5.65C13.9466 5.70333 13.8182 5.765 13.7082 5.835C13.6016 5.90167 13.5082 5.96333 13.4282 6.02C13.3516 6.07333 13.2749 6.1 13.1982 6.1C13.1382 6.1 13.0866 6.085 13.0432 6.055C12.9999 6.02167 12.9632 5.98167 12.9332 5.935L12.7732 5.65ZM21.1739 6.14C21.0073 5.91667 20.8273 5.76167 20.6339 5.675C20.4406 5.585 20.2239 5.54 19.9839 5.54C19.5139 5.54 19.1523 5.70833 18.8989 6.045C18.6456 6.38167 18.5189 6.86167 18.5189 7.485C18.5189 7.815 18.5473 8.09833 18.6039 8.335C18.6606 8.56833 18.7439 8.76167 18.8539 8.915C18.9639 9.065 19.0989 9.175 19.2589 9.245C19.4189 9.315 19.6006 9.35 19.8039 9.35C20.0973 9.35 20.3523 9.28333 20.5689 9.15C20.7889 9.01667 20.9906 8.82833 21.1739 8.585V6.14ZM22.0639 2.635V10H21.5339C21.4073 10 21.3273 9.93833 21.2939 9.815L21.2139 9.2C20.9973 9.46 20.7506 9.67 20.4739 9.83C20.1973 9.99 19.8773 10.07 19.5139 10.07C19.2239 10.07 18.9606 10.015 18.7239 9.905C18.4873 9.79167 18.2856 9.62667 18.1189 9.41C17.9523 9.19333 17.8239 8.92333 17.7339 8.6C17.6439 8.27667 17.5989 7.905 17.5989 7.485C17.5989 7.11167 17.6489 6.765 17.7489 6.445C17.8489 6.12167 17.9923 5.84167 18.1789 5.605C18.3656 5.36833 18.5939 5.18333 18.8639 5.05C19.1373 4.91333 19.4439 4.845 19.7839 4.845C20.0939 4.845 20.3589 4.89833 20.5789 5.005C20.8023 5.10833 21.0006 5.25333 21.1739 5.44V2.635H22.0639ZM26.5482 6.855C26.5482 7.56833 26.6382 8.26167 26.8182 8.935C27.0016 9.60833 27.2682 10.2483 27.6182 10.855C27.6716 10.9583 27.6849 11.0367 27.6582 11.09C27.6316 11.1467 27.5932 11.1917 27.5432 11.225L27.1482 11.465C26.8982 11.0817 26.6849 10.7017 26.5082 10.325C26.3349 9.94833 26.1932 9.57 26.0832 9.19C25.9766 8.81 25.8982 8.42833 25.8482 8.045C25.7982 7.65833 25.7732 7.26167 25.7732 6.855C25.7732 6.45167 25.7982 6.05667 25.8482 5.67C25.8982 5.28333 25.9766 4.90167 26.0832 4.525C26.1932 4.145 26.3349 3.76667 26.5082 3.39C26.6849 3.01333 26.8982 2.63167 27.1482 2.245L27.5432 2.49C27.5932 2.52333 27.6316 2.56833 27.6582 2.625C27.6849 2.67833 27.6716 2.755 27.6182 2.855C27.2682 3.46167 27.0016 4.10167 26.8182 4.775C26.6382 5.44833 26.5482 6.14167 26.5482 6.855ZM31.4587 5.77C31.4187 5.84333 31.357 5.88 31.2737 5.88C31.2237 5.88 31.167 5.86167 31.1037 5.825C31.0404 5.78833 30.962 5.74833 30.8687 5.705C30.7787 5.65833 30.6704 5.61667 30.5437 5.58C30.417 5.54 30.267 5.52 30.0937 5.52C29.9437 5.52 29.8087 5.54 29.6887 5.58C29.5687 5.61667 29.4654 5.66833 29.3787 5.735C29.2954 5.80167 29.2304 5.88 29.1837 5.97C29.1404 6.05667 29.1187 6.15167 29.1187 6.255C29.1187 6.385 29.1554 6.49333 29.2287 6.58C29.3054 6.66667 29.4054 6.74167 29.5287 6.805C29.652 6.86833 29.792 6.925 29.9487 6.975C30.1054 7.02167 30.2654 7.07333 30.4287 7.13C30.5954 7.18333 30.757 7.24333 30.9137 7.31C31.0704 7.37667 31.2104 7.46 31.3337 7.56C31.457 7.66 31.5554 7.78333 31.6287 7.93C31.7054 8.07333 31.7437 8.24667 31.7437 8.45C31.7437 8.68333 31.702 8.9 31.6187 9.1C31.5354 9.29667 31.412 9.46833 31.2487 9.615C31.0854 9.75833 30.8854 9.87167 30.6487 9.955C30.412 10.0383 30.1387 10.08 29.8287 10.08C29.4754 10.08 29.1554 10.0233 28.8687 9.91C28.582 9.79333 28.3387 9.645 28.1387 9.465L28.3487 9.125C28.3754 9.08167 28.407 9.04833 28.4437 9.025C28.4804 9.00167 28.527 8.99 28.5837 8.99C28.6437 8.99 28.707 9.01333 28.7737 9.06C28.8404 9.10667 28.9204 9.15833 29.0137 9.215C29.1104 9.27167 29.227 9.32333 29.3637 9.37C29.5004 9.41667 29.6704 9.44 29.8737 9.44C30.047 9.44 30.1987 9.41833 30.3287 9.375C30.4587 9.32833 30.567 9.26667 30.6537 9.19C30.7404 9.11333 30.8037 9.025 30.8437 8.925C30.887 8.825 30.9087 8.71833 30.9087 8.605C30.9087 8.465 30.8704 8.35 30.7937 8.26C30.7204 8.16667 30.622 8.08833 30.4987 8.025C30.3754 7.95833 30.2337 7.90167 30.0737 7.855C29.917 7.805 29.7554 7.75333 29.5887 7.7C29.4254 7.64667 29.2637 7.58667 29.1037 7.52C28.947 7.45 28.807 7.36333 28.6837 7.26C28.5604 7.15667 28.4604 7.03 28.3837 6.88C28.3104 6.72667 28.2737 6.54167 28.2737 6.325C28.2737 6.13167 28.3137 5.94667 28.3937 5.77C28.4737 5.59 28.5904 5.43333 28.7437 5.3C28.897 5.16333 29.0854 5.055 29.3087 4.975C29.532 4.895 29.787 4.855 30.0737 4.855C30.407 4.855 30.7054 4.90833 30.9687 5.015C31.2354 5.11833 31.4654 5.26167 31.6587 5.445L31.4587 5.77ZM34.3899 10.08C33.9899 10.08 33.6815 9.96833 33.4649 9.745C33.2515 9.52167 33.1449 9.2 33.1449 8.78V5.68H32.5349C32.4815 5.68 32.4365 5.665 32.3999 5.635C32.3632 5.60167 32.3449 5.55167 32.3449 5.485V5.13L33.1749 5.025L33.3799 3.46C33.3899 3.41 33.4115 3.37 33.4449 3.34C33.4815 3.30667 33.5282 3.29 33.5849 3.29H34.0349V5.035H35.4999V5.68H34.0349V8.72C34.0349 8.93333 34.0865 9.09167 34.1899 9.195C34.2932 9.29833 34.4265 9.35 34.5899 9.35C34.6832 9.35 34.7632 9.33833 34.8299 9.315C34.8999 9.28833 34.9599 9.26 35.0099 9.23C35.0599 9.2 35.1015 9.17333 35.1349 9.15C35.1715 9.12333 35.2032 9.11 35.2299 9.11C35.2765 9.11 35.3182 9.13833 35.3549 9.195L35.6149 9.62C35.4615 9.76333 35.2765 9.87667 35.0599 9.96C34.8432 10.04 34.6199 10.08 34.3899 10.08ZM39.1639 7.72C38.7539 7.73333 38.4039 7.76667 38.1139 7.82C37.8272 7.87 37.5922 7.93667 37.4089 8.02C37.2289 8.10333 37.0972 8.20167 37.0139 8.315C36.9339 8.42833 36.8939 8.555 36.8939 8.695C36.8939 8.82833 36.9155 8.94333 36.9589 9.04C37.0022 9.13667 37.0605 9.21667 37.1339 9.28C37.2105 9.34 37.2989 9.385 37.3989 9.415C37.5022 9.44167 37.6122 9.455 37.7289 9.455C37.8855 9.455 38.0289 9.44 38.1589 9.41C38.2889 9.37667 38.4105 9.33 38.5239 9.27C38.6405 9.21 38.7505 9.13833 38.8539 9.055C38.9605 8.97167 39.0639 8.87667 39.1639 8.77V7.72ZM36.2889 5.65C36.5689 5.38 36.8705 5.17833 37.1939 5.045C37.5172 4.91167 37.8755 4.845 38.2689 4.845C38.5522 4.845 38.8039 4.89167 39.0239 4.985C39.2439 5.07833 39.4289 5.20833 39.5789 5.375C39.7289 5.54167 39.8422 5.74333 39.9189 5.98C39.9955 6.21667 40.0339 6.47667 40.0339 6.76V10H39.6389C39.5522 10 39.4855 9.98667 39.4389 9.96C39.3922 9.93 39.3555 9.87333 39.3289 9.79L39.2289 9.31C39.0955 9.43333 38.9655 9.54333 38.8389 9.64C38.7122 9.73333 38.5789 9.81333 38.4389 9.88C38.2989 9.94333 38.1489 9.99167 37.9889 10.025C37.8322 10.0617 37.6572 10.08 37.4639 10.08C37.2672 10.08 37.0822 10.0533 36.9089 10C36.7355 9.94333 36.5839 9.86 36.4539 9.75C36.3272 9.64 36.2255 9.50167 36.1489 9.335C36.0755 9.165 36.0389 8.965 36.0389 8.735C36.0389 8.535 36.0939 8.34333 36.2039 8.16C36.3139 7.97333 36.4922 7.80833 36.7389 7.665C36.9855 7.52167 37.3072 7.405 37.7039 7.315C38.1005 7.22167 38.5872 7.16833 39.1639 7.155V6.76C39.1639 6.36667 39.0789 6.07 38.9089 5.87C38.7389 5.66667 38.4905 5.565 38.1639 5.565C37.9439 5.565 37.7589 5.59333 37.6089 5.65C37.4622 5.70333 37.3339 5.765 37.2239 5.835C37.1172 5.90167 37.0239 5.96333 36.9439 6.02C36.8672 6.07333 36.7905 6.1 36.7139 6.1C36.6539 6.1 36.6022 6.085 36.5589 6.055C36.5155 6.02167 36.4789 5.98167 36.4489 5.935L36.2889 5.65ZM42.2346 5.95C42.3946 5.60333 42.5912 5.33333 42.8246 5.14C43.0579 4.94333 43.3429 4.845 43.6796 4.845C43.7862 4.845 43.8879 4.85667 43.9846 4.88C44.0846 4.90333 44.1729 4.94 44.2496 4.99L44.1846 5.655C44.1646 5.73833 44.1146 5.78 44.0346 5.78C43.9879 5.78 43.9196 5.77 43.8296 5.75C43.7396 5.73 43.6379 5.72 43.5246 5.72C43.3646 5.72 43.2212 5.74333 43.0946 5.79C42.9712 5.83667 42.8596 5.90667 42.7596 6C42.6629 6.09 42.5746 6.20333 42.4946 6.34C42.4179 6.47333 42.3479 6.62667 42.2846 6.8V10H41.3896V4.935H41.8996C41.9962 4.935 42.0629 4.95333 42.0996 4.99C42.1362 5.02667 42.1612 5.09 42.1746 5.18L42.2346 5.95ZM46.5871 10.08C46.1871 10.08 45.8788 9.96833 45.6621 9.745C45.4488 9.52167 45.3421 9.2 45.3421 8.78V5.68H44.7321C44.6788 5.68 44.6338 5.665 44.5971 5.635C44.5605 5.60167 44.5421 5.55167 44.5421 5.485V5.13L45.3721 5.025L45.5771 3.46C45.5871 3.41 45.6088 3.37 45.6421 3.34C45.6788 3.30667 45.7255 3.29 45.7821 3.29H46.2321V5.035H47.6971V5.68H46.2321V8.72C46.2321 8.93333 46.2838 9.09167 46.3871 9.195C46.4905 9.29833 46.6238 9.35 46.7871 9.35C46.8805 9.35 46.9605 9.33833 47.0271 9.315C47.0971 9.28833 47.1571 9.26 47.2071 9.23C47.2571 9.2 47.2988 9.17333 47.3321 9.15C47.3688 9.12333 47.4005 9.11 47.4271 9.11C47.4738 9.11 47.5155 9.13833 47.5521 9.195L47.8121 9.62C47.6588 9.76333 47.4738 9.87667 47.2571 9.96C47.0405 10.04 46.8171 10.08 46.5871 10.08ZM53.3097 4.855C53.6797 4.855 54.0131 4.91667 54.3097 5.04C54.6064 5.16333 54.8597 5.33833 55.0697 5.565C55.2797 5.79167 55.4397 6.06667 55.5497 6.39C55.6631 6.71 55.7197 7.06833 55.7197 7.465C55.7197 7.865 55.6631 8.225 55.5497 8.545C55.4397 8.865 55.2797 9.13833 55.0697 9.365C54.8597 9.59167 54.6064 9.76667 54.3097 9.89C54.0131 10.01 53.6797 10.07 53.3097 10.07C52.9364 10.07 52.5997 10.01 52.2997 9.89C52.0031 9.76667 51.7497 9.59167 51.5397 9.365C51.3297 9.13833 51.1681 8.865 51.0547 8.545C50.9447 8.225 50.8897 7.865 50.8897 7.465C50.8897 7.06833 50.9447 6.71 51.0547 6.39C51.1681 6.06667 51.3297 5.79167 51.5397 5.565C51.7497 5.33833 52.0031 5.16333 52.2997 5.04C52.5997 4.91667 52.9364 4.855 53.3097 4.855ZM53.3097 9.375C53.8097 9.375 54.1831 9.20833 54.4297 8.875C54.6764 8.53833 54.7997 8.07 54.7997 7.47C54.7997 6.86667 54.6764 6.39667 54.4297 6.06C54.1831 5.72333 53.8097 5.555 53.3097 5.555C53.0564 5.555 52.8347 5.59833 52.6447 5.685C52.4581 5.77167 52.3014 5.89667 52.1747 6.06C52.0514 6.22333 51.9581 6.425 51.8947 6.665C51.8347 6.90167 51.8047 7.17 51.8047 7.47C51.8047 8.07 51.9281 8.53833 52.1747 8.875C52.4247 9.20833 52.8031 9.375 53.3097 9.375ZM57.0711 10V5.695L56.5111 5.63C56.4411 5.61333 56.3828 5.58833 56.3361 5.555C56.2928 5.51833 56.2711 5.46667 56.2711 5.4V5.035H57.0711V4.545C57.0711 4.255 57.1111 3.99833 57.1911 3.775C57.2745 3.54833 57.3911 3.35833 57.5411 3.205C57.6945 3.04833 57.8778 2.93 58.0911 2.85C58.3045 2.77 58.5445 2.73 58.8111 2.73C59.0378 2.73 59.2461 2.76333 59.4361 2.83L59.4161 3.275C59.4095 3.355 59.3645 3.39833 59.2811 3.405C59.2011 3.41167 59.0928 3.415 58.9561 3.415C58.8028 3.415 58.6628 3.435 58.5361 3.475C58.4128 3.515 58.3061 3.58 58.2161 3.67C58.1261 3.76 58.0561 3.87833 58.0061 4.025C57.9595 4.17167 57.9361 4.35333 57.9361 4.57V5.035H59.3961V5.68H57.9661V10H57.0711ZM65.92 6.135C65.76 5.92167 65.5817 5.77 65.385 5.68C65.1884 5.58667 64.97 5.54 64.73 5.54C64.26 5.54 63.8984 5.70833 63.645 6.045C63.3917 6.38167 63.265 6.86167 63.265 7.485C63.265 7.815 63.2934 8.09833 63.35 8.335C63.4067 8.56833 63.49 8.76167 63.6 8.915C63.71 9.065 63.845 9.175 64.005 9.245C64.165 9.315 64.3467 9.35 64.55 9.35C64.8434 9.35 65.0984 9.28333 65.315 9.15C65.535 9.01667 65.7367 8.82833 65.92 8.585V6.135ZM66.81 4.935V11.715H65.92V9.245C65.71 9.49167 65.4684 9.69167 65.195 9.845C64.9217 9.995 64.61 10.07 64.26 10.07C63.97 10.07 63.7067 10.015 63.47 9.905C63.2334 9.79167 63.0317 9.62667 62.865 9.41C62.6984 9.19333 62.57 8.92333 62.48 8.6C62.39 8.27667 62.345 7.905 62.345 7.485C62.345 7.11167 62.395 6.765 62.495 6.445C62.595 6.12167 62.7384 5.84167 62.925 5.605C63.1117 5.36833 63.34 5.18333 63.61 5.05C63.8834 4.91333 64.19 4.845 64.53 4.845C64.86 4.845 65.14 4.90333 65.37 5.02C65.6 5.13667 65.8034 5.3 65.98 5.51L66.04 5.12C66.0734 4.99667 66.1534 4.935 66.28 4.935H66.81ZM72.3807 4.935V10H71.8507C71.7241 10 71.6441 9.93833 71.6107 9.815L71.5407 9.27C71.3207 9.51333 71.0741 9.71 70.8007 9.86C70.5274 10.0067 70.2141 10.08 69.8607 10.08C69.5841 10.08 69.3391 10.035 69.1257 9.945C68.9157 9.85167 68.7391 9.72167 68.5957 9.555C68.4524 9.38833 68.3441 9.18667 68.2707 8.95C68.2007 8.71333 68.1657 8.45167 68.1657 8.165V4.935H69.0557V8.165C69.0557 8.54833 69.1424 8.845 69.3157 9.055C69.4924 9.265 69.7607 9.37 70.1207 9.37C70.3841 9.37 70.6291 9.30833 70.8557 9.185C71.0857 9.05833 71.2974 8.885 71.4907 8.665V4.935H72.3807ZM77.1819 6.915C77.1819 6.70833 77.1519 6.52 77.0919 6.35C77.0352 6.17667 76.9502 6.02833 76.8369 5.905C76.7269 5.77833 76.5919 5.68167 76.4319 5.615C76.2719 5.545 76.0902 5.51 75.8869 5.51C75.4602 5.51 75.1219 5.635 74.8719 5.885C74.6252 6.13167 74.4719 6.475 74.4119 6.915H77.1819ZM77.9019 9.29C77.7919 9.42333 77.6602 9.54 77.5069 9.64C77.3536 9.73667 77.1886 9.81667 77.0119 9.88C76.8386 9.94333 76.6586 9.99 76.4719 10.02C76.2852 10.0533 76.1002 10.07 75.9169 10.07C75.5669 10.07 75.2436 10.0117 74.9469 9.895C74.6536 9.775 74.3986 9.60167 74.1819 9.375C73.9686 9.145 73.8019 8.86167 73.6819 8.525C73.5619 8.18833 73.5019 7.80167 73.5019 7.365C73.5019 7.01167 73.5552 6.68167 73.6619 6.375C73.7719 6.06833 73.9286 5.80333 74.1319 5.58C74.3352 5.35333 74.5836 5.17667 74.8769 5.05C75.1702 4.92 75.5002 4.855 75.8669 4.855C76.1702 4.855 76.4502 4.90667 76.7069 5.01C76.9669 5.11 77.1902 5.25667 77.3769 5.45C77.5669 5.64 77.7152 5.87667 77.8219 6.16C77.9286 6.44 77.9819 6.76 77.9819 7.12C77.9819 7.26 77.9669 7.35333 77.9369 7.4C77.9069 7.44667 77.8502 7.47 77.7669 7.47H74.3819C74.3919 7.79 74.4352 8.06833 74.5119 8.305C74.5919 8.54167 74.7019 8.74 74.8419 8.9C74.9819 9.05667 75.1486 9.175 75.3419 9.255C75.5352 9.33167 75.7519 9.37 75.9919 9.37C76.2152 9.37 76.4069 9.345 76.5669 9.295C76.7302 9.24167 76.8702 9.185 76.9869 9.125C77.1036 9.065 77.2002 9.01 77.2769 8.96C77.3569 8.90667 77.4252 8.88 77.4819 8.88C77.5552 8.88 77.6119 8.90833 77.6519 8.965L77.9019 9.29ZM83.2401 4.935V10H82.7101C82.5835 10 82.5035 9.93833 82.4701 9.815L82.4001 9.27C82.1801 9.51333 81.9335 9.71 81.6601 9.86C81.3868 10.0067 81.0735 10.08 80.7201 10.08C80.4435 10.08 80.1985 10.035 79.9851 9.945C79.7751 9.85167 79.5985 9.72167 79.4551 9.555C79.3118 9.38833 79.2035 9.18667 79.1301 8.95C79.0601 8.71333 79.0251 8.45167 79.0251 8.165V4.935H79.9151V8.165C79.9151 8.54833 80.0018 8.845 80.1751 9.055C80.3518 9.265 80.6201 9.37 80.9801 9.37C81.2435 9.37 81.4885 9.30833 81.7151 9.185C81.9451 9.05833 82.1568 8.885 82.3501 8.665V4.935H83.2401ZM88.0413 6.915C88.0413 6.70833 88.0113 6.52 87.9513 6.35C87.8946 6.17667 87.8096 6.02833 87.6963 5.905C87.5863 5.77833 87.4513 5.68167 87.2913 5.615C87.1313 5.545 86.9496 5.51 86.7463 5.51C86.3196 5.51 85.9813 5.635 85.7313 5.885C85.4846 6.13167 85.3313 6.475 85.2713 6.915H88.0413ZM88.7613 9.29C88.6513 9.42333 88.5196 9.54 88.3663 9.64C88.213 9.73667 88.048 9.81667 87.8713 9.88C87.698 9.94333 87.518 9.99 87.3313 10.02C87.1446 10.0533 86.9596 10.07 86.7763 10.07C86.4263 10.07 86.103 10.0117 85.8063 9.895C85.513 9.775 85.258 9.60167 85.0413 9.375C84.828 9.145 84.6613 8.86167 84.5413 8.525C84.4213 8.18833 84.3613 7.80167 84.3613 7.365C84.3613 7.01167 84.4146 6.68167 84.5213 6.375C84.6313 6.06833 84.788 5.80333 84.9913 5.58C85.1946 5.35333 85.443 5.17667 85.7363 5.05C86.0296 4.92 86.3596 4.855 86.7263 4.855C87.0296 4.855 87.3096 4.90667 87.5663 5.01C87.8263 5.11 88.0496 5.25667 88.2363 5.45C88.4263 5.64 88.5746 5.87667 88.6813 6.16C88.788 6.44 88.8413 6.76 88.8413 7.12C88.8413 7.26 88.8263 7.35333 88.7963 7.4C88.7663 7.44667 88.7096 7.47 88.6263 7.47H85.2413C85.2513 7.79 85.2946 8.06833 85.3713 8.305C85.4513 8.54167 85.5613 8.74 85.7013 8.9C85.8413 9.05667 86.008 9.175 86.2013 9.255C86.3946 9.33167 86.6113 9.37 86.8513 9.37C87.0746 9.37 87.2663 9.345 87.4263 9.295C87.5896 9.24167 87.7296 9.185 87.8463 9.125C87.963 9.065 88.0596 9.01 88.1363 8.96C88.2163 8.90667 88.2846 8.88 88.3413 8.88C88.4146 8.88 88.4713 8.90833 88.5113 8.965L88.7613 9.29ZM90.4401 6.855C90.4401 6.14167 90.3485 5.44833 90.1651 4.775C89.9851 4.10167 89.7201 3.46167 89.3701 2.855C89.3435 2.805 89.3268 2.76167 89.3201 2.725C89.3135 2.685 89.3151 2.65167 89.3251 2.625C89.3351 2.595 89.3501 2.57 89.3701 2.55C89.3935 2.52667 89.4185 2.50667 89.4451 2.49L89.8401 2.245C90.0901 2.63167 90.3018 3.01333 90.4751 3.39C90.6518 3.76667 90.7935 4.145 90.9001 4.525C91.0101 4.90167 91.0901 5.28333 91.1401 5.67C91.1901 6.05667 91.2151 6.45167 91.2151 6.855C91.2151 7.26167 91.1901 7.65833 91.1401 8.045C91.0901 8.42833 91.0101 8.81 90.9001 9.19C90.7935 9.57 90.6518 9.94833 90.4751 10.325C90.3018 10.7017 90.0901 11.0817 89.8401 11.465L89.4451 11.225C89.4185 11.2083 89.3935 11.1883 89.3701 11.165C89.3501 11.145 89.3351 11.12 89.3251 11.09C89.3151 11.0633 89.3135 11.03 89.3201 10.99C89.3268 10.95 89.3435 10.905 89.3701 10.855C89.7201 10.2483 89.9851 9.60833 90.1651 8.935C90.3485 8.26167 90.4401 7.56833 90.4401 6.855Z" fill="#0B3AB5"/>
<path id="next pointer" d="M98.8673 73.67C98.9773 73.5467 99.0939 73.435 99.2173 73.335C99.3406 73.235 99.4706 73.15 99.6073 73.08C99.7473 73.0067 99.8939 72.9517 100.047 72.915C100.204 72.875 100.372 72.855 100.552 72.855C100.829 72.855 101.072 72.9017 101.282 72.995C101.496 73.085 101.672 73.215 101.812 73.385C101.956 73.5517 102.064 73.7533 102.137 73.99C102.211 74.2267 102.247 74.4883 102.247 74.775V78H101.352V74.775C101.352 74.3917 101.264 74.095 101.087 73.885C100.914 73.6717 100.649 73.565 100.292 73.565C100.029 73.565 99.7823 73.6283 99.5523 73.755C99.3256 73.8817 99.1156 74.0533 98.9223 74.27V78H98.0273V72.935H98.5623C98.6889 72.935 98.7673 72.9967 98.7973 73.12L98.8673 73.67ZM106.993 74.915C106.993 74.7083 106.963 74.52 106.903 74.35C106.847 74.1767 106.762 74.0283 106.648 73.905C106.538 73.7783 106.403 73.6817 106.243 73.615C106.083 73.545 105.902 73.51 105.698 73.51C105.272 73.51 104.933 73.635 104.683 73.885C104.437 74.1317 104.283 74.475 104.223 74.915H106.993ZM107.713 77.29C107.603 77.4233 107.472 77.54 107.318 77.64C107.165 77.7367 107 77.8167 106.823 77.88C106.65 77.9433 106.47 77.99 106.283 78.02C106.097 78.0533 105.912 78.07 105.728 78.07C105.378 78.07 105.055 78.0117 104.758 77.895C104.465 77.775 104.21 77.6017 103.993 77.375C103.78 77.145 103.613 76.8617 103.493 76.525C103.373 76.1883 103.313 75.8017 103.313 75.365C103.313 75.0117 103.367 74.6817 103.473 74.375C103.583 74.0683 103.74 73.8033 103.943 73.58C104.147 73.3533 104.395 73.1767 104.688 73.05C104.982 72.92 105.312 72.855 105.678 72.855C105.982 72.855 106.262 72.9067 106.518 73.01C106.778 73.11 107.002 73.2567 107.188 73.45C107.378 73.64 107.527 73.8767 107.633 74.16C107.74 74.44 107.793 74.76 107.793 75.12C107.793 75.26 107.778 75.3533 107.748 75.4C107.718 75.4467 107.662 75.47 107.578 75.47H104.193C104.203 75.79 104.247 76.0683 104.323 76.305C104.403 76.5417 104.513 76.74 104.653 76.9C104.793 77.0567 104.96 77.175 105.153 77.255C105.347 77.3317 105.563 77.37 105.803 77.37C106.027 77.37 106.218 77.345 106.378 77.295C106.542 77.2417 106.682 77.185 106.798 77.125C106.915 77.065 107.012 77.01 107.088 76.96C107.168 76.9067 107.237 76.88 107.293 76.88C107.367 76.88 107.423 76.9083 107.463 76.965L107.713 77.29ZM112.978 78H112.123C112.05 78 111.992 77.9817 111.948 77.945C111.908 77.905 111.875 77.8617 111.848 77.815L110.573 75.83C110.56 75.8767 110.545 75.9233 110.528 75.97C110.515 76.0133 110.495 76.0533 110.468 76.09L109.288 77.815C109.255 77.8617 109.218 77.905 109.178 77.945C109.142 77.9817 109.09 78 109.023 78H108.228L110.003 75.4L108.298 72.935H109.153C109.227 72.935 109.28 72.9467 109.313 72.97C109.347 72.9933 109.377 73.0267 109.403 73.07L110.648 74.97C110.675 74.8733 110.717 74.78 110.773 74.69L111.863 73.09C111.893 73.0433 111.925 73.0067 111.958 72.98C111.995 72.95 112.038 72.935 112.088 72.935H112.908L111.203 75.355L112.978 78ZM115.354 78.08C114.954 78.08 114.645 77.9683 114.429 77.745C114.215 77.5217 114.109 77.2 114.109 76.78V73.68H113.499C113.445 73.68 113.4 73.665 113.364 73.635C113.327 73.6017 113.309 73.5517 113.309 73.485V73.13L114.139 73.025L114.344 71.46C114.354 71.41 114.375 71.37 114.409 71.34C114.445 71.3067 114.492 71.29 114.549 71.29H114.999V73.035H116.464V73.68H114.999V76.72C114.999 76.9333 115.05 77.0917 115.154 77.195C115.257 77.2983 115.39 77.35 115.554 77.35C115.647 77.35 115.727 77.3383 115.794 77.315C115.864 77.2883 115.924 77.26 115.974 77.23C116.024 77.2 116.065 77.1733 116.099 77.15C116.135 77.1233 116.167 77.11 116.194 77.11C116.24 77.11 116.282 77.1383 116.319 77.195L116.579 77.62C116.425 77.7633 116.24 77.8767 116.024 77.96C115.807 78.04 115.584 78.08 115.354 78.08ZM92.765 88.78C92.9284 89 93.1067 89.155 93.3 89.245C93.4934 89.335 93.71 89.38 93.95 89.38C94.4234 89.38 94.7867 89.2117 95.04 88.875C95.2934 88.5383 95.42 88.0583 95.42 87.435C95.42 87.105 95.39 86.8217 95.33 86.585C95.2734 86.3483 95.19 86.155 95.08 86.005C94.97 85.8517 94.835 85.74 94.675 85.67C94.515 85.6 94.3334 85.565 94.13 85.565C93.84 85.565 93.585 85.6317 93.365 85.765C93.1484 85.8983 92.9484 86.0867 92.765 86.33V88.78ZM92.72 85.72C92.9334 85.4567 93.18 85.245 93.46 85.085C93.74 84.925 94.06 84.845 94.42 84.845C94.7134 84.845 94.9784 84.9017 95.215 85.015C95.4517 85.125 95.6534 85.29 95.82 85.51C95.9867 85.7267 96.115 85.9967 96.205 86.32C96.295 86.6433 96.34 87.015 96.34 87.435C96.34 87.8083 96.29 88.1567 96.19 88.48C96.09 88.8 95.945 89.0783 95.755 89.315C95.5684 89.5483 95.3384 89.7333 95.065 89.87C94.795 90.0033 94.49 90.07 94.15 90.07C93.84 90.07 93.5734 90.0183 93.35 89.915C93.13 89.8083 92.935 89.6617 92.765 89.475V91.715H91.87V84.935H92.405C92.5317 84.935 92.61 84.9967 92.64 85.12L92.72 85.72ZM99.6105 84.855C99.9805 84.855 100.314 84.9167 100.611 85.04C100.907 85.1633 101.161 85.3383 101.371 85.565C101.581 85.7917 101.741 86.0667 101.851 86.39C101.964 86.71 102.021 87.0683 102.021 87.465C102.021 87.865 101.964 88.225 101.851 88.545C101.741 88.865 101.581 89.1383 101.371 89.365C101.161 89.5917 100.907 89.7667 100.611 89.89C100.314 90.01 99.9805 90.07 99.6105 90.07C99.2372 90.07 98.9005 90.01 98.6005 89.89C98.3038 89.7667 98.0505 89.5917 97.8405 89.365C97.6305 89.1383 97.4688 88.865 97.3555 88.545C97.2455 88.225 97.1905 87.865 97.1905 87.465C97.1905 87.0683 97.2455 86.71 97.3555 86.39C97.4688 86.0667 97.6305 85.7917 97.8405 85.565C98.0505 85.3383 98.3038 85.1633 98.6005 85.04C98.9005 84.9167 99.2372 84.855 99.6105 84.855ZM99.6105 89.375C100.111 89.375 100.484 89.2083 100.731 88.875C100.977 88.5383 101.101 88.07 101.101 87.47C101.101 86.8667 100.977 86.3967 100.731 86.06C100.484 85.7233 100.111 85.555 99.6105 85.555C99.3572 85.555 99.1355 85.5983 98.9455 85.685C98.7588 85.7717 98.6022 85.8967 98.4755 86.06C98.3522 86.2233 98.2588 86.425 98.1955 86.665C98.1355 86.9017 98.1055 87.17 98.1055 87.47C98.1055 88.07 98.2288 88.5383 98.4755 88.875C98.7255 89.2083 99.1038 89.375 99.6105 89.375ZM104.089 84.935V90H103.199V84.935H104.089ZM104.279 83.345C104.279 83.4317 104.261 83.5133 104.224 83.59C104.191 83.6633 104.144 83.73 104.084 83.79C104.028 83.8467 103.959 83.8917 103.879 83.925C103.803 83.9583 103.721 83.975 103.634 83.975C103.548 83.975 103.466 83.9583 103.389 83.925C103.316 83.8917 103.251 83.8467 103.194 83.79C103.138 83.73 103.093 83.6633 103.059 83.59C103.026 83.5133 103.009 83.4317 103.009 83.345C103.009 83.2583 103.026 83.1767 103.059 83.1C103.093 83.02 103.138 82.9517 103.194 82.895C103.251 82.835 103.316 82.7883 103.389 82.755C103.466 82.7217 103.548 82.705 103.634 82.705C103.721 82.705 103.803 82.7217 103.879 82.755C103.959 82.7883 104.028 82.835 104.084 82.895C104.144 82.9517 104.191 83.02 104.224 83.1C104.261 83.1767 104.279 83.2583 104.279 83.345ZM106.392 85.67C106.502 85.5467 106.618 85.435 106.742 85.335C106.865 85.235 106.995 85.15 107.132 85.08C107.272 85.0067 107.418 84.9517 107.572 84.915C107.728 84.875 107.897 84.855 108.077 84.855C108.353 84.855 108.597 84.9017 108.807 84.995C109.02 85.085 109.197 85.215 109.337 85.385C109.48 85.5517 109.588 85.7533 109.662 85.99C109.735 86.2267 109.772 86.4883 109.772 86.775V90H108.877V86.775C108.877 86.3917 108.788 86.095 108.612 85.885C108.438 85.6717 108.173 85.565 107.817 85.565C107.553 85.565 107.307 85.6283 107.077 85.755C106.85 85.8817 106.64 86.0533 106.447 86.27V90H105.552V84.935H106.087C106.213 84.935 106.292 84.9967 106.322 85.12L106.392 85.67ZM112.614 90.08C112.214 90.08 111.906 89.9683 111.689 89.745C111.476 89.5217 111.369 89.2 111.369 88.78V85.68H110.759C110.706 85.68 110.661 85.665 110.624 85.635C110.588 85.6017 110.569 85.5517 110.569 85.485V85.13L111.399 85.025L111.604 83.46C111.614 83.41 111.636 83.37 111.669 83.34C111.706 83.3067 111.753 83.29 111.809 83.29H112.259V85.035H113.724V85.68H112.259V88.72C112.259 88.9333 112.311 89.0917 112.414 89.195C112.518 89.2983 112.651 89.35 112.814 89.35C112.908 89.35 112.988 89.3383 113.054 89.315C113.124 89.2883 113.184 89.26 113.234 89.23C113.284 89.2 113.326 89.1733 113.359 89.15C113.396 89.1233 113.428 89.11 113.454 89.11C113.501 89.11 113.543 89.1383 113.579 89.195L113.839 89.62C113.686 89.7633 113.501 89.8767 113.284 89.96C113.068 90.04 112.844 90.08 112.614 90.08ZM118.004 86.915C118.004 86.7083 117.974 86.52 117.914 86.35C117.858 86.1767 117.773 86.0283 117.659 85.905C117.549 85.7783 117.414 85.6817 117.254 85.615C117.094 85.545 116.913 85.51 116.709 85.51C116.283 85.51 115.944 85.635 115.694 85.885C115.448 86.1317 115.294 86.475 115.234 86.915H118.004ZM118.724 89.29C118.614 89.4233 118.483 89.54 118.329 89.64C118.176 89.7367 118.011 89.8167 117.834 89.88C117.661 89.9433 117.481 89.99 117.294 90.02C117.108 90.0533 116.923 90.07 116.739 90.07C116.389 90.07 116.066 90.0117 115.769 89.895C115.476 89.775 115.221 89.6017 115.004 89.375C114.791 89.145 114.624 88.8617 114.504 88.525C114.384 88.1883 114.324 87.8017 114.324 87.365C114.324 87.0117 114.378 86.6817 114.484 86.375C114.594 86.0683 114.751 85.8033 114.954 85.58C115.158 85.3533 115.406 85.1767 115.699 85.05C115.993 84.92 116.323 84.855 116.689 84.855C116.993 84.855 117.273 84.9067 117.529 85.01C117.789 85.11 118.013 85.2567 118.199 85.45C118.389 85.64 118.538 85.8767 118.644 86.16C118.751 86.44 118.804 86.76 118.804 87.12C118.804 87.26 118.789 87.3533 118.759 87.4C118.729 87.4467 118.673 87.47 118.589 87.47H115.204C115.214 87.79 115.258 88.0683 115.334 88.305C115.414 88.5417 115.524 88.74 115.664 88.9C115.804 89.0567 115.971 89.175 116.164 89.255C116.358 89.3317 116.574 89.37 116.814 89.37C117.038 89.37 117.229 89.345 117.389 89.295C117.553 89.2417 117.693 89.185 117.809 89.125C117.926 89.065 118.023 89.01 118.099 88.96C118.179 88.9067 118.248 88.88 118.304 88.88C118.378 88.88 118.434 88.9083 118.474 88.965L118.724 89.29ZM120.742 85.95C120.902 85.6033 121.099 85.3333 121.332 85.14C121.566 84.9433 121.851 84.845 122.187 84.845C122.294 84.845 122.396 84.8567 122.492 84.88C122.592 84.9033 122.681 84.94 122.757 84.99L122.692 85.655C122.672 85.7383 122.622 85.78 122.542 85.78C122.496 85.78 122.427 85.77 122.337 85.75C122.247 85.73 122.146 85.72 122.032 85.72C121.872 85.72 121.729 85.7433 121.602 85.79C121.479 85.8367 121.367 85.9067 121.267 86C121.171 86.09 121.082 86.2033 121.002 86.34C120.926 86.4733 120.856 86.6267 120.792 86.8V90H119.897V84.935H120.407C120.504 84.935 120.571 84.9533 120.607 84.99C120.644 85.0267 120.669 85.09 120.682 85.18L120.742 85.95Z" fill="#D90D0D"/>
<path id="Arrow 7" d="M109.354 44.6464C109.158 44.4512 108.842 44.4512 108.646 44.6464L105.464 47.8284C105.269 48.0237 105.269 48.3403 105.464 48.5355C105.66 48.7308 105.976 48.7308 106.172 48.5355L109 45.7071L111.828 48.5355C112.024 48.7308 112.34 48.7308 112.536 48.5355C112.731 48.3403 112.731 48.0237 112.536 47.8284L109.354 44.6464ZM109.5 68L109.5 45L108.5 45L108.5 68L109.5 68Z" fill="#D90D0D"/>
<path id="next pointer_2" d="M162.367 72.67C162.477 72.5467 162.594 72.435 162.717 72.335C162.841 72.235 162.971 72.15 163.107 72.08C163.247 72.0067 163.394 71.9517 163.547 71.915C163.704 71.875 163.872 71.855 164.052 71.855C164.329 71.855 164.572 71.9017 164.782 71.995C164.996 72.085 165.172 72.215 165.312 72.385C165.456 72.5517 165.564 72.7533 165.637 72.99C165.711 73.2267 165.747 73.4883 165.747 73.775V77H164.852V73.775C164.852 73.3917 164.764 73.095 164.587 72.885C164.414 72.6717 164.149 72.565 163.792 72.565C163.529 72.565 163.282 72.6283 163.052 72.755C162.826 72.8817 162.616 73.0533 162.422 73.27V77H161.527V71.935H162.062C162.189 71.935 162.267 71.9967 162.297 72.12L162.367 72.67ZM170.493 73.915C170.493 73.7083 170.463 73.52 170.403 73.35C170.347 73.1767 170.262 73.0283 170.148 72.905C170.038 72.7783 169.903 72.6817 169.743 72.615C169.583 72.545 169.402 72.51 169.198 72.51C168.772 72.51 168.433 72.635 168.183 72.885C167.937 73.1317 167.783 73.475 167.723 73.915H170.493ZM171.213 76.29C171.103 76.4233 170.972 76.54 170.818 76.64C170.665 76.7367 170.5 76.8167 170.323 76.88C170.15 76.9433 169.97 76.99 169.783 77.02C169.597 77.0533 169.412 77.07 169.228 77.07C168.878 77.07 168.555 77.0117 168.258 76.895C167.965 76.775 167.71 76.6017 167.493 76.375C167.28 76.145 167.113 75.8617 166.993 75.525C166.873 75.1883 166.813 74.8017 166.813 74.365C166.813 74.0117 166.867 73.6817 166.973 73.375C167.083 73.0683 167.24 72.8033 167.443 72.58C167.647 72.3533 167.895 72.1767 168.188 72.05C168.482 71.92 168.812 71.855 169.178 71.855C169.482 71.855 169.762 71.9067 170.018 72.01C170.278 72.11 170.502 72.2567 170.688 72.45C170.878 72.64 171.027 72.8767 171.133 73.16C171.24 73.44 171.293 73.76 171.293 74.12C171.293 74.26 171.278 74.3533 171.248 74.4C171.218 74.4467 171.162 74.47 171.078 74.47H167.693C167.703 74.79 167.747 75.0683 167.823 75.305C167.903 75.5417 168.013 75.74 168.153 75.9C168.293 76.0567 168.46 76.175 168.653 76.255C168.847 76.3317 169.063 76.37 169.303 76.37C169.527 76.37 169.718 76.345 169.878 76.295C170.042 76.2417 170.182 76.185 170.298 76.125C170.415 76.065 170.512 76.01 170.588 75.96C170.668 75.9067 170.737 75.88 170.793 75.88C170.867 75.88 170.923 75.9083 170.963 75.965L171.213 76.29ZM176.478 77H175.623C175.55 77 175.492 76.9817 175.448 76.945C175.408 76.905 175.375 76.8617 175.348 76.815L174.073 74.83C174.06 74.8767 174.045 74.9233 174.028 74.97C174.015 75.0133 173.995 75.0533 173.968 75.09L172.788 76.815C172.755 76.8617 172.718 76.905 172.678 76.945C172.642 76.9817 172.59 77 172.523 77H171.728L173.503 74.4L171.798 71.935H172.653C172.727 71.935 172.78 71.9467 172.813 71.97C172.847 71.9933 172.877 72.0267 172.903 72.07L174.148 73.97C174.175 73.8733 174.217 73.78 174.273 73.69L175.363 72.09C175.393 72.0433 175.425 72.0067 175.458 71.98C175.495 71.95 175.538 71.935 175.588 71.935H176.408L174.703 74.355L176.478 77ZM178.854 77.08C178.454 77.08 178.145 76.9683 177.929 76.745C177.715 76.5217 177.609 76.2 177.609 75.78V72.68H176.999C176.945 72.68 176.9 72.665 176.864 72.635C176.827 72.6017 176.809 72.5517 176.809 72.485V72.13L177.639 72.025L177.844 70.46C177.854 70.41 177.875 70.37 177.909 70.34C177.945 70.3067 177.992 70.29 178.049 70.29H178.499V72.035H179.964V72.68H178.499V75.72C178.499 75.9333 178.55 76.0917 178.654 76.195C178.757 76.2983 178.89 76.35 179.054 76.35C179.147 76.35 179.227 76.3383 179.294 76.315C179.364 76.2883 179.424 76.26 179.474 76.23C179.524 76.2 179.565 76.1733 179.599 76.15C179.635 76.1233 179.667 76.11 179.694 76.11C179.74 76.11 179.782 76.1383 179.819 76.195L180.079 76.62C179.925 76.7633 179.74 76.8767 179.524 76.96C179.307 77.04 179.084 77.08 178.854 77.08ZM156.265 87.78C156.428 88 156.607 88.155 156.8 88.245C156.993 88.335 157.21 88.38 157.45 88.38C157.923 88.38 158.287 88.2117 158.54 87.875C158.793 87.5383 158.92 87.0583 158.92 86.435C158.92 86.105 158.89 85.8217 158.83 85.585C158.773 85.3483 158.69 85.155 158.58 85.005C158.47 84.8517 158.335 84.74 158.175 84.67C158.015 84.6 157.833 84.565 157.63 84.565C157.34 84.565 157.085 84.6317 156.865 84.765C156.648 84.8983 156.448 85.0867 156.265 85.33V87.78ZM156.22 84.72C156.433 84.4567 156.68 84.245 156.96 84.085C157.24 83.925 157.56 83.845 157.92 83.845C158.213 83.845 158.478 83.9017 158.715 84.015C158.952 84.125 159.153 84.29 159.32 84.51C159.487 84.7267 159.615 84.9967 159.705 85.32C159.795 85.6433 159.84 86.015 159.84 86.435C159.84 86.8083 159.79 87.1567 159.69 87.48C159.59 87.8 159.445 88.0783 159.255 88.315C159.068 88.5483 158.838 88.7333 158.565 88.87C158.295 89.0033 157.99 89.07 157.65 89.07C157.34 89.07 157.073 89.0183 156.85 88.915C156.63 88.8083 156.435 88.6617 156.265 88.475V90.715H155.37V83.935H155.905C156.032 83.935 156.11 83.9967 156.14 84.12L156.22 84.72ZM163.111 83.855C163.481 83.855 163.814 83.9167 164.111 84.04C164.407 84.1633 164.661 84.3383 164.871 84.565C165.081 84.7917 165.241 85.0667 165.351 85.39C165.464 85.71 165.521 86.0683 165.521 86.465C165.521 86.865 165.464 87.225 165.351 87.545C165.241 87.865 165.081 88.1383 164.871 88.365C164.661 88.5917 164.407 88.7667 164.111 88.89C163.814 89.01 163.481 89.07 163.111 89.07C162.737 89.07 162.401 89.01 162.101 88.89C161.804 88.7667 161.551 88.5917 161.341 88.365C161.131 88.1383 160.969 87.865 160.856 87.545C160.746 87.225 160.691 86.865 160.691 86.465C160.691 86.0683 160.746 85.71 160.856 85.39C160.969 85.0667 161.131 84.7917 161.341 84.565C161.551 84.3383 161.804 84.1633 162.101 84.04C162.401 83.9167 162.737 83.855 163.111 83.855ZM163.111 88.375C163.611 88.375 163.984 88.2083 164.231 87.875C164.477 87.5383 164.601 87.07 164.601 86.47C164.601 85.8667 164.477 85.3967 164.231 85.06C163.984 84.7233 163.611 84.555 163.111 84.555C162.857 84.555 162.636 84.5983 162.446 84.685C162.259 84.7717 162.102 84.8967 161.976 85.06C161.852 85.2233 161.759 85.425 161.696 85.665C161.636 85.9017 161.606 86.17 161.606 86.47C161.606 87.07 161.729 87.5383 161.976 87.875C162.226 88.2083 162.604 88.375 163.111 88.375ZM167.589 83.935V89H166.699V83.935H167.589ZM167.779 82.345C167.779 82.4317 167.761 82.5133 167.724 82.59C167.691 82.6633 167.644 82.73 167.584 82.79C167.528 82.8467 167.459 82.8917 167.379 82.925C167.303 82.9583 167.221 82.975 167.134 82.975C167.048 82.975 166.966 82.9583 166.889 82.925C166.816 82.8917 166.751 82.8467 166.694 82.79C166.638 82.73 166.593 82.6633 166.559 82.59C166.526 82.5133 166.509 82.4317 166.509 82.345C166.509 82.2583 166.526 82.1767 166.559 82.1C166.593 82.02 166.638 81.9517 166.694 81.895C166.751 81.835 166.816 81.7883 166.889 81.755C166.966 81.7217 167.048 81.705 167.134 81.705C167.221 81.705 167.303 81.7217 167.379 81.755C167.459 81.7883 167.528 81.835 167.584 81.895C167.644 81.9517 167.691 82.02 167.724 82.1C167.761 82.1767 167.779 82.2583 167.779 82.345ZM169.892 84.67C170.002 84.5467 170.118 84.435 170.242 84.335C170.365 84.235 170.495 84.15 170.632 84.08C170.772 84.0067 170.918 83.9517 171.072 83.915C171.228 83.875 171.397 83.855 171.577 83.855C171.853 83.855 172.097 83.9017 172.307 83.995C172.52 84.085 172.697 84.215 172.837 84.385C172.98 84.5517 173.088 84.7533 173.162 84.99C173.235 85.2267 173.272 85.4883 173.272 85.775V89H172.377V85.775C172.377 85.3917 172.288 85.095 172.112 84.885C171.938 84.6717 171.673 84.565 171.317 84.565C171.053 84.565 170.807 84.6283 170.577 84.755C170.35 84.8817 170.14 85.0533 169.947 85.27V89H169.052V83.935H169.587C169.713 83.935 169.792 83.9967 169.822 84.12L169.892 84.67ZM176.114 89.08C175.714 89.08 175.406 88.9683 175.189 88.745C174.976 88.5217 174.869 88.2 174.869 87.78V84.68H174.259C174.206 84.68 174.161 84.665 174.124 84.635C174.088 84.6017 174.069 84.5517 174.069 84.485V84.13L174.899 84.025L175.104 82.46C175.114 82.41 175.136 82.37 175.169 82.34C175.206 82.3067 175.253 82.29 175.309 82.29H175.759V84.035H177.224V84.68H175.759V87.72C175.759 87.9333 175.811 88.0917 175.914 88.195C176.018 88.2983 176.151 88.35 176.314 88.35C176.408 88.35 176.488 88.3383 176.554 88.315C176.624 88.2883 176.684 88.26 176.734 88.23C176.784 88.2 176.826 88.1733 176.859 88.15C176.896 88.1233 176.928 88.11 176.954 88.11C177.001 88.11 177.043 88.1383 177.079 88.195L177.339 88.62C177.186 88.7633 177.001 88.8767 176.784 88.96C176.568 89.04 176.344 89.08 176.114 89.08ZM181.504 85.915C181.504 85.7083 181.474 85.52 181.414 85.35C181.358 85.1767 181.273 85.0283 181.159 84.905C181.049 84.7783 180.914 84.6817 180.754 84.615C180.594 84.545 180.413 84.51 180.209 84.51C179.783 84.51 179.444 84.635 179.194 84.885C178.948 85.1317 178.794 85.475 178.734 85.915H181.504ZM182.224 88.29C182.114 88.4233 181.983 88.54 181.829 88.64C181.676 88.7367 181.511 88.8167 181.334 88.88C181.161 88.9433 180.981 88.99 180.794 89.02C180.608 89.0533 180.423 89.07 180.239 89.07C179.889 89.07 179.566 89.0117 179.269 88.895C178.976 88.775 178.721 88.6017 178.504 88.375C178.291 88.145 178.124 87.8617 178.004 87.525C177.884 87.1883 177.824 86.8017 177.824 86.365C177.824 86.0117 177.878 85.6817 177.984 85.375C178.094 85.0683 178.251 84.8033 178.454 84.58C178.658 84.3533 178.906 84.1767 179.199 84.05C179.493 83.92 179.823 83.855 180.189 83.855C180.493 83.855 180.773 83.9067 181.029 84.01C181.289 84.11 181.513 84.2567 181.699 84.45C181.889 84.64 182.038 84.8767 182.144 85.16C182.251 85.44 182.304 85.76 182.304 86.12C182.304 86.26 182.289 86.3533 182.259 86.4C182.229 86.4467 182.173 86.47 182.089 86.47H178.704C178.714 86.79 178.758 87.0683 178.834 87.305C178.914 87.5417 179.024 87.74 179.164 87.9C179.304 88.0567 179.471 88.175 179.664 88.255C179.858 88.3317 180.074 88.37 180.314 88.37C180.538 88.37 180.729 88.345 180.889 88.295C181.053 88.2417 181.193 88.185 181.309 88.125C181.426 88.065 181.523 88.01 181.599 87.96C181.679 87.9067 181.748 87.88 181.804 87.88C181.878 87.88 181.934 87.9083 181.974 87.965L182.224 88.29ZM184.242 84.95C184.402 84.6033 184.599 84.3333 184.832 84.14C185.066 83.9433 185.351 83.845 185.687 83.845C185.794 83.845 185.896 83.8567 185.992 83.88C186.092 83.9033 186.181 83.94 186.257 83.99L186.192 84.655C186.172 84.7383 186.122 84.78 186.042 84.78C185.996 84.78 185.927 84.77 185.837 84.75C185.747 84.73 185.646 84.72 185.532 84.72C185.372 84.72 185.229 84.7433 185.102 84.79C184.979 84.8367 184.867 84.9067 184.767 85C184.671 85.09 184.582 85.2033 184.502 85.34C184.426 85.4733 184.356 85.6267 184.292 85.8V89H183.397V83.935H183.907C184.004 83.935 184.071 83.9533 184.107 83.99C184.144 84.0267 184.169 84.09 184.182 84.18L184.242 84.95Z" fill="#D90D0D"/>
<path id="Arrow 8" d="M170.354 43.6464C170.158 43.4512 169.842 43.4512 169.646 43.6464L166.464 46.8284C166.269 47.0237 166.269 47.3403 166.464 47.5355C166.66 47.7308 166.976 47.7308 167.172 47.5355L170 44.7071L172.828 47.5355C173.024 47.7308 173.34 47.7308 173.536 47.5355C173.731 47.3403 173.731 47.0237 173.536 46.8284L170.354 43.6464ZM170.5 67L170.5 44L169.5 44L169.5 67L170.5 67Z" fill="#D90D0D"/>
<path id="null" d="M248.606 40.67C248.716 40.5467 248.832 40.435 248.956 40.335C249.079 40.235 249.209 40.15 249.346 40.08C249.486 40.0067 249.632 39.9517 249.786 39.915C249.942 39.875 250.111 39.855 250.291 39.855C250.567 39.855 250.811 39.9017 251.021 39.995C251.234 40.085 251.411 40.215 251.551 40.385C251.694 40.5517 251.802 40.7533 251.876 40.99C251.949 41.2267 251.986 41.4883 251.986 41.775V45H251.091V41.775C251.091 41.3917 251.002 41.095 250.826 40.885C250.652 40.6717 250.387 40.565 250.031 40.565C249.767 40.565 249.521 40.6283 249.291 40.755C249.064 40.8817 248.854 41.0533 248.661 41.27V45H247.766V39.935H248.301C248.427 39.935 248.506 39.9967 248.536 40.12L248.606 40.67ZM257.507 39.935V45H256.977C256.85 45 256.77 44.9383 256.737 44.815L256.667 44.27C256.447 44.5133 256.2 44.71 255.927 44.86C255.653 45.0067 255.34 45.08 254.987 45.08C254.71 45.08 254.465 45.035 254.252 44.945C254.042 44.8517 253.865 44.7217 253.722 44.555C253.578 44.3883 253.47 44.1867 253.397 43.95C253.327 43.7133 253.292 43.4517 253.292 43.165V39.935H254.182V43.165C254.182 43.5483 254.268 43.845 254.442 44.055C254.618 44.265 254.887 44.37 255.247 44.37C255.51 44.37 255.755 44.3083 255.982 44.185C256.212 44.0583 256.423 43.885 256.617 43.665V39.935H257.507ZM259.838 37.635V45H258.948V37.635H259.838ZM262.201 37.635V45H261.311V37.635H262.201Z" fill="black"/>
<path id="Arrow 6" d="M209.5 24.9999C209.5 25.2761 209.724 25.4999 210 25.4999L214.5 25.4999C214.776 25.4999 215 25.2761 215 24.9999C215 24.7238 214.776 24.4999 214.5 24.4999L210.5 24.4999L210.5 20.4999C210.5 20.2238 210.276 19.9999 210 19.9999C209.724 19.9999 209.5 20.2238 209.5 20.4999L209.5 24.9999ZM221.646 12.6464L209.646 24.6464L210.354 25.3535L222.354 13.3535L221.646 12.6464Z" fill="#0B3AB5"/>
<path id="tail (end of queue)" d="M174.036 10.08C173.636 10.08 173.328 9.96833 173.111 9.745C172.898 9.52167 172.791 9.2 172.791 8.78V5.68H172.181C172.128 5.68 172.083 5.665 172.046 5.635C172.01 5.60167 171.991 5.55167 171.991 5.485V5.13L172.821 5.025L173.026 3.46C173.036 3.41 173.058 3.37 173.091 3.34C173.128 3.30667 173.175 3.29 173.231 3.29H173.681V5.035H175.146V5.68H173.681V8.72C173.681 8.93333 173.733 9.09167 173.836 9.195C173.94 9.29833 174.073 9.35 174.236 9.35C174.33 9.35 174.41 9.33833 174.476 9.315C174.546 9.28833 174.606 9.26 174.656 9.23C174.706 9.2 174.748 9.17333 174.781 9.15C174.818 9.12333 174.85 9.11 174.876 9.11C174.923 9.11 174.965 9.13833 175.001 9.195L175.261 9.62C175.108 9.76333 174.923 9.87667 174.706 9.96C174.49 10.04 174.266 10.08 174.036 10.08ZM178.81 7.72C178.4 7.73333 178.05 7.76667 177.76 7.82C177.474 7.87 177.239 7.93667 177.055 8.02C176.875 8.10333 176.744 8.20167 176.66 8.315C176.58 8.42833 176.54 8.555 176.54 8.695C176.54 8.82833 176.562 8.94333 176.605 9.04C176.649 9.13667 176.707 9.21667 176.78 9.28C176.857 9.34 176.945 9.385 177.045 9.415C177.149 9.44167 177.259 9.455 177.375 9.455C177.532 9.455 177.675 9.44 177.805 9.41C177.935 9.37667 178.057 9.33 178.17 9.27C178.287 9.21 178.397 9.13833 178.5 9.055C178.607 8.97167 178.71 8.87667 178.81 8.77V7.72ZM175.935 5.65C176.215 5.38 176.517 5.17833 176.84 5.045C177.164 4.91167 177.522 4.845 177.915 4.845C178.199 4.845 178.45 4.89167 178.67 4.985C178.89 5.07833 179.075 5.20833 179.225 5.375C179.375 5.54167 179.489 5.74333 179.565 5.98C179.642 6.21667 179.68 6.47667 179.68 6.76V10H179.285C179.199 10 179.132 9.98667 179.085 9.96C179.039 9.93 179.002 9.87333 178.975 9.79L178.875 9.31C178.742 9.43333 178.612 9.54333 178.485 9.64C178.359 9.73333 178.225 9.81333 178.085 9.88C177.945 9.94333 177.795 9.99167 177.635 10.025C177.479 10.0617 177.304 10.08 177.11 10.08C176.914 10.08 176.729 10.0533 176.555 10C176.382 9.94333 176.23 9.86 176.1 9.75C175.974 9.64 175.872 9.50167 175.795 9.335C175.722 9.165 175.685 8.965 175.685 8.735C175.685 8.535 175.74 8.34333 175.85 8.16C175.96 7.97333 176.139 7.80833 176.385 7.665C176.632 7.52167 176.954 7.405 177.35 7.315C177.747 7.22167 178.234 7.16833 178.81 7.155V6.76C178.81 6.36667 178.725 6.07 178.555 5.87C178.385 5.66667 178.137 5.565 177.81 5.565C177.59 5.565 177.405 5.59333 177.255 5.65C177.109 5.70333 176.98 5.765 176.87 5.835C176.764 5.90167 176.67 5.96333 176.59 6.02C176.514 6.07333 176.437 6.1 176.36 6.1C176.3 6.1 176.249 6.085 176.205 6.055C176.162 6.02167 176.125 5.98167 176.095 5.935L175.935 5.65ZM181.976 4.935V10H181.086V4.935H181.976ZM182.166 3.345C182.166 3.43167 182.148 3.51333 182.111 3.59C182.078 3.66333 182.031 3.73 181.971 3.79C181.914 3.84667 181.846 3.89167 181.766 3.925C181.689 3.95833 181.608 3.975 181.521 3.975C181.434 3.975 181.353 3.95833 181.276 3.925C181.203 3.89167 181.138 3.84667 181.081 3.79C181.024 3.73 180.979 3.66333 180.946 3.59C180.913 3.51333 180.896 3.43167 180.896 3.345C180.896 3.25833 180.913 3.17667 180.946 3.1C180.979 3.02 181.024 2.95167 181.081 2.895C181.138 2.835 181.203 2.78833 181.276 2.755C181.353 2.72167 181.434 2.705 181.521 2.705C181.608 2.705 181.689 2.72167 181.766 2.755C181.846 2.78833 181.914 2.835 181.971 2.895C182.031 2.95167 182.078 3.02 182.111 3.1C182.148 3.17667 182.166 3.25833 182.166 3.345ZM184.358 2.635V10H183.468V2.635H184.358ZM188.88 6.855C188.88 7.56833 188.97 8.26167 189.15 8.935C189.334 9.60833 189.6 10.2483 189.95 10.855C190.004 10.9583 190.017 11.0367 189.99 11.09C189.964 11.1467 189.925 11.1917 189.875 11.225L189.48 11.465C189.23 11.0817 189.017 10.7017 188.84 10.325C188.667 9.94833 188.525 9.57 188.415 9.19C188.309 8.81 188.23 8.42833 188.18 8.045C188.13 7.65833 188.105 7.26167 188.105 6.855C188.105 6.45167 188.13 6.05667 188.18 5.67C188.23 5.28333 188.309 4.90167 188.415 4.525C188.525 4.145 188.667 3.76667 188.84 3.39C189.017 3.01333 189.23 2.63167 189.48 2.245L189.875 2.49C189.925 2.52333 189.964 2.56833 189.99 2.625C190.017 2.67833 190.004 2.755 189.95 2.855C189.6 3.46167 189.334 4.10167 189.15 4.775C188.97 5.44833 188.88 6.14167 188.88 6.855ZM194.114 6.915C194.114 6.70833 194.084 6.52 194.024 6.35C193.967 6.17667 193.882 6.02833 193.769 5.905C193.659 5.77833 193.524 5.68167 193.364 5.615C193.204 5.545 193.022 5.51 192.819 5.51C192.392 5.51 192.054 5.635 191.804 5.885C191.557 6.13167 191.404 6.475 191.344 6.915H194.114ZM194.834 9.29C194.724 9.42333 194.592 9.54 194.439 9.64C194.285 9.73667 194.12 9.81667 193.944 9.88C193.77 9.94333 193.59 9.99 193.404 10.02C193.217 10.0533 193.032 10.07 192.849 10.07C192.499 10.07 192.175 10.0117 191.879 9.895C191.585 9.775 191.33 9.60167 191.114 9.375C190.9 9.145 190.734 8.86167 190.614 8.525C190.494 8.18833 190.434 7.80167 190.434 7.365C190.434 7.01167 190.487 6.68167 190.594 6.375C190.704 6.06833 190.86 5.80333 191.064 5.58C191.267 5.35333 191.515 5.17667 191.809 5.05C192.102 4.92 192.432 4.855 192.799 4.855C193.102 4.855 193.382 4.90667 193.639 5.01C193.899 5.11 194.122 5.25667 194.309 5.45C194.499 5.64 194.647 5.87667 194.754 6.16C194.86 6.44 194.914 6.76 194.914 7.12C194.914 7.26 194.899 7.35333 194.869 7.4C194.839 7.44667 194.782 7.47 194.699 7.47H191.314C191.324 7.79 191.367 8.06833 191.444 8.305C191.524 8.54167 191.634 8.74 191.774 8.9C191.914 9.05667 192.08 9.175 192.274 9.255C192.467 9.33167 192.684 9.37 192.924 9.37C193.147 9.37 193.339 9.345 193.499 9.295C193.662 9.24167 193.802 9.185 193.919 9.125C194.035 9.065 194.132 9.01 194.209 8.96C194.289 8.90667 194.357 8.88 194.414 8.88C194.487 8.88 194.544 8.90833 194.584 8.965L194.834 9.29ZM196.847 5.67C196.957 5.54667 197.073 5.435 197.197 5.335C197.32 5.235 197.45 5.15 197.587 5.08C197.727 5.00667 197.873 4.95167 198.027 4.915C198.183 4.875 198.352 4.855 198.532 4.855C198.808 4.855 199.052 4.90167 199.262 4.995C199.475 5.085 199.652 5.215 199.792 5.385C199.935 5.55167 200.043 5.75333 200.117 5.99C200.19 6.22667 200.227 6.48833 200.227 6.775V10H199.332V6.775C199.332 6.39167 199.243 6.095 199.067 5.885C198.893 5.67167 198.628 5.565 198.272 5.565C198.008 5.565 197.762 5.62833 197.532 5.755C197.305 5.88167 197.095 6.05333 196.902 6.27V10H196.007V4.935H196.542C196.668 4.935 196.747 4.99667 196.777 5.12L196.847 5.67ZM204.883 6.14C204.716 5.91667 204.536 5.76167 204.343 5.675C204.15 5.585 203.933 5.54 203.693 5.54C203.223 5.54 202.861 5.70833 202.608 6.045C202.355 6.38167 202.228 6.86167 202.228 7.485C202.228 7.815 202.256 8.09833 202.313 8.335C202.37 8.56833 202.453 8.76167 202.563 8.915C202.673 9.065 202.808 9.175 202.968 9.245C203.128 9.315 203.31 9.35 203.513 9.35C203.806 9.35 204.061 9.28333 204.278 9.15C204.498 9.01667 204.7 8.82833 204.883 8.585V6.14ZM205.773 2.635V10H205.243C205.116 10 205.036 9.93833 205.003 9.815L204.923 9.2C204.706 9.46 204.46 9.67 204.183 9.83C203.906 9.99 203.586 10.07 203.223 10.07C202.933 10.07 202.67 10.015 202.433 9.905C202.196 9.79167 201.995 9.62667 201.828 9.41C201.661 9.19333 201.533 8.92333 201.443 8.6C201.353 8.27667 201.308 7.905 201.308 7.485C201.308 7.11167 201.358 6.765 201.458 6.445C201.558 6.12167 201.701 5.84167 201.888 5.605C202.075 5.36833 202.303 5.18333 202.573 5.05C202.846 4.91333 203.153 4.845 203.493 4.845C203.803 4.845 204.068 4.89833 204.288 5.005C204.511 5.10833 204.71 5.25333 204.883 5.44V2.635H205.773ZM211.872 4.855C212.242 4.855 212.576 4.91667 212.872 5.04C213.169 5.16333 213.422 5.33833 213.632 5.565C213.842 5.79167 214.002 6.06667 214.112 6.39C214.226 6.71 214.282 7.06833 214.282 7.465C214.282 7.865 214.226 8.225 214.112 8.545C214.002 8.865 213.842 9.13833 213.632 9.365C213.422 9.59167 213.169 9.76667 212.872 9.89C212.576 10.01 212.242 10.07 211.872 10.07C211.499 10.07 211.162 10.01 210.862 9.89C210.566 9.76667 210.312 9.59167 210.102 9.365C209.892 9.13833 209.731 8.865 209.617 8.545C209.507 8.225 209.452 7.865 209.452 7.465C209.452 7.06833 209.507 6.71 209.617 6.39C209.731 6.06667 209.892 5.79167 210.102 5.565C210.312 5.33833 210.566 5.16333 210.862 5.04C211.162 4.91667 211.499 4.855 211.872 4.855ZM211.872 9.375C212.372 9.375 212.746 9.20833 212.992 8.875C213.239 8.53833 213.362 8.07 213.362 7.47C213.362 6.86667 213.239 6.39667 212.992 6.06C212.746 5.72333 212.372 5.555 211.872 5.555C211.619 5.555 211.397 5.59833 211.207 5.685C211.021 5.77167 210.864 5.89667 210.737 6.06C210.614 6.22333 210.521 6.425 210.457 6.665C210.397 6.90167 210.367 7.17 210.367 7.47C210.367 8.07 210.491 8.53833 210.737 8.875C210.987 9.20833 211.366 9.375 211.872 9.375ZM215.634 10V5.695L215.074 5.63C215.004 5.61333 214.945 5.58833 214.899 5.555C214.855 5.51833 214.834 5.46667 214.834 5.4V5.035H215.634V4.545C215.634 4.255 215.674 3.99833 215.754 3.775C215.837 3.54833 215.954 3.35833 216.104 3.205C216.257 3.04833 216.44 2.93 216.654 2.85C216.867 2.77 217.107 2.73 217.374 2.73C217.6 2.73 217.809 2.76333 217.999 2.83L217.979 3.275C217.972 3.355 217.927 3.39833 217.844 3.405C217.764 3.41167 217.655 3.415 217.519 3.415C217.365 3.415 217.225 3.435 217.099 3.475C216.975 3.515 216.869 3.58 216.779 3.67C216.689 3.76 216.619 3.87833 216.569 4.025C216.522 4.17167 216.499 4.35333 216.499 4.57V5.035H217.959V5.68H216.529V10H215.634ZM224.483 6.135C224.323 5.92167 224.144 5.77 223.948 5.68C223.751 5.58667 223.533 5.54 223.293 5.54C222.823 5.54 222.461 5.70833 222.208 6.045C221.954 6.38167 221.828 6.86167 221.828 7.485C221.828 7.815 221.856 8.09833 221.913 8.335C221.969 8.56833 222.053 8.76167 222.163 8.915C222.273 9.065 222.408 9.175 222.568 9.245C222.728 9.315 222.909 9.35 223.113 9.35C223.406 9.35 223.661 9.28333 223.878 9.15C224.098 9.01667 224.299 8.82833 224.483 8.585V6.135ZM225.373 4.935V11.715H224.483V9.245C224.273 9.49167 224.031 9.69167 223.758 9.845C223.484 9.995 223.173 10.07 222.823 10.07C222.533 10.07 222.269 10.015 222.033 9.905C221.796 9.79167 221.594 9.62667 221.428 9.41C221.261 9.19333 221.133 8.92333 221.043 8.6C220.953 8.27667 220.908 7.905 220.908 7.485C220.908 7.11167 220.958 6.765 221.058 6.445C221.158 6.12167 221.301 5.84167 221.488 5.605C221.674 5.36833 221.903 5.18333 222.173 5.05C222.446 4.91333 222.753 4.845 223.093 4.845C223.423 4.845 223.703 4.90333 223.933 5.02C224.163 5.13667 224.366 5.3 224.543 5.51L224.603 5.12C224.636 4.99667 224.716 4.935 224.843 4.935H225.373ZM230.943 4.935V10H230.413C230.287 10 230.207 9.93833 230.173 9.815L230.103 9.27C229.883 9.51333 229.637 9.71 229.363 9.86C229.09 10.0067 228.777 10.08 228.423 10.08C228.147 10.08 227.902 10.035 227.688 9.945C227.478 9.85167 227.302 9.72167 227.158 9.555C227.015 9.38833 226.907 9.18667 226.833 8.95C226.763 8.71333 226.728 8.45167 226.728 8.165V4.935H227.618V8.165C227.618 8.54833 227.705 8.845 227.878 9.055C228.055 9.265 228.323 9.37 228.683 9.37C228.947 9.37 229.192 9.30833 229.418 9.185C229.648 9.05833 229.86 8.885 230.053 8.665V4.935H230.943ZM235.744 6.915C235.744 6.70833 235.714 6.52 235.654 6.35C235.598 6.17667 235.513 6.02833 235.399 5.905C235.289 5.77833 235.154 5.68167 234.994 5.615C234.834 5.545 234.653 5.51 234.449 5.51C234.023 5.51 233.684 5.635 233.434 5.885C233.188 6.13167 233.034 6.475 232.974 6.915H235.744ZM236.464 9.29C236.354 9.42333 236.223 9.54 236.069 9.64C235.916 9.73667 235.751 9.81667 235.574 9.88C235.401 9.94333 235.221 9.99 235.034 10.02C234.848 10.0533 234.663 10.07 234.479 10.07C234.129 10.07 233.806 10.0117 233.509 9.895C233.216 9.775 232.961 9.60167 232.744 9.375C232.531 9.145 232.364 8.86167 232.244 8.525C232.124 8.18833 232.064 7.80167 232.064 7.365C232.064 7.01167 232.118 6.68167 232.224 6.375C232.334 6.06833 232.491 5.80333 232.694 5.58C232.898 5.35333 233.146 5.17667 233.439 5.05C233.733 4.92 234.063 4.855 234.429 4.855C234.733 4.855 235.013 4.90667 235.269 5.01C235.529 5.11 235.753 5.25667 235.939 5.45C236.129 5.64 236.278 5.87667 236.384 6.16C236.491 6.44 236.544 6.76 236.544 7.12C236.544 7.26 236.529 7.35333 236.499 7.4C236.469 7.44667 236.413 7.47 236.329 7.47H232.944C232.954 7.79 232.998 8.06833 233.074 8.305C233.154 8.54167 233.264 8.74 233.404 8.9C233.544 9.05667 233.711 9.175 233.904 9.255C234.098 9.33167 234.314 9.37 234.554 9.37C234.778 9.37 234.969 9.345 235.129 9.295C235.293 9.24167 235.433 9.185 235.549 9.125C235.666 9.065 235.763 9.01 235.839 8.96C235.919 8.90667 235.988 8.88 236.044 8.88C236.118 8.88 236.174 8.90833 236.214 8.965L236.464 9.29ZM241.803 4.935V10H241.273C241.146 10 241.066 9.93833 241.033 9.815L240.963 9.27C240.743 9.51333 240.496 9.71 240.223 9.86C239.949 10.0067 239.636 10.08 239.283 10.08C239.006 10.08 238.761 10.035 238.548 9.945C238.338 9.85167 238.161 9.72167 238.018 9.555C237.874 9.38833 237.766 9.18667 237.693 8.95C237.623 8.71333 237.588 8.45167 237.588 8.165V4.935H238.478V8.165C238.478 8.54833 238.564 8.845 238.738 9.055C238.914 9.265 239.183 9.37 239.543 9.37C239.806 9.37 240.051 9.30833 240.278 9.185C240.508 9.05833 240.719 8.885 240.913 8.665V4.935H241.803ZM246.604 6.915C246.604 6.70833 246.574 6.52 246.514 6.35C246.457 6.17667 246.372 6.02833 246.259 5.905C246.149 5.77833 246.014 5.68167 245.854 5.615C245.694 5.545 245.512 5.51 245.309 5.51C244.882 5.51 244.544 5.635 244.294 5.885C244.047 6.13167 243.894 6.475 243.834 6.915H246.604ZM247.324 9.29C247.214 9.42333 247.082 9.54 246.929 9.64C246.775 9.73667 246.61 9.81667 246.434 9.88C246.26 9.94333 246.08 9.99 245.894 10.02C245.707 10.0533 245.522 10.07 245.339 10.07C244.989 10.07 244.665 10.0117 244.369 9.895C244.075 9.775 243.82 9.60167 243.604 9.375C243.39 9.145 243.224 8.86167 243.104 8.525C242.984 8.18833 242.924 7.80167 242.924 7.365C242.924 7.01167 242.977 6.68167 243.084 6.375C243.194 6.06833 243.35 5.80333 243.554 5.58C243.757 5.35333 244.005 5.17667 244.299 5.05C244.592 4.92 244.922 4.855 245.289 4.855C245.592 4.855 245.872 4.90667 246.129 5.01C246.389 5.11 246.612 5.25667 246.799 5.45C246.989 5.64 247.137 5.87667 247.244 6.16C247.35 6.44 247.404 6.76 247.404 7.12C247.404 7.26 247.389 7.35333 247.359 7.4C247.329 7.44667 247.272 7.47 247.189 7.47H243.804C243.814 7.79 243.857 8.06833 243.934 8.305C244.014 8.54167 244.124 8.74 244.264 8.9C244.404 9.05667 244.57 9.175 244.764 9.255C244.957 9.33167 245.174 9.37 245.414 9.37C245.637 9.37 245.829 9.345 245.989 9.295C246.152 9.24167 246.292 9.185 246.409 9.125C246.525 9.065 246.622 9.01 246.699 8.96C246.779 8.90667 246.847 8.88 246.904 8.88C246.977 8.88 247.034 8.90833 247.074 8.965L247.324 9.29ZM249.003 6.855C249.003 6.14167 248.911 5.44833 248.728 4.775C248.548 4.10167 248.283 3.46167 247.933 2.855C247.906 2.805 247.889 2.76167 247.883 2.725C247.876 2.685 247.878 2.65167 247.888 2.625C247.898 2.595 247.913 2.57 247.933 2.55C247.956 2.52667 247.981 2.50667 248.008 2.49L248.403 2.245C248.653 2.63167 248.864 3.01333 249.038 3.39C249.214 3.76667 249.356 4.145 249.463 4.525C249.573 4.90167 249.653 5.28333 249.703 5.67C249.753 6.05667 249.778 6.45167 249.778 6.855C249.778 7.26167 249.753 7.65833 249.703 8.045C249.653 8.42833 249.573 8.81 249.463 9.19C249.356 9.57 249.214 9.94833 249.038 10.325C248.864 10.7017 248.653 11.0817 248.403 11.465L248.008 11.225C247.981 11.2083 247.956 11.1883 247.933 11.165C247.913 11.145 247.898 11.12 247.888 11.09C247.878 11.0633 247.876 11.03 247.883 10.99C247.889 10.95 247.906 10.905 247.933 10.855C248.283 10.2483 248.548 9.60833 248.728 8.935C248.911 8.26167 249.003 7.56833 249.003 6.855Z" fill="#0B3AB5"/>
<g id="node-to-pop">
<g id="node-d-stack-pop">
<circle id="Ellipse 2_4" cx="18.5" cy="41.5" r="18" stroke="black"/>
<path id="d" d="M19.2071 41.14C19.0405 40.9167 18.8605 40.7617 18.6671 40.675C18.4738 40.585 18.2571 40.54 18.0171 40.54C17.5471 40.54 17.1855 40.7083 16.9321 41.045C16.6788 41.3817 16.5521 41.8617 16.5521 42.485C16.5521 42.815 16.5805 43.0983 16.6371 43.335C16.6938 43.5683 16.7771 43.7617 16.8871 43.915C16.9971 44.065 17.1321 44.175 17.2921 44.245C17.4521 44.315 17.6338 44.35 17.8371 44.35C18.1305 44.35 18.3855 44.2833 18.6021 44.15C18.8221 44.0167 19.0238 43.8283 19.2071 43.585V41.14ZM20.0971 37.635V45H19.5671C19.4405 45 19.3605 44.9383 19.3271 44.815L19.2471 44.2C19.0305 44.46 18.7838 44.67 18.5071 44.83C18.2305 44.99 17.9105 45.07 17.5471 45.07C17.2571 45.07 16.9938 45.015 16.7571 44.905C16.5205 44.7917 16.3188 44.6267 16.1521 44.41C15.9855 44.1933 15.8571 43.9233 15.7671 43.6C15.6771 43.2767 15.6321 42.905 15.6321 42.485C15.6321 42.1117 15.6821 41.765 15.7821 41.445C15.8821 41.1217 16.0255 40.8417 16.2121 40.605C16.3988 40.3683 16.6271 40.1833 16.8971 40.05C17.1705 39.9133 17.4771 39.845 17.8171 39.845C18.1271 39.845 18.3921 39.8983 18.6121 40.005C18.8355 40.1083 19.0338 40.2533 19.2071 40.44V37.635H20.0971Z" fill="black"/>
</g>
<g id="next-pointer-stack-pop">
<path id="Arrow 9" d="M61.3536 42.3536C61.5488 42.1583 61.5488 41.8417 61.3536 41.6464L58.1716 38.4645C57.9763 38.2692 57.6597 38.2692 57.4645 38.4645C57.2692 38.6597 57.2692 38.9763 57.4645 39.1716L60.2929 42L57.4645 44.8284C57.2692 45.0237 57.2692 45.3403 57.4645 45.5355C57.6597 45.7308 57.9763 45.7308 58.1716 45.5355L61.3536 42.3536ZM37 42.5H61V41.5H37V42.5Z" fill="black"/>
<path id="next pointer_3" d="M39.8673 76.67C39.9773 76.5467 40.0939 76.435 40.2173 76.335C40.3406 76.235 40.4706 76.15 40.6073 76.08C40.7473 76.0067 40.8939 75.9517 41.0473 75.915C41.2039 75.875 41.3723 75.855 41.5523 75.855C41.8289 75.855 42.0723 75.9017 42.2823 75.995C42.4956 76.085 42.6723 76.215 42.8123 76.385C42.9556 76.5517 43.0639 76.7533 43.1373 76.99C43.2106 77.2267 43.2473 77.4883 43.2473 77.775V81H42.3523V77.775C42.3523 77.3917 42.2639 77.095 42.0873 76.885C41.9139 76.6717 41.6489 76.565 41.2923 76.565C41.0289 76.565 40.7823 76.6283 40.5523 76.755C40.3256 76.8817 40.1156 77.0533 39.9223 77.27V81H39.0273V75.935H39.5623C39.6889 75.935 39.7673 75.9967 39.7973 76.12L39.8673 76.67ZM47.9934 77.915C47.9934 77.7083 47.9634 77.52 47.9034 77.35C47.8468 77.1767 47.7618 77.0283 47.6484 76.905C47.5384 76.7783 47.4034 76.6817 47.2434 76.615C47.0834 76.545 46.9018 76.51 46.6984 76.51C46.2718 76.51 45.9334 76.635 45.6834 76.885C45.4368 77.1317 45.2834 77.475 45.2234 77.915H47.9934ZM48.7134 80.29C48.6034 80.4233 48.4718 80.54 48.3184 80.64C48.1651 80.7367 48.0001 80.8167 47.8234 80.88C47.6501 80.9433 47.4701 80.99 47.2834 81.02C47.0968 81.0533 46.9118 81.07 46.7284 81.07C46.3784 81.07 46.0551 81.0117 45.7584 80.895C45.4651 80.775 45.2101 80.6017 44.9934 80.375C44.7801 80.145 44.6134 79.8617 44.4934 79.525C44.3734 79.1883 44.3134 78.8017 44.3134 78.365C44.3134 78.0117 44.3668 77.6817 44.4734 77.375C44.5834 77.0683 44.7401 76.8033 44.9434 76.58C45.1468 76.3533 45.3951 76.1767 45.6884 76.05C45.9818 75.92 46.3118 75.855 46.6784 75.855C46.9818 75.855 47.2618 75.9067 47.5184 76.01C47.7784 76.11 48.0018 76.2567 48.1884 76.45C48.3784 76.64 48.5268 76.8767 48.6334 77.16C48.7401 77.44 48.7934 77.76 48.7934 78.12C48.7934 78.26 48.7784 78.3533 48.7484 78.4C48.7184 78.4467 48.6618 78.47 48.5784 78.47H45.1934C45.2034 78.79 45.2468 79.0683 45.3234 79.305C45.4034 79.5417 45.5134 79.74 45.6534 79.9C45.7934 80.0567 45.9601 80.175 46.1534 80.255C46.3468 80.3317 46.5634 80.37 46.8034 80.37C47.0268 80.37 47.2184 80.345 47.3784 80.295C47.5418 80.2417 47.6818 80.185 47.7984 80.125C47.9151 80.065 48.0118 80.01 48.0884 79.96C48.1684 79.9067 48.2368 79.88 48.2934 79.88C48.3668 79.88 48.4234 79.9083 48.4634 79.965L48.7134 80.29ZM53.9783 81H53.1233C53.0499 81 52.9916 80.9817 52.9483 80.945C52.9083 80.905 52.8749 80.8617 52.8483 80.815L51.5733 78.83C51.5599 78.8767 51.5449 78.9233 51.5283 78.97C51.5149 79.0133 51.4949 79.0533 51.4683 79.09L50.2883 80.815C50.2549 80.8617 50.2183 80.905 50.1783 80.945C50.1416 80.9817 50.0899 81 50.0233 81H49.2283L51.0033 78.4L49.2983 75.935H50.1533C50.2266 75.935 50.2799 75.9467 50.3133 75.97C50.3466 75.9933 50.3766 76.0267 50.4033 76.07L51.6483 77.97C51.6749 77.8733 51.7166 77.78 51.7733 77.69L52.8633 76.09C52.8933 76.0433 52.9249 76.0067 52.9583 75.98C52.9949 75.95 53.0383 75.935 53.0883 75.935H53.9083L52.2033 78.355L53.9783 81ZM56.3538 81.08C55.9538 81.08 55.6454 80.9683 55.4288 80.745C55.2154 80.5217 55.1088 80.2 55.1088 79.78V76.68H54.4988C54.4454 76.68 54.4004 76.665 54.3638 76.635C54.3271 76.6017 54.3088 76.5517 54.3088 76.485V76.13L55.1388 76.025L55.3438 74.46C55.3538 74.41 55.3754 74.37 55.4088 74.34C55.4454 74.3067 55.4921 74.29 55.5488 74.29H55.9988V76.035H57.4638V76.68H55.9988V79.72C55.9988 79.9333 56.0504 80.0917 56.1538 80.195C56.2571 80.2983 56.3904 80.35 56.5538 80.35C56.6471 80.35 56.7271 80.3383 56.7938 80.315C56.8638 80.2883 56.9238 80.26 56.9738 80.23C57.0238 80.2 57.0654 80.1733 57.0988 80.15C57.1354 80.1233 57.1671 80.11 57.1938 80.11C57.2404 80.11 57.2821 80.1383 57.3188 80.195L57.5788 80.62C57.4254 80.7633 57.2404 80.8767 57.0238 80.96C56.8071 81.04 56.5838 81.08 56.3538 81.08ZM33.765 91.78C33.9284 92 34.1067 92.155 34.3 92.245C34.4934 92.335 34.71 92.38 34.95 92.38C35.4234 92.38 35.7867 92.2117 36.04 91.875C36.2934 91.5383 36.42 91.0583 36.42 90.435C36.42 90.105 36.39 89.8217 36.33 89.585C36.2734 89.3483 36.19 89.155 36.08 89.005C35.97 88.8517 35.835 88.74 35.675 88.67C35.515 88.6 35.3334 88.565 35.13 88.565C34.84 88.565 34.585 88.6317 34.365 88.765C34.1484 88.8983 33.9484 89.0867 33.765 89.33V91.78ZM33.72 88.72C33.9334 88.4567 34.18 88.245 34.46 88.085C34.74 87.925 35.06 87.845 35.42 87.845C35.7134 87.845 35.9784 87.9017 36.215 88.015C36.4517 88.125 36.6534 88.29 36.82 88.51C36.9867 88.7267 37.115 88.9967 37.205 89.32C37.295 89.6433 37.34 90.015 37.34 90.435C37.34 90.8083 37.29 91.1567 37.19 91.48C37.09 91.8 36.945 92.0783 36.755 92.315C36.5684 92.5483 36.3384 92.7333 36.065 92.87C35.795 93.0033 35.49 93.07 35.15 93.07C34.84 93.07 34.5734 93.0183 34.35 92.915C34.13 92.8083 33.935 92.6617 33.765 92.475V94.715H32.87V87.935H33.405C33.5317 87.935 33.61 87.9967 33.64 88.12L33.72 88.72ZM40.6105 87.855C40.9805 87.855 41.3138 87.9167 41.6105 88.04C41.9072 88.1633 42.1605 88.3383 42.3705 88.565C42.5805 88.7917 42.7405 89.0667 42.8505 89.39C42.9638 89.71 43.0205 90.0683 43.0205 90.465C43.0205 90.865 42.9638 91.225 42.8505 91.545C42.7405 91.865 42.5805 92.1383 42.3705 92.365C42.1605 92.5917 41.9072 92.7667 41.6105 92.89C41.3138 93.01 40.9805 93.07 40.6105 93.07C40.2372 93.07 39.9005 93.01 39.6005 92.89C39.3038 92.7667 39.0505 92.5917 38.8405 92.365C38.6305 92.1383 38.4688 91.865 38.3555 91.545C38.2455 91.225 38.1905 90.865 38.1905 90.465C38.1905 90.0683 38.2455 89.71 38.3555 89.39C38.4688 89.0667 38.6305 88.7917 38.8405 88.565C39.0505 88.3383 39.3038 88.1633 39.6005 88.04C39.9005 87.9167 40.2372 87.855 40.6105 87.855ZM40.6105 92.375C41.1105 92.375 41.4838 92.2083 41.7305 91.875C41.9772 91.5383 42.1005 91.07 42.1005 90.47C42.1005 89.8667 41.9772 89.3967 41.7305 89.06C41.4838 88.7233 41.1105 88.555 40.6105 88.555C40.3572 88.555 40.1355 88.5983 39.9455 88.685C39.7588 88.7717 39.6022 88.8967 39.4755 89.06C39.3522 89.2233 39.2588 89.425 39.1955 89.665C39.1355 89.9017 39.1055 90.17 39.1055 90.47C39.1055 91.07 39.2288 91.5383 39.4755 91.875C39.7255 92.2083 40.1038 92.375 40.6105 92.375ZM45.0893 87.935V93H44.1993V87.935H45.0893ZM45.2793 86.345C45.2793 86.4317 45.261 86.5133 45.2243 86.59C45.191 86.6633 45.1443 86.73 45.0843 86.79C45.0277 86.8467 44.9593 86.8917 44.8793 86.925C44.8027 86.9583 44.721 86.975 44.6343 86.975C44.5477 86.975 44.466 86.9583 44.3893 86.925C44.316 86.8917 44.251 86.8467 44.1943 86.79C44.1377 86.73 44.0927 86.6633 44.0593 86.59C44.026 86.5133 44.0093 86.4317 44.0093 86.345C44.0093 86.2583 44.026 86.1767 44.0593 86.1C44.0927 86.02 44.1377 85.9517 44.1943 85.895C44.251 85.835 44.316 85.7883 44.3893 85.755C44.466 85.7217 44.5477 85.705 44.6343 85.705C44.721 85.705 44.8027 85.7217 44.8793 85.755C44.9593 85.7883 45.0277 85.835 45.0843 85.895C45.1443 85.9517 45.191 86.02 45.2243 86.1C45.261 86.1767 45.2793 86.2583 45.2793 86.345ZM47.3917 88.67C47.5017 88.5467 47.6183 88.435 47.7417 88.335C47.865 88.235 47.995 88.15 48.1317 88.08C48.2717 88.0067 48.4183 87.9517 48.5717 87.915C48.7283 87.875 48.8967 87.855 49.0767 87.855C49.3533 87.855 49.5967 87.9017 49.8067 87.995C50.02 88.085 50.1967 88.215 50.3367 88.385C50.48 88.5517 50.5883 88.7533 50.6617 88.99C50.735 89.2267 50.7717 89.4883 50.7717 89.775V93H49.8767V89.775C49.8767 89.3917 49.7883 89.095 49.6117 88.885C49.4383 88.6717 49.1733 88.565 48.8167 88.565C48.5533 88.565 48.3067 88.6283 48.0767 88.755C47.85 88.8817 47.64 89.0533 47.4467 89.27V93H46.5517V87.935H47.0867C47.2133 87.935 47.2917 87.9967 47.3217 88.12L47.3917 88.67ZM53.6145 93.08C53.2145 93.08 52.9062 92.9683 52.6895 92.745C52.4762 92.5217 52.3695 92.2 52.3695 91.78V88.68H51.7595C51.7062 88.68 51.6612 88.665 51.6245 88.635C51.5878 88.6017 51.5695 88.5517 51.5695 88.485V88.13L52.3995 88.025L52.6045 86.46C52.6145 86.41 52.6362 86.37 52.6695 86.34C52.7062 86.3067 52.7528 86.29 52.8095 86.29H53.2595V88.035H54.7245V88.68H53.2595V91.72C53.2595 91.9333 53.3112 92.0917 53.4145 92.195C53.5178 92.2983 53.6512 92.35 53.8145 92.35C53.9078 92.35 53.9878 92.3383 54.0545 92.315C54.1245 92.2883 54.1845 92.26 54.2345 92.23C54.2845 92.2 54.3262 92.1733 54.3595 92.15C54.3962 92.1233 54.4278 92.11 54.4545 92.11C54.5012 92.11 54.5428 92.1383 54.5795 92.195L54.8395 92.62C54.6862 92.7633 54.5012 92.8767 54.2845 92.96C54.0678 93.04 53.8445 93.08 53.6145 93.08ZM59.0042 89.915C59.0042 89.7083 58.9742 89.52 58.9142 89.35C58.8575 89.1767 58.7725 89.0283 58.6592 88.905C58.5492 88.7783 58.4142 88.6817 58.2542 88.615C58.0942 88.545 57.9125 88.51 57.7092 88.51C57.2825 88.51 56.9442 88.635 56.6942 88.885C56.4475 89.1317 56.2942 89.475 56.2342 89.915H59.0042ZM59.7242 92.29C59.6142 92.4233 59.4825 92.54 59.3292 92.64C59.1758 92.7367 59.0108 92.8167 58.8342 92.88C58.6608 92.9433 58.4808 92.99 58.2942 93.02C58.1075 93.0533 57.9225 93.07 57.7392 93.07C57.3892 93.07 57.0658 93.0117 56.7692 92.895C56.4758 92.775 56.2208 92.6017 56.0042 92.375C55.7908 92.145 55.6242 91.8617 55.5042 91.525C55.3842 91.1883 55.3242 90.8017 55.3242 90.365C55.3242 90.0117 55.3775 89.6817 55.4842 89.375C55.5942 89.0683 55.7508 88.8033 55.9542 88.58C56.1575 88.3533 56.4058 88.1767 56.6992 88.05C56.9925 87.92 57.3225 87.855 57.6892 87.855C57.9925 87.855 58.2725 87.9067 58.5292 88.01C58.7892 88.11 59.0125 88.2567 59.1992 88.45C59.3892 88.64 59.5375 88.8767 59.6442 89.16C59.7508 89.44 59.8042 89.76 59.8042 90.12C59.8042 90.26 59.7892 90.3533 59.7592 90.4C59.7292 90.4467 59.6725 90.47 59.5892 90.47H56.2042C56.2142 90.79 56.2575 91.0683 56.3342 91.305C56.4142 91.5417 56.5242 91.74 56.6642 91.9C56.8042 92.0567 56.9708 92.175 57.1642 92.255C57.3575 92.3317 57.5742 92.37 57.8142 92.37C58.0375 92.37 58.2292 92.345 58.3892 92.295C58.5525 92.2417 58.6925 92.185 58.8092 92.125C58.9258 92.065 59.0225 92.01 59.0992 91.96C59.1792 91.9067 59.2475 91.88 59.3042 91.88C59.3775 91.88 59.4342 91.9083 59.4742 91.965L59.7242 92.29ZM61.7424 88.95C61.9024 88.6033 62.099 88.3333 62.3324 88.14C62.5657 87.9433 62.8507 87.845 63.1874 87.845C63.294 87.845 63.3957 87.8567 63.4924 87.88C63.5924 87.9033 63.6807 87.94 63.7574 87.99L63.6924 88.655C63.6724 88.7383 63.6224 88.78 63.5424 88.78C63.4957 88.78 63.4274 88.77 63.3374 88.75C63.2474 88.73 63.1457 88.72 63.0324 88.72C62.8724 88.72 62.729 88.7433 62.6024 88.79C62.479 88.8367 62.3674 88.9067 62.2674 89C62.1707 89.09 62.0824 89.2033 62.0024 89.34C61.9257 89.4733 61.8557 89.6267 61.7924 89.8V93H60.8974V87.935H61.4074C61.504 87.935 61.5707 87.9533 61.6074 87.99C61.644 88.0267 61.669 88.09 61.6824 88.18L61.7424 88.95Z" fill="#D90D0D"/>
<path id="Arrow 7_2" d="M50.3536 47.6464C50.1583 47.4512 49.8417 47.4512 49.6464 47.6464L46.4645 50.8284C46.2692 51.0237 46.2692 51.3403 46.4645 51.5355C46.6597 51.7308 46.9763 51.7308 47.1716 51.5355L50 48.7071L52.8284 51.5355C53.0237 51.7308 53.3403 51.7308 53.5355 51.5355C53.7308 51.3403 53.7308 51.0237 53.5355 50.8284L50.3536 47.6464ZM50.5 71L50.5 48L49.5 48L49.5 71L50.5 71Z" fill="#D90D0D"/>
</g>
</g>
</g>
</svg>
