<svg viewBox="0 0 263 92" fill="none" xmlns="http://www.w3.org/2000/svg">
<circle cx="68.5" cy="41.5" r="18" stroke="black"/>
<path d="M68.9646 42.72C68.5546 42.7333 68.2046 42.7667 67.9146 42.82C67.628 42.87 67.393 42.9367 67.2096 43.02C67.0296 43.1033 66.898 43.2017 66.8146 43.315C66.7346 43.4283 66.6946 43.555 66.6946 43.695C66.6946 43.8283 66.7163 43.9433 66.7596 44.04C66.803 44.1367 66.8613 44.2167 66.9346 44.28C67.0113 44.34 67.0996 44.385 67.1996 44.415C67.303 44.4417 67.413 44.455 67.5296 44.455C67.6863 44.455 67.8296 44.44 67.9596 44.41C68.0896 44.3767 68.2113 44.33 68.3246 44.27C68.4413 44.21 68.5513 44.1383 68.6546 44.055C68.7613 43.9717 68.8646 43.8767 68.9646 43.77V42.72ZM66.0896 40.65C66.3696 40.38 66.6713 40.1783 66.9946 40.045C67.318 39.9117 67.6763 39.845 68.0696 39.845C68.353 39.845 68.6046 39.8917 68.8246 39.985C69.0446 40.0783 69.2296 40.2083 69.3796 40.375C69.5296 40.5417 69.643 40.7433 69.7196 40.98C69.7963 41.2167 69.8346 41.4767 69.8346 41.76V45H69.4396C69.353 45 69.2863 44.9867 69.2396 44.96C69.193 44.93 69.1563 44.8733 69.1296 44.79L69.0296 44.31C68.8963 44.4333 68.7663 44.5433 68.6396 44.64C68.513 44.7333 68.3796 44.8133 68.2396 44.88C68.0996 44.9433 67.9496 44.9917 67.7896 45.025C67.633 45.0617 67.458 45.08 67.2646 45.08C67.068 45.08 66.883 45.0533 66.7096 45C66.5363 44.9433 66.3846 44.86 66.2546 44.75C66.128 44.64 66.0263 44.5017 65.9496 44.335C65.8763 44.165 65.8396 43.965 65.8396 43.735C65.8396 43.535 65.8946 43.3433 66.0046 43.16C66.1146 42.9733 66.293 42.8083 66.5396 42.665C66.7863 42.5217 67.108 42.405 67.5046 42.315C67.9013 42.2217 68.388 42.1683 68.9646 42.155V41.76C68.9646 41.3667 68.8796 41.07 68.7096 40.87C68.5396 40.6667 68.2913 40.565 67.9646 40.565C67.7446 40.565 67.5596 40.5933 67.4096 40.65C67.263 40.7033 67.1346 40.765 67.0246 40.835C66.918 40.9017 66.8246 40.9633 66.7446 41.02C66.668 41.0733 66.5913 41.1 66.5146 41.1C66.4546 41.1 66.403 41.085 66.3596 41.055C66.3163 41.0217 66.2796 40.9817 66.2496 40.935L66.0896 40.65Z" fill="black"/>
<circle cx="189.5" cy="41.5" r="18" stroke="black"/>
<path d="M190.842 40.835C190.816 40.8717 190.789 40.9 190.762 40.92C190.736 40.94 190.699 40.95 190.652 40.95C190.602 40.95 190.547 40.93 190.487 40.89C190.427 40.8467 190.352 40.8 190.262 40.75C190.176 40.7 190.067 40.655 189.937 40.615C189.811 40.5717 189.654 40.55 189.467 40.55C189.217 40.55 188.997 40.595 188.807 40.685C188.617 40.7717 188.457 40.8983 188.327 41.065C188.201 41.2317 188.104 41.4333 188.037 41.67C187.974 41.9067 187.942 42.1717 187.942 42.465C187.942 42.7717 187.977 43.045 188.047 43.285C188.117 43.5217 188.216 43.7217 188.342 43.885C188.472 44.045 188.627 44.1683 188.807 44.255C188.991 44.3383 189.196 44.38 189.422 44.38C189.639 44.38 189.817 44.355 189.957 44.305C190.097 44.2517 190.212 44.1933 190.302 44.13C190.396 44.0667 190.472 44.01 190.532 43.96C190.596 43.9067 190.657 43.88 190.717 43.88C190.791 43.88 190.847 43.9083 190.887 43.965L191.137 44.29C191.027 44.4267 190.902 44.5433 190.762 44.64C190.622 44.7367 190.471 44.8183 190.307 44.885C190.147 44.9483 189.979 44.995 189.802 45.025C189.626 45.055 189.446 45.07 189.262 45.07C188.946 45.07 188.651 45.0117 188.377 44.895C188.107 44.7783 187.872 44.61 187.672 44.39C187.472 44.1667 187.316 43.8933 187.202 43.57C187.089 43.2467 187.032 42.8783 187.032 42.465C187.032 42.0883 187.084 41.74 187.187 41.42C187.294 41.1 187.447 40.825 187.647 40.595C187.851 40.3617 188.099 40.18 188.392 40.05C188.689 39.92 189.029 39.855 189.412 39.855C189.769 39.855 190.082 39.9133 190.352 40.03C190.626 40.1433 190.867 40.305 191.077 40.515L190.842 40.835Z" fill="black"/>
<circle cx="129.5" cy="41.5" r="18" stroke="black"/>
<path d="M127.802 43.78C127.965 44 128.144 44.155 128.337 44.245C128.534 44.335 128.749 44.38 128.982 44.38C129.459 44.38 129.824 44.2117 130.077 43.875C130.33 43.5383 130.457 43.0367 130.457 42.37C130.457 41.75 130.344 41.295 130.117 41.005C129.894 40.7117 129.574 40.565 129.157 40.565C128.867 40.565 128.614 40.6317 128.397 40.765C128.184 40.8983 127.985 41.0867 127.802 41.33V43.78ZM127.802 40.665C128.015 40.4183 128.255 40.2217 128.522 40.075C128.792 39.9283 129.102 39.855 129.452 39.855C129.749 39.855 130.015 39.9117 130.252 40.025C130.492 40.1383 130.695 40.3033 130.862 40.52C131.029 40.7333 131.155 40.9933 131.242 41.3C131.332 41.6067 131.377 41.9517 131.377 42.335C131.377 42.745 131.327 43.1183 131.227 43.455C131.127 43.7917 130.982 44.08 130.792 44.32C130.605 44.5567 130.377 44.7417 130.107 44.875C129.837 45.005 129.534 45.07 129.197 45.07C128.864 45.07 128.582 45.0083 128.352 44.885C128.125 44.7583 127.927 44.58 127.757 44.35L127.712 44.81C127.685 44.9367 127.609 45 127.482 45H126.907V37.635H127.802V40.665Z" fill="black"/>
<path d="M111.354 42.3536C111.549 42.1583 111.549 41.8417 111.354 41.6464L108.172 38.4645C107.976 38.2692 107.66 38.2692 107.464 38.4645C107.269 38.6597 107.269 38.9763 107.464 39.1716L110.293 42L107.464 44.8284C107.269 45.0237 107.269 45.3403 107.464 45.5355C107.66 45.7308 107.976 45.7308 108.172 45.5355L111.354 42.3536ZM87 42.5H111V41.5H87V42.5Z" fill="black"/>
<path d="M171.354 42.3536C171.549 42.1583 171.549 41.8417 171.354 41.6464L168.172 38.4645C167.976 38.2692 167.66 38.2692 167.464 38.4645C167.269 38.6597 167.269 38.9763 167.464 39.1716L170.293 42L167.464 44.8284C167.269 45.0237 167.269 45.3403 167.464 45.5355C167.66 45.7308 167.976 45.7308 168.172 45.5355L171.354 42.3536ZM148 42.5H171V41.5H148V42.5Z" fill="black"/>
<path d="M231.354 42.3536C231.549 42.1583 231.549 41.8417 231.354 41.6464L228.172 38.4645C227.976 38.2692 227.66 38.2692 227.464 38.4645C227.269 38.6597 227.269 38.9763 227.464 39.1716L230.293 42L227.464 44.8284C227.269 45.0237 227.269 45.3403 227.464 45.5355C227.66 45.7308 227.976 45.7308 228.172 45.5355L231.354 42.3536ZM208 42.5H231V41.5H208V42.5Z" fill="black"/>
<path d="M54.0161 28.4997C54.2921 28.4908 54.5086 28.2599 54.4997 27.9839L54.3547 23.4862C54.3458 23.2102 54.1148 22.9937 53.8388 23.0026C53.5628 23.0115 53.3463 23.2425 53.3552 23.5185L53.4841 27.5164L49.4862 27.6453C49.2102 27.6542 48.9937 27.8852 49.0026 28.1612C49.0115 28.4372 49.2425 28.6537 49.5185 28.6448L54.0161 28.4997ZM37.658 13.3648L53.658 28.3648L54.342 27.6352L38.342 12.6352L37.658 13.3648Z" fill="#0B3AB5"/>
<path d="M3.24746 6.61C3.46413 6.38 3.70413 6.19667 3.96746 6.06C4.23079 5.92333 4.53413 5.855 4.87746 5.855C5.15413 5.855 5.39746 5.90167 5.60746 5.995C5.82079 6.085 5.99746 6.215 6.13746 6.385C6.28079 6.55167 6.38913 6.75333 6.46246 6.99C6.53579 7.22667 6.57246 7.48833 6.57246 7.775V11H5.67746V7.775C5.67746 7.39167 5.58913 7.095 5.41246 6.885C5.23913 6.67167 4.97413 6.565 4.61746 6.565C4.35413 6.565 4.10746 6.62833 3.87746 6.755C3.65079 6.88167 3.44079 7.05333 3.24746 7.27V11H2.35246V3.635H3.24746V6.61ZM11.3186 7.915C11.3186 7.70833 11.2886 7.52 11.2286 7.35C11.172 7.17667 11.087 7.02833 10.9736 6.905C10.8636 6.77833 10.7286 6.68167 10.5686 6.615C10.4086 6.545 10.227 6.51 10.0236 6.51C9.59697 6.51 9.25863 6.635 9.00863 6.885C8.76197 7.13167 8.60863 7.475 8.54863 7.915H11.3186ZM12.0386 10.29C11.9286 10.4233 11.797 10.54 11.6436 10.64C11.4903 10.7367 11.3253 10.8167 11.1486 10.88C10.9753 10.9433 10.7953 10.99 10.6086 11.02C10.422 11.0533 10.237 11.07 10.0536 11.07C9.70363 11.07 9.3803 11.0117 9.08363 10.895C8.7903 10.775 8.5353 10.6017 8.31863 10.375C8.1053 10.145 7.93863 9.86167 7.81863 9.525C7.69863 9.18833 7.63863 8.80167 7.63863 8.365C7.63863 8.01167 7.69197 7.68167 7.79863 7.375C7.90863 7.06833 8.0653 6.80333 8.26863 6.58C8.47197 6.35333 8.7203 6.17667 9.01363 6.05C9.30697 5.92 9.63697 5.855 10.0036 5.855C10.307 5.855 10.587 5.90667 10.8436 6.01C11.1036 6.11 11.327 6.25667 11.5136 6.45C11.7036 6.64 11.852 6.87667 11.9586 7.16C12.0653 7.44 12.1186 7.76 12.1186 8.12C12.1186 8.26 12.1036 8.35333 12.0736 8.4C12.0436 8.44667 11.987 8.47 11.9036 8.47H8.51863C8.52863 8.79 8.57197 9.06833 8.64863 9.305C8.72863 9.54167 8.83863 9.74 8.97863 9.9C9.11863 10.0567 9.2853 10.175 9.47863 10.255C9.67197 10.3317 9.88863 10.37 10.1286 10.37C10.352 10.37 10.5436 10.345 10.7036 10.295C10.867 10.2417 11.007 10.185 11.1236 10.125C11.2403 10.065 11.337 10.01 11.4136 9.96C11.4936 9.90667 11.562 9.88 11.6186 9.88C11.692 9.88 11.7486 9.90833 11.7886 9.965L12.0386 10.29ZM15.9568 8.72C15.5468 8.73333 15.1968 8.76667 14.9068 8.82C14.6202 8.87 14.3852 8.93667 14.2018 9.02C14.0218 9.10333 13.8902 9.20167 13.8068 9.315C13.7268 9.42833 13.6868 9.555 13.6868 9.695C13.6868 9.82833 13.7085 9.94333 13.7518 10.04C13.7952 10.1367 13.8535 10.2167 13.9268 10.28C14.0035 10.34 14.0918 10.385 14.1918 10.415C14.2952 10.4417 14.4052 10.455 14.5218 10.455C14.6785 10.455 14.8218 10.44 14.9518 10.41C15.0818 10.3767 15.2035 10.33 15.3168 10.27C15.4335 10.21 15.5435 10.1383 15.6468 10.055C15.7535 9.97167 15.8568 9.87667 15.9568 9.77V8.72ZM13.0818 6.65C13.3618 6.38 13.6635 6.17833 13.9868 6.045C14.3102 5.91167 14.6685 5.845 15.0618 5.845C15.3452 5.845 15.5968 5.89167 15.8168 5.985C16.0368 6.07833 16.2218 6.20833 16.3718 6.375C16.5218 6.54167 16.6352 6.74333 16.7118 6.98C16.7885 7.21667 16.8268 7.47667 16.8268 7.76V11H16.4318C16.3452 11 16.2785 10.9867 16.2318 10.96C16.1852 10.93 16.1485 10.8733 16.1218 10.79L16.0218 10.31C15.8885 10.4333 15.7585 10.5433 15.6318 10.64C15.5052 10.7333 15.3718 10.8133 15.2318 10.88C15.0918 10.9433 14.9418 10.9917 14.7818 11.025C14.6252 11.0617 14.4502 11.08 14.2568 11.08C14.0602 11.08 13.8752 11.0533 13.7018 11C13.5285 10.9433 13.3768 10.86 13.2468 10.75C13.1202 10.64 13.0185 10.5017 12.9418 10.335C12.8685 10.165 12.8318 9.965 12.8318 9.735C12.8318 9.535 12.8868 9.34333 12.9968 9.16C13.1068 8.97333 13.2852 8.80833 13.5318 8.665C13.7785 8.52167 14.1002 8.405 14.4968 8.315C14.8935 8.22167 15.3802 8.16833 15.9568 8.155V7.76C15.9568 7.36667 15.8718 7.07 15.7018 6.87C15.5318 6.66667 15.2835 6.565 14.9568 6.565C14.7368 6.565 14.5518 6.59333 14.4018 6.65C14.2552 6.70333 14.1268 6.765 14.0168 6.835C13.9102 6.90167 13.8168 6.96333 13.7368 7.02C13.6602 7.07333 13.5835 7.1 13.5068 7.1C13.4468 7.1 13.3952 7.085 13.3518 7.055C13.3085 7.02167 13.2718 6.98167 13.2418 6.935L13.0818 6.65ZM21.4825 7.14C21.3159 6.91667 21.1359 6.76167 20.9425 6.675C20.7492 6.585 20.5325 6.54 20.2925 6.54C19.8225 6.54 19.4609 6.70833 19.2075 7.045C18.9542 7.38167 18.8275 7.86167 18.8275 8.485C18.8275 8.815 18.8559 9.09833 18.9125 9.335C18.9692 9.56833 19.0525 9.76167 19.1625 9.915C19.2725 10.065 19.4075 10.175 19.5675 10.245C19.7275 10.315 19.9092 10.35 20.1125 10.35C20.4059 10.35 20.6609 10.2833 20.8775 10.15C21.0975 10.0167 21.2992 9.82833 21.4825 9.585V7.14ZM22.3725 3.635V11H21.8425C21.7159 11 21.6359 10.9383 21.6025 10.815L21.5225 10.2C21.3059 10.46 21.0592 10.67 20.7825 10.83C20.5059 10.99 20.1859 11.07 19.8225 11.07C19.5325 11.07 19.2692 11.015 19.0325 10.905C18.7959 10.7917 18.5942 10.6267 18.4275 10.41C18.2609 10.1933 18.1325 9.92333 18.0425 9.6C17.9525 9.27667 17.9075 8.905 17.9075 8.485C17.9075 8.11167 17.9575 7.765 18.0575 7.445C18.1575 7.12167 18.3009 6.84167 18.4875 6.605C18.6742 6.36833 18.9025 6.18333 19.1725 6.05C19.4459 5.91333 19.7525 5.845 20.0925 5.845C20.4025 5.845 20.6675 5.89833 20.8875 6.005C21.1109 6.10833 21.3092 6.25333 21.4825 6.44V3.635H22.3725ZM26.8568 7.855C26.8568 8.56833 26.9468 9.26167 27.1268 9.935C27.3102 10.6083 27.5768 11.2483 27.9268 11.855C27.9802 11.9583 27.9935 12.0367 27.9668 12.09C27.9402 12.1467 27.9018 12.1917 27.8518 12.225L27.4568 12.465C27.2068 12.0817 26.9935 11.7017 26.8168 11.325C26.6435 10.9483 26.5018 10.57 26.3918 10.19C26.2852 9.81 26.2068 9.42833 26.1568 9.045C26.1068 8.65833 26.0818 8.26167 26.0818 7.855C26.0818 7.45167 26.1068 7.05667 26.1568 6.67C26.2068 6.28333 26.2852 5.90167 26.3918 5.525C26.5018 5.145 26.6435 4.76667 26.8168 4.39C26.9935 4.01333 27.2068 3.63167 27.4568 3.245L27.8518 3.49C27.9018 3.52333 27.9402 3.56833 27.9668 3.625C27.9935 3.67833 27.9802 3.755 27.9268 3.855C27.5768 4.46167 27.3102 5.10167 27.1268 5.775C26.9468 6.44833 26.8568 7.14167 26.8568 7.855ZM30.3723 11.08C29.9723 11.08 29.664 10.9683 29.4473 10.745C29.234 10.5217 29.1273 10.2 29.1273 9.78V6.68H28.5173C28.464 6.68 28.419 6.665 28.3823 6.635C28.3456 6.60167 28.3273 6.55167 28.3273 6.485V6.13L29.1573 6.025L29.3623 4.46C29.3723 4.41 29.394 4.37 29.4273 4.34C29.464 4.30667 29.5106 4.29 29.5673 4.29H30.0173V6.035H31.4823V6.68H30.0173V9.72C30.0173 9.93333 30.069 10.0917 30.1723 10.195C30.2756 10.2983 30.409 10.35 30.5723 10.35C30.6656 10.35 30.7456 10.3383 30.8123 10.315C30.8823 10.2883 30.9423 10.26 30.9923 10.23C31.0423 10.2 31.084 10.1733 31.1173 10.15C31.154 10.1233 31.1856 10.11 31.2123 10.11C31.259 10.11 31.3006 10.1383 31.3373 10.195L31.5973 10.62C31.444 10.7633 31.259 10.8767 31.0423 10.96C30.8256 11.04 30.6023 11.08 30.3723 11.08ZM34.507 5.855C34.877 5.855 35.2103 5.91667 35.507 6.04C35.8037 6.16333 36.057 6.33833 36.267 6.565C36.477 6.79167 36.637 7.06667 36.747 7.39C36.8603 7.71 36.917 8.06833 36.917 8.465C36.917 8.865 36.8603 9.225 36.747 9.545C36.637 9.865 36.477 10.1383 36.267 10.365C36.057 10.5917 35.8037 10.7667 35.507 10.89C35.2103 11.01 34.877 11.07 34.507 11.07C34.1337 11.07 33.797 11.01 33.497 10.89C33.2003 10.7667 32.947 10.5917 32.737 10.365C32.527 10.1383 32.3653 9.865 32.252 9.545C32.142 9.225 32.087 8.865 32.087 8.465C32.087 8.06833 32.142 7.71 32.252 7.39C32.3653 7.06667 32.527 6.79167 32.737 6.565C32.947 6.33833 33.2003 6.16333 33.497 6.04C33.797 5.91667 34.1337 5.855 34.507 5.855ZM34.507 10.375C35.007 10.375 35.3803 10.2083 35.627 9.875C35.8737 9.53833 35.997 9.07 35.997 8.47C35.997 7.86667 35.8737 7.39667 35.627 7.06C35.3803 6.72333 35.007 6.555 34.507 6.555C34.2537 6.555 34.032 6.59833 33.842 6.685C33.6553 6.77167 33.4987 6.89667 33.372 7.06C33.2487 7.22333 33.1553 7.425 33.092 7.665C33.032 7.90167 33.002 8.17 33.002 8.47C33.002 9.07 33.1253 9.53833 33.372 9.875C33.622 10.2083 34.0003 10.375 34.507 10.375ZM38.9408 9.78C39.1042 10 39.2825 10.155 39.4758 10.245C39.6692 10.335 39.8858 10.38 40.1258 10.38C40.5992 10.38 40.9625 10.2117 41.2158 9.875C41.4692 9.53833 41.5958 9.05833 41.5958 8.435C41.5958 8.105 41.5658 7.82167 41.5058 7.585C41.4492 7.34833 41.3658 7.155 41.2558 7.005C41.1458 6.85167 41.0108 6.74 40.8508 6.67C40.6908 6.6 40.5092 6.565 40.3058 6.565C40.0158 6.565 39.7608 6.63167 39.5408 6.765C39.3242 6.89833 39.1242 7.08667 38.9408 7.33V9.78ZM38.8958 6.72C39.1092 6.45667 39.3558 6.245 39.6358 6.085C39.9158 5.925 40.2358 5.845 40.5958 5.845C40.8892 5.845 41.1542 5.90167 41.3908 6.015C41.6275 6.125 41.8292 6.29 41.9958 6.51C42.1625 6.72667 42.2908 6.99667 42.3808 7.32C42.4708 7.64333 42.5158 8.015 42.5158 8.435C42.5158 8.80833 42.4658 9.15667 42.3658 9.48C42.2658 9.8 42.1208 10.0783 41.9308 10.315C41.7442 10.5483 41.5142 10.7333 41.2408 10.87C40.9708 11.0033 40.6658 11.07 40.3258 11.07C40.0158 11.07 39.7492 11.0183 39.5258 10.915C39.3058 10.8083 39.1108 10.6617 38.9408 10.475V12.715H38.0458V5.935H38.5808C38.7075 5.935 38.7858 5.99667 38.8158 6.12L38.8958 6.72ZM48.3449 5.855C48.7149 5.855 49.0482 5.91667 49.3449 6.04C49.6415 6.16333 49.8949 6.33833 50.1049 6.565C50.3149 6.79167 50.4749 7.06667 50.5849 7.39C50.6982 7.71 50.7549 8.06833 50.7549 8.465C50.7549 8.865 50.6982 9.225 50.5849 9.545C50.4749 9.865 50.3149 10.1383 50.1049 10.365C49.8949 10.5917 49.6415 10.7667 49.3449 10.89C49.0482 11.01 48.7149 11.07 48.3449 11.07C47.9715 11.07 47.6349 11.01 47.3349 10.89C47.0382 10.7667 46.7849 10.5917 46.5749 10.365C46.3649 10.1383 46.2032 9.865 46.0899 9.545C45.9799 9.225 45.9249 8.865 45.9249 8.465C45.9249 8.06833 45.9799 7.71 46.0899 7.39C46.2032 7.06667 46.3649 6.79167 46.5749 6.565C46.7849 6.33833 47.0382 6.16333 47.3349 6.04C47.6349 5.91667 47.9715 5.855 48.3449 5.855ZM48.3449 10.375C48.8449 10.375 49.2182 10.2083 49.4649 9.875C49.7115 9.53833 49.8349 9.07 49.8349 8.47C49.8349 7.86667 49.7115 7.39667 49.4649 7.06C49.2182 6.72333 48.8449 6.555 48.3449 6.555C48.0915 6.555 47.8699 6.59833 47.6799 6.685C47.4932 6.77167 47.3365 6.89667 47.2099 7.06C47.0865 7.22333 46.9932 7.425 46.9299 7.665C46.8699 7.90167 46.8399 8.17 46.8399 8.47C46.8399 9.07 46.9632 9.53833 47.2099 9.875C47.4599 10.2083 47.8382 10.375 48.3449 10.375ZM52.1063 11V6.695L51.5463 6.63C51.4763 6.61333 51.418 6.58833 51.3713 6.555C51.328 6.51833 51.3063 6.46667 51.3063 6.4V6.035H52.1063V5.545C52.1063 5.255 52.1463 4.99833 52.2263 4.775C52.3096 4.54833 52.4263 4.35833 52.5763 4.205C52.7296 4.04833 52.913 3.93 53.1263 3.85C53.3396 3.77 53.5796 3.73 53.8463 3.73C54.073 3.73 54.2813 3.76333 54.4713 3.83L54.4513 4.275C54.4446 4.355 54.3996 4.39833 54.3163 4.405C54.2363 4.41167 54.128 4.415 53.9913 4.415C53.838 4.415 53.698 4.435 53.5713 4.475C53.448 4.515 53.3413 4.58 53.2513 4.67C53.1613 4.76 53.0913 4.87833 53.0413 5.025C52.9946 5.17167 52.9713 5.35333 52.9713 5.57V6.035H54.4313V6.68H53.0013V11H52.1063ZM59.2102 11.08C58.8102 11.08 58.5019 10.9683 58.2852 10.745C58.0719 10.5217 57.9652 10.2 57.9652 9.78V6.68H57.3552C57.3019 6.68 57.2569 6.665 57.2202 6.635C57.1835 6.60167 57.1652 6.55167 57.1652 6.485V6.13L57.9952 6.025L58.2002 4.46C58.2102 4.41 58.2319 4.37 58.2652 4.34C58.3019 4.30667 58.3485 4.29 58.4052 4.29H58.8552V6.035H60.3202V6.68H58.8552V9.72C58.8552 9.93333 58.9069 10.0917 59.0102 10.195C59.1135 10.2983 59.2469 10.35 59.4102 10.35C59.5035 10.35 59.5835 10.3383 59.6502 10.315C59.7202 10.2883 59.7802 10.26 59.8302 10.23C59.8802 10.2 59.9219 10.1733 59.9552 10.15C59.9919 10.1233 60.0235 10.11 60.0502 10.11C60.0969 10.11 60.1385 10.1383 60.1752 10.195L60.4352 10.62C60.2819 10.7633 60.0969 10.8767 59.8802 10.96C59.6635 11.04 59.4402 11.08 59.2102 11.08ZM62.1342 6.61C62.3508 6.38 62.5908 6.19667 62.8542 6.06C63.1175 5.92333 63.4208 5.855 63.7642 5.855C64.0408 5.855 64.2842 5.90167 64.4942 5.995C64.7075 6.085 64.8842 6.215 65.0242 6.385C65.1675 6.55167 65.2758 6.75333 65.3492 6.99C65.4225 7.22667 65.4592 7.48833 65.4592 7.775V11H64.5642V7.775C64.5642 7.39167 64.4758 7.095 64.2992 6.885C64.1258 6.67167 63.8608 6.565 63.5042 6.565C63.2408 6.565 62.9942 6.62833 62.7642 6.755C62.5375 6.88167 62.3275 7.05333 62.1342 7.27V11H61.2392V3.635H62.1342V6.61ZM70.2054 7.915C70.2054 7.70833 70.1754 7.52 70.1154 7.35C70.0587 7.17667 69.9737 7.02833 69.8604 6.905C69.7504 6.77833 69.6154 6.68167 69.4554 6.615C69.2954 6.545 69.1137 6.51 68.9104 6.51C68.4837 6.51 68.1454 6.635 67.8954 6.885C67.6487 7.13167 67.4954 7.475 67.4354 7.915H70.2054ZM70.9254 10.29C70.8154 10.4233 70.6837 10.54 70.5304 10.64C70.377 10.7367 70.212 10.8167 70.0354 10.88C69.862 10.9433 69.682 10.99 69.4954 11.02C69.3087 11.0533 69.1237 11.07 68.9404 11.07C68.5904 11.07 68.267 11.0117 67.9704 10.895C67.677 10.775 67.422 10.6017 67.2054 10.375C66.992 10.145 66.8254 9.86167 66.7054 9.525C66.5854 9.18833 66.5254 8.80167 66.5254 8.365C66.5254 8.01167 66.5787 7.68167 66.6854 7.375C66.7954 7.06833 66.952 6.80333 67.1554 6.58C67.3587 6.35333 67.607 6.17667 67.9004 6.05C68.1937 5.92 68.5237 5.855 68.8904 5.855C69.1937 5.855 69.4737 5.90667 69.7304 6.01C69.9904 6.11 70.2137 6.25667 70.4004 6.45C70.5904 6.64 70.7387 6.87667 70.8454 7.16C70.952 7.44 71.0054 7.76 71.0054 8.12C71.0054 8.26 70.9904 8.35333 70.9604 8.4C70.9304 8.44667 70.8737 8.47 70.7904 8.47H67.4054C67.4154 8.79 67.4587 9.06833 67.5354 9.305C67.6154 9.54167 67.7254 9.74 67.8654 9.9C68.0054 10.0567 68.172 10.175 68.3654 10.255C68.5587 10.3317 68.7754 10.37 69.0154 10.37C69.2387 10.37 69.4304 10.345 69.5904 10.295C69.7537 10.2417 69.8937 10.185 70.0104 10.125C70.127 10.065 70.2237 10.01 70.3004 9.96C70.3804 9.90667 70.4487 9.88 70.5054 9.88C70.5787 9.88 70.6354 9.90833 70.6754 9.965L70.9254 10.29ZM77.6071 6.77C77.5671 6.84333 77.5055 6.88 77.4221 6.88C77.3721 6.88 77.3155 6.86167 77.2521 6.825C77.1888 6.78833 77.1105 6.74833 77.0171 6.705C76.9271 6.65833 76.8188 6.61667 76.6921 6.58C76.5655 6.54 76.4155 6.52 76.2421 6.52C76.0921 6.52 75.9571 6.54 75.8371 6.58C75.7171 6.61667 75.6138 6.66833 75.5271 6.735C75.4438 6.80167 75.3788 6.88 75.3321 6.97C75.2888 7.05667 75.2671 7.15167 75.2671 7.255C75.2671 7.385 75.3038 7.49333 75.3771 7.58C75.4538 7.66667 75.5538 7.74167 75.6771 7.805C75.8005 7.86833 75.9405 7.925 76.0971 7.975C76.2538 8.02167 76.4138 8.07333 76.5771 8.13C76.7438 8.18333 76.9055 8.24333 77.0621 8.31C77.2188 8.37667 77.3588 8.46 77.4821 8.56C77.6055 8.66 77.7038 8.78333 77.7771 8.93C77.8538 9.07333 77.8921 9.24667 77.8921 9.45C77.8921 9.68333 77.8505 9.9 77.7671 10.1C77.6838 10.2967 77.5605 10.4683 77.3971 10.615C77.2338 10.7583 77.0338 10.8717 76.7971 10.955C76.5605 11.0383 76.2871 11.08 75.9771 11.08C75.6238 11.08 75.3038 11.0233 75.0171 10.91C74.7305 10.7933 74.4871 10.645 74.2871 10.465L74.4971 10.125C74.5238 10.0817 74.5555 10.0483 74.5921 10.025C74.6288 10.0017 74.6755 9.99 74.7321 9.99C74.7921 9.99 74.8555 10.0133 74.9221 10.06C74.9888 10.1067 75.0688 10.1583 75.1621 10.215C75.2588 10.2717 75.3755 10.3233 75.5121 10.37C75.6488 10.4167 75.8188 10.44 76.0221 10.44C76.1955 10.44 76.3471 10.4183 76.4771 10.375C76.6071 10.3283 76.7155 10.2667 76.8021 10.19C76.8888 10.1133 76.9521 10.025 76.9921 9.925C77.0355 9.825 77.0571 9.71833 77.0571 9.605C77.0571 9.465 77.0188 9.35 76.9421 9.26C76.8688 9.16667 76.7705 9.08833 76.6471 9.025C76.5238 8.95833 76.3821 8.90167 76.2221 8.855C76.0655 8.805 75.9038 8.75333 75.7371 8.7C75.5738 8.64667 75.4121 8.58667 75.2521 8.52C75.0955 8.45 74.9555 8.36333 74.8321 8.26C74.7088 8.15667 74.6088 8.03 74.5321 7.88C74.4588 7.72667 74.4221 7.54167 74.4221 7.325C74.4221 7.13167 74.4621 6.94667 74.5421 6.77C74.6221 6.59 74.7388 6.43333 74.8921 6.3C75.0455 6.16333 75.2338 6.055 75.4571 5.975C75.6805 5.895 75.9355 5.855 76.2221 5.855C76.5555 5.855 76.8538 5.90833 77.1171 6.015C77.3838 6.11833 77.6138 6.26167 77.8071 6.445L77.6071 6.77ZM80.5383 11.08C80.1383 11.08 79.83 10.9683 79.6133 10.745C79.4 10.5217 79.2933 10.2 79.2933 9.78V6.68H78.6833C78.63 6.68 78.585 6.665 78.5483 6.635C78.5117 6.60167 78.4933 6.55167 78.4933 6.485V6.13L79.3233 6.025L79.5283 4.46C79.5383 4.41 79.56 4.37 79.5933 4.34C79.63 4.30667 79.6767 4.29 79.7333 4.29H80.1833V6.035H81.6483V6.68H80.1833V9.72C80.1833 9.93333 80.235 10.0917 80.3383 10.195C80.4417 10.2983 80.575 10.35 80.7383 10.35C80.8317 10.35 80.9117 10.3383 80.9783 10.315C81.0483 10.2883 81.1083 10.26 81.1583 10.23C81.2083 10.2 81.25 10.1733 81.2833 10.15C81.32 10.1233 81.3517 10.11 81.3783 10.11C81.425 10.11 81.4667 10.1383 81.5033 10.195L81.7633 10.62C81.61 10.7633 81.425 10.8767 81.2083 10.96C80.9917 11.04 80.7683 11.08 80.5383 11.08ZM85.3123 8.72C84.9023 8.73333 84.5523 8.76667 84.2623 8.82C83.9756 8.87 83.7406 8.93667 83.5573 9.02C83.3773 9.10333 83.2456 9.20167 83.1623 9.315C83.0823 9.42833 83.0423 9.555 83.0423 9.695C83.0423 9.82833 83.064 9.94333 83.1073 10.04C83.1506 10.1367 83.209 10.2167 83.2823 10.28C83.359 10.34 83.4473 10.385 83.5473 10.415C83.6506 10.4417 83.7606 10.455 83.8773 10.455C84.034 10.455 84.1773 10.44 84.3073 10.41C84.4373 10.3767 84.559 10.33 84.6723 10.27C84.789 10.21 84.899 10.1383 85.0023 10.055C85.109 9.97167 85.2123 9.87667 85.3123 9.77V8.72ZM82.4373 6.65C82.7173 6.38 83.019 6.17833 83.3423 6.045C83.6656 5.91167 84.024 5.845 84.4173 5.845C84.7006 5.845 84.9523 5.89167 85.1723 5.985C85.3923 6.07833 85.5773 6.20833 85.7273 6.375C85.8773 6.54167 85.9906 6.74333 86.0673 6.98C86.144 7.21667 86.1823 7.47667 86.1823 7.76V11H85.7873C85.7006 11 85.634 10.9867 85.5873 10.96C85.5406 10.93 85.504 10.8733 85.4773 10.79L85.3773 10.31C85.244 10.4333 85.114 10.5433 84.9873 10.64C84.8606 10.7333 84.7273 10.8133 84.5873 10.88C84.4473 10.9433 84.2973 10.9917 84.1373 11.025C83.9806 11.0617 83.8056 11.08 83.6123 11.08C83.4156 11.08 83.2306 11.0533 83.0573 11C82.884 10.9433 82.7323 10.86 82.6023 10.75C82.4756 10.64 82.374 10.5017 82.2973 10.335C82.224 10.165 82.1873 9.965 82.1873 9.735C82.1873 9.535 82.2423 9.34333 82.3523 9.16C82.4623 8.97333 82.6406 8.80833 82.8873 8.665C83.134 8.52167 83.4556 8.405 83.8523 8.315C84.249 8.22167 84.7356 8.16833 85.3123 8.155V7.76C85.3123 7.36667 85.2273 7.07 85.0573 6.87C84.8873 6.66667 84.639 6.565 84.3123 6.565C84.0923 6.565 83.9073 6.59333 83.7573 6.65C83.6106 6.70333 83.4823 6.765 83.3723 6.835C83.2656 6.90167 83.1723 6.96333 83.0923 7.02C83.0156 7.07333 82.939 7.1 82.8623 7.1C82.8023 7.1 82.7506 7.085 82.7073 7.055C82.664 7.02167 82.6273 6.98167 82.5973 6.935L82.4373 6.65ZM91.063 6.835C91.0363 6.87167 91.0097 6.9 90.983 6.92C90.9563 6.94 90.9197 6.95 90.873 6.95C90.823 6.95 90.768 6.93 90.708 6.89C90.648 6.84667 90.573 6.8 90.483 6.75C90.3963 6.7 90.288 6.655 90.158 6.615C90.0313 6.57167 89.8747 6.55 89.688 6.55C89.438 6.55 89.218 6.595 89.028 6.685C88.838 6.77167 88.678 6.89833 88.548 7.065C88.4213 7.23167 88.3247 7.43333 88.258 7.67C88.1947 7.90667 88.163 8.17167 88.163 8.465C88.163 8.77167 88.198 9.045 88.268 9.285C88.338 9.52167 88.4363 9.72167 88.563 9.885C88.693 10.045 88.848 10.1683 89.028 10.255C89.2113 10.3383 89.4163 10.38 89.643 10.38C89.8597 10.38 90.038 10.355 90.178 10.305C90.318 10.2517 90.433 10.1933 90.523 10.13C90.6163 10.0667 90.693 10.01 90.753 9.96C90.8163 9.90667 90.878 9.88 90.938 9.88C91.0113 9.88 91.068 9.90833 91.108 9.965L91.358 10.29C91.248 10.4267 91.123 10.5433 90.983 10.64C90.843 10.7367 90.6913 10.8183 90.528 10.885C90.368 10.9483 90.1997 10.995 90.023 11.025C89.8463 11.055 89.6663 11.07 89.483 11.07C89.1663 11.07 88.8713 11.0117 88.598 10.895C88.328 10.7783 88.093 10.61 87.893 10.39C87.693 10.1667 87.5363 9.89333 87.423 9.57C87.3097 9.24667 87.253 8.87833 87.253 8.465C87.253 8.08833 87.3047 7.74 87.408 7.42C87.5147 7.1 87.668 6.825 87.868 6.595C88.0713 6.36167 88.3197 6.18 88.613 6.05C88.9097 5.92 89.2497 5.855 89.633 5.855C89.9897 5.855 90.303 5.91333 90.573 6.03C90.8463 6.14333 91.088 6.305 91.298 6.515L91.063 6.835ZM93.2084 3.635V7.97H93.4384C93.5051 7.97 93.5601 7.96167 93.6034 7.945C93.6501 7.925 93.6984 7.88667 93.7484 7.83L95.3484 6.115C95.3951 6.05833 95.4434 6.015 95.4934 5.985C95.5467 5.95167 95.6167 5.935 95.7034 5.935H96.5084L94.6434 7.92C94.5534 8.03333 94.4567 8.12167 94.3534 8.185C94.4134 8.225 94.4667 8.27167 94.5134 8.325C94.5634 8.375 94.6101 8.43333 94.6534 8.5L96.6334 11H95.8384C95.7617 11 95.6951 10.9883 95.6384 10.965C95.5851 10.9383 95.5384 10.8917 95.4984 10.825L93.8334 8.75C93.7834 8.68 93.7334 8.635 93.6834 8.615C93.6367 8.59167 93.5634 8.58 93.4634 8.58H93.2084V11H92.3134V3.635H93.2084ZM98.1315 7.855C98.1315 7.14167 98.0399 6.44833 97.8565 5.775C97.6765 5.10167 97.4115 4.46167 97.0615 3.855C97.0349 3.805 97.0182 3.76167 97.0115 3.725C97.0049 3.685 97.0065 3.65167 97.0165 3.625C97.0265 3.595 97.0415 3.57 97.0615 3.55C97.0849 3.52667 97.1099 3.50667 97.1365 3.49L97.5315 3.245C97.7815 3.63167 97.9932 4.01333 98.1665 4.39C98.3432 4.76667 98.4849 5.145 98.5915 5.525C98.7015 5.90167 98.7815 6.28333 98.8315 6.67C98.8815 7.05667 98.9065 7.45167 98.9065 7.855C98.9065 8.26167 98.8815 8.65833 98.8315 9.045C98.7815 9.42833 98.7015 9.81 98.5915 10.19C98.4849 10.57 98.3432 10.9483 98.1665 11.325C97.9932 11.7017 97.7815 12.0817 97.5315 12.465L97.1365 12.225C97.1099 12.2083 97.0849 12.1883 97.0615 12.165C97.0415 12.145 97.0265 12.12 97.0165 12.09C97.0065 12.0633 97.0049 12.03 97.0115 11.99C97.0182 11.95 97.0349 11.905 97.0615 11.855C97.4115 11.2483 97.6765 10.6083 97.8565 9.935C98.0399 9.26167 98.1315 8.56833 98.1315 7.855Z" fill="#0B3AB5"/>
<path d="M88.8673 73.67C88.9773 73.5467 89.0939 73.435 89.2173 73.335C89.3406 73.235 89.4706 73.15 89.6073 73.08C89.7473 73.0067 89.8939 72.9517 90.0473 72.915C90.2039 72.875 90.3723 72.855 90.5523 72.855C90.8289 72.855 91.0723 72.9017 91.2823 72.995C91.4956 73.085 91.6723 73.215 91.8123 73.385C91.9556 73.5517 92.0639 73.7533 92.1373 73.99C92.2106 74.2267 92.2473 74.4883 92.2473 74.775V78H91.3523V74.775C91.3523 74.3917 91.2639 74.095 91.0873 73.885C90.9139 73.6717 90.6489 73.565 90.2923 73.565C90.0289 73.565 89.7823 73.6283 89.5523 73.755C89.3256 73.8817 89.1156 74.0533 88.9223 74.27V78H88.0273V72.935H88.5623C88.6889 72.935 88.7673 72.9967 88.7973 73.12L88.8673 73.67ZM96.9934 74.915C96.9934 74.7083 96.9634 74.52 96.9034 74.35C96.8468 74.1767 96.7618 74.0283 96.6484 73.905C96.5384 73.7783 96.4034 73.6817 96.2434 73.615C96.0834 73.545 95.9018 73.51 95.6984 73.51C95.2718 73.51 94.9334 73.635 94.6834 73.885C94.4368 74.1317 94.2834 74.475 94.2234 74.915H96.9934ZM97.7134 77.29C97.6034 77.4233 97.4718 77.54 97.3184 77.64C97.1651 77.7367 97.0001 77.8167 96.8234 77.88C96.6501 77.9433 96.4701 77.99 96.2834 78.02C96.0968 78.0533 95.9118 78.07 95.7284 78.07C95.3784 78.07 95.0551 78.0117 94.7584 77.895C94.4651 77.775 94.2101 77.6017 93.9934 77.375C93.7801 77.145 93.6134 76.8617 93.4934 76.525C93.3734 76.1883 93.3134 75.8017 93.3134 75.365C93.3134 75.0117 93.3668 74.6817 93.4734 74.375C93.5834 74.0683 93.7401 73.8033 93.9434 73.58C94.1468 73.3533 94.3951 73.1767 94.6884 73.05C94.9818 72.92 95.3118 72.855 95.6784 72.855C95.9818 72.855 96.2618 72.9067 96.5184 73.01C96.7784 73.11 97.0018 73.2567 97.1884 73.45C97.3784 73.64 97.5268 73.8767 97.6334 74.16C97.7401 74.44 97.7934 74.76 97.7934 75.12C97.7934 75.26 97.7784 75.3533 97.7484 75.4C97.7184 75.4467 97.6618 75.47 97.5784 75.47H94.1934C94.2034 75.79 94.2468 76.0683 94.3234 76.305C94.4034 76.5417 94.5134 76.74 94.6534 76.9C94.7934 77.0567 94.9601 77.175 95.1534 77.255C95.3468 77.3317 95.5634 77.37 95.8034 77.37C96.0268 77.37 96.2184 77.345 96.3784 77.295C96.5418 77.2417 96.6818 77.185 96.7984 77.125C96.9151 77.065 97.0118 77.01 97.0884 76.96C97.1684 76.9067 97.2368 76.88 97.2934 76.88C97.3668 76.88 97.4234 76.9083 97.4634 76.965L97.7134 77.29ZM102.978 78H102.123C102.05 78 101.992 77.9817 101.948 77.945C101.908 77.905 101.875 77.8617 101.848 77.815L100.573 75.83C100.56 75.8767 100.545 75.9233 100.528 75.97C100.515 76.0133 100.495 76.0533 100.468 76.09L99.2883 77.815C99.2549 77.8617 99.2183 77.905 99.1783 77.945C99.1416 77.9817 99.0899 78 99.0233 78H98.2283L100.003 75.4L98.2983 72.935H99.1533C99.2266 72.935 99.2799 72.9467 99.3133 72.97C99.3466 72.9933 99.3766 73.0267 99.4033 73.07L100.648 74.97C100.675 74.8733 100.717 74.78 100.773 74.69L101.863 73.09C101.893 73.0433 101.925 73.0067 101.958 72.98C101.995 72.95 102.038 72.935 102.088 72.935H102.908L101.203 75.355L102.978 78ZM105.354 78.08C104.954 78.08 104.645 77.9683 104.429 77.745C104.215 77.5217 104.109 77.2 104.109 76.78V73.68H103.499C103.445 73.68 103.4 73.665 103.364 73.635C103.327 73.6017 103.309 73.5517 103.309 73.485V73.13L104.139 73.025L104.344 71.46C104.354 71.41 104.375 71.37 104.409 71.34C104.445 71.3067 104.492 71.29 104.549 71.29H104.999V73.035H106.464V73.68H104.999V76.72C104.999 76.9333 105.05 77.0917 105.154 77.195C105.257 77.2983 105.39 77.35 105.554 77.35C105.647 77.35 105.727 77.3383 105.794 77.315C105.864 77.2883 105.924 77.26 105.974 77.23C106.024 77.2 106.065 77.1733 106.099 77.15C106.135 77.1233 106.167 77.11 106.194 77.11C106.24 77.11 106.282 77.1383 106.319 77.195L106.579 77.62C106.425 77.7633 106.24 77.8767 106.024 77.96C105.807 78.04 105.584 78.08 105.354 78.08ZM82.765 88.78C82.9284 89 83.1067 89.155 83.3 89.245C83.4934 89.335 83.71 89.38 83.95 89.38C84.4234 89.38 84.7867 89.2117 85.04 88.875C85.2934 88.5383 85.42 88.0583 85.42 87.435C85.42 87.105 85.39 86.8217 85.33 86.585C85.2734 86.3483 85.19 86.155 85.08 86.005C84.97 85.8517 84.835 85.74 84.675 85.67C84.515 85.6 84.3334 85.565 84.13 85.565C83.84 85.565 83.585 85.6317 83.365 85.765C83.1484 85.8983 82.9484 86.0867 82.765 86.33V88.78ZM82.72 85.72C82.9334 85.4567 83.18 85.245 83.46 85.085C83.74 84.925 84.06 84.845 84.42 84.845C84.7134 84.845 84.9784 84.9017 85.215 85.015C85.4517 85.125 85.6534 85.29 85.82 85.51C85.9867 85.7267 86.115 85.9967 86.205 86.32C86.295 86.6433 86.34 87.015 86.34 87.435C86.34 87.8083 86.29 88.1567 86.19 88.48C86.09 88.8 85.945 89.0783 85.755 89.315C85.5684 89.5483 85.3384 89.7333 85.065 89.87C84.795 90.0033 84.49 90.07 84.15 90.07C83.84 90.07 83.5734 90.0183 83.35 89.915C83.13 89.8083 82.935 89.6617 82.765 89.475V91.715H81.87V84.935H82.405C82.5317 84.935 82.61 84.9967 82.64 85.12L82.72 85.72ZM89.6105 84.855C89.9805 84.855 90.3138 84.9167 90.6105 85.04C90.9072 85.1633 91.1605 85.3383 91.3705 85.565C91.5805 85.7917 91.7405 86.0667 91.8505 86.39C91.9638 86.71 92.0205 87.0683 92.0205 87.465C92.0205 87.865 91.9638 88.225 91.8505 88.545C91.7405 88.865 91.5805 89.1383 91.3705 89.365C91.1605 89.5917 90.9072 89.7667 90.6105 89.89C90.3138 90.01 89.9805 90.07 89.6105 90.07C89.2372 90.07 88.9005 90.01 88.6005 89.89C88.3038 89.7667 88.0505 89.5917 87.8405 89.365C87.6305 89.1383 87.4688 88.865 87.3555 88.545C87.2455 88.225 87.1905 87.865 87.1905 87.465C87.1905 87.0683 87.2455 86.71 87.3555 86.39C87.4688 86.0667 87.6305 85.7917 87.8405 85.565C88.0505 85.3383 88.3038 85.1633 88.6005 85.04C88.9005 84.9167 89.2372 84.855 89.6105 84.855ZM89.6105 89.375C90.1105 89.375 90.4838 89.2083 90.7305 88.875C90.9772 88.5383 91.1005 88.07 91.1005 87.47C91.1005 86.8667 90.9772 86.3967 90.7305 86.06C90.4838 85.7233 90.1105 85.555 89.6105 85.555C89.3572 85.555 89.1355 85.5983 88.9455 85.685C88.7588 85.7717 88.6022 85.8967 88.4755 86.06C88.3522 86.2233 88.2588 86.425 88.1955 86.665C88.1355 86.9017 88.1055 87.17 88.1055 87.47C88.1055 88.07 88.2288 88.5383 88.4755 88.875C88.7255 89.2083 89.1038 89.375 89.6105 89.375ZM94.0893 84.935V90H93.1993V84.935H94.0893ZM94.2793 83.345C94.2793 83.4317 94.261 83.5133 94.2243 83.59C94.191 83.6633 94.1443 83.73 94.0843 83.79C94.0277 83.8467 93.9593 83.8917 93.8793 83.925C93.8027 83.9583 93.721 83.975 93.6343 83.975C93.5477 83.975 93.466 83.9583 93.3893 83.925C93.316 83.8917 93.251 83.8467 93.1943 83.79C93.1377 83.73 93.0927 83.6633 93.0593 83.59C93.026 83.5133 93.0093 83.4317 93.0093 83.345C93.0093 83.2583 93.026 83.1767 93.0593 83.1C93.0927 83.02 93.1377 82.9517 93.1943 82.895C93.251 82.835 93.316 82.7883 93.3893 82.755C93.466 82.7217 93.5477 82.705 93.6343 82.705C93.721 82.705 93.8027 82.7217 93.8793 82.755C93.9593 82.7883 94.0277 82.835 94.0843 82.895C94.1443 82.9517 94.191 83.02 94.2243 83.1C94.261 83.1767 94.2793 83.2583 94.2793 83.345ZM96.3917 85.67C96.5017 85.5467 96.6183 85.435 96.7417 85.335C96.865 85.235 96.995 85.15 97.1317 85.08C97.2717 85.0067 97.4183 84.9517 97.5717 84.915C97.7283 84.875 97.8967 84.855 98.0767 84.855C98.3533 84.855 98.5967 84.9017 98.8067 84.995C99.02 85.085 99.1967 85.215 99.3367 85.385C99.48 85.5517 99.5883 85.7533 99.6617 85.99C99.735 86.2267 99.7717 86.4883 99.7717 86.775V90H98.8767V86.775C98.8767 86.3917 98.7883 86.095 98.6117 85.885C98.4383 85.6717 98.1733 85.565 97.8167 85.565C97.5533 85.565 97.3067 85.6283 97.0767 85.755C96.85 85.8817 96.64 86.0533 96.4467 86.27V90H95.5517V84.935H96.0867C96.2133 84.935 96.2917 84.9967 96.3217 85.12L96.3917 85.67ZM102.614 90.08C102.214 90.08 101.906 89.9683 101.689 89.745C101.476 89.5217 101.369 89.2 101.369 88.78V85.68H100.759C100.706 85.68 100.661 85.665 100.624 85.635C100.588 85.6017 100.569 85.5517 100.569 85.485V85.13L101.399 85.025L101.604 83.46C101.614 83.41 101.636 83.37 101.669 83.34C101.706 83.3067 101.753 83.29 101.809 83.29H102.259V85.035H103.724V85.68H102.259V88.72C102.259 88.9333 102.311 89.0917 102.414 89.195C102.518 89.2983 102.651 89.35 102.814 89.35C102.908 89.35 102.988 89.3383 103.054 89.315C103.124 89.2883 103.184 89.26 103.234 89.23C103.284 89.2 103.326 89.1733 103.359 89.15C103.396 89.1233 103.428 89.11 103.454 89.11C103.501 89.11 103.543 89.1383 103.579 89.195L103.839 89.62C103.686 89.7633 103.501 89.8767 103.284 89.96C103.068 90.04 102.844 90.08 102.614 90.08ZM108.004 86.915C108.004 86.7083 107.974 86.52 107.914 86.35C107.858 86.1767 107.773 86.0283 107.659 85.905C107.549 85.7783 107.414 85.6817 107.254 85.615C107.094 85.545 106.913 85.51 106.709 85.51C106.283 85.51 105.944 85.635 105.694 85.885C105.448 86.1317 105.294 86.475 105.234 86.915H108.004ZM108.724 89.29C108.614 89.4233 108.483 89.54 108.329 89.64C108.176 89.7367 108.011 89.8167 107.834 89.88C107.661 89.9433 107.481 89.99 107.294 90.02C107.108 90.0533 106.923 90.07 106.739 90.07C106.389 90.07 106.066 90.0117 105.769 89.895C105.476 89.775 105.221 89.6017 105.004 89.375C104.791 89.145 104.624 88.8617 104.504 88.525C104.384 88.1883 104.324 87.8017 104.324 87.365C104.324 87.0117 104.378 86.6817 104.484 86.375C104.594 86.0683 104.751 85.8033 104.954 85.58C105.158 85.3533 105.406 85.1767 105.699 85.05C105.993 84.92 106.323 84.855 106.689 84.855C106.993 84.855 107.273 84.9067 107.529 85.01C107.789 85.11 108.013 85.2567 108.199 85.45C108.389 85.64 108.538 85.8767 108.644 86.16C108.751 86.44 108.804 86.76 108.804 87.12C108.804 87.26 108.789 87.3533 108.759 87.4C108.729 87.4467 108.673 87.47 108.589 87.47H105.204C105.214 87.79 105.258 88.0683 105.334 88.305C105.414 88.5417 105.524 88.74 105.664 88.9C105.804 89.0567 105.971 89.175 106.164 89.255C106.358 89.3317 106.574 89.37 106.814 89.37C107.038 89.37 107.229 89.345 107.389 89.295C107.553 89.2417 107.693 89.185 107.809 89.125C107.926 89.065 108.023 89.01 108.099 88.96C108.179 88.9067 108.248 88.88 108.304 88.88C108.378 88.88 108.434 88.9083 108.474 88.965L108.724 89.29ZM110.742 85.95C110.902 85.6033 111.099 85.3333 111.332 85.14C111.566 84.9433 111.851 84.845 112.187 84.845C112.294 84.845 112.396 84.8567 112.492 84.88C112.592 84.9033 112.681 84.94 112.757 84.99L112.692 85.655C112.672 85.7383 112.622 85.78 112.542 85.78C112.496 85.78 112.427 85.77 112.337 85.75C112.247 85.73 112.146 85.72 112.032 85.72C111.872 85.72 111.729 85.7433 111.602 85.79C111.479 85.8367 111.367 85.9067 111.267 86C111.171 86.09 111.082 86.2033 111.002 86.34C110.926 86.4733 110.856 86.6267 110.792 86.8V90H109.897V84.935H110.407C110.504 84.935 110.571 84.9533 110.607 84.99C110.644 85.0267 110.669 85.09 110.682 85.18L110.742 85.95Z" fill="#D90D0D"/>
<path d="M99.3536 44.6464C99.1583 44.4512 98.8417 44.4512 98.6464 44.6464L95.4645 47.8284C95.2692 48.0237 95.2692 48.3403 95.4645 48.5355C95.6597 48.7308 95.9763 48.7308 96.1716 48.5355L99 45.7071L101.828 48.5355C102.024 48.7308 102.34 48.7308 102.536 48.5355C102.731 48.3403 102.731 48.0237 102.536 47.8284L99.3536 44.6464ZM99.5 68L99.5 45L98.5 45L98.5 68L99.5 68Z" fill="#D90D0D"/>
<path d="M152.367 72.67C152.477 72.5467 152.594 72.435 152.717 72.335C152.841 72.235 152.971 72.15 153.107 72.08C153.247 72.0067 153.394 71.9517 153.547 71.915C153.704 71.875 153.872 71.855 154.052 71.855C154.329 71.855 154.572 71.9017 154.782 71.995C154.996 72.085 155.172 72.215 155.312 72.385C155.456 72.5517 155.564 72.7533 155.637 72.99C155.711 73.2267 155.747 73.4883 155.747 73.775V77H154.852V73.775C154.852 73.3917 154.764 73.095 154.587 72.885C154.414 72.6717 154.149 72.565 153.792 72.565C153.529 72.565 153.282 72.6283 153.052 72.755C152.826 72.8817 152.616 73.0533 152.422 73.27V77H151.527V71.935H152.062C152.189 71.935 152.267 71.9967 152.297 72.12L152.367 72.67ZM160.493 73.915C160.493 73.7083 160.463 73.52 160.403 73.35C160.347 73.1767 160.262 73.0283 160.148 72.905C160.038 72.7783 159.903 72.6817 159.743 72.615C159.583 72.545 159.402 72.51 159.198 72.51C158.772 72.51 158.433 72.635 158.183 72.885C157.937 73.1317 157.783 73.475 157.723 73.915H160.493ZM161.213 76.29C161.103 76.4233 160.972 76.54 160.818 76.64C160.665 76.7367 160.5 76.8167 160.323 76.88C160.15 76.9433 159.97 76.99 159.783 77.02C159.597 77.0533 159.412 77.07 159.228 77.07C158.878 77.07 158.555 77.0117 158.258 76.895C157.965 76.775 157.71 76.6017 157.493 76.375C157.28 76.145 157.113 75.8617 156.993 75.525C156.873 75.1883 156.813 74.8017 156.813 74.365C156.813 74.0117 156.867 73.6817 156.973 73.375C157.083 73.0683 157.24 72.8033 157.443 72.58C157.647 72.3533 157.895 72.1767 158.188 72.05C158.482 71.92 158.812 71.855 159.178 71.855C159.482 71.855 159.762 71.9067 160.018 72.01C160.278 72.11 160.502 72.2567 160.688 72.45C160.878 72.64 161.027 72.8767 161.133 73.16C161.24 73.44 161.293 73.76 161.293 74.12C161.293 74.26 161.278 74.3533 161.248 74.4C161.218 74.4467 161.162 74.47 161.078 74.47H157.693C157.703 74.79 157.747 75.0683 157.823 75.305C157.903 75.5417 158.013 75.74 158.153 75.9C158.293 76.0567 158.46 76.175 158.653 76.255C158.847 76.3317 159.063 76.37 159.303 76.37C159.527 76.37 159.718 76.345 159.878 76.295C160.042 76.2417 160.182 76.185 160.298 76.125C160.415 76.065 160.512 76.01 160.588 75.96C160.668 75.9067 160.737 75.88 160.793 75.88C160.867 75.88 160.923 75.9083 160.963 75.965L161.213 76.29ZM166.478 77H165.623C165.55 77 165.492 76.9817 165.448 76.945C165.408 76.905 165.375 76.8617 165.348 76.815L164.073 74.83C164.06 74.8767 164.045 74.9233 164.028 74.97C164.015 75.0133 163.995 75.0533 163.968 75.09L162.788 76.815C162.755 76.8617 162.718 76.905 162.678 76.945C162.642 76.9817 162.59 77 162.523 77H161.728L163.503 74.4L161.798 71.935H162.653C162.727 71.935 162.78 71.9467 162.813 71.97C162.847 71.9933 162.877 72.0267 162.903 72.07L164.148 73.97C164.175 73.8733 164.217 73.78 164.273 73.69L165.363 72.09C165.393 72.0433 165.425 72.0067 165.458 71.98C165.495 71.95 165.538 71.935 165.588 71.935H166.408L164.703 74.355L166.478 77ZM168.854 77.08C168.454 77.08 168.145 76.9683 167.929 76.745C167.715 76.5217 167.609 76.2 167.609 75.78V72.68H166.999C166.945 72.68 166.9 72.665 166.864 72.635C166.827 72.6017 166.809 72.5517 166.809 72.485V72.13L167.639 72.025L167.844 70.46C167.854 70.41 167.875 70.37 167.909 70.34C167.945 70.3067 167.992 70.29 168.049 70.29H168.499V72.035H169.964V72.68H168.499V75.72C168.499 75.9333 168.55 76.0917 168.654 76.195C168.757 76.2983 168.89 76.35 169.054 76.35C169.147 76.35 169.227 76.3383 169.294 76.315C169.364 76.2883 169.424 76.26 169.474 76.23C169.524 76.2 169.565 76.1733 169.599 76.15C169.635 76.1233 169.667 76.11 169.694 76.11C169.74 76.11 169.782 76.1383 169.819 76.195L170.079 76.62C169.925 76.7633 169.74 76.8767 169.524 76.96C169.307 77.04 169.084 77.08 168.854 77.08ZM146.265 87.78C146.428 88 146.607 88.155 146.8 88.245C146.993 88.335 147.21 88.38 147.45 88.38C147.923 88.38 148.287 88.2117 148.54 87.875C148.793 87.5383 148.92 87.0583 148.92 86.435C148.92 86.105 148.89 85.8217 148.83 85.585C148.773 85.3483 148.69 85.155 148.58 85.005C148.47 84.8517 148.335 84.74 148.175 84.67C148.015 84.6 147.833 84.565 147.63 84.565C147.34 84.565 147.085 84.6317 146.865 84.765C146.648 84.8983 146.448 85.0867 146.265 85.33V87.78ZM146.22 84.72C146.433 84.4567 146.68 84.245 146.96 84.085C147.24 83.925 147.56 83.845 147.92 83.845C148.213 83.845 148.478 83.9017 148.715 84.015C148.952 84.125 149.153 84.29 149.32 84.51C149.487 84.7267 149.615 84.9967 149.705 85.32C149.795 85.6433 149.84 86.015 149.84 86.435C149.84 86.8083 149.79 87.1567 149.69 87.48C149.59 87.8 149.445 88.0783 149.255 88.315C149.068 88.5483 148.838 88.7333 148.565 88.87C148.295 89.0033 147.99 89.07 147.65 89.07C147.34 89.07 147.073 89.0183 146.85 88.915C146.63 88.8083 146.435 88.6617 146.265 88.475V90.715H145.37V83.935H145.905C146.032 83.935 146.11 83.9967 146.14 84.12L146.22 84.72ZM153.111 83.855C153.481 83.855 153.814 83.9167 154.111 84.04C154.407 84.1633 154.661 84.3383 154.871 84.565C155.081 84.7917 155.241 85.0667 155.351 85.39C155.464 85.71 155.521 86.0683 155.521 86.465C155.521 86.865 155.464 87.225 155.351 87.545C155.241 87.865 155.081 88.1383 154.871 88.365C154.661 88.5917 154.407 88.7667 154.111 88.89C153.814 89.01 153.481 89.07 153.111 89.07C152.737 89.07 152.401 89.01 152.101 88.89C151.804 88.7667 151.551 88.5917 151.341 88.365C151.131 88.1383 150.969 87.865 150.856 87.545C150.746 87.225 150.691 86.865 150.691 86.465C150.691 86.0683 150.746 85.71 150.856 85.39C150.969 85.0667 151.131 84.7917 151.341 84.565C151.551 84.3383 151.804 84.1633 152.101 84.04C152.401 83.9167 152.737 83.855 153.111 83.855ZM153.111 88.375C153.611 88.375 153.984 88.2083 154.231 87.875C154.477 87.5383 154.601 87.07 154.601 86.47C154.601 85.8667 154.477 85.3967 154.231 85.06C153.984 84.7233 153.611 84.555 153.111 84.555C152.857 84.555 152.636 84.5983 152.446 84.685C152.259 84.7717 152.102 84.8967 151.976 85.06C151.852 85.2233 151.759 85.425 151.696 85.665C151.636 85.9017 151.606 86.17 151.606 86.47C151.606 87.07 151.729 87.5383 151.976 87.875C152.226 88.2083 152.604 88.375 153.111 88.375ZM157.589 83.935V89H156.699V83.935H157.589ZM157.779 82.345C157.779 82.4317 157.761 82.5133 157.724 82.59C157.691 82.6633 157.644 82.73 157.584 82.79C157.528 82.8467 157.459 82.8917 157.379 82.925C157.303 82.9583 157.221 82.975 157.134 82.975C157.048 82.975 156.966 82.9583 156.889 82.925C156.816 82.8917 156.751 82.8467 156.694 82.79C156.638 82.73 156.593 82.6633 156.559 82.59C156.526 82.5133 156.509 82.4317 156.509 82.345C156.509 82.2583 156.526 82.1767 156.559 82.1C156.593 82.02 156.638 81.9517 156.694 81.895C156.751 81.835 156.816 81.7883 156.889 81.755C156.966 81.7217 157.048 81.705 157.134 81.705C157.221 81.705 157.303 81.7217 157.379 81.755C157.459 81.7883 157.528 81.835 157.584 81.895C157.644 81.9517 157.691 82.02 157.724 82.1C157.761 82.1767 157.779 82.2583 157.779 82.345ZM159.892 84.67C160.002 84.5467 160.118 84.435 160.242 84.335C160.365 84.235 160.495 84.15 160.632 84.08C160.772 84.0067 160.918 83.9517 161.072 83.915C161.228 83.875 161.397 83.855 161.577 83.855C161.853 83.855 162.097 83.9017 162.307 83.995C162.52 84.085 162.697 84.215 162.837 84.385C162.98 84.5517 163.088 84.7533 163.162 84.99C163.235 85.2267 163.272 85.4883 163.272 85.775V89H162.377V85.775C162.377 85.3917 162.288 85.095 162.112 84.885C161.938 84.6717 161.673 84.565 161.317 84.565C161.053 84.565 160.807 84.6283 160.577 84.755C160.35 84.8817 160.14 85.0533 159.947 85.27V89H159.052V83.935H159.587C159.713 83.935 159.792 83.9967 159.822 84.12L159.892 84.67ZM166.114 89.08C165.714 89.08 165.406 88.9683 165.189 88.745C164.976 88.5217 164.869 88.2 164.869 87.78V84.68H164.259C164.206 84.68 164.161 84.665 164.124 84.635C164.088 84.6017 164.069 84.5517 164.069 84.485V84.13L164.899 84.025L165.104 82.46C165.114 82.41 165.136 82.37 165.169 82.34C165.206 82.3067 165.253 82.29 165.309 82.29H165.759V84.035H167.224V84.68H165.759V87.72C165.759 87.9333 165.811 88.0917 165.914 88.195C166.018 88.2983 166.151 88.35 166.314 88.35C166.408 88.35 166.488 88.3383 166.554 88.315C166.624 88.2883 166.684 88.26 166.734 88.23C166.784 88.2 166.826 88.1733 166.859 88.15C166.896 88.1233 166.928 88.11 166.954 88.11C167.001 88.11 167.043 88.1383 167.079 88.195L167.339 88.62C167.186 88.7633 167.001 88.8767 166.784 88.96C166.568 89.04 166.344 89.08 166.114 89.08ZM171.504 85.915C171.504 85.7083 171.474 85.52 171.414 85.35C171.358 85.1767 171.273 85.0283 171.159 84.905C171.049 84.7783 170.914 84.6817 170.754 84.615C170.594 84.545 170.413 84.51 170.209 84.51C169.783 84.51 169.444 84.635 169.194 84.885C168.948 85.1317 168.794 85.475 168.734 85.915H171.504ZM172.224 88.29C172.114 88.4233 171.983 88.54 171.829 88.64C171.676 88.7367 171.511 88.8167 171.334 88.88C171.161 88.9433 170.981 88.99 170.794 89.02C170.608 89.0533 170.423 89.07 170.239 89.07C169.889 89.07 169.566 89.0117 169.269 88.895C168.976 88.775 168.721 88.6017 168.504 88.375C168.291 88.145 168.124 87.8617 168.004 87.525C167.884 87.1883 167.824 86.8017 167.824 86.365C167.824 86.0117 167.878 85.6817 167.984 85.375C168.094 85.0683 168.251 84.8033 168.454 84.58C168.658 84.3533 168.906 84.1767 169.199 84.05C169.493 83.92 169.823 83.855 170.189 83.855C170.493 83.855 170.773 83.9067 171.029 84.01C171.289 84.11 171.513 84.2567 171.699 84.45C171.889 84.64 172.038 84.8767 172.144 85.16C172.251 85.44 172.304 85.76 172.304 86.12C172.304 86.26 172.289 86.3533 172.259 86.4C172.229 86.4467 172.173 86.47 172.089 86.47H168.704C168.714 86.79 168.758 87.0683 168.834 87.305C168.914 87.5417 169.024 87.74 169.164 87.9C169.304 88.0567 169.471 88.175 169.664 88.255C169.858 88.3317 170.074 88.37 170.314 88.37C170.538 88.37 170.729 88.345 170.889 88.295C171.053 88.2417 171.193 88.185 171.309 88.125C171.426 88.065 171.523 88.01 171.599 87.96C171.679 87.9067 171.748 87.88 171.804 87.88C171.878 87.88 171.934 87.9083 171.974 87.965L172.224 88.29ZM174.242 84.95C174.402 84.6033 174.599 84.3333 174.832 84.14C175.066 83.9433 175.351 83.845 175.687 83.845C175.794 83.845 175.896 83.8567 175.992 83.88C176.092 83.9033 176.181 83.94 176.257 83.99L176.192 84.655C176.172 84.7383 176.122 84.78 176.042 84.78C175.996 84.78 175.927 84.77 175.837 84.75C175.747 84.73 175.646 84.72 175.532 84.72C175.372 84.72 175.229 84.7433 175.102 84.79C174.979 84.8367 174.867 84.9067 174.767 85C174.671 85.09 174.582 85.2033 174.502 85.34C174.426 85.4733 174.356 85.6267 174.292 85.8V89H173.397V83.935H173.907C174.004 83.935 174.071 83.9533 174.107 83.99C174.144 84.0267 174.169 84.09 174.182 84.18L174.242 84.95Z" fill="#D90D0D"/>
<path d="M160.354 43.6464C160.158 43.4512 159.842 43.4512 159.646 43.6464L156.464 46.8284C156.269 47.0237 156.269 47.3403 156.464 47.5355C156.66 47.7308 156.976 47.7308 157.172 47.5355L160 44.7071L162.828 47.5355C163.024 47.7308 163.34 47.7308 163.536 47.5355C163.731 47.3403 163.731 47.0237 163.536 46.8284L160.354 43.6464ZM160.5 67L160.5 44L159.5 44L159.5 67L160.5 67Z" fill="#D90D0D"/>
<path d="M238.606 40.67C238.716 40.5467 238.832 40.435 238.956 40.335C239.079 40.235 239.209 40.15 239.346 40.08C239.486 40.0067 239.632 39.9517 239.786 39.915C239.942 39.875 240.111 39.855 240.291 39.855C240.567 39.855 240.811 39.9017 241.021 39.995C241.234 40.085 241.411 40.215 241.551 40.385C241.694 40.5517 241.802 40.7533 241.876 40.99C241.949 41.2267 241.986 41.4883 241.986 41.775V45H241.091V41.775C241.091 41.3917 241.002 41.095 240.826 40.885C240.652 40.6717 240.387 40.565 240.031 40.565C239.767 40.565 239.521 40.6283 239.291 40.755C239.064 40.8817 238.854 41.0533 238.661 41.27V45H237.766V39.935H238.301C238.427 39.935 238.506 39.9967 238.536 40.12L238.606 40.67ZM247.507 39.935V45H246.977C246.85 45 246.77 44.9383 246.737 44.815L246.667 44.27C246.447 44.5133 246.2 44.71 245.927 44.86C245.653 45.0067 245.34 45.08 244.987 45.08C244.71 45.08 244.465 45.035 244.252 44.945C244.042 44.8517 243.865 44.7217 243.722 44.555C243.578 44.3883 243.47 44.1867 243.397 43.95C243.327 43.7133 243.292 43.4517 243.292 43.165V39.935H244.182V43.165C244.182 43.5483 244.268 43.845 244.442 44.055C244.618 44.265 244.887 44.37 245.247 44.37C245.51 44.37 245.755 44.3083 245.982 44.185C246.212 44.0583 246.423 43.885 246.617 43.665V39.935H247.507ZM249.838 37.635V45H248.948V37.635H249.838ZM252.201 37.635V45H251.311V37.635H252.201Z" fill="black"/>
<path d="M199.5 25C199.5 25.2761 199.724 25.5 200 25.5L204.5 25.5C204.776 25.5 205 25.2761 205 25C205 24.7239 204.776 24.5 204.5 24.5L200.5 24.5L200.5 20.5C200.5 20.2239 200.276 20 200 20C199.724 20 199.5 20.2239 199.5 20.5L199.5 25ZM211.646 12.6465L199.646 24.6465L200.354 25.3536L212.354 13.3536L211.646 12.6465Z" fill="#0B3AB5"/>
<path d="M157.847 10.08C157.447 10.08 157.139 9.96833 156.922 9.745C156.709 9.52167 156.602 9.2 156.602 8.78V5.68H155.992C155.939 5.68 155.894 5.665 155.857 5.635C155.82 5.60167 155.802 5.55167 155.802 5.485V5.13L156.632 5.025L156.837 3.46C156.847 3.41 156.869 3.37 156.902 3.34C156.939 3.30667 156.985 3.29 157.042 3.29H157.492V5.035H158.957V5.68H157.492V8.72C157.492 8.93333 157.544 9.09167 157.647 9.195C157.75 9.29833 157.884 9.35 158.047 9.35C158.14 9.35 158.22 9.33833 158.287 9.315C158.357 9.28833 158.417 9.26 158.467 9.23C158.517 9.2 158.559 9.17333 158.592 9.15C158.629 9.12333 158.66 9.11 158.687 9.11C158.734 9.11 158.775 9.13833 158.812 9.195L159.072 9.62C158.919 9.76333 158.734 9.87667 158.517 9.96C158.3 10.04 158.077 10.08 157.847 10.08ZM162.621 7.72C162.211 7.73333 161.861 7.76667 161.571 7.82C161.284 7.87 161.049 7.93667 160.866 8.02C160.686 8.10333 160.554 8.20167 160.471 8.315C160.391 8.42833 160.351 8.555 160.351 8.695C160.351 8.82833 160.373 8.94333 160.416 9.04C160.459 9.13667 160.518 9.21667 160.591 9.28C160.668 9.34 160.756 9.385 160.856 9.415C160.959 9.44167 161.069 9.455 161.186 9.455C161.343 9.455 161.486 9.44 161.616 9.41C161.746 9.37667 161.868 9.33 161.981 9.27C162.098 9.21 162.208 9.13833 162.311 9.055C162.418 8.97167 162.521 8.87667 162.621 8.77V7.72ZM159.746 5.65C160.026 5.38 160.328 5.17833 160.651 5.045C160.974 4.91167 161.333 4.845 161.726 4.845C162.009 4.845 162.261 4.89167 162.481 4.985C162.701 5.07833 162.886 5.20833 163.036 5.375C163.186 5.54167 163.299 5.74333 163.376 5.98C163.453 6.21667 163.491 6.47667 163.491 6.76V10H163.096C163.009 10 162.943 9.98667 162.896 9.96C162.849 9.93 162.813 9.87333 162.786 9.79L162.686 9.31C162.553 9.43333 162.423 9.54333 162.296 9.64C162.169 9.73333 162.036 9.81333 161.896 9.88C161.756 9.94333 161.606 9.99167 161.446 10.025C161.289 10.0617 161.114 10.08 160.921 10.08C160.724 10.08 160.539 10.0533 160.366 10C160.193 9.94333 160.041 9.86 159.911 9.75C159.784 9.64 159.683 9.50167 159.606 9.335C159.533 9.165 159.496 8.965 159.496 8.735C159.496 8.535 159.551 8.34333 159.661 8.16C159.771 7.97333 159.949 7.80833 160.196 7.665C160.443 7.52167 160.764 7.405 161.161 7.315C161.558 7.22167 162.044 7.16833 162.621 7.155V6.76C162.621 6.36667 162.536 6.07 162.366 5.87C162.196 5.66667 161.948 5.565 161.621 5.565C161.401 5.565 161.216 5.59333 161.066 5.65C160.919 5.70333 160.791 5.765 160.681 5.835C160.574 5.90167 160.481 5.96333 160.401 6.02C160.324 6.07333 160.248 6.1 160.171 6.1C160.111 6.1 160.059 6.085 160.016 6.055C159.973 6.02167 159.936 5.98167 159.906 5.935L159.746 5.65ZM165.787 4.935V10H164.897V4.935H165.787ZM165.977 3.345C165.977 3.43167 165.958 3.51333 165.922 3.59C165.888 3.66333 165.842 3.73 165.782 3.79C165.725 3.84667 165.657 3.89167 165.577 3.925C165.5 3.95833 165.418 3.975 165.332 3.975C165.245 3.975 165.163 3.95833 165.087 3.925C165.013 3.89167 164.948 3.84667 164.892 3.79C164.835 3.73 164.79 3.66333 164.757 3.59C164.723 3.51333 164.707 3.43167 164.707 3.345C164.707 3.25833 164.723 3.17667 164.757 3.1C164.79 3.02 164.835 2.95167 164.892 2.895C164.948 2.835 165.013 2.78833 165.087 2.755C165.163 2.72167 165.245 2.705 165.332 2.705C165.418 2.705 165.5 2.72167 165.577 2.755C165.657 2.78833 165.725 2.835 165.782 2.895C165.842 2.95167 165.888 3.02 165.922 3.1C165.958 3.17667 165.977 3.25833 165.977 3.345ZM168.169 2.635V10H167.279V2.635H168.169ZM172.691 6.855C172.691 7.56833 172.781 8.26167 172.961 8.935C173.144 9.60833 173.411 10.2483 173.761 10.855C173.814 10.9583 173.827 11.0367 173.801 11.09C173.774 11.1467 173.736 11.1917 173.686 11.225L173.291 11.465C173.041 11.0817 172.827 10.7017 172.651 10.325C172.477 9.94833 172.336 9.57 172.226 9.19C172.119 8.81 172.041 8.42833 171.991 8.045C171.941 7.65833 171.916 7.26167 171.916 6.855C171.916 6.45167 171.941 6.05667 171.991 5.67C172.041 5.28333 172.119 4.90167 172.226 4.525C172.336 4.145 172.477 3.76667 172.651 3.39C172.827 3.01333 173.041 2.63167 173.291 2.245L173.686 2.49C173.736 2.52333 173.774 2.56833 173.801 2.625C173.827 2.67833 173.814 2.755 173.761 2.855C173.411 3.46167 173.144 4.10167 172.961 4.775C172.781 5.44833 172.691 6.14167 172.691 6.855ZM175.732 8.78C175.895 9 176.074 9.155 176.267 9.245C176.464 9.335 176.679 9.38 176.912 9.38C177.389 9.38 177.754 9.21167 178.007 8.875C178.26 8.53833 178.387 8.03667 178.387 7.37C178.387 6.75 178.274 6.295 178.047 6.005C177.824 5.71167 177.504 5.565 177.087 5.565C176.797 5.565 176.544 5.63167 176.327 5.765C176.114 5.89833 175.915 6.08667 175.732 6.33V8.78ZM175.732 5.665C175.945 5.41833 176.185 5.22167 176.452 5.075C176.722 4.92833 177.032 4.855 177.382 4.855C177.679 4.855 177.945 4.91167 178.182 5.025C178.422 5.13833 178.625 5.30333 178.792 5.52C178.959 5.73333 179.085 5.99333 179.172 6.3C179.262 6.60667 179.307 6.95167 179.307 7.335C179.307 7.745 179.257 8.11833 179.157 8.455C179.057 8.79167 178.912 9.08 178.722 9.32C178.535 9.55667 178.307 9.74167 178.037 9.875C177.767 10.005 177.464 10.07 177.127 10.07C176.794 10.07 176.512 10.0083 176.282 9.885C176.055 9.75833 175.857 9.58 175.687 9.35L175.642 9.81C175.615 9.93667 175.539 10 175.412 10H174.837V2.635H175.732V5.665ZM182.568 4.855C182.938 4.855 183.271 4.91667 183.568 5.04C183.864 5.16333 184.118 5.33833 184.328 5.565C184.538 5.79167 184.698 6.06667 184.808 6.39C184.921 6.71 184.978 7.06833 184.978 7.465C184.978 7.865 184.921 8.225 184.808 8.545C184.698 8.865 184.538 9.13833 184.328 9.365C184.118 9.59167 183.864 9.76667 183.568 9.89C183.271 10.01 182.938 10.07 182.568 10.07C182.194 10.07 181.858 10.01 181.558 9.89C181.261 9.76667 181.008 9.59167 180.798 9.365C180.588 9.13833 180.426 8.865 180.313 8.545C180.203 8.225 180.148 7.865 180.148 7.465C180.148 7.06833 180.203 6.71 180.313 6.39C180.426 6.06667 180.588 5.79167 180.798 5.565C181.008 5.33833 181.261 5.16333 181.558 5.04C181.858 4.91667 182.194 4.855 182.568 4.855ZM182.568 9.375C183.068 9.375 183.441 9.20833 183.688 8.875C183.934 8.53833 184.058 8.07 184.058 7.47C184.058 6.86667 183.934 6.39667 183.688 6.06C183.441 5.72333 183.068 5.555 182.568 5.555C182.314 5.555 182.093 5.59833 181.903 5.685C181.716 5.77167 181.559 5.89667 181.433 6.06C181.309 6.22333 181.216 6.425 181.153 6.665C181.093 6.90167 181.063 7.17 181.063 7.47C181.063 8.07 181.186 8.53833 181.433 8.875C181.683 9.20833 182.061 9.375 182.568 9.375ZM187.573 10.08C187.173 10.08 186.865 9.96833 186.648 9.745C186.435 9.52167 186.328 9.2 186.328 8.78V5.68H185.718C185.665 5.68 185.62 5.665 185.583 5.635C185.547 5.60167 185.528 5.55167 185.528 5.485V5.13L186.358 5.025L186.563 3.46C186.573 3.41 186.595 3.37 186.628 3.34C186.665 3.30667 186.712 3.29 186.768 3.29H187.218V5.035H189.603L189.808 3.46C189.818 3.41 189.84 3.37 189.873 3.34C189.91 3.30667 189.957 3.29 190.013 3.29H190.463V5.035H191.928V5.68H190.463V8.72C190.463 8.93333 190.515 9.09167 190.618 9.195C190.725 9.29833 190.858 9.35 191.018 9.35C191.112 9.35 191.192 9.33833 191.258 9.315C191.328 9.28833 191.388 9.26 191.438 9.23C191.488 9.2 191.53 9.17333 191.563 9.15C191.6 9.12333 191.632 9.11 191.658 9.11C191.708 9.11 191.75 9.13833 191.783 9.195L192.048 9.62C191.892 9.76333 191.705 9.87667 191.488 9.96C191.272 10.04 191.048 10.08 190.818 10.08C190.422 10.08 190.115 9.96833 189.898 9.745C189.682 9.52167 189.573 9.2 189.573 8.78V5.68H187.218V8.72C187.218 8.93333 187.27 9.09167 187.373 9.195C187.477 9.29833 187.61 9.35 187.773 9.35C187.867 9.35 187.947 9.33833 188.013 9.315C188.083 9.28833 188.143 9.26 188.193 9.23C188.243 9.2 188.285 9.17333 188.318 9.15C188.355 9.12333 188.387 9.11 188.413 9.11C188.46 9.11 188.502 9.13833 188.538 9.195L188.798 9.62C188.645 9.76333 188.46 9.87667 188.243 9.96C188.027 10.04 187.803 10.08 187.573 10.08ZM194.95 4.855C195.32 4.855 195.654 4.91667 195.95 5.04C196.247 5.16333 196.5 5.33833 196.71 5.565C196.92 5.79167 197.08 6.06667 197.19 6.39C197.304 6.71 197.36 7.06833 197.36 7.465C197.36 7.865 197.304 8.225 197.19 8.545C197.08 8.865 196.92 9.13833 196.71 9.365C196.5 9.59167 196.247 9.76667 195.95 9.89C195.654 10.01 195.32 10.07 194.95 10.07C194.577 10.07 194.24 10.01 193.94 9.89C193.644 9.76667 193.39 9.59167 193.18 9.365C192.97 9.13833 192.809 8.865 192.695 8.545C192.585 8.225 192.53 7.865 192.53 7.465C192.53 7.06833 192.585 6.71 192.695 6.39C192.809 6.06667 192.97 5.79167 193.18 5.565C193.39 5.33833 193.644 5.16333 193.94 5.04C194.24 4.91667 194.577 4.855 194.95 4.855ZM194.95 9.375C195.45 9.375 195.824 9.20833 196.07 8.875C196.317 8.53833 196.44 8.07 196.44 7.47C196.44 6.86667 196.317 6.39667 196.07 6.06C195.824 5.72333 195.45 5.555 194.95 5.555C194.697 5.555 194.475 5.59833 194.285 5.685C194.099 5.77167 193.942 5.89667 193.815 6.06C193.692 6.22333 193.599 6.425 193.535 6.665C193.475 6.90167 193.445 7.17 193.445 7.47C193.445 8.07 193.569 8.53833 193.815 8.875C194.065 9.20833 194.444 9.375 194.95 9.375ZM198.489 10V4.935H199.024C199.151 4.935 199.229 4.99667 199.259 5.12L199.324 5.64C199.511 5.41 199.721 5.22167 199.954 5.075C200.188 4.92833 200.458 4.855 200.764 4.855C201.104 4.855 201.379 4.95 201.589 5.14C201.803 5.33 201.956 5.58667 202.049 5.91C202.123 5.72667 202.216 5.56833 202.329 5.435C202.446 5.30167 202.576 5.19167 202.719 5.105C202.863 5.01833 203.014 4.955 203.174 4.915C203.338 4.875 203.503 4.855 203.669 4.855C203.936 4.855 204.173 4.89833 204.379 4.985C204.589 5.06833 204.766 5.19167 204.909 5.355C205.056 5.51833 205.168 5.72 205.244 5.96C205.321 6.19667 205.359 6.46833 205.359 6.775V10H204.464V6.775C204.464 6.37833 204.378 6.07833 204.204 5.875C204.031 5.66833 203.781 5.565 203.454 5.565C203.308 5.565 203.168 5.59167 203.034 5.645C202.904 5.695 202.789 5.77 202.689 5.87C202.589 5.97 202.509 6.09667 202.449 6.25C202.393 6.4 202.364 6.575 202.364 6.775V10H201.469V6.775C201.469 6.36833 201.388 6.065 201.224 5.865C201.061 5.665 200.823 5.565 200.509 5.565C200.289 5.565 200.086 5.625 199.899 5.745C199.713 5.86167 199.541 6.02167 199.384 6.225V10H198.489ZM211.405 4.855C211.775 4.855 212.109 4.91667 212.405 5.04C212.702 5.16333 212.955 5.33833 213.165 5.565C213.375 5.79167 213.535 6.06667 213.645 6.39C213.759 6.71 213.815 7.06833 213.815 7.465C213.815 7.865 213.759 8.225 213.645 8.545C213.535 8.865 213.375 9.13833 213.165 9.365C212.955 9.59167 212.702 9.76667 212.405 9.89C212.109 10.01 211.775 10.07 211.405 10.07C211.032 10.07 210.695 10.01 210.395 9.89C210.099 9.76667 209.845 9.59167 209.635 9.365C209.425 9.13833 209.264 8.865 209.15 8.545C209.04 8.225 208.985 7.865 208.985 7.465C208.985 7.06833 209.04 6.71 209.15 6.39C209.264 6.06667 209.425 5.79167 209.635 5.565C209.845 5.33833 210.099 5.16333 210.395 5.04C210.695 4.91667 211.032 4.855 211.405 4.855ZM211.405 9.375C211.905 9.375 212.279 9.20833 212.525 8.875C212.772 8.53833 212.895 8.07 212.895 7.47C212.895 6.86667 212.772 6.39667 212.525 6.06C212.279 5.72333 211.905 5.555 211.405 5.555C211.152 5.555 210.93 5.59833 210.74 5.685C210.554 5.77167 210.397 5.89667 210.27 6.06C210.147 6.22333 210.054 6.425 209.99 6.665C209.93 6.90167 209.9 7.17 209.9 7.47C209.9 8.07 210.024 8.53833 210.27 8.875C210.52 9.20833 210.899 9.375 211.405 9.375ZM215.167 10V5.695L214.607 5.63C214.537 5.61333 214.479 5.58833 214.432 5.555C214.389 5.51833 214.367 5.46667 214.367 5.4V5.035H215.167V4.545C215.167 4.255 215.207 3.99833 215.287 3.775C215.37 3.54833 215.487 3.35833 215.637 3.205C215.79 3.04833 215.974 2.93 216.187 2.85C216.4 2.77 216.64 2.73 216.907 2.73C217.134 2.73 217.342 2.76333 217.532 2.83L217.512 3.275C217.505 3.355 217.46 3.39833 217.377 3.405C217.297 3.41167 217.189 3.415 217.052 3.415C216.899 3.415 216.759 3.435 216.632 3.475C216.509 3.515 216.402 3.58 216.312 3.67C216.222 3.76 216.152 3.87833 216.102 4.025C216.055 4.17167 216.032 4.35333 216.032 4.57V5.035H217.492V5.68H216.062V10H215.167ZM222.271 10.08C221.871 10.08 221.562 9.96833 221.346 9.745C221.132 9.52167 221.026 9.2 221.026 8.78V5.68H220.416C220.362 5.68 220.317 5.665 220.281 5.635C220.244 5.60167 220.226 5.55167 220.226 5.485V5.13L221.056 5.025L221.261 3.46C221.271 3.41 221.292 3.37 221.326 3.34C221.362 3.30667 221.409 3.29 221.466 3.29H221.916V5.035H223.381V5.68H221.916V8.72C221.916 8.93333 221.967 9.09167 222.071 9.195C222.174 9.29833 222.307 9.35 222.471 9.35C222.564 9.35 222.644 9.33833 222.711 9.315C222.781 9.28833 222.841 9.26 222.891 9.23C222.941 9.2 222.982 9.17333 223.016 9.15C223.052 9.12333 223.084 9.11 223.111 9.11C223.157 9.11 223.199 9.13833 223.236 9.195L223.496 9.62C223.342 9.76333 223.157 9.87667 222.941 9.96C222.724 10.04 222.501 10.08 222.271 10.08ZM225.195 5.61C225.411 5.38 225.651 5.19667 225.915 5.06C226.178 4.92333 226.481 4.855 226.825 4.855C227.101 4.855 227.345 4.90167 227.555 4.995C227.768 5.085 227.945 5.215 228.085 5.385C228.228 5.55167 228.336 5.75333 228.41 5.99C228.483 6.22667 228.52 6.48833 228.52 6.775V10H227.625V6.775C227.625 6.39167 227.536 6.095 227.36 5.885C227.186 5.67167 226.921 5.565 226.565 5.565C226.301 5.565 226.055 5.62833 225.825 5.755C225.598 5.88167 225.388 6.05333 225.195 6.27V10H224.3V2.635H225.195V5.61ZM233.266 6.915C233.266 6.70833 233.236 6.52 233.176 6.35C233.119 6.17667 233.034 6.02833 232.921 5.905C232.811 5.77833 232.676 5.68167 232.516 5.615C232.356 5.545 232.174 5.51 231.971 5.51C231.544 5.51 231.206 5.635 230.956 5.885C230.709 6.13167 230.556 6.475 230.496 6.915H233.266ZM233.986 9.29C233.876 9.42333 233.744 9.54 233.591 9.64C233.438 9.73667 233.273 9.81667 233.096 9.88C232.923 9.94333 232.743 9.99 232.556 10.02C232.369 10.0533 232.184 10.07 232.001 10.07C231.651 10.07 231.328 10.0117 231.031 9.895C230.738 9.775 230.483 9.60167 230.266 9.375C230.053 9.145 229.886 8.86167 229.766 8.525C229.646 8.18833 229.586 7.80167 229.586 7.365C229.586 7.01167 229.639 6.68167 229.746 6.375C229.856 6.06833 230.013 5.80333 230.216 5.58C230.419 5.35333 230.668 5.17667 230.961 5.05C231.254 4.92 231.584 4.855 231.951 4.855C232.254 4.855 232.534 4.90667 232.791 5.01C233.051 5.11 233.274 5.25667 233.461 5.45C233.651 5.64 233.799 5.87667 233.906 6.16C234.013 6.44 234.066 6.76 234.066 7.12C234.066 7.26 234.051 7.35333 234.021 7.4C233.991 7.44667 233.934 7.47 233.851 7.47H230.466C230.476 7.79 230.519 8.06833 230.596 8.305C230.676 8.54167 230.786 8.74 230.926 8.9C231.066 9.05667 231.233 9.175 231.426 9.255C231.619 9.33167 231.836 9.37 232.076 9.37C232.299 9.37 232.491 9.345 232.651 9.295C232.814 9.24167 232.954 9.185 233.071 9.125C233.188 9.065 233.284 9.01 233.361 8.96C233.441 8.90667 233.509 8.88 233.566 8.88C233.639 8.88 233.696 8.90833 233.736 8.965L233.986 9.29ZM240.668 5.77C240.628 5.84333 240.566 5.88 240.483 5.88C240.433 5.88 240.376 5.86167 240.313 5.825C240.249 5.78833 240.171 5.74833 240.078 5.705C239.988 5.65833 239.879 5.61667 239.753 5.58C239.626 5.54 239.476 5.52 239.303 5.52C239.153 5.52 239.018 5.54 238.898 5.58C238.778 5.61667 238.674 5.66833 238.588 5.735C238.504 5.80167 238.439 5.88 238.393 5.97C238.349 6.05667 238.328 6.15167 238.328 6.255C238.328 6.385 238.364 6.49333 238.438 6.58C238.514 6.66667 238.614 6.74167 238.738 6.805C238.861 6.86833 239.001 6.925 239.158 6.975C239.314 7.02167 239.474 7.07333 239.638 7.13C239.804 7.18333 239.966 7.24333 240.123 7.31C240.279 7.37667 240.419 7.46 240.543 7.56C240.666 7.66 240.764 7.78333 240.838 7.93C240.914 8.07333 240.953 8.24667 240.953 8.45C240.953 8.68333 240.911 8.9 240.828 9.1C240.744 9.29667 240.621 9.46833 240.458 9.615C240.294 9.75833 240.094 9.87167 239.858 9.955C239.621 10.0383 239.348 10.08 239.038 10.08C238.684 10.08 238.364 10.0233 238.078 9.91C237.791 9.79333 237.548 9.645 237.348 9.465L237.558 9.125C237.584 9.08167 237.616 9.04833 237.653 9.025C237.689 9.00167 237.736 8.99 237.793 8.99C237.853 8.99 237.916 9.01333 237.983 9.06C238.049 9.10667 238.129 9.15833 238.223 9.215C238.319 9.27167 238.436 9.32333 238.573 9.37C238.709 9.41667 238.879 9.44 239.083 9.44C239.256 9.44 239.408 9.41833 239.538 9.375C239.668 9.32833 239.776 9.26667 239.863 9.19C239.949 9.11333 240.013 9.025 240.053 8.925C240.096 8.825 240.118 8.71833 240.118 8.605C240.118 8.465 240.079 8.35 240.003 8.26C239.929 8.16667 239.831 8.08833 239.708 8.025C239.584 7.95833 239.443 7.90167 239.283 7.855C239.126 7.805 238.964 7.75333 238.798 7.7C238.634 7.64667 238.473 7.58667 238.313 7.52C238.156 7.45 238.016 7.36333 237.893 7.26C237.769 7.15667 237.669 7.03 237.593 6.88C237.519 6.72667 237.483 6.54167 237.483 6.325C237.483 6.13167 237.523 5.94667 237.603 5.77C237.683 5.59 237.799 5.43333 237.953 5.3C238.106 5.16333 238.294 5.055 238.518 4.975C238.741 4.895 238.996 4.855 239.283 4.855C239.616 4.855 239.914 4.90833 240.178 5.015C240.444 5.11833 240.674 5.26167 240.868 5.445L240.668 5.77ZM243.599 10.08C243.199 10.08 242.891 9.96833 242.674 9.745C242.461 9.52167 242.354 9.2 242.354 8.78V5.68H241.744C241.691 5.68 241.646 5.665 241.609 5.635C241.572 5.60167 241.554 5.55167 241.554 5.485V5.13L242.384 5.025L242.589 3.46C242.599 3.41 242.621 3.37 242.654 3.34C242.691 3.30667 242.737 3.29 242.794 3.29H243.244V5.035H244.709V5.68H243.244V8.72C243.244 8.93333 243.296 9.09167 243.399 9.195C243.502 9.29833 243.636 9.35 243.799 9.35C243.892 9.35 243.972 9.33833 244.039 9.315C244.109 9.28833 244.169 9.26 244.219 9.23C244.269 9.2 244.311 9.17333 244.344 9.15C244.381 9.12333 244.412 9.11 244.439 9.11C244.486 9.11 244.527 9.13833 244.564 9.195L244.824 9.62C244.671 9.76333 244.486 9.87667 244.269 9.96C244.052 10.04 243.829 10.08 243.599 10.08ZM248.373 7.72C247.963 7.73333 247.613 7.76667 247.323 7.82C247.036 7.87 246.801 7.93667 246.618 8.02C246.438 8.10333 246.306 8.20167 246.223 8.315C246.143 8.42833 246.103 8.555 246.103 8.695C246.103 8.82833 246.125 8.94333 246.168 9.04C246.211 9.13667 246.27 9.21667 246.343 9.28C246.42 9.34 246.508 9.385 246.608 9.415C246.711 9.44167 246.821 9.455 246.938 9.455C247.095 9.455 247.238 9.44 247.368 9.41C247.498 9.37667 247.62 9.33 247.733 9.27C247.85 9.21 247.96 9.13833 248.063 9.055C248.17 8.97167 248.273 8.87667 248.373 8.77V7.72ZM245.498 5.65C245.778 5.38 246.08 5.17833 246.403 5.045C246.726 4.91167 247.085 4.845 247.478 4.845C247.761 4.845 248.013 4.89167 248.233 4.985C248.453 5.07833 248.638 5.20833 248.788 5.375C248.938 5.54167 249.051 5.74333 249.128 5.98C249.205 6.21667 249.243 6.47667 249.243 6.76V10H248.848C248.761 10 248.695 9.98667 248.648 9.96C248.601 9.93 248.565 9.87333 248.538 9.79L248.438 9.31C248.305 9.43333 248.175 9.54333 248.048 9.64C247.921 9.73333 247.788 9.81333 247.648 9.88C247.508 9.94333 247.358 9.99167 247.198 10.025C247.041 10.0617 246.866 10.08 246.673 10.08C246.476 10.08 246.291 10.0533 246.118 10C245.945 9.94333 245.793 9.86 245.663 9.75C245.536 9.64 245.435 9.50167 245.358 9.335C245.285 9.165 245.248 8.965 245.248 8.735C245.248 8.535 245.303 8.34333 245.413 8.16C245.523 7.97333 245.701 7.80833 245.948 7.665C246.195 7.52167 246.516 7.405 246.913 7.315C247.31 7.22167 247.796 7.16833 248.373 7.155V6.76C248.373 6.36667 248.288 6.07 248.118 5.87C247.948 5.66667 247.7 5.565 247.373 5.565C247.153 5.565 246.968 5.59333 246.818 5.65C246.671 5.70333 246.543 5.765 246.433 5.835C246.326 5.90167 246.233 5.96333 246.153 6.02C246.076 6.07333 246 6.1 245.923 6.1C245.863 6.1 245.811 6.085 245.768 6.055C245.725 6.02167 245.688 5.98167 245.658 5.935L245.498 5.65ZM254.124 5.835C254.097 5.87167 254.07 5.9 254.044 5.92C254.017 5.94 253.98 5.95 253.934 5.95C253.884 5.95 253.829 5.93 253.769 5.89C253.709 5.84667 253.634 5.8 253.544 5.75C253.457 5.7 253.349 5.655 253.219 5.615C253.092 5.57167 252.935 5.55 252.749 5.55C252.499 5.55 252.279 5.595 252.089 5.685C251.899 5.77167 251.739 5.89833 251.609 6.065C251.482 6.23167 251.385 6.43333 251.319 6.67C251.255 6.90667 251.224 7.17167 251.224 7.465C251.224 7.77167 251.259 8.045 251.329 8.285C251.399 8.52167 251.497 8.72167 251.624 8.885C251.754 9.045 251.909 9.16833 252.089 9.255C252.272 9.33833 252.477 9.38 252.704 9.38C252.92 9.38 253.099 9.355 253.239 9.305C253.379 9.25167 253.494 9.19333 253.584 9.13C253.677 9.06667 253.754 9.01 253.814 8.96C253.877 8.90667 253.939 8.88 253.999 8.88C254.072 8.88 254.129 8.90833 254.169 8.965L254.419 9.29C254.309 9.42667 254.184 9.54333 254.044 9.64C253.904 9.73667 253.752 9.81833 253.589 9.885C253.429 9.94833 253.26 9.995 253.084 10.025C252.907 10.055 252.727 10.07 252.544 10.07C252.227 10.07 251.932 10.0117 251.659 9.895C251.389 9.77833 251.154 9.61 250.954 9.39C250.754 9.16667 250.597 8.89333 250.484 8.57C250.37 8.24667 250.314 7.87833 250.314 7.465C250.314 7.08833 250.365 6.74 250.469 6.42C250.575 6.1 250.729 5.825 250.929 5.595C251.132 5.36167 251.38 5.18 251.674 5.05C251.97 4.92 252.31 4.855 252.694 4.855C253.05 4.855 253.364 4.91333 253.634 5.03C253.907 5.14333 254.149 5.305 254.359 5.515L254.124 5.835ZM256.269 2.635V6.97H256.499C256.566 6.97 256.621 6.96167 256.664 6.945C256.711 6.925 256.759 6.88667 256.809 6.83L258.409 5.115C258.456 5.05833 258.504 5.015 258.554 4.985C258.607 4.95167 258.677 4.935 258.764 4.935H259.569L257.704 6.92C257.614 7.03333 257.517 7.12167 257.414 7.185C257.474 7.225 257.527 7.27167 257.574 7.325C257.624 7.375 257.671 7.43333 257.714 7.5L259.694 10H258.899C258.822 10 258.756 9.98833 258.699 9.965C258.646 9.93833 258.599 9.89167 258.559 9.825L256.894 7.75C256.844 7.68 256.794 7.635 256.744 7.615C256.697 7.59167 256.624 7.58 256.524 7.58H256.269V10H255.374V2.635H256.269ZM261.192 6.855C261.192 6.14167 261.1 5.44833 260.917 4.775C260.737 4.10167 260.472 3.46167 260.122 2.855C260.095 2.805 260.079 2.76167 260.072 2.725C260.065 2.685 260.067 2.65167 260.077 2.625C260.087 2.595 260.102 2.57 260.122 2.55C260.145 2.52667 260.17 2.50667 260.197 2.49L260.592 2.245C260.842 2.63167 261.054 3.01333 261.227 3.39C261.404 3.76667 261.545 4.145 261.652 4.525C261.762 4.90167 261.842 5.28333 261.892 5.67C261.942 6.05667 261.967 6.45167 261.967 6.855C261.967 7.26167 261.942 7.65833 261.892 8.045C261.842 8.42833 261.762 8.81 261.652 9.19C261.545 9.57 261.404 9.94833 261.227 10.325C261.054 10.7017 260.842 11.0817 260.592 11.465L260.197 11.225C260.17 11.2083 260.145 11.1883 260.122 11.165C260.102 11.145 260.087 11.12 260.077 11.09C260.067 11.0633 260.065 11.03 260.072 10.99C260.079 10.95 260.095 10.905 260.122 10.855C260.472 10.2483 260.737 9.60833 260.917 8.935C261.1 8.26167 261.192 7.56833 261.192 6.855Z" fill="#0B3AB5"/>
</svg>
