<svg viewBox="0 0 301 95" fill="none" xmlns="http://www.w3.org/2000/svg">
<g id="stack-push">
<g id="node-a">
<circle id="Ellipse 2" cx="78.5" cy="41.5" r="18" stroke="black"/>
<path id="a" d="M78.9646 42.72C78.5546 42.7333 78.2046 42.7667 77.9146 42.82C77.628 42.87 77.393 42.9367 77.2096 43.02C77.0296 43.1033 76.898 43.2017 76.8146 43.315C76.7346 43.4283 76.6946 43.555 76.6946 43.695C76.6946 43.8283 76.7163 43.9433 76.7596 44.04C76.803 44.1367 76.8613 44.2167 76.9346 44.28C77.0113 44.34 77.0996 44.385 77.1996 44.415C77.303 44.4417 77.413 44.455 77.5296 44.455C77.6863 44.455 77.8296 44.44 77.9596 44.41C78.0896 44.3767 78.2113 44.33 78.3246 44.27C78.4413 44.21 78.5513 44.1383 78.6546 44.055C78.7613 43.9717 78.8646 43.8767 78.9646 43.77V42.72ZM76.0896 40.65C76.3696 40.38 76.6713 40.1783 76.9946 40.045C77.318 39.9117 77.6763 39.845 78.0696 39.845C78.353 39.845 78.6046 39.8917 78.8246 39.985C79.0446 40.0783 79.2296 40.2083 79.3796 40.375C79.5296 40.5417 79.643 40.7433 79.7196 40.98C79.7963 41.2167 79.8346 41.4767 79.8346 41.76V45H79.4396C79.353 45 79.2863 44.9867 79.2396 44.96C79.193 44.93 79.1563 44.8733 79.1296 44.79L79.0296 44.31C78.8963 44.4333 78.7663 44.5433 78.6396 44.64C78.513 44.7333 78.3796 44.8133 78.2396 44.88C78.0996 44.9433 77.9496 44.9917 77.7896 45.025C77.633 45.0617 77.458 45.08 77.2646 45.08C77.068 45.08 76.883 45.0533 76.7096 45C76.5363 44.9433 76.3846 44.86 76.2546 44.75C76.128 44.64 76.0263 44.5017 75.9496 44.335C75.8763 44.165 75.8396 43.965 75.8396 43.735C75.8396 43.535 75.8946 43.3433 76.0046 43.16C76.1146 42.9733 76.293 42.8083 76.5396 42.665C76.7863 42.5217 77.108 42.405 77.5046 42.315C77.9013 42.2217 78.388 42.1683 78.9646 42.155V41.76C78.9646 41.3667 78.8796 41.07 78.7096 40.87C78.5396 40.6667 78.2913 40.565 77.9646 40.565C77.7446 40.565 77.5596 40.5933 77.4096 40.65C77.263 40.7033 77.1346 40.765 77.0246 40.835C76.918 40.9017 76.8246 40.9633 76.7446 41.02C76.668 41.0733 76.5913 41.1 76.5146 41.1C76.4546 41.1 76.403 41.085 76.3596 41.055C76.3163 41.0217 76.2796 40.9817 76.2496 40.935L76.0896 40.65Z" fill="black"/>
</g>
<g id="node-c">
<circle id="Ellipse 2_2" cx="199.5" cy="41.5" r="18" stroke="black"/>
<path id="c" d="M200.842 40.835C200.816 40.8717 200.789 40.9 200.762 40.92C200.736 40.94 200.699 40.95 200.652 40.95C200.602 40.95 200.547 40.93 200.487 40.89C200.427 40.8467 200.352 40.8 200.262 40.75C200.176 40.7 200.067 40.655 199.937 40.615C199.811 40.5717 199.654 40.55 199.467 40.55C199.217 40.55 198.997 40.595 198.807 40.685C198.617 40.7717 198.457 40.8983 198.327 41.065C198.201 41.2317 198.104 41.4333 198.037 41.67C197.974 41.9067 197.942 42.1717 197.942 42.465C197.942 42.7717 197.977 43.045 198.047 43.285C198.117 43.5217 198.216 43.7217 198.342 43.885C198.472 44.045 198.627 44.1683 198.807 44.255C198.991 44.3383 199.196 44.38 199.422 44.38C199.639 44.38 199.817 44.355 199.957 44.305C200.097 44.2517 200.212 44.1933 200.302 44.13C200.396 44.0667 200.472 44.01 200.532 43.96C200.596 43.9067 200.657 43.88 200.717 43.88C200.791 43.88 200.847 43.9083 200.887 43.965L201.137 44.29C201.027 44.4267 200.902 44.5433 200.762 44.64C200.622 44.7367 200.471 44.8183 200.307 44.885C200.147 44.9483 199.979 44.995 199.802 45.025C199.626 45.055 199.446 45.07 199.262 45.07C198.946 45.07 198.651 45.0117 198.377 44.895C198.107 44.7783 197.872 44.61 197.672 44.39C197.472 44.1667 197.316 43.8933 197.202 43.57C197.089 43.2467 197.032 42.8783 197.032 42.465C197.032 42.0883 197.084 41.74 197.187 41.42C197.294 41.1 197.447 40.825 197.647 40.595C197.851 40.3617 198.099 40.18 198.392 40.05C198.689 39.92 199.029 39.855 199.412 39.855C199.769 39.855 200.082 39.9133 200.352 40.03C200.626 40.1433 200.867 40.305 201.077 40.515L200.842 40.835Z" fill="black"/>
</g>
<g id="node-b">
<circle id="Ellipse 2_3" cx="139.5" cy="41.5" r="18" stroke="black"/>
<path id="b" d="M137.802 43.78C137.965 44 138.144 44.155 138.337 44.245C138.534 44.335 138.749 44.38 138.982 44.38C139.459 44.38 139.824 44.2117 140.077 43.875C140.33 43.5383 140.457 43.0367 140.457 42.37C140.457 41.75 140.344 41.295 140.117 41.005C139.894 40.7117 139.574 40.565 139.157 40.565C138.867 40.565 138.614 40.6317 138.397 40.765C138.184 40.8983 137.985 41.0867 137.802 41.33V43.78ZM137.802 40.665C138.015 40.4183 138.255 40.2217 138.522 40.075C138.792 39.9283 139.102 39.855 139.452 39.855C139.749 39.855 140.015 39.9117 140.252 40.025C140.492 40.1383 140.695 40.3033 140.862 40.52C141.029 40.7333 141.155 40.9933 141.242 41.3C141.332 41.6067 141.377 41.9517 141.377 42.335C141.377 42.745 141.327 43.1183 141.227 43.455C141.127 43.7917 140.982 44.08 140.792 44.32C140.605 44.5567 140.377 44.7417 140.107 44.875C139.837 45.005 139.534 45.07 139.197 45.07C138.864 45.07 138.582 45.0083 138.352 44.885C138.125 44.7583 137.927 44.58 137.757 44.35L137.712 44.81C137.685 44.9367 137.609 45 137.482 45H136.907V37.635H137.802V40.665Z" fill="black"/>
</g>
<path id="Arrow 4" d="M121.354 42.3536C121.549 42.1583 121.549 41.8417 121.354 41.6464L118.172 38.4645C117.976 38.2692 117.66 38.2692 117.464 38.4645C117.269 38.6597 117.269 38.9763 117.464 39.1716L120.293 42L117.464 44.8284C117.269 45.0237 117.269 45.3403 117.464 45.5355C117.66 45.7308 117.976 45.7308 118.172 45.5355L121.354 42.3536ZM97 42.5H121V41.5H97V42.5Z" fill="black"/>
<path id="Arrow 5" d="M181.354 42.3536C181.549 42.1583 181.549 41.8417 181.354 41.6464L178.172 38.4645C177.976 38.2692 177.66 38.2692 177.464 38.4645C177.269 38.6597 177.269 38.9763 177.464 39.1716L180.293 42L177.464 44.8284C177.269 45.0237 177.269 45.3403 177.464 45.5355C177.66 45.7308 177.976 45.7308 178.172 45.5355L181.354 42.3536ZM158 42.5H181V41.5H158V42.5Z" fill="black"/>
<path id="Arrow 5_2" d="M241.354 42.3536C241.549 42.1583 241.549 41.8417 241.354 41.6464L238.172 38.4645C237.976 38.2692 237.66 38.2692 237.464 38.4645C237.269 38.6597 237.269 38.9763 237.464 39.1716L240.293 42L237.464 44.8284C237.269 45.0237 237.269 45.3403 237.464 45.5355C237.66 45.7308 237.976 45.7308 238.172 45.5355L241.354 42.3536ZM218 42.5H241V41.5H218V42.5Z" fill="black"/>
<path id="stack-head-pointer" style="transform-origin: top left; transform-box: fill-box; transition-duration: 500ms" d="M64.0161 28.4997C64.2921 28.4908 64.5086 28.2599 64.4997 27.9839L64.3547 23.4862C64.3458 23.2102 64.1148 22.9937 63.8388 23.0026C63.5628 23.0115 63.3463 23.2425 63.3552 23.5185L63.4841 27.5164L59.4862 27.6453C59.2102 27.6542 58.9937 27.8852 59.0026 28.1612C59.0115 28.4372 59.2425 28.6537 59.5185 28.6448L64.0161 28.4997ZM47.658 13.3648L63.658 28.3648L64.342 27.6352L48.342 12.6352L47.658 13.3648Z" fill="#0B3AB5"/>
<path id="head (top of stack)" d="M23.7484 5.61C23.9651 5.38 24.2051 5.19667 24.4684 5.06C24.7318 4.92333 25.0351 4.855 25.3784 4.855C25.6551 4.855 25.8984 4.90167 26.1084 4.995C26.3218 5.085 26.4984 5.215 26.6384 5.385C26.7818 5.55167 26.8901 5.75333 26.9634 5.99C27.0368 6.22667 27.0734 6.48833 27.0734 6.775V10H26.1784V6.775C26.1784 6.39167 26.0901 6.095 25.9134 5.885C25.7401 5.67167 25.4751 5.565 25.1184 5.565C24.8551 5.565 24.6084 5.62833 24.3784 5.755C24.1518 5.88167 23.9418 6.05333 23.7484 6.27V10H22.8534V2.635H23.7484V5.61ZM31.8196 6.915C31.8196 6.70833 31.7896 6.52 31.7296 6.35C31.6729 6.17667 31.5879 6.02833 31.4746 5.905C31.3646 5.77833 31.2296 5.68167 31.0696 5.615C30.9096 5.545 30.7279 5.51 30.5246 5.51C30.0979 5.51 29.7596 5.635 29.5096 5.885C29.2629 6.13167 29.1096 6.475 29.0496 6.915H31.8196ZM32.5396 9.29C32.4296 9.42333 32.2979 9.54 32.1446 9.64C31.9913 9.73667 31.8263 9.81667 31.6496 9.88C31.4763 9.94333 31.2963 9.99 31.1096 10.02C30.9229 10.0533 30.7379 10.07 30.5546 10.07C30.2046 10.07 29.8813 10.0117 29.5846 9.895C29.2913 9.775 29.0363 9.60167 28.8196 9.375C28.6063 9.145 28.4396 8.86167 28.3196 8.525C28.1996 8.18833 28.1396 7.80167 28.1396 7.365C28.1396 7.01167 28.1929 6.68167 28.2996 6.375C28.4096 6.06833 28.5663 5.80333 28.7696 5.58C28.9729 5.35333 29.2213 5.17667 29.5146 5.05C29.8079 4.92 30.1379 4.855 30.5046 4.855C30.8079 4.855 31.0879 4.90667 31.3446 5.01C31.6046 5.11 31.8279 5.25667 32.0146 5.45C32.2046 5.64 32.3529 5.87667 32.4596 6.16C32.5663 6.44 32.6196 6.76 32.6196 7.12C32.6196 7.26 32.6046 7.35333 32.5746 7.4C32.5446 7.44667 32.4879 7.47 32.4046 7.47H29.0196C29.0296 7.79 29.0729 8.06833 29.1496 8.305C29.2296 8.54167 29.3396 8.74 29.4796 8.9C29.6196 9.05667 29.7863 9.175 29.9796 9.255C30.1729 9.33167 30.3896 9.37 30.6296 9.37C30.8529 9.37 31.0446 9.345 31.2046 9.295C31.3679 9.24167 31.5079 9.185 31.6246 9.125C31.7413 9.065 31.8379 9.01 31.9146 8.96C31.9946 8.90667 32.0629 8.88 32.1196 8.88C32.1929 8.88 32.2496 8.90833 32.2896 8.965L32.5396 9.29ZM36.4578 7.72C36.0478 7.73333 35.6978 7.76667 35.4078 7.82C35.1211 7.87 34.8861 7.93667 34.7028 8.02C34.5228 8.10333 34.3911 8.20167 34.3078 8.315C34.2278 8.42833 34.1878 8.555 34.1878 8.695C34.1878 8.82833 34.2095 8.94333 34.2528 9.04C34.2961 9.13667 34.3545 9.21667 34.4278 9.28C34.5045 9.34 34.5928 9.385 34.6928 9.415C34.7961 9.44167 34.9061 9.455 35.0228 9.455C35.1795 9.455 35.3228 9.44 35.4528 9.41C35.5828 9.37667 35.7045 9.33 35.8178 9.27C35.9345 9.21 36.0445 9.13833 36.1478 9.055C36.2545 8.97167 36.3578 8.87667 36.4578 8.77V7.72ZM33.5828 5.65C33.8628 5.38 34.1645 5.17833 34.4878 5.045C34.8111 4.91167 35.1695 4.845 35.5628 4.845C35.8461 4.845 36.0978 4.89167 36.3178 4.985C36.5378 5.07833 36.7228 5.20833 36.8728 5.375C37.0228 5.54167 37.1361 5.74333 37.2128 5.98C37.2895 6.21667 37.3278 6.47667 37.3278 6.76V10H36.9328C36.8461 10 36.7795 9.98667 36.7328 9.96C36.6861 9.93 36.6495 9.87333 36.6228 9.79L36.5228 9.31C36.3895 9.43333 36.2595 9.54333 36.1328 9.64C36.0061 9.73333 35.8728 9.81333 35.7328 9.88C35.5928 9.94333 35.4428 9.99167 35.2828 10.025C35.1261 10.0617 34.9511 10.08 34.7578 10.08C34.5611 10.08 34.3761 10.0533 34.2028 10C34.0295 9.94333 33.8778 9.86 33.7478 9.75C33.6211 9.64 33.5195 9.50167 33.4428 9.335C33.3695 9.165 33.3328 8.965 33.3328 8.735C33.3328 8.535 33.3878 8.34333 33.4978 8.16C33.6078 7.97333 33.7861 7.80833 34.0328 7.665C34.2795 7.52167 34.6011 7.405 34.9978 7.315C35.3945 7.22167 35.8811 7.16833 36.4578 7.155V6.76C36.4578 6.36667 36.3728 6.07 36.2028 5.87C36.0328 5.66667 35.7845 5.565 35.4578 5.565C35.2378 5.565 35.0528 5.59333 34.9028 5.65C34.7561 5.70333 34.6278 5.765 34.5178 5.835C34.4111 5.90167 34.3178 5.96333 34.2378 6.02C34.1611 6.07333 34.0845 6.1 34.0078 6.1C33.9478 6.1 33.8961 6.085 33.8528 6.055C33.8095 6.02167 33.7728 5.98167 33.7428 5.935L33.5828 5.65ZM41.9835 6.14C41.8168 5.91667 41.6368 5.76167 41.4435 5.675C41.2502 5.585 41.0335 5.54 40.7935 5.54C40.3235 5.54 39.9618 5.70833 39.7085 6.045C39.4552 6.38167 39.3285 6.86167 39.3285 7.485C39.3285 7.815 39.3568 8.09833 39.4135 8.335C39.4702 8.56833 39.5535 8.76167 39.6635 8.915C39.7735 9.065 39.9085 9.175 40.0685 9.245C40.2285 9.315 40.4102 9.35 40.6135 9.35C40.9068 9.35 41.1618 9.28333 41.3785 9.15C41.5985 9.01667 41.8002 8.82833 41.9835 8.585V6.14ZM42.8735 2.635V10H42.3435C42.2168 10 42.1368 9.93833 42.1035 9.815L42.0235 9.2C41.8068 9.46 41.5602 9.67 41.2835 9.83C41.0068 9.99 40.6868 10.07 40.3235 10.07C40.0335 10.07 39.7702 10.015 39.5335 9.905C39.2968 9.79167 39.0952 9.62667 38.9285 9.41C38.7618 9.19333 38.6335 8.92333 38.5435 8.6C38.4535 8.27667 38.4085 7.905 38.4085 7.485C38.4085 7.11167 38.4585 6.765 38.5585 6.445C38.6585 6.12167 38.8018 5.84167 38.9885 5.605C39.1752 5.36833 39.4035 5.18333 39.6735 5.05C39.9468 4.91333 40.2535 4.845 40.5935 4.845C40.9035 4.845 41.1685 4.89833 41.3885 5.005C41.6118 5.10833 41.8102 5.25333 41.9835 5.44V2.635H42.8735ZM47.3578 6.855C47.3578 7.56833 47.4478 8.26167 47.6278 8.935C47.8111 9.60833 48.0778 10.2483 48.4278 10.855C48.4811 10.9583 48.4945 11.0367 48.4678 11.09C48.4411 11.1467 48.4028 11.1917 48.3528 11.225L47.9578 11.465C47.7078 11.0817 47.4945 10.7017 47.3178 10.325C47.1445 9.94833 47.0028 9.57 46.8928 9.19C46.7861 8.81 46.7078 8.42833 46.6578 8.045C46.6078 7.65833 46.5828 7.26167 46.5828 6.855C46.5828 6.45167 46.6078 6.05667 46.6578 5.67C46.7078 5.28333 46.7861 4.90167 46.8928 4.525C47.0028 4.145 47.1445 3.76667 47.3178 3.39C47.4945 3.01333 47.7078 2.63167 47.9578 2.245L48.3528 2.49C48.4028 2.52333 48.4411 2.56833 48.4678 2.625C48.4945 2.67833 48.4811 2.755 48.4278 2.855C48.0778 3.46167 47.8111 4.10167 47.6278 4.775C47.4478 5.44833 47.3578 6.14167 47.3578 6.855ZM50.8733 10.08C50.4733 10.08 50.1649 9.96833 49.9483 9.745C49.7349 9.52167 49.6283 9.2 49.6283 8.78V5.68H49.0183C48.9649 5.68 48.9199 5.665 48.8833 5.635C48.8466 5.60167 48.8283 5.55167 48.8283 5.485V5.13L49.6583 5.025L49.8633 3.46C49.8733 3.41 49.8949 3.37 49.9283 3.34C49.9649 3.30667 50.0116 3.29 50.0683 3.29H50.5183V5.035H51.9833V5.68H50.5183V8.72C50.5183 8.93333 50.5699 9.09167 50.6733 9.195C50.7766 9.29833 50.9099 9.35 51.0733 9.35C51.1666 9.35 51.2466 9.33833 51.3133 9.315C51.3833 9.28833 51.4433 9.26 51.4933 9.23C51.5433 9.2 51.5849 9.17333 51.6183 9.15C51.6549 9.12333 51.6866 9.11 51.7133 9.11C51.7599 9.11 51.8016 9.13833 51.8383 9.195L52.0983 9.62C51.9449 9.76333 51.7599 9.87667 51.5433 9.96C51.3266 10.04 51.1033 10.08 50.8733 10.08ZM55.008 4.855C55.378 4.855 55.7113 4.91667 56.008 5.04C56.3046 5.16333 56.558 5.33833 56.768 5.565C56.978 5.79167 57.138 6.06667 57.248 6.39C57.3613 6.71 57.418 7.06833 57.418 7.465C57.418 7.865 57.3613 8.225 57.248 8.545C57.138 8.865 56.978 9.13833 56.768 9.365C56.558 9.59167 56.3046 9.76667 56.008 9.89C55.7113 10.01 55.378 10.07 55.008 10.07C54.6346 10.07 54.298 10.01 53.998 9.89C53.7013 9.76667 53.448 9.59167 53.238 9.365C53.028 9.13833 52.8663 8.865 52.753 8.545C52.643 8.225 52.588 7.865 52.588 7.465C52.588 7.06833 52.643 6.71 52.753 6.39C52.8663 6.06667 53.028 5.79167 53.238 5.565C53.448 5.33833 53.7013 5.16333 53.998 5.04C54.298 4.91667 54.6346 4.855 55.008 4.855ZM55.008 9.375C55.508 9.375 55.8813 9.20833 56.128 8.875C56.3746 8.53833 56.498 8.07 56.498 7.47C56.498 6.86667 56.3746 6.39667 56.128 6.06C55.8813 5.72333 55.508 5.555 55.008 5.555C54.7546 5.555 54.533 5.59833 54.343 5.685C54.1563 5.77167 53.9996 5.89667 53.873 6.06C53.7496 6.22333 53.6563 6.425 53.593 6.665C53.533 6.90167 53.503 7.17 53.503 7.47C53.503 8.07 53.6263 8.53833 53.873 8.875C54.123 9.20833 54.5013 9.375 55.008 9.375ZM59.4418 8.78C59.6051 9 59.7835 9.155 59.9768 9.245C60.1701 9.335 60.3868 9.38 60.6268 9.38C61.1001 9.38 61.4635 9.21167 61.7168 8.875C61.9701 8.53833 62.0968 8.05833 62.0968 7.435C62.0968 7.105 62.0668 6.82167 62.0068 6.585C61.9501 6.34833 61.8668 6.155 61.7568 6.005C61.6468 5.85167 61.5118 5.74 61.3518 5.67C61.1918 5.6 61.0101 5.565 60.8068 5.565C60.5168 5.565 60.2618 5.63167 60.0418 5.765C59.8251 5.89833 59.6251 6.08667 59.4418 6.33V8.78ZM59.3968 5.72C59.6101 5.45667 59.8568 5.245 60.1368 5.085C60.4168 4.925 60.7368 4.845 61.0968 4.845C61.3901 4.845 61.6551 4.90167 61.8918 5.015C62.1285 5.125 62.3301 5.29 62.4968 5.51C62.6635 5.72667 62.7918 5.99667 62.8818 6.32C62.9718 6.64333 63.0168 7.015 63.0168 7.435C63.0168 7.80833 62.9668 8.15667 62.8668 8.48C62.7668 8.8 62.6218 9.07833 62.4318 9.315C62.2451 9.54833 62.0151 9.73333 61.7418 9.87C61.4718 10.0033 61.1668 10.07 60.8268 10.07C60.5168 10.07 60.2501 10.0183 60.0268 9.915C59.8068 9.80833 59.6118 9.66167 59.4418 9.475V11.715H58.5468V4.935H59.0818C59.2085 4.935 59.2868 4.99667 59.3168 5.12L59.3968 5.72ZM68.8459 4.855C69.2159 4.855 69.5492 4.91667 69.8459 5.04C70.1425 5.16333 70.3959 5.33833 70.6059 5.565C70.8159 5.79167 70.9759 6.06667 71.0859 6.39C71.1992 6.71 71.2559 7.06833 71.2559 7.465C71.2559 7.865 71.1992 8.225 71.0859 8.545C70.9759 8.865 70.8159 9.13833 70.6059 9.365C70.3959 9.59167 70.1425 9.76667 69.8459 9.89C69.5492 10.01 69.2159 10.07 68.8459 10.07C68.4725 10.07 68.1359 10.01 67.8359 9.89C67.5392 9.76667 67.2859 9.59167 67.0759 9.365C66.8659 9.13833 66.7042 8.865 66.5909 8.545C66.4809 8.225 66.4259 7.865 66.4259 7.465C66.4259 7.06833 66.4809 6.71 66.5909 6.39C66.7042 6.06667 66.8659 5.79167 67.0759 5.565C67.2859 5.33833 67.5392 5.16333 67.8359 5.04C68.1359 4.91667 68.4725 4.855 68.8459 4.855ZM68.8459 9.375C69.3459 9.375 69.7192 9.20833 69.9659 8.875C70.2125 8.53833 70.3359 8.07 70.3359 7.47C70.3359 6.86667 70.2125 6.39667 69.9659 6.06C69.7192 5.72333 69.3459 5.555 68.8459 5.555C68.5925 5.555 68.3709 5.59833 68.1809 5.685C67.9942 5.77167 67.8375 5.89667 67.7109 6.06C67.5875 6.22333 67.4942 6.425 67.4309 6.665C67.3709 6.90167 67.3409 7.17 67.3409 7.47C67.3409 8.07 67.4642 8.53833 67.7109 8.875C67.9609 9.20833 68.3392 9.375 68.8459 9.375ZM72.6073 10V5.695L72.0473 5.63C71.9773 5.61333 71.9189 5.58833 71.8723 5.555C71.8289 5.51833 71.8073 5.46667 71.8073 5.4V5.035H72.6073V4.545C72.6073 4.255 72.6473 3.99833 72.7273 3.775C72.8106 3.54833 72.9273 3.35833 73.0773 3.205C73.2306 3.04833 73.4139 2.93 73.6273 2.85C73.8406 2.77 74.0806 2.73 74.3473 2.73C74.5739 2.73 74.7823 2.76333 74.9723 2.83L74.9523 3.275C74.9456 3.355 74.9006 3.39833 74.8173 3.405C74.7373 3.41167 74.6289 3.415 74.4923 3.415C74.3389 3.415 74.1989 3.435 74.0723 3.475C73.9489 3.515 73.8423 3.58 73.7523 3.67C73.6623 3.76 73.5923 3.87833 73.5423 4.025C73.4956 4.17167 73.4723 4.35333 73.4723 4.57V5.035H74.9323V5.68H73.5023V10H72.6073ZM81.1062 5.77C81.0662 5.84333 81.0045 5.88 80.9212 5.88C80.8712 5.88 80.8145 5.86167 80.7512 5.825C80.6878 5.78833 80.6095 5.74833 80.5162 5.705C80.4262 5.65833 80.3178 5.61667 80.1912 5.58C80.0645 5.54 79.9145 5.52 79.7412 5.52C79.5912 5.52 79.4562 5.54 79.3362 5.58C79.2162 5.61667 79.1128 5.66833 79.0262 5.735C78.9428 5.80167 78.8778 5.88 78.8312 5.97C78.7878 6.05667 78.7662 6.15167 78.7662 6.255C78.7662 6.385 78.8028 6.49333 78.8762 6.58C78.9528 6.66667 79.0528 6.74167 79.1762 6.805C79.2995 6.86833 79.4395 6.925 79.5962 6.975C79.7528 7.02167 79.9128 7.07333 80.0762 7.13C80.2428 7.18333 80.4045 7.24333 80.5612 7.31C80.7178 7.37667 80.8578 7.46 80.9812 7.56C81.1045 7.66 81.2028 7.78333 81.2762 7.93C81.3528 8.07333 81.3912 8.24667 81.3912 8.45C81.3912 8.68333 81.3495 8.9 81.2662 9.1C81.1828 9.29667 81.0595 9.46833 80.8962 9.615C80.7328 9.75833 80.5328 9.87167 80.2962 9.955C80.0595 10.0383 79.7862 10.08 79.4762 10.08C79.1228 10.08 78.8028 10.0233 78.5162 9.91C78.2295 9.79333 77.9862 9.645 77.7862 9.465L77.9962 9.125C78.0228 9.08167 78.0545 9.04833 78.0912 9.025C78.1278 9.00167 78.1745 8.99 78.2312 8.99C78.2912 8.99 78.3545 9.01333 78.4212 9.06C78.4878 9.10667 78.5678 9.15833 78.6612 9.215C78.7578 9.27167 78.8745 9.32333 79.0112 9.37C79.1478 9.41667 79.3178 9.44 79.5212 9.44C79.6945 9.44 79.8462 9.41833 79.9762 9.375C80.1062 9.32833 80.2145 9.26667 80.3012 9.19C80.3878 9.11333 80.4512 9.025 80.4912 8.925C80.5345 8.825 80.5562 8.71833 80.5562 8.605C80.5562 8.465 80.5178 8.35 80.4412 8.26C80.3678 8.16667 80.2695 8.08833 80.1462 8.025C80.0228 7.95833 79.8812 7.90167 79.7212 7.855C79.5645 7.805 79.4028 7.75333 79.2362 7.7C79.0728 7.64667 78.9112 7.58667 78.7512 7.52C78.5945 7.45 78.4545 7.36333 78.3312 7.26C78.2078 7.15667 78.1078 7.03 78.0312 6.88C77.9578 6.72667 77.9212 6.54167 77.9212 6.325C77.9212 6.13167 77.9612 5.94667 78.0412 5.77C78.1212 5.59 78.2378 5.43333 78.3912 5.3C78.5445 5.16333 78.7328 5.055 78.9562 4.975C79.1795 4.895 79.4345 4.855 79.7212 4.855C80.0545 4.855 80.3528 4.90833 80.6162 5.015C80.8828 5.11833 81.1128 5.26167 81.3062 5.445L81.1062 5.77ZM84.0373 10.08C83.6373 10.08 83.329 9.96833 83.1123 9.745C82.899 9.52167 82.7923 9.2 82.7923 8.78V5.68H82.1823C82.129 5.68 82.084 5.665 82.0473 5.635C82.0107 5.60167 81.9923 5.55167 81.9923 5.485V5.13L82.8223 5.025L83.0273 3.46C83.0373 3.41 83.059 3.37 83.0923 3.34C83.129 3.30667 83.1757 3.29 83.2323 3.29H83.6823V5.035H85.1473V5.68H83.6823V8.72C83.6823 8.93333 83.734 9.09167 83.8373 9.195C83.9407 9.29833 84.074 9.35 84.2373 9.35C84.3307 9.35 84.4107 9.33833 84.4773 9.315C84.5473 9.28833 84.6073 9.26 84.6573 9.23C84.7073 9.2 84.749 9.17333 84.7823 9.15C84.819 9.12333 84.8507 9.11 84.8773 9.11C84.924 9.11 84.9657 9.13833 85.0023 9.195L85.2623 9.62C85.109 9.76333 84.924 9.87667 84.7073 9.96C84.4907 10.04 84.2673 10.08 84.0373 10.08ZM88.8113 7.72C88.4013 7.73333 88.0513 7.76667 87.7613 7.82C87.4747 7.87 87.2397 7.93667 87.0563 8.02C86.8763 8.10333 86.7447 8.20167 86.6613 8.315C86.5813 8.42833 86.5413 8.555 86.5413 8.695C86.5413 8.82833 86.563 8.94333 86.6063 9.04C86.6497 9.13667 86.708 9.21667 86.7813 9.28C86.858 9.34 86.9463 9.385 87.0463 9.415C87.1497 9.44167 87.2597 9.455 87.3763 9.455C87.533 9.455 87.6763 9.44 87.8063 9.41C87.9363 9.37667 88.058 9.33 88.1713 9.27C88.288 9.21 88.398 9.13833 88.5013 9.055C88.608 8.97167 88.7113 8.87667 88.8113 8.77V7.72ZM85.9363 5.65C86.2163 5.38 86.518 5.17833 86.8413 5.045C87.1647 4.91167 87.523 4.845 87.9163 4.845C88.1997 4.845 88.4513 4.89167 88.6713 4.985C88.8913 5.07833 89.0763 5.20833 89.2263 5.375C89.3763 5.54167 89.4897 5.74333 89.5663 5.98C89.643 6.21667 89.6813 6.47667 89.6813 6.76V10H89.2863C89.1997 10 89.133 9.98667 89.0863 9.96C89.0397 9.93 89.003 9.87333 88.9763 9.79L88.8763 9.31C88.743 9.43333 88.613 9.54333 88.4863 9.64C88.3597 9.73333 88.2263 9.81333 88.0863 9.88C87.9463 9.94333 87.7963 9.99167 87.6363 10.025C87.4797 10.0617 87.3047 10.08 87.1113 10.08C86.9147 10.08 86.7297 10.0533 86.5563 10C86.383 9.94333 86.2313 9.86 86.1013 9.75C85.9747 9.64 85.873 9.50167 85.7963 9.335C85.723 9.165 85.6863 8.965 85.6863 8.735C85.6863 8.535 85.7413 8.34333 85.8513 8.16C85.9613 7.97333 86.1397 7.80833 86.3863 7.665C86.633 7.52167 86.9547 7.405 87.3513 7.315C87.748 7.22167 88.2347 7.16833 88.8113 7.155V6.76C88.8113 6.36667 88.7263 6.07 88.5563 5.87C88.3863 5.66667 88.138 5.565 87.8113 5.565C87.5913 5.565 87.4063 5.59333 87.2563 5.65C87.1097 5.70333 86.9813 5.765 86.8713 5.835C86.7647 5.90167 86.6713 5.96333 86.5913 6.02C86.5147 6.07333 86.438 6.1 86.3613 6.1C86.3013 6.1 86.2497 6.085 86.2063 6.055C86.163 6.02167 86.1263 5.98167 86.0963 5.935L85.9363 5.65ZM94.562 5.835C94.5354 5.87167 94.5087 5.9 94.482 5.92C94.4554 5.94 94.4187 5.95 94.372 5.95C94.322 5.95 94.267 5.93 94.207 5.89C94.147 5.84667 94.072 5.8 93.982 5.75C93.8954 5.7 93.787 5.655 93.657 5.615C93.5304 5.57167 93.3737 5.55 93.187 5.55C92.937 5.55 92.717 5.595 92.527 5.685C92.337 5.77167 92.177 5.89833 92.047 6.065C91.9204 6.23167 91.8237 6.43333 91.757 6.67C91.6937 6.90667 91.662 7.17167 91.662 7.465C91.662 7.77167 91.697 8.045 91.767 8.285C91.837 8.52167 91.9354 8.72167 92.062 8.885C92.192 9.045 92.347 9.16833 92.527 9.255C92.7104 9.33833 92.9154 9.38 93.142 9.38C93.3587 9.38 93.537 9.355 93.677 9.305C93.817 9.25167 93.932 9.19333 94.022 9.13C94.1154 9.06667 94.192 9.01 94.252 8.96C94.3154 8.90667 94.377 8.88 94.437 8.88C94.5104 8.88 94.567 8.90833 94.607 8.965L94.857 9.29C94.747 9.42667 94.622 9.54333 94.482 9.64C94.342 9.73667 94.1904 9.81833 94.027 9.885C93.867 9.94833 93.6987 9.995 93.522 10.025C93.3454 10.055 93.1654 10.07 92.982 10.07C92.6654 10.07 92.3704 10.0117 92.097 9.895C91.827 9.77833 91.592 9.61 91.392 9.39C91.192 9.16667 91.0354 8.89333 90.922 8.57C90.8087 8.24667 90.752 7.87833 90.752 7.465C90.752 7.08833 90.8037 6.74 90.907 6.42C91.0137 6.1 91.167 5.825 91.367 5.595C91.5704 5.36167 91.8187 5.18 92.112 5.05C92.4087 4.92 92.7487 4.855 93.132 4.855C93.4887 4.855 93.802 4.91333 94.072 5.03C94.3454 5.14333 94.587 5.305 94.797 5.515L94.562 5.835ZM96.7074 2.635V6.97H96.9374C97.0041 6.97 97.0591 6.96167 97.1024 6.945C97.1491 6.925 97.1974 6.88667 97.2474 6.83L98.8474 5.115C98.8941 5.05833 98.9424 5.015 98.9924 4.985C99.0458 4.95167 99.1158 4.935 99.2024 4.935H100.007L98.1424 6.92C98.0524 7.03333 97.9558 7.12167 97.8524 7.185C97.9124 7.225 97.9658 7.27167 98.0124 7.325C98.0624 7.375 98.1091 7.43333 98.1524 7.5L100.132 10H99.3374C99.2608 10 99.1941 9.98833 99.1374 9.965C99.0841 9.93833 99.0374 9.89167 98.9974 9.825L97.3324 7.75C97.2824 7.68 97.2324 7.635 97.1824 7.615C97.1358 7.59167 97.0624 7.58 96.9624 7.58H96.7074V10H95.8124V2.635H96.7074ZM101.631 6.855C101.631 6.14167 101.539 5.44833 101.356 4.775C101.176 4.10167 100.911 3.46167 100.561 2.855C100.534 2.805 100.517 2.76167 100.511 2.725C100.504 2.685 100.506 2.65167 100.516 2.625C100.526 2.595 100.541 2.57 100.561 2.55C100.584 2.52667 100.609 2.50667 100.636 2.49L101.031 2.245C101.281 2.63167 101.492 3.01333 101.666 3.39C101.842 3.76667 101.984 4.145 102.091 4.525C102.201 4.90167 102.281 5.28333 102.331 5.67C102.381 6.05667 102.406 6.45167 102.406 6.855C102.406 7.26167 102.381 7.65833 102.331 8.045C102.281 8.42833 102.201 8.81 102.091 9.19C101.984 9.57 101.842 9.94833 101.666 10.325C101.492 10.7017 101.281 11.0817 101.031 11.465L100.636 11.225C100.609 11.2083 100.584 11.1883 100.561 11.165C100.541 11.145 100.526 11.12 100.516 11.09C100.506 11.0633 100.504 11.03 100.511 10.99C100.517 10.95 100.534 10.905 100.561 10.855C100.911 10.2483 101.176 9.60833 101.356 8.935C101.539 8.26167 101.631 7.56833 101.631 6.855Z" fill="#0B3AB5"/>
<path id="next pointer" d="M98.8673 73.67C98.9773 73.5467 99.0939 73.435 99.2173 73.335C99.3406 73.235 99.4706 73.15 99.6073 73.08C99.7473 73.0067 99.8939 72.9517 100.047 72.915C100.204 72.875 100.372 72.855 100.552 72.855C100.829 72.855 101.072 72.9017 101.282 72.995C101.496 73.085 101.672 73.215 101.812 73.385C101.956 73.5517 102.064 73.7533 102.137 73.99C102.211 74.2267 102.247 74.4883 102.247 74.775V78H101.352V74.775C101.352 74.3917 101.264 74.095 101.087 73.885C100.914 73.6717 100.649 73.565 100.292 73.565C100.029 73.565 99.7823 73.6283 99.5523 73.755C99.3256 73.8817 99.1156 74.0533 98.9223 74.27V78H98.0273V72.935H98.5623C98.6889 72.935 98.7673 72.9967 98.7973 73.12L98.8673 73.67ZM106.993 74.915C106.993 74.7083 106.963 74.52 106.903 74.35C106.847 74.1767 106.762 74.0283 106.648 73.905C106.538 73.7783 106.403 73.6817 106.243 73.615C106.083 73.545 105.902 73.51 105.698 73.51C105.272 73.51 104.933 73.635 104.683 73.885C104.437 74.1317 104.283 74.475 104.223 74.915H106.993ZM107.713 77.29C107.603 77.4233 107.472 77.54 107.318 77.64C107.165 77.7367 107 77.8167 106.823 77.88C106.65 77.9433 106.47 77.99 106.283 78.02C106.097 78.0533 105.912 78.07 105.728 78.07C105.378 78.07 105.055 78.0117 104.758 77.895C104.465 77.775 104.21 77.6017 103.993 77.375C103.78 77.145 103.613 76.8617 103.493 76.525C103.373 76.1883 103.313 75.8017 103.313 75.365C103.313 75.0117 103.367 74.6817 103.473 74.375C103.583 74.0683 103.74 73.8033 103.943 73.58C104.147 73.3533 104.395 73.1767 104.688 73.05C104.982 72.92 105.312 72.855 105.678 72.855C105.982 72.855 106.262 72.9067 106.518 73.01C106.778 73.11 107.002 73.2567 107.188 73.45C107.378 73.64 107.527 73.8767 107.633 74.16C107.74 74.44 107.793 74.76 107.793 75.12C107.793 75.26 107.778 75.3533 107.748 75.4C107.718 75.4467 107.662 75.47 107.578 75.47H104.193C104.203 75.79 104.247 76.0683 104.323 76.305C104.403 76.5417 104.513 76.74 104.653 76.9C104.793 77.0567 104.96 77.175 105.153 77.255C105.347 77.3317 105.563 77.37 105.803 77.37C106.027 77.37 106.218 77.345 106.378 77.295C106.542 77.2417 106.682 77.185 106.798 77.125C106.915 77.065 107.012 77.01 107.088 76.96C107.168 76.9067 107.237 76.88 107.293 76.88C107.367 76.88 107.423 76.9083 107.463 76.965L107.713 77.29ZM112.978 78H112.123C112.05 78 111.992 77.9817 111.948 77.945C111.908 77.905 111.875 77.8617 111.848 77.815L110.573 75.83C110.56 75.8767 110.545 75.9233 110.528 75.97C110.515 76.0133 110.495 76.0533 110.468 76.09L109.288 77.815C109.255 77.8617 109.218 77.905 109.178 77.945C109.142 77.9817 109.09 78 109.023 78H108.228L110.003 75.4L108.298 72.935H109.153C109.227 72.935 109.28 72.9467 109.313 72.97C109.347 72.9933 109.377 73.0267 109.403 73.07L110.648 74.97C110.675 74.8733 110.717 74.78 110.773 74.69L111.863 73.09C111.893 73.0433 111.925 73.0067 111.958 72.98C111.995 72.95 112.038 72.935 112.088 72.935H112.908L111.203 75.355L112.978 78ZM115.354 78.08C114.954 78.08 114.645 77.9683 114.429 77.745C114.215 77.5217 114.109 77.2 114.109 76.78V73.68H113.499C113.445 73.68 113.4 73.665 113.364 73.635C113.327 73.6017 113.309 73.5517 113.309 73.485V73.13L114.139 73.025L114.344 71.46C114.354 71.41 114.375 71.37 114.409 71.34C114.445 71.3067 114.492 71.29 114.549 71.29H114.999V73.035H116.464V73.68H114.999V76.72C114.999 76.9333 115.05 77.0917 115.154 77.195C115.257 77.2983 115.39 77.35 115.554 77.35C115.647 77.35 115.727 77.3383 115.794 77.315C115.864 77.2883 115.924 77.26 115.974 77.23C116.024 77.2 116.065 77.1733 116.099 77.15C116.135 77.1233 116.167 77.11 116.194 77.11C116.24 77.11 116.282 77.1383 116.319 77.195L116.579 77.62C116.425 77.7633 116.24 77.8767 116.024 77.96C115.807 78.04 115.584 78.08 115.354 78.08ZM92.765 88.78C92.9284 89 93.1067 89.155 93.3 89.245C93.4934 89.335 93.71 89.38 93.95 89.38C94.4234 89.38 94.7867 89.2117 95.04 88.875C95.2934 88.5383 95.42 88.0583 95.42 87.435C95.42 87.105 95.39 86.8217 95.33 86.585C95.2734 86.3483 95.19 86.155 95.08 86.005C94.97 85.8517 94.835 85.74 94.675 85.67C94.515 85.6 94.3334 85.565 94.13 85.565C93.84 85.565 93.585 85.6317 93.365 85.765C93.1484 85.8983 92.9484 86.0867 92.765 86.33V88.78ZM92.72 85.72C92.9334 85.4567 93.18 85.245 93.46 85.085C93.74 84.925 94.06 84.845 94.42 84.845C94.7134 84.845 94.9784 84.9017 95.215 85.015C95.4517 85.125 95.6534 85.29 95.82 85.51C95.9867 85.7267 96.115 85.9967 96.205 86.32C96.295 86.6433 96.34 87.015 96.34 87.435C96.34 87.8083 96.29 88.1567 96.19 88.48C96.09 88.8 95.945 89.0783 95.755 89.315C95.5684 89.5483 95.3384 89.7333 95.065 89.87C94.795 90.0033 94.49 90.07 94.15 90.07C93.84 90.07 93.5734 90.0183 93.35 89.915C93.13 89.8083 92.935 89.6617 92.765 89.475V91.715H91.87V84.935H92.405C92.5317 84.935 92.61 84.9967 92.64 85.12L92.72 85.72ZM99.6105 84.855C99.9805 84.855 100.314 84.9167 100.611 85.04C100.907 85.1633 101.161 85.3383 101.371 85.565C101.581 85.7917 101.741 86.0667 101.851 86.39C101.964 86.71 102.021 87.0683 102.021 87.465C102.021 87.865 101.964 88.225 101.851 88.545C101.741 88.865 101.581 89.1383 101.371 89.365C101.161 89.5917 100.907 89.7667 100.611 89.89C100.314 90.01 99.9805 90.07 99.6105 90.07C99.2372 90.07 98.9005 90.01 98.6005 89.89C98.3038 89.7667 98.0505 89.5917 97.8405 89.365C97.6305 89.1383 97.4688 88.865 97.3555 88.545C97.2455 88.225 97.1905 87.865 97.1905 87.465C97.1905 87.0683 97.2455 86.71 97.3555 86.39C97.4688 86.0667 97.6305 85.7917 97.8405 85.565C98.0505 85.3383 98.3038 85.1633 98.6005 85.04C98.9005 84.9167 99.2372 84.855 99.6105 84.855ZM99.6105 89.375C100.111 89.375 100.484 89.2083 100.731 88.875C100.977 88.5383 101.101 88.07 101.101 87.47C101.101 86.8667 100.977 86.3967 100.731 86.06C100.484 85.7233 100.111 85.555 99.6105 85.555C99.3572 85.555 99.1355 85.5983 98.9455 85.685C98.7588 85.7717 98.6022 85.8967 98.4755 86.06C98.3522 86.2233 98.2588 86.425 98.1955 86.665C98.1355 86.9017 98.1055 87.17 98.1055 87.47C98.1055 88.07 98.2288 88.5383 98.4755 88.875C98.7255 89.2083 99.1038 89.375 99.6105 89.375ZM104.089 84.935V90H103.199V84.935H104.089ZM104.279 83.345C104.279 83.4317 104.261 83.5133 104.224 83.59C104.191 83.6633 104.144 83.73 104.084 83.79C104.028 83.8467 103.959 83.8917 103.879 83.925C103.803 83.9583 103.721 83.975 103.634 83.975C103.548 83.975 103.466 83.9583 103.389 83.925C103.316 83.8917 103.251 83.8467 103.194 83.79C103.138 83.73 103.093 83.6633 103.059 83.59C103.026 83.5133 103.009 83.4317 103.009 83.345C103.009 83.2583 103.026 83.1767 103.059 83.1C103.093 83.02 103.138 82.9517 103.194 82.895C103.251 82.835 103.316 82.7883 103.389 82.755C103.466 82.7217 103.548 82.705 103.634 82.705C103.721 82.705 103.803 82.7217 103.879 82.755C103.959 82.7883 104.028 82.835 104.084 82.895C104.144 82.9517 104.191 83.02 104.224 83.1C104.261 83.1767 104.279 83.2583 104.279 83.345ZM106.392 85.67C106.502 85.5467 106.618 85.435 106.742 85.335C106.865 85.235 106.995 85.15 107.132 85.08C107.272 85.0067 107.418 84.9517 107.572 84.915C107.728 84.875 107.897 84.855 108.077 84.855C108.353 84.855 108.597 84.9017 108.807 84.995C109.02 85.085 109.197 85.215 109.337 85.385C109.48 85.5517 109.588 85.7533 109.662 85.99C109.735 86.2267 109.772 86.4883 109.772 86.775V90H108.877V86.775C108.877 86.3917 108.788 86.095 108.612 85.885C108.438 85.6717 108.173 85.565 107.817 85.565C107.553 85.565 107.307 85.6283 107.077 85.755C106.85 85.8817 106.64 86.0533 106.447 86.27V90H105.552V84.935H106.087C106.213 84.935 106.292 84.9967 106.322 85.12L106.392 85.67ZM112.614 90.08C112.214 90.08 111.906 89.9683 111.689 89.745C111.476 89.5217 111.369 89.2 111.369 88.78V85.68H110.759C110.706 85.68 110.661 85.665 110.624 85.635C110.588 85.6017 110.569 85.5517 110.569 85.485V85.13L111.399 85.025L111.604 83.46C111.614 83.41 111.636 83.37 111.669 83.34C111.706 83.3067 111.753 83.29 111.809 83.29H112.259V85.035H113.724V85.68H112.259V88.72C112.259 88.9333 112.311 89.0917 112.414 89.195C112.518 89.2983 112.651 89.35 112.814 89.35C112.908 89.35 112.988 89.3383 113.054 89.315C113.124 89.2883 113.184 89.26 113.234 89.23C113.284 89.2 113.326 89.1733 113.359 89.15C113.396 89.1233 113.428 89.11 113.454 89.11C113.501 89.11 113.543 89.1383 113.579 89.195L113.839 89.62C113.686 89.7633 113.501 89.8767 113.284 89.96C113.068 90.04 112.844 90.08 112.614 90.08ZM118.004 86.915C118.004 86.7083 117.974 86.52 117.914 86.35C117.858 86.1767 117.773 86.0283 117.659 85.905C117.549 85.7783 117.414 85.6817 117.254 85.615C117.094 85.545 116.913 85.51 116.709 85.51C116.283 85.51 115.944 85.635 115.694 85.885C115.448 86.1317 115.294 86.475 115.234 86.915H118.004ZM118.724 89.29C118.614 89.4233 118.483 89.54 118.329 89.64C118.176 89.7367 118.011 89.8167 117.834 89.88C117.661 89.9433 117.481 89.99 117.294 90.02C117.108 90.0533 116.923 90.07 116.739 90.07C116.389 90.07 116.066 90.0117 115.769 89.895C115.476 89.775 115.221 89.6017 115.004 89.375C114.791 89.145 114.624 88.8617 114.504 88.525C114.384 88.1883 114.324 87.8017 114.324 87.365C114.324 87.0117 114.378 86.6817 114.484 86.375C114.594 86.0683 114.751 85.8033 114.954 85.58C115.158 85.3533 115.406 85.1767 115.699 85.05C115.993 84.92 116.323 84.855 116.689 84.855C116.993 84.855 117.273 84.9067 117.529 85.01C117.789 85.11 118.013 85.2567 118.199 85.45C118.389 85.64 118.538 85.8767 118.644 86.16C118.751 86.44 118.804 86.76 118.804 87.12C118.804 87.26 118.789 87.3533 118.759 87.4C118.729 87.4467 118.673 87.47 118.589 87.47H115.204C115.214 87.79 115.258 88.0683 115.334 88.305C115.414 88.5417 115.524 88.74 115.664 88.9C115.804 89.0567 115.971 89.175 116.164 89.255C116.358 89.3317 116.574 89.37 116.814 89.37C117.038 89.37 117.229 89.345 117.389 89.295C117.553 89.2417 117.693 89.185 117.809 89.125C117.926 89.065 118.023 89.01 118.099 88.96C118.179 88.9067 118.248 88.88 118.304 88.88C118.378 88.88 118.434 88.9083 118.474 88.965L118.724 89.29ZM120.742 85.95C120.902 85.6033 121.099 85.3333 121.332 85.14C121.566 84.9433 121.851 84.845 122.187 84.845C122.294 84.845 122.396 84.8567 122.492 84.88C122.592 84.9033 122.681 84.94 122.757 84.99L122.692 85.655C122.672 85.7383 122.622 85.78 122.542 85.78C122.496 85.78 122.427 85.77 122.337 85.75C122.247 85.73 122.146 85.72 122.032 85.72C121.872 85.72 121.729 85.7433 121.602 85.79C121.479 85.8367 121.367 85.9067 121.267 86C121.171 86.09 121.082 86.2033 121.002 86.34C120.926 86.4733 120.856 86.6267 120.792 86.8V90H119.897V84.935H120.407C120.504 84.935 120.571 84.9533 120.607 84.99C120.644 85.0267 120.669 85.09 120.682 85.18L120.742 85.95Z" fill="#D90D0D"/>
<path id="Arrow 7" d="M109.354 44.6464C109.158 44.4512 108.842 44.4512 108.646 44.6464L105.464 47.8284C105.269 48.0237 105.269 48.3403 105.464 48.5355C105.66 48.7308 105.976 48.7308 106.172 48.5355L109 45.7071L111.828 48.5355C112.024 48.7308 112.34 48.7308 112.536 48.5355C112.731 48.3403 112.731 48.0237 112.536 47.8284L109.354 44.6464ZM109.5 68L109.5 45L108.5 45L108.5 68L109.5 68Z" fill="#D90D0D"/>
<path id="next pointer_2" d="M162.367 72.67C162.477 72.5467 162.594 72.435 162.717 72.335C162.841 72.235 162.971 72.15 163.107 72.08C163.247 72.0067 163.394 71.9517 163.547 71.915C163.704 71.875 163.872 71.855 164.052 71.855C164.329 71.855 164.572 71.9017 164.782 71.995C164.996 72.085 165.172 72.215 165.312 72.385C165.456 72.5517 165.564 72.7533 165.637 72.99C165.711 73.2267 165.747 73.4883 165.747 73.775V77H164.852V73.775C164.852 73.3917 164.764 73.095 164.587 72.885C164.414 72.6717 164.149 72.565 163.792 72.565C163.529 72.565 163.282 72.6283 163.052 72.755C162.826 72.8817 162.616 73.0533 162.422 73.27V77H161.527V71.935H162.062C162.189 71.935 162.267 71.9967 162.297 72.12L162.367 72.67ZM170.493 73.915C170.493 73.7083 170.463 73.52 170.403 73.35C170.347 73.1767 170.262 73.0283 170.148 72.905C170.038 72.7783 169.903 72.6817 169.743 72.615C169.583 72.545 169.402 72.51 169.198 72.51C168.772 72.51 168.433 72.635 168.183 72.885C167.937 73.1317 167.783 73.475 167.723 73.915H170.493ZM171.213 76.29C171.103 76.4233 170.972 76.54 170.818 76.64C170.665 76.7367 170.5 76.8167 170.323 76.88C170.15 76.9433 169.97 76.99 169.783 77.02C169.597 77.0533 169.412 77.07 169.228 77.07C168.878 77.07 168.555 77.0117 168.258 76.895C167.965 76.775 167.71 76.6017 167.493 76.375C167.28 76.145 167.113 75.8617 166.993 75.525C166.873 75.1883 166.813 74.8017 166.813 74.365C166.813 74.0117 166.867 73.6817 166.973 73.375C167.083 73.0683 167.24 72.8033 167.443 72.58C167.647 72.3533 167.895 72.1767 168.188 72.05C168.482 71.92 168.812 71.855 169.178 71.855C169.482 71.855 169.762 71.9067 170.018 72.01C170.278 72.11 170.502 72.2567 170.688 72.45C170.878 72.64 171.027 72.8767 171.133 73.16C171.24 73.44 171.293 73.76 171.293 74.12C171.293 74.26 171.278 74.3533 171.248 74.4C171.218 74.4467 171.162 74.47 171.078 74.47H167.693C167.703 74.79 167.747 75.0683 167.823 75.305C167.903 75.5417 168.013 75.74 168.153 75.9C168.293 76.0567 168.46 76.175 168.653 76.255C168.847 76.3317 169.063 76.37 169.303 76.37C169.527 76.37 169.718 76.345 169.878 76.295C170.042 76.2417 170.182 76.185 170.298 76.125C170.415 76.065 170.512 76.01 170.588 75.96C170.668 75.9067 170.737 75.88 170.793 75.88C170.867 75.88 170.923 75.9083 170.963 75.965L171.213 76.29ZM176.478 77H175.623C175.55 77 175.492 76.9817 175.448 76.945C175.408 76.905 175.375 76.8617 175.348 76.815L174.073 74.83C174.06 74.8767 174.045 74.9233 174.028 74.97C174.015 75.0133 173.995 75.0533 173.968 75.09L172.788 76.815C172.755 76.8617 172.718 76.905 172.678 76.945C172.642 76.9817 172.59 77 172.523 77H171.728L173.503 74.4L171.798 71.935H172.653C172.727 71.935 172.78 71.9467 172.813 71.97C172.847 71.9933 172.877 72.0267 172.903 72.07L174.148 73.97C174.175 73.8733 174.217 73.78 174.273 73.69L175.363 72.09C175.393 72.0433 175.425 72.0067 175.458 71.98C175.495 71.95 175.538 71.935 175.588 71.935H176.408L174.703 74.355L176.478 77ZM178.854 77.08C178.454 77.08 178.145 76.9683 177.929 76.745C177.715 76.5217 177.609 76.2 177.609 75.78V72.68H176.999C176.945 72.68 176.9 72.665 176.864 72.635C176.827 72.6017 176.809 72.5517 176.809 72.485V72.13L177.639 72.025L177.844 70.46C177.854 70.41 177.875 70.37 177.909 70.34C177.945 70.3067 177.992 70.29 178.049 70.29H178.499V72.035H179.964V72.68H178.499V75.72C178.499 75.9333 178.55 76.0917 178.654 76.195C178.757 76.2983 178.89 76.35 179.054 76.35C179.147 76.35 179.227 76.3383 179.294 76.315C179.364 76.2883 179.424 76.26 179.474 76.23C179.524 76.2 179.565 76.1733 179.599 76.15C179.635 76.1233 179.667 76.11 179.694 76.11C179.74 76.11 179.782 76.1383 179.819 76.195L180.079 76.62C179.925 76.7633 179.74 76.8767 179.524 76.96C179.307 77.04 179.084 77.08 178.854 77.08ZM156.265 87.78C156.428 88 156.607 88.155 156.8 88.245C156.993 88.335 157.21 88.38 157.45 88.38C157.923 88.38 158.287 88.2117 158.54 87.875C158.793 87.5383 158.92 87.0583 158.92 86.435C158.92 86.105 158.89 85.8217 158.83 85.585C158.773 85.3483 158.69 85.155 158.58 85.005C158.47 84.8517 158.335 84.74 158.175 84.67C158.015 84.6 157.833 84.565 157.63 84.565C157.34 84.565 157.085 84.6317 156.865 84.765C156.648 84.8983 156.448 85.0867 156.265 85.33V87.78ZM156.22 84.72C156.433 84.4567 156.68 84.245 156.96 84.085C157.24 83.925 157.56 83.845 157.92 83.845C158.213 83.845 158.478 83.9017 158.715 84.015C158.952 84.125 159.153 84.29 159.32 84.51C159.487 84.7267 159.615 84.9967 159.705 85.32C159.795 85.6433 159.84 86.015 159.84 86.435C159.84 86.8083 159.79 87.1567 159.69 87.48C159.59 87.8 159.445 88.0783 159.255 88.315C159.068 88.5483 158.838 88.7333 158.565 88.87C158.295 89.0033 157.99 89.07 157.65 89.07C157.34 89.07 157.073 89.0183 156.85 88.915C156.63 88.8083 156.435 88.6617 156.265 88.475V90.715H155.37V83.935H155.905C156.032 83.935 156.11 83.9967 156.14 84.12L156.22 84.72ZM163.111 83.855C163.481 83.855 163.814 83.9167 164.111 84.04C164.407 84.1633 164.661 84.3383 164.871 84.565C165.081 84.7917 165.241 85.0667 165.351 85.39C165.464 85.71 165.521 86.0683 165.521 86.465C165.521 86.865 165.464 87.225 165.351 87.545C165.241 87.865 165.081 88.1383 164.871 88.365C164.661 88.5917 164.407 88.7667 164.111 88.89C163.814 89.01 163.481 89.07 163.111 89.07C162.737 89.07 162.401 89.01 162.101 88.89C161.804 88.7667 161.551 88.5917 161.341 88.365C161.131 88.1383 160.969 87.865 160.856 87.545C160.746 87.225 160.691 86.865 160.691 86.465C160.691 86.0683 160.746 85.71 160.856 85.39C160.969 85.0667 161.131 84.7917 161.341 84.565C161.551 84.3383 161.804 84.1633 162.101 84.04C162.401 83.9167 162.737 83.855 163.111 83.855ZM163.111 88.375C163.611 88.375 163.984 88.2083 164.231 87.875C164.477 87.5383 164.601 87.07 164.601 86.47C164.601 85.8667 164.477 85.3967 164.231 85.06C163.984 84.7233 163.611 84.555 163.111 84.555C162.857 84.555 162.636 84.5983 162.446 84.685C162.259 84.7717 162.102 84.8967 161.976 85.06C161.852 85.2233 161.759 85.425 161.696 85.665C161.636 85.9017 161.606 86.17 161.606 86.47C161.606 87.07 161.729 87.5383 161.976 87.875C162.226 88.2083 162.604 88.375 163.111 88.375ZM167.589 83.935V89H166.699V83.935H167.589ZM167.779 82.345C167.779 82.4317 167.761 82.5133 167.724 82.59C167.691 82.6633 167.644 82.73 167.584 82.79C167.528 82.8467 167.459 82.8917 167.379 82.925C167.303 82.9583 167.221 82.975 167.134 82.975C167.048 82.975 166.966 82.9583 166.889 82.925C166.816 82.8917 166.751 82.8467 166.694 82.79C166.638 82.73 166.593 82.6633 166.559 82.59C166.526 82.5133 166.509 82.4317 166.509 82.345C166.509 82.2583 166.526 82.1767 166.559 82.1C166.593 82.02 166.638 81.9517 166.694 81.895C166.751 81.835 166.816 81.7883 166.889 81.755C166.966 81.7217 167.048 81.705 167.134 81.705C167.221 81.705 167.303 81.7217 167.379 81.755C167.459 81.7883 167.528 81.835 167.584 81.895C167.644 81.9517 167.691 82.02 167.724 82.1C167.761 82.1767 167.779 82.2583 167.779 82.345ZM169.892 84.67C170.002 84.5467 170.118 84.435 170.242 84.335C170.365 84.235 170.495 84.15 170.632 84.08C170.772 84.0067 170.918 83.9517 171.072 83.915C171.228 83.875 171.397 83.855 171.577 83.855C171.853 83.855 172.097 83.9017 172.307 83.995C172.52 84.085 172.697 84.215 172.837 84.385C172.98 84.5517 173.088 84.7533 173.162 84.99C173.235 85.2267 173.272 85.4883 173.272 85.775V89H172.377V85.775C172.377 85.3917 172.288 85.095 172.112 84.885C171.938 84.6717 171.673 84.565 171.317 84.565C171.053 84.565 170.807 84.6283 170.577 84.755C170.35 84.8817 170.14 85.0533 169.947 85.27V89H169.052V83.935H169.587C169.713 83.935 169.792 83.9967 169.822 84.12L169.892 84.67ZM176.114 89.08C175.714 89.08 175.406 88.9683 175.189 88.745C174.976 88.5217 174.869 88.2 174.869 87.78V84.68H174.259C174.206 84.68 174.161 84.665 174.124 84.635C174.088 84.6017 174.069 84.5517 174.069 84.485V84.13L174.899 84.025L175.104 82.46C175.114 82.41 175.136 82.37 175.169 82.34C175.206 82.3067 175.253 82.29 175.309 82.29H175.759V84.035H177.224V84.68H175.759V87.72C175.759 87.9333 175.811 88.0917 175.914 88.195C176.018 88.2983 176.151 88.35 176.314 88.35C176.408 88.35 176.488 88.3383 176.554 88.315C176.624 88.2883 176.684 88.26 176.734 88.23C176.784 88.2 176.826 88.1733 176.859 88.15C176.896 88.1233 176.928 88.11 176.954 88.11C177.001 88.11 177.043 88.1383 177.079 88.195L177.339 88.62C177.186 88.7633 177.001 88.8767 176.784 88.96C176.568 89.04 176.344 89.08 176.114 89.08ZM181.504 85.915C181.504 85.7083 181.474 85.52 181.414 85.35C181.358 85.1767 181.273 85.0283 181.159 84.905C181.049 84.7783 180.914 84.6817 180.754 84.615C180.594 84.545 180.413 84.51 180.209 84.51C179.783 84.51 179.444 84.635 179.194 84.885C178.948 85.1317 178.794 85.475 178.734 85.915H181.504ZM182.224 88.29C182.114 88.4233 181.983 88.54 181.829 88.64C181.676 88.7367 181.511 88.8167 181.334 88.88C181.161 88.9433 180.981 88.99 180.794 89.02C180.608 89.0533 180.423 89.07 180.239 89.07C179.889 89.07 179.566 89.0117 179.269 88.895C178.976 88.775 178.721 88.6017 178.504 88.375C178.291 88.145 178.124 87.8617 178.004 87.525C177.884 87.1883 177.824 86.8017 177.824 86.365C177.824 86.0117 177.878 85.6817 177.984 85.375C178.094 85.0683 178.251 84.8033 178.454 84.58C178.658 84.3533 178.906 84.1767 179.199 84.05C179.493 83.92 179.823 83.855 180.189 83.855C180.493 83.855 180.773 83.9067 181.029 84.01C181.289 84.11 181.513 84.2567 181.699 84.45C181.889 84.64 182.038 84.8767 182.144 85.16C182.251 85.44 182.304 85.76 182.304 86.12C182.304 86.26 182.289 86.3533 182.259 86.4C182.229 86.4467 182.173 86.47 182.089 86.47H178.704C178.714 86.79 178.758 87.0683 178.834 87.305C178.914 87.5417 179.024 87.74 179.164 87.9C179.304 88.0567 179.471 88.175 179.664 88.255C179.858 88.3317 180.074 88.37 180.314 88.37C180.538 88.37 180.729 88.345 180.889 88.295C181.053 88.2417 181.193 88.185 181.309 88.125C181.426 88.065 181.523 88.01 181.599 87.96C181.679 87.9067 181.748 87.88 181.804 87.88C181.878 87.88 181.934 87.9083 181.974 87.965L182.224 88.29ZM184.242 84.95C184.402 84.6033 184.599 84.3333 184.832 84.14C185.066 83.9433 185.351 83.845 185.687 83.845C185.794 83.845 185.896 83.8567 185.992 83.88C186.092 83.9033 186.181 83.94 186.257 83.99L186.192 84.655C186.172 84.7383 186.122 84.78 186.042 84.78C185.996 84.78 185.927 84.77 185.837 84.75C185.747 84.73 185.646 84.72 185.532 84.72C185.372 84.72 185.229 84.7433 185.102 84.79C184.979 84.8367 184.867 84.9067 184.767 85C184.671 85.09 184.582 85.2033 184.502 85.34C184.426 85.4733 184.356 85.6267 184.292 85.8V89H183.397V83.935H183.907C184.004 83.935 184.071 83.9533 184.107 83.99C184.144 84.0267 184.169 84.09 184.182 84.18L184.242 84.95Z" fill="#D90D0D"/>
<path id="Arrow 8" d="M170.354 43.6464C170.158 43.4512 169.842 43.4512 169.646 43.6464L166.464 46.8284C166.269 47.0237 166.269 47.3403 166.464 47.5355C166.66 47.7308 166.976 47.7308 167.172 47.5355L170 44.7071L172.828 47.5355C173.024 47.7308 173.34 47.7308 173.536 47.5355C173.731 47.3403 173.731 47.0237 173.536 46.8284L170.354 43.6464ZM170.5 67L170.5 44L169.5 44L169.5 67L170.5 67Z" fill="#D90D0D"/>
<path id="null" d="M248.606 40.67C248.716 40.5467 248.832 40.435 248.956 40.335C249.079 40.235 249.209 40.15 249.346 40.08C249.486 40.0067 249.632 39.9517 249.786 39.915C249.942 39.875 250.111 39.855 250.291 39.855C250.567 39.855 250.811 39.9017 251.021 39.995C251.234 40.085 251.411 40.215 251.551 40.385C251.694 40.5517 251.802 40.7533 251.876 40.99C251.949 41.2267 251.986 41.4883 251.986 41.775V45H251.091V41.775C251.091 41.3917 251.002 41.095 250.826 40.885C250.652 40.6717 250.387 40.565 250.031 40.565C249.767 40.565 249.521 40.6283 249.291 40.755C249.064 40.8817 248.854 41.0533 248.661 41.27V45H247.766V39.935H248.301C248.427 39.935 248.506 39.9967 248.536 40.12L248.606 40.67ZM257.507 39.935V45H256.977C256.85 45 256.77 44.9383 256.737 44.815L256.667 44.27C256.447 44.5133 256.2 44.71 255.927 44.86C255.653 45.0067 255.34 45.08 254.987 45.08C254.71 45.08 254.465 45.035 254.252 44.945C254.042 44.8517 253.865 44.7217 253.722 44.555C253.578 44.3883 253.47 44.1867 253.397 43.95C253.327 43.7133 253.292 43.4517 253.292 43.165V39.935H254.182V43.165C254.182 43.5483 254.268 43.845 254.442 44.055C254.618 44.265 254.887 44.37 255.247 44.37C255.51 44.37 255.755 44.3083 255.982 44.185C256.212 44.0583 256.423 43.885 256.617 43.665V39.935H257.507ZM259.838 37.635V45H258.948V37.635H259.838ZM262.201 37.635V45H261.311V37.635H262.201Z" fill="black"/>
<path id="stack-tail-pointer" d="M209.5 24.9999C209.5 25.2761 209.724 25.4999 210 25.4999L214.5 25.4999C214.776 25.4999 215 25.2761 215 24.9999C215 24.7238 214.776 24.4999 214.5 24.4999L210.5 24.4999L210.5 20.4999C210.5 20.2238 210.276 19.9999 210 19.9999C209.724 19.9999 209.5 20.2238 209.5 20.4999L209.5 24.9999ZM221.646 12.6464L209.646 24.6464L210.354 25.3535L222.354 13.3535L221.646 12.6464Z" fill="#0B3AB5"/>
<path id="tail (bottom of stack)" d="M194.848 10.08C194.448 10.08 194.14 9.96833 193.923 9.745C193.71 9.52167 193.603 9.2 193.603 8.78V5.68H192.993C192.94 5.68 192.895 5.665 192.858 5.635C192.821 5.60167 192.803 5.55167 192.803 5.485V5.13L193.633 5.025L193.838 3.46C193.848 3.41 193.87 3.37 193.903 3.34C193.94 3.30667 193.986 3.29 194.043 3.29H194.493V5.035H195.958V5.68H194.493V8.72C194.493 8.93333 194.545 9.09167 194.648 9.195C194.751 9.29833 194.885 9.35 195.048 9.35C195.141 9.35 195.221 9.33833 195.288 9.315C195.358 9.28833 195.418 9.26 195.468 9.23C195.518 9.2 195.56 9.17333 195.593 9.15C195.63 9.12333 195.661 9.11 195.688 9.11C195.735 9.11 195.776 9.13833 195.813 9.195L196.073 9.62C195.92 9.76333 195.735 9.87667 195.518 9.96C195.301 10.04 195.078 10.08 194.848 10.08ZM199.622 7.72C199.212 7.73333 198.862 7.76667 198.572 7.82C198.285 7.87 198.05 7.93667 197.867 8.02C197.687 8.10333 197.555 8.20167 197.472 8.315C197.392 8.42833 197.352 8.555 197.352 8.695C197.352 8.82833 197.374 8.94333 197.417 9.04C197.46 9.13667 197.519 9.21667 197.592 9.28C197.669 9.34 197.757 9.385 197.857 9.415C197.96 9.44167 198.07 9.455 198.187 9.455C198.344 9.455 198.487 9.44 198.617 9.41C198.747 9.37667 198.869 9.33 198.982 9.27C199.099 9.21 199.209 9.13833 199.312 9.055C199.419 8.97167 199.522 8.87667 199.622 8.77V7.72ZM196.747 5.65C197.027 5.38 197.329 5.17833 197.652 5.045C197.975 4.91167 198.334 4.845 198.727 4.845C199.01 4.845 199.262 4.89167 199.482 4.985C199.702 5.07833 199.887 5.20833 200.037 5.375C200.187 5.54167 200.3 5.74333 200.377 5.98C200.454 6.21667 200.492 6.47667 200.492 6.76V10H200.097C200.01 10 199.944 9.98667 199.897 9.96C199.85 9.93 199.814 9.87333 199.787 9.79L199.687 9.31C199.554 9.43333 199.424 9.54333 199.297 9.64C199.17 9.73333 199.037 9.81333 198.897 9.88C198.757 9.94333 198.607 9.99167 198.447 10.025C198.29 10.0617 198.115 10.08 197.922 10.08C197.725 10.08 197.54 10.0533 197.367 10C197.194 9.94333 197.042 9.86 196.912 9.75C196.785 9.64 196.684 9.50167 196.607 9.335C196.534 9.165 196.497 8.965 196.497 8.735C196.497 8.535 196.552 8.34333 196.662 8.16C196.772 7.97333 196.95 7.80833 197.197 7.665C197.444 7.52167 197.765 7.405 198.162 7.315C198.559 7.22167 199.045 7.16833 199.622 7.155V6.76C199.622 6.36667 199.537 6.07 199.367 5.87C199.197 5.66667 198.949 5.565 198.622 5.565C198.402 5.565 198.217 5.59333 198.067 5.65C197.92 5.70333 197.792 5.765 197.682 5.835C197.575 5.90167 197.482 5.96333 197.402 6.02C197.325 6.07333 197.249 6.1 197.172 6.1C197.112 6.1 197.06 6.085 197.017 6.055C196.974 6.02167 196.937 5.98167 196.907 5.935L196.747 5.65ZM202.788 4.935V10H201.898V4.935H202.788ZM202.978 3.345C202.978 3.43167 202.959 3.51333 202.923 3.59C202.889 3.66333 202.843 3.73 202.783 3.79C202.726 3.84667 202.658 3.89167 202.578 3.925C202.501 3.95833 202.419 3.975 202.333 3.975C202.246 3.975 202.164 3.95833 202.088 3.925C202.014 3.89167 201.949 3.84667 201.893 3.79C201.836 3.73 201.791 3.66333 201.758 3.59C201.724 3.51333 201.708 3.43167 201.708 3.345C201.708 3.25833 201.724 3.17667 201.758 3.1C201.791 3.02 201.836 2.95167 201.893 2.895C201.949 2.835 202.014 2.78833 202.088 2.755C202.164 2.72167 202.246 2.705 202.333 2.705C202.419 2.705 202.501 2.72167 202.578 2.755C202.658 2.78833 202.726 2.835 202.783 2.895C202.843 2.95167 202.889 3.02 202.923 3.1C202.959 3.17667 202.978 3.25833 202.978 3.345ZM205.17 2.635V10H204.28V2.635H205.17ZM209.692 6.855C209.692 7.56833 209.782 8.26167 209.962 8.935C210.145 9.60833 210.412 10.2483 210.762 10.855C210.815 10.9583 210.828 11.0367 210.802 11.09C210.775 11.1467 210.737 11.1917 210.687 11.225L210.292 11.465C210.042 11.0817 209.828 10.7017 209.652 10.325C209.478 9.94833 209.337 9.57 209.227 9.19C209.12 8.81 209.042 8.42833 208.992 8.045C208.942 7.65833 208.917 7.26167 208.917 6.855C208.917 6.45167 208.942 6.05667 208.992 5.67C209.042 5.28333 209.12 4.90167 209.227 4.525C209.337 4.145 209.478 3.76667 209.652 3.39C209.828 3.01333 210.042 2.63167 210.292 2.245L210.687 2.49C210.737 2.52333 210.775 2.56833 210.802 2.625C210.828 2.67833 210.815 2.755 210.762 2.855C210.412 3.46167 210.145 4.10167 209.962 4.775C209.782 5.44833 209.692 6.14167 209.692 6.855ZM212.733 8.78C212.896 9 213.074 9.155 213.268 9.245C213.464 9.335 213.679 9.38 213.913 9.38C214.389 9.38 214.754 9.21167 215.008 8.875C215.261 8.53833 215.388 8.03667 215.388 7.37C215.388 6.75 215.274 6.295 215.048 6.005C214.824 5.71167 214.504 5.565 214.088 5.565C213.798 5.565 213.544 5.63167 213.328 5.765C213.114 5.89833 212.916 6.08667 212.733 6.33V8.78ZM212.733 5.665C212.946 5.41833 213.186 5.22167 213.453 5.075C213.723 4.92833 214.033 4.855 214.383 4.855C214.679 4.855 214.946 4.91167 215.183 5.025C215.423 5.13833 215.626 5.30333 215.793 5.52C215.959 5.73333 216.086 5.99333 216.173 6.3C216.263 6.60667 216.308 6.95167 216.308 7.335C216.308 7.745 216.258 8.11833 216.158 8.455C216.058 8.79167 215.913 9.08 215.723 9.32C215.536 9.55667 215.308 9.74167 215.038 9.875C214.768 10.005 214.464 10.07 214.128 10.07C213.794 10.07 213.513 10.0083 213.283 9.885C213.056 9.75833 212.858 9.58 212.688 9.35L212.643 9.81C212.616 9.93667 212.539 10 212.413 10H211.838V2.635H212.733V5.665ZM219.569 4.855C219.939 4.855 220.272 4.91667 220.569 5.04C220.865 5.16333 221.119 5.33833 221.329 5.565C221.539 5.79167 221.699 6.06667 221.809 6.39C221.922 6.71 221.979 7.06833 221.979 7.465C221.979 7.865 221.922 8.225 221.809 8.545C221.699 8.865 221.539 9.13833 221.329 9.365C221.119 9.59167 220.865 9.76667 220.569 9.89C220.272 10.01 219.939 10.07 219.569 10.07C219.195 10.07 218.859 10.01 218.559 9.89C218.262 9.76667 218.009 9.59167 217.799 9.365C217.589 9.13833 217.427 8.865 217.314 8.545C217.204 8.225 217.149 7.865 217.149 7.465C217.149 7.06833 217.204 6.71 217.314 6.39C217.427 6.06667 217.589 5.79167 217.799 5.565C218.009 5.33833 218.262 5.16333 218.559 5.04C218.859 4.91667 219.195 4.855 219.569 4.855ZM219.569 9.375C220.069 9.375 220.442 9.20833 220.689 8.875C220.935 8.53833 221.059 8.07 221.059 7.47C221.059 6.86667 220.935 6.39667 220.689 6.06C220.442 5.72333 220.069 5.555 219.569 5.555C219.315 5.555 219.094 5.59833 218.904 5.685C218.717 5.77167 218.56 5.89667 218.434 6.06C218.31 6.22333 218.217 6.425 218.154 6.665C218.094 6.90167 218.064 7.17 218.064 7.47C218.064 8.07 218.187 8.53833 218.434 8.875C218.684 9.20833 219.062 9.375 219.569 9.375ZM224.574 10.08C224.174 10.08 223.866 9.96833 223.649 9.745C223.436 9.52167 223.329 9.2 223.329 8.78V5.68H222.719C222.666 5.68 222.621 5.665 222.584 5.635C222.548 5.60167 222.529 5.55167 222.529 5.485V5.13L223.359 5.025L223.564 3.46C223.574 3.41 223.596 3.37 223.629 3.34C223.666 3.30667 223.713 3.29 223.769 3.29H224.219V5.035H226.604L226.809 3.46C226.819 3.41 226.841 3.37 226.874 3.34C226.911 3.30667 226.958 3.29 227.014 3.29H227.464V5.035H228.929V5.68H227.464V8.72C227.464 8.93333 227.516 9.09167 227.619 9.195C227.726 9.29833 227.859 9.35 228.019 9.35C228.113 9.35 228.193 9.33833 228.259 9.315C228.329 9.28833 228.389 9.26 228.439 9.23C228.489 9.2 228.531 9.17333 228.564 9.15C228.601 9.12333 228.633 9.11 228.659 9.11C228.709 9.11 228.751 9.13833 228.784 9.195L229.049 9.62C228.893 9.76333 228.706 9.87667 228.489 9.96C228.273 10.04 228.049 10.08 227.819 10.08C227.423 10.08 227.116 9.96833 226.899 9.745C226.683 9.52167 226.574 9.2 226.574 8.78V5.68H224.219V8.72C224.219 8.93333 224.271 9.09167 224.374 9.195C224.478 9.29833 224.611 9.35 224.774 9.35C224.868 9.35 224.948 9.33833 225.014 9.315C225.084 9.28833 225.144 9.26 225.194 9.23C225.244 9.2 225.286 9.17333 225.319 9.15C225.356 9.12333 225.388 9.11 225.414 9.11C225.461 9.11 225.503 9.13833 225.539 9.195L225.799 9.62C225.646 9.76333 225.461 9.87667 225.244 9.96C225.028 10.04 224.804 10.08 224.574 10.08ZM231.951 4.855C232.321 4.855 232.655 4.91667 232.951 5.04C233.248 5.16333 233.501 5.33833 233.711 5.565C233.921 5.79167 234.081 6.06667 234.191 6.39C234.305 6.71 234.361 7.06833 234.361 7.465C234.361 7.865 234.305 8.225 234.191 8.545C234.081 8.865 233.921 9.13833 233.711 9.365C233.501 9.59167 233.248 9.76667 232.951 9.89C232.655 10.01 232.321 10.07 231.951 10.07C231.578 10.07 231.241 10.01 230.941 9.89C230.645 9.76667 230.391 9.59167 230.181 9.365C229.971 9.13833 229.81 8.865 229.696 8.545C229.586 8.225 229.531 7.865 229.531 7.465C229.531 7.06833 229.586 6.71 229.696 6.39C229.81 6.06667 229.971 5.79167 230.181 5.565C230.391 5.33833 230.645 5.16333 230.941 5.04C231.241 4.91667 231.578 4.855 231.951 4.855ZM231.951 9.375C232.451 9.375 232.825 9.20833 233.071 8.875C233.318 8.53833 233.441 8.07 233.441 7.47C233.441 6.86667 233.318 6.39667 233.071 6.06C232.825 5.72333 232.451 5.555 231.951 5.555C231.698 5.555 231.476 5.59833 231.286 5.685C231.1 5.77167 230.943 5.89667 230.816 6.06C230.693 6.22333 230.6 6.425 230.536 6.665C230.476 6.90167 230.446 7.17 230.446 7.47C230.446 8.07 230.57 8.53833 230.816 8.875C231.066 9.20833 231.445 9.375 231.951 9.375ZM235.49 10V4.935H236.025C236.152 4.935 236.23 4.99667 236.26 5.12L236.325 5.64C236.512 5.41 236.722 5.22167 236.955 5.075C237.188 4.92833 237.458 4.855 237.765 4.855C238.105 4.855 238.38 4.95 238.59 5.14C238.803 5.33 238.957 5.58667 239.05 5.91C239.123 5.72667 239.217 5.56833 239.33 5.435C239.447 5.30167 239.577 5.19167 239.72 5.105C239.863 5.01833 240.015 4.955 240.175 4.915C240.338 4.875 240.503 4.855 240.67 4.855C240.937 4.855 241.173 4.89833 241.38 4.985C241.59 5.06833 241.767 5.19167 241.91 5.355C242.057 5.51833 242.168 5.72 242.245 5.96C242.322 6.19667 242.36 6.46833 242.36 6.775V10H241.465V6.775C241.465 6.37833 241.378 6.07833 241.205 5.875C241.032 5.66833 240.782 5.565 240.455 5.565C240.308 5.565 240.168 5.59167 240.035 5.645C239.905 5.695 239.79 5.77 239.69 5.87C239.59 5.97 239.51 6.09667 239.45 6.25C239.393 6.4 239.365 6.575 239.365 6.775V10H238.47V6.775C238.47 6.36833 238.388 6.065 238.225 5.865C238.062 5.665 237.823 5.565 237.51 5.565C237.29 5.565 237.087 5.625 236.9 5.745C236.713 5.86167 236.542 6.02167 236.385 6.225V10H235.49ZM248.406 4.855C248.776 4.855 249.11 4.91667 249.406 5.04C249.703 5.16333 249.956 5.33833 250.166 5.565C250.376 5.79167 250.536 6.06667 250.646 6.39C250.76 6.71 250.816 7.06833 250.816 7.465C250.816 7.865 250.76 8.225 250.646 8.545C250.536 8.865 250.376 9.13833 250.166 9.365C249.956 9.59167 249.703 9.76667 249.406 9.89C249.11 10.01 248.776 10.07 248.406 10.07C248.033 10.07 247.696 10.01 247.396 9.89C247.1 9.76667 246.846 9.59167 246.636 9.365C246.426 9.13833 246.265 8.865 246.151 8.545C246.041 8.225 245.986 7.865 245.986 7.465C245.986 7.06833 246.041 6.71 246.151 6.39C246.265 6.06667 246.426 5.79167 246.636 5.565C246.846 5.33833 247.1 5.16333 247.396 5.04C247.696 4.91667 248.033 4.855 248.406 4.855ZM248.406 9.375C248.906 9.375 249.28 9.20833 249.526 8.875C249.773 8.53833 249.896 8.07 249.896 7.47C249.896 6.86667 249.773 6.39667 249.526 6.06C249.28 5.72333 248.906 5.555 248.406 5.555C248.153 5.555 247.931 5.59833 247.741 5.685C247.555 5.77167 247.398 5.89667 247.271 6.06C247.148 6.22333 247.055 6.425 246.991 6.665C246.931 6.90167 246.901 7.17 246.901 7.47C246.901 8.07 247.025 8.53833 247.271 8.875C247.521 9.20833 247.9 9.375 248.406 9.375ZM252.168 10V5.695L251.608 5.63C251.538 5.61333 251.479 5.58833 251.433 5.555C251.389 5.51833 251.368 5.46667 251.368 5.4V5.035H252.168V4.545C252.168 4.255 252.208 3.99833 252.288 3.775C252.371 3.54833 252.488 3.35833 252.638 3.205C252.791 3.04833 252.974 2.93 253.188 2.85C253.401 2.77 253.641 2.73 253.908 2.73C254.134 2.73 254.343 2.76333 254.533 2.83L254.513 3.275C254.506 3.355 254.461 3.39833 254.378 3.405C254.298 3.41167 254.189 3.415 254.053 3.415C253.899 3.415 253.759 3.435 253.633 3.475C253.509 3.515 253.403 3.58 253.313 3.67C253.223 3.76 253.153 3.87833 253.103 4.025C253.056 4.17167 253.033 4.35333 253.033 4.57V5.035H254.493V5.68H253.063V10H252.168ZM260.667 5.77C260.627 5.84333 260.565 5.88 260.482 5.88C260.432 5.88 260.375 5.86167 260.312 5.825C260.248 5.78833 260.17 5.74833 260.077 5.705C259.987 5.65833 259.878 5.61667 259.752 5.58C259.625 5.54 259.475 5.52 259.302 5.52C259.152 5.52 259.017 5.54 258.897 5.58C258.777 5.61667 258.673 5.66833 258.587 5.735C258.503 5.80167 258.438 5.88 258.392 5.97C258.348 6.05667 258.327 6.15167 258.327 6.255C258.327 6.385 258.363 6.49333 258.437 6.58C258.513 6.66667 258.613 6.74167 258.737 6.805C258.86 6.86833 259 6.925 259.157 6.975C259.313 7.02167 259.473 7.07333 259.637 7.13C259.803 7.18333 259.965 7.24333 260.122 7.31C260.278 7.37667 260.418 7.46 260.542 7.56C260.665 7.66 260.763 7.78333 260.837 7.93C260.913 8.07333 260.952 8.24667 260.952 8.45C260.952 8.68333 260.91 8.9 260.827 9.1C260.743 9.29667 260.62 9.46833 260.457 9.615C260.293 9.75833 260.093 9.87167 259.857 9.955C259.62 10.0383 259.347 10.08 259.037 10.08C258.683 10.08 258.363 10.0233 258.077 9.91C257.79 9.79333 257.547 9.645 257.347 9.465L257.557 9.125C257.583 9.08167 257.615 9.04833 257.652 9.025C257.688 9.00167 257.735 8.99 257.792 8.99C257.852 8.99 257.915 9.01333 257.982 9.06C258.048 9.10667 258.128 9.15833 258.222 9.215C258.318 9.27167 258.435 9.32333 258.572 9.37C258.708 9.41667 258.878 9.44 259.082 9.44C259.255 9.44 259.407 9.41833 259.537 9.375C259.667 9.32833 259.775 9.26667 259.862 9.19C259.948 9.11333 260.012 9.025 260.052 8.925C260.095 8.825 260.117 8.71833 260.117 8.605C260.117 8.465 260.078 8.35 260.002 8.26C259.928 8.16667 259.83 8.08833 259.707 8.025C259.583 7.95833 259.442 7.90167 259.282 7.855C259.125 7.805 258.963 7.75333 258.797 7.7C258.633 7.64667 258.472 7.58667 258.312 7.52C258.155 7.45 258.015 7.36333 257.892 7.26C257.768 7.15667 257.668 7.03 257.592 6.88C257.518 6.72667 257.482 6.54167 257.482 6.325C257.482 6.13167 257.522 5.94667 257.602 5.77C257.682 5.59 257.798 5.43333 257.952 5.3C258.105 5.16333 258.293 5.055 258.517 4.975C258.74 4.895 258.995 4.855 259.282 4.855C259.615 4.855 259.913 4.90833 260.177 5.015C260.443 5.11833 260.673 5.26167 260.867 5.445L260.667 5.77ZM263.598 10.08C263.198 10.08 262.89 9.96833 262.673 9.745C262.46 9.52167 262.353 9.2 262.353 8.78V5.68H261.743C261.69 5.68 261.645 5.665 261.608 5.635C261.571 5.60167 261.553 5.55167 261.553 5.485V5.13L262.383 5.025L262.588 3.46C262.598 3.41 262.62 3.37 262.653 3.34C262.69 3.30667 262.736 3.29 262.793 3.29H263.243V5.035H264.708V5.68H263.243V8.72C263.243 8.93333 263.295 9.09167 263.398 9.195C263.501 9.29833 263.635 9.35 263.798 9.35C263.891 9.35 263.971 9.33833 264.038 9.315C264.108 9.28833 264.168 9.26 264.218 9.23C264.268 9.2 264.31 9.17333 264.343 9.15C264.38 9.12333 264.411 9.11 264.438 9.11C264.485 9.11 264.526 9.13833 264.563 9.195L264.823 9.62C264.67 9.76333 264.485 9.87667 264.268 9.96C264.051 10.04 263.828 10.08 263.598 10.08ZM268.372 7.72C267.962 7.73333 267.612 7.76667 267.322 7.82C267.035 7.87 266.8 7.93667 266.617 8.02C266.437 8.10333 266.305 8.20167 266.222 8.315C266.142 8.42833 266.102 8.555 266.102 8.695C266.102 8.82833 266.124 8.94333 266.167 9.04C266.21 9.13667 266.269 9.21667 266.342 9.28C266.419 9.34 266.507 9.385 266.607 9.415C266.71 9.44167 266.82 9.455 266.937 9.455C267.094 9.455 267.237 9.44 267.367 9.41C267.497 9.37667 267.619 9.33 267.732 9.27C267.849 9.21 267.959 9.13833 268.062 9.055C268.169 8.97167 268.272 8.87667 268.372 8.77V7.72ZM265.497 5.65C265.777 5.38 266.079 5.17833 266.402 5.045C266.725 4.91167 267.084 4.845 267.477 4.845C267.76 4.845 268.012 4.89167 268.232 4.985C268.452 5.07833 268.637 5.20833 268.787 5.375C268.937 5.54167 269.05 5.74333 269.127 5.98C269.204 6.21667 269.242 6.47667 269.242 6.76V10H268.847C268.76 10 268.694 9.98667 268.647 9.96C268.6 9.93 268.564 9.87333 268.537 9.79L268.437 9.31C268.304 9.43333 268.174 9.54333 268.047 9.64C267.92 9.73333 267.787 9.81333 267.647 9.88C267.507 9.94333 267.357 9.99167 267.197 10.025C267.04 10.0617 266.865 10.08 266.672 10.08C266.475 10.08 266.29 10.0533 266.117 10C265.944 9.94333 265.792 9.86 265.662 9.75C265.535 9.64 265.434 9.50167 265.357 9.335C265.284 9.165 265.247 8.965 265.247 8.735C265.247 8.535 265.302 8.34333 265.412 8.16C265.522 7.97333 265.7 7.80833 265.947 7.665C266.194 7.52167 266.515 7.405 266.912 7.315C267.309 7.22167 267.795 7.16833 268.372 7.155V6.76C268.372 6.36667 268.287 6.07 268.117 5.87C267.947 5.66667 267.699 5.565 267.372 5.565C267.152 5.565 266.967 5.59333 266.817 5.65C266.67 5.70333 266.542 5.765 266.432 5.835C266.325 5.90167 266.232 5.96333 266.152 6.02C266.075 6.07333 265.999 6.1 265.922 6.1C265.862 6.1 265.81 6.085 265.767 6.055C265.724 6.02167 265.687 5.98167 265.657 5.935L265.497 5.65ZM274.123 5.835C274.096 5.87167 274.069 5.9 274.043 5.92C274.016 5.94 273.979 5.95 273.933 5.95C273.883 5.95 273.828 5.93 273.768 5.89C273.708 5.84667 273.633 5.8 273.543 5.75C273.456 5.7 273.348 5.655 273.218 5.615C273.091 5.57167 272.934 5.55 272.748 5.55C272.498 5.55 272.278 5.595 272.088 5.685C271.898 5.77167 271.738 5.89833 271.608 6.065C271.481 6.23167 271.384 6.43333 271.318 6.67C271.254 6.90667 271.223 7.17167 271.223 7.465C271.223 7.77167 271.258 8.045 271.328 8.285C271.398 8.52167 271.496 8.72167 271.623 8.885C271.753 9.045 271.908 9.16833 272.088 9.255C272.271 9.33833 272.476 9.38 272.703 9.38C272.919 9.38 273.098 9.355 273.238 9.305C273.378 9.25167 273.493 9.19333 273.583 9.13C273.676 9.06667 273.753 9.01 273.813 8.96C273.876 8.90667 273.938 8.88 273.998 8.88C274.071 8.88 274.128 8.90833 274.168 8.965L274.418 9.29C274.308 9.42667 274.183 9.54333 274.043 9.64C273.903 9.73667 273.751 9.81833 273.588 9.885C273.428 9.94833 273.259 9.995 273.083 10.025C272.906 10.055 272.726 10.07 272.543 10.07C272.226 10.07 271.931 10.0117 271.658 9.895C271.388 9.77833 271.153 9.61 270.953 9.39C270.753 9.16667 270.596 8.89333 270.483 8.57C270.369 8.24667 270.313 7.87833 270.313 7.465C270.313 7.08833 270.364 6.74 270.468 6.42C270.574 6.1 270.728 5.825 270.928 5.595C271.131 5.36167 271.379 5.18 271.673 5.05C271.969 4.92 272.309 4.855 272.693 4.855C273.049 4.855 273.363 4.91333 273.633 5.03C273.906 5.14333 274.148 5.305 274.358 5.515L274.123 5.835ZM276.268 2.635V6.97H276.498C276.565 6.97 276.62 6.96167 276.663 6.945C276.71 6.925 276.758 6.88667 276.808 6.83L278.408 5.115C278.455 5.05833 278.503 5.015 278.553 4.985C278.606 4.95167 278.676 4.935 278.763 4.935H279.568L277.703 6.92C277.613 7.03333 277.516 7.12167 277.413 7.185C277.473 7.225 277.526 7.27167 277.573 7.325C277.623 7.375 277.67 7.43333 277.713 7.5L279.693 10H278.898C278.821 10 278.755 9.98833 278.698 9.965C278.645 9.93833 278.598 9.89167 278.558 9.825L276.893 7.75C276.843 7.68 276.793 7.635 276.743 7.615C276.696 7.59167 276.623 7.58 276.523 7.58H276.268V10H275.373V2.635H276.268ZM281.191 6.855C281.191 6.14167 281.099 5.44833 280.916 4.775C280.736 4.10167 280.471 3.46167 280.121 2.855C280.094 2.805 280.078 2.76167 280.071 2.725C280.064 2.685 280.066 2.65167 280.076 2.625C280.086 2.595 280.101 2.57 280.121 2.55C280.144 2.52667 280.169 2.50667 280.196 2.49L280.591 2.245C280.841 2.63167 281.053 3.01333 281.226 3.39C281.403 3.76667 281.544 4.145 281.651 4.525C281.761 4.90167 281.841 5.28333 281.891 5.67C281.941 6.05667 281.966 6.45167 281.966 6.855C281.966 7.26167 281.941 7.65833 281.891 8.045C281.841 8.42833 281.761 8.81 281.651 9.19C281.544 9.57 281.403 9.94833 281.226 10.325C281.053 10.7017 280.841 11.0817 280.591 11.465L280.196 11.225C280.169 11.2083 280.144 11.1883 280.121 11.165C280.101 11.145 280.086 11.12 280.076 11.09C280.066 11.0633 280.064 11.03 280.071 10.99C280.078 10.95 280.094 10.905 280.121 10.855C280.471 10.2483 280.736 9.60833 280.916 8.935C281.099 8.26167 281.191 7.56833 281.191 6.855Z" fill="#0B3AB5"/>
<g id="stack-added-d" style="opacity: 0">
<g id="stack-node-d">
<circle id="Ellipse 2_4" cx="18.5" cy="41.5" r="18" stroke="black"/>
<path id="d" d="M19.2071 41.14C19.0405 40.9167 18.8605 40.7617 18.6671 40.675C18.4738 40.585 18.2571 40.54 18.0171 40.54C17.5471 40.54 17.1855 40.7083 16.9321 41.045C16.6788 41.3817 16.5521 41.8617 16.5521 42.485C16.5521 42.815 16.5805 43.0983 16.6371 43.335C16.6938 43.5683 16.7771 43.7617 16.8871 43.915C16.9971 44.065 17.1321 44.175 17.2921 44.245C17.4521 44.315 17.6338 44.35 17.8371 44.35C18.1305 44.35 18.3855 44.2833 18.6021 44.15C18.8221 44.0167 19.0238 43.8283 19.2071 43.585V41.14ZM20.0971 37.635V45H19.5671C19.4405 45 19.3605 44.9383 19.3271 44.815L19.2471 44.2C19.0305 44.46 18.7838 44.67 18.5071 44.83C18.2305 44.99 17.9105 45.07 17.5471 45.07C17.2571 45.07 16.9938 45.015 16.7571 44.905C16.5205 44.7917 16.3188 44.6267 16.1521 44.41C15.9855 44.1933 15.8571 43.9233 15.7671 43.6C15.6771 43.2767 15.6321 42.905 15.6321 42.485C15.6321 42.1117 15.6821 41.765 15.7821 41.445C15.8821 41.1217 16.0255 40.8417 16.2121 40.605C16.3988 40.3683 16.6271 40.1833 16.8971 40.05C17.1705 39.9133 17.4771 39.845 17.8171 39.845C18.1271 39.845 18.3921 39.8983 18.6121 40.005C18.8355 40.1083 19.0338 40.2533 19.2071 40.44V37.635H20.0971Z" fill="black"/>
</g>
<g id="stack-next-pointer" style="opacity: 0">
<path id="Arrow 9" d="M61.3536 42.3536C61.5488 42.1583 61.5488 41.8417 61.3536 41.6464L58.1716 38.4645C57.9763 38.2692 57.6597 38.2692 57.4645 38.4645C57.2692 38.6597 57.2692 38.9763 57.4645 39.1716L60.2929 42L57.4645 44.8284C57.2692 45.0237 57.2692 45.3403 57.4645 45.5355C57.6597 45.7308 57.9763 45.7308 58.1716 45.5355L61.3536 42.3536ZM37 42.5H61V41.5H37V42.5Z" fill="black"/>
<path id="next pointer_3" d="M39.8673 76.67C39.9773 76.5467 40.0939 76.435 40.2173 76.335C40.3406 76.235 40.4706 76.15 40.6073 76.08C40.7473 76.0067 40.8939 75.9517 41.0473 75.915C41.2039 75.875 41.3723 75.855 41.5523 75.855C41.8289 75.855 42.0723 75.9017 42.2823 75.995C42.4956 76.085 42.6723 76.215 42.8123 76.385C42.9556 76.5517 43.0639 76.7533 43.1373 76.99C43.2106 77.2267 43.2473 77.4883 43.2473 77.775V81H42.3523V77.775C42.3523 77.3917 42.2639 77.095 42.0873 76.885C41.9139 76.6717 41.6489 76.565 41.2923 76.565C41.0289 76.565 40.7823 76.6283 40.5523 76.755C40.3256 76.8817 40.1156 77.0533 39.9223 77.27V81H39.0273V75.935H39.5623C39.6889 75.935 39.7673 75.9967 39.7973 76.12L39.8673 76.67ZM47.9934 77.915C47.9934 77.7083 47.9634 77.52 47.9034 77.35C47.8468 77.1767 47.7618 77.0283 47.6484 76.905C47.5384 76.7783 47.4034 76.6817 47.2434 76.615C47.0834 76.545 46.9018 76.51 46.6984 76.51C46.2718 76.51 45.9334 76.635 45.6834 76.885C45.4368 77.1317 45.2834 77.475 45.2234 77.915H47.9934ZM48.7134 80.29C48.6034 80.4233 48.4718 80.54 48.3184 80.64C48.1651 80.7367 48.0001 80.8167 47.8234 80.88C47.6501 80.9433 47.4701 80.99 47.2834 81.02C47.0968 81.0533 46.9118 81.07 46.7284 81.07C46.3784 81.07 46.0551 81.0117 45.7584 80.895C45.4651 80.775 45.2101 80.6017 44.9934 80.375C44.7801 80.145 44.6134 79.8617 44.4934 79.525C44.3734 79.1883 44.3134 78.8017 44.3134 78.365C44.3134 78.0117 44.3668 77.6817 44.4734 77.375C44.5834 77.0683 44.7401 76.8033 44.9434 76.58C45.1468 76.3533 45.3951 76.1767 45.6884 76.05C45.9818 75.92 46.3118 75.855 46.6784 75.855C46.9818 75.855 47.2618 75.9067 47.5184 76.01C47.7784 76.11 48.0018 76.2567 48.1884 76.45C48.3784 76.64 48.5268 76.8767 48.6334 77.16C48.7401 77.44 48.7934 77.76 48.7934 78.12C48.7934 78.26 48.7784 78.3533 48.7484 78.4C48.7184 78.4467 48.6618 78.47 48.5784 78.47H45.1934C45.2034 78.79 45.2468 79.0683 45.3234 79.305C45.4034 79.5417 45.5134 79.74 45.6534 79.9C45.7934 80.0567 45.9601 80.175 46.1534 80.255C46.3468 80.3317 46.5634 80.37 46.8034 80.37C47.0268 80.37 47.2184 80.345 47.3784 80.295C47.5418 80.2417 47.6818 80.185 47.7984 80.125C47.9151 80.065 48.0118 80.01 48.0884 79.96C48.1684 79.9067 48.2368 79.88 48.2934 79.88C48.3668 79.88 48.4234 79.9083 48.4634 79.965L48.7134 80.29ZM53.9783 81H53.1233C53.0499 81 52.9916 80.9817 52.9483 80.945C52.9083 80.905 52.8749 80.8617 52.8483 80.815L51.5733 78.83C51.5599 78.8767 51.5449 78.9233 51.5283 78.97C51.5149 79.0133 51.4949 79.0533 51.4683 79.09L50.2883 80.815C50.2549 80.8617 50.2183 80.905 50.1783 80.945C50.1416 80.9817 50.0899 81 50.0233 81H49.2283L51.0033 78.4L49.2983 75.935H50.1533C50.2266 75.935 50.2799 75.9467 50.3133 75.97C50.3466 75.9933 50.3766 76.0267 50.4033 76.07L51.6483 77.97C51.6749 77.8733 51.7166 77.78 51.7733 77.69L52.8633 76.09C52.8933 76.0433 52.9249 76.0067 52.9583 75.98C52.9949 75.95 53.0383 75.935 53.0883 75.935H53.9083L52.2033 78.355L53.9783 81ZM56.3538 81.08C55.9538 81.08 55.6454 80.9683 55.4288 80.745C55.2154 80.5217 55.1088 80.2 55.1088 79.78V76.68H54.4988C54.4454 76.68 54.4004 76.665 54.3638 76.635C54.3271 76.6017 54.3088 76.5517 54.3088 76.485V76.13L55.1388 76.025L55.3438 74.46C55.3538 74.41 55.3754 74.37 55.4088 74.34C55.4454 74.3067 55.4921 74.29 55.5488 74.29H55.9988V76.035H57.4638V76.68H55.9988V79.72C55.9988 79.9333 56.0504 80.0917 56.1538 80.195C56.2571 80.2983 56.3904 80.35 56.5538 80.35C56.6471 80.35 56.7271 80.3383 56.7938 80.315C56.8638 80.2883 56.9238 80.26 56.9738 80.23C57.0238 80.2 57.0654 80.1733 57.0988 80.15C57.1354 80.1233 57.1671 80.11 57.1938 80.11C57.2404 80.11 57.2821 80.1383 57.3188 80.195L57.5788 80.62C57.4254 80.7633 57.2404 80.8767 57.0238 80.96C56.8071 81.04 56.5838 81.08 56.3538 81.08ZM33.765 91.78C33.9284 92 34.1067 92.155 34.3 92.245C34.4934 92.335 34.71 92.38 34.95 92.38C35.4234 92.38 35.7867 92.2117 36.04 91.875C36.2934 91.5383 36.42 91.0583 36.42 90.435C36.42 90.105 36.39 89.8217 36.33 89.585C36.2734 89.3483 36.19 89.155 36.08 89.005C35.97 88.8517 35.835 88.74 35.675 88.67C35.515 88.6 35.3334 88.565 35.13 88.565C34.84 88.565 34.585 88.6317 34.365 88.765C34.1484 88.8983 33.9484 89.0867 33.765 89.33V91.78ZM33.72 88.72C33.9334 88.4567 34.18 88.245 34.46 88.085C34.74 87.925 35.06 87.845 35.42 87.845C35.7134 87.845 35.9784 87.9017 36.215 88.015C36.4517 88.125 36.6534 88.29 36.82 88.51C36.9867 88.7267 37.115 88.9967 37.205 89.32C37.295 89.6433 37.34 90.015 37.34 90.435C37.34 90.8083 37.29 91.1567 37.19 91.48C37.09 91.8 36.945 92.0783 36.755 92.315C36.5684 92.5483 36.3384 92.7333 36.065 92.87C35.795 93.0033 35.49 93.07 35.15 93.07C34.84 93.07 34.5734 93.0183 34.35 92.915C34.13 92.8083 33.935 92.6617 33.765 92.475V94.715H32.87V87.935H33.405C33.5317 87.935 33.61 87.9967 33.64 88.12L33.72 88.72ZM40.6105 87.855C40.9805 87.855 41.3138 87.9167 41.6105 88.04C41.9072 88.1633 42.1605 88.3383 42.3705 88.565C42.5805 88.7917 42.7405 89.0667 42.8505 89.39C42.9638 89.71 43.0205 90.0683 43.0205 90.465C43.0205 90.865 42.9638 91.225 42.8505 91.545C42.7405 91.865 42.5805 92.1383 42.3705 92.365C42.1605 92.5917 41.9072 92.7667 41.6105 92.89C41.3138 93.01 40.9805 93.07 40.6105 93.07C40.2372 93.07 39.9005 93.01 39.6005 92.89C39.3038 92.7667 39.0505 92.5917 38.8405 92.365C38.6305 92.1383 38.4688 91.865 38.3555 91.545C38.2455 91.225 38.1905 90.865 38.1905 90.465C38.1905 90.0683 38.2455 89.71 38.3555 89.39C38.4688 89.0667 38.6305 88.7917 38.8405 88.565C39.0505 88.3383 39.3038 88.1633 39.6005 88.04C39.9005 87.9167 40.2372 87.855 40.6105 87.855ZM40.6105 92.375C41.1105 92.375 41.4838 92.2083 41.7305 91.875C41.9772 91.5383 42.1005 91.07 42.1005 90.47C42.1005 89.8667 41.9772 89.3967 41.7305 89.06C41.4838 88.7233 41.1105 88.555 40.6105 88.555C40.3572 88.555 40.1355 88.5983 39.9455 88.685C39.7588 88.7717 39.6022 88.8967 39.4755 89.06C39.3522 89.2233 39.2588 89.425 39.1955 89.665C39.1355 89.9017 39.1055 90.17 39.1055 90.47C39.1055 91.07 39.2288 91.5383 39.4755 91.875C39.7255 92.2083 40.1038 92.375 40.6105 92.375ZM45.0893 87.935V93H44.1993V87.935H45.0893ZM45.2793 86.345C45.2793 86.4317 45.261 86.5133 45.2243 86.59C45.191 86.6633 45.1443 86.73 45.0843 86.79C45.0277 86.8467 44.9593 86.8917 44.8793 86.925C44.8027 86.9583 44.721 86.975 44.6343 86.975C44.5477 86.975 44.466 86.9583 44.3893 86.925C44.316 86.8917 44.251 86.8467 44.1943 86.79C44.1377 86.73 44.0927 86.6633 44.0593 86.59C44.026 86.5133 44.0093 86.4317 44.0093 86.345C44.0093 86.2583 44.026 86.1767 44.0593 86.1C44.0927 86.02 44.1377 85.9517 44.1943 85.895C44.251 85.835 44.316 85.7883 44.3893 85.755C44.466 85.7217 44.5477 85.705 44.6343 85.705C44.721 85.705 44.8027 85.7217 44.8793 85.755C44.9593 85.7883 45.0277 85.835 45.0843 85.895C45.1443 85.9517 45.191 86.02 45.2243 86.1C45.261 86.1767 45.2793 86.2583 45.2793 86.345ZM47.3917 88.67C47.5017 88.5467 47.6183 88.435 47.7417 88.335C47.865 88.235 47.995 88.15 48.1317 88.08C48.2717 88.0067 48.4183 87.9517 48.5717 87.915C48.7283 87.875 48.8967 87.855 49.0767 87.855C49.3533 87.855 49.5967 87.9017 49.8067 87.995C50.02 88.085 50.1967 88.215 50.3367 88.385C50.48 88.5517 50.5883 88.7533 50.6617 88.99C50.735 89.2267 50.7717 89.4883 50.7717 89.775V93H49.8767V89.775C49.8767 89.3917 49.7883 89.095 49.6117 88.885C49.4383 88.6717 49.1733 88.565 48.8167 88.565C48.5533 88.565 48.3067 88.6283 48.0767 88.755C47.85 88.8817 47.64 89.0533 47.4467 89.27V93H46.5517V87.935H47.0867C47.2133 87.935 47.2917 87.9967 47.3217 88.12L47.3917 88.67ZM53.6145 93.08C53.2145 93.08 52.9062 92.9683 52.6895 92.745C52.4762 92.5217 52.3695 92.2 52.3695 91.78V88.68H51.7595C51.7062 88.68 51.6612 88.665 51.6245 88.635C51.5878 88.6017 51.5695 88.5517 51.5695 88.485V88.13L52.3995 88.025L52.6045 86.46C52.6145 86.41 52.6362 86.37 52.6695 86.34C52.7062 86.3067 52.7528 86.29 52.8095 86.29H53.2595V88.035H54.7245V88.68H53.2595V91.72C53.2595 91.9333 53.3112 92.0917 53.4145 92.195C53.5178 92.2983 53.6512 92.35 53.8145 92.35C53.9078 92.35 53.9878 92.3383 54.0545 92.315C54.1245 92.2883 54.1845 92.26 54.2345 92.23C54.2845 92.2 54.3262 92.1733 54.3595 92.15C54.3962 92.1233 54.4278 92.11 54.4545 92.11C54.5012 92.11 54.5428 92.1383 54.5795 92.195L54.8395 92.62C54.6862 92.7633 54.5012 92.8767 54.2845 92.96C54.0678 93.04 53.8445 93.08 53.6145 93.08ZM59.0042 89.915C59.0042 89.7083 58.9742 89.52 58.9142 89.35C58.8575 89.1767 58.7725 89.0283 58.6592 88.905C58.5492 88.7783 58.4142 88.6817 58.2542 88.615C58.0942 88.545 57.9125 88.51 57.7092 88.51C57.2825 88.51 56.9442 88.635 56.6942 88.885C56.4475 89.1317 56.2942 89.475 56.2342 89.915H59.0042ZM59.7242 92.29C59.6142 92.4233 59.4825 92.54 59.3292 92.64C59.1758 92.7367 59.0108 92.8167 58.8342 92.88C58.6608 92.9433 58.4808 92.99 58.2942 93.02C58.1075 93.0533 57.9225 93.07 57.7392 93.07C57.3892 93.07 57.0658 93.0117 56.7692 92.895C56.4758 92.775 56.2208 92.6017 56.0042 92.375C55.7908 92.145 55.6242 91.8617 55.5042 91.525C55.3842 91.1883 55.3242 90.8017 55.3242 90.365C55.3242 90.0117 55.3775 89.6817 55.4842 89.375C55.5942 89.0683 55.7508 88.8033 55.9542 88.58C56.1575 88.3533 56.4058 88.1767 56.6992 88.05C56.9925 87.92 57.3225 87.855 57.6892 87.855C57.9925 87.855 58.2725 87.9067 58.5292 88.01C58.7892 88.11 59.0125 88.2567 59.1992 88.45C59.3892 88.64 59.5375 88.8767 59.6442 89.16C59.7508 89.44 59.8042 89.76 59.8042 90.12C59.8042 90.26 59.7892 90.3533 59.7592 90.4C59.7292 90.4467 59.6725 90.47 59.5892 90.47H56.2042C56.2142 90.79 56.2575 91.0683 56.3342 91.305C56.4142 91.5417 56.5242 91.74 56.6642 91.9C56.8042 92.0567 56.9708 92.175 57.1642 92.255C57.3575 92.3317 57.5742 92.37 57.8142 92.37C58.0375 92.37 58.2292 92.345 58.3892 92.295C58.5525 92.2417 58.6925 92.185 58.8092 92.125C58.9258 92.065 59.0225 92.01 59.0992 91.96C59.1792 91.9067 59.2475 91.88 59.3042 91.88C59.3775 91.88 59.4342 91.9083 59.4742 91.965L59.7242 92.29ZM61.7424 88.95C61.9024 88.6033 62.099 88.3333 62.3324 88.14C62.5657 87.9433 62.8507 87.845 63.1874 87.845C63.294 87.845 63.3957 87.8567 63.4924 87.88C63.5924 87.9033 63.6807 87.94 63.7574 87.99L63.6924 88.655C63.6724 88.7383 63.6224 88.78 63.5424 88.78C63.4957 88.78 63.4274 88.77 63.3374 88.75C63.2474 88.73 63.1457 88.72 63.0324 88.72C62.8724 88.72 62.729 88.7433 62.6024 88.79C62.479 88.8367 62.3674 88.9067 62.2674 89C62.1707 89.09 62.0824 89.2033 62.0024 89.34C61.9257 89.4733 61.8557 89.6267 61.7924 89.8V93H60.8974V87.935H61.4074C61.504 87.935 61.5707 87.9533 61.6074 87.99C61.644 88.0267 61.669 88.09 61.6824 88.18L61.7424 88.95Z" fill="#D90D0D"/>
<path id="Arrow 7_2" d="M50.3536 47.6464C50.1583 47.4512 49.8417 47.4512 49.6464 47.6464L46.4645 50.8284C46.2692 51.0237 46.2692 51.3403 46.4645 51.5355C46.6597 51.7308 46.9763 51.7308 47.1716 51.5355L50 48.7071L52.8284 51.5355C53.0237 51.7308 53.3403 51.7308 53.5355 51.5355C53.7308 51.3403 53.7308 51.0237 53.5355 50.8284L50.3536 47.6464ZM50.5 71L50.5 48L49.5 48L49.5 71L50.5 71Z" fill="#D90D0D"/>
</g>
</g>
</g>
</svg>
