<svg viewBox="0 0 268 95" fill="none" xmlns="http://www.w3.org/2000/svg">
<g id="stack-pop">
<g id="node-a">
<circle id="Ellipse 2" cx="78.5" cy="41.5" r="18" stroke="black"/>
<path id="a" d="M78.9646 42.72C78.5546 42.7333 78.2046 42.7667 77.9146 42.82C77.628 42.87 77.393 42.9367 77.2096 43.02C77.0296 43.1033 76.898 43.2017 76.8146 43.315C76.7346 43.4283 76.6946 43.555 76.6946 43.695C76.6946 43.8283 76.7163 43.9433 76.7596 44.04C76.803 44.1367 76.8613 44.2167 76.9346 44.28C77.0113 44.34 77.0996 44.385 77.1996 44.415C77.303 44.4417 77.413 44.455 77.5296 44.455C77.6863 44.455 77.8296 44.44 77.9596 44.41C78.0896 44.3767 78.2113 44.33 78.3246 44.27C78.4413 44.21 78.5513 44.1383 78.6546 44.055C78.7613 43.9717 78.8646 43.8767 78.9646 43.77V42.72ZM76.0896 40.65C76.3696 40.38 76.6713 40.1783 76.9946 40.045C77.318 39.9117 77.6763 39.845 78.0696 39.845C78.353 39.845 78.6046 39.8917 78.8246 39.985C79.0446 40.0783 79.2296 40.2083 79.3796 40.375C79.5296 40.5417 79.643 40.7433 79.7196 40.98C79.7963 41.2167 79.8346 41.4767 79.8346 41.76V45H79.4396C79.353 45 79.2863 44.9867 79.2396 44.96C79.193 44.93 79.1563 44.8733 79.1296 44.79L79.0296 44.31C78.8963 44.4333 78.7663 44.5433 78.6396 44.64C78.513 44.7333 78.3796 44.8133 78.2396 44.88C78.0996 44.9433 77.9496 44.9917 77.7896 45.025C77.633 45.0617 77.458 45.08 77.2646 45.08C77.068 45.08 76.883 45.0533 76.7096 45C76.5363 44.9433 76.3846 44.86 76.2546 44.75C76.128 44.64 76.0263 44.5017 75.9496 44.335C75.8763 44.165 75.8396 43.965 75.8396 43.735C75.8396 43.535 75.8946 43.3433 76.0046 43.16C76.1146 42.9733 76.293 42.8083 76.5396 42.665C76.7863 42.5217 77.108 42.405 77.5046 42.315C77.9013 42.2217 78.388 42.1683 78.9646 42.155V41.76C78.9646 41.3667 78.8796 41.07 78.7096 40.87C78.5396 40.6667 78.2913 40.565 77.9646 40.565C77.7446 40.565 77.5596 40.5933 77.4096 40.65C77.263 40.7033 77.1346 40.765 77.0246 40.835C76.918 40.9017 76.8246 40.9633 76.7446 41.02C76.668 41.0733 76.5913 41.1 76.5146 41.1C76.4546 41.1 76.403 41.085 76.3596 41.055C76.3163 41.0217 76.2796 40.9817 76.2496 40.935L76.0896 40.65Z" fill="black"/>
</g>
<g id="node-c">
<circle id="Ellipse 2_2" cx="199.5" cy="41.5" r="18" stroke="black"/>
<path id="c" d="M200.842 40.835C200.816 40.8717 200.789 40.9 200.762 40.92C200.736 40.94 200.699 40.95 200.652 40.95C200.602 40.95 200.547 40.93 200.487 40.89C200.427 40.8467 200.352 40.8 200.262 40.75C200.176 40.7 200.067 40.655 199.937 40.615C199.811 40.5717 199.654 40.55 199.467 40.55C199.217 40.55 198.997 40.595 198.807 40.685C198.617 40.7717 198.457 40.8983 198.327 41.065C198.201 41.2317 198.104 41.4333 198.037 41.67C197.974 41.9067 197.942 42.1717 197.942 42.465C197.942 42.7717 197.977 43.045 198.047 43.285C198.117 43.5217 198.216 43.7217 198.342 43.885C198.472 44.045 198.627 44.1683 198.807 44.255C198.991 44.3383 199.196 44.38 199.422 44.38C199.639 44.38 199.817 44.355 199.957 44.305C200.097 44.2517 200.212 44.1933 200.302 44.13C200.396 44.0667 200.472 44.01 200.532 43.96C200.596 43.9067 200.657 43.88 200.717 43.88C200.791 43.88 200.847 43.9083 200.887 43.965L201.137 44.29C201.027 44.4267 200.902 44.5433 200.762 44.64C200.622 44.7367 200.471 44.8183 200.307 44.885C200.147 44.9483 199.979 44.995 199.802 45.025C199.626 45.055 199.446 45.07 199.262 45.07C198.946 45.07 198.651 45.0117 198.377 44.895C198.107 44.7783 197.872 44.61 197.672 44.39C197.472 44.1667 197.316 43.8933 197.202 43.57C197.089 43.2467 197.032 42.8783 197.032 42.465C197.032 42.0883 197.084 41.74 197.187 41.42C197.294 41.1 197.447 40.825 197.647 40.595C197.851 40.3617 198.099 40.18 198.392 40.05C198.689 39.92 199.029 39.855 199.412 39.855C199.769 39.855 200.082 39.9133 200.352 40.03C200.626 40.1433 200.867 40.305 201.077 40.515L200.842 40.835Z" fill="black"/>
</g>
<g id="node-b">
<circle id="Ellipse 2_3" cx="139.5" cy="41.5" r="18" stroke="black"/>
<path id="b" d="M137.802 43.78C137.965 44 138.144 44.155 138.337 44.245C138.534 44.335 138.749 44.38 138.982 44.38C139.459 44.38 139.824 44.2117 140.077 43.875C140.33 43.5383 140.457 43.0367 140.457 42.37C140.457 41.75 140.344 41.295 140.117 41.005C139.894 40.7117 139.574 40.565 139.157 40.565C138.867 40.565 138.614 40.6317 138.397 40.765C138.184 40.8983 137.985 41.0867 137.802 41.33V43.78ZM137.802 40.665C138.015 40.4183 138.255 40.2217 138.522 40.075C138.792 39.9283 139.102 39.855 139.452 39.855C139.749 39.855 140.015 39.9117 140.252 40.025C140.492 40.1383 140.695 40.3033 140.862 40.52C141.029 40.7333 141.155 40.9933 141.242 41.3C141.332 41.6067 141.377 41.9517 141.377 42.335C141.377 42.745 141.327 43.1183 141.227 43.455C141.127 43.7917 140.982 44.08 140.792 44.32C140.605 44.5567 140.377 44.7417 140.107 44.875C139.837 45.005 139.534 45.07 139.197 45.07C138.864 45.07 138.582 45.0083 138.352 44.885C138.125 44.7583 137.927 44.58 137.757 44.35L137.712 44.81C137.685 44.9367 137.609 45 137.482 45H136.907V37.635H137.802V40.665Z" fill="black"/>
</g>
<path id="Arrow 4" d="M121.354 42.3536C121.549 42.1583 121.549 41.8417 121.354 41.6464L118.172 38.4645C117.976 38.2692 117.66 38.2692 117.464 38.4645C117.269 38.6597 117.269 38.9763 117.464 39.1716L120.293 42L117.464 44.8284C117.269 45.0237 117.269 45.3403 117.464 45.5355C117.66 45.7308 117.976 45.7308 118.172 45.5355L121.354 42.3536ZM97 42.5H121V41.5H97V42.5Z" fill="black"/>
<path id="Arrow 5" d="M181.354 42.3536C181.549 42.1583 181.549 41.8417 181.354 41.6464L178.172 38.4645C177.976 38.2692 177.66 38.2692 177.464 38.4645C177.269 38.6597 177.269 38.9763 177.464 39.1716L180.293 42L177.464 44.8284C177.269 45.0237 177.269 45.3403 177.464 45.5355C177.66 45.7308 177.976 45.7308 178.172 45.5355L181.354 42.3536ZM158 42.5H181V41.5H158V42.5Z" fill="black"/>
<path id="Arrow 5_2" d="M241.354 42.3536C241.549 42.1583 241.549 41.8417 241.354 41.6464L238.172 38.4645C237.976 38.2692 237.66 38.2692 237.464 38.4645C237.269 38.6597 237.269 38.9763 237.464 39.1716L240.293 42L237.464 44.8284C237.269 45.0237 237.269 45.3403 237.464 45.5355C237.66 45.7308 237.976 45.7308 238.172 45.5355L241.354 42.3536ZM218 42.5H241V41.5H218V42.5Z" fill="black"/>
<path id="stack-pop-head-pointer" style="transform-origin: top right; transform-box: fill-box; transition-duration: 500ms" d="M31.5 29C31.5 29.2761 31.7239 29.5 32 29.5H36.5C36.7761 29.5 37 29.2761 37 29C37 28.7239 36.7761 28.5 36.5 28.5H32.5V24.5C32.5 24.2239 32.2761 24 32 24C31.7239 24 31.5 24.2239 31.5 24.5V29ZM47.6464 12.6464L31.6464 28.6464L32.3536 29.3536L48.3536 13.3536L47.6464 12.6464Z" fill="#0B3AB5"/>
<path id="head (start of list)" d="M19.641 5.61C19.8577 5.38 20.0977 5.19667 20.361 5.06C20.6243 4.92333 20.9277 4.855 21.271 4.855C21.5477 4.855 21.791 4.90167 22.001 4.995C22.2143 5.085 22.391 5.215 22.531 5.385C22.6743 5.55167 22.7827 5.75333 22.856 5.99C22.9293 6.22667 22.966 6.48833 22.966 6.775V10H22.071V6.775C22.071 6.39167 21.9827 6.095 21.806 5.885C21.6327 5.67167 21.3677 5.565 21.011 5.565C20.7477 5.565 20.501 5.62833 20.271 5.755C20.0443 5.88167 19.8343 6.05333 19.641 6.27V10H18.746V2.635H19.641V5.61ZM27.7122 6.915C27.7122 6.70833 27.6822 6.52 27.6222 6.35C27.5655 6.17667 27.4805 6.02833 27.3672 5.905C27.2572 5.77833 27.1222 5.68167 26.9622 5.615C26.8022 5.545 26.6205 5.51 26.4172 5.51C25.9905 5.51 25.6522 5.635 25.4022 5.885C25.1555 6.13167 25.0022 6.475 24.9422 6.915H27.7122ZM28.4322 9.29C28.3222 9.42333 28.1905 9.54 28.0372 9.64C27.8839 9.73667 27.7189 9.81667 27.5422 9.88C27.3689 9.94333 27.1889 9.99 27.0022 10.02C26.8155 10.0533 26.6305 10.07 26.4472 10.07C26.0972 10.07 25.7739 10.0117 25.4772 9.895C25.1839 9.775 24.9289 9.60167 24.7122 9.375C24.4989 9.145 24.3322 8.86167 24.2122 8.525C24.0922 8.18833 24.0322 7.80167 24.0322 7.365C24.0322 7.01167 24.0855 6.68167 24.1922 6.375C24.3022 6.06833 24.4589 5.80333 24.6622 5.58C24.8655 5.35333 25.1139 5.17667 25.4072 5.05C25.7005 4.92 26.0305 4.855 26.3972 4.855C26.7005 4.855 26.9805 4.90667 27.2372 5.01C27.4972 5.11 27.7205 5.25667 27.9072 5.45C28.0972 5.64 28.2455 5.87667 28.3522 6.16C28.4589 6.44 28.5122 6.76 28.5122 7.12C28.5122 7.26 28.4972 7.35333 28.4672 7.4C28.4372 7.44667 28.3805 7.47 28.2972 7.47H24.9122C24.9222 7.79 24.9655 8.06833 25.0422 8.305C25.1222 8.54167 25.2322 8.74 25.3722 8.9C25.5122 9.05667 25.6789 9.175 25.8722 9.255C26.0655 9.33167 26.2822 9.37 26.5222 9.37C26.7455 9.37 26.9372 9.345 27.0972 9.295C27.2605 9.24167 27.4005 9.185 27.5172 9.125C27.6339 9.065 27.7305 9.01 27.8072 8.96C27.8872 8.90667 27.9555 8.88 28.0122 8.88C28.0855 8.88 28.1422 8.90833 28.1822 8.965L28.4322 9.29ZM32.3504 7.72C31.9404 7.73333 31.5904 7.76667 31.3004 7.82C31.0137 7.87 30.7787 7.93667 30.5954 8.02C30.4154 8.10333 30.2837 8.20167 30.2004 8.315C30.1204 8.42833 30.0804 8.555 30.0804 8.695C30.0804 8.82833 30.1021 8.94333 30.1454 9.04C30.1887 9.13667 30.2471 9.21667 30.3204 9.28C30.3971 9.34 30.4854 9.385 30.5854 9.415C30.6887 9.44167 30.7987 9.455 30.9154 9.455C31.0721 9.455 31.2154 9.44 31.3454 9.41C31.4754 9.37667 31.5971 9.33 31.7104 9.27C31.8271 9.21 31.9371 9.13833 32.0404 9.055C32.1471 8.97167 32.2504 8.87667 32.3504 8.77V7.72ZM29.4754 5.65C29.7554 5.38 30.0571 5.17833 30.3804 5.045C30.7037 4.91167 31.0621 4.845 31.4554 4.845C31.7387 4.845 31.9904 4.89167 32.2104 4.985C32.4304 5.07833 32.6154 5.20833 32.7654 5.375C32.9154 5.54167 33.0287 5.74333 33.1054 5.98C33.1821 6.21667 33.2204 6.47667 33.2204 6.76V10H32.8254C32.7387 10 32.6721 9.98667 32.6254 9.96C32.5787 9.93 32.5421 9.87333 32.5154 9.79L32.4154 9.31C32.2821 9.43333 32.1521 9.54333 32.0254 9.64C31.8987 9.73333 31.7654 9.81333 31.6254 9.88C31.4854 9.94333 31.3354 9.99167 31.1754 10.025C31.0187 10.0617 30.8437 10.08 30.6504 10.08C30.4537 10.08 30.2687 10.0533 30.0954 10C29.9221 9.94333 29.7704 9.86 29.6404 9.75C29.5137 9.64 29.4121 9.50167 29.3354 9.335C29.2621 9.165 29.2254 8.965 29.2254 8.735C29.2254 8.535 29.2804 8.34333 29.3904 8.16C29.5004 7.97333 29.6787 7.80833 29.9254 7.665C30.1721 7.52167 30.4937 7.405 30.8904 7.315C31.2871 7.22167 31.7737 7.16833 32.3504 7.155V6.76C32.3504 6.36667 32.2654 6.07 32.0954 5.87C31.9254 5.66667 31.6771 5.565 31.3504 5.565C31.1304 5.565 30.9454 5.59333 30.7954 5.65C30.6487 5.70333 30.5204 5.765 30.4104 5.835C30.3037 5.90167 30.2104 5.96333 30.1304 6.02C30.0537 6.07333 29.9771 6.1 29.9004 6.1C29.8404 6.1 29.7887 6.085 29.7454 6.055C29.7021 6.02167 29.6654 5.98167 29.6354 5.935L29.4754 5.65ZM37.8761 6.14C37.7094 5.91667 37.5294 5.76167 37.3361 5.675C37.1428 5.585 36.9261 5.54 36.6861 5.54C36.2161 5.54 35.8544 5.70833 35.6011 6.045C35.3478 6.38167 35.2211 6.86167 35.2211 7.485C35.2211 7.815 35.2494 8.09833 35.3061 8.335C35.3628 8.56833 35.4461 8.76167 35.5561 8.915C35.6661 9.065 35.8011 9.175 35.9611 9.245C36.1211 9.315 36.3028 9.35 36.5061 9.35C36.7994 9.35 37.0544 9.28333 37.2711 9.15C37.4911 9.01667 37.6928 8.82833 37.8761 8.585V6.14ZM38.7661 2.635V10H38.2361C38.1094 10 38.0294 9.93833 37.9961 9.815L37.9161 9.2C37.6994 9.46 37.4528 9.67 37.1761 9.83C36.8994 9.99 36.5794 10.07 36.2161 10.07C35.9261 10.07 35.6628 10.015 35.4261 9.905C35.1894 9.79167 34.9878 9.62667 34.8211 9.41C34.6544 9.19333 34.5261 8.92333 34.4361 8.6C34.3461 8.27667 34.3011 7.905 34.3011 7.485C34.3011 7.11167 34.3511 6.765 34.4511 6.445C34.5511 6.12167 34.6944 5.84167 34.8811 5.605C35.0678 5.36833 35.2961 5.18333 35.5661 5.05C35.8394 4.91333 36.1461 4.845 36.4861 4.845C36.7961 4.845 37.0611 4.89833 37.2811 5.005C37.5044 5.10833 37.7028 5.25333 37.8761 5.44V2.635H38.7661ZM43.2504 6.855C43.2504 7.56833 43.3404 8.26167 43.5204 8.935C43.7037 9.60833 43.9704 10.2483 44.3204 10.855C44.3737 10.9583 44.3871 11.0367 44.3604 11.09C44.3337 11.1467 44.2954 11.1917 44.2454 11.225L43.8504 11.465C43.6004 11.0817 43.3871 10.7017 43.2104 10.325C43.0371 9.94833 42.8954 9.57 42.7854 9.19C42.6787 8.81 42.6004 8.42833 42.5504 8.045C42.5004 7.65833 42.4754 7.26167 42.4754 6.855C42.4754 6.45167 42.5004 6.05667 42.5504 5.67C42.6004 5.28333 42.6787 4.90167 42.7854 4.525C42.8954 4.145 43.0371 3.76667 43.2104 3.39C43.3871 3.01333 43.6004 2.63167 43.8504 2.245L44.2454 2.49C44.2954 2.52333 44.3337 2.56833 44.3604 2.625C44.3871 2.67833 44.3737 2.755 44.3204 2.855C43.9704 3.46167 43.7037 4.10167 43.5204 4.775C43.3404 5.44833 43.2504 6.14167 43.2504 6.855ZM48.1609 5.77C48.1209 5.84333 48.0592 5.88 47.9759 5.88C47.9259 5.88 47.8692 5.86167 47.8059 5.825C47.7425 5.78833 47.6642 5.74833 47.5709 5.705C47.4809 5.65833 47.3725 5.61667 47.2459 5.58C47.1192 5.54 46.9692 5.52 46.7959 5.52C46.6459 5.52 46.5109 5.54 46.3909 5.58C46.2709 5.61667 46.1675 5.66833 46.0809 5.735C45.9975 5.80167 45.9325 5.88 45.8859 5.97C45.8425 6.05667 45.8209 6.15167 45.8209 6.255C45.8209 6.385 45.8575 6.49333 45.9309 6.58C46.0075 6.66667 46.1075 6.74167 46.2309 6.805C46.3542 6.86833 46.4942 6.925 46.6509 6.975C46.8075 7.02167 46.9675 7.07333 47.1309 7.13C47.2975 7.18333 47.4592 7.24333 47.6159 7.31C47.7725 7.37667 47.9125 7.46 48.0359 7.56C48.1592 7.66 48.2575 7.78333 48.3309 7.93C48.4075 8.07333 48.4459 8.24667 48.4459 8.45C48.4459 8.68333 48.4042 8.9 48.3209 9.1C48.2375 9.29667 48.1142 9.46833 47.9509 9.615C47.7875 9.75833 47.5875 9.87167 47.3509 9.955C47.1142 10.0383 46.8409 10.08 46.5309 10.08C46.1775 10.08 45.8575 10.0233 45.5709 9.91C45.2842 9.79333 45.0409 9.645 44.8409 9.465L45.0509 9.125C45.0775 9.08167 45.1092 9.04833 45.1459 9.025C45.1825 9.00167 45.2292 8.99 45.2859 8.99C45.3459 8.99 45.4092 9.01333 45.4759 9.06C45.5425 9.10667 45.6225 9.15833 45.7159 9.215C45.8125 9.27167 45.9292 9.32333 46.0659 9.37C46.2025 9.41667 46.3725 9.44 46.5759 9.44C46.7492 9.44 46.9009 9.41833 47.0309 9.375C47.1609 9.32833 47.2692 9.26667 47.3559 9.19C47.4425 9.11333 47.5059 9.025 47.5459 8.925C47.5892 8.825 47.6109 8.71833 47.6109 8.605C47.6109 8.465 47.5725 8.35 47.4959 8.26C47.4225 8.16667 47.3242 8.08833 47.2009 8.025C47.0775 7.95833 46.9359 7.90167 46.7759 7.855C46.6192 7.805 46.4575 7.75333 46.2909 7.7C46.1275 7.64667 45.9659 7.58667 45.8059 7.52C45.6492 7.45 45.5092 7.36333 45.3859 7.26C45.2625 7.15667 45.1625 7.03 45.0859 6.88C45.0125 6.72667 44.9759 6.54167 44.9759 6.325C44.9759 6.13167 45.0159 5.94667 45.0959 5.77C45.1759 5.59 45.2925 5.43333 45.4459 5.3C45.5992 5.16333 45.7875 5.055 46.0109 4.975C46.2342 4.895 46.4892 4.855 46.7759 4.855C47.1092 4.855 47.4075 4.90833 47.6709 5.015C47.9375 5.11833 48.1675 5.26167 48.3609 5.445L48.1609 5.77ZM51.092 10.08C50.692 10.08 50.3837 9.96833 50.167 9.745C49.9537 9.52167 49.847 9.2 49.847 8.78V5.68H49.237C49.1837 5.68 49.1387 5.665 49.102 5.635C49.0654 5.60167 49.047 5.55167 49.047 5.485V5.13L49.877 5.025L50.082 3.46C50.092 3.41 50.1137 3.37 50.147 3.34C50.1837 3.30667 50.2304 3.29 50.287 3.29H50.737V5.035H52.202V5.68H50.737V8.72C50.737 8.93333 50.7887 9.09167 50.892 9.195C50.9954 9.29833 51.1287 9.35 51.292 9.35C51.3854 9.35 51.4654 9.33833 51.532 9.315C51.602 9.28833 51.662 9.26 51.712 9.23C51.762 9.2 51.8037 9.17333 51.837 9.15C51.8737 9.12333 51.9054 9.11 51.932 9.11C51.9787 9.11 52.0204 9.13833 52.057 9.195L52.317 9.62C52.1637 9.76333 51.9787 9.87667 51.762 9.96C51.5454 10.04 51.322 10.08 51.092 10.08ZM55.866 7.72C55.456 7.73333 55.106 7.76667 54.816 7.82C54.5293 7.87 54.2943 7.93667 54.111 8.02C53.931 8.10333 53.7993 8.20167 53.716 8.315C53.636 8.42833 53.596 8.555 53.596 8.695C53.596 8.82833 53.6177 8.94333 53.661 9.04C53.7043 9.13667 53.7627 9.21667 53.836 9.28C53.9127 9.34 54.001 9.385 54.101 9.415C54.2043 9.44167 54.3143 9.455 54.431 9.455C54.5877 9.455 54.731 9.44 54.861 9.41C54.991 9.37667 55.1127 9.33 55.226 9.27C55.3427 9.21 55.4527 9.13833 55.556 9.055C55.6627 8.97167 55.766 8.87667 55.866 8.77V7.72ZM52.991 5.65C53.271 5.38 53.5727 5.17833 53.896 5.045C54.2193 4.91167 54.5777 4.845 54.971 4.845C55.2543 4.845 55.506 4.89167 55.726 4.985C55.946 5.07833 56.131 5.20833 56.281 5.375C56.431 5.54167 56.5443 5.74333 56.621 5.98C56.6977 6.21667 56.736 6.47667 56.736 6.76V10H56.341C56.2543 10 56.1877 9.98667 56.141 9.96C56.0943 9.93 56.0577 9.87333 56.031 9.79L55.931 9.31C55.7977 9.43333 55.6677 9.54333 55.541 9.64C55.4143 9.73333 55.281 9.81333 55.141 9.88C55.001 9.94333 54.851 9.99167 54.691 10.025C54.5343 10.0617 54.3593 10.08 54.166 10.08C53.9693 10.08 53.7843 10.0533 53.611 10C53.4377 9.94333 53.286 9.86 53.156 9.75C53.0293 9.64 52.9277 9.50167 52.851 9.335C52.7777 9.165 52.741 8.965 52.741 8.735C52.741 8.535 52.796 8.34333 52.906 8.16C53.016 7.97333 53.1943 7.80833 53.441 7.665C53.6877 7.52167 54.0093 7.405 54.406 7.315C54.8027 7.22167 55.2893 7.16833 55.866 7.155V6.76C55.866 6.36667 55.781 6.07 55.611 5.87C55.441 5.66667 55.1927 5.565 54.866 5.565C54.646 5.565 54.461 5.59333 54.311 5.65C54.1643 5.70333 54.036 5.765 53.926 5.835C53.8193 5.90167 53.726 5.96333 53.646 6.02C53.5693 6.07333 53.4927 6.1 53.416 6.1C53.356 6.1 53.3043 6.085 53.261 6.055C53.2177 6.02167 53.181 5.98167 53.151 5.935L52.991 5.65ZM58.9367 5.95C59.0967 5.60333 59.2934 5.33333 59.5267 5.14C59.7601 4.94333 60.0451 4.845 60.3817 4.845C60.4884 4.845 60.5901 4.85667 60.6867 4.88C60.7867 4.90333 60.8751 4.94 60.9517 4.99L60.8867 5.655C60.8667 5.73833 60.8167 5.78 60.7367 5.78C60.6901 5.78 60.6217 5.77 60.5317 5.75C60.4417 5.73 60.3401 5.72 60.2267 5.72C60.0667 5.72 59.9234 5.74333 59.7967 5.79C59.6734 5.83667 59.5617 5.90667 59.4617 6C59.3651 6.09 59.2767 6.20333 59.1967 6.34C59.1201 6.47333 59.0501 6.62667 58.9867 6.8V10H58.0917V4.935H58.6017C58.6984 4.935 58.7651 4.95333 58.8017 4.99C58.8384 5.02667 58.8634 5.09 58.8767 5.18L58.9367 5.95ZM63.2893 10.08C62.8893 10.08 62.581 9.96833 62.3643 9.745C62.151 9.52167 62.0443 9.2 62.0443 8.78V5.68H61.4343C61.381 5.68 61.336 5.665 61.2993 5.635C61.2626 5.60167 61.2443 5.55167 61.2443 5.485V5.13L62.0743 5.025L62.2793 3.46C62.2893 3.41 62.311 3.37 62.3443 3.34C62.381 3.30667 62.4276 3.29 62.4843 3.29H62.9343V5.035H64.3993V5.68H62.9343V8.72C62.9343 8.93333 62.986 9.09167 63.0893 9.195C63.1926 9.29833 63.326 9.35 63.4893 9.35C63.5826 9.35 63.6626 9.33833 63.7293 9.315C63.7993 9.28833 63.8593 9.26 63.9093 9.23C63.9593 9.2 64.001 9.17333 64.0343 9.15C64.071 9.12333 64.1026 9.11 64.1293 9.11C64.176 9.11 64.2176 9.13833 64.2543 9.195L64.5143 9.62C64.361 9.76333 64.176 9.87667 63.9593 9.96C63.7426 10.04 63.5193 10.08 63.2893 10.08ZM70.0119 4.855C70.3819 4.855 70.7152 4.91667 71.0119 5.04C71.3085 5.16333 71.5619 5.33833 71.7719 5.565C71.9819 5.79167 72.1419 6.06667 72.2519 6.39C72.3652 6.71 72.4219 7.06833 72.4219 7.465C72.4219 7.865 72.3652 8.225 72.2519 8.545C72.1419 8.865 71.9819 9.13833 71.7719 9.365C71.5619 9.59167 71.3085 9.76667 71.0119 9.89C70.7152 10.01 70.3819 10.07 70.0119 10.07C69.6385 10.07 69.3019 10.01 69.0019 9.89C68.7052 9.76667 68.4519 9.59167 68.2419 9.365C68.0319 9.13833 67.8702 8.865 67.7569 8.545C67.6469 8.225 67.5919 7.865 67.5919 7.465C67.5919 7.06833 67.6469 6.71 67.7569 6.39C67.8702 6.06667 68.0319 5.79167 68.2419 5.565C68.4519 5.33833 68.7052 5.16333 69.0019 5.04C69.3019 4.91667 69.6385 4.855 70.0119 4.855ZM70.0119 9.375C70.5119 9.375 70.8852 9.20833 71.1319 8.875C71.3785 8.53833 71.5019 8.07 71.5019 7.47C71.5019 6.86667 71.3785 6.39667 71.1319 6.06C70.8852 5.72333 70.5119 5.555 70.0119 5.555C69.7585 5.555 69.5369 5.59833 69.3469 5.685C69.1602 5.77167 69.0035 5.89667 68.8769 6.06C68.7535 6.22333 68.6602 6.425 68.5969 6.665C68.5369 6.90167 68.5069 7.17 68.5069 7.47C68.5069 8.07 68.6302 8.53833 68.8769 8.875C69.1269 9.20833 69.5052 9.375 70.0119 9.375ZM73.7733 10V5.695L73.2133 5.63C73.1433 5.61333 73.0849 5.58833 73.0383 5.555C72.9949 5.51833 72.9733 5.46667 72.9733 5.4V5.035H73.7733V4.545C73.7733 4.255 73.8133 3.99833 73.8933 3.775C73.9766 3.54833 74.0933 3.35833 74.2433 3.205C74.3966 3.04833 74.5799 2.93 74.7933 2.85C75.0066 2.77 75.2466 2.73 75.5133 2.73C75.7399 2.73 75.9483 2.76333 76.1383 2.83L76.1183 3.275C76.1116 3.355 76.0666 3.39833 75.9833 3.405C75.9033 3.41167 75.7949 3.415 75.6583 3.415C75.5049 3.415 75.3649 3.435 75.2383 3.475C75.1149 3.515 75.0083 3.58 74.9183 3.67C74.8283 3.76 74.7583 3.87833 74.7083 4.025C74.6616 4.17167 74.6383 4.35333 74.6383 4.57V5.035H76.0983V5.68H74.6683V10H73.7733ZM80.2422 2.635V10H79.3522V2.635H80.2422ZM82.6255 4.935V10H81.7355V4.935H82.6255ZM82.8155 3.345C82.8155 3.43167 82.7971 3.51333 82.7605 3.59C82.7271 3.66333 82.6805 3.73 82.6205 3.79C82.5638 3.84667 82.4955 3.89167 82.4155 3.925C82.3388 3.95833 82.2571 3.975 82.1705 3.975C82.0838 3.975 82.0021 3.95833 81.9255 3.925C81.8521 3.89167 81.7871 3.84667 81.7305 3.79C81.6738 3.73 81.6288 3.66333 81.5955 3.59C81.5621 3.51333 81.5455 3.43167 81.5455 3.345C81.5455 3.25833 81.5621 3.17667 81.5955 3.1C81.6288 3.02 81.6738 2.95167 81.7305 2.895C81.7871 2.835 81.8521 2.78833 81.9255 2.755C82.0021 2.72167 82.0838 2.705 82.1705 2.705C82.2571 2.705 82.3388 2.72167 82.4155 2.755C82.4955 2.78833 82.5638 2.835 82.6205 2.895C82.6805 2.95167 82.7271 3.02 82.7605 3.1C82.7971 3.17667 82.8155 3.25833 82.8155 3.345ZM87.0378 5.77C86.9978 5.84333 86.9361 5.88 86.8528 5.88C86.8028 5.88 86.7461 5.86167 86.6828 5.825C86.6195 5.78833 86.5411 5.74833 86.4478 5.705C86.3578 5.65833 86.2495 5.61667 86.1228 5.58C85.9961 5.54 85.8461 5.52 85.6728 5.52C85.5228 5.52 85.3878 5.54 85.2678 5.58C85.1478 5.61667 85.0445 5.66833 84.9578 5.735C84.8745 5.80167 84.8095 5.88 84.7628 5.97C84.7195 6.05667 84.6978 6.15167 84.6978 6.255C84.6978 6.385 84.7345 6.49333 84.8078 6.58C84.8845 6.66667 84.9845 6.74167 85.1078 6.805C85.2311 6.86833 85.3711 6.925 85.5278 6.975C85.6845 7.02167 85.8445 7.07333 86.0078 7.13C86.1745 7.18333 86.3361 7.24333 86.4928 7.31C86.6495 7.37667 86.7895 7.46 86.9128 7.56C87.0361 7.66 87.1345 7.78333 87.2078 7.93C87.2845 8.07333 87.3228 8.24667 87.3228 8.45C87.3228 8.68333 87.2811 8.9 87.1978 9.1C87.1145 9.29667 86.9911 9.46833 86.8278 9.615C86.6645 9.75833 86.4645 9.87167 86.2278 9.955C85.9911 10.0383 85.7178 10.08 85.4078 10.08C85.0545 10.08 84.7345 10.0233 84.4478 9.91C84.1611 9.79333 83.9178 9.645 83.7178 9.465L83.9278 9.125C83.9545 9.08167 83.9861 9.04833 84.0228 9.025C84.0595 9.00167 84.1061 8.99 84.1628 8.99C84.2228 8.99 84.2861 9.01333 84.3528 9.06C84.4195 9.10667 84.4995 9.15833 84.5928 9.215C84.6895 9.27167 84.8061 9.32333 84.9428 9.37C85.0795 9.41667 85.2495 9.44 85.4528 9.44C85.6261 9.44 85.7778 9.41833 85.9078 9.375C86.0378 9.32833 86.1461 9.26667 86.2328 9.19C86.3195 9.11333 86.3828 9.025 86.4228 8.925C86.4661 8.825 86.4878 8.71833 86.4878 8.605C86.4878 8.465 86.4495 8.35 86.3728 8.26C86.2995 8.16667 86.2011 8.08833 86.0778 8.025C85.9545 7.95833 85.8128 7.90167 85.6528 7.855C85.4961 7.805 85.3345 7.75333 85.1678 7.7C85.0045 7.64667 84.8428 7.58667 84.6828 7.52C84.5261 7.45 84.3861 7.36333 84.2628 7.26C84.1395 7.15667 84.0395 7.03 83.9628 6.88C83.8895 6.72667 83.8528 6.54167 83.8528 6.325C83.8528 6.13167 83.8928 5.94667 83.9728 5.77C84.0528 5.59 84.1695 5.43333 84.3228 5.3C84.4761 5.16333 84.6645 5.055 84.8878 4.975C85.1111 4.895 85.3661 4.855 85.6528 4.855C85.9861 4.855 86.2845 4.90833 86.5478 5.015C86.8145 5.11833 87.0445 5.26167 87.2378 5.445L87.0378 5.77ZM89.969 10.08C89.569 10.08 89.2607 9.96833 89.044 9.745C88.8307 9.52167 88.724 9.2 88.724 8.78V5.68H88.114C88.0607 5.68 88.0157 5.665 87.979 5.635C87.9423 5.60167 87.924 5.55167 87.924 5.485V5.13L88.754 5.025L88.959 3.46C88.969 3.41 88.9907 3.37 89.024 3.34C89.0607 3.30667 89.1073 3.29 89.164 3.29H89.614V5.035H91.079V5.68H89.614V8.72C89.614 8.93333 89.6657 9.09167 89.769 9.195C89.8723 9.29833 90.0057 9.35 90.169 9.35C90.2623 9.35 90.3423 9.33833 90.409 9.315C90.479 9.28833 90.539 9.26 90.589 9.23C90.639 9.2 90.6807 9.17333 90.714 9.15C90.7507 9.12333 90.7823 9.11 90.809 9.11C90.8557 9.11 90.8973 9.13833 90.934 9.195L91.194 9.62C91.0407 9.76333 90.8557 9.87667 90.639 9.96C90.4223 10.04 90.199 10.08 89.969 10.08ZM92.738 6.855C92.738 6.14167 92.6463 5.44833 92.463 4.775C92.283 4.10167 92.018 3.46167 91.668 2.855C91.6413 2.805 91.6246 2.76167 91.618 2.725C91.6113 2.685 91.613 2.65167 91.623 2.625C91.633 2.595 91.648 2.57 91.668 2.55C91.6913 2.52667 91.7163 2.50667 91.743 2.49L92.138 2.245C92.388 2.63167 92.5996 3.01333 92.773 3.39C92.9496 3.76667 93.0913 4.145 93.198 4.525C93.308 4.90167 93.388 5.28333 93.438 5.67C93.488 6.05667 93.513 6.45167 93.513 6.855C93.513 7.26167 93.488 7.65833 93.438 8.045C93.388 8.42833 93.308 8.81 93.198 9.19C93.0913 9.57 92.9496 9.94833 92.773 10.325C92.5996 10.7017 92.388 11.0817 92.138 11.465L91.743 11.225C91.7163 11.2083 91.6913 11.1883 91.668 11.165C91.648 11.145 91.633 11.12 91.623 11.09C91.613 11.0633 91.6113 11.03 91.618 10.99C91.6246 10.95 91.6413 10.905 91.668 10.855C92.018 10.2483 92.283 9.60833 92.463 8.935C92.6463 8.26167 92.738 7.56833 92.738 6.855Z" fill="#0B3AB5"/>
<path id="next pointer" d="M98.8673 73.67C98.9773 73.5467 99.0939 73.435 99.2173 73.335C99.3406 73.235 99.4706 73.15 99.6073 73.08C99.7473 73.0067 99.8939 72.9517 100.047 72.915C100.204 72.875 100.372 72.855 100.552 72.855C100.829 72.855 101.072 72.9017 101.282 72.995C101.496 73.085 101.672 73.215 101.812 73.385C101.956 73.5517 102.064 73.7533 102.137 73.99C102.211 74.2267 102.247 74.4883 102.247 74.775V78H101.352V74.775C101.352 74.3917 101.264 74.095 101.087 73.885C100.914 73.6717 100.649 73.565 100.292 73.565C100.029 73.565 99.7823 73.6283 99.5523 73.755C99.3256 73.8817 99.1156 74.0533 98.9223 74.27V78H98.0273V72.935H98.5623C98.6889 72.935 98.7673 72.9967 98.7973 73.12L98.8673 73.67ZM106.993 74.915C106.993 74.7083 106.963 74.52 106.903 74.35C106.847 74.1767 106.762 74.0283 106.648 73.905C106.538 73.7783 106.403 73.6817 106.243 73.615C106.083 73.545 105.902 73.51 105.698 73.51C105.272 73.51 104.933 73.635 104.683 73.885C104.437 74.1317 104.283 74.475 104.223 74.915H106.993ZM107.713 77.29C107.603 77.4233 107.472 77.54 107.318 77.64C107.165 77.7367 107 77.8167 106.823 77.88C106.65 77.9433 106.47 77.99 106.283 78.02C106.097 78.0533 105.912 78.07 105.728 78.07C105.378 78.07 105.055 78.0117 104.758 77.895C104.465 77.775 104.21 77.6017 103.993 77.375C103.78 77.145 103.613 76.8617 103.493 76.525C103.373 76.1883 103.313 75.8017 103.313 75.365C103.313 75.0117 103.367 74.6817 103.473 74.375C103.583 74.0683 103.74 73.8033 103.943 73.58C104.147 73.3533 104.395 73.1767 104.688 73.05C104.982 72.92 105.312 72.855 105.678 72.855C105.982 72.855 106.262 72.9067 106.518 73.01C106.778 73.11 107.002 73.2567 107.188 73.45C107.378 73.64 107.527 73.8767 107.633 74.16C107.74 74.44 107.793 74.76 107.793 75.12C107.793 75.26 107.778 75.3533 107.748 75.4C107.718 75.4467 107.662 75.47 107.578 75.47H104.193C104.203 75.79 104.247 76.0683 104.323 76.305C104.403 76.5417 104.513 76.74 104.653 76.9C104.793 77.0567 104.96 77.175 105.153 77.255C105.347 77.3317 105.563 77.37 105.803 77.37C106.027 77.37 106.218 77.345 106.378 77.295C106.542 77.2417 106.682 77.185 106.798 77.125C106.915 77.065 107.012 77.01 107.088 76.96C107.168 76.9067 107.237 76.88 107.293 76.88C107.367 76.88 107.423 76.9083 107.463 76.965L107.713 77.29ZM112.978 78H112.123C112.05 78 111.992 77.9817 111.948 77.945C111.908 77.905 111.875 77.8617 111.848 77.815L110.573 75.83C110.56 75.8767 110.545 75.9233 110.528 75.97C110.515 76.0133 110.495 76.0533 110.468 76.09L109.288 77.815C109.255 77.8617 109.218 77.905 109.178 77.945C109.142 77.9817 109.09 78 109.023 78H108.228L110.003 75.4L108.298 72.935H109.153C109.227 72.935 109.28 72.9467 109.313 72.97C109.347 72.9933 109.377 73.0267 109.403 73.07L110.648 74.97C110.675 74.8733 110.717 74.78 110.773 74.69L111.863 73.09C111.893 73.0433 111.925 73.0067 111.958 72.98C111.995 72.95 112.038 72.935 112.088 72.935H112.908L111.203 75.355L112.978 78ZM115.354 78.08C114.954 78.08 114.645 77.9683 114.429 77.745C114.215 77.5217 114.109 77.2 114.109 76.78V73.68H113.499C113.445 73.68 113.4 73.665 113.364 73.635C113.327 73.6017 113.309 73.5517 113.309 73.485V73.13L114.139 73.025L114.344 71.46C114.354 71.41 114.375 71.37 114.409 71.34C114.445 71.3067 114.492 71.29 114.549 71.29H114.999V73.035H116.464V73.68H114.999V76.72C114.999 76.9333 115.05 77.0917 115.154 77.195C115.257 77.2983 115.39 77.35 115.554 77.35C115.647 77.35 115.727 77.3383 115.794 77.315C115.864 77.2883 115.924 77.26 115.974 77.23C116.024 77.2 116.065 77.1733 116.099 77.15C116.135 77.1233 116.167 77.11 116.194 77.11C116.24 77.11 116.282 77.1383 116.319 77.195L116.579 77.62C116.425 77.7633 116.24 77.8767 116.024 77.96C115.807 78.04 115.584 78.08 115.354 78.08ZM92.765 88.78C92.9284 89 93.1067 89.155 93.3 89.245C93.4934 89.335 93.71 89.38 93.95 89.38C94.4234 89.38 94.7867 89.2117 95.04 88.875C95.2934 88.5383 95.42 88.0583 95.42 87.435C95.42 87.105 95.39 86.8217 95.33 86.585C95.2734 86.3483 95.19 86.155 95.08 86.005C94.97 85.8517 94.835 85.74 94.675 85.67C94.515 85.6 94.3334 85.565 94.13 85.565C93.84 85.565 93.585 85.6317 93.365 85.765C93.1484 85.8983 92.9484 86.0867 92.765 86.33V88.78ZM92.72 85.72C92.9334 85.4567 93.18 85.245 93.46 85.085C93.74 84.925 94.06 84.845 94.42 84.845C94.7134 84.845 94.9784 84.9017 95.215 85.015C95.4517 85.125 95.6534 85.29 95.82 85.51C95.9867 85.7267 96.115 85.9967 96.205 86.32C96.295 86.6433 96.34 87.015 96.34 87.435C96.34 87.8083 96.29 88.1567 96.19 88.48C96.09 88.8 95.945 89.0783 95.755 89.315C95.5684 89.5483 95.3384 89.7333 95.065 89.87C94.795 90.0033 94.49 90.07 94.15 90.07C93.84 90.07 93.5734 90.0183 93.35 89.915C93.13 89.8083 92.935 89.6617 92.765 89.475V91.715H91.87V84.935H92.405C92.5317 84.935 92.61 84.9967 92.64 85.12L92.72 85.72ZM99.6105 84.855C99.9805 84.855 100.314 84.9167 100.611 85.04C100.907 85.1633 101.161 85.3383 101.371 85.565C101.581 85.7917 101.741 86.0667 101.851 86.39C101.964 86.71 102.021 87.0683 102.021 87.465C102.021 87.865 101.964 88.225 101.851 88.545C101.741 88.865 101.581 89.1383 101.371 89.365C101.161 89.5917 100.907 89.7667 100.611 89.89C100.314 90.01 99.9805 90.07 99.6105 90.07C99.2372 90.07 98.9005 90.01 98.6005 89.89C98.3038 89.7667 98.0505 89.5917 97.8405 89.365C97.6305 89.1383 97.4688 88.865 97.3555 88.545C97.2455 88.225 97.1905 87.865 97.1905 87.465C97.1905 87.0683 97.2455 86.71 97.3555 86.39C97.4688 86.0667 97.6305 85.7917 97.8405 85.565C98.0505 85.3383 98.3038 85.1633 98.6005 85.04C98.9005 84.9167 99.2372 84.855 99.6105 84.855ZM99.6105 89.375C100.111 89.375 100.484 89.2083 100.731 88.875C100.977 88.5383 101.101 88.07 101.101 87.47C101.101 86.8667 100.977 86.3967 100.731 86.06C100.484 85.7233 100.111 85.555 99.6105 85.555C99.3572 85.555 99.1355 85.5983 98.9455 85.685C98.7588 85.7717 98.6022 85.8967 98.4755 86.06C98.3522 86.2233 98.2588 86.425 98.1955 86.665C98.1355 86.9017 98.1055 87.17 98.1055 87.47C98.1055 88.07 98.2288 88.5383 98.4755 88.875C98.7255 89.2083 99.1038 89.375 99.6105 89.375ZM104.089 84.935V90H103.199V84.935H104.089ZM104.279 83.345C104.279 83.4317 104.261 83.5133 104.224 83.59C104.191 83.6633 104.144 83.73 104.084 83.79C104.028 83.8467 103.959 83.8917 103.879 83.925C103.803 83.9583 103.721 83.975 103.634 83.975C103.548 83.975 103.466 83.9583 103.389 83.925C103.316 83.8917 103.251 83.8467 103.194 83.79C103.138 83.73 103.093 83.6633 103.059 83.59C103.026 83.5133 103.009 83.4317 103.009 83.345C103.009 83.2583 103.026 83.1767 103.059 83.1C103.093 83.02 103.138 82.9517 103.194 82.895C103.251 82.835 103.316 82.7883 103.389 82.755C103.466 82.7217 103.548 82.705 103.634 82.705C103.721 82.705 103.803 82.7217 103.879 82.755C103.959 82.7883 104.028 82.835 104.084 82.895C104.144 82.9517 104.191 83.02 104.224 83.1C104.261 83.1767 104.279 83.2583 104.279 83.345ZM106.392 85.67C106.502 85.5467 106.618 85.435 106.742 85.335C106.865 85.235 106.995 85.15 107.132 85.08C107.272 85.0067 107.418 84.9517 107.572 84.915C107.728 84.875 107.897 84.855 108.077 84.855C108.353 84.855 108.597 84.9017 108.807 84.995C109.02 85.085 109.197 85.215 109.337 85.385C109.48 85.5517 109.588 85.7533 109.662 85.99C109.735 86.2267 109.772 86.4883 109.772 86.775V90H108.877V86.775C108.877 86.3917 108.788 86.095 108.612 85.885C108.438 85.6717 108.173 85.565 107.817 85.565C107.553 85.565 107.307 85.6283 107.077 85.755C106.85 85.8817 106.64 86.0533 106.447 86.27V90H105.552V84.935H106.087C106.213 84.935 106.292 84.9967 106.322 85.12L106.392 85.67ZM112.614 90.08C112.214 90.08 111.906 89.9683 111.689 89.745C111.476 89.5217 111.369 89.2 111.369 88.78V85.68H110.759C110.706 85.68 110.661 85.665 110.624 85.635C110.588 85.6017 110.569 85.5517 110.569 85.485V85.13L111.399 85.025L111.604 83.46C111.614 83.41 111.636 83.37 111.669 83.34C111.706 83.3067 111.753 83.29 111.809 83.29H112.259V85.035H113.724V85.68H112.259V88.72C112.259 88.9333 112.311 89.0917 112.414 89.195C112.518 89.2983 112.651 89.35 112.814 89.35C112.908 89.35 112.988 89.3383 113.054 89.315C113.124 89.2883 113.184 89.26 113.234 89.23C113.284 89.2 113.326 89.1733 113.359 89.15C113.396 89.1233 113.428 89.11 113.454 89.11C113.501 89.11 113.543 89.1383 113.579 89.195L113.839 89.62C113.686 89.7633 113.501 89.8767 113.284 89.96C113.068 90.04 112.844 90.08 112.614 90.08ZM118.004 86.915C118.004 86.7083 117.974 86.52 117.914 86.35C117.858 86.1767 117.773 86.0283 117.659 85.905C117.549 85.7783 117.414 85.6817 117.254 85.615C117.094 85.545 116.913 85.51 116.709 85.51C116.283 85.51 115.944 85.635 115.694 85.885C115.448 86.1317 115.294 86.475 115.234 86.915H118.004ZM118.724 89.29C118.614 89.4233 118.483 89.54 118.329 89.64C118.176 89.7367 118.011 89.8167 117.834 89.88C117.661 89.9433 117.481 89.99 117.294 90.02C117.108 90.0533 116.923 90.07 116.739 90.07C116.389 90.07 116.066 90.0117 115.769 89.895C115.476 89.775 115.221 89.6017 115.004 89.375C114.791 89.145 114.624 88.8617 114.504 88.525C114.384 88.1883 114.324 87.8017 114.324 87.365C114.324 87.0117 114.378 86.6817 114.484 86.375C114.594 86.0683 114.751 85.8033 114.954 85.58C115.158 85.3533 115.406 85.1767 115.699 85.05C115.993 84.92 116.323 84.855 116.689 84.855C116.993 84.855 117.273 84.9067 117.529 85.01C117.789 85.11 118.013 85.2567 118.199 85.45C118.389 85.64 118.538 85.8767 118.644 86.16C118.751 86.44 118.804 86.76 118.804 87.12C118.804 87.26 118.789 87.3533 118.759 87.4C118.729 87.4467 118.673 87.47 118.589 87.47H115.204C115.214 87.79 115.258 88.0683 115.334 88.305C115.414 88.5417 115.524 88.74 115.664 88.9C115.804 89.0567 115.971 89.175 116.164 89.255C116.358 89.3317 116.574 89.37 116.814 89.37C117.038 89.37 117.229 89.345 117.389 89.295C117.553 89.2417 117.693 89.185 117.809 89.125C117.926 89.065 118.023 89.01 118.099 88.96C118.179 88.9067 118.248 88.88 118.304 88.88C118.378 88.88 118.434 88.9083 118.474 88.965L118.724 89.29ZM120.742 85.95C120.902 85.6033 121.099 85.3333 121.332 85.14C121.566 84.9433 121.851 84.845 122.187 84.845C122.294 84.845 122.396 84.8567 122.492 84.88C122.592 84.9033 122.681 84.94 122.757 84.99L122.692 85.655C122.672 85.7383 122.622 85.78 122.542 85.78C122.496 85.78 122.427 85.77 122.337 85.75C122.247 85.73 122.146 85.72 122.032 85.72C121.872 85.72 121.729 85.7433 121.602 85.79C121.479 85.8367 121.367 85.9067 121.267 86C121.171 86.09 121.082 86.2033 121.002 86.34C120.926 86.4733 120.856 86.6267 120.792 86.8V90H119.897V84.935H120.407C120.504 84.935 120.571 84.9533 120.607 84.99C120.644 85.0267 120.669 85.09 120.682 85.18L120.742 85.95Z" fill="#D90D0D"/>
<path id="Arrow 7" d="M109.354 44.6464C109.158 44.4512 108.842 44.4512 108.646 44.6464L105.464 47.8284C105.269 48.0237 105.269 48.3403 105.464 48.5355C105.66 48.7308 105.976 48.7308 106.172 48.5355L109 45.7071L111.828 48.5355C112.024 48.7308 112.34 48.7308 112.536 48.5355C112.731 48.3403 112.731 48.0237 112.536 47.8284L109.354 44.6464ZM109.5 68L109.5 45L108.5 45L108.5 68L109.5 68Z" fill="#D90D0D"/>
<path id="next pointer_2" d="M162.367 72.67C162.477 72.5467 162.594 72.435 162.717 72.335C162.841 72.235 162.971 72.15 163.107 72.08C163.247 72.0067 163.394 71.9517 163.547 71.915C163.704 71.875 163.872 71.855 164.052 71.855C164.329 71.855 164.572 71.9017 164.782 71.995C164.996 72.085 165.172 72.215 165.312 72.385C165.456 72.5517 165.564 72.7533 165.637 72.99C165.711 73.2267 165.747 73.4883 165.747 73.775V77H164.852V73.775C164.852 73.3917 164.764 73.095 164.587 72.885C164.414 72.6717 164.149 72.565 163.792 72.565C163.529 72.565 163.282 72.6283 163.052 72.755C162.826 72.8817 162.616 73.0533 162.422 73.27V77H161.527V71.935H162.062C162.189 71.935 162.267 71.9967 162.297 72.12L162.367 72.67ZM170.493 73.915C170.493 73.7083 170.463 73.52 170.403 73.35C170.347 73.1767 170.262 73.0283 170.148 72.905C170.038 72.7783 169.903 72.6817 169.743 72.615C169.583 72.545 169.402 72.51 169.198 72.51C168.772 72.51 168.433 72.635 168.183 72.885C167.937 73.1317 167.783 73.475 167.723 73.915H170.493ZM171.213 76.29C171.103 76.4233 170.972 76.54 170.818 76.64C170.665 76.7367 170.5 76.8167 170.323 76.88C170.15 76.9433 169.97 76.99 169.783 77.02C169.597 77.0533 169.412 77.07 169.228 77.07C168.878 77.07 168.555 77.0117 168.258 76.895C167.965 76.775 167.71 76.6017 167.493 76.375C167.28 76.145 167.113 75.8617 166.993 75.525C166.873 75.1883 166.813 74.8017 166.813 74.365C166.813 74.0117 166.867 73.6817 166.973 73.375C167.083 73.0683 167.24 72.8033 167.443 72.58C167.647 72.3533 167.895 72.1767 168.188 72.05C168.482 71.92 168.812 71.855 169.178 71.855C169.482 71.855 169.762 71.9067 170.018 72.01C170.278 72.11 170.502 72.2567 170.688 72.45C170.878 72.64 171.027 72.8767 171.133 73.16C171.24 73.44 171.293 73.76 171.293 74.12C171.293 74.26 171.278 74.3533 171.248 74.4C171.218 74.4467 171.162 74.47 171.078 74.47H167.693C167.703 74.79 167.747 75.0683 167.823 75.305C167.903 75.5417 168.013 75.74 168.153 75.9C168.293 76.0567 168.46 76.175 168.653 76.255C168.847 76.3317 169.063 76.37 169.303 76.37C169.527 76.37 169.718 76.345 169.878 76.295C170.042 76.2417 170.182 76.185 170.298 76.125C170.415 76.065 170.512 76.01 170.588 75.96C170.668 75.9067 170.737 75.88 170.793 75.88C170.867 75.88 170.923 75.9083 170.963 75.965L171.213 76.29ZM176.478 77H175.623C175.55 77 175.492 76.9817 175.448 76.945C175.408 76.905 175.375 76.8617 175.348 76.815L174.073 74.83C174.06 74.8767 174.045 74.9233 174.028 74.97C174.015 75.0133 173.995 75.0533 173.968 75.09L172.788 76.815C172.755 76.8617 172.718 76.905 172.678 76.945C172.642 76.9817 172.59 77 172.523 77H171.728L173.503 74.4L171.798 71.935H172.653C172.727 71.935 172.78 71.9467 172.813 71.97C172.847 71.9933 172.877 72.0267 172.903 72.07L174.148 73.97C174.175 73.8733 174.217 73.78 174.273 73.69L175.363 72.09C175.393 72.0433 175.425 72.0067 175.458 71.98C175.495 71.95 175.538 71.935 175.588 71.935H176.408L174.703 74.355L176.478 77ZM178.854 77.08C178.454 77.08 178.145 76.9683 177.929 76.745C177.715 76.5217 177.609 76.2 177.609 75.78V72.68H176.999C176.945 72.68 176.9 72.665 176.864 72.635C176.827 72.6017 176.809 72.5517 176.809 72.485V72.13L177.639 72.025L177.844 70.46C177.854 70.41 177.875 70.37 177.909 70.34C177.945 70.3067 177.992 70.29 178.049 70.29H178.499V72.035H179.964V72.68H178.499V75.72C178.499 75.9333 178.55 76.0917 178.654 76.195C178.757 76.2983 178.89 76.35 179.054 76.35C179.147 76.35 179.227 76.3383 179.294 76.315C179.364 76.2883 179.424 76.26 179.474 76.23C179.524 76.2 179.565 76.1733 179.599 76.15C179.635 76.1233 179.667 76.11 179.694 76.11C179.74 76.11 179.782 76.1383 179.819 76.195L180.079 76.62C179.925 76.7633 179.74 76.8767 179.524 76.96C179.307 77.04 179.084 77.08 178.854 77.08ZM156.265 87.78C156.428 88 156.607 88.155 156.8 88.245C156.993 88.335 157.21 88.38 157.45 88.38C157.923 88.38 158.287 88.2117 158.54 87.875C158.793 87.5383 158.92 87.0583 158.92 86.435C158.92 86.105 158.89 85.8217 158.83 85.585C158.773 85.3483 158.69 85.155 158.58 85.005C158.47 84.8517 158.335 84.74 158.175 84.67C158.015 84.6 157.833 84.565 157.63 84.565C157.34 84.565 157.085 84.6317 156.865 84.765C156.648 84.8983 156.448 85.0867 156.265 85.33V87.78ZM156.22 84.72C156.433 84.4567 156.68 84.245 156.96 84.085C157.24 83.925 157.56 83.845 157.92 83.845C158.213 83.845 158.478 83.9017 158.715 84.015C158.952 84.125 159.153 84.29 159.32 84.51C159.487 84.7267 159.615 84.9967 159.705 85.32C159.795 85.6433 159.84 86.015 159.84 86.435C159.84 86.8083 159.79 87.1567 159.69 87.48C159.59 87.8 159.445 88.0783 159.255 88.315C159.068 88.5483 158.838 88.7333 158.565 88.87C158.295 89.0033 157.99 89.07 157.65 89.07C157.34 89.07 157.073 89.0183 156.85 88.915C156.63 88.8083 156.435 88.6617 156.265 88.475V90.715H155.37V83.935H155.905C156.032 83.935 156.11 83.9967 156.14 84.12L156.22 84.72ZM163.111 83.855C163.481 83.855 163.814 83.9167 164.111 84.04C164.407 84.1633 164.661 84.3383 164.871 84.565C165.081 84.7917 165.241 85.0667 165.351 85.39C165.464 85.71 165.521 86.0683 165.521 86.465C165.521 86.865 165.464 87.225 165.351 87.545C165.241 87.865 165.081 88.1383 164.871 88.365C164.661 88.5917 164.407 88.7667 164.111 88.89C163.814 89.01 163.481 89.07 163.111 89.07C162.737 89.07 162.401 89.01 162.101 88.89C161.804 88.7667 161.551 88.5917 161.341 88.365C161.131 88.1383 160.969 87.865 160.856 87.545C160.746 87.225 160.691 86.865 160.691 86.465C160.691 86.0683 160.746 85.71 160.856 85.39C160.969 85.0667 161.131 84.7917 161.341 84.565C161.551 84.3383 161.804 84.1633 162.101 84.04C162.401 83.9167 162.737 83.855 163.111 83.855ZM163.111 88.375C163.611 88.375 163.984 88.2083 164.231 87.875C164.477 87.5383 164.601 87.07 164.601 86.47C164.601 85.8667 164.477 85.3967 164.231 85.06C163.984 84.7233 163.611 84.555 163.111 84.555C162.857 84.555 162.636 84.5983 162.446 84.685C162.259 84.7717 162.102 84.8967 161.976 85.06C161.852 85.2233 161.759 85.425 161.696 85.665C161.636 85.9017 161.606 86.17 161.606 86.47C161.606 87.07 161.729 87.5383 161.976 87.875C162.226 88.2083 162.604 88.375 163.111 88.375ZM167.589 83.935V89H166.699V83.935H167.589ZM167.779 82.345C167.779 82.4317 167.761 82.5133 167.724 82.59C167.691 82.6633 167.644 82.73 167.584 82.79C167.528 82.8467 167.459 82.8917 167.379 82.925C167.303 82.9583 167.221 82.975 167.134 82.975C167.048 82.975 166.966 82.9583 166.889 82.925C166.816 82.8917 166.751 82.8467 166.694 82.79C166.638 82.73 166.593 82.6633 166.559 82.59C166.526 82.5133 166.509 82.4317 166.509 82.345C166.509 82.2583 166.526 82.1767 166.559 82.1C166.593 82.02 166.638 81.9517 166.694 81.895C166.751 81.835 166.816 81.7883 166.889 81.755C166.966 81.7217 167.048 81.705 167.134 81.705C167.221 81.705 167.303 81.7217 167.379 81.755C167.459 81.7883 167.528 81.835 167.584 81.895C167.644 81.9517 167.691 82.02 167.724 82.1C167.761 82.1767 167.779 82.2583 167.779 82.345ZM169.892 84.67C170.002 84.5467 170.118 84.435 170.242 84.335C170.365 84.235 170.495 84.15 170.632 84.08C170.772 84.0067 170.918 83.9517 171.072 83.915C171.228 83.875 171.397 83.855 171.577 83.855C171.853 83.855 172.097 83.9017 172.307 83.995C172.52 84.085 172.697 84.215 172.837 84.385C172.98 84.5517 173.088 84.7533 173.162 84.99C173.235 85.2267 173.272 85.4883 173.272 85.775V89H172.377V85.775C172.377 85.3917 172.288 85.095 172.112 84.885C171.938 84.6717 171.673 84.565 171.317 84.565C171.053 84.565 170.807 84.6283 170.577 84.755C170.35 84.8817 170.14 85.0533 169.947 85.27V89H169.052V83.935H169.587C169.713 83.935 169.792 83.9967 169.822 84.12L169.892 84.67ZM176.114 89.08C175.714 89.08 175.406 88.9683 175.189 88.745C174.976 88.5217 174.869 88.2 174.869 87.78V84.68H174.259C174.206 84.68 174.161 84.665 174.124 84.635C174.088 84.6017 174.069 84.5517 174.069 84.485V84.13L174.899 84.025L175.104 82.46C175.114 82.41 175.136 82.37 175.169 82.34C175.206 82.3067 175.253 82.29 175.309 82.29H175.759V84.035H177.224V84.68H175.759V87.72C175.759 87.9333 175.811 88.0917 175.914 88.195C176.018 88.2983 176.151 88.35 176.314 88.35C176.408 88.35 176.488 88.3383 176.554 88.315C176.624 88.2883 176.684 88.26 176.734 88.23C176.784 88.2 176.826 88.1733 176.859 88.15C176.896 88.1233 176.928 88.11 176.954 88.11C177.001 88.11 177.043 88.1383 177.079 88.195L177.339 88.62C177.186 88.7633 177.001 88.8767 176.784 88.96C176.568 89.04 176.344 89.08 176.114 89.08ZM181.504 85.915C181.504 85.7083 181.474 85.52 181.414 85.35C181.358 85.1767 181.273 85.0283 181.159 84.905C181.049 84.7783 180.914 84.6817 180.754 84.615C180.594 84.545 180.413 84.51 180.209 84.51C179.783 84.51 179.444 84.635 179.194 84.885C178.948 85.1317 178.794 85.475 178.734 85.915H181.504ZM182.224 88.29C182.114 88.4233 181.983 88.54 181.829 88.64C181.676 88.7367 181.511 88.8167 181.334 88.88C181.161 88.9433 180.981 88.99 180.794 89.02C180.608 89.0533 180.423 89.07 180.239 89.07C179.889 89.07 179.566 89.0117 179.269 88.895C178.976 88.775 178.721 88.6017 178.504 88.375C178.291 88.145 178.124 87.8617 178.004 87.525C177.884 87.1883 177.824 86.8017 177.824 86.365C177.824 86.0117 177.878 85.6817 177.984 85.375C178.094 85.0683 178.251 84.8033 178.454 84.58C178.658 84.3533 178.906 84.1767 179.199 84.05C179.493 83.92 179.823 83.855 180.189 83.855C180.493 83.855 180.773 83.9067 181.029 84.01C181.289 84.11 181.513 84.2567 181.699 84.45C181.889 84.64 182.038 84.8767 182.144 85.16C182.251 85.44 182.304 85.76 182.304 86.12C182.304 86.26 182.289 86.3533 182.259 86.4C182.229 86.4467 182.173 86.47 182.089 86.47H178.704C178.714 86.79 178.758 87.0683 178.834 87.305C178.914 87.5417 179.024 87.74 179.164 87.9C179.304 88.0567 179.471 88.175 179.664 88.255C179.858 88.3317 180.074 88.37 180.314 88.37C180.538 88.37 180.729 88.345 180.889 88.295C181.053 88.2417 181.193 88.185 181.309 88.125C181.426 88.065 181.523 88.01 181.599 87.96C181.679 87.9067 181.748 87.88 181.804 87.88C181.878 87.88 181.934 87.9083 181.974 87.965L182.224 88.29ZM184.242 84.95C184.402 84.6033 184.599 84.3333 184.832 84.14C185.066 83.9433 185.351 83.845 185.687 83.845C185.794 83.845 185.896 83.8567 185.992 83.88C186.092 83.9033 186.181 83.94 186.257 83.99L186.192 84.655C186.172 84.7383 186.122 84.78 186.042 84.78C185.996 84.78 185.927 84.77 185.837 84.75C185.747 84.73 185.646 84.72 185.532 84.72C185.372 84.72 185.229 84.7433 185.102 84.79C184.979 84.8367 184.867 84.9067 184.767 85C184.671 85.09 184.582 85.2033 184.502 85.34C184.426 85.4733 184.356 85.6267 184.292 85.8V89H183.397V83.935H183.907C184.004 83.935 184.071 83.9533 184.107 83.99C184.144 84.0267 184.169 84.09 184.182 84.18L184.242 84.95Z" fill="#D90D0D"/>
<path id="Arrow 8" d="M170.354 43.6464C170.158 43.4512 169.842 43.4512 169.646 43.6464L166.464 46.8284C166.269 47.0237 166.269 47.3403 166.464 47.5355C166.66 47.7308 166.976 47.7308 167.172 47.5355L170 44.7071L172.828 47.5355C173.024 47.7308 173.34 47.7308 173.536 47.5355C173.731 47.3403 173.731 47.0237 173.536 46.8284L170.354 43.6464ZM170.5 67L170.5 44L169.5 44L169.5 67L170.5 67Z" fill="#D90D0D"/>
<path id="null" d="M248.606 40.67C248.716 40.5467 248.832 40.435 248.956 40.335C249.079 40.235 249.209 40.15 249.346 40.08C249.486 40.0067 249.632 39.9517 249.786 39.915C249.942 39.875 250.111 39.855 250.291 39.855C250.567 39.855 250.811 39.9017 251.021 39.995C251.234 40.085 251.411 40.215 251.551 40.385C251.694 40.5517 251.802 40.7533 251.876 40.99C251.949 41.2267 251.986 41.4883 251.986 41.775V45H251.091V41.775C251.091 41.3917 251.002 41.095 250.826 40.885C250.652 40.6717 250.387 40.565 250.031 40.565C249.767 40.565 249.521 40.6283 249.291 40.755C249.064 40.8817 248.854 41.0533 248.661 41.27V45H247.766V39.935H248.301C248.427 39.935 248.506 39.9967 248.536 40.12L248.606 40.67ZM257.507 39.935V45H256.977C256.85 45 256.77 44.9383 256.737 44.815L256.667 44.27C256.447 44.5133 256.2 44.71 255.927 44.86C255.653 45.0067 255.34 45.08 254.987 45.08C254.71 45.08 254.465 45.035 254.252 44.945C254.042 44.8517 253.865 44.7217 253.722 44.555C253.578 44.3883 253.47 44.1867 253.397 43.95C253.327 43.7133 253.292 43.4517 253.292 43.165V39.935H254.182V43.165C254.182 43.5483 254.268 43.845 254.442 44.055C254.618 44.265 254.887 44.37 255.247 44.37C255.51 44.37 255.755 44.3083 255.982 44.185C256.212 44.0583 256.423 43.885 256.617 43.665V39.935H257.507ZM259.838 37.635V45H258.948V37.635H259.838ZM262.201 37.635V45H261.311V37.635H262.201Z" fill="black"/>
<path id="Arrow 6" d="M209.5 24.9999C209.5 25.2761 209.724 25.4999 210 25.4999L214.5 25.4999C214.776 25.4999 215 25.2761 215 24.9999C215 24.7238 214.776 24.4999 214.5 24.4999L210.5 24.4999L210.5 20.4999C210.5 20.2238 210.276 19.9999 210 19.9999C209.724 19.9999 209.5 20.2238 209.5 20.4999L209.5 24.9999ZM221.646 12.6464L209.646 24.6464L210.354 25.3535L222.354 13.3535L221.646 12.6464Z" fill="#0B3AB5"/>
<path id="tail (end of list)" d="M197.239 10.08C196.839 10.08 196.53 9.96833 196.314 9.745C196.1 9.52167 195.994 9.2 195.994 8.78V5.68H195.384C195.33 5.68 195.285 5.665 195.249 5.635C195.212 5.60167 195.194 5.55167 195.194 5.485V5.13L196.024 5.025L196.229 3.46C196.239 3.41 196.26 3.37 196.294 3.34C196.33 3.30667 196.377 3.29 196.434 3.29H196.884V5.035H198.349V5.68H196.884V8.72C196.884 8.93333 196.935 9.09167 197.039 9.195C197.142 9.29833 197.275 9.35 197.439 9.35C197.532 9.35 197.612 9.33833 197.679 9.315C197.749 9.28833 197.809 9.26 197.859 9.23C197.909 9.2 197.95 9.17333 197.984 9.15C198.02 9.12333 198.052 9.11 198.079 9.11C198.125 9.11 198.167 9.13833 198.204 9.195L198.464 9.62C198.31 9.76333 198.125 9.87667 197.909 9.96C197.692 10.04 197.469 10.08 197.239 10.08ZM202.013 7.72C201.603 7.73333 201.253 7.76667 200.963 7.82C200.676 7.87 200.441 7.93667 200.258 8.02C200.078 8.10333 199.946 8.20167 199.863 8.315C199.783 8.42833 199.743 8.555 199.743 8.695C199.743 8.82833 199.764 8.94333 199.808 9.04C199.851 9.13667 199.909 9.21667 199.983 9.28C200.059 9.34 200.148 9.385 200.248 9.415C200.351 9.44167 200.461 9.455 200.578 9.455C200.734 9.455 200.878 9.44 201.008 9.41C201.138 9.37667 201.259 9.33 201.373 9.27C201.489 9.21 201.599 9.13833 201.703 9.055C201.809 8.97167 201.913 8.87667 202.013 8.77V7.72ZM199.138 5.65C199.418 5.38 199.719 5.17833 200.043 5.045C200.366 4.91167 200.724 4.845 201.118 4.845C201.401 4.845 201.653 4.89167 201.873 4.985C202.093 5.07833 202.278 5.20833 202.428 5.375C202.578 5.54167 202.691 5.74333 202.768 5.98C202.844 6.21667 202.883 6.47667 202.883 6.76V10H202.488C202.401 10 202.334 9.98667 202.288 9.96C202.241 9.93 202.204 9.87333 202.178 9.79L202.078 9.31C201.944 9.43333 201.814 9.54333 201.688 9.64C201.561 9.73333 201.428 9.81333 201.288 9.88C201.148 9.94333 200.998 9.99167 200.838 10.025C200.681 10.0617 200.506 10.08 200.313 10.08C200.116 10.08 199.931 10.0533 199.758 10C199.584 9.94333 199.433 9.86 199.303 9.75C199.176 9.64 199.074 9.50167 198.998 9.335C198.924 9.165 198.888 8.965 198.888 8.735C198.888 8.535 198.943 8.34333 199.053 8.16C199.163 7.97333 199.341 7.80833 199.588 7.665C199.834 7.52167 200.156 7.405 200.553 7.315C200.949 7.22167 201.436 7.16833 202.013 7.155V6.76C202.013 6.36667 201.928 6.07 201.758 5.87C201.588 5.66667 201.339 5.565 201.013 5.565C200.793 5.565 200.608 5.59333 200.458 5.65C200.311 5.70333 200.183 5.765 200.073 5.835C199.966 5.90167 199.873 5.96333 199.793 6.02C199.716 6.07333 199.639 6.1 199.563 6.1C199.503 6.1 199.451 6.085 199.408 6.055C199.364 6.02167 199.328 5.98167 199.297 5.935L199.138 5.65ZM205.178 4.935V10H204.288V4.935H205.178ZM205.368 3.345C205.368 3.43167 205.35 3.51333 205.313 3.59C205.28 3.66333 205.233 3.73 205.173 3.79C205.117 3.84667 205.048 3.89167 204.968 3.925C204.892 3.95833 204.81 3.975 204.723 3.975C204.637 3.975 204.555 3.95833 204.478 3.925C204.405 3.89167 204.34 3.84667 204.283 3.79C204.227 3.73 204.182 3.66333 204.148 3.59C204.115 3.51333 204.098 3.43167 204.098 3.345C204.098 3.25833 204.115 3.17667 204.148 3.1C204.182 3.02 204.227 2.95167 204.283 2.895C204.34 2.835 204.405 2.78833 204.478 2.755C204.555 2.72167 204.637 2.705 204.723 2.705C204.81 2.705 204.892 2.72167 204.968 2.755C205.048 2.78833 205.117 2.835 205.173 2.895C205.233 2.95167 205.28 3.02 205.313 3.1C205.35 3.17667 205.368 3.25833 205.368 3.345ZM207.561 2.635V10H206.671V2.635H207.561ZM212.082 6.855C212.082 7.56833 212.172 8.26167 212.352 8.935C212.536 9.60833 212.802 10.2483 213.152 10.855C213.206 10.9583 213.219 11.0367 213.192 11.09C213.166 11.1467 213.127 11.1917 213.077 11.225L212.682 11.465C212.432 11.0817 212.219 10.7017 212.042 10.325C211.869 9.94833 211.727 9.57 211.617 9.19C211.511 8.81 211.432 8.42833 211.382 8.045C211.332 7.65833 211.307 7.26167 211.307 6.855C211.307 6.45167 211.332 6.05667 211.382 5.67C211.432 5.28333 211.511 4.90167 211.617 4.525C211.727 4.145 211.869 3.76667 212.042 3.39C212.219 3.01333 212.432 2.63167 212.682 2.245L213.077 2.49C213.127 2.52333 213.166 2.56833 213.192 2.625C213.219 2.67833 213.206 2.755 213.152 2.855C212.802 3.46167 212.536 4.10167 212.352 4.775C212.172 5.44833 212.082 6.14167 212.082 6.855ZM217.316 6.915C217.316 6.70833 217.286 6.52 217.226 6.35C217.169 6.17667 217.084 6.02833 216.971 5.905C216.861 5.77833 216.726 5.68167 216.566 5.615C216.406 5.545 216.224 5.51 216.021 5.51C215.594 5.51 215.256 5.635 215.006 5.885C214.759 6.13167 214.606 6.475 214.546 6.915H217.316ZM218.036 9.29C217.926 9.42333 217.794 9.54 217.641 9.64C217.487 9.73667 217.322 9.81667 217.146 9.88C216.972 9.94333 216.792 9.99 216.606 10.02C216.419 10.0533 216.234 10.07 216.051 10.07C215.701 10.07 215.377 10.0117 215.081 9.895C214.787 9.775 214.532 9.60167 214.316 9.375C214.102 9.145 213.936 8.86167 213.816 8.525C213.696 8.18833 213.636 7.80167 213.636 7.365C213.636 7.01167 213.689 6.68167 213.796 6.375C213.906 6.06833 214.062 5.80333 214.266 5.58C214.469 5.35333 214.717 5.17667 215.011 5.05C215.304 4.92 215.634 4.855 216.001 4.855C216.304 4.855 216.584 4.90667 216.841 5.01C217.101 5.11 217.324 5.25667 217.511 5.45C217.701 5.64 217.849 5.87667 217.956 6.16C218.062 6.44 218.116 6.76 218.116 7.12C218.116 7.26 218.101 7.35333 218.071 7.4C218.041 7.44667 217.984 7.47 217.901 7.47H214.516C214.526 7.79 214.569 8.06833 214.646 8.305C214.726 8.54167 214.836 8.74 214.976 8.9C215.116 9.05667 215.282 9.175 215.476 9.255C215.669 9.33167 215.886 9.37 216.126 9.37C216.349 9.37 216.541 9.345 216.701 9.295C216.864 9.24167 217.004 9.185 217.121 9.125C217.237 9.065 217.334 9.01 217.411 8.96C217.491 8.90667 217.559 8.88 217.616 8.88C217.689 8.88 217.746 8.90833 217.786 8.965L218.036 9.29ZM220.049 5.67C220.159 5.54667 220.276 5.435 220.399 5.335C220.522 5.235 220.652 5.15 220.789 5.08C220.929 5.00667 221.076 4.95167 221.229 4.915C221.386 4.875 221.554 4.855 221.734 4.855C222.011 4.855 222.254 4.90167 222.464 4.995C222.677 5.085 222.854 5.215 222.994 5.385C223.137 5.55167 223.246 5.75333 223.319 5.99C223.392 6.22667 223.429 6.48833 223.429 6.775V10H222.534V6.775C222.534 6.39167 222.446 6.095 222.269 5.885C222.096 5.67167 221.831 5.565 221.474 5.565C221.211 5.565 220.964 5.62833 220.734 5.755C220.507 5.88167 220.297 6.05333 220.104 6.27V10H219.209V4.935H219.744C219.871 4.935 219.949 4.99667 219.979 5.12L220.049 5.67ZM228.085 6.14C227.918 5.91667 227.738 5.76167 227.545 5.675C227.352 5.585 227.135 5.54 226.895 5.54C226.425 5.54 226.063 5.70833 225.81 6.045C225.557 6.38167 225.43 6.86167 225.43 7.485C225.43 7.815 225.458 8.09833 225.515 8.335C225.572 8.56833 225.655 8.76167 225.765 8.915C225.875 9.065 226.01 9.175 226.17 9.245C226.33 9.315 226.512 9.35 226.715 9.35C227.008 9.35 227.263 9.28333 227.48 9.15C227.7 9.01667 227.902 8.82833 228.085 8.585V6.14ZM228.975 2.635V10H228.445C228.318 10 228.238 9.93833 228.205 9.815L228.125 9.2C227.908 9.46 227.662 9.67 227.385 9.83C227.108 9.99 226.788 10.07 226.425 10.07C226.135 10.07 225.872 10.015 225.635 9.905C225.398 9.79167 225.197 9.62667 225.03 9.41C224.863 9.19333 224.735 8.92333 224.645 8.6C224.555 8.27667 224.51 7.905 224.51 7.485C224.51 7.11167 224.56 6.765 224.66 6.445C224.76 6.12167 224.903 5.84167 225.09 5.605C225.277 5.36833 225.505 5.18333 225.775 5.05C226.048 4.91333 226.355 4.845 226.695 4.845C227.005 4.845 227.27 4.89833 227.49 5.005C227.713 5.10833 227.912 5.25333 228.085 5.44V2.635H228.975ZM235.074 4.855C235.444 4.855 235.778 4.91667 236.074 5.04C236.371 5.16333 236.624 5.33833 236.834 5.565C237.044 5.79167 237.204 6.06667 237.314 6.39C237.428 6.71 237.484 7.06833 237.484 7.465C237.484 7.865 237.428 8.225 237.314 8.545C237.204 8.865 237.044 9.13833 236.834 9.365C236.624 9.59167 236.371 9.76667 236.074 9.89C235.778 10.01 235.444 10.07 235.074 10.07C234.701 10.07 234.364 10.01 234.064 9.89C233.768 9.76667 233.514 9.59167 233.304 9.365C233.094 9.13833 232.933 8.865 232.819 8.545C232.709 8.225 232.654 7.865 232.654 7.465C232.654 7.06833 232.709 6.71 232.819 6.39C232.933 6.06667 233.094 5.79167 233.304 5.565C233.514 5.33833 233.768 5.16333 234.064 5.04C234.364 4.91667 234.701 4.855 235.074 4.855ZM235.074 9.375C235.574 9.375 235.948 9.20833 236.194 8.875C236.441 8.53833 236.564 8.07 236.564 7.47C236.564 6.86667 236.441 6.39667 236.194 6.06C235.948 5.72333 235.574 5.555 235.074 5.555C234.821 5.555 234.599 5.59833 234.409 5.685C234.223 5.77167 234.066 5.89667 233.939 6.06C233.816 6.22333 233.723 6.425 233.659 6.665C233.599 6.90167 233.569 7.17 233.569 7.47C233.569 8.07 233.693 8.53833 233.939 8.875C234.189 9.20833 234.568 9.375 235.074 9.375ZM238.836 10V5.695L238.276 5.63C238.206 5.61333 238.147 5.58833 238.101 5.555C238.057 5.51833 238.036 5.46667 238.036 5.4V5.035H238.836V4.545C238.836 4.255 238.876 3.99833 238.956 3.775C239.039 3.54833 239.156 3.35833 239.306 3.205C239.459 3.04833 239.642 2.93 239.856 2.85C240.069 2.77 240.309 2.73 240.576 2.73C240.802 2.73 241.011 2.76333 241.201 2.83L241.181 3.275C241.174 3.355 241.129 3.39833 241.046 3.405C240.966 3.41167 240.857 3.415 240.721 3.415C240.567 3.415 240.427 3.435 240.301 3.475C240.177 3.515 240.071 3.58 239.981 3.67C239.891 3.76 239.821 3.87833 239.771 4.025C239.724 4.17167 239.701 4.35333 239.701 4.57V5.035H241.161V5.68H239.731V10H238.836ZM245.305 2.635V10H244.415V2.635H245.305ZM247.688 4.935V10H246.798V4.935H247.688ZM247.878 3.345C247.878 3.43167 247.86 3.51333 247.823 3.59C247.79 3.66333 247.743 3.73 247.683 3.79C247.626 3.84667 247.558 3.89167 247.478 3.925C247.401 3.95833 247.32 3.975 247.233 3.975C247.146 3.975 247.065 3.95833 246.988 3.925C246.915 3.89167 246.85 3.84667 246.793 3.79C246.736 3.73 246.691 3.66333 246.658 3.59C246.625 3.51333 246.608 3.43167 246.608 3.345C246.608 3.25833 246.625 3.17667 246.658 3.1C246.691 3.02 246.736 2.95167 246.793 2.895C246.85 2.835 246.915 2.78833 246.988 2.755C247.065 2.72167 247.146 2.705 247.233 2.705C247.32 2.705 247.401 2.72167 247.478 2.755C247.558 2.78833 247.626 2.835 247.683 2.895C247.743 2.95167 247.79 3.02 247.823 3.1C247.86 3.17667 247.878 3.25833 247.878 3.345ZM252.1 5.77C252.06 5.84333 251.999 5.88 251.915 5.88C251.865 5.88 251.809 5.86167 251.745 5.825C251.682 5.78833 251.604 5.74833 251.51 5.705C251.42 5.65833 251.312 5.61667 251.185 5.58C251.059 5.54 250.909 5.52 250.735 5.52C250.585 5.52 250.45 5.54 250.33 5.58C250.21 5.61667 250.107 5.66833 250.02 5.735C249.937 5.80167 249.872 5.88 249.825 5.97C249.782 6.05667 249.76 6.15167 249.76 6.255C249.76 6.385 249.797 6.49333 249.87 6.58C249.947 6.66667 250.047 6.74167 250.17 6.805C250.294 6.86833 250.434 6.925 250.59 6.975C250.747 7.02167 250.907 7.07333 251.07 7.13C251.237 7.18333 251.399 7.24333 251.555 7.31C251.712 7.37667 251.852 7.46 251.975 7.56C252.099 7.66 252.197 7.78333 252.27 7.93C252.347 8.07333 252.385 8.24667 252.385 8.45C252.385 8.68333 252.344 8.9 252.26 9.1C252.177 9.29667 252.054 9.46833 251.89 9.615C251.727 9.75833 251.527 9.87167 251.29 9.955C251.054 10.0383 250.78 10.08 250.47 10.08C250.117 10.08 249.797 10.0233 249.51 9.91C249.224 9.79333 248.98 9.645 248.78 9.465L248.99 9.125C249.017 9.08167 249.049 9.04833 249.085 9.025C249.122 9.00167 249.169 8.99 249.225 8.99C249.285 8.99 249.349 9.01333 249.415 9.06C249.482 9.10667 249.562 9.15833 249.655 9.215C249.752 9.27167 249.869 9.32333 250.005 9.37C250.142 9.41667 250.312 9.44 250.515 9.44C250.689 9.44 250.84 9.41833 250.97 9.375C251.1 9.32833 251.209 9.26667 251.295 9.19C251.382 9.11333 251.445 9.025 251.485 8.925C251.529 8.825 251.55 8.71833 251.55 8.605C251.55 8.465 251.512 8.35 251.435 8.26C251.362 8.16667 251.264 8.08833 251.14 8.025C251.017 7.95833 250.875 7.90167 250.715 7.855C250.559 7.805 250.397 7.75333 250.23 7.7C250.067 7.64667 249.905 7.58667 249.745 7.52C249.589 7.45 249.449 7.36333 249.325 7.26C249.202 7.15667 249.102 7.03 249.025 6.88C248.952 6.72667 248.915 6.54167 248.915 6.325C248.915 6.13167 248.955 5.94667 249.035 5.77C249.115 5.59 249.232 5.43333 249.385 5.3C249.539 5.16333 249.727 5.055 249.95 4.975C250.174 4.895 250.429 4.855 250.715 4.855C251.049 4.855 251.347 4.90833 251.61 5.015C251.877 5.11833 252.107 5.26167 252.3 5.445L252.1 5.77ZM255.031 10.08C254.631 10.08 254.323 9.96833 254.106 9.745C253.893 9.52167 253.786 9.2 253.786 8.78V5.68H253.176C253.123 5.68 253.078 5.665 253.041 5.635C253.005 5.60167 252.986 5.55167 252.986 5.485V5.13L253.816 5.025L254.021 3.46C254.031 3.41 254.053 3.37 254.086 3.34C254.123 3.30667 254.17 3.29 254.226 3.29H254.676V5.035H256.141V5.68H254.676V8.72C254.676 8.93333 254.728 9.09167 254.831 9.195C254.935 9.29833 255.068 9.35 255.231 9.35C255.325 9.35 255.405 9.33833 255.471 9.315C255.541 9.28833 255.601 9.26 255.651 9.23C255.701 9.2 255.743 9.17333 255.776 9.15C255.813 9.12333 255.845 9.11 255.871 9.11C255.918 9.11 255.96 9.13833 255.996 9.195L256.256 9.62C256.103 9.76333 255.918 9.87667 255.701 9.96C255.485 10.04 255.261 10.08 255.031 10.08ZM257.8 6.855C257.8 6.14167 257.709 5.44833 257.525 4.775C257.345 4.10167 257.08 3.46167 256.73 2.855C256.704 2.805 256.687 2.76167 256.68 2.725C256.674 2.685 256.675 2.65167 256.685 2.625C256.695 2.595 256.71 2.57 256.73 2.55C256.754 2.52667 256.779 2.50667 256.805 2.49L257.2 2.245C257.45 2.63167 257.662 3.01333 257.835 3.39C258.012 3.76667 258.154 4.145 258.26 4.525C258.37 4.90167 258.45 5.28333 258.5 5.67C258.55 6.05667 258.575 6.45167 258.575 6.855C258.575 7.26167 258.55 7.65833 258.5 8.045C258.45 8.42833 258.37 8.81 258.26 9.19C258.154 9.57 258.012 9.94833 257.835 10.325C257.662 10.7017 257.45 11.0817 257.2 11.465L256.805 11.225C256.779 11.2083 256.754 11.1883 256.73 11.165C256.71 11.145 256.695 11.12 256.685 11.09C256.675 11.0633 256.674 11.03 256.68 10.99C256.687 10.95 256.704 10.905 256.73 10.855C257.08 10.2483 257.345 9.60833 257.525 8.935C257.709 8.26167 257.8 7.56833 257.8 6.855Z" fill="#0B3AB5"/>
<g id="node-to-pop">
<g id="node-d-stack-pop">
<circle id="Ellipse 2_4" cx="18.5" cy="41.5" r="18" stroke="black"/>
<path id="d" d="M19.2071 41.14C19.0405 40.9167 18.8605 40.7617 18.6671 40.675C18.4738 40.585 18.2571 40.54 18.0171 40.54C17.5471 40.54 17.1855 40.7083 16.9321 41.045C16.6788 41.3817 16.5521 41.8617 16.5521 42.485C16.5521 42.815 16.5805 43.0983 16.6371 43.335C16.6938 43.5683 16.7771 43.7617 16.8871 43.915C16.9971 44.065 17.1321 44.175 17.2921 44.245C17.4521 44.315 17.6338 44.35 17.8371 44.35C18.1305 44.35 18.3855 44.2833 18.6021 44.15C18.8221 44.0167 19.0238 43.8283 19.2071 43.585V41.14ZM20.0971 37.635V45H19.5671C19.4405 45 19.3605 44.9383 19.3271 44.815L19.2471 44.2C19.0305 44.46 18.7838 44.67 18.5071 44.83C18.2305 44.99 17.9105 45.07 17.5471 45.07C17.2571 45.07 16.9938 45.015 16.7571 44.905C16.5205 44.7917 16.3188 44.6267 16.1521 44.41C15.9855 44.1933 15.8571 43.9233 15.7671 43.6C15.6771 43.2767 15.6321 42.905 15.6321 42.485C15.6321 42.1117 15.6821 41.765 15.7821 41.445C15.8821 41.1217 16.0255 40.8417 16.2121 40.605C16.3988 40.3683 16.6271 40.1833 16.8971 40.05C17.1705 39.9133 17.4771 39.845 17.8171 39.845C18.1271 39.845 18.3921 39.8983 18.6121 40.005C18.8355 40.1083 19.0338 40.2533 19.2071 40.44V37.635H20.0971Z" fill="black"/>
</g>
<g id="next-pointer-stack-pop">
<path id="Arrow 9" d="M61.3536 42.3536C61.5488 42.1583 61.5488 41.8417 61.3536 41.6464L58.1716 38.4645C57.9763 38.2692 57.6597 38.2692 57.4645 38.4645C57.2692 38.6597 57.2692 38.9763 57.4645 39.1716L60.2929 42L57.4645 44.8284C57.2692 45.0237 57.2692 45.3403 57.4645 45.5355C57.6597 45.7308 57.9763 45.7308 58.1716 45.5355L61.3536 42.3536ZM37 42.5H61V41.5H37V42.5Z" fill="black"/>
<path id="next pointer_3" d="M39.8673 76.67C39.9773 76.5467 40.0939 76.435 40.2173 76.335C40.3406 76.235 40.4706 76.15 40.6073 76.08C40.7473 76.0067 40.8939 75.9517 41.0473 75.915C41.2039 75.875 41.3723 75.855 41.5523 75.855C41.8289 75.855 42.0723 75.9017 42.2823 75.995C42.4956 76.085 42.6723 76.215 42.8123 76.385C42.9556 76.5517 43.0639 76.7533 43.1373 76.99C43.2106 77.2267 43.2473 77.4883 43.2473 77.775V81H42.3523V77.775C42.3523 77.3917 42.2639 77.095 42.0873 76.885C41.9139 76.6717 41.6489 76.565 41.2923 76.565C41.0289 76.565 40.7823 76.6283 40.5523 76.755C40.3256 76.8817 40.1156 77.0533 39.9223 77.27V81H39.0273V75.935H39.5623C39.6889 75.935 39.7673 75.9967 39.7973 76.12L39.8673 76.67ZM47.9934 77.915C47.9934 77.7083 47.9634 77.52 47.9034 77.35C47.8468 77.1767 47.7618 77.0283 47.6484 76.905C47.5384 76.7783 47.4034 76.6817 47.2434 76.615C47.0834 76.545 46.9018 76.51 46.6984 76.51C46.2718 76.51 45.9334 76.635 45.6834 76.885C45.4368 77.1317 45.2834 77.475 45.2234 77.915H47.9934ZM48.7134 80.29C48.6034 80.4233 48.4718 80.54 48.3184 80.64C48.1651 80.7367 48.0001 80.8167 47.8234 80.88C47.6501 80.9433 47.4701 80.99 47.2834 81.02C47.0968 81.0533 46.9118 81.07 46.7284 81.07C46.3784 81.07 46.0551 81.0117 45.7584 80.895C45.4651 80.775 45.2101 80.6017 44.9934 80.375C44.7801 80.145 44.6134 79.8617 44.4934 79.525C44.3734 79.1883 44.3134 78.8017 44.3134 78.365C44.3134 78.0117 44.3668 77.6817 44.4734 77.375C44.5834 77.0683 44.7401 76.8033 44.9434 76.58C45.1468 76.3533 45.3951 76.1767 45.6884 76.05C45.9818 75.92 46.3118 75.855 46.6784 75.855C46.9818 75.855 47.2618 75.9067 47.5184 76.01C47.7784 76.11 48.0018 76.2567 48.1884 76.45C48.3784 76.64 48.5268 76.8767 48.6334 77.16C48.7401 77.44 48.7934 77.76 48.7934 78.12C48.7934 78.26 48.7784 78.3533 48.7484 78.4C48.7184 78.4467 48.6618 78.47 48.5784 78.47H45.1934C45.2034 78.79 45.2468 79.0683 45.3234 79.305C45.4034 79.5417 45.5134 79.74 45.6534 79.9C45.7934 80.0567 45.9601 80.175 46.1534 80.255C46.3468 80.3317 46.5634 80.37 46.8034 80.37C47.0268 80.37 47.2184 80.345 47.3784 80.295C47.5418 80.2417 47.6818 80.185 47.7984 80.125C47.9151 80.065 48.0118 80.01 48.0884 79.96C48.1684 79.9067 48.2368 79.88 48.2934 79.88C48.3668 79.88 48.4234 79.9083 48.4634 79.965L48.7134 80.29ZM53.9783 81H53.1233C53.0499 81 52.9916 80.9817 52.9483 80.945C52.9083 80.905 52.8749 80.8617 52.8483 80.815L51.5733 78.83C51.5599 78.8767 51.5449 78.9233 51.5283 78.97C51.5149 79.0133 51.4949 79.0533 51.4683 79.09L50.2883 80.815C50.2549 80.8617 50.2183 80.905 50.1783 80.945C50.1416 80.9817 50.0899 81 50.0233 81H49.2283L51.0033 78.4L49.2983 75.935H50.1533C50.2266 75.935 50.2799 75.9467 50.3133 75.97C50.3466 75.9933 50.3766 76.0267 50.4033 76.07L51.6483 77.97C51.6749 77.8733 51.7166 77.78 51.7733 77.69L52.8633 76.09C52.8933 76.0433 52.9249 76.0067 52.9583 75.98C52.9949 75.95 53.0383 75.935 53.0883 75.935H53.9083L52.2033 78.355L53.9783 81ZM56.3538 81.08C55.9538 81.08 55.6454 80.9683 55.4288 80.745C55.2154 80.5217 55.1088 80.2 55.1088 79.78V76.68H54.4988C54.4454 76.68 54.4004 76.665 54.3638 76.635C54.3271 76.6017 54.3088 76.5517 54.3088 76.485V76.13L55.1388 76.025L55.3438 74.46C55.3538 74.41 55.3754 74.37 55.4088 74.34C55.4454 74.3067 55.4921 74.29 55.5488 74.29H55.9988V76.035H57.4638V76.68H55.9988V79.72C55.9988 79.9333 56.0504 80.0917 56.1538 80.195C56.2571 80.2983 56.3904 80.35 56.5538 80.35C56.6471 80.35 56.7271 80.3383 56.7938 80.315C56.8638 80.2883 56.9238 80.26 56.9738 80.23C57.0238 80.2 57.0654 80.1733 57.0988 80.15C57.1354 80.1233 57.1671 80.11 57.1938 80.11C57.2404 80.11 57.2821 80.1383 57.3188 80.195L57.5788 80.62C57.4254 80.7633 57.2404 80.8767 57.0238 80.96C56.8071 81.04 56.5838 81.08 56.3538 81.08ZM33.765 91.78C33.9284 92 34.1067 92.155 34.3 92.245C34.4934 92.335 34.71 92.38 34.95 92.38C35.4234 92.38 35.7867 92.2117 36.04 91.875C36.2934 91.5383 36.42 91.0583 36.42 90.435C36.42 90.105 36.39 89.8217 36.33 89.585C36.2734 89.3483 36.19 89.155 36.08 89.005C35.97 88.8517 35.835 88.74 35.675 88.67C35.515 88.6 35.3334 88.565 35.13 88.565C34.84 88.565 34.585 88.6317 34.365 88.765C34.1484 88.8983 33.9484 89.0867 33.765 89.33V91.78ZM33.72 88.72C33.9334 88.4567 34.18 88.245 34.46 88.085C34.74 87.925 35.06 87.845 35.42 87.845C35.7134 87.845 35.9784 87.9017 36.215 88.015C36.4517 88.125 36.6534 88.29 36.82 88.51C36.9867 88.7267 37.115 88.9967 37.205 89.32C37.295 89.6433 37.34 90.015 37.34 90.435C37.34 90.8083 37.29 91.1567 37.19 91.48C37.09 91.8 36.945 92.0783 36.755 92.315C36.5684 92.5483 36.3384 92.7333 36.065 92.87C35.795 93.0033 35.49 93.07 35.15 93.07C34.84 93.07 34.5734 93.0183 34.35 92.915C34.13 92.8083 33.935 92.6617 33.765 92.475V94.715H32.87V87.935H33.405C33.5317 87.935 33.61 87.9967 33.64 88.12L33.72 88.72ZM40.6105 87.855C40.9805 87.855 41.3138 87.9167 41.6105 88.04C41.9072 88.1633 42.1605 88.3383 42.3705 88.565C42.5805 88.7917 42.7405 89.0667 42.8505 89.39C42.9638 89.71 43.0205 90.0683 43.0205 90.465C43.0205 90.865 42.9638 91.225 42.8505 91.545C42.7405 91.865 42.5805 92.1383 42.3705 92.365C42.1605 92.5917 41.9072 92.7667 41.6105 92.89C41.3138 93.01 40.9805 93.07 40.6105 93.07C40.2372 93.07 39.9005 93.01 39.6005 92.89C39.3038 92.7667 39.0505 92.5917 38.8405 92.365C38.6305 92.1383 38.4688 91.865 38.3555 91.545C38.2455 91.225 38.1905 90.865 38.1905 90.465C38.1905 90.0683 38.2455 89.71 38.3555 89.39C38.4688 89.0667 38.6305 88.7917 38.8405 88.565C39.0505 88.3383 39.3038 88.1633 39.6005 88.04C39.9005 87.9167 40.2372 87.855 40.6105 87.855ZM40.6105 92.375C41.1105 92.375 41.4838 92.2083 41.7305 91.875C41.9772 91.5383 42.1005 91.07 42.1005 90.47C42.1005 89.8667 41.9772 89.3967 41.7305 89.06C41.4838 88.7233 41.1105 88.555 40.6105 88.555C40.3572 88.555 40.1355 88.5983 39.9455 88.685C39.7588 88.7717 39.6022 88.8967 39.4755 89.06C39.3522 89.2233 39.2588 89.425 39.1955 89.665C39.1355 89.9017 39.1055 90.17 39.1055 90.47C39.1055 91.07 39.2288 91.5383 39.4755 91.875C39.7255 92.2083 40.1038 92.375 40.6105 92.375ZM45.0893 87.935V93H44.1993V87.935H45.0893ZM45.2793 86.345C45.2793 86.4317 45.261 86.5133 45.2243 86.59C45.191 86.6633 45.1443 86.73 45.0843 86.79C45.0277 86.8467 44.9593 86.8917 44.8793 86.925C44.8027 86.9583 44.721 86.975 44.6343 86.975C44.5477 86.975 44.466 86.9583 44.3893 86.925C44.316 86.8917 44.251 86.8467 44.1943 86.79C44.1377 86.73 44.0927 86.6633 44.0593 86.59C44.026 86.5133 44.0093 86.4317 44.0093 86.345C44.0093 86.2583 44.026 86.1767 44.0593 86.1C44.0927 86.02 44.1377 85.9517 44.1943 85.895C44.251 85.835 44.316 85.7883 44.3893 85.755C44.466 85.7217 44.5477 85.705 44.6343 85.705C44.721 85.705 44.8027 85.7217 44.8793 85.755C44.9593 85.7883 45.0277 85.835 45.0843 85.895C45.1443 85.9517 45.191 86.02 45.2243 86.1C45.261 86.1767 45.2793 86.2583 45.2793 86.345ZM47.3917 88.67C47.5017 88.5467 47.6183 88.435 47.7417 88.335C47.865 88.235 47.995 88.15 48.1317 88.08C48.2717 88.0067 48.4183 87.9517 48.5717 87.915C48.7283 87.875 48.8967 87.855 49.0767 87.855C49.3533 87.855 49.5967 87.9017 49.8067 87.995C50.02 88.085 50.1967 88.215 50.3367 88.385C50.48 88.5517 50.5883 88.7533 50.6617 88.99C50.735 89.2267 50.7717 89.4883 50.7717 89.775V93H49.8767V89.775C49.8767 89.3917 49.7883 89.095 49.6117 88.885C49.4383 88.6717 49.1733 88.565 48.8167 88.565C48.5533 88.565 48.3067 88.6283 48.0767 88.755C47.85 88.8817 47.64 89.0533 47.4467 89.27V93H46.5517V87.935H47.0867C47.2133 87.935 47.2917 87.9967 47.3217 88.12L47.3917 88.67ZM53.6145 93.08C53.2145 93.08 52.9062 92.9683 52.6895 92.745C52.4762 92.5217 52.3695 92.2 52.3695 91.78V88.68H51.7595C51.7062 88.68 51.6612 88.665 51.6245 88.635C51.5878 88.6017 51.5695 88.5517 51.5695 88.485V88.13L52.3995 88.025L52.6045 86.46C52.6145 86.41 52.6362 86.37 52.6695 86.34C52.7062 86.3067 52.7528 86.29 52.8095 86.29H53.2595V88.035H54.7245V88.68H53.2595V91.72C53.2595 91.9333 53.3112 92.0917 53.4145 92.195C53.5178 92.2983 53.6512 92.35 53.8145 92.35C53.9078 92.35 53.9878 92.3383 54.0545 92.315C54.1245 92.2883 54.1845 92.26 54.2345 92.23C54.2845 92.2 54.3262 92.1733 54.3595 92.15C54.3962 92.1233 54.4278 92.11 54.4545 92.11C54.5012 92.11 54.5428 92.1383 54.5795 92.195L54.8395 92.62C54.6862 92.7633 54.5012 92.8767 54.2845 92.96C54.0678 93.04 53.8445 93.08 53.6145 93.08ZM59.0042 89.915C59.0042 89.7083 58.9742 89.52 58.9142 89.35C58.8575 89.1767 58.7725 89.0283 58.6592 88.905C58.5492 88.7783 58.4142 88.6817 58.2542 88.615C58.0942 88.545 57.9125 88.51 57.7092 88.51C57.2825 88.51 56.9442 88.635 56.6942 88.885C56.4475 89.1317 56.2942 89.475 56.2342 89.915H59.0042ZM59.7242 92.29C59.6142 92.4233 59.4825 92.54 59.3292 92.64C59.1758 92.7367 59.0108 92.8167 58.8342 92.88C58.6608 92.9433 58.4808 92.99 58.2942 93.02C58.1075 93.0533 57.9225 93.07 57.7392 93.07C57.3892 93.07 57.0658 93.0117 56.7692 92.895C56.4758 92.775 56.2208 92.6017 56.0042 92.375C55.7908 92.145 55.6242 91.8617 55.5042 91.525C55.3842 91.1883 55.3242 90.8017 55.3242 90.365C55.3242 90.0117 55.3775 89.6817 55.4842 89.375C55.5942 89.0683 55.7508 88.8033 55.9542 88.58C56.1575 88.3533 56.4058 88.1767 56.6992 88.05C56.9925 87.92 57.3225 87.855 57.6892 87.855C57.9925 87.855 58.2725 87.9067 58.5292 88.01C58.7892 88.11 59.0125 88.2567 59.1992 88.45C59.3892 88.64 59.5375 88.8767 59.6442 89.16C59.7508 89.44 59.8042 89.76 59.8042 90.12C59.8042 90.26 59.7892 90.3533 59.7592 90.4C59.7292 90.4467 59.6725 90.47 59.5892 90.47H56.2042C56.2142 90.79 56.2575 91.0683 56.3342 91.305C56.4142 91.5417 56.5242 91.74 56.6642 91.9C56.8042 92.0567 56.9708 92.175 57.1642 92.255C57.3575 92.3317 57.5742 92.37 57.8142 92.37C58.0375 92.37 58.2292 92.345 58.3892 92.295C58.5525 92.2417 58.6925 92.185 58.8092 92.125C58.9258 92.065 59.0225 92.01 59.0992 91.96C59.1792 91.9067 59.2475 91.88 59.3042 91.88C59.3775 91.88 59.4342 91.9083 59.4742 91.965L59.7242 92.29ZM61.7424 88.95C61.9024 88.6033 62.099 88.3333 62.3324 88.14C62.5657 87.9433 62.8507 87.845 63.1874 87.845C63.294 87.845 63.3957 87.8567 63.4924 87.88C63.5924 87.9033 63.6807 87.94 63.7574 87.99L63.6924 88.655C63.6724 88.7383 63.6224 88.78 63.5424 88.78C63.4957 88.78 63.4274 88.77 63.3374 88.75C63.2474 88.73 63.1457 88.72 63.0324 88.72C62.8724 88.72 62.729 88.7433 62.6024 88.79C62.479 88.8367 62.3674 88.9067 62.2674 89C62.1707 89.09 62.0824 89.2033 62.0024 89.34C61.9257 89.4733 61.8557 89.6267 61.7924 89.8V93H60.8974V87.935H61.4074C61.504 87.935 61.5707 87.9533 61.6074 87.99C61.644 88.0267 61.669 88.09 61.6824 88.18L61.7424 88.95Z" fill="#D90D0D"/>
<path id="Arrow 7_2" d="M50.3536 47.6464C50.1583 47.4512 49.8417 47.4512 49.6464 47.6464L46.4645 50.8284C46.2692 51.0237 46.2692 51.3403 46.4645 51.5355C46.6597 51.7308 46.9763 51.7308 47.1716 51.5355L50 48.7071L52.8284 51.5355C53.0237 51.7308 53.3403 51.7308 53.5355 51.5355C53.7308 51.3403 53.7308 51.0237 53.5355 50.8284L50.3536 47.6464ZM50.5 71L50.5 48L49.5 48L49.5 71L50.5 71Z" fill="#D90D0D"/>
</g>
</g>
</g>
</svg>
