<svg viewBox="0 0 238 63" fill="none" xmlns="http://www.w3.org/2000/svg">
<rect x="0.5" y="27.5" width="33" height="35" stroke="black"/>
<rect x="204.5" y="27.5" width="33" height="35" stroke="black"/>
<rect x="170.5" y="27.5" width="33" height="35" stroke="black"/>
<rect x="136.5" y="27.5" width="33" height="35" stroke="black"/>
<rect x="102.5" y="27.5" width="33" height="35" stroke="black"/>
<rect x="68.5" y="27.5" width="33" height="35" stroke="black"/>
<rect x="34.5" y="27.5" width="33" height="35" stroke="black"/>
<path d="M20.5055 40.402V40.882C20.5055 41.018 20.4895 41.13 20.4575 41.218C20.4295 41.306 20.4015 41.38 20.3735 41.44L16.8095 48.622C16.7575 48.726 16.6855 48.816 16.5935 48.892C16.5015 48.964 16.3795 49 16.2275 49H15.4595L19.0715 41.908C19.1235 41.808 19.1775 41.716 19.2335 41.632C19.2895 41.548 19.3495 41.468 19.4135 41.392H14.9255C14.8575 41.392 14.7975 41.366 14.7455 41.314C14.6935 41.258 14.6675 41.196 14.6675 41.128V40.402H20.5055Z" fill="black"/>
<path d="M153.5 48.244C153.78 48.244 154.03 48.206 154.25 48.13C154.474 48.05 154.662 47.94 154.814 47.8C154.97 47.656 155.088 47.486 155.168 47.29C155.252 47.09 155.294 46.87 155.294 46.63C155.294 46.334 155.244 46.082 155.144 45.874C155.048 45.662 154.916 45.49 154.748 45.358C154.584 45.226 154.394 45.13 154.178 45.07C153.962 45.006 153.736 44.974 153.5 44.974C153.264 44.974 153.038 45.006 152.822 45.07C152.606 45.13 152.414 45.226 152.246 45.358C152.082 45.49 151.95 45.662 151.85 45.874C151.754 46.082 151.706 46.334 151.706 46.63C151.706 46.87 151.746 47.09 151.826 47.29C151.91 47.486 152.028 47.656 152.18 47.8C152.336 47.94 152.524 48.05 152.744 48.13C152.968 48.206 153.22 48.244 153.5 48.244ZM153.5 41.134C153.244 41.134 153.018 41.172 152.822 41.248C152.63 41.324 152.468 41.428 152.336 41.56C152.208 41.692 152.11 41.846 152.042 42.022C151.978 42.198 151.946 42.386 151.946 42.586C151.946 42.782 151.974 42.972 152.03 43.156C152.086 43.34 152.176 43.504 152.3 43.648C152.424 43.788 152.584 43.902 152.78 43.99C152.98 44.074 153.22 44.116 153.5 44.116C153.78 44.116 154.018 44.074 154.214 43.99C154.414 43.902 154.576 43.788 154.7 43.648C154.824 43.504 154.914 43.34 154.97 43.156C155.026 42.972 155.054 42.782 155.054 42.586C155.054 42.386 155.02 42.198 154.952 42.022C154.888 41.846 154.79 41.692 154.658 41.56C154.53 41.428 154.368 41.324 154.172 41.248C153.98 41.172 153.756 41.134 153.5 41.134ZM154.73 44.518C155.266 44.67 155.678 44.924 155.966 45.28C156.254 45.636 156.398 46.092 156.398 46.648C156.398 47.024 156.326 47.364 156.182 47.668C156.042 47.968 155.844 48.224 155.588 48.436C155.336 48.648 155.032 48.812 154.676 48.928C154.32 49.04 153.928 49.096 153.5 49.096C153.072 49.096 152.68 49.04 152.324 48.928C151.968 48.812 151.662 48.648 151.406 48.436C151.15 48.224 150.952 47.968 150.812 47.668C150.672 47.364 150.602 47.024 150.602 46.648C150.602 46.092 150.746 45.636 151.034 45.28C151.322 44.924 151.734 44.67 152.27 44.518C151.818 44.35 151.476 44.1 151.244 43.768C151.016 43.432 150.902 43.032 150.902 42.568C150.902 42.252 150.964 41.956 151.088 41.68C151.212 41.404 151.388 41.164 151.616 40.96C151.844 40.756 152.116 40.596 152.432 40.48C152.752 40.364 153.108 40.306 153.5 40.306C153.888 40.306 154.242 40.364 154.562 40.48C154.882 40.596 155.156 40.756 155.384 40.96C155.612 41.164 155.788 41.404 155.912 41.68C156.036 41.956 156.098 42.252 156.098 42.568C156.098 43.032 155.982 43.432 155.75 43.768C155.522 44.1 155.182 44.35 154.73 44.518Z" fill="black"/>
<path d="M121.942 47.986C122.058 47.986 122.15 48.02 122.218 48.088C122.286 48.156 122.32 48.244 122.32 48.352V49H116.584V48.634C116.584 48.558 116.6 48.48 116.632 48.4C116.664 48.32 116.714 48.246 116.782 48.178L119.536 45.412C119.764 45.18 119.972 44.958 120.16 44.746C120.348 44.53 120.508 44.314 120.64 44.098C120.772 43.882 120.874 43.664 120.946 43.444C121.018 43.22 121.054 42.982 121.054 42.73C121.054 42.478 121.014 42.258 120.934 42.07C120.854 41.878 120.744 41.72 120.604 41.596C120.468 41.472 120.306 41.38 120.118 41.32C119.93 41.256 119.728 41.224 119.512 41.224C119.292 41.224 119.09 41.256 118.906 41.32C118.722 41.384 118.558 41.474 118.414 41.59C118.274 41.702 118.156 41.836 118.06 41.992C117.964 42.148 117.896 42.32 117.856 42.508C117.808 42.648 117.742 42.742 117.658 42.79C117.578 42.834 117.464 42.846 117.316 42.826L116.758 42.73C116.814 42.338 116.922 41.992 117.082 41.692C117.246 41.388 117.45 41.134 117.694 40.93C117.942 40.726 118.224 40.572 118.54 40.468C118.856 40.36 119.198 40.306 119.566 40.306C119.93 40.306 120.27 40.36 120.586 40.468C120.902 40.576 121.176 40.734 121.408 40.942C121.64 41.146 121.822 41.396 121.954 41.692C122.086 41.988 122.152 42.324 122.152 42.7C122.152 43.02 122.104 43.318 122.008 43.594C121.912 43.866 121.782 44.126 121.618 44.374C121.454 44.622 121.264 44.864 121.048 45.1C120.836 45.336 120.61 45.574 120.37 45.814L118.102 48.13C118.262 48.086 118.424 48.052 118.588 48.028C118.752 48 118.91 47.986 119.062 47.986H121.942Z" fill="black"/>
<path d="M82.7995 42.73C82.8555 42.338 82.9635 41.992 83.1235 41.692C83.2835 41.388 83.4855 41.134 83.7295 40.93C83.9775 40.726 84.2595 40.572 84.5755 40.468C84.8955 40.36 85.2395 40.306 85.6075 40.306C85.9715 40.306 86.3075 40.358 86.6155 40.462C86.9235 40.566 87.1875 40.714 87.4075 40.906C87.6315 41.098 87.8055 41.33 87.9295 41.602C88.0535 41.874 88.1155 42.176 88.1155 42.508C88.1155 42.78 88.0795 43.024 88.0075 43.24C87.9395 43.452 87.8395 43.638 87.7075 43.798C87.5795 43.958 87.4235 44.094 87.2395 44.206C87.0555 44.318 86.8495 44.41 86.6215 44.482C87.1815 44.626 87.6015 44.874 87.8815 45.226C88.1655 45.574 88.3075 46.01 88.3075 46.534C88.3075 46.93 88.2315 47.286 88.0795 47.602C87.9315 47.918 87.7275 48.188 87.4675 48.412C87.2075 48.632 86.9035 48.802 86.5555 48.922C86.2115 49.038 85.8415 49.096 85.4455 49.096C84.9895 49.096 84.5995 49.04 84.2755 48.928C83.9515 48.812 83.6775 48.654 83.4535 48.454C83.2295 48.254 83.0455 48.018 82.9015 47.746C82.7575 47.47 82.6355 47.172 82.5355 46.852L82.9975 46.66C83.1175 46.608 83.2335 46.594 83.3455 46.618C83.4615 46.642 83.5455 46.708 83.5975 46.816C83.6495 46.928 83.7135 47.062 83.7895 47.218C83.8695 47.374 83.9775 47.524 84.1135 47.668C84.2495 47.812 84.4215 47.934 84.6295 48.034C84.8415 48.134 85.1095 48.184 85.4335 48.184C85.7335 48.184 85.9955 48.136 86.2195 48.04C86.4475 47.94 86.6355 47.812 86.7835 47.656C86.9355 47.5 87.0495 47.326 87.1255 47.134C87.2015 46.942 87.2395 46.752 87.2395 46.564C87.2395 46.332 87.2095 46.12 87.1495 45.928C87.0895 45.736 86.9775 45.57 86.8135 45.43C86.6495 45.29 86.4235 45.18 86.1355 45.1C85.8515 45.02 85.4855 44.98 85.0375 44.98V44.206C85.4055 44.202 85.7175 44.162 85.9735 44.086C86.2335 44.01 86.4435 43.906 86.6035 43.774C86.7675 43.642 86.8855 43.484 86.9575 43.3C87.0335 43.116 87.0715 42.912 87.0715 42.688C87.0715 42.44 87.0315 42.224 86.9515 42.04C86.8755 41.856 86.7695 41.704 86.6335 41.584C86.4975 41.464 86.3355 41.374 86.1475 41.314C85.9635 41.254 85.7635 41.224 85.5475 41.224C85.3315 41.224 85.1295 41.256 84.9415 41.32C84.7575 41.384 84.5935 41.474 84.4495 41.59C84.3095 41.702 84.1915 41.836 84.0955 41.992C83.9995 42.148 83.9315 42.32 83.8915 42.508C83.8395 42.648 83.7735 42.742 83.6935 42.79C83.6175 42.834 83.5055 42.846 83.3575 42.826L82.7995 42.73Z" fill="black"/>
<path d="M54.1275 48.184V49H49.5195V48.184H51.3615V42.322C51.3615 42.146 51.3675 41.968 51.3795 41.788L49.8495 43.102C49.7975 43.146 49.7455 43.174 49.6935 43.186C49.6415 43.194 49.5935 43.194 49.5495 43.186C49.5055 43.178 49.4635 43.162 49.4235 43.138C49.3875 43.114 49.3595 43.088 49.3395 43.06L49.0035 42.598L51.5655 40.384H52.4355V48.184H54.1275Z" fill="black"/>
<path d="M129.474 10.08C129.074 10.08 128.766 9.96833 128.549 9.745C128.336 9.52167 128.229 9.2 128.229 8.78V5.68H127.619C127.566 5.68 127.521 5.665 127.484 5.635C127.447 5.60167 127.429 5.55167 127.429 5.485V5.13L128.259 5.025L128.464 3.46C128.474 3.41 128.496 3.37 128.529 3.34C128.566 3.30667 128.612 3.29 128.669 3.29H129.119V5.035H130.584V5.68H129.119V8.72C129.119 8.93333 129.171 9.09167 129.274 9.195C129.377 9.29833 129.511 9.35 129.674 9.35C129.767 9.35 129.847 9.33833 129.914 9.315C129.984 9.28833 130.044 9.26 130.094 9.23C130.144 9.2 130.186 9.17333 130.219 9.15C130.256 9.12333 130.287 9.11 130.314 9.11C130.361 9.11 130.402 9.13833 130.439 9.195L130.699 9.62C130.546 9.76333 130.361 9.87667 130.144 9.96C129.927 10.04 129.704 10.08 129.474 10.08ZM133.609 4.855C133.979 4.855 134.312 4.91667 134.609 5.04C134.905 5.16333 135.159 5.33833 135.369 5.565C135.579 5.79167 135.739 6.06667 135.849 6.39C135.962 6.71 136.019 7.06833 136.019 7.465C136.019 7.865 135.962 8.225 135.849 8.545C135.739 8.865 135.579 9.13833 135.369 9.365C135.159 9.59167 134.905 9.76667 134.609 9.89C134.312 10.01 133.979 10.07 133.609 10.07C133.235 10.07 132.899 10.01 132.599 9.89C132.302 9.76667 132.049 9.59167 131.839 9.365C131.629 9.13833 131.467 8.865 131.354 8.545C131.244 8.225 131.189 7.865 131.189 7.465C131.189 7.06833 131.244 6.71 131.354 6.39C131.467 6.06667 131.629 5.79167 131.839 5.565C132.049 5.33833 132.302 5.16333 132.599 5.04C132.899 4.91667 133.235 4.855 133.609 4.855ZM133.609 9.375C134.109 9.375 134.482 9.20833 134.729 8.875C134.975 8.53833 135.099 8.07 135.099 7.47C135.099 6.86667 134.975 6.39667 134.729 6.06C134.482 5.72333 134.109 5.555 133.609 5.555C133.355 5.555 133.134 5.59833 132.944 5.685C132.757 5.77167 132.6 5.89667 132.474 6.06C132.35 6.22333 132.257 6.425 132.194 6.665C132.134 6.90167 132.104 7.17 132.104 7.47C132.104 8.07 132.227 8.53833 132.474 8.875C132.724 9.20833 133.102 9.375 133.609 9.375ZM138.042 8.78C138.206 9 138.384 9.155 138.577 9.245C138.771 9.335 138.987 9.38 139.227 9.38C139.701 9.38 140.064 9.21167 140.317 8.875C140.571 8.53833 140.697 8.05833 140.697 7.435C140.697 7.105 140.667 6.82167 140.607 6.585C140.551 6.34833 140.467 6.155 140.357 6.005C140.247 5.85167 140.112 5.74 139.952 5.67C139.792 5.6 139.611 5.565 139.407 5.565C139.117 5.565 138.862 5.63167 138.642 5.765C138.426 5.89833 138.226 6.08667 138.042 6.33V8.78ZM137.997 5.72C138.211 5.45667 138.457 5.245 138.737 5.085C139.017 4.925 139.337 4.845 139.697 4.845C139.991 4.845 140.256 4.90167 140.492 5.015C140.729 5.125 140.931 5.29 141.097 5.51C141.264 5.72667 141.392 5.99667 141.482 6.32C141.572 6.64333 141.617 7.015 141.617 7.435C141.617 7.80833 141.567 8.15667 141.467 8.48C141.367 8.8 141.222 9.07833 141.032 9.315C140.846 9.54833 140.616 9.73333 140.342 9.87C140.072 10.0033 139.767 10.07 139.427 10.07C139.117 10.07 138.851 10.0183 138.627 9.915C138.407 9.80833 138.212 9.66167 138.042 9.475V11.715H137.147V4.935H137.682C137.809 4.935 137.887 4.99667 137.917 5.12L137.997 5.72ZM147.446 4.855C147.816 4.855 148.15 4.91667 148.446 5.04C148.743 5.16333 148.996 5.33833 149.206 5.565C149.416 5.79167 149.576 6.06667 149.686 6.39C149.8 6.71 149.856 7.06833 149.856 7.465C149.856 7.865 149.8 8.225 149.686 8.545C149.576 8.865 149.416 9.13833 149.206 9.365C148.996 9.59167 148.743 9.76667 148.446 9.89C148.15 10.01 147.816 10.07 147.446 10.07C147.073 10.07 146.736 10.01 146.436 9.89C146.14 9.76667 145.886 9.59167 145.676 9.365C145.466 9.13833 145.305 8.865 145.191 8.545C145.081 8.225 145.026 7.865 145.026 7.465C145.026 7.06833 145.081 6.71 145.191 6.39C145.305 6.06667 145.466 5.79167 145.676 5.565C145.886 5.33833 146.14 5.16333 146.436 5.04C146.736 4.91667 147.073 4.855 147.446 4.855ZM147.446 9.375C147.946 9.375 148.32 9.20833 148.566 8.875C148.813 8.53833 148.936 8.07 148.936 7.47C148.936 6.86667 148.813 6.39667 148.566 6.06C148.32 5.72333 147.946 5.555 147.446 5.555C147.193 5.555 146.971 5.59833 146.781 5.685C146.595 5.77167 146.438 5.89667 146.311 6.06C146.188 6.22333 146.095 6.425 146.031 6.665C145.971 6.90167 145.941 7.17 145.941 7.47C145.941 8.07 146.065 8.53833 146.311 8.875C146.561 9.20833 146.94 9.375 147.446 9.375ZM151.208 10V5.695L150.648 5.63C150.578 5.61333 150.52 5.58833 150.473 5.555C150.43 5.51833 150.408 5.46667 150.408 5.4V5.035H151.208V4.545C151.208 4.255 151.248 3.99833 151.328 3.775C151.411 3.54833 151.528 3.35833 151.678 3.205C151.831 3.04833 152.015 2.93 152.228 2.85C152.441 2.77 152.681 2.73 152.948 2.73C153.175 2.73 153.383 2.76333 153.573 2.83L153.553 3.275C153.546 3.355 153.501 3.39833 153.418 3.405C153.338 3.41167 153.23 3.415 153.093 3.415C152.94 3.415 152.8 3.435 152.673 3.475C152.55 3.515 152.443 3.58 152.353 3.67C152.263 3.76 152.193 3.87833 152.143 4.025C152.096 4.17167 152.073 4.35333 152.073 4.57V5.035H153.533V5.68H152.103V10H151.208ZM159.707 5.77C159.667 5.84333 159.605 5.88 159.522 5.88C159.472 5.88 159.415 5.86167 159.352 5.825C159.288 5.78833 159.21 5.74833 159.117 5.705C159.027 5.65833 158.918 5.61667 158.792 5.58C158.665 5.54 158.515 5.52 158.342 5.52C158.192 5.52 158.057 5.54 157.937 5.58C157.817 5.61667 157.713 5.66833 157.627 5.735C157.543 5.80167 157.478 5.88 157.432 5.97C157.388 6.05667 157.367 6.15167 157.367 6.255C157.367 6.385 157.403 6.49333 157.477 6.58C157.553 6.66667 157.653 6.74167 157.777 6.805C157.9 6.86833 158.04 6.925 158.197 6.975C158.353 7.02167 158.513 7.07333 158.677 7.13C158.843 7.18333 159.005 7.24333 159.162 7.31C159.318 7.37667 159.458 7.46 159.582 7.56C159.705 7.66 159.803 7.78333 159.877 7.93C159.953 8.07333 159.992 8.24667 159.992 8.45C159.992 8.68333 159.95 8.9 159.867 9.1C159.783 9.29667 159.66 9.46833 159.497 9.615C159.333 9.75833 159.133 9.87167 158.897 9.955C158.66 10.0383 158.387 10.08 158.077 10.08C157.723 10.08 157.403 10.0233 157.117 9.91C156.83 9.79333 156.587 9.645 156.387 9.465L156.597 9.125C156.623 9.08167 156.655 9.04833 156.692 9.025C156.728 9.00167 156.775 8.99 156.832 8.99C156.892 8.99 156.955 9.01333 157.022 9.06C157.088 9.10667 157.168 9.15833 157.262 9.215C157.358 9.27167 157.475 9.32333 157.612 9.37C157.748 9.41667 157.918 9.44 158.122 9.44C158.295 9.44 158.447 9.41833 158.577 9.375C158.707 9.32833 158.815 9.26667 158.902 9.19C158.988 9.11333 159.052 9.025 159.092 8.925C159.135 8.825 159.157 8.71833 159.157 8.605C159.157 8.465 159.118 8.35 159.042 8.26C158.968 8.16667 158.87 8.08833 158.747 8.025C158.623 7.95833 158.482 7.90167 158.322 7.855C158.165 7.805 158.003 7.75333 157.837 7.7C157.673 7.64667 157.512 7.58667 157.352 7.52C157.195 7.45 157.055 7.36333 156.932 7.26C156.808 7.15667 156.708 7.03 156.632 6.88C156.558 6.72667 156.522 6.54167 156.522 6.325C156.522 6.13167 156.562 5.94667 156.642 5.77C156.722 5.59 156.838 5.43333 156.992 5.3C157.145 5.16333 157.333 5.055 157.557 4.975C157.78 4.895 158.035 4.855 158.322 4.855C158.655 4.855 158.953 4.90833 159.217 5.015C159.483 5.11833 159.713 5.26167 159.907 5.445L159.707 5.77ZM162.638 10.08C162.238 10.08 161.93 9.96833 161.713 9.745C161.5 9.52167 161.393 9.2 161.393 8.78V5.68H160.783C160.73 5.68 160.685 5.665 160.648 5.635C160.611 5.60167 160.593 5.55167 160.593 5.485V5.13L161.423 5.025L161.628 3.46C161.638 3.41 161.66 3.37 161.693 3.34C161.73 3.30667 161.776 3.29 161.833 3.29H162.283V5.035H163.748V5.68H162.283V8.72C162.283 8.93333 162.335 9.09167 162.438 9.195C162.541 9.29833 162.675 9.35 162.838 9.35C162.931 9.35 163.011 9.33833 163.078 9.315C163.148 9.28833 163.208 9.26 163.258 9.23C163.308 9.2 163.35 9.17333 163.383 9.15C163.42 9.12333 163.451 9.11 163.478 9.11C163.525 9.11 163.566 9.13833 163.603 9.195L163.863 9.62C163.71 9.76333 163.525 9.87667 163.308 9.96C163.091 10.04 162.868 10.08 162.638 10.08ZM167.412 7.72C167.002 7.73333 166.652 7.76667 166.362 7.82C166.075 7.87 165.84 7.93667 165.657 8.02C165.477 8.10333 165.345 8.20167 165.262 8.315C165.182 8.42833 165.142 8.555 165.142 8.695C165.142 8.82833 165.164 8.94333 165.207 9.04C165.25 9.13667 165.309 9.21667 165.382 9.28C165.459 9.34 165.547 9.385 165.647 9.415C165.75 9.44167 165.86 9.455 165.977 9.455C166.134 9.455 166.277 9.44 166.407 9.41C166.537 9.37667 166.659 9.33 166.772 9.27C166.889 9.21 166.999 9.13833 167.102 9.055C167.209 8.97167 167.312 8.87667 167.412 8.77V7.72ZM164.537 5.65C164.817 5.38 165.119 5.17833 165.442 5.045C165.765 4.91167 166.124 4.845 166.517 4.845C166.8 4.845 167.052 4.89167 167.272 4.985C167.492 5.07833 167.677 5.20833 167.827 5.375C167.977 5.54167 168.09 5.74333 168.167 5.98C168.244 6.21667 168.282 6.47667 168.282 6.76V10H167.887C167.8 10 167.734 9.98667 167.687 9.96C167.64 9.93 167.604 9.87333 167.577 9.79L167.477 9.31C167.344 9.43333 167.214 9.54333 167.087 9.64C166.96 9.73333 166.827 9.81333 166.687 9.88C166.547 9.94333 166.397 9.99167 166.237 10.025C166.08 10.0617 165.905 10.08 165.712 10.08C165.515 10.08 165.33 10.0533 165.157 10C164.984 9.94333 164.832 9.86 164.702 9.75C164.575 9.64 164.474 9.50167 164.397 9.335C164.324 9.165 164.287 8.965 164.287 8.735C164.287 8.535 164.342 8.34333 164.452 8.16C164.562 7.97333 164.74 7.80833 164.987 7.665C165.234 7.52167 165.555 7.405 165.952 7.315C166.349 7.22167 166.835 7.16833 167.412 7.155V6.76C167.412 6.36667 167.327 6.07 167.157 5.87C166.987 5.66667 166.739 5.565 166.412 5.565C166.192 5.565 166.007 5.59333 165.857 5.65C165.71 5.70333 165.582 5.765 165.472 5.835C165.365 5.90167 165.272 5.96333 165.192 6.02C165.115 6.07333 165.039 6.1 164.962 6.1C164.902 6.1 164.85 6.085 164.807 6.055C164.764 6.02167 164.727 5.98167 164.697 5.935L164.537 5.65ZM173.163 5.835C173.136 5.87167 173.109 5.9 173.083 5.92C173.056 5.94 173.019 5.95 172.973 5.95C172.923 5.95 172.868 5.93 172.808 5.89C172.748 5.84667 172.673 5.8 172.583 5.75C172.496 5.7 172.388 5.655 172.258 5.615C172.131 5.57167 171.974 5.55 171.788 5.55C171.538 5.55 171.318 5.595 171.128 5.685C170.938 5.77167 170.778 5.89833 170.648 6.065C170.521 6.23167 170.424 6.43333 170.358 6.67C170.294 6.90667 170.263 7.17167 170.263 7.465C170.263 7.77167 170.298 8.045 170.368 8.285C170.438 8.52167 170.536 8.72167 170.663 8.885C170.793 9.045 170.948 9.16833 171.128 9.255C171.311 9.33833 171.516 9.38 171.743 9.38C171.959 9.38 172.138 9.355 172.278 9.305C172.418 9.25167 172.533 9.19333 172.623 9.13C172.716 9.06667 172.793 9.01 172.853 8.96C172.916 8.90667 172.978 8.88 173.038 8.88C173.111 8.88 173.168 8.90833 173.208 8.965L173.458 9.29C173.348 9.42667 173.223 9.54333 173.083 9.64C172.943 9.73667 172.791 9.81833 172.628 9.885C172.468 9.94833 172.299 9.995 172.123 10.025C171.946 10.055 171.766 10.07 171.583 10.07C171.266 10.07 170.971 10.0117 170.698 9.895C170.428 9.77833 170.193 9.61 169.993 9.39C169.793 9.16667 169.636 8.89333 169.523 8.57C169.409 8.24667 169.353 7.87833 169.353 7.465C169.353 7.08833 169.404 6.74 169.508 6.42C169.614 6.1 169.768 5.825 169.968 5.595C170.171 5.36167 170.419 5.18 170.713 5.05C171.009 4.92 171.349 4.855 171.733 4.855C172.089 4.855 172.403 4.91333 172.673 5.03C172.946 5.14333 173.188 5.305 173.398 5.515L173.163 5.835ZM175.308 2.635V6.97H175.538C175.605 6.97 175.66 6.96167 175.703 6.945C175.75 6.925 175.798 6.88667 175.848 6.83L177.448 5.115C177.495 5.05833 177.543 5.015 177.593 4.985C177.646 4.95167 177.716 4.935 177.803 4.935H178.608L176.743 6.92C176.653 7.03333 176.556 7.12167 176.453 7.185C176.513 7.225 176.566 7.27167 176.613 7.325C176.663 7.375 176.71 7.43333 176.753 7.5L178.733 10H177.938C177.861 10 177.795 9.98833 177.738 9.965C177.685 9.93833 177.638 9.89167 177.598 9.825L175.933 7.75C175.883 7.68 175.833 7.635 175.783 7.615C175.736 7.59167 175.663 7.58 175.563 7.58H175.308V10H174.413V2.635H175.308Z" fill="black"/>
<path d="M152.646 34.3536C152.842 34.5488 153.158 34.5488 153.354 34.3536L156.536 31.1716C156.731 30.9763 156.731 30.6597 156.536 30.4645C156.34 30.2692 156.024 30.2692 155.828 30.4645L153 33.2929L150.172 30.4645C149.976 30.2692 149.66 30.2692 149.464 30.4645C149.269 30.6597 149.269 30.9763 149.464 31.1716L152.646 34.3536ZM152.5 15V34H153.5V15H152.5Z" fill="black"/>
<path d="M177.534 13.955C177.504 14.005 177.471 14.0433 177.434 14.07C177.401 14.0933 177.359 14.105 177.309 14.105C177.252 14.105 177.186 14.0767 177.109 14.02C177.032 13.9633 176.936 13.9017 176.819 13.835C176.706 13.765 176.567 13.7017 176.404 13.645C176.244 13.5883 176.049 13.56 175.819 13.56C175.602 13.56 175.411 13.59 175.244 13.65C175.081 13.7067 174.942 13.785 174.829 13.885C174.719 13.985 174.636 14.1033 174.579 14.24C174.522 14.3733 174.494 14.5183 174.494 14.675C174.494 14.875 174.542 15.0417 174.639 15.175C174.739 15.305 174.869 15.4167 175.029 15.51C175.192 15.6033 175.376 15.685 175.579 15.755C175.786 15.8217 175.996 15.8917 176.209 15.965C176.426 16.0383 176.636 16.1217 176.839 16.215C177.046 16.305 177.229 16.42 177.389 16.56C177.552 16.7 177.682 16.8717 177.779 17.075C177.879 17.2783 177.929 17.5283 177.929 17.825C177.929 18.1383 177.876 18.4333 177.769 18.71C177.662 18.9833 177.506 19.2217 177.299 19.425C177.096 19.6283 176.844 19.7883 176.544 19.905C176.247 20.0217 175.909 20.08 175.529 20.08C175.062 20.08 174.639 19.9967 174.259 19.83C173.879 19.66 173.554 19.4317 173.284 19.145L173.564 18.685C173.591 18.6483 173.622 18.6183 173.659 18.595C173.699 18.5683 173.742 18.555 173.789 18.555C173.832 18.555 173.881 18.5733 173.934 18.61C173.991 18.6433 174.054 18.6867 174.124 18.74C174.194 18.7933 174.274 18.8517 174.364 18.915C174.454 18.9783 174.556 19.0367 174.669 19.09C174.786 19.1433 174.917 19.1883 175.064 19.225C175.211 19.2583 175.376 19.275 175.559 19.275C175.789 19.275 175.994 19.2433 176.174 19.18C176.354 19.1167 176.506 19.0283 176.629 18.915C176.756 18.7983 176.852 18.66 176.919 18.5C176.986 18.34 177.019 18.1617 177.019 17.965C177.019 17.7483 176.969 17.5717 176.869 17.435C176.772 17.295 176.644 17.1783 176.484 17.085C176.324 16.9917 176.141 16.9133 175.934 16.85C175.727 16.7833 175.517 16.7167 175.304 16.65C175.091 16.58 174.881 16.5 174.674 16.41C174.467 16.32 174.284 16.2033 174.124 16.06C173.964 15.9167 173.834 15.7383 173.734 15.525C173.637 15.3083 173.589 15.0417 173.589 14.725C173.589 14.4717 173.637 14.2267 173.734 13.99C173.834 13.7533 173.977 13.5433 174.164 13.36C174.354 13.1767 174.586 13.03 174.859 12.92C175.136 12.81 175.452 12.755 175.809 12.755C176.209 12.755 176.572 12.8183 176.899 12.945C177.229 13.0717 177.519 13.255 177.769 13.495L177.534 13.955ZM179.98 14.935V20H179.09V14.935H179.98ZM180.17 13.345C180.17 13.4317 180.152 13.5133 180.115 13.59C180.082 13.6633 180.035 13.73 179.975 13.79C179.918 13.8467 179.85 13.8917 179.77 13.925C179.693 13.9583 179.612 13.975 179.525 13.975C179.438 13.975 179.357 13.9583 179.28 13.925C179.207 13.8917 179.142 13.8467 179.085 13.79C179.028 13.73 178.983 13.6633 178.95 13.59C178.917 13.5133 178.9 13.4317 178.9 13.345C178.9 13.2583 178.917 13.1767 178.95 13.1C178.983 13.02 179.028 12.9517 179.085 12.895C179.142 12.835 179.207 12.7883 179.28 12.755C179.357 12.7217 179.438 12.705 179.525 12.705C179.612 12.705 179.693 12.7217 179.77 12.755C179.85 12.7883 179.918 12.835 179.975 12.895C180.035 12.9517 180.082 13.02 180.115 13.1C180.152 13.1767 180.17 13.2583 180.17 13.345ZM184.937 15.315C184.937 15.3783 184.926 15.44 184.902 15.5C184.882 15.56 184.854 15.6117 184.817 15.655L182.072 19.305H184.842V20H181.027V19.63C181.027 19.5867 181.037 19.5367 181.057 19.48C181.077 19.42 181.107 19.3633 181.147 19.31L183.907 15.635H181.182V14.935H184.937V15.315ZM189.256 16.915C189.256 16.7083 189.226 16.52 189.166 16.35C189.109 16.1767 189.024 16.0283 188.911 15.905C188.801 15.7783 188.666 15.6817 188.506 15.615C188.346 15.545 188.164 15.51 187.961 15.51C187.534 15.51 187.196 15.635 186.946 15.885C186.699 16.1317 186.546 16.475 186.486 16.915H189.256ZM189.976 19.29C189.866 19.4233 189.734 19.54 189.581 19.64C189.428 19.7367 189.263 19.8167 189.086 19.88C188.913 19.9433 188.733 19.99 188.546 20.02C188.359 20.0533 188.174 20.07 187.991 20.07C187.641 20.07 187.318 20.0117 187.021 19.895C186.728 19.775 186.473 19.6017 186.256 19.375C186.043 19.145 185.876 18.8617 185.756 18.525C185.636 18.1883 185.576 17.8017 185.576 17.365C185.576 17.0117 185.629 16.6817 185.736 16.375C185.846 16.0683 186.003 15.8033 186.206 15.58C186.409 15.3533 186.658 15.1767 186.951 15.05C187.244 14.92 187.574 14.855 187.941 14.855C188.244 14.855 188.524 14.9067 188.781 15.01C189.041 15.11 189.264 15.2567 189.451 15.45C189.641 15.64 189.789 15.8767 189.896 16.16C190.003 16.44 190.056 16.76 190.056 17.12C190.056 17.26 190.041 17.3533 190.011 17.4C189.981 17.4467 189.924 17.47 189.841 17.47H186.456C186.466 17.79 186.509 18.0683 186.586 18.305C186.666 18.5417 186.776 18.74 186.916 18.9C187.056 19.0567 187.223 19.175 187.416 19.255C187.609 19.3317 187.826 19.37 188.066 19.37C188.289 19.37 188.481 19.345 188.641 19.295C188.804 19.2417 188.944 19.185 189.061 19.125C189.178 19.065 189.274 19.01 189.351 18.96C189.431 18.9067 189.499 18.88 189.556 18.88C189.629 18.88 189.686 18.9083 189.726 18.965L189.976 19.29ZM191.194 17.13H195.494V17.805H191.194V17.13ZM191.194 15.455H195.494V16.13H191.194V15.455ZM199.135 19.34C199.375 19.34 199.592 19.3017 199.785 19.225C199.982 19.1483 200.148 19.0417 200.285 18.905C200.425 18.7683 200.532 18.6067 200.605 18.42C200.682 18.2333 200.72 18.03 200.72 17.81C200.72 17.5767 200.683 17.3667 200.61 17.18C200.537 16.99 200.432 16.83 200.295 16.7C200.162 16.5667 200.002 16.465 199.815 16.395C199.628 16.325 199.423 16.29 199.2 16.29C198.96 16.29 198.743 16.3317 198.55 16.415C198.357 16.495 198.192 16.605 198.055 16.745C197.922 16.8817 197.818 17.0417 197.745 17.225C197.675 17.405 197.64 17.5933 197.64 17.79C197.64 18.02 197.673 18.23 197.74 18.42C197.807 18.61 197.903 18.7733 198.03 18.91C198.16 19.0467 198.317 19.1533 198.5 19.23C198.687 19.3033 198.898 19.34 199.135 19.34ZM198.615 15.52C198.552 15.6 198.49 15.6783 198.43 15.755C198.373 15.8283 198.318 15.9017 198.265 15.975C198.435 15.8583 198.622 15.7683 198.825 15.705C199.028 15.6417 199.25 15.61 199.49 15.61C199.78 15.61 200.053 15.6583 200.31 15.755C200.567 15.8483 200.79 15.9867 200.98 16.17C201.173 16.35 201.327 16.5733 201.44 16.84C201.553 17.1033 201.61 17.405 201.61 17.745C201.61 18.075 201.55 18.3817 201.43 18.665C201.31 18.9483 201.142 19.195 200.925 19.405C200.712 19.615 200.453 19.78 200.15 19.9C199.85 20.02 199.518 20.08 199.155 20.08C198.795 20.08 198.468 20.0233 198.175 19.91C197.882 19.7933 197.632 19.63 197.425 19.42C197.222 19.2067 197.063 18.95 196.95 18.65C196.84 18.3467 196.785 18.0083 196.785 17.635C196.785 17.3217 196.853 16.9883 196.99 16.635C197.13 16.2783 197.352 15.8983 197.655 15.495L199.475 13.05C199.522 12.99 199.585 12.94 199.665 12.9C199.748 12.8567 199.843 12.835 199.95 12.835H200.74L198.615 15.52Z" fill="black"/>
<path d="M186.646 34.3536C186.842 34.5488 187.158 34.5488 187.354 34.3536L190.536 31.1716C190.731 30.9763 190.731 30.6597 190.536 30.4645C190.34 30.2692 190.024 30.2692 189.828 30.4645L187 33.2929L184.172 30.4645C183.976 30.2692 183.66 30.2692 183.464 30.4645C183.269 30.6597 183.269 30.9763 183.464 31.1716L186.646 34.3536ZM186.5 23V34H187.5V23H186.5Z" fill="black"/>
</svg>
